G75*
G70*
%OFA0B0*%
%FSLAX25Y25*%
%IPPOS*%
%LPD*%
%AMOC8*
5,1,8,0,0,1.08239X$1,22.5*
%
%AMM1*
21,1,0.086610,0.073230,0.000000,0.000000,270.000000*
21,1,0.069290,0.090550,0.000000,0.000000,270.000000*
1,1,0.017320,-0.036610,-0.034650*
1,1,0.017320,-0.036610,0.034650*
1,1,0.017320,0.036610,0.034650*
1,1,0.017320,0.036610,-0.034650*
%
%AMM10*
21,1,0.015750,0.016540,0.000000,0.000000,270.000000*
21,1,0.012600,0.019680,0.000000,0.000000,270.000000*
1,1,0.003150,-0.008270,-0.006300*
1,1,0.003150,-0.008270,0.006300*
1,1,0.003150,0.008270,0.006300*
1,1,0.003150,0.008270,-0.006300*
%
%AMM11*
21,1,0.023620,0.018900,0.000000,0.000000,90.000000*
21,1,0.018900,0.023620,0.000000,0.000000,90.000000*
1,1,0.004720,0.009450,0.009450*
1,1,0.004720,0.009450,-0.009450*
1,1,0.004720,-0.009450,-0.009450*
1,1,0.004720,-0.009450,0.009450*
%
%AMM117*
21,1,0.021650,0.052760,0.000000,-0.000000,180.000000*
21,1,0.017320,0.057090,0.000000,-0.000000,180.000000*
1,1,0.004330,-0.008660,0.026380*
1,1,0.004330,0.008660,0.026380*
1,1,0.004330,0.008660,-0.026380*
1,1,0.004330,-0.008660,-0.026380*
%
%AMM12*
21,1,0.019680,0.019680,0.000000,0.000000,0.000000*
21,1,0.015750,0.023620,0.000000,0.000000,0.000000*
1,1,0.003940,0.007870,-0.009840*
1,1,0.003940,-0.007870,-0.009840*
1,1,0.003940,-0.007870,0.009840*
1,1,0.003940,0.007870,0.009840*
%
%AMM13*
21,1,0.019680,0.019680,0.000000,0.000000,270.000000*
21,1,0.015750,0.023620,0.000000,0.000000,270.000000*
1,1,0.003940,-0.009840,-0.007870*
1,1,0.003940,-0.009840,0.007870*
1,1,0.003940,0.009840,0.007870*
1,1,0.003940,0.009840,-0.007870*
%
%AMM185*
21,1,0.025590,0.026380,-0.000000,-0.000000,90.000000*
21,1,0.020470,0.031500,-0.000000,-0.000000,90.000000*
1,1,0.005120,0.013190,0.010240*
1,1,0.005120,0.013190,-0.010240*
1,1,0.005120,-0.013190,-0.010240*
1,1,0.005120,-0.013190,0.010240*
%
%AMM186*
21,1,0.017720,0.027950,-0.000000,-0.000000,90.000000*
21,1,0.014170,0.031500,-0.000000,-0.000000,90.000000*
1,1,0.003540,0.013980,0.007090*
1,1,0.003540,0.013980,-0.007090*
1,1,0.003540,-0.013980,-0.007090*
1,1,0.003540,-0.013980,0.007090*
%
%AMM187*
21,1,0.012600,0.028980,-0.000000,-0.000000,270.000000*
21,1,0.010080,0.031500,-0.000000,-0.000000,270.000000*
1,1,0.002520,-0.014490,-0.005040*
1,1,0.002520,-0.014490,0.005040*
1,1,0.002520,0.014490,0.005040*
1,1,0.002520,0.014490,-0.005040*
%
%AMM188*
21,1,0.023620,0.030710,-0.000000,-0.000000,0.000000*
21,1,0.018900,0.035430,-0.000000,-0.000000,0.000000*
1,1,0.004720,0.009450,-0.015350*
1,1,0.004720,-0.009450,-0.015350*
1,1,0.004720,-0.009450,0.015350*
1,1,0.004720,0.009450,0.015350*
%
%AMM189*
21,1,0.027560,0.018900,-0.000000,-0.000000,270.000000*
21,1,0.022840,0.023620,-0.000000,-0.000000,270.000000*
1,1,0.004720,-0.009450,-0.011420*
1,1,0.004720,-0.009450,0.011420*
1,1,0.004720,0.009450,0.011420*
1,1,0.004720,0.009450,-0.011420*
%
%AMM190*
21,1,0.031500,0.072440,-0.000000,-0.000000,270.000000*
21,1,0.025200,0.078740,-0.000000,-0.000000,270.000000*
1,1,0.006300,-0.036220,-0.012600*
1,1,0.006300,-0.036220,0.012600*
1,1,0.006300,0.036220,0.012600*
1,1,0.006300,0.036220,-0.012600*
%
%AMM191*
21,1,0.027560,0.018900,-0.000000,-0.000000,0.000000*
21,1,0.022840,0.023620,-0.000000,-0.000000,0.000000*
1,1,0.004720,0.011420,-0.009450*
1,1,0.004720,-0.011420,-0.009450*
1,1,0.004720,-0.011420,0.009450*
1,1,0.004720,0.011420,0.009450*
%
%AMM192*
21,1,0.023620,0.030710,-0.000000,-0.000000,90.000000*
21,1,0.018900,0.035430,-0.000000,-0.000000,90.000000*
1,1,0.004720,0.015350,0.009450*
1,1,0.004720,0.015350,-0.009450*
1,1,0.004720,-0.015350,-0.009450*
1,1,0.004720,-0.015350,0.009450*
%
%AMM193*
21,1,0.035430,0.030320,-0.000000,-0.000000,90.000000*
21,1,0.028350,0.037400,-0.000000,-0.000000,90.000000*
1,1,0.007090,0.015160,0.014170*
1,1,0.007090,0.015160,-0.014170*
1,1,0.007090,-0.015160,-0.014170*
1,1,0.007090,-0.015160,0.014170*
%
%AMM194*
21,1,0.043310,0.075980,-0.000000,-0.000000,180.000000*
21,1,0.034650,0.084650,-0.000000,-0.000000,180.000000*
1,1,0.008660,-0.017320,0.037990*
1,1,0.008660,0.017320,0.037990*
1,1,0.008660,0.017320,-0.037990*
1,1,0.008660,-0.017320,-0.037990*
%
%AMM195*
21,1,0.039370,0.035430,-0.000000,-0.000000,180.000000*
21,1,0.031500,0.043310,-0.000000,-0.000000,180.000000*
1,1,0.007870,-0.015750,0.017720*
1,1,0.007870,0.015750,0.017720*
1,1,0.007870,0.015750,-0.017720*
1,1,0.007870,-0.015750,-0.017720*
%
%AMM196*
21,1,0.027560,0.030710,-0.000000,-0.000000,180.000000*
21,1,0.022050,0.036220,-0.000000,-0.000000,180.000000*
1,1,0.005510,-0.011020,0.015350*
1,1,0.005510,0.011020,0.015350*
1,1,0.005510,0.011020,-0.015350*
1,1,0.005510,-0.011020,-0.015350*
%
%AMM197*
21,1,0.031500,0.072440,-0.000000,-0.000000,180.000000*
21,1,0.025200,0.078740,-0.000000,-0.000000,180.000000*
1,1,0.006300,-0.012600,0.036220*
1,1,0.006300,0.012600,0.036220*
1,1,0.006300,0.012600,-0.036220*
1,1,0.006300,-0.012600,-0.036220*
%
%AMM198*
21,1,0.137800,0.067720,-0.000000,-0.000000,180.000000*
21,1,0.120870,0.084650,-0.000000,-0.000000,180.000000*
1,1,0.016930,-0.060430,0.033860*
1,1,0.016930,0.060430,0.033860*
1,1,0.016930,0.060430,-0.033860*
1,1,0.016930,-0.060430,-0.033860*
%
%AMM199*
21,1,0.043310,0.075990,-0.000000,-0.000000,180.000000*
21,1,0.034650,0.084650,-0.000000,-0.000000,180.000000*
1,1,0.008660,-0.017320,0.037990*
1,1,0.008660,0.017320,0.037990*
1,1,0.008660,0.017320,-0.037990*
1,1,0.008660,-0.017320,-0.037990*
%
%AMM2*
21,1,0.094490,0.111020,0.000000,0.000000,0.000000*
21,1,0.075590,0.129920,0.000000,0.000000,0.000000*
1,1,0.018900,0.037800,-0.055510*
1,1,0.018900,-0.037800,-0.055510*
1,1,0.018900,-0.037800,0.055510*
1,1,0.018900,0.037800,0.055510*
%
%AMM200*
21,1,0.086610,0.073230,-0.000000,-0.000000,270.000000*
21,1,0.069290,0.090550,-0.000000,-0.000000,270.000000*
1,1,0.017320,-0.036610,-0.034650*
1,1,0.017320,-0.036610,0.034650*
1,1,0.017320,0.036610,0.034650*
1,1,0.017320,0.036610,-0.034650*
%
%AMM251*
21,1,0.035430,0.030320,0.000000,-0.000000,90.000000*
21,1,0.028350,0.037400,0.000000,-0.000000,90.000000*
1,1,0.007090,0.015160,0.014170*
1,1,0.007090,0.015160,-0.014170*
1,1,0.007090,-0.015160,-0.014170*
1,1,0.007090,-0.015160,0.014170*
%
%AMM252*
21,1,0.033470,0.026770,0.000000,-0.000000,270.000000*
21,1,0.026770,0.033470,0.000000,-0.000000,270.000000*
1,1,0.006690,-0.013390,-0.013390*
1,1,0.006690,-0.013390,0.013390*
1,1,0.006690,0.013390,0.013390*
1,1,0.006690,0.013390,-0.013390*
%
%AMM253*
21,1,0.027560,0.030710,0.000000,-0.000000,90.000000*
21,1,0.022050,0.036220,0.000000,-0.000000,90.000000*
1,1,0.005510,0.015350,0.011020*
1,1,0.005510,0.015350,-0.011020*
1,1,0.005510,-0.015350,-0.011020*
1,1,0.005510,-0.015350,0.011020*
%
%AMM3*
21,1,0.074800,0.083460,0.000000,0.000000,0.000000*
21,1,0.059840,0.098430,0.000000,0.000000,0.000000*
1,1,0.014960,0.029920,-0.041730*
1,1,0.014960,-0.029920,-0.041730*
1,1,0.014960,-0.029920,0.041730*
1,1,0.014960,0.029920,0.041730*
%
%AMM4*
21,1,0.078740,0.053540,0.000000,0.000000,180.000000*
21,1,0.065350,0.066930,0.000000,0.000000,180.000000*
1,1,0.013390,-0.032680,0.026770*
1,1,0.013390,0.032680,0.026770*
1,1,0.013390,0.032680,-0.026770*
1,1,0.013390,-0.032680,-0.026770*
%
%AMM5*
21,1,0.035430,0.030320,0.000000,0.000000,90.000000*
21,1,0.028350,0.037400,0.000000,0.000000,90.000000*
1,1,0.007090,0.015160,0.014170*
1,1,0.007090,0.015160,-0.014170*
1,1,0.007090,-0.015160,-0.014170*
1,1,0.007090,-0.015160,0.014170*
%
%AMM6*
21,1,0.021650,0.052760,0.000000,0.000000,270.000000*
21,1,0.017320,0.057090,0.000000,0.000000,270.000000*
1,1,0.004330,-0.026380,-0.008660*
1,1,0.004330,-0.026380,0.008660*
1,1,0.004330,0.026380,0.008660*
1,1,0.004330,0.026380,-0.008660*
%
%AMM7*
21,1,0.035830,0.026770,0.000000,0.000000,0.000000*
21,1,0.029130,0.033470,0.000000,0.000000,0.000000*
1,1,0.006690,0.014570,-0.013390*
1,1,0.006690,-0.014570,-0.013390*
1,1,0.006690,-0.014570,0.013390*
1,1,0.006690,0.014570,0.013390*
%
%AMM8*
21,1,0.070870,0.036220,0.000000,0.000000,90.000000*
21,1,0.061810,0.045280,0.000000,0.000000,90.000000*
1,1,0.009060,0.018110,0.030910*
1,1,0.009060,0.018110,-0.030910*
1,1,0.009060,-0.018110,-0.030910*
1,1,0.009060,-0.018110,0.030910*
%
%AMM9*
21,1,0.033470,0.026770,0.000000,0.000000,0.000000*
21,1,0.026770,0.033470,0.000000,0.000000,0.000000*
1,1,0.006690,0.013390,-0.013390*
1,1,0.006690,-0.013390,-0.013390*
1,1,0.006690,-0.013390,0.013390*
1,1,0.006690,0.013390,0.013390*
%
%ADD100M1*%
%ADD101M2*%
%ADD102M3*%
%ADD103M4*%
%ADD104M5*%
%ADD105M6*%
%ADD106M7*%
%ADD107M8*%
%ADD108M9*%
%ADD109M10*%
%ADD110M11*%
%ADD111M12*%
%ADD112M13*%
%ADD15C,0.02362*%
%ADD153R,0.02559X0.01575*%
%ADD154R,0.01575X0.02559*%
%ADD163R,0.03543X0.03150*%
%ADD164R,0.03150X0.03543*%
%ADD173O,0.04724X0.00866*%
%ADD174O,0.00866X0.04724*%
%ADD175O,0.04331X0.01181*%
%ADD178R,0.01378X0.00984*%
%ADD179R,0.00984X0.01378*%
%ADD184O,0.08661X0.02362*%
%ADD23C,0.03150*%
%ADD289M117*%
%ADD299R,0.01181X0.05512*%
%ADD322O,0.02362X0.08661*%
%ADD380M185*%
%ADD381M186*%
%ADD382M187*%
%ADD383M188*%
%ADD384M189*%
%ADD385M190*%
%ADD386M191*%
%ADD387M192*%
%ADD388M193*%
%ADD389M194*%
%ADD390M195*%
%ADD391M196*%
%ADD392M197*%
%ADD393M198*%
%ADD394M199*%
%ADD395M200*%
%ADD447M251*%
%ADD448M252*%
%ADD449M253*%
%ADD53R,0.05118X0.03937*%
%ADD54R,0.07874X0.02559*%
%ADD56R,0.00787X0.14567*%
%ADD57R,0.00787X0.01575*%
%ADD58R,0.00787X0.06299*%
%ADD59R,0.00787X0.38189*%
%ADD60R,0.00787X0.09055*%
%ADD61R,0.05512X0.00787*%
%ADD62R,0.25197X0.00787*%
%ADD63R,0.06693X0.00787*%
%ADD64R,0.12992X0.00787*%
%ADD65R,0.00787X0.27559*%
%ADD66R,0.00787X0.12992*%
%ADD67R,0.00787X0.24803*%
%ADD68R,0.01181X0.04528*%
%ADD72R,0.02717X0.05315*%
%ADD82O,0.00000X0.00000*%
%ADD83R,0.07677X0.04567*%
X0000000Y0000000D02*
%LPD*%
G01*
G36*
G01*
X0381102Y0331398D02*
X0381102Y0336319D01*
G75*
G02*
X0381496Y0336713I0000394J0000000D01*
G01*
X0384646Y0336713D01*
G75*
G02*
X0385039Y0336319I0000000J-000394D01*
G01*
X0385039Y0331398D01*
G75*
G02*
X0384646Y0331004I-000394J0000000D01*
G01*
X0381496Y0331004D01*
G75*
G02*
X0381102Y0331398I0000000J0000394D01*
G01*
G37*
G36*
G01*
X0388583Y0331398D02*
X0388583Y0336319D01*
G75*
G02*
X0388976Y0336713I0000394J0000000D01*
G01*
X0392126Y0336713D01*
G75*
G02*
X0392520Y0336319I0000000J-000394D01*
G01*
X0392520Y0331398D01*
G75*
G02*
X0392126Y0331004I-000394J0000000D01*
G01*
X0388976Y0331004D01*
G75*
G02*
X0388583Y0331398I0000000J0000394D01*
G01*
G37*
G36*
G01*
X0113287Y0295709D02*
X0113287Y0294528D01*
G75*
G02*
X0112697Y0293937I-000591J0000000D01*
G01*
X0106201Y0293937D01*
G75*
G02*
X0105610Y0294528I0000000J0000591D01*
G01*
X0105610Y0295709D01*
G75*
G02*
X0106201Y0296299I0000591J0000000D01*
G01*
X0112697Y0296299D01*
G75*
G02*
X0113287Y0295709I0000000J-000591D01*
G01*
G37*
G36*
G01*
X0113287Y0300709D02*
X0113287Y0299528D01*
G75*
G02*
X0112697Y0298937I-000591J0000000D01*
G01*
X0106201Y0298937D01*
G75*
G02*
X0105610Y0299528I0000000J0000591D01*
G01*
X0105610Y0300709D01*
G75*
G02*
X0106201Y0301299I0000591J0000000D01*
G01*
X0112697Y0301299D01*
G75*
G02*
X0113287Y0300709I0000000J-000591D01*
G01*
G37*
G36*
G01*
X0113287Y0305709D02*
X0113287Y0304528D01*
G75*
G02*
X0112697Y0303937I-000591J0000000D01*
G01*
X0106201Y0303937D01*
G75*
G02*
X0105610Y0304528I0000000J0000591D01*
G01*
X0105610Y0305709D01*
G75*
G02*
X0106201Y0306299I0000591J0000000D01*
G01*
X0112697Y0306299D01*
G75*
G02*
X0113287Y0305709I0000000J-000591D01*
G01*
G37*
G36*
G01*
X0113287Y0310709D02*
X0113287Y0309528D01*
G75*
G02*
X0112697Y0308937I-000591J0000000D01*
G01*
X0106201Y0308937D01*
G75*
G02*
X0105610Y0309528I0000000J0000591D01*
G01*
X0105610Y0310709D01*
G75*
G02*
X0106201Y0311299I0000591J0000000D01*
G01*
X0112697Y0311299D01*
G75*
G02*
X0113287Y0310709I0000000J-000591D01*
G01*
G37*
G36*
G01*
X0093799Y0310709D02*
X0093799Y0309528D01*
G75*
G02*
X0093209Y0308937I-000591J0000000D01*
G01*
X0086713Y0308937D01*
G75*
G02*
X0086122Y0309528I0000000J0000591D01*
G01*
X0086122Y0310709D01*
G75*
G02*
X0086713Y0311299I0000591J0000000D01*
G01*
X0093209Y0311299D01*
G75*
G02*
X0093799Y0310709I0000000J-000591D01*
G01*
G37*
G36*
G01*
X0093799Y0305709D02*
X0093799Y0304528D01*
G75*
G02*
X0093209Y0303937I-000591J0000000D01*
G01*
X0086713Y0303937D01*
G75*
G02*
X0086122Y0304528I0000000J0000591D01*
G01*
X0086122Y0305709D01*
G75*
G02*
X0086713Y0306299I0000591J0000000D01*
G01*
X0093209Y0306299D01*
G75*
G02*
X0093799Y0305709I0000000J-000591D01*
G01*
G37*
G36*
G01*
X0093799Y0300709D02*
X0093799Y0299528D01*
G75*
G02*
X0093209Y0298937I-000591J0000000D01*
G01*
X0086713Y0298937D01*
G75*
G02*
X0086122Y0299528I0000000J0000591D01*
G01*
X0086122Y0300709D01*
G75*
G02*
X0086713Y0301299I0000591J0000000D01*
G01*
X0093209Y0301299D01*
G75*
G02*
X0093799Y0300709I0000000J-000591D01*
G01*
G37*
G36*
G01*
X0093799Y0295709D02*
X0093799Y0294528D01*
G75*
G02*
X0093209Y0293937I-000591J0000000D01*
G01*
X0086713Y0293937D01*
G75*
G02*
X0086122Y0294528I0000000J0000591D01*
G01*
X0086122Y0295709D01*
G75*
G02*
X0086713Y0296299I0000591J0000000D01*
G01*
X0093209Y0296299D01*
G75*
G02*
X0093799Y0295709I0000000J-000591D01*
G01*
G37*
G36*
G01*
X0032520Y0039232D02*
X0035197Y0039232D01*
G75*
G02*
X0035531Y0038898I0000000J-000335D01*
G01*
X0035531Y0036220D01*
G75*
G02*
X0035197Y0035886I-000335J0000000D01*
G01*
X0032520Y0035886D01*
G75*
G02*
X0032185Y0036220I0000000J0000335D01*
G01*
X0032185Y0038898D01*
G75*
G02*
X0032520Y0039232I0000335J0000000D01*
G01*
G37*
G36*
G01*
X0032520Y0033012D02*
X0035197Y0033012D01*
G75*
G02*
X0035531Y0032677I0000000J-000335D01*
G01*
X0035531Y0030000D01*
G75*
G02*
X0035197Y0029665I-000335J0000000D01*
G01*
X0032520Y0029665D01*
G75*
G02*
X0032185Y0030000I0000000J0000335D01*
G01*
X0032185Y0032677D01*
G75*
G02*
X0032520Y0033012I0000335J0000000D01*
G01*
G37*
G36*
G01*
X0381102Y0341240D02*
X0381102Y0346161D01*
G75*
G02*
X0381496Y0346555I0000394J0000000D01*
G01*
X0384646Y0346555D01*
G75*
G02*
X0385039Y0346161I0000000J-000394D01*
G01*
X0385039Y0341240D01*
G75*
G02*
X0384646Y0340846I-000394J0000000D01*
G01*
X0381496Y0340846D01*
G75*
G02*
X0381102Y0341240I0000000J0000394D01*
G01*
G37*
G36*
G01*
X0388583Y0341240D02*
X0388583Y0346161D01*
G75*
G02*
X0388976Y0346555I0000394J0000000D01*
G01*
X0392126Y0346555D01*
G75*
G02*
X0392520Y0346161I0000000J-000394D01*
G01*
X0392520Y0341240D01*
G75*
G02*
X0392126Y0340846I-000394J0000000D01*
G01*
X0388976Y0340846D01*
G75*
G02*
X0388583Y0341240I0000000J0000394D01*
G01*
G37*
G36*
G01*
X0113386Y0155787D02*
X0113386Y0153031D01*
G75*
G02*
X0112402Y0152047I-000984J0000000D01*
G01*
X0105709Y0152047D01*
G75*
G02*
X0104724Y0153031I0000000J0000984D01*
G01*
X0104724Y0155787D01*
G75*
G02*
X0105709Y0156772I0000984J0000000D01*
G01*
X0112402Y0156772D01*
G75*
G02*
X0113386Y0155787I0000000J-000984D01*
G01*
G37*
G36*
G01*
X0096850Y0161811D02*
X0096850Y0152953D01*
G75*
G02*
X0095866Y0151969I-000984J0000000D01*
G01*
X0085827Y0151969D01*
G75*
G02*
X0084843Y0152953I0000000J0000984D01*
G01*
X0084843Y0161811D01*
G75*
G02*
X0085827Y0162795I0000984J0000000D01*
G01*
X0095866Y0162795D01*
G75*
G02*
X0096850Y0161811I0000000J-000984D01*
G01*
G37*
G36*
G01*
X0096850Y0173819D02*
X0096850Y0164961D01*
G75*
G02*
X0095866Y0163976I-000984J0000000D01*
G01*
X0085827Y0163976D01*
G75*
G02*
X0084843Y0164961I0000000J0000984D01*
G01*
X0084843Y0173819D01*
G75*
G02*
X0085827Y0174803I0000984J0000000D01*
G01*
X0095866Y0174803D01*
G75*
G02*
X0096850Y0173819I0000000J-000984D01*
G01*
G37*
G36*
G01*
X0083661Y0161811D02*
X0083661Y0152953D01*
G75*
G02*
X0082677Y0151969I-000984J0000000D01*
G01*
X0072638Y0151969D01*
G75*
G02*
X0071654Y0152953I0000000J0000984D01*
G01*
X0071654Y0161811D01*
G75*
G02*
X0072638Y0162795I0000984J0000000D01*
G01*
X0082677Y0162795D01*
G75*
G02*
X0083661Y0161811I0000000J-000984D01*
G01*
G37*
G36*
G01*
X0083661Y0173819D02*
X0083661Y0164961D01*
G75*
G02*
X0082677Y0163976I-000984J0000000D01*
G01*
X0072638Y0163976D01*
G75*
G02*
X0071654Y0164961I0000000J0000984D01*
G01*
X0071654Y0173819D01*
G75*
G02*
X0072638Y0174803I0000984J0000000D01*
G01*
X0082677Y0174803D01*
G75*
G02*
X0083661Y0173819I0000000J-000984D01*
G01*
G37*
G36*
G01*
X0113386Y0173740D02*
X0113386Y0170984D01*
G75*
G02*
X0112402Y0170000I-000984J0000000D01*
G01*
X0105709Y0170000D01*
G75*
G02*
X0104724Y0170984I0000000J0000984D01*
G01*
X0104724Y0173740D01*
G75*
G02*
X0105709Y0174724I0000984J0000000D01*
G01*
X0112402Y0174724D01*
G75*
G02*
X0113386Y0173740I0000000J-000984D01*
G01*
G37*
G36*
G01*
X0113386Y0238465D02*
X0113386Y0235709D01*
G75*
G02*
X0112402Y0234724I-000984J0000000D01*
G01*
X0105709Y0234724D01*
G75*
G02*
X0104724Y0235709I0000000J0000984D01*
G01*
X0104724Y0238465D01*
G75*
G02*
X0105709Y0239449I0000984J0000000D01*
G01*
X0112402Y0239449D01*
G75*
G02*
X0113386Y0238465I0000000J-000984D01*
G01*
G37*
G36*
G01*
X0096850Y0244488D02*
X0096850Y0235630D01*
G75*
G02*
X0095866Y0234646I-000984J0000000D01*
G01*
X0085827Y0234646D01*
G75*
G02*
X0084843Y0235630I0000000J0000984D01*
G01*
X0084843Y0244488D01*
G75*
G02*
X0085827Y0245472I0000984J0000000D01*
G01*
X0095866Y0245472D01*
G75*
G02*
X0096850Y0244488I0000000J-000984D01*
G01*
G37*
G36*
G01*
X0096850Y0256496D02*
X0096850Y0247638D01*
G75*
G02*
X0095866Y0246654I-000984J0000000D01*
G01*
X0085827Y0246654D01*
G75*
G02*
X0084843Y0247638I0000000J0000984D01*
G01*
X0084843Y0256496D01*
G75*
G02*
X0085827Y0257480I0000984J0000000D01*
G01*
X0095866Y0257480D01*
G75*
G02*
X0096850Y0256496I0000000J-000984D01*
G01*
G37*
G36*
G01*
X0083661Y0244488D02*
X0083661Y0235630D01*
G75*
G02*
X0082677Y0234646I-000984J0000000D01*
G01*
X0072638Y0234646D01*
G75*
G02*
X0071654Y0235630I0000000J0000984D01*
G01*
X0071654Y0244488D01*
G75*
G02*
X0072638Y0245472I0000984J0000000D01*
G01*
X0082677Y0245472D01*
G75*
G02*
X0083661Y0244488I0000000J-000984D01*
G01*
G37*
G36*
G01*
X0083661Y0256496D02*
X0083661Y0247638D01*
G75*
G02*
X0082677Y0246654I-000984J0000000D01*
G01*
X0072638Y0246654D01*
G75*
G02*
X0071654Y0247638I0000000J0000984D01*
G01*
X0071654Y0256496D01*
G75*
G02*
X0072638Y0257480I0000984J0000000D01*
G01*
X0082677Y0257480D01*
G75*
G02*
X0083661Y0256496I0000000J-000984D01*
G01*
G37*
G36*
G01*
X0113386Y0256417D02*
X0113386Y0253661D01*
G75*
G02*
X0112402Y0252677I-000984J0000000D01*
G01*
X0105709Y0252677D01*
G75*
G02*
X0104724Y0253661I0000000J0000984D01*
G01*
X0104724Y0256417D01*
G75*
G02*
X0105709Y0257402I0000984J0000000D01*
G01*
X0112402Y0257402D01*
G75*
G02*
X0113386Y0256417I0000000J-000984D01*
G01*
G37*
G36*
G01*
X0113386Y0210906D02*
X0113386Y0208150D01*
G75*
G02*
X0112402Y0207165I-000984J0000000D01*
G01*
X0105709Y0207165D01*
G75*
G02*
X0104724Y0208150I0000000J0000984D01*
G01*
X0104724Y0210906D01*
G75*
G02*
X0105709Y0211890I0000984J0000000D01*
G01*
X0112402Y0211890D01*
G75*
G02*
X0113386Y0210906I0000000J-000984D01*
G01*
G37*
G36*
G01*
X0096850Y0216929D02*
X0096850Y0208071D01*
G75*
G02*
X0095866Y0207087I-000984J0000000D01*
G01*
X0085827Y0207087D01*
G75*
G02*
X0084843Y0208071I0000000J0000984D01*
G01*
X0084843Y0216929D01*
G75*
G02*
X0085827Y0217913I0000984J0000000D01*
G01*
X0095866Y0217913D01*
G75*
G02*
X0096850Y0216929I0000000J-000984D01*
G01*
G37*
G36*
G01*
X0096850Y0228937D02*
X0096850Y0220079D01*
G75*
G02*
X0095866Y0219094I-000984J0000000D01*
G01*
X0085827Y0219094D01*
G75*
G02*
X0084843Y0220079I0000000J0000984D01*
G01*
X0084843Y0228937D01*
G75*
G02*
X0085827Y0229921I0000984J0000000D01*
G01*
X0095866Y0229921D01*
G75*
G02*
X0096850Y0228937I0000000J-000984D01*
G01*
G37*
G36*
G01*
X0083661Y0216929D02*
X0083661Y0208071D01*
G75*
G02*
X0082677Y0207087I-000984J0000000D01*
G01*
X0072638Y0207087D01*
G75*
G02*
X0071654Y0208071I0000000J0000984D01*
G01*
X0071654Y0216929D01*
G75*
G02*
X0072638Y0217913I0000984J0000000D01*
G01*
X0082677Y0217913D01*
G75*
G02*
X0083661Y0216929I0000000J-000984D01*
G01*
G37*
G36*
G01*
X0083661Y0228937D02*
X0083661Y0220079D01*
G75*
G02*
X0082677Y0219094I-000984J0000000D01*
G01*
X0072638Y0219094D01*
G75*
G02*
X0071654Y0220079I0000000J0000984D01*
G01*
X0071654Y0228937D01*
G75*
G02*
X0072638Y0229921I0000984J0000000D01*
G01*
X0082677Y0229921D01*
G75*
G02*
X0083661Y0228937I0000000J-000984D01*
G01*
G37*
G36*
G01*
X0113386Y0228858D02*
X0113386Y0226102D01*
G75*
G02*
X0112402Y0225118I-000984J0000000D01*
G01*
X0105709Y0225118D01*
G75*
G02*
X0104724Y0226102I0000000J0000984D01*
G01*
X0104724Y0228858D01*
G75*
G02*
X0105709Y0229843I0000984J0000000D01*
G01*
X0112402Y0229843D01*
G75*
G02*
X0113386Y0228858I0000000J-000984D01*
G01*
G37*
G36*
G01*
X0091575Y0026437D02*
X0094252Y0026437D01*
G75*
G02*
X0094587Y0026102I0000000J-000335D01*
G01*
X0094587Y0023425D01*
G75*
G02*
X0094252Y0023091I-000335J0000000D01*
G01*
X0091575Y0023091D01*
G75*
G02*
X0091240Y0023425I0000000J0000335D01*
G01*
X0091240Y0026102D01*
G75*
G02*
X0091575Y0026437I0000335J0000000D01*
G01*
G37*
G36*
G01*
X0091575Y0020217D02*
X0094252Y0020217D01*
G75*
G02*
X0094587Y0019882I0000000J-000335D01*
G01*
X0094587Y0017205D01*
G75*
G02*
X0094252Y0016870I-000335J0000000D01*
G01*
X0091575Y0016870D01*
G75*
G02*
X0091240Y0017205I0000000J0000335D01*
G01*
X0091240Y0019882D01*
G75*
G02*
X0091575Y0020217I0000335J0000000D01*
G01*
G37*
G36*
G01*
X0142057Y0316201D02*
X0142057Y0313130D01*
G75*
G02*
X0141781Y0312854I-000276J0000000D01*
G01*
X0139577Y0312854D01*
G75*
G02*
X0139301Y0313130I0000000J0000276D01*
G01*
X0139301Y0316201D01*
G75*
G02*
X0139577Y0316476I0000276J0000000D01*
G01*
X0141781Y0316476D01*
G75*
G02*
X0142057Y0316201I0000000J-000276D01*
G01*
G37*
G36*
G01*
X0135758Y0316201D02*
X0135758Y0313130D01*
G75*
G02*
X0135482Y0312854I-000276J0000000D01*
G01*
X0133278Y0312854D01*
G75*
G02*
X0133002Y0313130I0000000J0000276D01*
G01*
X0133002Y0316201D01*
G75*
G02*
X0133278Y0316476I0000276J0000000D01*
G01*
X0135482Y0316476D01*
G75*
G02*
X0135758Y0316201I0000000J-000276D01*
G01*
G37*
G36*
G01*
X0064508Y0063681D02*
X0067185Y0063681D01*
G75*
G02*
X0067520Y0063346I0000000J-000335D01*
G01*
X0067520Y0060669D01*
G75*
G02*
X0067185Y0060335I-000335J0000000D01*
G01*
X0064508Y0060335D01*
G75*
G02*
X0064173Y0060669I0000000J0000335D01*
G01*
X0064173Y0063346D01*
G75*
G02*
X0064508Y0063681I0000335J0000000D01*
G01*
G37*
G36*
G01*
X0064508Y0057461D02*
X0067185Y0057461D01*
G75*
G02*
X0067520Y0057126I0000000J-000335D01*
G01*
X0067520Y0054449D01*
G75*
G02*
X0067185Y0054114I-000335J0000000D01*
G01*
X0064508Y0054114D01*
G75*
G02*
X0064173Y0054449I0000000J0000335D01*
G01*
X0064173Y0057126D01*
G75*
G02*
X0064508Y0057461I0000335J0000000D01*
G01*
G37*
G36*
G01*
X0069980Y0075591D02*
X0074902Y0075591D01*
G75*
G02*
X0075886Y0074606I0000000J-000984D01*
G01*
X0075886Y0070965D01*
G75*
G02*
X0074902Y0069980I-000984J0000000D01*
G01*
X0069980Y0069980D01*
G75*
G02*
X0068996Y0070965I0000000J0000984D01*
G01*
X0068996Y0074606D01*
G75*
G02*
X0069980Y0075591I0000984J0000000D01*
G01*
G37*
G36*
G01*
X0069980Y0063878D02*
X0074902Y0063878D01*
G75*
G02*
X0075886Y0062894I0000000J-000984D01*
G01*
X0075886Y0059252D01*
G75*
G02*
X0074902Y0058268I-000984J0000000D01*
G01*
X0069980Y0058268D01*
G75*
G02*
X0068996Y0059252I0000000J0000984D01*
G01*
X0068996Y0062894D01*
G75*
G02*
X0069980Y0063878I0000984J0000000D01*
G01*
G37*
G36*
G01*
X0367520Y0331398D02*
X0367520Y0336319D01*
G75*
G02*
X0367913Y0336713I0000394J0000000D01*
G01*
X0371063Y0336713D01*
G75*
G02*
X0371457Y0336319I0000000J-000394D01*
G01*
X0371457Y0331398D01*
G75*
G02*
X0371063Y0331004I-000394J0000000D01*
G01*
X0367913Y0331004D01*
G75*
G02*
X0367520Y0331398I0000000J0000394D01*
G01*
G37*
G36*
G01*
X0375000Y0331398D02*
X0375000Y0336319D01*
G75*
G02*
X0375394Y0336713I0000394J0000000D01*
G01*
X0378543Y0336713D01*
G75*
G02*
X0378937Y0336319I0000000J-000394D01*
G01*
X0378937Y0331398D01*
G75*
G02*
X0378543Y0331004I-000394J0000000D01*
G01*
X0375394Y0331004D01*
G75*
G02*
X0375000Y0331398I0000000J0000394D01*
G01*
G37*
G36*
G01*
X0004961Y0072894D02*
X0007638Y0072894D01*
G75*
G02*
X0007972Y0072559I0000000J-000335D01*
G01*
X0007972Y0069882D01*
G75*
G02*
X0007638Y0069547I-000335J0000000D01*
G01*
X0004961Y0069547D01*
G75*
G02*
X0004626Y0069882I0000000J0000335D01*
G01*
X0004626Y0072559D01*
G75*
G02*
X0004961Y0072894I0000335J0000000D01*
G01*
G37*
G36*
G01*
X0004961Y0066673D02*
X0007638Y0066673D01*
G75*
G02*
X0007972Y0066339I0000000J-000335D01*
G01*
X0007972Y0063661D01*
G75*
G02*
X0007638Y0063327I-000335J0000000D01*
G01*
X0004961Y0063327D01*
G75*
G02*
X0004626Y0063661I0000000J0000335D01*
G01*
X0004626Y0066339D01*
G75*
G02*
X0004961Y0066673I0000335J0000000D01*
G01*
G37*
G36*
G01*
X0117126Y0283819D02*
X0117126Y0280748D01*
G75*
G02*
X0116850Y0280472I-000276J0000000D01*
G01*
X0114646Y0280472D01*
G75*
G02*
X0114370Y0280748I0000000J0000276D01*
G01*
X0114370Y0283819D01*
G75*
G02*
X0114646Y0284094I0000276J0000000D01*
G01*
X0116850Y0284094D01*
G75*
G02*
X0117126Y0283819I0000000J-000276D01*
G01*
G37*
G36*
G01*
X0110827Y0283819D02*
X0110827Y0280748D01*
G75*
G02*
X0110551Y0280472I-000276J0000000D01*
G01*
X0108346Y0280472D01*
G75*
G02*
X0108071Y0280748I0000000J0000276D01*
G01*
X0108071Y0283819D01*
G75*
G02*
X0108346Y0284094I0000276J0000000D01*
G01*
X0110551Y0284094D01*
G75*
G02*
X0110827Y0283819I0000000J-000276D01*
G01*
G37*
G36*
G01*
X0078642Y0075591D02*
X0083563Y0075591D01*
G75*
G02*
X0084547Y0074606I0000000J-000984D01*
G01*
X0084547Y0070965D01*
G75*
G02*
X0083563Y0069980I-000984J0000000D01*
G01*
X0078642Y0069980D01*
G75*
G02*
X0077657Y0070965I0000000J0000984D01*
G01*
X0077657Y0074606D01*
G75*
G02*
X0078642Y0075591I0000984J0000000D01*
G01*
G37*
G36*
G01*
X0078642Y0063878D02*
X0083563Y0063878D01*
G75*
G02*
X0084547Y0062894I0000000J-000984D01*
G01*
X0084547Y0059252D01*
G75*
G02*
X0083563Y0058268I-000984J0000000D01*
G01*
X0078642Y0058268D01*
G75*
G02*
X0077657Y0059252I0000000J0000984D01*
G01*
X0077657Y0062894D01*
G75*
G02*
X0078642Y0063878I0000984J0000000D01*
G01*
G37*
G36*
G01*
X0113386Y0100669D02*
X0113386Y0097913D01*
G75*
G02*
X0112402Y0096929I-000984J0000000D01*
G01*
X0105709Y0096929D01*
G75*
G02*
X0104724Y0097913I0000000J0000984D01*
G01*
X0104724Y0100669D01*
G75*
G02*
X0105709Y0101654I0000984J0000000D01*
G01*
X0112402Y0101654D01*
G75*
G02*
X0113386Y0100669I0000000J-000984D01*
G01*
G37*
G36*
G01*
X0096850Y0106693D02*
X0096850Y0097835D01*
G75*
G02*
X0095866Y0096850I-000984J0000000D01*
G01*
X0085827Y0096850D01*
G75*
G02*
X0084843Y0097835I0000000J0000984D01*
G01*
X0084843Y0106693D01*
G75*
G02*
X0085827Y0107677I0000984J0000000D01*
G01*
X0095866Y0107677D01*
G75*
G02*
X0096850Y0106693I0000000J-000984D01*
G01*
G37*
G36*
G01*
X0096850Y0118701D02*
X0096850Y0109843D01*
G75*
G02*
X0095866Y0108858I-000984J0000000D01*
G01*
X0085827Y0108858D01*
G75*
G02*
X0084843Y0109843I0000000J0000984D01*
G01*
X0084843Y0118701D01*
G75*
G02*
X0085827Y0119685I0000984J0000000D01*
G01*
X0095866Y0119685D01*
G75*
G02*
X0096850Y0118701I0000000J-000984D01*
G01*
G37*
G36*
G01*
X0083661Y0106693D02*
X0083661Y0097835D01*
G75*
G02*
X0082677Y0096850I-000984J0000000D01*
G01*
X0072638Y0096850D01*
G75*
G02*
X0071654Y0097835I0000000J0000984D01*
G01*
X0071654Y0106693D01*
G75*
G02*
X0072638Y0107677I0000984J0000000D01*
G01*
X0082677Y0107677D01*
G75*
G02*
X0083661Y0106693I0000000J-000984D01*
G01*
G37*
G36*
G01*
X0083661Y0118701D02*
X0083661Y0109843D01*
G75*
G02*
X0082677Y0108858I-000984J0000000D01*
G01*
X0072638Y0108858D01*
G75*
G02*
X0071654Y0109843I0000000J0000984D01*
G01*
X0071654Y0118701D01*
G75*
G02*
X0072638Y0119685I0000984J0000000D01*
G01*
X0082677Y0119685D01*
G75*
G02*
X0083661Y0118701I0000000J-000984D01*
G01*
G37*
G36*
G01*
X0113386Y0118622D02*
X0113386Y0115866D01*
G75*
G02*
X0112402Y0114882I-000984J0000000D01*
G01*
X0105709Y0114882D01*
G75*
G02*
X0104724Y0115866I0000000J0000984D01*
G01*
X0104724Y0118622D01*
G75*
G02*
X0105709Y0119606I0000984J0000000D01*
G01*
X0112402Y0119606D01*
G75*
G02*
X0113386Y0118622I0000000J-000984D01*
G01*
G37*
D82*
X0121654Y0190157D03*
G36*
G01*
X0064311Y0075236D02*
X0067382Y0075236D01*
G75*
G02*
X0067657Y0074961I0000000J-000276D01*
G01*
X0067657Y0072756D01*
G75*
G02*
X0067382Y0072480I-000276J0000000D01*
G01*
X0064311Y0072480D01*
G75*
G02*
X0064035Y0072756I0000000J0000276D01*
G01*
X0064035Y0074961D01*
G75*
G02*
X0064311Y0075236I0000276J0000000D01*
G01*
G37*
G36*
G01*
X0064311Y0068937D02*
X0067382Y0068937D01*
G75*
G02*
X0067657Y0068661I0000000J-000276D01*
G01*
X0067657Y0066457D01*
G75*
G02*
X0067382Y0066181I-000276J0000000D01*
G01*
X0064311Y0066181D01*
G75*
G02*
X0064035Y0066457I0000000J0000276D01*
G01*
X0064035Y0068661D01*
G75*
G02*
X0064311Y0068937I0000276J0000000D01*
G01*
G37*
G36*
G01*
X0113386Y0183346D02*
X0113386Y0180591D01*
G75*
G02*
X0112402Y0179606I-000984J0000000D01*
G01*
X0105709Y0179606D01*
G75*
G02*
X0104724Y0180591I0000000J0000984D01*
G01*
X0104724Y0183346D01*
G75*
G02*
X0105709Y0184331I0000984J0000000D01*
G01*
X0112402Y0184331D01*
G75*
G02*
X0113386Y0183346I0000000J-000984D01*
G01*
G37*
G36*
G01*
X0096850Y0189370D02*
X0096850Y0180512D01*
G75*
G02*
X0095866Y0179528I-000984J0000000D01*
G01*
X0085827Y0179528D01*
G75*
G02*
X0084843Y0180512I0000000J0000984D01*
G01*
X0084843Y0189370D01*
G75*
G02*
X0085827Y0190354I0000984J0000000D01*
G01*
X0095866Y0190354D01*
G75*
G02*
X0096850Y0189370I0000000J-000984D01*
G01*
G37*
G36*
G01*
X0096850Y0201378D02*
X0096850Y0192520D01*
G75*
G02*
X0095866Y0191535I-000984J0000000D01*
G01*
X0085827Y0191535D01*
G75*
G02*
X0084843Y0192520I0000000J0000984D01*
G01*
X0084843Y0201378D01*
G75*
G02*
X0085827Y0202362I0000984J0000000D01*
G01*
X0095866Y0202362D01*
G75*
G02*
X0096850Y0201378I0000000J-000984D01*
G01*
G37*
G36*
G01*
X0083661Y0189370D02*
X0083661Y0180512D01*
G75*
G02*
X0082677Y0179528I-000984J0000000D01*
G01*
X0072638Y0179528D01*
G75*
G02*
X0071654Y0180512I0000000J0000984D01*
G01*
X0071654Y0189370D01*
G75*
G02*
X0072638Y0190354I0000984J0000000D01*
G01*
X0082677Y0190354D01*
G75*
G02*
X0083661Y0189370I0000000J-000984D01*
G01*
G37*
G36*
G01*
X0083661Y0201378D02*
X0083661Y0192520D01*
G75*
G02*
X0082677Y0191535I-000984J0000000D01*
G01*
X0072638Y0191535D01*
G75*
G02*
X0071654Y0192520I0000000J0000984D01*
G01*
X0071654Y0201378D01*
G75*
G02*
X0072638Y0202362I0000984J0000000D01*
G01*
X0082677Y0202362D01*
G75*
G02*
X0083661Y0201378I0000000J-000984D01*
G01*
G37*
G36*
G01*
X0113386Y0201299D02*
X0113386Y0198543D01*
G75*
G02*
X0112402Y0197559I-000984J0000000D01*
G01*
X0105709Y0197559D01*
G75*
G02*
X0104724Y0198543I0000000J0000984D01*
G01*
X0104724Y0201299D01*
G75*
G02*
X0105709Y0202283I0000984J0000000D01*
G01*
X0112402Y0202283D01*
G75*
G02*
X0113386Y0201299I0000000J-000984D01*
G01*
G37*
D53*
X0387795Y0064567D03*
X0387795Y0070472D03*
X0387795Y0076378D03*
X0387795Y0082283D03*
X0387795Y0088189D03*
X0387795Y0094094D03*
X0387795Y0100000D03*
X0387795Y0105906D03*
X0387795Y0111811D03*
X0387795Y0117717D03*
X0387795Y0123622D03*
X0387795Y0129528D03*
X0387795Y0135433D03*
X0337795Y0135433D03*
X0337795Y0129528D03*
X0337795Y0123622D03*
X0337795Y0117717D03*
X0337795Y0111811D03*
X0337795Y0105906D03*
X0337795Y0100000D03*
X0337795Y0094094D03*
X0337795Y0088189D03*
X0337795Y0082283D03*
X0337795Y0076378D03*
X0337795Y0070472D03*
X0337795Y0064567D03*
G36*
G01*
X0367520Y0351083D02*
X0367520Y0356004D01*
G75*
G02*
X0367913Y0356398I0000394J0000000D01*
G01*
X0371063Y0356398D01*
G75*
G02*
X0371457Y0356004I0000000J-000394D01*
G01*
X0371457Y0351083D01*
G75*
G02*
X0371063Y0350689I-000394J0000000D01*
G01*
X0367913Y0350689D01*
G75*
G02*
X0367520Y0351083I0000000J0000394D01*
G01*
G37*
G36*
G01*
X0375000Y0351083D02*
X0375000Y0356004D01*
G75*
G02*
X0375394Y0356398I0000394J0000000D01*
G01*
X0378543Y0356398D01*
G75*
G02*
X0378937Y0356004I0000000J-000394D01*
G01*
X0378937Y0351083D01*
G75*
G02*
X0378543Y0350689I-000394J0000000D01*
G01*
X0375394Y0350689D01*
G75*
G02*
X0375000Y0351083I0000000J0000394D01*
G01*
G37*
G36*
G01*
X0087303Y0075591D02*
X0092224Y0075591D01*
G75*
G02*
X0093209Y0074606I0000000J-000984D01*
G01*
X0093209Y0070965D01*
G75*
G02*
X0092224Y0069980I-000984J0000000D01*
G01*
X0087303Y0069980D01*
G75*
G02*
X0086319Y0070965I0000000J0000984D01*
G01*
X0086319Y0074606D01*
G75*
G02*
X0087303Y0075591I0000984J0000000D01*
G01*
G37*
G36*
G01*
X0087303Y0063878D02*
X0092224Y0063878D01*
G75*
G02*
X0093209Y0062894I0000000J-000984D01*
G01*
X0093209Y0059252D01*
G75*
G02*
X0092224Y0058268I-000984J0000000D01*
G01*
X0087303Y0058268D01*
G75*
G02*
X0086319Y0059252I0000000J0000984D01*
G01*
X0086319Y0062894D01*
G75*
G02*
X0087303Y0063878I0000984J0000000D01*
G01*
G37*
G36*
G01*
X0126575Y0318858D02*
X0126575Y0315787D01*
G75*
G02*
X0126299Y0315512I-000276J0000000D01*
G01*
X0124094Y0315512D01*
G75*
G02*
X0123819Y0315787I0000000J0000276D01*
G01*
X0123819Y0318858D01*
G75*
G02*
X0124094Y0319134I0000276J0000000D01*
G01*
X0126299Y0319134D01*
G75*
G02*
X0126575Y0318858I0000000J-000276D01*
G01*
G37*
G36*
G01*
X0120276Y0318858D02*
X0120276Y0315787D01*
G75*
G02*
X0120000Y0315512I-000276J0000000D01*
G01*
X0117795Y0315512D01*
G75*
G02*
X0117520Y0315787I0000000J0000276D01*
G01*
X0117520Y0318858D01*
G75*
G02*
X0117795Y0319134I0000276J0000000D01*
G01*
X0120000Y0319134D01*
G75*
G02*
X0120276Y0318858I0000000J-000276D01*
G01*
G37*
G36*
G01*
X0076811Y0292913D02*
X0072795Y0292913D01*
G75*
G02*
X0072441Y0293268I0000000J0000354D01*
G01*
X0072441Y0296102D01*
G75*
G02*
X0072795Y0296457I0000354J0000000D01*
G01*
X0076811Y0296457D01*
G75*
G02*
X0077165Y0296102I0000000J-000354D01*
G01*
X0077165Y0293268D01*
G75*
G02*
X0076811Y0292913I-000354J0000000D01*
G01*
G37*
G36*
G01*
X0076811Y0305906D02*
X0072795Y0305906D01*
G75*
G02*
X0072441Y0306260I0000000J0000354D01*
G01*
X0072441Y0309094D01*
G75*
G02*
X0072795Y0309449I0000354J0000000D01*
G01*
X0076811Y0309449D01*
G75*
G02*
X0077165Y0309094I0000000J-000354D01*
G01*
X0077165Y0306260D01*
G75*
G02*
X0076811Y0305906I-000354J0000000D01*
G01*
G37*
G36*
G01*
X0381102Y0351083D02*
X0381102Y0356004D01*
G75*
G02*
X0381496Y0356398I0000394J0000000D01*
G01*
X0384646Y0356398D01*
G75*
G02*
X0385039Y0356004I0000000J-000394D01*
G01*
X0385039Y0351083D01*
G75*
G02*
X0384646Y0350689I-000394J0000000D01*
G01*
X0381496Y0350689D01*
G75*
G02*
X0381102Y0351083I0000000J0000394D01*
G01*
G37*
G36*
G01*
X0388583Y0351083D02*
X0388583Y0356004D01*
G75*
G02*
X0388976Y0356398I0000394J0000000D01*
G01*
X0392126Y0356398D01*
G75*
G02*
X0392520Y0356004I0000000J-000394D01*
G01*
X0392520Y0351083D01*
G75*
G02*
X0392126Y0350689I-000394J0000000D01*
G01*
X0388976Y0350689D01*
G75*
G02*
X0388583Y0351083I0000000J0000394D01*
G01*
G37*
G36*
G01*
X0367520Y0341240D02*
X0367520Y0346161D01*
G75*
G02*
X0367913Y0346555I0000394J0000000D01*
G01*
X0371063Y0346555D01*
G75*
G02*
X0371457Y0346161I0000000J-000394D01*
G01*
X0371457Y0341240D01*
G75*
G02*
X0371063Y0340846I-000394J0000000D01*
G01*
X0367913Y0340846D01*
G75*
G02*
X0367520Y0341240I0000000J0000394D01*
G01*
G37*
G36*
G01*
X0375000Y0341240D02*
X0375000Y0346161D01*
G75*
G02*
X0375394Y0346555I0000394J0000000D01*
G01*
X0378543Y0346555D01*
G75*
G02*
X0378937Y0346161I0000000J-000394D01*
G01*
X0378937Y0341240D01*
G75*
G02*
X0378543Y0340846I-000394J0000000D01*
G01*
X0375394Y0340846D01*
G75*
G02*
X0375000Y0341240I0000000J0000394D01*
G01*
G37*
D83*
X0031004Y0080394D03*
X0031004Y0074646D03*
X0031004Y0068898D03*
X0031004Y0063150D03*
X0031004Y0057402D03*
X0039862Y0080394D03*
X0039862Y0074646D03*
X0039862Y0068898D03*
X0039862Y0063150D03*
X0039862Y0057402D03*
D54*
X0016535Y0078740D03*
X0016535Y0074803D03*
X0016535Y0070866D03*
X0016535Y0066929D03*
X0016535Y0062992D03*
X0016535Y0059055D03*
X0054331Y0059055D03*
X0054331Y0062992D03*
X0054331Y0066929D03*
X0054331Y0070866D03*
X0054331Y0074803D03*
X0054331Y0078740D03*
D83*
X0057972Y0044764D03*
X0057972Y0039016D03*
X0057972Y0033268D03*
X0057972Y0027520D03*
X0057972Y0021772D03*
X0066831Y0044764D03*
X0066831Y0039016D03*
X0066831Y0033268D03*
X0066831Y0027520D03*
X0066831Y0021772D03*
D54*
X0043504Y0043110D03*
X0043504Y0039173D03*
X0043504Y0035236D03*
X0043504Y0031299D03*
X0043504Y0027362D03*
X0043504Y0023425D03*
X0081299Y0023425D03*
X0081299Y0027362D03*
X0081299Y0031299D03*
X0081299Y0035236D03*
X0081299Y0039173D03*
X0081299Y0043110D03*
G36*
G01*
X0117362Y0312992D02*
X0120433Y0312992D01*
G75*
G02*
X0120709Y0312717I0000000J-000276D01*
G01*
X0120709Y0310512D01*
G75*
G02*
X0120433Y0310236I-000276J0000000D01*
G01*
X0117362Y0310236D01*
G75*
G02*
X0117087Y0310512I0000000J0000276D01*
G01*
X0117087Y0312717D01*
G75*
G02*
X0117362Y0312992I0000276J0000000D01*
G01*
G37*
G36*
G01*
X0117362Y0306693D02*
X0120433Y0306693D01*
G75*
G02*
X0120709Y0306417I0000000J-000276D01*
G01*
X0120709Y0304213D01*
G75*
G02*
X0120433Y0303937I-000276J0000000D01*
G01*
X0117362Y0303937D01*
G75*
G02*
X0117087Y0304213I0000000J0000276D01*
G01*
X0117087Y0306417D01*
G75*
G02*
X0117362Y0306693I0000276J0000000D01*
G01*
G37*
G36*
G01*
X0113386Y0128228D02*
X0113386Y0125472D01*
G75*
G02*
X0112402Y0124488I-000984J0000000D01*
G01*
X0105709Y0124488D01*
G75*
G02*
X0104724Y0125472I0000000J0000984D01*
G01*
X0104724Y0128228D01*
G75*
G02*
X0105709Y0129213I0000984J0000000D01*
G01*
X0112402Y0129213D01*
G75*
G02*
X0113386Y0128228I0000000J-000984D01*
G01*
G37*
G36*
G01*
X0096850Y0134252D02*
X0096850Y0125394D01*
G75*
G02*
X0095866Y0124409I-000984J0000000D01*
G01*
X0085827Y0124409D01*
G75*
G02*
X0084843Y0125394I0000000J0000984D01*
G01*
X0084843Y0134252D01*
G75*
G02*
X0085827Y0135236I0000984J0000000D01*
G01*
X0095866Y0135236D01*
G75*
G02*
X0096850Y0134252I0000000J-000984D01*
G01*
G37*
G36*
G01*
X0096850Y0146260D02*
X0096850Y0137402D01*
G75*
G02*
X0095866Y0136417I-000984J0000000D01*
G01*
X0085827Y0136417D01*
G75*
G02*
X0084843Y0137402I0000000J0000984D01*
G01*
X0084843Y0146260D01*
G75*
G02*
X0085827Y0147244I0000984J0000000D01*
G01*
X0095866Y0147244D01*
G75*
G02*
X0096850Y0146260I0000000J-000984D01*
G01*
G37*
G36*
G01*
X0083661Y0134252D02*
X0083661Y0125394D01*
G75*
G02*
X0082677Y0124409I-000984J0000000D01*
G01*
X0072638Y0124409D01*
G75*
G02*
X0071654Y0125394I0000000J0000984D01*
G01*
X0071654Y0134252D01*
G75*
G02*
X0072638Y0135236I0000984J0000000D01*
G01*
X0082677Y0135236D01*
G75*
G02*
X0083661Y0134252I0000000J-000984D01*
G01*
G37*
G36*
G01*
X0083661Y0146260D02*
X0083661Y0137402D01*
G75*
G02*
X0082677Y0136417I-000984J0000000D01*
G01*
X0072638Y0136417D01*
G75*
G02*
X0071654Y0137402I0000000J0000984D01*
G01*
X0071654Y0146260D01*
G75*
G02*
X0072638Y0147244I0000984J0000000D01*
G01*
X0082677Y0147244D01*
G75*
G02*
X0083661Y0146260I0000000J-000984D01*
G01*
G37*
G36*
G01*
X0113386Y0146181D02*
X0113386Y0143425D01*
G75*
G02*
X0112402Y0142441I-000984J0000000D01*
G01*
X0105709Y0142441D01*
G75*
G02*
X0104724Y0143425I0000000J0000984D01*
G01*
X0104724Y0146181D01*
G75*
G02*
X0105709Y0147165I0000984J0000000D01*
G01*
X0112402Y0147165D01*
G75*
G02*
X0113386Y0146181I0000000J-000984D01*
G01*
G37*
D68*
X0183661Y0030197D03*
X0186811Y0030197D03*
X0191929Y0030197D03*
X0195866Y0030197D03*
X0197835Y0030197D03*
X0201772Y0030197D03*
X0206890Y0030197D03*
X0210039Y0030197D03*
X0208858Y0030197D03*
X0205709Y0030197D03*
X0203740Y0030197D03*
X0199803Y0030197D03*
X0193898Y0030197D03*
X0189961Y0030197D03*
X0187992Y0030197D03*
X0184843Y0030197D03*
G36*
G01*
X0108071Y0286654D02*
X0108071Y0289724D01*
G75*
G02*
X0108346Y0290000I0000276J0000000D01*
G01*
X0110551Y0290000D01*
G75*
G02*
X0110827Y0289724I0000000J-000276D01*
G01*
X0110827Y0286654D01*
G75*
G02*
X0110551Y0286378I-000276J0000000D01*
G01*
X0108346Y0286378D01*
G75*
G02*
X0108071Y0286654I0000000J0000276D01*
G01*
G37*
G36*
G01*
X0114370Y0286654D02*
X0114370Y0289724D01*
G75*
G02*
X0114646Y0290000I0000276J0000000D01*
G01*
X0116850Y0290000D01*
G75*
G02*
X0117126Y0289724I0000000J-000276D01*
G01*
X0117126Y0286654D01*
G75*
G02*
X0116850Y0286378I-000276J0000000D01*
G01*
X0114646Y0286378D01*
G75*
G02*
X0114370Y0286654I0000000J0000276D01*
G01*
G37*
G36*
G01*
X0074016Y0086516D02*
X0074016Y0091437D01*
G75*
G02*
X0075000Y0092421I0000984J0000000D01*
G01*
X0078642Y0092421D01*
G75*
G02*
X0079626Y0091437I0000000J-000984D01*
G01*
X0079626Y0086516D01*
G75*
G02*
X0078642Y0085531I-000984J0000000D01*
G01*
X0075000Y0085531D01*
G75*
G02*
X0074016Y0086516I0000000J0000984D01*
G01*
G37*
G36*
G01*
X0085728Y0086516D02*
X0085728Y0091437D01*
G75*
G02*
X0086713Y0092421I0000984J0000000D01*
G01*
X0090354Y0092421D01*
G75*
G02*
X0091339Y0091437I0000000J-000984D01*
G01*
X0091339Y0086516D01*
G75*
G02*
X0090354Y0085531I-000984J0000000D01*
G01*
X0086713Y0085531D01*
G75*
G02*
X0085728Y0086516I0000000J0000984D01*
G01*
G37*
G36*
G01*
X0076811Y0263386D02*
X0072795Y0263386D01*
G75*
G02*
X0072441Y0263740I0000000J0000354D01*
G01*
X0072441Y0266575D01*
G75*
G02*
X0072795Y0266929I0000354J0000000D01*
G01*
X0076811Y0266929D01*
G75*
G02*
X0077165Y0266575I0000000J-000354D01*
G01*
X0077165Y0263740D01*
G75*
G02*
X0076811Y0263386I-000354J0000000D01*
G01*
G37*
G36*
G01*
X0076811Y0276378D02*
X0072795Y0276378D01*
G75*
G02*
X0072441Y0276732I0000000J0000354D01*
G01*
X0072441Y0279567D01*
G75*
G02*
X0072795Y0279921I0000354J0000000D01*
G01*
X0076811Y0279921D01*
G75*
G02*
X0077165Y0279567I0000000J-000354D01*
G01*
X0077165Y0276732D01*
G75*
G02*
X0076811Y0276378I-000354J0000000D01*
G01*
G37*
G36*
G01*
X0091378Y0037598D02*
X0094449Y0037598D01*
G75*
G02*
X0094724Y0037323I0000000J-000276D01*
G01*
X0094724Y0035118D01*
G75*
G02*
X0094449Y0034843I-000276J0000000D01*
G01*
X0091378Y0034843D01*
G75*
G02*
X0091102Y0035118I0000000J0000276D01*
G01*
X0091102Y0037323D01*
G75*
G02*
X0091378Y0037598I0000276J0000000D01*
G01*
G37*
G36*
G01*
X0091378Y0031299D02*
X0094449Y0031299D01*
G75*
G02*
X0094724Y0031024I0000000J-000276D01*
G01*
X0094724Y0028819D01*
G75*
G02*
X0094449Y0028543I-000276J0000000D01*
G01*
X0091378Y0028543D01*
G75*
G02*
X0091102Y0028819I0000000J0000276D01*
G01*
X0091102Y0031024D01*
G75*
G02*
X0091378Y0031299I0000276J0000000D01*
G01*
G37*
D72*
X0276863Y0271427D03*
X0276863Y0232677D03*
X0271863Y0232677D03*
X0266863Y0232677D03*
X0261863Y0232677D03*
X0261863Y0271427D03*
X0266863Y0271427D03*
X0271863Y0271427D03*
G36*
G01*
X0007638Y0051122D02*
X0004961Y0051122D01*
G75*
G02*
X0004626Y0051457I0000000J0000335D01*
G01*
X0004626Y0054134D01*
G75*
G02*
X0004961Y0054469I0000335J0000000D01*
G01*
X0007638Y0054469D01*
G75*
G02*
X0007972Y0054134I0000000J-000335D01*
G01*
X0007972Y0051457D01*
G75*
G02*
X0007638Y0051122I-000335J0000000D01*
G01*
G37*
G36*
G01*
X0007638Y0057343D02*
X0004961Y0057343D01*
G75*
G02*
X0004626Y0057677I0000000J0000335D01*
G01*
X0004626Y0060354D01*
G75*
G02*
X0004961Y0060689I0000335J0000000D01*
G01*
X0007638Y0060689D01*
G75*
G02*
X0007972Y0060354I0000000J-000335D01*
G01*
X0007972Y0057677D01*
G75*
G02*
X0007638Y0057343I-000335J0000000D01*
G01*
G37*
X0096949Y0004823D02*
G01*
G75*
D100*
X0142028Y0029190D02*
D03*
X0142028Y0011473D02*
D03*
D101*
X0138701Y0053642D02*
D03*
X0111339Y0053642D02*
D03*
D102*
X0127461Y0030414D02*
D03*
X0111319Y0030414D02*
D03*
D103*
X0129232Y0012303D02*
D03*
X0113484Y0012303D02*
D03*
D104*
X0106293Y0074081D02*
D03*
X0115545Y0070341D02*
D03*
D104*
X0115545Y0077821D02*
D03*
D105*
X0138380Y0083760D02*
D03*
D105*
X0138380Y0080020D02*
D03*
X0138380Y0076280D02*
D03*
X0146844Y0076280D02*
D03*
X0146844Y0083760D02*
D03*
D106*
X0150696Y0069759D02*
D03*
X0137704Y0069759D02*
D03*
D107*
X0132410Y0070047D02*
D03*
X0120992Y0070047D02*
D03*
D108*
X0151595Y0037500D02*
D03*
X0145374Y0037500D02*
D03*
X0141004Y0037500D02*
D03*
X0134784Y0037500D02*
D03*
D109*
X0100918Y0014611D02*
D03*
X0100918Y0018745D02*
D03*
X0151473Y0056485D02*
D03*
X0151473Y0060619D02*
D03*
X0151473Y0051772D02*
D03*
X0151473Y0047638D02*
D03*
X0152365Y0032123D02*
D03*
X0152365Y0027989D02*
D03*
D110*
X0133262Y0076330D02*
D03*
X0133262Y0080267D02*
D03*
X0119587Y0077232D02*
D03*
X0128248Y0077232D02*
D03*
X0119587Y0083629D02*
D03*
X0128248Y0083629D02*
D03*
D111*
X0111214Y0083760D02*
D03*
X0114758Y0083760D02*
D03*
D112*
X0147215Y0060422D02*
D03*
X0147215Y0056878D02*
D03*
X0147215Y0051378D02*
D03*
X0147215Y0047835D02*
D03*
X0152365Y0019822D02*
D03*
X0152365Y0023366D02*
D03*
X0303051Y0323327D02*
G01*
G75*
D289*
X0313275Y0308622D02*
D03*
X0305795Y0308622D02*
D03*
X0305795Y0317087D02*
D03*
X0309535Y0317087D02*
D03*
X0313275Y0292973D02*
D03*
X0305795Y0292973D02*
D03*
X0305795Y0301437D02*
D03*
X0309535Y0301437D02*
D03*
D289*
X0313275Y0317087D02*
D03*
X0313275Y0301437D02*
D03*
X0166437Y0305020D02*
%LPD*%
G01*
G36*
G01*
X0184055Y0287579D02*
X0185512Y0287579D01*
G75*
G02*
X0186043Y0287048I0000000J-000531D01*
G01*
X0186043Y0285985D01*
G75*
G02*
X0185512Y0285453I-000531J0000000D01*
G01*
X0184055Y0285453D01*
G75*
G02*
X0183524Y0285985I0000000J0000531D01*
G01*
X0183524Y0287048D01*
G75*
G02*
X0184055Y0287579I0000531J0000000D01*
G01*
G37*
G36*
G01*
X0184055Y0291595D02*
X0185512Y0291595D01*
G75*
G02*
X0186043Y0291063I0000000J-000531D01*
G01*
X0186043Y0290000D01*
G75*
G02*
X0185512Y0289469I-000531J0000000D01*
G01*
X0184055Y0289469D01*
G75*
G02*
X0183524Y0290000I0000000J0000531D01*
G01*
X0183524Y0291063D01*
G75*
G02*
X0184055Y0291595I0000531J0000000D01*
G01*
G37*
G36*
G01*
X0168366Y0264331D02*
X0168366Y0265788D01*
G75*
G02*
X0168898Y0266319I0000531J0000000D01*
G01*
X0169961Y0266319D01*
G75*
G02*
X0170492Y0265788I0000000J-000531D01*
G01*
X0170492Y0264331D01*
G75*
G02*
X0169961Y0263800I-000531J0000000D01*
G01*
X0168898Y0263800D01*
G75*
G02*
X0168366Y0264331I0000000J0000531D01*
G01*
G37*
G36*
G01*
X0172382Y0264331D02*
X0172382Y0265788D01*
G75*
G02*
X0172913Y0266319I0000531J0000000D01*
G01*
X0173976Y0266319D01*
G75*
G02*
X0174508Y0265788I0000000J-000531D01*
G01*
X0174508Y0264331D01*
G75*
G02*
X0173976Y0263800I-000531J0000000D01*
G01*
X0172913Y0263800D01*
G75*
G02*
X0172382Y0264331I0000000J0000531D01*
G01*
G37*
G36*
G01*
X0200709Y0275303D02*
X0201890Y0275303D01*
G75*
G02*
X0202480Y0274713I0000000J-000591D01*
G01*
X0202480Y0268217D01*
G75*
G02*
X0201890Y0267626I-000591J0000000D01*
G01*
X0200709Y0267626D01*
G75*
G02*
X0200118Y0268217I0000000J0000591D01*
G01*
X0200118Y0274713D01*
G75*
G02*
X0200709Y0275303I0000591J0000000D01*
G01*
G37*
G36*
G01*
X0195709Y0275303D02*
X0196890Y0275303D01*
G75*
G02*
X0197480Y0274713I0000000J-000591D01*
G01*
X0197480Y0268217D01*
G75*
G02*
X0196890Y0267626I-000591J0000000D01*
G01*
X0195709Y0267626D01*
G75*
G02*
X0195118Y0268217I0000000J0000591D01*
G01*
X0195118Y0274713D01*
G75*
G02*
X0195709Y0275303I0000591J0000000D01*
G01*
G37*
G36*
G01*
X0190709Y0275303D02*
X0191890Y0275303D01*
G75*
G02*
X0192480Y0274713I0000000J-000591D01*
G01*
X0192480Y0268217D01*
G75*
G02*
X0191890Y0267626I-000591J0000000D01*
G01*
X0190709Y0267626D01*
G75*
G02*
X0190118Y0268217I0000000J0000591D01*
G01*
X0190118Y0274713D01*
G75*
G02*
X0190709Y0275303I0000591J0000000D01*
G01*
G37*
G36*
G01*
X0185709Y0275303D02*
X0186890Y0275303D01*
G75*
G02*
X0187480Y0274713I0000000J-000591D01*
G01*
X0187480Y0268217D01*
G75*
G02*
X0186890Y0267626I-000591J0000000D01*
G01*
X0185709Y0267626D01*
G75*
G02*
X0185118Y0268217I0000000J0000591D01*
G01*
X0185118Y0274713D01*
G75*
G02*
X0185709Y0275303I0000591J0000000D01*
G01*
G37*
G36*
G01*
X0185709Y0255815D02*
X0186890Y0255815D01*
G75*
G02*
X0187480Y0255225I0000000J-000591D01*
G01*
X0187480Y0248729D01*
G75*
G02*
X0186890Y0248138I-000591J0000000D01*
G01*
X0185709Y0248138D01*
G75*
G02*
X0185118Y0248729I0000000J0000591D01*
G01*
X0185118Y0255225D01*
G75*
G02*
X0185709Y0255815I0000591J0000000D01*
G01*
G37*
G36*
G01*
X0190709Y0255815D02*
X0191890Y0255815D01*
G75*
G02*
X0192480Y0255225I0000000J-000591D01*
G01*
X0192480Y0248729D01*
G75*
G02*
X0191890Y0248138I-000591J0000000D01*
G01*
X0190709Y0248138D01*
G75*
G02*
X0190118Y0248729I0000000J0000591D01*
G01*
X0190118Y0255225D01*
G75*
G02*
X0190709Y0255815I0000591J0000000D01*
G01*
G37*
G36*
G01*
X0195709Y0255815D02*
X0196890Y0255815D01*
G75*
G02*
X0197480Y0255225I0000000J-000591D01*
G01*
X0197480Y0248729D01*
G75*
G02*
X0196890Y0248138I-000591J0000000D01*
G01*
X0195709Y0248138D01*
G75*
G02*
X0195118Y0248729I0000000J0000591D01*
G01*
X0195118Y0255225D01*
G75*
G02*
X0195709Y0255815I0000591J0000000D01*
G01*
G37*
G36*
G01*
X0200709Y0255815D02*
X0201890Y0255815D01*
G75*
G02*
X0202480Y0255225I0000000J-000591D01*
G01*
X0202480Y0248729D01*
G75*
G02*
X0201890Y0248138I-000591J0000000D01*
G01*
X0200709Y0248138D01*
G75*
G02*
X0200118Y0248729I0000000J0000591D01*
G01*
X0200118Y0255225D01*
G75*
G02*
X0200709Y0255815I0000591J0000000D01*
G01*
G37*
D154*
X0201437Y0289823D03*
X0198878Y0289823D03*
X0196319Y0289823D03*
X0196319Y0282343D03*
X0198878Y0282343D03*
X0201437Y0282343D03*
G36*
G01*
X0182349Y0273662D02*
X0182349Y0272205D01*
G75*
G02*
X0181817Y0271674I-000531J0000000D01*
G01*
X0180754Y0271674D01*
G75*
G02*
X0180223Y0272205I0000000J0000531D01*
G01*
X0180223Y0273662D01*
G75*
G02*
X0180754Y0274193I0000531J0000000D01*
G01*
X0181817Y0274193D01*
G75*
G02*
X0182349Y0273662I0000000J-000531D01*
G01*
G37*
G36*
G01*
X0178333Y0273662D02*
X0178333Y0272205D01*
G75*
G02*
X0177802Y0271674I-000531J0000000D01*
G01*
X0176739Y0271674D01*
G75*
G02*
X0176207Y0272205I0000000J0000531D01*
G01*
X0176207Y0273662D01*
G75*
G02*
X0176739Y0274193I0000531J0000000D01*
G01*
X0177802Y0274193D01*
G75*
G02*
X0178333Y0273662I0000000J-000531D01*
G01*
G37*
G36*
G01*
X0176286Y0268327D02*
X0176286Y0269666D01*
G75*
G02*
X0176837Y0270217I0000551J0000000D01*
G01*
X0177939Y0270217D01*
G75*
G02*
X0178491Y0269666I0000000J-000551D01*
G01*
X0178491Y0268327D01*
G75*
G02*
X0177939Y0267776I-000551J0000000D01*
G01*
X0176837Y0267776D01*
G75*
G02*
X0176286Y0268327I0000000J0000551D01*
G01*
G37*
G36*
G01*
X0180065Y0268327D02*
X0180065Y0269666D01*
G75*
G02*
X0180617Y0270217I0000551J0000000D01*
G01*
X0181719Y0270217D01*
G75*
G02*
X0182270Y0269666I0000000J-000551D01*
G01*
X0182270Y0268327D01*
G75*
G02*
X0181719Y0267776I-000551J0000000D01*
G01*
X0180617Y0267776D01*
G75*
G02*
X0180065Y0268327I0000000J0000551D01*
G01*
G37*
G36*
G01*
X0168366Y0272205D02*
X0168366Y0273662D01*
G75*
G02*
X0168898Y0274193I0000531J0000000D01*
G01*
X0169961Y0274193D01*
G75*
G02*
X0170492Y0273662I0000000J-000531D01*
G01*
X0170492Y0272205D01*
G75*
G02*
X0169961Y0271674I-000531J0000000D01*
G01*
X0168898Y0271674D01*
G75*
G02*
X0168366Y0272205I0000000J0000531D01*
G01*
G37*
G36*
G01*
X0172382Y0272205D02*
X0172382Y0273662D01*
G75*
G02*
X0172913Y0274193I0000531J0000000D01*
G01*
X0173976Y0274193D01*
G75*
G02*
X0174508Y0273662I0000000J-000531D01*
G01*
X0174508Y0272205D01*
G75*
G02*
X0173976Y0271674I-000531J0000000D01*
G01*
X0172913Y0271674D01*
G75*
G02*
X0172382Y0272205I0000000J0000531D01*
G01*
G37*
G36*
G01*
X0174429Y0260611D02*
X0174429Y0259272D01*
G75*
G02*
X0173878Y0258721I-000551J0000000D01*
G01*
X0172776Y0258721D01*
G75*
G02*
X0172224Y0259272I0000000J0000551D01*
G01*
X0172224Y0260611D01*
G75*
G02*
X0172776Y0261162I0000551J0000000D01*
G01*
X0173878Y0261162D01*
G75*
G02*
X0174429Y0260611I0000000J-000551D01*
G01*
G37*
G36*
G01*
X0170650Y0260611D02*
X0170650Y0259272D01*
G75*
G02*
X0170098Y0258721I-000551J0000000D01*
G01*
X0168996Y0258721D01*
G75*
G02*
X0168445Y0259272I0000000J0000551D01*
G01*
X0168445Y0260611D01*
G75*
G02*
X0168996Y0261162I0000551J0000000D01*
G01*
X0170098Y0261162D01*
G75*
G02*
X0170650Y0260611I0000000J-000551D01*
G01*
G37*
G36*
G01*
X0178287Y0283740D02*
X0178287Y0282402D01*
G75*
G02*
X0177736Y0281851I-000551J0000000D01*
G01*
X0176634Y0281851D01*
G75*
G02*
X0176083Y0282402I0000000J0000551D01*
G01*
X0176083Y0283740D01*
G75*
G02*
X0176634Y0284292I0000551J0000000D01*
G01*
X0177736Y0284292D01*
G75*
G02*
X0178287Y0283740I0000000J-000551D01*
G01*
G37*
G36*
G01*
X0174508Y0283740D02*
X0174508Y0282402D01*
G75*
G02*
X0173957Y0281851I-000551J0000000D01*
G01*
X0172854Y0281851D01*
G75*
G02*
X0172303Y0282402I0000000J0000551D01*
G01*
X0172303Y0283740D01*
G75*
G02*
X0172854Y0284292I0000551J0000000D01*
G01*
X0173957Y0284292D01*
G75*
G02*
X0174508Y0283740I0000000J-000551D01*
G01*
G37*
G36*
G01*
X0181535Y0277973D02*
X0180079Y0277973D01*
G75*
G02*
X0179547Y0278504I0000000J0000531D01*
G01*
X0179547Y0279567D01*
G75*
G02*
X0180079Y0280099I0000531J0000000D01*
G01*
X0181535Y0280099D01*
G75*
G02*
X0182067Y0279567I0000000J-000531D01*
G01*
X0182067Y0278504D01*
G75*
G02*
X0181535Y0277973I-000531J0000000D01*
G01*
G37*
G36*
G01*
X0181535Y0281989D02*
X0180079Y0281989D01*
G75*
G02*
X0179547Y0282520I0000000J0000531D01*
G01*
X0179547Y0283583D01*
G75*
G02*
X0180079Y0284114I0000531J0000000D01*
G01*
X0181535Y0284114D01*
G75*
G02*
X0182067Y0283583I0000000J-000531D01*
G01*
X0182067Y0282520D01*
G75*
G02*
X0181535Y0281989I-000531J0000000D01*
G01*
G37*
G36*
G01*
X0182264Y0247146D02*
X0180925Y0247146D01*
G75*
G02*
X0180374Y0247697I0000000J0000551D01*
G01*
X0180374Y0248800D01*
G75*
G02*
X0180925Y0249351I0000551J0000000D01*
G01*
X0182264Y0249351D01*
G75*
G02*
X0182815Y0248800I0000000J-000551D01*
G01*
X0182815Y0247697D01*
G75*
G02*
X0182264Y0247146I-000551J0000000D01*
G01*
G37*
G36*
G01*
X0182264Y0250926D02*
X0180925Y0250926D01*
G75*
G02*
X0180374Y0251477I0000000J0000551D01*
G01*
X0180374Y0252579D01*
G75*
G02*
X0180925Y0253130I0000551J0000000D01*
G01*
X0182264Y0253130D01*
G75*
G02*
X0182815Y0252579I0000000J-000551D01*
G01*
X0182815Y0251477D01*
G75*
G02*
X0182264Y0250926I-000551J0000000D01*
G01*
G37*
G36*
G01*
X0188027Y0296201D02*
X0190044Y0296201D01*
G75*
G02*
X0190906Y0295340I0000000J-000861D01*
G01*
X0190906Y0293617D01*
G75*
G02*
X0190044Y0292756I-000861J0000000D01*
G01*
X0188027Y0292756D01*
G75*
G02*
X0187165Y0293617I0000000J0000861D01*
G01*
X0187165Y0295340D01*
G75*
G02*
X0188027Y0296201I0000861J0000000D01*
G01*
G37*
G36*
G01*
X0188027Y0302402D02*
X0190044Y0302402D01*
G75*
G02*
X0190906Y0301541I0000000J-000861D01*
G01*
X0190906Y0299818D01*
G75*
G02*
X0190044Y0298957I-000861J0000000D01*
G01*
X0188027Y0298957D01*
G75*
G02*
X0187165Y0299818I0000000J0000861D01*
G01*
X0187165Y0301541D01*
G75*
G02*
X0188027Y0302402I0000861J0000000D01*
G01*
G37*
G36*
G01*
X0193248Y0277422D02*
X0193248Y0278760D01*
G75*
G02*
X0193799Y0279311I0000551J0000000D01*
G01*
X0194902Y0279311D01*
G75*
G02*
X0195453Y0278760I0000000J-000551D01*
G01*
X0195453Y0277422D01*
G75*
G02*
X0194902Y0276870I-000551J0000000D01*
G01*
X0193799Y0276870D01*
G75*
G02*
X0193248Y0277422I0000000J0000551D01*
G01*
G37*
G36*
G01*
X0197028Y0277422D02*
X0197028Y0278760D01*
G75*
G02*
X0197579Y0279311I0000551J0000000D01*
G01*
X0198681Y0279311D01*
G75*
G02*
X0199232Y0278760I0000000J-000551D01*
G01*
X0199232Y0277422D01*
G75*
G02*
X0198681Y0276870I-000551J0000000D01*
G01*
X0197579Y0276870D01*
G75*
G02*
X0197028Y0277422I0000000J0000551D01*
G01*
G37*
G36*
G01*
X0196102Y0295059D02*
X0194646Y0295059D01*
G75*
G02*
X0194114Y0295591I0000000J0000531D01*
G01*
X0194114Y0296654D01*
G75*
G02*
X0194646Y0297185I0000531J0000000D01*
G01*
X0196102Y0297185D01*
G75*
G02*
X0196634Y0296654I0000000J-000531D01*
G01*
X0196634Y0295591D01*
G75*
G02*
X0196102Y0295059I-000531J0000000D01*
G01*
G37*
G36*
G01*
X0196102Y0299075D02*
X0194646Y0299075D01*
G75*
G02*
X0194114Y0299607I0000000J0000531D01*
G01*
X0194114Y0300670D01*
G75*
G02*
X0194646Y0301201I0000531J0000000D01*
G01*
X0196102Y0301201D01*
G75*
G02*
X0196634Y0300670I0000000J-000531D01*
G01*
X0196634Y0299607D01*
G75*
G02*
X0196102Y0299075I-000531J0000000D01*
G01*
G37*
G36*
G01*
X0184016Y0284114D02*
X0185472Y0284114D01*
G75*
G02*
X0186004Y0283583I0000000J-000531D01*
G01*
X0186004Y0282520D01*
G75*
G02*
X0185472Y0281989I-000531J0000000D01*
G01*
X0184016Y0281989D01*
G75*
G02*
X0183484Y0282520I0000000J0000531D01*
G01*
X0183484Y0283583D01*
G75*
G02*
X0184016Y0284114I0000531J0000000D01*
G01*
G37*
G36*
G01*
X0184016Y0280099D02*
X0185472Y0280099D01*
G75*
G02*
X0186004Y0279567I0000000J-000531D01*
G01*
X0186004Y0278504D01*
G75*
G02*
X0185472Y0277973I-000531J0000000D01*
G01*
X0184016Y0277973D01*
G75*
G02*
X0183484Y0278504I0000000J0000531D01*
G01*
X0183484Y0279567D01*
G75*
G02*
X0184016Y0280099I0000531J0000000D01*
G01*
G37*
G36*
G01*
X0178225Y0278977D02*
X0178225Y0277520D01*
G75*
G02*
X0177694Y0276989I-000531J0000000D01*
G01*
X0176631Y0276989D01*
G75*
G02*
X0176099Y0277520I0000000J0000531D01*
G01*
X0176099Y0278977D01*
G75*
G02*
X0176631Y0279508I0000531J0000000D01*
G01*
X0177694Y0279508D01*
G75*
G02*
X0178225Y0278977I0000000J-000531D01*
G01*
G37*
G36*
G01*
X0174209Y0278977D02*
X0174209Y0277520D01*
G75*
G02*
X0173678Y0276989I-000531J0000000D01*
G01*
X0172615Y0276989D01*
G75*
G02*
X0172084Y0277520I0000000J0000531D01*
G01*
X0172084Y0278977D01*
G75*
G02*
X0172615Y0279508I0000531J0000000D01*
G01*
X0173678Y0279508D01*
G75*
G02*
X0174209Y0278977I0000000J-000531D01*
G01*
G37*
G36*
G01*
X0184823Y0296319D02*
X0183484Y0296319D01*
G75*
G02*
X0182933Y0296870I0000000J0000551D01*
G01*
X0182933Y0297973D01*
G75*
G02*
X0183484Y0298524I0000551J0000000D01*
G01*
X0184823Y0298524D01*
G75*
G02*
X0185374Y0297973I0000000J-000551D01*
G01*
X0185374Y0296870D01*
G75*
G02*
X0184823Y0296319I-000551J0000000D01*
G01*
G37*
G36*
G01*
X0184823Y0300099D02*
X0183484Y0300099D01*
G75*
G02*
X0182933Y0300650I0000000J0000551D01*
G01*
X0182933Y0301752D01*
G75*
G02*
X0183484Y0302303I0000551J0000000D01*
G01*
X0184823Y0302303D01*
G75*
G02*
X0185374Y0301752I0000000J-000551D01*
G01*
X0185374Y0300650D01*
G75*
G02*
X0184823Y0300099I-000551J0000000D01*
G01*
G37*
G36*
G01*
X0176286Y0259272D02*
X0176286Y0260611D01*
G75*
G02*
X0176837Y0261162I0000551J0000000D01*
G01*
X0177939Y0261162D01*
G75*
G02*
X0178491Y0260611I0000000J-000551D01*
G01*
X0178491Y0259272D01*
G75*
G02*
X0177939Y0258721I-000551J0000000D01*
G01*
X0176837Y0258721D01*
G75*
G02*
X0176286Y0259272I0000000J0000551D01*
G01*
G37*
G36*
G01*
X0180065Y0259272D02*
X0180065Y0260611D01*
G75*
G02*
X0180617Y0261162I0000551J0000000D01*
G01*
X0181719Y0261162D01*
G75*
G02*
X0182270Y0260611I0000000J-000551D01*
G01*
X0182270Y0259272D01*
G75*
G02*
X0181719Y0258721I-000551J0000000D01*
G01*
X0180617Y0258721D01*
G75*
G02*
X0180065Y0259272I0000000J0000551D01*
G01*
G37*
G36*
G01*
X0168760Y0284292D02*
X0170217Y0284292D01*
G75*
G02*
X0170748Y0283760I0000000J-000531D01*
G01*
X0170748Y0282697D01*
G75*
G02*
X0170217Y0282166I-000531J0000000D01*
G01*
X0168760Y0282166D01*
G75*
G02*
X0168228Y0282697I0000000J0000531D01*
G01*
X0168228Y0283760D01*
G75*
G02*
X0168760Y0284292I0000531J0000000D01*
G01*
G37*
G36*
G01*
X0168760Y0280276D02*
X0170217Y0280276D01*
G75*
G02*
X0170748Y0279744I0000000J-000531D01*
G01*
X0170748Y0278681D01*
G75*
G02*
X0170217Y0278150I-000531J0000000D01*
G01*
X0168760Y0278150D01*
G75*
G02*
X0168228Y0278681I0000000J0000531D01*
G01*
X0168228Y0279744D01*
G75*
G02*
X0168760Y0280276I0000531J0000000D01*
G01*
G37*
D153*
X0169980Y0255033D03*
X0169980Y0252474D03*
X0169980Y0249915D03*
X0177461Y0249915D03*
X0177461Y0252474D03*
X0177461Y0255033D03*
G36*
G01*
X0178766Y0300982D02*
X0179947Y0300982D01*
G75*
G02*
X0180538Y0300391I0000000J-000591D01*
G01*
X0180538Y0296356D01*
G75*
G02*
X0179947Y0295765I-000591J0000000D01*
G01*
X0178766Y0295765D01*
G75*
G02*
X0178176Y0296356I0000000J0000591D01*
G01*
X0178176Y0300391D01*
G75*
G02*
X0178766Y0300982I0000591J0000000D01*
G01*
G37*
G36*
G01*
X0175026Y0300982D02*
X0176207Y0300982D01*
G75*
G02*
X0176798Y0300391I0000000J-000591D01*
G01*
X0176798Y0296356D01*
G75*
G02*
X0176207Y0295765I-000591J0000000D01*
G01*
X0175026Y0295765D01*
G75*
G02*
X0174435Y0296356I0000000J0000591D01*
G01*
X0174435Y0300391D01*
G75*
G02*
X0175026Y0300982I0000591J0000000D01*
G01*
G37*
G36*
G01*
X0171286Y0300982D02*
X0172467Y0300982D01*
G75*
G02*
X0173057Y0300391I0000000J-000591D01*
G01*
X0173057Y0296356D01*
G75*
G02*
X0172467Y0295765I-000591J0000000D01*
G01*
X0171286Y0295765D01*
G75*
G02*
X0170695Y0296356I0000000J0000591D01*
G01*
X0170695Y0300391D01*
G75*
G02*
X0171286Y0300982I0000591J0000000D01*
G01*
G37*
G36*
G01*
X0171286Y0292025D02*
X0172467Y0292025D01*
G75*
G02*
X0173057Y0291435I0000000J-000591D01*
G01*
X0173057Y0287399D01*
G75*
G02*
X0172467Y0286809I-000591J0000000D01*
G01*
X0171286Y0286809D01*
G75*
G02*
X0170695Y0287399I0000000J0000591D01*
G01*
X0170695Y0291435D01*
G75*
G02*
X0171286Y0292025I0000591J0000000D01*
G01*
G37*
G36*
G01*
X0175026Y0292025D02*
X0176207Y0292025D01*
G75*
G02*
X0176798Y0291435I0000000J-000591D01*
G01*
X0176798Y0287399D01*
G75*
G02*
X0176207Y0286809I-000591J0000000D01*
G01*
X0175026Y0286809D01*
G75*
G02*
X0174435Y0287399I0000000J0000591D01*
G01*
X0174435Y0291435D01*
G75*
G02*
X0175026Y0292025I0000591J0000000D01*
G01*
G37*
G36*
G01*
X0178766Y0292025D02*
X0179947Y0292025D01*
G75*
G02*
X0180538Y0291435I0000000J-000591D01*
G01*
X0180538Y0287399D01*
G75*
G02*
X0179947Y0286809I-000591J0000000D01*
G01*
X0178766Y0286809D01*
G75*
G02*
X0178176Y0287399I0000000J0000591D01*
G01*
X0178176Y0291435D01*
G75*
G02*
X0178766Y0292025I0000591J0000000D01*
G01*
G37*
G36*
G01*
X0190650Y0289863D02*
X0191988Y0289863D01*
G75*
G02*
X0192539Y0289311I0000000J-000551D01*
G01*
X0192539Y0288209D01*
G75*
G02*
X0191988Y0287658I-000551J0000000D01*
G01*
X0190650Y0287658D01*
G75*
G02*
X0190098Y0288209I0000000J0000551D01*
G01*
X0190098Y0289311D01*
G75*
G02*
X0190650Y0289863I0000551J0000000D01*
G01*
G37*
G36*
G01*
X0190650Y0286083D02*
X0191988Y0286083D01*
G75*
G02*
X0192539Y0285532I0000000J-000551D01*
G01*
X0192539Y0284429D01*
G75*
G02*
X0191988Y0283878I-000551J0000000D01*
G01*
X0190650Y0283878D01*
G75*
G02*
X0190098Y0284429I0000000J0000551D01*
G01*
X0190098Y0285532D01*
G75*
G02*
X0190650Y0286083I0000551J0000000D01*
G01*
G37*
G36*
G01*
X0168445Y0268327D02*
X0168445Y0269666D01*
G75*
G02*
X0168996Y0270217I0000551J0000000D01*
G01*
X0170098Y0270217D01*
G75*
G02*
X0170650Y0269666I0000000J-000551D01*
G01*
X0170650Y0268327D01*
G75*
G02*
X0170098Y0267776I-000551J0000000D01*
G01*
X0168996Y0267776D01*
G75*
G02*
X0168445Y0268327I0000000J0000551D01*
G01*
G37*
G36*
G01*
X0172224Y0268327D02*
X0172224Y0269666D01*
G75*
G02*
X0172776Y0270217I0000551J0000000D01*
G01*
X0173878Y0270217D01*
G75*
G02*
X0174429Y0269666I0000000J-000551D01*
G01*
X0174429Y0268327D01*
G75*
G02*
X0173878Y0267776I-000551J0000000D01*
G01*
X0172776Y0267776D01*
G75*
G02*
X0172224Y0268327I0000000J0000551D01*
G01*
G37*
G36*
G01*
X0176207Y0264331D02*
X0176207Y0265788D01*
G75*
G02*
X0176739Y0266319I0000531J0000000D01*
G01*
X0177802Y0266319D01*
G75*
G02*
X0178333Y0265788I0000000J-000531D01*
G01*
X0178333Y0264331D01*
G75*
G02*
X0177802Y0263800I-000531J0000000D01*
G01*
X0176739Y0263800D01*
G75*
G02*
X0176207Y0264331I0000000J0000531D01*
G01*
G37*
G36*
G01*
X0180223Y0264331D02*
X0180223Y0265788D01*
G75*
G02*
X0180754Y0266319I0000531J0000000D01*
G01*
X0181817Y0266319D01*
G75*
G02*
X0182349Y0265788I0000000J-000531D01*
G01*
X0182349Y0264331D01*
G75*
G02*
X0181817Y0263800I-000531J0000000D01*
G01*
X0180754Y0263800D01*
G75*
G02*
X0180223Y0264331I0000000J0000531D01*
G01*
G37*
X0122933Y0305020D02*
%LPD*%
G01*
D299*
X0135925Y0271162D03*
X0133957Y0271162D03*
X0131988Y0271162D03*
X0130020Y0271162D03*
X0128051Y0271162D03*
X0128051Y0253839D03*
X0130020Y0253839D03*
X0131988Y0253839D03*
X0133957Y0253839D03*
X0135925Y0253839D03*
G36*
G01*
X0149114Y0263642D02*
X0149114Y0260571D01*
G75*
G02*
X0148839Y0260296I-000276J0000000D01*
G01*
X0146634Y0260296D01*
G75*
G02*
X0146358Y0260571I0000000J0000276D01*
G01*
X0146358Y0263642D01*
G75*
G02*
X0146634Y0263918I0000276J0000000D01*
G01*
X0148839Y0263918D01*
G75*
G02*
X0149114Y0263642I0000000J-000276D01*
G01*
G37*
G36*
G01*
X0142815Y0263642D02*
X0142815Y0260571D01*
G75*
G02*
X0142539Y0260296I-000276J0000000D01*
G01*
X0140335Y0260296D01*
G75*
G02*
X0140059Y0260571I0000000J0000276D01*
G01*
X0140059Y0263642D01*
G75*
G02*
X0140335Y0263918I0000276J0000000D01*
G01*
X0142539Y0263918D01*
G75*
G02*
X0142815Y0263642I0000000J-000276D01*
G01*
G37*
G36*
G01*
X0155768Y0249311D02*
X0152697Y0249311D01*
G75*
G02*
X0152421Y0249587I0000000J0000276D01*
G01*
X0152421Y0251792D01*
G75*
G02*
X0152697Y0252067I0000276J0000000D01*
G01*
X0155768Y0252067D01*
G75*
G02*
X0156043Y0251792I0000000J-000276D01*
G01*
X0156043Y0249587D01*
G75*
G02*
X0155768Y0249311I-000276J0000000D01*
G01*
G37*
G36*
G01*
X0155768Y0255611D02*
X0152697Y0255611D01*
G75*
G02*
X0152421Y0255886I0000000J0000276D01*
G01*
X0152421Y0258091D01*
G75*
G02*
X0152697Y0258366I0000276J0000000D01*
G01*
X0155768Y0258366D01*
G75*
G02*
X0156043Y0258091I0000000J-000276D01*
G01*
X0156043Y0255886D01*
G75*
G02*
X0155768Y0255611I-000276J0000000D01*
G01*
G37*
G36*
G01*
X0149114Y0269548D02*
X0149114Y0266477D01*
G75*
G02*
X0148839Y0266201I-000276J0000000D01*
G01*
X0146634Y0266201D01*
G75*
G02*
X0146358Y0266477I0000000J0000276D01*
G01*
X0146358Y0269548D01*
G75*
G02*
X0146634Y0269823I0000276J0000000D01*
G01*
X0148839Y0269823D01*
G75*
G02*
X0149114Y0269548I0000000J-000276D01*
G01*
G37*
G36*
G01*
X0142815Y0269548D02*
X0142815Y0266477D01*
G75*
G02*
X0142539Y0266201I-000276J0000000D01*
G01*
X0140335Y0266201D01*
G75*
G02*
X0140059Y0266477I0000000J0000276D01*
G01*
X0140059Y0269548D01*
G75*
G02*
X0140335Y0269823I0000276J0000000D01*
G01*
X0142539Y0269823D01*
G75*
G02*
X0142815Y0269548I0000000J-000276D01*
G01*
G37*
G36*
G01*
X0155438Y0261221D02*
X0153420Y0261221D01*
G75*
G02*
X0152559Y0262082I0000000J0000861D01*
G01*
X0152559Y0263804D01*
G75*
G02*
X0153420Y0264666I0000861J0000000D01*
G01*
X0155438Y0264666D01*
G75*
G02*
X0156299Y0263804I0000000J-000861D01*
G01*
X0156299Y0262082D01*
G75*
G02*
X0155438Y0261221I-000861J0000000D01*
G01*
G37*
G36*
G01*
X0155438Y0267422D02*
X0153420Y0267422D01*
G75*
G02*
X0152559Y0268283I0000000J0000861D01*
G01*
X0152559Y0270005D01*
G75*
G02*
X0153420Y0270866I0000861J0000000D01*
G01*
X0155438Y0270866D01*
G75*
G02*
X0156299Y0270005I0000000J-000861D01*
G01*
X0156299Y0268283D01*
G75*
G02*
X0155438Y0267422I-000861J0000000D01*
G01*
G37*
G36*
G01*
X0148476Y0255276D02*
X0145799Y0255276D01*
G75*
G02*
X0145464Y0255611I0000000J0000335D01*
G01*
X0145464Y0258288D01*
G75*
G02*
X0145799Y0258622I0000335J0000000D01*
G01*
X0148476Y0258622D01*
G75*
G02*
X0148811Y0258288I0000000J-000335D01*
G01*
X0148811Y0255611D01*
G75*
G02*
X0148476Y0255276I-000335J0000000D01*
G01*
G37*
G36*
G01*
X0148476Y0249055D02*
X0145799Y0249055D01*
G75*
G02*
X0145464Y0249390I0000000J0000335D01*
G01*
X0145464Y0252067D01*
G75*
G02*
X0145799Y0252402I0000335J0000000D01*
G01*
X0148476Y0252402D01*
G75*
G02*
X0148811Y0252067I0000000J-000335D01*
G01*
X0148811Y0249390D01*
G75*
G02*
X0148476Y0249055I-000335J0000000D01*
G01*
G37*
G36*
G01*
X0143169Y0249055D02*
X0140492Y0249055D01*
G75*
G02*
X0140157Y0249390I0000000J0000335D01*
G01*
X0140157Y0252067D01*
G75*
G02*
X0140492Y0252402I0000335J0000000D01*
G01*
X0143169Y0252402D01*
G75*
G02*
X0143504Y0252067I0000000J-000335D01*
G01*
X0143504Y0249390D01*
G75*
G02*
X0143169Y0249055I-000335J0000000D01*
G01*
G37*
G36*
G01*
X0143169Y0255276D02*
X0140492Y0255276D01*
G75*
G02*
X0140157Y0255611I0000000J0000335D01*
G01*
X0140157Y0258288D01*
G75*
G02*
X0140492Y0258622I0000335J0000000D01*
G01*
X0143169Y0258622D01*
G75*
G02*
X0143504Y0258288I0000000J-000335D01*
G01*
X0143504Y0255611D01*
G75*
G02*
X0143169Y0255276I-000335J0000000D01*
G01*
G37*
G36*
G01*
X0149370Y0274469D02*
X0149370Y0271792D01*
G75*
G02*
X0149035Y0271457I-000335J0000000D01*
G01*
X0146358Y0271457D01*
G75*
G02*
X0146024Y0271792I0000000J0000335D01*
G01*
X0146024Y0274469D01*
G75*
G02*
X0146358Y0274803I0000335J0000000D01*
G01*
X0149035Y0274803D01*
G75*
G02*
X0149370Y0274469I0000000J-000335D01*
G01*
G37*
G36*
G01*
X0143150Y0274469D02*
X0143150Y0271792D01*
G75*
G02*
X0142815Y0271457I-000335J0000000D01*
G01*
X0140138Y0271457D01*
G75*
G02*
X0139803Y0271792I0000000J0000335D01*
G01*
X0139803Y0274469D01*
G75*
G02*
X0140138Y0274803I0000335J0000000D01*
G01*
X0142815Y0274803D01*
G75*
G02*
X0143150Y0274469I0000000J-000335D01*
G01*
G37*
X0391535Y0162008D02*
%LPD*%
G01*
G36*
G01*
X0347885Y0252749D02*
X0347885Y0255702D01*
G75*
G02*
X0349361Y0257178I0001476J0000000D01*
G01*
X0354282Y0257178D01*
G75*
G02*
X0355759Y0255702I0000000J-001476D01*
G01*
X0355759Y0252749D01*
G75*
G02*
X0354282Y0251272I-001476J0000000D01*
G01*
X0349361Y0251272D01*
G75*
G02*
X0347885Y0252749I0000000J0001476D01*
G01*
G37*
G36*
G01*
X0347885Y0243694D02*
X0347885Y0246646D01*
G75*
G02*
X0349361Y0248123I0001476J0000000D01*
G01*
X0354282Y0248123D01*
G75*
G02*
X0355759Y0246646I0000000J-001476D01*
G01*
X0355759Y0243694D01*
G75*
G02*
X0354282Y0242217I-001476J0000000D01*
G01*
X0349361Y0242217D01*
G75*
G02*
X0347885Y0243694I0000000J0001476D01*
G01*
G37*
G36*
G01*
X0347885Y0234639D02*
X0347885Y0237591D01*
G75*
G02*
X0349361Y0239068I0001476J0000000D01*
G01*
X0354282Y0239068D01*
G75*
G02*
X0355759Y0237591I0000000J-001476D01*
G01*
X0355759Y0234639D01*
G75*
G02*
X0354282Y0233162I-001476J0000000D01*
G01*
X0349361Y0233162D01*
G75*
G02*
X0347885Y0234639I0000000J0001476D01*
G01*
G37*
G36*
G01*
X0372688Y0239658D02*
X0372688Y0250682D01*
G75*
G02*
X0374656Y0252650I0001969J0000000D01*
G01*
X0378593Y0252650D01*
G75*
G02*
X0380562Y0250682I0000000J-001969D01*
G01*
X0380562Y0239658D01*
G75*
G02*
X0378593Y0237690I-001969J0000000D01*
G01*
X0374656Y0237690D01*
G75*
G02*
X0372688Y0239658I0000000J0001969D01*
G01*
G37*
G36*
G01*
X0357362Y0228061D02*
X0357362Y0229419D01*
G75*
G02*
X0357942Y0230000I0000581J0000000D01*
G01*
X0359104Y0230000D01*
G75*
G02*
X0359685Y0229419I0000000J-000581D01*
G01*
X0359685Y0228061D01*
G75*
G02*
X0359104Y0227480I-000581J0000000D01*
G01*
X0357942Y0227480D01*
G75*
G02*
X0357362Y0228061I0000000J0000581D01*
G01*
G37*
G36*
G01*
X0361181Y0228061D02*
X0361181Y0229419D01*
G75*
G02*
X0361761Y0230000I0000581J0000000D01*
G01*
X0362923Y0230000D01*
G75*
G02*
X0363504Y0229419I0000000J-000581D01*
G01*
X0363504Y0228061D01*
G75*
G02*
X0362923Y0227480I-000581J0000000D01*
G01*
X0361761Y0227480D01*
G75*
G02*
X0361181Y0228061I0000000J0000581D01*
G01*
G37*
G36*
G01*
X0371446Y0170847D02*
X0370088Y0170847D01*
G75*
G02*
X0369507Y0171427I0000000J0000581D01*
G01*
X0369507Y0172589D01*
G75*
G02*
X0370088Y0173169I0000581J0000000D01*
G01*
X0371446Y0173169D01*
G75*
G02*
X0372027Y0172589I0000000J-000581D01*
G01*
X0372027Y0171427D01*
G75*
G02*
X0371446Y0170847I-000581J0000000D01*
G01*
G37*
G36*
G01*
X0371446Y0174665D02*
X0370088Y0174665D01*
G75*
G02*
X0369507Y0175246I0000000J0000581D01*
G01*
X0369507Y0176408D01*
G75*
G02*
X0370088Y0176988I0000581J0000000D01*
G01*
X0371446Y0176988D01*
G75*
G02*
X0372027Y0176408I0000000J-000581D01*
G01*
X0372027Y0175246D01*
G75*
G02*
X0371446Y0174665I-000581J0000000D01*
G01*
G37*
G36*
G01*
X0356250Y0181373D02*
X0356250Y0183391D01*
G75*
G02*
X0357111Y0184252I0000861J0000000D01*
G01*
X0358833Y0184252D01*
G75*
G02*
X0359694Y0183391I0000000J-000861D01*
G01*
X0359694Y0181373D01*
G75*
G02*
X0358833Y0180512I-000861J0000000D01*
G01*
X0357111Y0180512D01*
G75*
G02*
X0356250Y0181373I0000000J0000861D01*
G01*
G37*
G36*
G01*
X0362450Y0181373D02*
X0362450Y0183391D01*
G75*
G02*
X0363312Y0184252I0000861J0000000D01*
G01*
X0365034Y0184252D01*
G75*
G02*
X0365895Y0183391I0000000J-000861D01*
G01*
X0365895Y0181373D01*
G75*
G02*
X0365034Y0180512I-000861J0000000D01*
G01*
X0363312Y0180512D01*
G75*
G02*
X0362450Y0181373I0000000J0000861D01*
G01*
G37*
G36*
G01*
X0381279Y0227864D02*
X0381279Y0229223D01*
G75*
G02*
X0381860Y0229803I0000581J0000000D01*
G01*
X0383021Y0229803D01*
G75*
G02*
X0383602Y0229223I0000000J-000581D01*
G01*
X0383602Y0227864D01*
G75*
G02*
X0383021Y0227284I-000581J0000000D01*
G01*
X0381860Y0227284D01*
G75*
G02*
X0381279Y0227864I0000000J0000581D01*
G01*
G37*
G36*
G01*
X0385098Y0227864D02*
X0385098Y0229223D01*
G75*
G02*
X0385679Y0229803I0000581J0000000D01*
G01*
X0386840Y0229803D01*
G75*
G02*
X0387421Y0229223I0000000J-000581D01*
G01*
X0387421Y0227864D01*
G75*
G02*
X0386840Y0227284I-000581J0000000D01*
G01*
X0385679Y0227284D01*
G75*
G02*
X0385098Y0227864I0000000J0000581D01*
G01*
G37*
D164*
X0365452Y0176673D03*
X0357972Y0176673D03*
X0361712Y0168799D03*
G36*
G01*
X0381279Y0223681D02*
X0381279Y0225039D01*
G75*
G02*
X0381860Y0225620I0000581J0000000D01*
G01*
X0383021Y0225620D01*
G75*
G02*
X0383602Y0225039I0000000J-000581D01*
G01*
X0383602Y0223681D01*
G75*
G02*
X0383021Y0223101I-000581J0000000D01*
G01*
X0381860Y0223101D01*
G75*
G02*
X0381279Y0223681I0000000J0000581D01*
G01*
G37*
G36*
G01*
X0385098Y0223681D02*
X0385098Y0225039D01*
G75*
G02*
X0385679Y0225620I0000581J0000000D01*
G01*
X0386840Y0225620D01*
G75*
G02*
X0387421Y0225039I0000000J-000581D01*
G01*
X0387421Y0223681D01*
G75*
G02*
X0386840Y0223101I-000581J0000000D01*
G01*
X0385679Y0223101D01*
G75*
G02*
X0385098Y0223681I0000000J0000581D01*
G01*
G37*
G36*
G01*
X0356023Y0229419D02*
X0356023Y0228061D01*
G75*
G02*
X0355442Y0227480I-000581J0000000D01*
G01*
X0354281Y0227480D01*
G75*
G02*
X0353700Y0228061I0000000J0000581D01*
G01*
X0353700Y0229419D01*
G75*
G02*
X0354281Y0230000I0000581J0000000D01*
G01*
X0355442Y0230000D01*
G75*
G02*
X0356023Y0229419I0000000J-000581D01*
G01*
G37*
G36*
G01*
X0352204Y0229419D02*
X0352204Y0228061D01*
G75*
G02*
X0351624Y0227480I-000581J0000000D01*
G01*
X0350462Y0227480D01*
G75*
G02*
X0349881Y0228061I0000000J0000581D01*
G01*
X0349881Y0229419D01*
G75*
G02*
X0350462Y0230000I0000581J0000000D01*
G01*
X0351624Y0230000D01*
G75*
G02*
X0352204Y0229419I0000000J-000581D01*
G01*
G37*
G36*
G01*
X0340856Y0255571D02*
X0342214Y0255571D01*
G75*
G02*
X0342795Y0254990I0000000J-000581D01*
G01*
X0342795Y0253829D01*
G75*
G02*
X0342214Y0253248I-000581J0000000D01*
G01*
X0340856Y0253248D01*
G75*
G02*
X0340275Y0253829I0000000J0000581D01*
G01*
X0340275Y0254990D01*
G75*
G02*
X0340856Y0255571I0000581J0000000D01*
G01*
G37*
G36*
G01*
X0340856Y0251752D02*
X0342214Y0251752D01*
G75*
G02*
X0342795Y0251171I0000000J-000581D01*
G01*
X0342795Y0250010D01*
G75*
G02*
X0342214Y0249429I-000581J0000000D01*
G01*
X0340856Y0249429D01*
G75*
G02*
X0340275Y0250010I0000000J0000581D01*
G01*
X0340275Y0251171D01*
G75*
G02*
X0340856Y0251752I0000581J0000000D01*
G01*
G37*
G36*
G01*
X0345098Y0224301D02*
X0345098Y0222943D01*
G75*
G02*
X0344517Y0222362I-000581J0000000D01*
G01*
X0343356Y0222362D01*
G75*
G02*
X0342775Y0222943I0000000J0000581D01*
G01*
X0342775Y0224301D01*
G75*
G02*
X0343356Y0224882I0000581J0000000D01*
G01*
X0344517Y0224882D01*
G75*
G02*
X0345098Y0224301I0000000J-000581D01*
G01*
G37*
G36*
G01*
X0341279Y0224301D02*
X0341279Y0222943D01*
G75*
G02*
X0340698Y0222362I-000581J0000000D01*
G01*
X0339537Y0222362D01*
G75*
G02*
X0338956Y0222943I0000000J0000581D01*
G01*
X0338956Y0224301D01*
G75*
G02*
X0339537Y0224882I0000581J0000000D01*
G01*
X0340698Y0224882D01*
G75*
G02*
X0341279Y0224301I0000000J-000581D01*
G01*
G37*
G36*
G01*
X0371870Y0229419D02*
X0371870Y0228061D01*
G75*
G02*
X0371289Y0227480I-000581J0000000D01*
G01*
X0370128Y0227480D01*
G75*
G02*
X0369547Y0228061I0000000J0000581D01*
G01*
X0369547Y0229419D01*
G75*
G02*
X0370128Y0230000I0000581J0000000D01*
G01*
X0371289Y0230000D01*
G75*
G02*
X0371870Y0229419I0000000J-000581D01*
G01*
G37*
G36*
G01*
X0368051Y0229419D02*
X0368051Y0228061D01*
G75*
G02*
X0367470Y0227480I-000581J0000000D01*
G01*
X0366309Y0227480D01*
G75*
G02*
X0365728Y0228061I0000000J0000581D01*
G01*
X0365728Y0229419D01*
G75*
G02*
X0366309Y0230000I0000581J0000000D01*
G01*
X0367470Y0230000D01*
G75*
G02*
X0368051Y0229419I0000000J-000581D01*
G01*
G37*
G36*
G01*
X0345098Y0189656D02*
X0345098Y0188297D01*
G75*
G02*
X0344517Y0187717I-000581J0000000D01*
G01*
X0343356Y0187717D01*
G75*
G02*
X0342775Y0188297I0000000J0000581D01*
G01*
X0342775Y0189656D01*
G75*
G02*
X0343356Y0190236I0000581J0000000D01*
G01*
X0344517Y0190236D01*
G75*
G02*
X0345098Y0189656I0000000J-000581D01*
G01*
G37*
G36*
G01*
X0341279Y0189656D02*
X0341279Y0188297D01*
G75*
G02*
X0340698Y0187717I-000581J0000000D01*
G01*
X0339537Y0187717D01*
G75*
G02*
X0338956Y0188297I0000000J0000581D01*
G01*
X0338956Y0189656D01*
G75*
G02*
X0339537Y0190236I0000581J0000000D01*
G01*
X0340698Y0190236D01*
G75*
G02*
X0341279Y0189656I0000000J-000581D01*
G01*
G37*
G36*
G01*
X0342214Y0241752D02*
X0340856Y0241752D01*
G75*
G02*
X0340275Y0242333I0000000J0000581D01*
G01*
X0340275Y0243494D01*
G75*
G02*
X0340856Y0244075I0000581J0000000D01*
G01*
X0342214Y0244075D01*
G75*
G02*
X0342795Y0243494I0000000J-000581D01*
G01*
X0342795Y0242333D01*
G75*
G02*
X0342214Y0241752I-000581J0000000D01*
G01*
G37*
G36*
G01*
X0342214Y0245571D02*
X0340856Y0245571D01*
G75*
G02*
X0340275Y0246152I0000000J0000581D01*
G01*
X0340275Y0247313D01*
G75*
G02*
X0340856Y0247894I0000581J0000000D01*
G01*
X0342214Y0247894D01*
G75*
G02*
X0342795Y0247313I0000000J-000581D01*
G01*
X0342795Y0246152D01*
G75*
G02*
X0342214Y0245571I-000581J0000000D01*
G01*
G37*
G36*
G01*
X0371545Y0178622D02*
X0370187Y0178622D01*
G75*
G02*
X0369606Y0179203I0000000J0000581D01*
G01*
X0369606Y0180364D01*
G75*
G02*
X0370187Y0180945I0000581J0000000D01*
G01*
X0371545Y0180945D01*
G75*
G02*
X0372126Y0180364I0000000J-000581D01*
G01*
X0372126Y0179203D01*
G75*
G02*
X0371545Y0178622I-000581J0000000D01*
G01*
G37*
G36*
G01*
X0371545Y0182441D02*
X0370187Y0182441D01*
G75*
G02*
X0369606Y0183022I0000000J0000581D01*
G01*
X0369606Y0184183D01*
G75*
G02*
X0370187Y0184764I0000581J0000000D01*
G01*
X0371545Y0184764D01*
G75*
G02*
X0372126Y0184183I0000000J-000581D01*
G01*
X0372126Y0183022D01*
G75*
G02*
X0371545Y0182441I-000581J0000000D01*
G01*
G37*
G36*
G01*
X0385211Y0217126D02*
X0387229Y0217126D01*
G75*
G02*
X0388090Y0216265I0000000J-000861D01*
G01*
X0388090Y0214542D01*
G75*
G02*
X0387229Y0213681I-000861J0000000D01*
G01*
X0385211Y0213681D01*
G75*
G02*
X0384350Y0214542I0000000J0000861D01*
G01*
X0384350Y0216265D01*
G75*
G02*
X0385211Y0217126I0000861J0000000D01*
G01*
G37*
G36*
G01*
X0385211Y0210925D02*
X0387229Y0210925D01*
G75*
G02*
X0388090Y0210064I0000000J-000861D01*
G01*
X0388090Y0208342D01*
G75*
G02*
X0387229Y0207480I-000861J0000000D01*
G01*
X0385211Y0207480D01*
G75*
G02*
X0384350Y0208342I0000000J0000861D01*
G01*
X0384350Y0210064D01*
G75*
G02*
X0385211Y0210925I0000861J0000000D01*
G01*
G37*
G36*
G01*
X0381279Y0219498D02*
X0381279Y0220856D01*
G75*
G02*
X0381860Y0221437I0000581J0000000D01*
G01*
X0383021Y0221437D01*
G75*
G02*
X0383602Y0220856I0000000J-000581D01*
G01*
X0383602Y0219498D01*
G75*
G02*
X0383021Y0218917I-000581J0000000D01*
G01*
X0381860Y0218917D01*
G75*
G02*
X0381279Y0219498I0000000J0000581D01*
G01*
G37*
G36*
G01*
X0385098Y0219498D02*
X0385098Y0220856D01*
G75*
G02*
X0385679Y0221437I0000581J0000000D01*
G01*
X0386840Y0221437D01*
G75*
G02*
X0387421Y0220856I0000000J-000581D01*
G01*
X0387421Y0219498D01*
G75*
G02*
X0386840Y0218917I-000581J0000000D01*
G01*
X0385679Y0218917D01*
G75*
G02*
X0385098Y0219498I0000000J0000581D01*
G01*
G37*
G36*
G01*
X0342544Y0229823D02*
X0340526Y0229823D01*
G75*
G02*
X0339665Y0230684I0000000J0000861D01*
G01*
X0339665Y0232407D01*
G75*
G02*
X0340526Y0233268I0000861J0000000D01*
G01*
X0342544Y0233268D01*
G75*
G02*
X0343405Y0232407I0000000J-000861D01*
G01*
X0343405Y0230684D01*
G75*
G02*
X0342544Y0229823I-000861J0000000D01*
G01*
G37*
G36*
G01*
X0342544Y0236024D02*
X0340526Y0236024D01*
G75*
G02*
X0339665Y0236885I0000000J0000861D01*
G01*
X0339665Y0238607D01*
G75*
G02*
X0340526Y0239469I0000861J0000000D01*
G01*
X0342544Y0239469D01*
G75*
G02*
X0343405Y0238607I0000000J-000861D01*
G01*
X0343405Y0236885D01*
G75*
G02*
X0342544Y0236024I-000861J0000000D01*
G01*
G37*
G36*
G01*
X0387229Y0195768D02*
X0385211Y0195768D01*
G75*
G02*
X0384350Y0196629I0000000J0000861D01*
G01*
X0384350Y0198352D01*
G75*
G02*
X0385211Y0199213I0000861J0000000D01*
G01*
X0387229Y0199213D01*
G75*
G02*
X0388090Y0198352I0000000J-000861D01*
G01*
X0388090Y0196629D01*
G75*
G02*
X0387229Y0195768I-000861J0000000D01*
G01*
G37*
G36*
G01*
X0387229Y0201969D02*
X0385211Y0201969D01*
G75*
G02*
X0384350Y0202830I0000000J0000861D01*
G01*
X0384350Y0204552D01*
G75*
G02*
X0385211Y0205414I0000861J0000000D01*
G01*
X0387229Y0205414D01*
G75*
G02*
X0388090Y0204552I0000000J-000861D01*
G01*
X0388090Y0202830D01*
G75*
G02*
X0387229Y0201969I-000861J0000000D01*
G01*
G37*
G36*
G01*
X0383051Y0191447D02*
X0383051Y0192805D01*
G75*
G02*
X0383631Y0193386I0000581J0000000D01*
G01*
X0384793Y0193386D01*
G75*
G02*
X0385374Y0192805I0000000J-000581D01*
G01*
X0385374Y0191447D01*
G75*
G02*
X0384793Y0190866I-000581J0000000D01*
G01*
X0383631Y0190866D01*
G75*
G02*
X0383051Y0191447I0000000J0000581D01*
G01*
G37*
G36*
G01*
X0386870Y0191447D02*
X0386870Y0192805D01*
G75*
G02*
X0387450Y0193386I0000581J0000000D01*
G01*
X0388612Y0193386D01*
G75*
G02*
X0389192Y0192805I0000000J-000581D01*
G01*
X0389192Y0191447D01*
G75*
G02*
X0388612Y0190866I-000581J0000000D01*
G01*
X0387450Y0190866D01*
G75*
G02*
X0386870Y0191447I0000000J0000581D01*
G01*
G37*
G36*
G01*
X0370374Y0225886D02*
X0371358Y0225886D01*
G75*
G02*
X0371850Y0225394I0000000J-000492D01*
G01*
X0371850Y0220473D01*
G75*
G02*
X0371358Y0219980I-000492J0000000D01*
G01*
X0370374Y0219980D01*
G75*
G02*
X0369881Y0220473I0000000J0000492D01*
G01*
X0369881Y0225394D01*
G75*
G02*
X0370374Y0225886I0000492J0000000D01*
G01*
G37*
G36*
G01*
X0367224Y0225886D02*
X0368208Y0225886D01*
G75*
G02*
X0368700Y0225394I0000000J-000492D01*
G01*
X0368700Y0220473D01*
G75*
G02*
X0368208Y0219980I-000492J0000000D01*
G01*
X0367224Y0219980D01*
G75*
G02*
X0366732Y0220473I0000000J0000492D01*
G01*
X0366732Y0225394D01*
G75*
G02*
X0367224Y0225886I0000492J0000000D01*
G01*
G37*
G36*
G01*
X0364074Y0225886D02*
X0365059Y0225886D01*
G75*
G02*
X0365551Y0225394I0000000J-000492D01*
G01*
X0365551Y0220473D01*
G75*
G02*
X0365059Y0219980I-000492J0000000D01*
G01*
X0364074Y0219980D01*
G75*
G02*
X0363582Y0220473I0000000J0000492D01*
G01*
X0363582Y0225394D01*
G75*
G02*
X0364074Y0225886I0000492J0000000D01*
G01*
G37*
G36*
G01*
X0360925Y0225886D02*
X0361909Y0225886D01*
G75*
G02*
X0362401Y0225394I0000000J-000492D01*
G01*
X0362401Y0220473D01*
G75*
G02*
X0361909Y0219980I-000492J0000000D01*
G01*
X0360925Y0219980D01*
G75*
G02*
X0360433Y0220473I0000000J0000492D01*
G01*
X0360433Y0225394D01*
G75*
G02*
X0360925Y0225886I0000492J0000000D01*
G01*
G37*
G36*
G01*
X0357775Y0225886D02*
X0358759Y0225886D01*
G75*
G02*
X0359252Y0225394I0000000J-000492D01*
G01*
X0359252Y0220473D01*
G75*
G02*
X0358759Y0219980I-000492J0000000D01*
G01*
X0357775Y0219980D01*
G75*
G02*
X0357283Y0220473I0000000J0000492D01*
G01*
X0357283Y0225394D01*
G75*
G02*
X0357775Y0225886I0000492J0000000D01*
G01*
G37*
G36*
G01*
X0354626Y0225886D02*
X0355610Y0225886D01*
G75*
G02*
X0356102Y0225394I0000000J-000492D01*
G01*
X0356102Y0220473D01*
G75*
G02*
X0355610Y0219980I-000492J0000000D01*
G01*
X0354626Y0219980D01*
G75*
G02*
X0354133Y0220473I0000000J0000492D01*
G01*
X0354133Y0225394D01*
G75*
G02*
X0354626Y0225886I0000492J0000000D01*
G01*
G37*
G36*
G01*
X0351476Y0225886D02*
X0352460Y0225886D01*
G75*
G02*
X0352952Y0225394I0000000J-000492D01*
G01*
X0352952Y0220473D01*
G75*
G02*
X0352460Y0219980I-000492J0000000D01*
G01*
X0351476Y0219980D01*
G75*
G02*
X0350984Y0220473I0000000J0000492D01*
G01*
X0350984Y0225394D01*
G75*
G02*
X0351476Y0225886I0000492J0000000D01*
G01*
G37*
G36*
G01*
X0348326Y0225886D02*
X0349311Y0225886D01*
G75*
G02*
X0349803Y0225394I0000000J-000492D01*
G01*
X0349803Y0220473D01*
G75*
G02*
X0349311Y0219980I-000492J0000000D01*
G01*
X0348326Y0219980D01*
G75*
G02*
X0347834Y0220473I0000000J0000492D01*
G01*
X0347834Y0225394D01*
G75*
G02*
X0348326Y0225886I0000492J0000000D01*
G01*
G37*
G36*
G01*
X0340944Y0218504D02*
X0345866Y0218504D01*
G75*
G02*
X0346358Y0218012I0000000J-000492D01*
G01*
X0346358Y0217028D01*
G75*
G02*
X0345866Y0216536I-000492J0000000D01*
G01*
X0340944Y0216536D01*
G75*
G02*
X0340452Y0217028I0000000J0000492D01*
G01*
X0340452Y0218012D01*
G75*
G02*
X0340944Y0218504I0000492J0000000D01*
G01*
G37*
G36*
G01*
X0340944Y0215354D02*
X0345866Y0215354D01*
G75*
G02*
X0346358Y0214862I0000000J-000492D01*
G01*
X0346358Y0213878D01*
G75*
G02*
X0345866Y0213386I-000492J0000000D01*
G01*
X0340944Y0213386D01*
G75*
G02*
X0340452Y0213878I0000000J0000492D01*
G01*
X0340452Y0214862D01*
G75*
G02*
X0340944Y0215354I0000492J0000000D01*
G01*
G37*
G36*
G01*
X0340944Y0212205D02*
X0345866Y0212205D01*
G75*
G02*
X0346358Y0211713I0000000J-000492D01*
G01*
X0346358Y0210728D01*
G75*
G02*
X0345866Y0210236I-000492J0000000D01*
G01*
X0340944Y0210236D01*
G75*
G02*
X0340452Y0210728I0000000J0000492D01*
G01*
X0340452Y0211713D01*
G75*
G02*
X0340944Y0212205I0000492J0000000D01*
G01*
G37*
G36*
G01*
X0340944Y0209055D02*
X0345866Y0209055D01*
G75*
G02*
X0346358Y0208563I0000000J-000492D01*
G01*
X0346358Y0207579D01*
G75*
G02*
X0345866Y0207087I-000492J0000000D01*
G01*
X0340944Y0207087D01*
G75*
G02*
X0340452Y0207579I0000000J0000492D01*
G01*
X0340452Y0208563D01*
G75*
G02*
X0340944Y0209055I0000492J0000000D01*
G01*
G37*
G36*
G01*
X0340944Y0205906D02*
X0345866Y0205906D01*
G75*
G02*
X0346358Y0205414I0000000J-000492D01*
G01*
X0346358Y0204429D01*
G75*
G02*
X0345866Y0203937I-000492J0000000D01*
G01*
X0340944Y0203937D01*
G75*
G02*
X0340452Y0204429I0000000J0000492D01*
G01*
X0340452Y0205414D01*
G75*
G02*
X0340944Y0205906I0000492J0000000D01*
G01*
G37*
G36*
G01*
X0340944Y0202756D02*
X0345866Y0202756D01*
G75*
G02*
X0346358Y0202264I0000000J-000492D01*
G01*
X0346358Y0201280D01*
G75*
G02*
X0345866Y0200788I-000492J0000000D01*
G01*
X0340944Y0200788D01*
G75*
G02*
X0340452Y0201280I0000000J0000492D01*
G01*
X0340452Y0202264D01*
G75*
G02*
X0340944Y0202756I0000492J0000000D01*
G01*
G37*
G36*
G01*
X0340944Y0199606D02*
X0345866Y0199606D01*
G75*
G02*
X0346358Y0199114I0000000J-000492D01*
G01*
X0346358Y0198130D01*
G75*
G02*
X0345866Y0197638I-000492J0000000D01*
G01*
X0340944Y0197638D01*
G75*
G02*
X0340452Y0198130I0000000J0000492D01*
G01*
X0340452Y0199114D01*
G75*
G02*
X0340944Y0199606I0000492J0000000D01*
G01*
G37*
G36*
G01*
X0340944Y0196457D02*
X0345866Y0196457D01*
G75*
G02*
X0346358Y0195965I0000000J-000492D01*
G01*
X0346358Y0194980D01*
G75*
G02*
X0345866Y0194488I-000492J0000000D01*
G01*
X0340944Y0194488D01*
G75*
G02*
X0340452Y0194980I0000000J0000492D01*
G01*
X0340452Y0195965D01*
G75*
G02*
X0340944Y0196457I0000492J0000000D01*
G01*
G37*
G36*
G01*
X0348326Y0193012D02*
X0349311Y0193012D01*
G75*
G02*
X0349803Y0192520I0000000J-000492D01*
G01*
X0349803Y0187599D01*
G75*
G02*
X0349311Y0187106I-000492J0000000D01*
G01*
X0348326Y0187106D01*
G75*
G02*
X0347834Y0187599I0000000J0000492D01*
G01*
X0347834Y0192520D01*
G75*
G02*
X0348326Y0193012I0000492J0000000D01*
G01*
G37*
G36*
G01*
X0351476Y0193012D02*
X0352460Y0193012D01*
G75*
G02*
X0352952Y0192520I0000000J-000492D01*
G01*
X0352952Y0187599D01*
G75*
G02*
X0352460Y0187106I-000492J0000000D01*
G01*
X0351476Y0187106D01*
G75*
G02*
X0350984Y0187599I0000000J0000492D01*
G01*
X0350984Y0192520D01*
G75*
G02*
X0351476Y0193012I0000492J0000000D01*
G01*
G37*
G36*
G01*
X0354626Y0193012D02*
X0355610Y0193012D01*
G75*
G02*
X0356102Y0192520I0000000J-000492D01*
G01*
X0356102Y0187599D01*
G75*
G02*
X0355610Y0187106I-000492J0000000D01*
G01*
X0354626Y0187106D01*
G75*
G02*
X0354133Y0187599I0000000J0000492D01*
G01*
X0354133Y0192520D01*
G75*
G02*
X0354626Y0193012I0000492J0000000D01*
G01*
G37*
G36*
G01*
X0357775Y0193012D02*
X0358759Y0193012D01*
G75*
G02*
X0359252Y0192520I0000000J-000492D01*
G01*
X0359252Y0187599D01*
G75*
G02*
X0358759Y0187106I-000492J0000000D01*
G01*
X0357775Y0187106D01*
G75*
G02*
X0357283Y0187599I0000000J0000492D01*
G01*
X0357283Y0192520D01*
G75*
G02*
X0357775Y0193012I0000492J0000000D01*
G01*
G37*
G36*
G01*
X0360925Y0193012D02*
X0361909Y0193012D01*
G75*
G02*
X0362401Y0192520I0000000J-000492D01*
G01*
X0362401Y0187599D01*
G75*
G02*
X0361909Y0187106I-000492J0000000D01*
G01*
X0360925Y0187106D01*
G75*
G02*
X0360433Y0187599I0000000J0000492D01*
G01*
X0360433Y0192520D01*
G75*
G02*
X0360925Y0193012I0000492J0000000D01*
G01*
G37*
G36*
G01*
X0364074Y0193012D02*
X0365059Y0193012D01*
G75*
G02*
X0365551Y0192520I0000000J-000492D01*
G01*
X0365551Y0187599D01*
G75*
G02*
X0365059Y0187106I-000492J0000000D01*
G01*
X0364074Y0187106D01*
G75*
G02*
X0363582Y0187599I0000000J0000492D01*
G01*
X0363582Y0192520D01*
G75*
G02*
X0364074Y0193012I0000492J0000000D01*
G01*
G37*
G36*
G01*
X0367224Y0193012D02*
X0368208Y0193012D01*
G75*
G02*
X0368700Y0192520I0000000J-000492D01*
G01*
X0368700Y0187599D01*
G75*
G02*
X0368208Y0187106I-000492J0000000D01*
G01*
X0367224Y0187106D01*
G75*
G02*
X0366732Y0187599I0000000J0000492D01*
G01*
X0366732Y0192520D01*
G75*
G02*
X0367224Y0193012I0000492J0000000D01*
G01*
G37*
G36*
G01*
X0370374Y0193012D02*
X0371358Y0193012D01*
G75*
G02*
X0371850Y0192520I0000000J-000492D01*
G01*
X0371850Y0187599D01*
G75*
G02*
X0371358Y0187106I-000492J0000000D01*
G01*
X0370374Y0187106D01*
G75*
G02*
X0369881Y0187599I0000000J0000492D01*
G01*
X0369881Y0192520D01*
G75*
G02*
X0370374Y0193012I0000492J0000000D01*
G01*
G37*
G36*
G01*
X0373818Y0196457D02*
X0378740Y0196457D01*
G75*
G02*
X0379232Y0195965I0000000J-000492D01*
G01*
X0379232Y0194980D01*
G75*
G02*
X0378740Y0194488I-000492J0000000D01*
G01*
X0373818Y0194488D01*
G75*
G02*
X0373326Y0194980I0000000J0000492D01*
G01*
X0373326Y0195965D01*
G75*
G02*
X0373818Y0196457I0000492J0000000D01*
G01*
G37*
G36*
G01*
X0373818Y0199606D02*
X0378740Y0199606D01*
G75*
G02*
X0379232Y0199114I0000000J-000492D01*
G01*
X0379232Y0198130D01*
G75*
G02*
X0378740Y0197638I-000492J0000000D01*
G01*
X0373818Y0197638D01*
G75*
G02*
X0373326Y0198130I0000000J0000492D01*
G01*
X0373326Y0199114D01*
G75*
G02*
X0373818Y0199606I0000492J0000000D01*
G01*
G37*
G36*
G01*
X0373818Y0202756D02*
X0378740Y0202756D01*
G75*
G02*
X0379232Y0202264I0000000J-000492D01*
G01*
X0379232Y0201280D01*
G75*
G02*
X0378740Y0200788I-000492J0000000D01*
G01*
X0373818Y0200788D01*
G75*
G02*
X0373326Y0201280I0000000J0000492D01*
G01*
X0373326Y0202264D01*
G75*
G02*
X0373818Y0202756I0000492J0000000D01*
G01*
G37*
G36*
G01*
X0373818Y0205906D02*
X0378740Y0205906D01*
G75*
G02*
X0379232Y0205414I0000000J-000492D01*
G01*
X0379232Y0204429D01*
G75*
G02*
X0378740Y0203937I-000492J0000000D01*
G01*
X0373818Y0203937D01*
G75*
G02*
X0373326Y0204429I0000000J0000492D01*
G01*
X0373326Y0205414D01*
G75*
G02*
X0373818Y0205906I0000492J0000000D01*
G01*
G37*
G36*
G01*
X0373818Y0209055D02*
X0378740Y0209055D01*
G75*
G02*
X0379232Y0208563I0000000J-000492D01*
G01*
X0379232Y0207579D01*
G75*
G02*
X0378740Y0207087I-000492J0000000D01*
G01*
X0373818Y0207087D01*
G75*
G02*
X0373326Y0207579I0000000J0000492D01*
G01*
X0373326Y0208563D01*
G75*
G02*
X0373818Y0209055I0000492J0000000D01*
G01*
G37*
G36*
G01*
X0373818Y0212205D02*
X0378740Y0212205D01*
G75*
G02*
X0379232Y0211713I0000000J-000492D01*
G01*
X0379232Y0210728D01*
G75*
G02*
X0378740Y0210236I-000492J0000000D01*
G01*
X0373818Y0210236D01*
G75*
G02*
X0373326Y0210728I0000000J0000492D01*
G01*
X0373326Y0211713D01*
G75*
G02*
X0373818Y0212205I0000492J0000000D01*
G01*
G37*
G36*
G01*
X0373818Y0215354D02*
X0378740Y0215354D01*
G75*
G02*
X0379232Y0214862I0000000J-000492D01*
G01*
X0379232Y0213878D01*
G75*
G02*
X0378740Y0213386I-000492J0000000D01*
G01*
X0373818Y0213386D01*
G75*
G02*
X0373326Y0213878I0000000J0000492D01*
G01*
X0373326Y0214862D01*
G75*
G02*
X0373818Y0215354I0000492J0000000D01*
G01*
G37*
G36*
G01*
X0373818Y0218504D02*
X0378740Y0218504D01*
G75*
G02*
X0379232Y0218012I0000000J-000492D01*
G01*
X0379232Y0217028D01*
G75*
G02*
X0378740Y0216536I-000492J0000000D01*
G01*
X0373818Y0216536D01*
G75*
G02*
X0373326Y0217028I0000000J0000492D01*
G01*
X0373326Y0218012D01*
G75*
G02*
X0373818Y0218504I0000492J0000000D01*
G01*
G37*
G36*
G01*
X0352273Y0183878D02*
X0353631Y0183878D01*
G75*
G02*
X0354212Y0183297I0000000J-000581D01*
G01*
X0354212Y0182136D01*
G75*
G02*
X0353631Y0181555I-000581J0000000D01*
G01*
X0352273Y0181555D01*
G75*
G02*
X0351692Y0182136I0000000J0000581D01*
G01*
X0351692Y0183297D01*
G75*
G02*
X0352273Y0183878I0000581J0000000D01*
G01*
G37*
G36*
G01*
X0352273Y0180059D02*
X0353631Y0180059D01*
G75*
G02*
X0354212Y0179478I0000000J-000581D01*
G01*
X0354212Y0178317D01*
G75*
G02*
X0353631Y0177736I-000581J0000000D01*
G01*
X0352273Y0177736D01*
G75*
G02*
X0351692Y0178317I0000000J0000581D01*
G01*
X0351692Y0179478D01*
G75*
G02*
X0352273Y0180059I0000581J0000000D01*
G01*
G37*
G36*
G01*
X0375669Y0190955D02*
X0375669Y0192313D01*
G75*
G02*
X0376250Y0192894I0000581J0000000D01*
G01*
X0377411Y0192894D01*
G75*
G02*
X0377992Y0192313I0000000J-000581D01*
G01*
X0377992Y0190955D01*
G75*
G02*
X0377411Y0190374I-000581J0000000D01*
G01*
X0376250Y0190374D01*
G75*
G02*
X0375669Y0190955I0000000J0000581D01*
G01*
G37*
G36*
G01*
X0379488Y0190955D02*
X0379488Y0192313D01*
G75*
G02*
X0380068Y0192894I0000581J0000000D01*
G01*
X0381230Y0192894D01*
G75*
G02*
X0381811Y0192313I0000000J-000581D01*
G01*
X0381811Y0190955D01*
G75*
G02*
X0381230Y0190374I-000581J0000000D01*
G01*
X0380068Y0190374D01*
G75*
G02*
X0379488Y0190955I0000000J0000581D01*
G01*
G37*
G36*
G01*
X0353631Y0167311D02*
X0352273Y0167311D01*
G75*
G02*
X0351692Y0167892I0000000J0000581D01*
G01*
X0351692Y0169053D01*
G75*
G02*
X0352273Y0169634I0000581J0000000D01*
G01*
X0353631Y0169634D01*
G75*
G02*
X0354212Y0169053I0000000J-000581D01*
G01*
X0354212Y0167892D01*
G75*
G02*
X0353631Y0167311I-000581J0000000D01*
G01*
G37*
G36*
G01*
X0353631Y0171130D02*
X0352273Y0171130D01*
G75*
G02*
X0351692Y0171711I0000000J0000581D01*
G01*
X0351692Y0172872D01*
G75*
G02*
X0352273Y0173453I0000581J0000000D01*
G01*
X0353631Y0173453D01*
G75*
G02*
X0354212Y0172872I0000000J-000581D01*
G01*
X0354212Y0171711D01*
G75*
G02*
X0353631Y0171130I-000581J0000000D01*
G01*
G37*
D163*
X0348031Y0168799D03*
X0348031Y0176280D03*
X0340157Y0172539D03*
G36*
G01*
X0373799Y0227864D02*
X0373799Y0229223D01*
G75*
G02*
X0374379Y0229803I0000581J0000000D01*
G01*
X0375541Y0229803D01*
G75*
G02*
X0376122Y0229223I0000000J-000581D01*
G01*
X0376122Y0227864D01*
G75*
G02*
X0375541Y0227284I-000581J0000000D01*
G01*
X0374379Y0227284D01*
G75*
G02*
X0373799Y0227864I0000000J0000581D01*
G01*
G37*
G36*
G01*
X0377618Y0227864D02*
X0377618Y0229223D01*
G75*
G02*
X0378198Y0229803I0000581J0000000D01*
G01*
X0379360Y0229803D01*
G75*
G02*
X0379941Y0229223I0000000J-000581D01*
G01*
X0379941Y0227864D01*
G75*
G02*
X0379360Y0227284I-000581J0000000D01*
G01*
X0378198Y0227284D01*
G75*
G02*
X0377618Y0227864I0000000J0000581D01*
G01*
G37*
G36*
G01*
X0338759Y0181738D02*
X0338759Y0183755D01*
G75*
G02*
X0339621Y0184616I0000861J0000000D01*
G01*
X0341343Y0184616D01*
G75*
G02*
X0342204Y0183755I0000000J-000861D01*
G01*
X0342204Y0181738D01*
G75*
G02*
X0341343Y0180876I-000861J0000000D01*
G01*
X0339621Y0180876D01*
G75*
G02*
X0338759Y0181738I0000000J0000861D01*
G01*
G37*
G36*
G01*
X0344960Y0181738D02*
X0344960Y0183755D01*
G75*
G02*
X0345821Y0184616I0000861J0000000D01*
G01*
X0347544Y0184616D01*
G75*
G02*
X0348405Y0183755I0000000J-000861D01*
G01*
X0348405Y0181738D01*
G75*
G02*
X0347544Y0180876I-000861J0000000D01*
G01*
X0345821Y0180876D01*
G75*
G02*
X0344960Y0181738I0000000J0000861D01*
G01*
G37*
X0312992Y0189764D02*
G01*
G75*
D64*
X0259645Y0048425D02*
D03*
D63*
X0273425Y0048425D02*
D03*
D66*
X0179527Y0154528D02*
D03*
D61*
X0221260Y0048425D02*
D03*
X0305512Y0189370D02*
D03*
D62*
X0191732Y0189370D02*
D03*
X0297244Y0048425D02*
D03*
D59*
X0312598Y0153740D02*
D03*
D60*
X0312598Y0185236D02*
D03*
D58*
X0312598Y0100000D02*
D03*
D67*
X0179527Y0177362D02*
D03*
D65*
X0179527Y0061811D02*
D03*
D56*
X0312598Y0082481D02*
D03*
X0312598Y0058465D02*
D03*
D57*
X0312598Y0070473D02*
D03*
X0179527Y0096063D02*
D03*
D380*
X0189370Y0171674D02*
D03*
X0182283Y0171674D02*
D03*
X0182283Y0181713D02*
D03*
X0189370Y0181713D02*
D03*
X0301181Y0122933D02*
D03*
X0308268Y0122933D02*
D03*
X0308268Y0132973D02*
D03*
X0301181Y0132973D02*
D03*
X0301181Y0116831D02*
D03*
X0308268Y0116831D02*
D03*
X0308268Y0106791D02*
D03*
X0301181Y0106791D02*
D03*
D381*
X0189370Y0175118D02*
D03*
X0189370Y0178268D02*
D03*
X0182283Y0178268D02*
D03*
X0182283Y0175118D02*
D03*
X0308268Y0129528D02*
D03*
X0308268Y0126378D02*
D03*
X0301181Y0126378D02*
D03*
X0301181Y0129528D02*
D03*
X0301181Y0113386D02*
D03*
X0301181Y0110236D02*
D03*
X0308268Y0110236D02*
D03*
X0308268Y0113386D02*
D03*
D382*
X0193582Y0174670D02*
D03*
X0193582Y0172111D02*
D03*
X0193582Y0169551D02*
D03*
X0201062Y0174670D02*
D03*
X0201062Y0169551D02*
D03*
X0201062Y0172111D02*
D03*
X0201062Y0179295D02*
D03*
X0201062Y0184414D02*
D03*
X0193582Y0179295D02*
D03*
X0193582Y0181855D02*
D03*
X0193582Y0184414D02*
D03*
X0201062Y0181855D02*
D03*
D173*
X0260790Y0075394D02*
D03*
X0260790Y0077362D02*
D03*
X0260790Y0079331D02*
D03*
X0260790Y0081299D02*
D03*
X0260790Y0083268D02*
D03*
X0260790Y0085236D02*
D03*
X0260790Y0087205D02*
D03*
X0260790Y0089173D02*
D03*
X0260790Y0091142D02*
D03*
X0260790Y0095079D02*
D03*
X0260790Y0097048D02*
D03*
X0260790Y0099016D02*
D03*
X0260790Y0100985D02*
D03*
X0260790Y0102953D02*
D03*
X0260790Y0104922D02*
D03*
X0260790Y0106890D02*
D03*
X0260790Y0108859D02*
D03*
X0260790Y0110827D02*
D03*
X0260790Y0112796D02*
D03*
X0260790Y0114764D02*
D03*
X0260790Y0116732D02*
D03*
X0260790Y0118701D02*
D03*
X0260790Y0120669D02*
D03*
X0260790Y0122638D02*
D03*
X0199766Y0122638D02*
D03*
X0199766Y0120669D02*
D03*
X0199766Y0118701D02*
D03*
X0199766Y0116732D02*
D03*
X0199766Y0114764D02*
D03*
X0199766Y0112796D02*
D03*
X0199766Y0110827D02*
D03*
X0199766Y0108859D02*
D03*
X0199766Y0106890D02*
D03*
X0199766Y0104922D02*
D03*
X0199766Y0102953D02*
D03*
X0199766Y0100985D02*
D03*
X0199766Y0099016D02*
D03*
X0199766Y0097048D02*
D03*
X0199766Y0095079D02*
D03*
X0199766Y0093111D02*
D03*
X0199766Y0091142D02*
D03*
X0199766Y0089173D02*
D03*
X0199766Y0087205D02*
D03*
X0199766Y0085236D02*
D03*
X0199766Y0083268D02*
D03*
X0199766Y0081299D02*
D03*
X0199766Y0079331D02*
D03*
X0199766Y0075394D02*
D03*
X0260790Y0093111D02*
D03*
X0199766Y0077362D02*
D03*
D174*
X0253900Y0129528D02*
D03*
X0249963Y0129528D02*
D03*
X0247994Y0129528D02*
D03*
X0246026Y0129528D02*
D03*
X0244057Y0129528D02*
D03*
X0242089Y0129528D02*
D03*
X0240120Y0129528D02*
D03*
X0238152Y0129528D02*
D03*
X0236183Y0129528D02*
D03*
X0234215Y0129528D02*
D03*
X0232246Y0129528D02*
D03*
X0230278Y0129528D02*
D03*
X0228309Y0129528D02*
D03*
X0226341Y0129528D02*
D03*
X0224372Y0129528D02*
D03*
X0222404Y0129528D02*
D03*
X0220435Y0129528D02*
D03*
X0218467Y0129528D02*
D03*
X0216498Y0129528D02*
D03*
X0214530Y0129528D02*
D03*
X0212561Y0129528D02*
D03*
X0210593Y0129528D02*
D03*
X0208624Y0129528D02*
D03*
X0206656Y0129528D02*
D03*
X0206656Y0068504D02*
D03*
X0208624Y0068504D02*
D03*
X0210593Y0068504D02*
D03*
X0212561Y0068504D02*
D03*
X0214530Y0068504D02*
D03*
X0216498Y0068504D02*
D03*
X0218467Y0068504D02*
D03*
X0220435Y0068504D02*
D03*
X0222404Y0068504D02*
D03*
X0224372Y0068504D02*
D03*
X0226341Y0068504D02*
D03*
X0228309Y0068504D02*
D03*
X0230278Y0068504D02*
D03*
X0232246Y0068504D02*
D03*
X0234215Y0068504D02*
D03*
X0236183Y0068504D02*
D03*
X0238152Y0068504D02*
D03*
X0240120Y0068504D02*
D03*
X0242089Y0068504D02*
D03*
X0244057Y0068504D02*
D03*
X0246026Y0068504D02*
D03*
X0247994Y0068504D02*
D03*
X0249963Y0068504D02*
D03*
X0251931Y0068504D02*
D03*
X0253900Y0068504D02*
D03*
X0251931Y0129528D02*
D03*
D175*
X0257283Y0146457D02*
D03*
X0229331Y0146457D02*
D03*
X0285236Y0146457D02*
D03*
X0279724Y0151575D02*
D03*
X0251771Y0141339D02*
D03*
X0251771Y0143898D02*
D03*
X0251771Y0146457D02*
D03*
X0251771Y0149016D02*
D03*
X0251771Y0151575D02*
D03*
X0251771Y0154134D02*
D03*
X0251771Y0156693D02*
D03*
X0229331Y0141339D02*
D03*
X0229331Y0143898D02*
D03*
X0229331Y0149016D02*
D03*
X0229331Y0151575D02*
D03*
X0229331Y0154134D02*
D03*
X0229331Y0156693D02*
D03*
X0307677Y0141339D02*
D03*
X0307677Y0143898D02*
D03*
X0307677Y0146457D02*
D03*
X0307677Y0149016D02*
D03*
X0307677Y0151575D02*
D03*
X0307677Y0154134D02*
D03*
X0307677Y0156693D02*
D03*
X0285236Y0141339D02*
D03*
X0285236Y0143898D02*
D03*
X0285236Y0149016D02*
D03*
X0285236Y0151575D02*
D03*
X0285236Y0154134D02*
D03*
X0285236Y0156693D02*
D03*
X0279724Y0141339D02*
D03*
X0279724Y0143898D02*
D03*
X0279724Y0146457D02*
D03*
X0279724Y0149016D02*
D03*
X0279724Y0154134D02*
D03*
X0279724Y0156693D02*
D03*
X0257283Y0141339D02*
D03*
X0257283Y0143898D02*
D03*
X0257283Y0149016D02*
D03*
X0257283Y0151575D02*
D03*
X0257283Y0154134D02*
D03*
X0257283Y0156693D02*
D03*
X0201378Y0156693D02*
D03*
X0201378Y0154134D02*
D03*
X0201378Y0151575D02*
D03*
X0201378Y0149016D02*
D03*
X0201378Y0146457D02*
D03*
X0201378Y0143898D02*
D03*
X0201378Y0141339D02*
D03*
X0223819Y0156693D02*
D03*
X0223819Y0154134D02*
D03*
X0223819Y0151575D02*
D03*
X0223819Y0149016D02*
D03*
X0223819Y0146457D02*
D03*
X0223819Y0143898D02*
D03*
X0223819Y0141339D02*
D03*
D383*
X0188583Y0054331D02*
D03*
X0184842Y0054331D02*
D03*
X0192323Y0054331D02*
D03*
X0192323Y0063780D02*
D03*
X0188583Y0063780D02*
D03*
X0184842Y0063780D02*
D03*
D384*
X0187133Y0075591D02*
D03*
X0187133Y0070866D02*
D03*
X0188602Y0085138D02*
D03*
X0275142Y0058353D02*
D03*
X0261830Y0134219D02*
D03*
X0191069Y0075591D02*
D03*
X0184664Y0085138D02*
D03*
X0189964Y0122122D02*
D03*
X0186027Y0122122D02*
D03*
X0189964Y0131177D02*
D03*
X0186027Y0131177D02*
D03*
X0191069Y0070866D02*
D03*
X0271205Y0058353D02*
D03*
X0278282Y0075068D02*
D03*
X0274345Y0075068D02*
D03*
X0257893Y0134219D02*
D03*
X0257874Y0129923D02*
D03*
X0261811Y0129923D02*
D03*
D178*
X0184676Y0093773D02*
D03*
X0184676Y0095741D02*
D03*
X0190975Y0091804D02*
D03*
X0190975Y0093773D02*
D03*
X0190975Y0089836D02*
D03*
X0190975Y0095741D02*
D03*
X0184676Y0089836D02*
D03*
X0184676Y0091804D02*
D03*
D179*
X0186841Y0095938D02*
D03*
X0188810Y0095938D02*
D03*
X0188810Y0089639D02*
D03*
X0186841Y0089639D02*
D03*
D385*
X0189581Y0100788D02*
D03*
X0189581Y0117323D02*
D03*
D386*
X0218110Y0173229D02*
D03*
X0208661Y0173229D02*
D03*
X0213386Y0173229D02*
D03*
X0222834Y0173229D02*
D03*
X0208661Y0184646D02*
D03*
X0218110Y0184646D02*
D03*
X0213386Y0184646D02*
D03*
X0222834Y0184646D02*
D03*
X0229044Y0166249D02*
D03*
X0229044Y0162312D02*
D03*
X0222834Y0180709D02*
D03*
D03*
X0222834Y0176772D02*
D03*
X0218110Y0180709D02*
D03*
X0218110Y0176772D02*
D03*
X0222834Y0169292D02*
D03*
X0213386Y0180709D02*
D03*
X0213386Y0176772D02*
D03*
X0218110Y0169292D02*
D03*
X0213386Y0169292D02*
D03*
X0208661Y0180709D02*
D03*
X0208661Y0176772D02*
D03*
X0208661Y0180709D02*
D03*
X0208661Y0169292D02*
D03*
X0218110Y0180709D02*
D03*
X0213386Y0180709D02*
D03*
X0308858Y0178347D02*
D03*
X0308858Y0182284D02*
D03*
X0284252Y0180709D02*
D03*
X0284252Y0184646D02*
D03*
X0270079Y0180709D02*
D03*
X0270079Y0184646D02*
D03*
X0251181Y0176772D02*
D03*
X0251181Y0180709D02*
D03*
X0251181Y0184646D02*
D03*
X0251181Y0180709D02*
D03*
X0237008Y0176772D02*
D03*
X0237008Y0180709D02*
D03*
X0308858Y0161614D02*
D03*
X0308858Y0165551D02*
D03*
X0303149Y0180709D02*
D03*
X0303149Y0176772D02*
D03*
X0298425Y0180709D02*
D03*
X0298425Y0176772D02*
D03*
X0293701Y0180709D02*
D03*
X0293701Y0176772D02*
D03*
X0288976Y0180709D02*
D03*
X0288976Y0176772D02*
D03*
X0303149Y0180709D02*
D03*
X0303149Y0184646D02*
D03*
X0298425Y0180709D02*
D03*
X0298425Y0184646D02*
D03*
X0293701Y0180709D02*
D03*
X0293701Y0184646D02*
D03*
X0288976Y0180709D02*
D03*
X0288976Y0184646D02*
D03*
X0284252Y0180709D02*
D03*
X0284252Y0176772D02*
D03*
X0279527Y0180709D02*
D03*
X0279527Y0176772D02*
D03*
X0274803Y0180709D02*
D03*
X0274803Y0176772D02*
D03*
X0270079Y0180709D02*
D03*
X0270079Y0176772D02*
D03*
X0279527Y0180709D02*
D03*
X0279527Y0184646D02*
D03*
X0274803Y0180709D02*
D03*
X0274803Y0184646D02*
D03*
X0265354Y0176772D02*
D03*
X0265354Y0180709D02*
D03*
X0260630Y0176772D02*
D03*
X0260630Y0180709D02*
D03*
X0255905Y0176772D02*
D03*
X0255905Y0180709D02*
D03*
X0265354Y0184646D02*
D03*
X0265354Y0180709D02*
D03*
X0260630Y0184646D02*
D03*
X0260630Y0180709D02*
D03*
X0255905Y0184646D02*
D03*
X0255905Y0180709D02*
D03*
X0246456Y0176772D02*
D03*
X0246456Y0180709D02*
D03*
X0241732Y0176772D02*
D03*
X0241732Y0180709D02*
D03*
X0232283Y0176772D02*
D03*
X0232283Y0180709D02*
D03*
X0246456Y0184646D02*
D03*
X0246456Y0180709D02*
D03*
X0241732Y0184646D02*
D03*
X0241732Y0180709D02*
D03*
X0237008Y0184646D02*
D03*
X0237008Y0180709D02*
D03*
X0232283Y0184646D02*
D03*
X0232283Y0180709D02*
D03*
X0308858Y0170670D02*
D03*
X0308858Y0174607D02*
D03*
D387*
X0244094Y0167717D02*
D03*
X0262992Y0167717D02*
D03*
X0281890Y0167717D02*
D03*
X0300787Y0167717D02*
D03*
X0272441Y0163977D02*
D03*
X0272441Y0167717D02*
D03*
X0272441Y0171457D02*
D03*
X0281890Y0171457D02*
D03*
X0281890Y0163977D02*
D03*
X0291338Y0163977D02*
D03*
X0291338Y0167717D02*
D03*
X0291338Y0171457D02*
D03*
X0300787Y0171457D02*
D03*
X0300787Y0163977D02*
D03*
X0253543Y0163977D02*
D03*
X0253543Y0167717D02*
D03*
X0253543Y0171457D02*
D03*
X0262992Y0171457D02*
D03*
X0262992Y0163977D02*
D03*
X0234645Y0163977D02*
D03*
X0234645Y0167717D02*
D03*
X0234645Y0171457D02*
D03*
X0244094Y0171457D02*
D03*
X0244094Y0163977D02*
D03*
D388*
X0278079Y0070682D02*
D03*
X0260157Y0060433D02*
D03*
D184*
X0287401Y0095805D02*
D03*
X0306299Y0100805D02*
D03*
X0306299Y0085805D02*
D03*
X0306299Y0090805D02*
D03*
X0306299Y0095805D02*
D03*
X0287401Y0085805D02*
D03*
X0287401Y0090805D02*
D03*
X0287401Y0100805D02*
D03*
D389*
X0305709Y0078164D02*
D03*
X0287598Y0078164D02*
D03*
D390*
X0271247Y0109690D02*
D03*
X0287456Y0110238D02*
D03*
X0270770Y0117850D02*
D03*
X0270770Y0125461D02*
D03*
X0287456Y0117850D02*
D03*
X0287456Y0125461D02*
D03*
X0270770Y0133073D02*
D03*
X0287456Y0133073D02*
D03*
X0277940Y0109690D02*
D03*
X0277463Y0117850D02*
D03*
X0277463Y0125461D02*
D03*
X0277463Y0133073D02*
D03*
X0294149Y0117850D02*
D03*
X0294149Y0110238D02*
D03*
X0277940Y0101713D02*
D03*
X0271247Y0101713D02*
D03*
X0271247Y0094626D02*
D03*
X0277940Y0094626D02*
D03*
X0277940Y0087540D02*
D03*
X0271247Y0087540D02*
D03*
X0271247Y0080453D02*
D03*
X0277940Y0080453D02*
D03*
X0294149Y0125461D02*
D03*
X0294149Y0133073D02*
D03*
X0271247Y0052953D02*
D03*
X0277940Y0052953D02*
D03*
D391*
X0184573Y0080366D02*
D03*
X0190873Y0080366D02*
D03*
X0191933Y0126807D02*
D03*
X0185633Y0126807D02*
D03*
D392*
X0225198Y0057424D02*
D03*
X0241733Y0057424D02*
D03*
D388*
X0260157Y0052953D02*
D03*
X0250905Y0056693D02*
D03*
X0278079Y0063202D02*
D03*
X0268827Y0066942D02*
D03*
D393*
X0296653Y0053754D02*
D03*
D394*
X0296653Y0078164D02*
D03*
D23*
X0227362Y0180709D02*
D03*
X0308268Y0186614D02*
D03*
D395*
X0190171Y0162967D02*
D03*
X0190171Y0145251D02*
D03*
X0120571Y0215256D02*
G01*
G75*
D447*
X0133583Y0203839D02*
D03*
X0124331Y0207579D02*
D03*
D447*
X0133583Y0211319D02*
D03*
D322*
X0145197Y0196280D02*
D03*
X0140197Y0196280D02*
D03*
X0135197Y0196280D02*
D03*
X0130197Y0196280D02*
D03*
X0145197Y0177382D02*
D03*
X0140197Y0177382D02*
D03*
X0135197Y0177382D02*
D03*
X0130197Y0177382D02*
D03*
D448*
X0124902Y0180571D02*
D03*
X0124902Y0174351D02*
D03*
X0124902Y0188917D02*
D03*
X0124902Y0195138D02*
D03*
D449*
X0138484Y0210729D02*
D03*
X0138484Y0204429D02*
D03*
D15*
X0122441Y0200099D02*
D03*
M02*
