G75*
G70*
%OFA0B0*%
%FSLAX25Y25*%
%IPPOS*%
%LPD*%
%AMOC8*
5,1,8,0,0,1.08239X$1,22.5*
%
%AMM123*
21,1,0.029130,0.018900,0.000000,-0.000000,90.000000*
21,1,0.018900,0.029130,0.000000,-0.000000,90.000000*
1,1,0.010240,0.009450,0.009450*
1,1,0.010240,0.009450,-0.009450*
1,1,0.010240,-0.009450,-0.009450*
1,1,0.010240,-0.009450,0.009450*
%
%AMM124*
21,1,0.025200,0.019680,0.000000,-0.000000,180.000000*
21,1,0.015750,0.029130,0.000000,-0.000000,180.000000*
1,1,0.009450,-0.007870,0.009840*
1,1,0.009450,0.007870,0.009840*
1,1,0.009450,0.007870,-0.009840*
1,1,0.009450,-0.007870,-0.009840*
%
%AMM125*
21,1,0.038980,0.026770,0.000000,-0.000000,180.000000*
21,1,0.026770,0.038980,0.000000,-0.000000,180.000000*
1,1,0.012210,-0.013390,0.013390*
1,1,0.012210,0.013390,0.013390*
1,1,0.012210,0.013390,-0.013390*
1,1,0.012210,-0.013390,-0.013390*
%
%AMM126*
21,1,0.025200,0.019680,0.000000,-0.000000,270.000000*
21,1,0.015750,0.029130,0.000000,-0.000000,270.000000*
1,1,0.009450,-0.009840,-0.007870*
1,1,0.009450,-0.009840,0.007870*
1,1,0.009450,0.009840,0.007870*
1,1,0.009450,0.009840,-0.007870*
%
%AMM20*
21,1,0.041340,0.026770,0.000000,0.000000,0.000000*
21,1,0.029130,0.038980,0.000000,0.000000,0.000000*
1,1,0.012210,0.014570,-0.013390*
1,1,0.012210,-0.014570,-0.013390*
1,1,0.012210,-0.014570,0.013390*
1,1,0.012210,0.014570,0.013390*
%
%AMM201*
21,1,0.029530,0.026380,-0.000000,-0.000000,90.000000*
21,1,0.020470,0.035430,-0.000000,-0.000000,90.000000*
1,1,0.009060,0.013190,0.010240*
1,1,0.009060,0.013190,-0.010240*
1,1,0.009060,-0.013190,-0.010240*
1,1,0.009060,-0.013190,0.010240*
%
%AMM202*
21,1,0.021650,0.027950,-0.000000,-0.000000,90.000000*
21,1,0.014170,0.035430,-0.000000,-0.000000,90.000000*
1,1,0.007480,0.013980,0.007090*
1,1,0.007480,0.013980,-0.007090*
1,1,0.007480,-0.013980,-0.007090*
1,1,0.007480,-0.013980,0.007090*
%
%AMM205*
21,1,0.031500,0.018900,-0.000000,-0.000000,270.000000*
21,1,0.022840,0.027560,-0.000000,-0.000000,270.000000*
1,1,0.008660,-0.009450,-0.011420*
1,1,0.008660,-0.009450,0.011420*
1,1,0.008660,0.009450,0.011420*
1,1,0.008660,0.009450,-0.011420*
%
%AMM207*
21,1,0.031500,0.018900,-0.000000,-0.000000,0.000000*
21,1,0.022840,0.027560,-0.000000,-0.000000,0.000000*
1,1,0.008660,0.011420,-0.009450*
1,1,0.008660,-0.011420,-0.009450*
1,1,0.008660,-0.011420,0.009450*
1,1,0.008660,0.011420,0.009450*
%
%AMM209*
21,1,0.039370,0.030320,-0.000000,-0.000000,90.000000*
21,1,0.028350,0.041340,-0.000000,-0.000000,90.000000*
1,1,0.011020,0.015160,0.014170*
1,1,0.011020,0.015160,-0.014170*
1,1,0.011020,-0.015160,-0.014170*
1,1,0.011020,-0.015160,0.014170*
%
%AMM21*
21,1,0.076380,0.036220,0.000000,0.000000,90.000000*
21,1,0.061810,0.050790,0.000000,0.000000,90.000000*
1,1,0.014570,0.018110,0.030910*
1,1,0.014570,0.018110,-0.030910*
1,1,0.014570,-0.018110,-0.030910*
1,1,0.014570,-0.018110,0.030910*
%
%AMM212*
21,1,0.031500,0.030710,-0.000000,-0.000000,180.000000*
21,1,0.022050,0.040160,-0.000000,-0.000000,180.000000*
1,1,0.009450,-0.011020,0.015350*
1,1,0.009450,0.011020,0.015350*
1,1,0.009450,0.011020,-0.015350*
1,1,0.009450,-0.011020,-0.015350*
%
%AMM230*
21,1,0.037400,0.026770,-0.000000,-0.000000,270.000000*
21,1,0.026770,0.037400,-0.000000,-0.000000,270.000000*
1,1,0.010630,-0.013390,-0.013390*
1,1,0.010630,-0.013390,0.013390*
1,1,0.010630,0.013390,0.013390*
1,1,0.010630,0.013390,-0.013390*
%
%AMM231*
21,1,0.029530,0.026380,-0.000000,-0.000000,180.000000*
21,1,0.020470,0.035430,-0.000000,-0.000000,180.000000*
1,1,0.009060,-0.010240,0.013190*
1,1,0.009060,0.010240,0.013190*
1,1,0.009060,0.010240,-0.013190*
1,1,0.009060,-0.010240,-0.013190*
%
%AMM232*
21,1,0.021650,0.027950,-0.000000,-0.000000,180.000000*
21,1,0.014170,0.035430,-0.000000,-0.000000,180.000000*
1,1,0.007480,-0.007090,0.013980*
1,1,0.007480,0.007090,0.013980*
1,1,0.007480,0.007090,-0.013980*
1,1,0.007480,-0.007090,-0.013980*
%
%AMM233*
21,1,0.037400,0.026770,-0.000000,-0.000000,180.000000*
21,1,0.026770,0.037400,-0.000000,-0.000000,180.000000*
1,1,0.010630,-0.013390,0.013390*
1,1,0.010630,0.013390,0.013390*
1,1,0.010630,0.013390,-0.013390*
1,1,0.010630,-0.013390,-0.013390*
%
%AMM234*
21,1,0.082680,0.045670,-0.000000,-0.000000,0.000000*
21,1,0.067320,0.061020,-0.000000,-0.000000,0.000000*
1,1,0.015350,0.033660,-0.022840*
1,1,0.015350,-0.033660,-0.022840*
1,1,0.015350,-0.033660,0.022840*
1,1,0.015350,0.033660,0.022840*
%
%AMM235*
21,1,0.062990,0.020470,-0.000000,-0.000000,0.000000*
21,1,0.053940,0.029530,-0.000000,-0.000000,0.000000*
1,1,0.009060,0.026970,-0.010240*
1,1,0.009060,-0.026970,-0.010240*
1,1,0.009060,-0.026970,0.010240*
1,1,0.009060,0.026970,0.010240*
%
%AMM236*
21,1,0.039370,0.030320,-0.000000,-0.000000,0.000000*
21,1,0.028350,0.041340,-0.000000,-0.000000,0.000000*
1,1,0.011020,0.014170,-0.015160*
1,1,0.011020,-0.014170,-0.015160*
1,1,0.011020,-0.014170,0.015160*
1,1,0.011020,0.014170,0.015160*
%
%AMM237*
21,1,0.016540,0.028980,-0.000000,-0.000000,0.000000*
21,1,0.010080,0.035430,-0.000000,-0.000000,0.000000*
1,1,0.006460,0.005040,-0.014490*
1,1,0.006460,-0.005040,-0.014490*
1,1,0.006460,-0.005040,0.014490*
1,1,0.006460,0.005040,0.014490*
%
%AMM238*
21,1,0.074800,0.036220,-0.000000,-0.000000,180.000000*
21,1,0.061810,0.049210,-0.000000,-0.000000,180.000000*
1,1,0.012990,-0.030910,0.018110*
1,1,0.012990,0.030910,0.018110*
1,1,0.012990,0.030910,-0.018110*
1,1,0.012990,-0.030910,-0.018110*
%
%AMM239*
21,1,0.039760,0.026770,-0.000000,-0.000000,180.000000*
21,1,0.029130,0.037400,-0.000000,-0.000000,180.000000*
1,1,0.010630,-0.014570,0.013390*
1,1,0.010630,0.014570,0.013390*
1,1,0.010630,0.014570,-0.013390*
1,1,0.010630,-0.014570,-0.013390*
%
%AMM24*
21,1,0.029130,0.018900,0.000000,0.000000,90.000000*
21,1,0.018900,0.029130,0.000000,0.000000,90.000000*
1,1,0.010240,0.009450,0.009450*
1,1,0.010240,0.009450,-0.009450*
1,1,0.010240,-0.009450,-0.009450*
1,1,0.010240,-0.009450,0.009450*
%
%AMM240*
21,1,0.031500,0.049610,-0.000000,-0.000000,180.000000*
21,1,0.022050,0.059060,-0.000000,-0.000000,180.000000*
1,1,0.009450,-0.011020,0.024800*
1,1,0.009450,0.011020,0.024800*
1,1,0.009450,0.011020,-0.024800*
1,1,0.009450,-0.011020,-0.024800*
%
%AMM241*
21,1,0.074800,0.036220,-0.000000,-0.000000,270.000000*
21,1,0.061810,0.049210,-0.000000,-0.000000,270.000000*
1,1,0.012990,-0.018110,-0.030910*
1,1,0.012990,-0.018110,0.030910*
1,1,0.012990,0.018110,0.030910*
1,1,0.012990,0.018110,-0.030910*
%
%AMM242*
21,1,0.031500,0.030710,-0.000000,-0.000000,270.000000*
21,1,0.022050,0.040160,-0.000000,-0.000000,270.000000*
1,1,0.009450,-0.015350,-0.011020*
1,1,0.009450,-0.015350,0.011020*
1,1,0.009450,0.015350,0.011020*
1,1,0.009450,0.015350,-0.011020*
%
%AMM25*
21,1,0.025200,0.019680,0.000000,0.000000,0.000000*
21,1,0.015750,0.029130,0.000000,0.000000,0.000000*
1,1,0.009450,0.007870,-0.009840*
1,1,0.009450,-0.007870,-0.009840*
1,1,0.009450,-0.007870,0.009840*
1,1,0.009450,0.007870,0.009840*
%
%AMM26*
21,1,0.025200,0.019680,0.000000,0.000000,270.000000*
21,1,0.015750,0.029130,0.000000,0.000000,270.000000*
1,1,0.009450,-0.009840,-0.007870*
1,1,0.009450,-0.009840,0.007870*
1,1,0.009450,0.009840,0.007870*
1,1,0.009450,0.009840,-0.007870*
%
%AMM32*
21,1,0.029130,0.018900,0.000000,0.000000,0.000000*
21,1,0.018900,0.029130,0.000000,0.000000,0.000000*
1,1,0.010240,0.009450,-0.009450*
1,1,0.010240,-0.009450,-0.009450*
1,1,0.010240,-0.009450,0.009450*
1,1,0.010240,0.009450,0.009450*
%
%AMM33*
21,1,0.111810,0.050390,0.000000,0.000000,90.000000*
21,1,0.093700,0.068500,0.000000,0.000000,90.000000*
1,1,0.018110,0.025200,0.046850*
1,1,0.018110,0.025200,-0.046850*
1,1,0.018110,-0.025200,-0.046850*
1,1,0.018110,-0.025200,0.046850*
%
%AMM34*
21,1,0.038980,0.026770,0.000000,0.000000,270.000000*
21,1,0.026770,0.038980,0.000000,0.000000,270.000000*
1,1,0.012210,-0.013390,-0.013390*
1,1,0.012210,-0.013390,0.013390*
1,1,0.012210,0.013390,0.013390*
1,1,0.012210,0.013390,-0.013390*
%
%AMM35*
21,1,0.127560,0.075590,0.000000,0.000000,180.000000*
21,1,0.103150,0.100000,0.000000,0.000000,180.000000*
1,1,0.024410,-0.051580,0.037800*
1,1,0.024410,0.051580,0.037800*
1,1,0.024410,0.051580,-0.037800*
1,1,0.024410,-0.051580,-0.037800*
%
%AMM36*
21,1,0.123620,0.083460,0.000000,0.000000,0.000000*
21,1,0.097240,0.109840,0.000000,0.000000,0.000000*
1,1,0.026380,0.048620,-0.041730*
1,1,0.026380,-0.048620,-0.041730*
1,1,0.026380,-0.048620,0.041730*
1,1,0.026380,0.048620,0.041730*
%
%ADD11R,0.06693X0.06693*%
%ADD12O,0.06693X0.06693*%
%ADD121M20*%
%ADD122M21*%
%ADD125M24*%
%ADD126M25*%
%ADD127M26*%
%ADD128C,0.02913*%
%ADD129C,0.06457*%
%ADD13O,0.10630X0.14567*%
%ADD137M32*%
%ADD138M33*%
%ADD139M34*%
%ADD14C,0.06693*%
%ADD140O,0.02520X0.09213*%
%ADD141M35*%
%ADD142M36*%
%ADD15C,0.02362*%
%ADD166C,0.03900*%
%ADD218C,0.04724*%
%ADD219C,0.04294*%
%ADD23C,0.03150*%
%ADD24C,0.25197*%
%ADD245R,0.01772X0.01870*%
%ADD247O,0.05354X0.01378*%
%ADD25O,0.07283X0.06693*%
%ADD250R,0.09843X0.07087*%
%ADD251R,0.01870X0.01772*%
%ADD253R,0.04331X0.04724*%
%ADD295M123*%
%ADD296M124*%
%ADD297M125*%
%ADD298M126*%
%ADD300R,0.01772X0.05709*%
%ADD301R,0.02559X0.04803*%
%ADD31R,0.04331X0.04331*%
%ADD32C,0.04331*%
%ADD33O,0.09449X0.04331*%
%ADD36C,0.05906*%
%ADD396M201*%
%ADD397M202*%
%ADD400M205*%
%ADD402M207*%
%ADD404M209*%
%ADD407M212*%
%ADD425M230*%
%ADD426M231*%
%ADD427M232*%
%ADD428M233*%
%ADD429M234*%
%ADD430M235*%
%ADD431M236*%
%ADD432M237*%
%ADD433M238*%
%ADD434M239*%
%ADD435M240*%
%ADD436M241*%
%ADD437M242*%
%ADD52O,0.14567X0.10630*%
%ADD69O,0.03937X0.08268*%
%ADD70O,0.03937X0.06299*%
%ADD71C,0.13000*%
%ADD73C,0.06000*%
%ADD79C,0.00472*%
%ADD80C,0.11811*%
%ADD81C,0.02559*%
%ADD94R,0.09055X0.17323*%
%ADD95R,0.09055X0.15748*%
X0000000Y0000000D02*
%LPD*%
G01*
D79*
X0388386Y0034744D02*
X0337205Y0034744D01*
X0337205Y0062303D01*
X0388386Y0062303D01*
X0388386Y0034744D01*
G36*
X0388386Y0034744D02*
G01*
X0337205Y0034744D01*
X0337205Y0062303D01*
X0388386Y0062303D01*
X0388386Y0034744D01*
G37*
D11*
X0052421Y0207677D03*
D12*
X0042421Y0207677D03*
X0052421Y0197677D03*
X0042421Y0197677D03*
D80*
X0237402Y0385925D03*
X0353150Y0385925D03*
G36*
G01*
X0232087Y0350886D02*
X0232087Y0363484D01*
G75*
G02*
X0233071Y0364469I0000984J0000000D01*
G01*
X0241732Y0364469D01*
G75*
G02*
X0242717Y0363484I0000000J-000984D01*
G01*
X0242717Y0350886D01*
G75*
G02*
X0241732Y0349902I-000984J0000000D01*
G01*
X0233071Y0349902D01*
G75*
G02*
X0232087Y0350886I0000000J0000984D01*
G01*
G37*
D13*
X0253937Y0357185D03*
X0270472Y0357185D03*
X0287008Y0357185D03*
X0303543Y0357185D03*
X0320079Y0357185D03*
X0336614Y0357185D03*
X0353150Y0357185D03*
X0237402Y0335531D03*
X0253937Y0335531D03*
X0270472Y0335531D03*
X0287008Y0335531D03*
X0303543Y0335531D03*
X0320079Y0335531D03*
X0336614Y0335531D03*
X0353150Y0335531D03*
D14*
X0327559Y0075984D03*
D11*
X0052421Y0240748D03*
D12*
X0042421Y0240748D03*
X0052421Y0230748D03*
X0042421Y0230748D03*
D14*
X0163780Y0181102D03*
D80*
X0041732Y0385925D03*
X0190551Y0385925D03*
G36*
G01*
X0036417Y0350886D02*
X0036417Y0363484D01*
G75*
G02*
X0037402Y0364469I0000984J0000000D01*
G01*
X0046063Y0364469D01*
G75*
G02*
X0047047Y0363484I0000000J-000984D01*
G01*
X0047047Y0350886D01*
G75*
G02*
X0046063Y0349902I-000984J0000000D01*
G01*
X0037402Y0349902D01*
G75*
G02*
X0036417Y0350886I0000000J0000984D01*
G01*
G37*
D13*
X0058268Y0357185D03*
X0074803Y0357185D03*
X0091339Y0357185D03*
X0107874Y0357185D03*
X0124409Y0357185D03*
X0140945Y0357185D03*
X0157480Y0357185D03*
X0174016Y0357185D03*
X0190551Y0357185D03*
X0041732Y0335531D03*
X0058268Y0335531D03*
X0074803Y0335531D03*
X0091339Y0335531D03*
X0107874Y0335531D03*
X0124409Y0335531D03*
X0140945Y0335531D03*
X0157480Y0335531D03*
X0174016Y0335531D03*
X0190551Y0335531D03*
D11*
X0154291Y0351280D03*
D12*
X0144291Y0351280D03*
X0154291Y0341280D03*
X0144291Y0341280D03*
D14*
X0125984Y0226378D03*
X0137402Y0226378D03*
X0021811Y0045276D03*
D23*
X0004331Y0379921D03*
X0007098Y0386603D03*
X0007098Y0373240D03*
X0013780Y0389370D03*
D24*
X0013780Y0379921D03*
D23*
X0013780Y0370472D03*
X0020461Y0386603D03*
X0020461Y0373240D03*
X0023228Y0379921D03*
X0370472Y0379921D03*
X0373240Y0386603D03*
X0373240Y0373240D03*
X0379921Y0389370D03*
D24*
X0379921Y0379921D03*
D23*
X0379921Y0370472D03*
X0386603Y0386603D03*
X0386603Y0373240D03*
X0389370Y0379921D03*
G36*
G01*
X0329429Y0008465D02*
X0324114Y0008465D01*
G75*
G02*
X0323130Y0009449I0000000J0000984D01*
G01*
X0323130Y0014173D01*
G75*
G02*
X0324114Y0015157I0000984J0000000D01*
G01*
X0329429Y0015157D01*
G75*
G02*
X0330413Y0014173I0000000J-000984D01*
G01*
X0330413Y0009449D01*
G75*
G02*
X0329429Y0008465I-000984J0000000D01*
G01*
G37*
D25*
X0326772Y0021654D03*
X0326772Y0031496D03*
X0326772Y0041339D03*
X0326772Y0051181D03*
D14*
X0246063Y0029528D03*
D23*
X0004331Y0013780D03*
X0007098Y0020461D03*
X0007098Y0007098D03*
X0013780Y0023228D03*
D24*
X0013780Y0013780D03*
D23*
X0013780Y0004331D03*
X0020461Y0020461D03*
X0020461Y0007098D03*
X0023228Y0013780D03*
D15*
X0193602Y0246752D03*
X0188878Y0246752D03*
X0198327Y0246752D03*
X0203051Y0246752D03*
X0177618Y0303543D03*
X0173681Y0303543D03*
D14*
X0011811Y0045276D03*
D31*
X0233268Y0012205D03*
D32*
X0226378Y0015354D03*
X0233268Y0018504D03*
X0226378Y0021654D03*
X0233268Y0024803D03*
D33*
X0229823Y0004134D03*
X0229823Y0032874D03*
D15*
X0313287Y0287894D03*
X0309547Y0287894D03*
X0305807Y0287894D03*
X0309744Y0322146D03*
X0313287Y0322146D03*
D14*
X0090551Y0043307D03*
D36*
X0160925Y0081988D03*
X0160925Y0056791D03*
X0160925Y0049311D03*
X0160925Y0032382D03*
D15*
X0162697Y0022933D03*
X0162697Y0018996D03*
D36*
X0160925Y0007776D03*
X0099902Y0083760D03*
X0099902Y0076476D03*
X0099902Y0056988D03*
X0099902Y0009547D03*
D14*
X0153780Y0181102D03*
D15*
X0125984Y0184941D03*
X0128051Y0188386D03*
X0131004Y0183760D03*
X0144980Y0184055D03*
D11*
X0316890Y0351280D03*
D12*
X0306890Y0351280D03*
X0316890Y0341280D03*
X0306890Y0341280D03*
D80*
X0007776Y0177953D03*
X0007776Y0310236D03*
G36*
G01*
X0042815Y0172638D02*
X0030217Y0172638D01*
G75*
G02*
X0029232Y0173622I0000000J0000984D01*
G01*
X0029232Y0182283D01*
G75*
G02*
X0030217Y0183268I0000984J0000000D01*
G01*
X0042815Y0183268D01*
G75*
G02*
X0043799Y0182283I0000000J-000984D01*
G01*
X0043799Y0173622D01*
G75*
G02*
X0042815Y0172638I-000984J0000000D01*
G01*
G37*
D52*
X0036516Y0194488D03*
X0036516Y0211024D03*
X0036516Y0227559D03*
X0036516Y0244094D03*
X0036516Y0260630D03*
X0036516Y0277165D03*
X0036516Y0293701D03*
X0036516Y0310236D03*
X0058169Y0177953D03*
X0058169Y0194488D03*
X0058169Y0211024D03*
X0058169Y0227559D03*
X0058169Y0244094D03*
X0058169Y0260630D03*
X0058169Y0277165D03*
X0058169Y0293701D03*
X0058169Y0310236D03*
D11*
X0349961Y0351280D03*
D12*
X0339961Y0351280D03*
X0349961Y0341280D03*
X0339961Y0341280D03*
D80*
X0385925Y0311811D03*
X0385925Y0278740D03*
G36*
G01*
X0350886Y0317126D02*
X0363484Y0317126D01*
G75*
G02*
X0364469Y0316142I0000000J-000984D01*
G01*
X0364469Y0307480D01*
G75*
G02*
X0363484Y0306496I-000984J0000000D01*
G01*
X0350886Y0306496D01*
G75*
G02*
X0349902Y0307480I0000000J0000984D01*
G01*
X0349902Y0316142D01*
G75*
G02*
X0350886Y0317126I0000984J0000000D01*
G01*
G37*
D52*
X0357185Y0295276D03*
X0357185Y0278740D03*
X0335531Y0311811D03*
X0335531Y0295276D03*
X0335531Y0278740D03*
D11*
X0121220Y0351280D03*
D12*
X0111220Y0351280D03*
X0121220Y0341280D03*
X0111220Y0341280D03*
D14*
X0155512Y0196693D03*
X0155512Y0206693D03*
X0155512Y0216693D03*
X0155512Y0226693D03*
X0155512Y0236693D03*
X0165512Y0196693D03*
X0165512Y0206693D03*
X0165512Y0216693D03*
X0165512Y0226693D03*
X0165512Y0236693D03*
X0175512Y0196693D03*
X0175512Y0206693D03*
X0175512Y0216693D03*
X0175512Y0226693D03*
X0175512Y0236693D03*
X0246063Y0009843D03*
D11*
X0351437Y0308465D03*
D12*
X0341437Y0308465D03*
X0351437Y0298465D03*
X0341437Y0298465D03*
D80*
X0007776Y0101575D03*
X0007776Y0151181D03*
G36*
G01*
X0042815Y0096260D02*
X0030217Y0096260D01*
G75*
G02*
X0029232Y0097244I0000000J0000984D01*
G01*
X0029232Y0105906D01*
G75*
G02*
X0030217Y0106890I0000984J0000000D01*
G01*
X0042815Y0106890D01*
G75*
G02*
X0043799Y0105906I0000000J-000984D01*
G01*
X0043799Y0097244D01*
G75*
G02*
X0042815Y0096260I-000984J0000000D01*
G01*
G37*
D52*
X0036516Y0118110D03*
X0036516Y0134646D03*
X0036516Y0151181D03*
X0058169Y0101575D03*
X0058169Y0118110D03*
X0058169Y0134646D03*
X0058169Y0151181D03*
D14*
X0327559Y0094488D03*
D11*
X0250748Y0351280D03*
D12*
X0240748Y0351280D03*
X0250748Y0341280D03*
X0240748Y0341280D03*
D81*
X0185472Y0026004D03*
X0208228Y0026004D03*
D69*
X0179843Y0027972D03*
D70*
X0179843Y0011516D03*
D69*
X0213858Y0027972D03*
D70*
X0213858Y0011516D03*
D23*
X0370472Y0013780D03*
X0373240Y0020461D03*
X0373240Y0007098D03*
X0379921Y0023228D03*
D24*
X0379921Y0013780D03*
D23*
X0379921Y0004331D03*
X0386603Y0020461D03*
X0386603Y0007098D03*
X0389370Y0013780D03*
D15*
X0150098Y0246752D03*
X0145374Y0246752D03*
X0154823Y0246752D03*
X0159547Y0246752D03*
X0134114Y0303543D03*
X0130177Y0303543D03*
D11*
X0055079Y0351280D03*
D12*
X0045079Y0351280D03*
X0055079Y0341280D03*
X0045079Y0341280D03*
D11*
X0052421Y0306890D03*
D12*
X0042421Y0306890D03*
X0052421Y0296890D03*
X0042421Y0296890D03*
D11*
X0088150Y0351280D03*
D12*
X0078150Y0351280D03*
X0088150Y0341280D03*
X0078150Y0341280D03*
D11*
X0386516Y0154232D03*
D12*
X0376516Y0154232D03*
X0366516Y0154232D03*
X0356516Y0154232D03*
X0346516Y0154232D03*
X0336516Y0154232D03*
D11*
X0052421Y0273819D03*
D12*
X0042421Y0273819D03*
X0052421Y0263819D03*
X0042421Y0263819D03*
D11*
X0052421Y0147835D03*
D12*
X0042421Y0147835D03*
X0052421Y0137835D03*
X0042421Y0137835D03*
D11*
X0283819Y0351280D03*
D12*
X0273819Y0351280D03*
X0283819Y0341280D03*
X0273819Y0341280D03*
D71*
X0284265Y0296969D03*
X0284265Y0206969D03*
D73*
X0234265Y0276969D03*
X0234265Y0266969D03*
X0234265Y0256969D03*
X0234265Y0246969D03*
X0234265Y0236969D03*
X0234265Y0226969D03*
D14*
X0031811Y0045276D03*
X0185512Y0196693D03*
X0185512Y0206693D03*
X0185512Y0216693D03*
X0185512Y0226693D03*
X0185512Y0236693D03*
X0195512Y0196693D03*
X0195512Y0206693D03*
X0195512Y0216693D03*
X0195512Y0226693D03*
X0195512Y0236693D03*
X0205512Y0196693D03*
X0205512Y0206693D03*
X0205512Y0216693D03*
X0205512Y0226693D03*
X0205512Y0236693D03*
G36*
G01*
X0120827Y0284055D02*
X0117756Y0284055D01*
G75*
G02*
X0117480Y0284331I0000000J0000276D01*
G01*
X0117480Y0286535D01*
G75*
G02*
X0117756Y0286811I0000276J0000000D01*
G01*
X0120827Y0286811D01*
G75*
G02*
X0121102Y0286535I0000000J-000276D01*
G01*
X0121102Y0284331D01*
G75*
G02*
X0120827Y0284055I-000276J0000000D01*
G01*
G37*
G36*
G01*
X0120827Y0290354D02*
X0117756Y0290354D01*
G75*
G02*
X0117480Y0290630I0000000J0000276D01*
G01*
X0117480Y0292835D01*
G75*
G02*
X0117756Y0293110I0000276J0000000D01*
G01*
X0120827Y0293110D01*
G75*
G02*
X0121102Y0292835I0000000J-000276D01*
G01*
X0121102Y0290630D01*
G75*
G02*
X0120827Y0290354I-000276J0000000D01*
G01*
G37*
G36*
G01*
X0214173Y0319910D02*
X0215354Y0319910D01*
G75*
G02*
X0215945Y0319319I0000000J-000591D01*
G01*
X0215945Y0314693D01*
G75*
G02*
X0215354Y0314102I-000591J0000000D01*
G01*
X0214173Y0314102D01*
G75*
G02*
X0213583Y0314693I0000000J0000591D01*
G01*
X0213583Y0319319D01*
G75*
G02*
X0214173Y0319910I0000591J0000000D01*
G01*
G37*
G36*
G01*
X0221654Y0319910D02*
X0222835Y0319910D01*
G75*
G02*
X0223425Y0319319I0000000J-000591D01*
G01*
X0223425Y0314693D01*
G75*
G02*
X0222835Y0314102I-000591J0000000D01*
G01*
X0221654Y0314102D01*
G75*
G02*
X0221063Y0314693I0000000J0000591D01*
G01*
X0221063Y0319319D01*
G75*
G02*
X0221654Y0319910I0000591J0000000D01*
G01*
G37*
G36*
G01*
X0217913Y0312528D02*
X0219094Y0312528D01*
G75*
G02*
X0219685Y0311937I0000000J-000591D01*
G01*
X0219685Y0307311D01*
G75*
G02*
X0219094Y0306721I-000591J0000000D01*
G01*
X0217913Y0306721D01*
G75*
G02*
X0217323Y0307311I0000000J0000591D01*
G01*
X0217323Y0311937D01*
G75*
G02*
X0217913Y0312528I0000591J0000000D01*
G01*
G37*
G36*
G01*
X0049803Y0052992D02*
X0045669Y0052992D01*
G75*
G02*
X0045276Y0053386I0000000J0000394D01*
G01*
X0045276Y0056535D01*
G75*
G02*
X0045669Y0056929I0000394J0000000D01*
G01*
X0049803Y0056929D01*
G75*
G02*
X0050197Y0056535I0000000J-000394D01*
G01*
X0050197Y0053386D01*
G75*
G02*
X0049803Y0052992I-000394J0000000D01*
G01*
G37*
G36*
G01*
X0049803Y0060866D02*
X0045669Y0060866D01*
G75*
G02*
X0045276Y0061260I0000000J0000394D01*
G01*
X0045276Y0064409D01*
G75*
G02*
X0045669Y0064803I0000394J0000000D01*
G01*
X0049803Y0064803D01*
G75*
G02*
X0050197Y0064409I0000000J-000394D01*
G01*
X0050197Y0061260D01*
G75*
G02*
X0049803Y0060866I-000394J0000000D01*
G01*
G37*
G36*
G01*
X0241969Y0261083D02*
X0244646Y0261083D01*
G75*
G02*
X0244980Y0260748I0000000J-000335D01*
G01*
X0244980Y0258071D01*
G75*
G02*
X0244646Y0257736I-000335J0000000D01*
G01*
X0241969Y0257736D01*
G75*
G02*
X0241634Y0258071I0000000J0000335D01*
G01*
X0241634Y0260748D01*
G75*
G02*
X0241969Y0261083I0000335J0000000D01*
G01*
G37*
G36*
G01*
X0241969Y0254862D02*
X0244646Y0254862D01*
G75*
G02*
X0244980Y0254528I0000000J-000335D01*
G01*
X0244980Y0251850D01*
G75*
G02*
X0244646Y0251516I-000335J0000000D01*
G01*
X0241969Y0251516D01*
G75*
G02*
X0241634Y0251850I0000000J0000335D01*
G01*
X0241634Y0254528D01*
G75*
G02*
X0241969Y0254862I0000335J0000000D01*
G01*
G37*
G36*
G01*
X0024764Y0160039D02*
X0021693Y0160039D01*
G75*
G02*
X0021417Y0160315I0000000J0000276D01*
G01*
X0021417Y0162520D01*
G75*
G02*
X0021693Y0162795I0000276J0000000D01*
G01*
X0024764Y0162795D01*
G75*
G02*
X0025039Y0162520I0000000J-000276D01*
G01*
X0025039Y0160315D01*
G75*
G02*
X0024764Y0160039I-000276J0000000D01*
G01*
G37*
G36*
G01*
X0024764Y0166339D02*
X0021693Y0166339D01*
G75*
G02*
X0021417Y0166614I0000000J0000276D01*
G01*
X0021417Y0168819D01*
G75*
G02*
X0021693Y0169094I0000276J0000000D01*
G01*
X0024764Y0169094D01*
G75*
G02*
X0025039Y0168819I0000000J-000276D01*
G01*
X0025039Y0166614D01*
G75*
G02*
X0024764Y0166339I-000276J0000000D01*
G01*
G37*
G36*
G01*
X0076811Y0298819D02*
X0072795Y0298819D01*
G75*
G02*
X0072441Y0299173I0000000J0000354D01*
G01*
X0072441Y0302008D01*
G75*
G02*
X0072795Y0302362I0000354J0000000D01*
G01*
X0076811Y0302362D01*
G75*
G02*
X0077165Y0302008I0000000J-000354D01*
G01*
X0077165Y0299173D01*
G75*
G02*
X0076811Y0298819I-000354J0000000D01*
G01*
G37*
G36*
G01*
X0076811Y0311811D02*
X0072795Y0311811D01*
G75*
G02*
X0072441Y0312165I0000000J0000354D01*
G01*
X0072441Y0315000D01*
G75*
G02*
X0072795Y0315354I0000354J0000000D01*
G01*
X0076811Y0315354D01*
G75*
G02*
X0077165Y0315000I0000000J-000354D01*
G01*
X0077165Y0312165D01*
G75*
G02*
X0076811Y0311811I-000354J0000000D01*
G01*
G37*
D36*
X0362402Y0091536D03*
X0362402Y0121063D03*
D94*
X0362402Y0075394D03*
D95*
X0362402Y0138386D03*
G36*
G01*
X0004311Y0247638D02*
X0005492Y0247638D01*
G75*
G02*
X0006083Y0247047I0000000J-000591D01*
G01*
X0006083Y0240551D01*
G75*
G02*
X0005492Y0239961I-000591J0000000D01*
G01*
X0004311Y0239961D01*
G75*
G02*
X0003720Y0240551I0000000J0000591D01*
G01*
X0003720Y0247047D01*
G75*
G02*
X0004311Y0247638I0000591J0000000D01*
G01*
G37*
G36*
G01*
X0009311Y0247638D02*
X0010492Y0247638D01*
G75*
G02*
X0011083Y0247047I0000000J-000591D01*
G01*
X0011083Y0240551D01*
G75*
G02*
X0010492Y0239961I-000591J0000000D01*
G01*
X0009311Y0239961D01*
G75*
G02*
X0008720Y0240551I0000000J0000591D01*
G01*
X0008720Y0247047D01*
G75*
G02*
X0009311Y0247638I0000591J0000000D01*
G01*
G37*
G36*
G01*
X0014311Y0247638D02*
X0015492Y0247638D01*
G75*
G02*
X0016083Y0247047I0000000J-000591D01*
G01*
X0016083Y0240551D01*
G75*
G02*
X0015492Y0239961I-000591J0000000D01*
G01*
X0014311Y0239961D01*
G75*
G02*
X0013720Y0240551I0000000J0000591D01*
G01*
X0013720Y0247047D01*
G75*
G02*
X0014311Y0247638I0000591J0000000D01*
G01*
G37*
G36*
G01*
X0019311Y0247638D02*
X0020492Y0247638D01*
G75*
G02*
X0021083Y0247047I0000000J-000591D01*
G01*
X0021083Y0240551D01*
G75*
G02*
X0020492Y0239961I-000591J0000000D01*
G01*
X0019311Y0239961D01*
G75*
G02*
X0018720Y0240551I0000000J0000591D01*
G01*
X0018720Y0247047D01*
G75*
G02*
X0019311Y0247638I0000591J0000000D01*
G01*
G37*
G36*
G01*
X0019311Y0228150D02*
X0020492Y0228150D01*
G75*
G02*
X0021083Y0227559I0000000J-000591D01*
G01*
X0021083Y0221063D01*
G75*
G02*
X0020492Y0220472I-000591J0000000D01*
G01*
X0019311Y0220472D01*
G75*
G02*
X0018720Y0221063I0000000J0000591D01*
G01*
X0018720Y0227559D01*
G75*
G02*
X0019311Y0228150I0000591J0000000D01*
G01*
G37*
G36*
G01*
X0014311Y0228150D02*
X0015492Y0228150D01*
G75*
G02*
X0016083Y0227559I0000000J-000591D01*
G01*
X0016083Y0221063D01*
G75*
G02*
X0015492Y0220472I-000591J0000000D01*
G01*
X0014311Y0220472D01*
G75*
G02*
X0013720Y0221063I0000000J0000591D01*
G01*
X0013720Y0227559D01*
G75*
G02*
X0014311Y0228150I0000591J0000000D01*
G01*
G37*
G36*
G01*
X0009311Y0228150D02*
X0010492Y0228150D01*
G75*
G02*
X0011083Y0227559I0000000J-000591D01*
G01*
X0011083Y0221063D01*
G75*
G02*
X0010492Y0220472I-000591J0000000D01*
G01*
X0009311Y0220472D01*
G75*
G02*
X0008720Y0221063I0000000J0000591D01*
G01*
X0008720Y0227559D01*
G75*
G02*
X0009311Y0228150I0000591J0000000D01*
G01*
G37*
G36*
G01*
X0004311Y0228150D02*
X0005492Y0228150D01*
G75*
G02*
X0006083Y0227559I0000000J-000591D01*
G01*
X0006083Y0221063D01*
G75*
G02*
X0005492Y0220472I-000591J0000000D01*
G01*
X0004311Y0220472D01*
G75*
G02*
X0003720Y0221063I0000000J0000591D01*
G01*
X0003720Y0227559D01*
G75*
G02*
X0004311Y0228150I0000591J0000000D01*
G01*
G37*
G36*
G01*
X0002402Y0169094D02*
X0005472Y0169094D01*
G75*
G02*
X0005748Y0168819I0000000J-000276D01*
G01*
X0005748Y0166614D01*
G75*
G02*
X0005472Y0166339I-000276J0000000D01*
G01*
X0002402Y0166339D01*
G75*
G02*
X0002126Y0166614I0000000J0000276D01*
G01*
X0002126Y0168819D01*
G75*
G02*
X0002402Y0169094I0000276J0000000D01*
G01*
G37*
G36*
G01*
X0002402Y0162795D02*
X0005472Y0162795D01*
G75*
G02*
X0005748Y0162520I0000000J-000276D01*
G01*
X0005748Y0160315D01*
G75*
G02*
X0005472Y0160039I-000276J0000000D01*
G01*
X0002402Y0160039D01*
G75*
G02*
X0002126Y0160315I0000000J0000276D01*
G01*
X0002126Y0162520D01*
G75*
G02*
X0002402Y0162795I0000276J0000000D01*
G01*
G37*
G36*
G01*
X0229941Y0326535D02*
X0229941Y0323858D01*
G75*
G02*
X0229606Y0323524I-000335J0000000D01*
G01*
X0226929Y0323524D01*
G75*
G02*
X0226594Y0323858I0000000J0000335D01*
G01*
X0226594Y0326535D01*
G75*
G02*
X0226929Y0326870I0000335J0000000D01*
G01*
X0229606Y0326870D01*
G75*
G02*
X0229941Y0326535I0000000J-000335D01*
G01*
G37*
G36*
G01*
X0223720Y0326535D02*
X0223720Y0323858D01*
G75*
G02*
X0223386Y0323524I-000335J0000000D01*
G01*
X0220709Y0323524D01*
G75*
G02*
X0220374Y0323858I0000000J0000335D01*
G01*
X0220374Y0326535D01*
G75*
G02*
X0220709Y0326870I0000335J0000000D01*
G01*
X0223386Y0326870D01*
G75*
G02*
X0223720Y0326535I0000000J-000335D01*
G01*
G37*
G36*
G01*
X0026181Y0052992D02*
X0022047Y0052992D01*
G75*
G02*
X0021654Y0053386I0000000J0000394D01*
G01*
X0021654Y0056535D01*
G75*
G02*
X0022047Y0056929I0000394J0000000D01*
G01*
X0026181Y0056929D01*
G75*
G02*
X0026575Y0056535I0000000J-000394D01*
G01*
X0026575Y0053386D01*
G75*
G02*
X0026181Y0052992I-000394J0000000D01*
G01*
G37*
G36*
G01*
X0026181Y0060866D02*
X0022047Y0060866D01*
G75*
G02*
X0021654Y0061260I0000000J0000394D01*
G01*
X0021654Y0064409D01*
G75*
G02*
X0022047Y0064803I0000394J0000000D01*
G01*
X0026181Y0064803D01*
G75*
G02*
X0026575Y0064409I0000000J-000394D01*
G01*
X0026575Y0061260D01*
G75*
G02*
X0026181Y0060866I-000394J0000000D01*
G01*
G37*
G36*
G01*
X0011575Y0160039D02*
X0008504Y0160039D01*
G75*
G02*
X0008228Y0160315I0000000J0000276D01*
G01*
X0008228Y0162520D01*
G75*
G02*
X0008504Y0162795I0000276J0000000D01*
G01*
X0011575Y0162795D01*
G75*
G02*
X0011850Y0162520I0000000J-000276D01*
G01*
X0011850Y0160315D01*
G75*
G02*
X0011575Y0160039I-000276J0000000D01*
G01*
G37*
G36*
G01*
X0011575Y0166339D02*
X0008504Y0166339D01*
G75*
G02*
X0008228Y0166614I0000000J0000276D01*
G01*
X0008228Y0168819D01*
G75*
G02*
X0008504Y0169094I0000276J0000000D01*
G01*
X0011575Y0169094D01*
G75*
G02*
X0011850Y0168819I0000000J-000276D01*
G01*
X0011850Y0166614D01*
G75*
G02*
X0011575Y0166339I-000276J0000000D01*
G01*
G37*
G36*
G01*
X0120669Y0314528D02*
X0120669Y0311457D01*
G75*
G02*
X0120394Y0311181I-000276J0000000D01*
G01*
X0118189Y0311181D01*
G75*
G02*
X0117913Y0311457I0000000J0000276D01*
G01*
X0117913Y0314528D01*
G75*
G02*
X0118189Y0314803I0000276J0000000D01*
G01*
X0120394Y0314803D01*
G75*
G02*
X0120669Y0314528I0000000J-000276D01*
G01*
G37*
G36*
G01*
X0114370Y0314528D02*
X0114370Y0311457D01*
G75*
G02*
X0114094Y0311181I-000276J0000000D01*
G01*
X0111890Y0311181D01*
G75*
G02*
X0111614Y0311457I0000000J0000276D01*
G01*
X0111614Y0314528D01*
G75*
G02*
X0111890Y0314803I0000276J0000000D01*
G01*
X0114094Y0314803D01*
G75*
G02*
X0114370Y0314528I0000000J-000276D01*
G01*
G37*
G36*
G01*
X0380551Y0142579D02*
X0383228Y0142579D01*
G75*
G02*
X0383563Y0142244I0000000J-000335D01*
G01*
X0383563Y0139567D01*
G75*
G02*
X0383228Y0139232I-000335J0000000D01*
G01*
X0380551Y0139232D01*
G75*
G02*
X0380217Y0139567I0000000J0000335D01*
G01*
X0380217Y0142244D01*
G75*
G02*
X0380551Y0142579I0000335J0000000D01*
G01*
G37*
G36*
G01*
X0380551Y0136358D02*
X0383228Y0136358D01*
G75*
G02*
X0383563Y0136024I0000000J-000335D01*
G01*
X0383563Y0133346D01*
G75*
G02*
X0383228Y0133012I-000335J0000000D01*
G01*
X0380551Y0133012D01*
G75*
G02*
X0380217Y0133346I0000000J0000335D01*
G01*
X0380217Y0136024D01*
G75*
G02*
X0380551Y0136358I0000335J0000000D01*
G01*
G37*
G36*
G01*
X0213720Y0302134D02*
X0213720Y0304811D01*
G75*
G02*
X0214055Y0305146I0000335J0000000D01*
G01*
X0216732Y0305146D01*
G75*
G02*
X0217067Y0304811I0000000J-000335D01*
G01*
X0217067Y0302134D01*
G75*
G02*
X0216732Y0301799I-000335J0000000D01*
G01*
X0214055Y0301799D01*
G75*
G02*
X0213720Y0302134I0000000J0000335D01*
G01*
G37*
G36*
G01*
X0219941Y0302134D02*
X0219941Y0304811D01*
G75*
G02*
X0220276Y0305146I0000335J0000000D01*
G01*
X0222953Y0305146D01*
G75*
G02*
X0223287Y0304811I0000000J-000335D01*
G01*
X0223287Y0302134D01*
G75*
G02*
X0222953Y0301799I-000335J0000000D01*
G01*
X0220276Y0301799D01*
G75*
G02*
X0219941Y0302134I0000000J0000335D01*
G01*
G37*
G36*
G01*
X0027992Y0169094D02*
X0031063Y0169094D01*
G75*
G02*
X0031339Y0168819I0000000J-000276D01*
G01*
X0031339Y0166614D01*
G75*
G02*
X0031063Y0166339I-000276J0000000D01*
G01*
X0027992Y0166339D01*
G75*
G02*
X0027717Y0166614I0000000J0000276D01*
G01*
X0027717Y0168819D01*
G75*
G02*
X0027992Y0169094I0000276J0000000D01*
G01*
G37*
G36*
G01*
X0027992Y0162795D02*
X0031063Y0162795D01*
G75*
G02*
X0031339Y0162520I0000000J-000276D01*
G01*
X0031339Y0160315D01*
G75*
G02*
X0031063Y0160039I-000276J0000000D01*
G01*
X0027992Y0160039D01*
G75*
G02*
X0027717Y0160315I0000000J0000276D01*
G01*
X0027717Y0162520D01*
G75*
G02*
X0027992Y0162795I0000276J0000000D01*
G01*
G37*
G36*
G01*
X0065347Y0047784D02*
X0069481Y0047784D01*
G75*
G02*
X0069874Y0047390I0000000J-000394D01*
G01*
X0069874Y0044241D01*
G75*
G02*
X0069481Y0043847I-000394J0000000D01*
G01*
X0065347Y0043847D01*
G75*
G02*
X0064953Y0044241I0000000J0000394D01*
G01*
X0064953Y0047390D01*
G75*
G02*
X0065347Y0047784I0000394J0000000D01*
G01*
G37*
G36*
G01*
X0065347Y0039910D02*
X0069481Y0039910D01*
G75*
G02*
X0069874Y0039516I0000000J-000394D01*
G01*
X0069874Y0036367D01*
G75*
G02*
X0069481Y0035973I-000394J0000000D01*
G01*
X0065347Y0035973D01*
G75*
G02*
X0064953Y0036367I0000000J0000394D01*
G01*
X0064953Y0039516D01*
G75*
G02*
X0065347Y0039910I0000394J0000000D01*
G01*
G37*
G36*
G01*
X0033031Y0344685D02*
X0029961Y0344685D01*
G75*
G02*
X0029685Y0344961I0000000J0000276D01*
G01*
X0029685Y0347165D01*
G75*
G02*
X0029961Y0347441I0000276J0000000D01*
G01*
X0033031Y0347441D01*
G75*
G02*
X0033307Y0347165I0000000J-000276D01*
G01*
X0033307Y0344961D01*
G75*
G02*
X0033031Y0344685I-000276J0000000D01*
G01*
G37*
G36*
G01*
X0033031Y0350984D02*
X0029961Y0350984D01*
G75*
G02*
X0029685Y0351260I0000000J0000276D01*
G01*
X0029685Y0353465D01*
G75*
G02*
X0029961Y0353740I0000276J0000000D01*
G01*
X0033031Y0353740D01*
G75*
G02*
X0033307Y0353465I0000000J-000276D01*
G01*
X0033307Y0351260D01*
G75*
G02*
X0033031Y0350984I-000276J0000000D01*
G01*
G37*
G36*
G01*
X0108169Y0251280D02*
X0108169Y0240059D01*
G75*
G02*
X0107185Y0239075I-000984J0000000D01*
G01*
X0104331Y0239075D01*
G75*
G02*
X0103346Y0240059I0000000J0000984D01*
G01*
X0103346Y0251280D01*
G75*
G02*
X0104331Y0252264I0000984J0000000D01*
G01*
X0107185Y0252264D01*
G75*
G02*
X0108169Y0251280I0000000J-000984D01*
G01*
G37*
G36*
G01*
X0084843Y0251280D02*
X0084843Y0240059D01*
G75*
G02*
X0083858Y0239075I-000984J0000000D01*
G01*
X0081004Y0239075D01*
G75*
G02*
X0080020Y0240059I0000000J0000984D01*
G01*
X0080020Y0251280D01*
G75*
G02*
X0081004Y0252264I0000984J0000000D01*
G01*
X0083858Y0252264D01*
G75*
G02*
X0084843Y0251280I0000000J-000984D01*
G01*
G37*
G36*
G01*
X0029921Y0080551D02*
X0034055Y0080551D01*
G75*
G02*
X0034449Y0080157I0000000J-000394D01*
G01*
X0034449Y0077008D01*
G75*
G02*
X0034055Y0076614I-000394J0000000D01*
G01*
X0029921Y0076614D01*
G75*
G02*
X0029528Y0077008I0000000J0000394D01*
G01*
X0029528Y0080157D01*
G75*
G02*
X0029921Y0080551I0000394J0000000D01*
G01*
G37*
G36*
G01*
X0029921Y0072677D02*
X0034055Y0072677D01*
G75*
G02*
X0034449Y0072283I0000000J-000394D01*
G01*
X0034449Y0069134D01*
G75*
G02*
X0034055Y0068740I-000394J0000000D01*
G01*
X0029921Y0068740D01*
G75*
G02*
X0029528Y0069134I0000000J0000394D01*
G01*
X0029528Y0072283D01*
G75*
G02*
X0029921Y0072677I0000394J0000000D01*
G01*
G37*
G36*
G01*
X0077355Y0020225D02*
X0073221Y0020225D01*
G75*
G02*
X0072827Y0020619I0000000J0000394D01*
G01*
X0072827Y0023768D01*
G75*
G02*
X0073221Y0024162I0000394J0000000D01*
G01*
X0077355Y0024162D01*
G75*
G02*
X0077748Y0023768I0000000J-000394D01*
G01*
X0077748Y0020619D01*
G75*
G02*
X0077355Y0020225I-000394J0000000D01*
G01*
G37*
G36*
G01*
X0077355Y0028099D02*
X0073221Y0028099D01*
G75*
G02*
X0072827Y0028493I0000000J0000394D01*
G01*
X0072827Y0031642D01*
G75*
G02*
X0073221Y0032036I0000394J0000000D01*
G01*
X0077355Y0032036D01*
G75*
G02*
X0077748Y0031642I0000000J-000394D01*
G01*
X0077748Y0028493D01*
G75*
G02*
X0077355Y0028099I-000394J0000000D01*
G01*
G37*
G36*
G01*
X0210413Y0296260D02*
X0211594Y0296260D01*
G75*
G02*
X0212185Y0295669I0000000J-000591D01*
G01*
X0212185Y0289173D01*
G75*
G02*
X0211594Y0288583I-000591J0000000D01*
G01*
X0210413Y0288583D01*
G75*
G02*
X0209823Y0289173I0000000J0000591D01*
G01*
X0209823Y0295669D01*
G75*
G02*
X0210413Y0296260I0000591J0000000D01*
G01*
G37*
G36*
G01*
X0215413Y0296260D02*
X0216594Y0296260D01*
G75*
G02*
X0217185Y0295669I0000000J-000591D01*
G01*
X0217185Y0289173D01*
G75*
G02*
X0216594Y0288583I-000591J0000000D01*
G01*
X0215413Y0288583D01*
G75*
G02*
X0214823Y0289173I0000000J0000591D01*
G01*
X0214823Y0295669D01*
G75*
G02*
X0215413Y0296260I0000591J0000000D01*
G01*
G37*
G36*
G01*
X0220413Y0296260D02*
X0221594Y0296260D01*
G75*
G02*
X0222185Y0295669I0000000J-000591D01*
G01*
X0222185Y0289173D01*
G75*
G02*
X0221594Y0288583I-000591J0000000D01*
G01*
X0220413Y0288583D01*
G75*
G02*
X0219823Y0289173I0000000J0000591D01*
G01*
X0219823Y0295669D01*
G75*
G02*
X0220413Y0296260I0000591J0000000D01*
G01*
G37*
G36*
G01*
X0225413Y0296260D02*
X0226594Y0296260D01*
G75*
G02*
X0227185Y0295669I0000000J-000591D01*
G01*
X0227185Y0289173D01*
G75*
G02*
X0226594Y0288583I-000591J0000000D01*
G01*
X0225413Y0288583D01*
G75*
G02*
X0224823Y0289173I0000000J0000591D01*
G01*
X0224823Y0295669D01*
G75*
G02*
X0225413Y0296260I0000591J0000000D01*
G01*
G37*
G36*
G01*
X0225413Y0276772D02*
X0226594Y0276772D01*
G75*
G02*
X0227185Y0276181I0000000J-000591D01*
G01*
X0227185Y0269685D01*
G75*
G02*
X0226594Y0269094I-000591J0000000D01*
G01*
X0225413Y0269094D01*
G75*
G02*
X0224823Y0269685I0000000J0000591D01*
G01*
X0224823Y0276181D01*
G75*
G02*
X0225413Y0276772I0000591J0000000D01*
G01*
G37*
G36*
G01*
X0220413Y0276772D02*
X0221594Y0276772D01*
G75*
G02*
X0222185Y0276181I0000000J-000591D01*
G01*
X0222185Y0269685D01*
G75*
G02*
X0221594Y0269094I-000591J0000000D01*
G01*
X0220413Y0269094D01*
G75*
G02*
X0219823Y0269685I0000000J0000591D01*
G01*
X0219823Y0276181D01*
G75*
G02*
X0220413Y0276772I0000591J0000000D01*
G01*
G37*
G36*
G01*
X0215413Y0276772D02*
X0216594Y0276772D01*
G75*
G02*
X0217185Y0276181I0000000J-000591D01*
G01*
X0217185Y0269685D01*
G75*
G02*
X0216594Y0269094I-000591J0000000D01*
G01*
X0215413Y0269094D01*
G75*
G02*
X0214823Y0269685I0000000J0000591D01*
G01*
X0214823Y0276181D01*
G75*
G02*
X0215413Y0276772I0000591J0000000D01*
G01*
G37*
G36*
G01*
X0210413Y0276772D02*
X0211594Y0276772D01*
G75*
G02*
X0212185Y0276181I0000000J-000591D01*
G01*
X0212185Y0269685D01*
G75*
G02*
X0211594Y0269094I-000591J0000000D01*
G01*
X0210413Y0269094D01*
G75*
G02*
X0209823Y0269685I0000000J0000591D01*
G01*
X0209823Y0276181D01*
G75*
G02*
X0210413Y0276772I0000591J0000000D01*
G01*
G37*
G36*
G01*
X0014173Y0080551D02*
X0018307Y0080551D01*
G75*
G02*
X0018701Y0080157I0000000J-000394D01*
G01*
X0018701Y0077008D01*
G75*
G02*
X0018307Y0076614I-000394J0000000D01*
G01*
X0014173Y0076614D01*
G75*
G02*
X0013780Y0077008I0000000J0000394D01*
G01*
X0013780Y0080157D01*
G75*
G02*
X0014173Y0080551I0000394J0000000D01*
G01*
G37*
G36*
G01*
X0014173Y0072677D02*
X0018307Y0072677D01*
G75*
G02*
X0018701Y0072283I0000000J-000394D01*
G01*
X0018701Y0069134D01*
G75*
G02*
X0018307Y0068740I-000394J0000000D01*
G01*
X0014173Y0068740D01*
G75*
G02*
X0013780Y0069134I0000000J0000394D01*
G01*
X0013780Y0072283D01*
G75*
G02*
X0014173Y0072677I0000394J0000000D01*
G01*
G37*
G36*
G01*
X0108169Y0168602D02*
X0108169Y0157382D01*
G75*
G02*
X0107185Y0156398I-000984J0000000D01*
G01*
X0104331Y0156398D01*
G75*
G02*
X0103346Y0157382I0000000J0000984D01*
G01*
X0103346Y0168602D01*
G75*
G02*
X0104331Y0169587I0000984J0000000D01*
G01*
X0107185Y0169587D01*
G75*
G02*
X0108169Y0168602I0000000J-000984D01*
G01*
G37*
G36*
G01*
X0084843Y0168602D02*
X0084843Y0157382D01*
G75*
G02*
X0083858Y0156398I-000984J0000000D01*
G01*
X0081004Y0156398D01*
G75*
G02*
X0080020Y0157382I0000000J0000984D01*
G01*
X0080020Y0168602D01*
G75*
G02*
X0081004Y0169587I0000984J0000000D01*
G01*
X0083858Y0169587D01*
G75*
G02*
X0084843Y0168602I0000000J-000984D01*
G01*
G37*
G36*
G01*
X0004311Y0213976D02*
X0005492Y0213976D01*
G75*
G02*
X0006083Y0213386I0000000J-000591D01*
G01*
X0006083Y0206890D01*
G75*
G02*
X0005492Y0206299I-000591J0000000D01*
G01*
X0004311Y0206299D01*
G75*
G02*
X0003720Y0206890I0000000J0000591D01*
G01*
X0003720Y0213386D01*
G75*
G02*
X0004311Y0213976I0000591J0000000D01*
G01*
G37*
G36*
G01*
X0009311Y0213976D02*
X0010492Y0213976D01*
G75*
G02*
X0011083Y0213386I0000000J-000591D01*
G01*
X0011083Y0206890D01*
G75*
G02*
X0010492Y0206299I-000591J0000000D01*
G01*
X0009311Y0206299D01*
G75*
G02*
X0008720Y0206890I0000000J0000591D01*
G01*
X0008720Y0213386D01*
G75*
G02*
X0009311Y0213976I0000591J0000000D01*
G01*
G37*
G36*
G01*
X0014311Y0213976D02*
X0015492Y0213976D01*
G75*
G02*
X0016083Y0213386I0000000J-000591D01*
G01*
X0016083Y0206890D01*
G75*
G02*
X0015492Y0206299I-000591J0000000D01*
G01*
X0014311Y0206299D01*
G75*
G02*
X0013720Y0206890I0000000J0000591D01*
G01*
X0013720Y0213386D01*
G75*
G02*
X0014311Y0213976I0000591J0000000D01*
G01*
G37*
G36*
G01*
X0019311Y0213976D02*
X0020492Y0213976D01*
G75*
G02*
X0021083Y0213386I0000000J-000591D01*
G01*
X0021083Y0206890D01*
G75*
G02*
X0020492Y0206299I-000591J0000000D01*
G01*
X0019311Y0206299D01*
G75*
G02*
X0018720Y0206890I0000000J0000591D01*
G01*
X0018720Y0213386D01*
G75*
G02*
X0019311Y0213976I0000591J0000000D01*
G01*
G37*
G36*
G01*
X0019311Y0194488D02*
X0020492Y0194488D01*
G75*
G02*
X0021083Y0193898I0000000J-000591D01*
G01*
X0021083Y0187402D01*
G75*
G02*
X0020492Y0186811I-000591J0000000D01*
G01*
X0019311Y0186811D01*
G75*
G02*
X0018720Y0187402I0000000J0000591D01*
G01*
X0018720Y0193898D01*
G75*
G02*
X0019311Y0194488I0000591J0000000D01*
G01*
G37*
G36*
G01*
X0014311Y0194488D02*
X0015492Y0194488D01*
G75*
G02*
X0016083Y0193898I0000000J-000591D01*
G01*
X0016083Y0187402D01*
G75*
G02*
X0015492Y0186811I-000591J0000000D01*
G01*
X0014311Y0186811D01*
G75*
G02*
X0013720Y0187402I0000000J0000591D01*
G01*
X0013720Y0193898D01*
G75*
G02*
X0014311Y0194488I0000591J0000000D01*
G01*
G37*
G36*
G01*
X0009311Y0194488D02*
X0010492Y0194488D01*
G75*
G02*
X0011083Y0193898I0000000J-000591D01*
G01*
X0011083Y0187402D01*
G75*
G02*
X0010492Y0186811I-000591J0000000D01*
G01*
X0009311Y0186811D01*
G75*
G02*
X0008720Y0187402I0000000J0000591D01*
G01*
X0008720Y0193898D01*
G75*
G02*
X0009311Y0194488I0000591J0000000D01*
G01*
G37*
G36*
G01*
X0004311Y0194488D02*
X0005492Y0194488D01*
G75*
G02*
X0006083Y0193898I0000000J-000591D01*
G01*
X0006083Y0187402D01*
G75*
G02*
X0005492Y0186811I-000591J0000000D01*
G01*
X0004311Y0186811D01*
G75*
G02*
X0003720Y0187402I0000000J0000591D01*
G01*
X0003720Y0193898D01*
G75*
G02*
X0004311Y0194488I0000591J0000000D01*
G01*
G37*
G36*
G01*
X0235984Y0284587D02*
X0233307Y0284587D01*
G75*
G02*
X0232972Y0284921I0000000J0000335D01*
G01*
X0232972Y0287598D01*
G75*
G02*
X0233307Y0287933I0000335J0000000D01*
G01*
X0235984Y0287933D01*
G75*
G02*
X0236319Y0287598I0000000J-000335D01*
G01*
X0236319Y0284921D01*
G75*
G02*
X0235984Y0284587I-000335J0000000D01*
G01*
G37*
G36*
G01*
X0235984Y0290807D02*
X0233307Y0290807D01*
G75*
G02*
X0232972Y0291142I0000000J0000335D01*
G01*
X0232972Y0293819D01*
G75*
G02*
X0233307Y0294154I0000335J0000000D01*
G01*
X0235984Y0294154D01*
G75*
G02*
X0236319Y0293819I0000000J-000335D01*
G01*
X0236319Y0291142D01*
G75*
G02*
X0235984Y0290807I-000335J0000000D01*
G01*
G37*
G36*
G01*
X0117495Y0140453D02*
X0119513Y0140453D01*
G75*
G02*
X0120374Y0139592I0000000J-000861D01*
G01*
X0120374Y0137869D01*
G75*
G02*
X0119513Y0137008I-000861J0000000D01*
G01*
X0117495Y0137008D01*
G75*
G02*
X0116634Y0137869I0000000J0000861D01*
G01*
X0116634Y0139592D01*
G75*
G02*
X0117495Y0140453I0000861J0000000D01*
G01*
G37*
G36*
G01*
X0117495Y0134252D02*
X0119513Y0134252D01*
G75*
G02*
X0120374Y0133391I0000000J-000861D01*
G01*
X0120374Y0131668D01*
G75*
G02*
X0119513Y0130807I-000861J0000000D01*
G01*
X0117495Y0130807D01*
G75*
G02*
X0116634Y0131668I0000000J0000861D01*
G01*
X0116634Y0133391D01*
G75*
G02*
X0117495Y0134252I0000861J0000000D01*
G01*
G37*
G36*
G01*
X0041725Y0047784D02*
X0045858Y0047784D01*
G75*
G02*
X0046252Y0047390I0000000J-000394D01*
G01*
X0046252Y0044241D01*
G75*
G02*
X0045858Y0043847I-000394J0000000D01*
G01*
X0041725Y0043847D01*
G75*
G02*
X0041331Y0044241I0000000J0000394D01*
G01*
X0041331Y0047390D01*
G75*
G02*
X0041725Y0047784I0000394J0000000D01*
G01*
G37*
G36*
G01*
X0041725Y0039910D02*
X0045858Y0039910D01*
G75*
G02*
X0046252Y0039516I0000000J-000394D01*
G01*
X0046252Y0036367D01*
G75*
G02*
X0045858Y0035973I-000394J0000000D01*
G01*
X0041725Y0035973D01*
G75*
G02*
X0041331Y0036367I0000000J0000394D01*
G01*
X0041331Y0039516D01*
G75*
G02*
X0041725Y0039910I0000394J0000000D01*
G01*
G37*
G36*
G01*
X0045858Y0020225D02*
X0041725Y0020225D01*
G75*
G02*
X0041331Y0020619I0000000J0000394D01*
G01*
X0041331Y0023768D01*
G75*
G02*
X0041725Y0024162I0000394J0000000D01*
G01*
X0045858Y0024162D01*
G75*
G02*
X0046252Y0023768I0000000J-000394D01*
G01*
X0046252Y0020619D01*
G75*
G02*
X0045858Y0020225I-000394J0000000D01*
G01*
G37*
G36*
G01*
X0045858Y0028099D02*
X0041725Y0028099D01*
G75*
G02*
X0041331Y0028493I0000000J0000394D01*
G01*
X0041331Y0031642D01*
G75*
G02*
X0041725Y0032036I0000394J0000000D01*
G01*
X0045858Y0032036D01*
G75*
G02*
X0046252Y0031642I0000000J-000394D01*
G01*
X0046252Y0028493D01*
G75*
G02*
X0045858Y0028099I-000394J0000000D01*
G01*
G37*
G36*
G01*
X0117298Y0250492D02*
X0119316Y0250492D01*
G75*
G02*
X0120177Y0249631I0000000J-000861D01*
G01*
X0120177Y0247908D01*
G75*
G02*
X0119316Y0247047I-000861J0000000D01*
G01*
X0117298Y0247047D01*
G75*
G02*
X0116437Y0247908I0000000J0000861D01*
G01*
X0116437Y0249631D01*
G75*
G02*
X0117298Y0250492I0000861J0000000D01*
G01*
G37*
G36*
G01*
X0117298Y0244291D02*
X0119316Y0244291D01*
G75*
G02*
X0120177Y0243430I0000000J-000861D01*
G01*
X0120177Y0241708D01*
G75*
G02*
X0119316Y0240846I-000861J0000000D01*
G01*
X0117298Y0240846D01*
G75*
G02*
X0116437Y0241708I0000000J0000861D01*
G01*
X0116437Y0243430D01*
G75*
G02*
X0117298Y0244291I0000861J0000000D01*
G01*
G37*
G36*
G01*
X0108169Y0141043D02*
X0108169Y0129823D01*
G75*
G02*
X0107185Y0128839I-000984J0000000D01*
G01*
X0104331Y0128839D01*
G75*
G02*
X0103346Y0129823I0000000J0000984D01*
G01*
X0103346Y0141043D01*
G75*
G02*
X0104331Y0142028I0000984J0000000D01*
G01*
X0107185Y0142028D01*
G75*
G02*
X0108169Y0141043I0000000J-000984D01*
G01*
G37*
G36*
G01*
X0084843Y0141043D02*
X0084843Y0129823D01*
G75*
G02*
X0083858Y0128839I-000984J0000000D01*
G01*
X0081004Y0128839D01*
G75*
G02*
X0080020Y0129823I0000000J0000984D01*
G01*
X0080020Y0141043D01*
G75*
G02*
X0081004Y0142028I0000984J0000000D01*
G01*
X0083858Y0142028D01*
G75*
G02*
X0084843Y0141043I0000000J-000984D01*
G01*
G37*
G36*
G01*
X0108169Y0223720D02*
X0108169Y0212500D01*
G75*
G02*
X0107185Y0211516I-000984J0000000D01*
G01*
X0104331Y0211516D01*
G75*
G02*
X0103346Y0212500I0000000J0000984D01*
G01*
X0103346Y0223720D01*
G75*
G02*
X0104331Y0224705I0000984J0000000D01*
G01*
X0107185Y0224705D01*
G75*
G02*
X0108169Y0223720I0000000J-000984D01*
G01*
G37*
G36*
G01*
X0084843Y0223720D02*
X0084843Y0212500D01*
G75*
G02*
X0083858Y0211516I-000984J0000000D01*
G01*
X0081004Y0211516D01*
G75*
G02*
X0080020Y0212500I0000000J0000984D01*
G01*
X0080020Y0223720D01*
G75*
G02*
X0081004Y0224705I0000984J0000000D01*
G01*
X0083858Y0224705D01*
G75*
G02*
X0084843Y0223720I0000000J-000984D01*
G01*
G37*
G36*
G01*
X0037795Y0080551D02*
X0041929Y0080551D01*
G75*
G02*
X0042323Y0080157I0000000J-000394D01*
G01*
X0042323Y0077008D01*
G75*
G02*
X0041929Y0076614I-000394J0000000D01*
G01*
X0037795Y0076614D01*
G75*
G02*
X0037402Y0077008I0000000J0000394D01*
G01*
X0037402Y0080157D01*
G75*
G02*
X0037795Y0080551I0000394J0000000D01*
G01*
G37*
G36*
G01*
X0037795Y0072677D02*
X0041929Y0072677D01*
G75*
G02*
X0042323Y0072283I0000000J-000394D01*
G01*
X0042323Y0069134D01*
G75*
G02*
X0041929Y0068740I-000394J0000000D01*
G01*
X0037795Y0068740D01*
G75*
G02*
X0037402Y0069134I0000000J0000394D01*
G01*
X0037402Y0072283D01*
G75*
G02*
X0037795Y0072677I0000394J0000000D01*
G01*
G37*
G36*
G01*
X0326353Y0132579D02*
X0328371Y0132579D01*
G75*
G02*
X0329232Y0131718I0000000J-000861D01*
G01*
X0329232Y0129995D01*
G75*
G02*
X0328371Y0129134I-000861J0000000D01*
G01*
X0326353Y0129134D01*
G75*
G02*
X0325492Y0129995I0000000J0000861D01*
G01*
X0325492Y0131718D01*
G75*
G02*
X0326353Y0132579I0000861J0000000D01*
G01*
G37*
G36*
G01*
X0326353Y0126378D02*
X0328371Y0126378D01*
G75*
G02*
X0329232Y0125517I0000000J-000861D01*
G01*
X0329232Y0123794D01*
G75*
G02*
X0328371Y0122933I-000861J0000000D01*
G01*
X0326353Y0122933D01*
G75*
G02*
X0325492Y0123794I0000000J0000861D01*
G01*
X0325492Y0125517D01*
G75*
G02*
X0326353Y0126378I0000861J0000000D01*
G01*
G37*
G36*
G01*
X0076811Y0269291D02*
X0072795Y0269291D01*
G75*
G02*
X0072441Y0269646I0000000J0000354D01*
G01*
X0072441Y0272480D01*
G75*
G02*
X0072795Y0272835I0000354J0000000D01*
G01*
X0076811Y0272835D01*
G75*
G02*
X0077165Y0272480I0000000J-000354D01*
G01*
X0077165Y0269646D01*
G75*
G02*
X0076811Y0269291I-000354J0000000D01*
G01*
G37*
G36*
G01*
X0076811Y0282283D02*
X0072795Y0282283D01*
G75*
G02*
X0072441Y0282638I0000000J0000354D01*
G01*
X0072441Y0285472D01*
G75*
G02*
X0072795Y0285827I0000354J0000000D01*
G01*
X0076811Y0285827D01*
G75*
G02*
X0077165Y0285472I0000000J-000354D01*
G01*
X0077165Y0282638D01*
G75*
G02*
X0076811Y0282283I-000354J0000000D01*
G01*
G37*
G36*
G01*
X0343858Y0067717D02*
X0341969Y0067717D01*
G75*
G02*
X0341732Y0067953I0000000J0000236D01*
G01*
X0341732Y0069843D01*
G75*
G02*
X0341969Y0070079I0000236J0000000D01*
G01*
X0343858Y0070079D01*
G75*
G02*
X0344094Y0069843I0000000J-000236D01*
G01*
X0344094Y0067953D01*
G75*
G02*
X0343858Y0067717I-000236J0000000D01*
G01*
G37*
G36*
G01*
X0352520Y0067717D02*
X0350630Y0067717D01*
G75*
G02*
X0350394Y0067953I0000000J0000236D01*
G01*
X0350394Y0069843D01*
G75*
G02*
X0350630Y0070079I0000236J0000000D01*
G01*
X0352520Y0070079D01*
G75*
G02*
X0352756Y0069843I0000000J-000236D01*
G01*
X0352756Y0067953D01*
G75*
G02*
X0352520Y0067717I-000236J0000000D01*
G01*
G37*
G36*
G01*
X0015689Y0116772D02*
X0015689Y0119449D01*
G75*
G02*
X0016024Y0119783I0000335J0000000D01*
G01*
X0018701Y0119783D01*
G75*
G02*
X0019035Y0119449I0000000J-000335D01*
G01*
X0019035Y0116772D01*
G75*
G02*
X0018701Y0116437I-000335J0000000D01*
G01*
X0016024Y0116437D01*
G75*
G02*
X0015689Y0116772I0000000J0000335D01*
G01*
G37*
G36*
G01*
X0021909Y0116772D02*
X0021909Y0119449D01*
G75*
G02*
X0022244Y0119783I0000335J0000000D01*
G01*
X0024921Y0119783D01*
G75*
G02*
X0025256Y0119449I0000000J-000335D01*
G01*
X0025256Y0116772D01*
G75*
G02*
X0024921Y0116437I-000335J0000000D01*
G01*
X0022244Y0116437D01*
G75*
G02*
X0021909Y0116772I0000000J0000335D01*
G01*
G37*
G36*
G01*
X0113789Y0186024D02*
X0110719Y0186024D01*
G75*
G02*
X0110443Y0186299I0000000J0000276D01*
G01*
X0110443Y0188504D01*
G75*
G02*
X0110719Y0188780I0000276J0000000D01*
G01*
X0113789Y0188780D01*
G75*
G02*
X0114065Y0188504I0000000J-000276D01*
G01*
X0114065Y0186299D01*
G75*
G02*
X0113789Y0186024I-000276J0000000D01*
G01*
G37*
G36*
G01*
X0113789Y0192323D02*
X0110719Y0192323D01*
G75*
G02*
X0110443Y0192598I0000000J0000276D01*
G01*
X0110443Y0194803D01*
G75*
G02*
X0110719Y0195079I0000276J0000000D01*
G01*
X0113789Y0195079D01*
G75*
G02*
X0114065Y0194803I0000000J-000276D01*
G01*
X0114065Y0192598D01*
G75*
G02*
X0113789Y0192323I-000276J0000000D01*
G01*
G37*
G36*
G01*
X0144055Y0110827D02*
X0140984Y0110827D01*
G75*
G02*
X0140709Y0111102I0000000J0000276D01*
G01*
X0140709Y0113307D01*
G75*
G02*
X0140984Y0113583I0000276J0000000D01*
G01*
X0144055Y0113583D01*
G75*
G02*
X0144331Y0113307I0000000J-000276D01*
G01*
X0144331Y0111102D01*
G75*
G02*
X0144055Y0110827I-000276J0000000D01*
G01*
G37*
G36*
G01*
X0144055Y0117126D02*
X0140984Y0117126D01*
G75*
G02*
X0140709Y0117402I0000000J0000276D01*
G01*
X0140709Y0119606D01*
G75*
G02*
X0140984Y0119882I0000276J0000000D01*
G01*
X0144055Y0119882D01*
G75*
G02*
X0144331Y0119606I0000000J-000276D01*
G01*
X0144331Y0117402D01*
G75*
G02*
X0144055Y0117126I-000276J0000000D01*
G01*
G37*
G36*
G01*
X0124449Y0114764D02*
X0127520Y0114764D01*
G75*
G02*
X0127795Y0114488I0000000J-000276D01*
G01*
X0127795Y0112283D01*
G75*
G02*
X0127520Y0112008I-000276J0000000D01*
G01*
X0124449Y0112008D01*
G75*
G02*
X0124173Y0112283I0000000J0000276D01*
G01*
X0124173Y0114488D01*
G75*
G02*
X0124449Y0114764I0000276J0000000D01*
G01*
G37*
G36*
G01*
X0124449Y0108465D02*
X0127520Y0108465D01*
G75*
G02*
X0127795Y0108189I0000000J-000276D01*
G01*
X0127795Y0105984D01*
G75*
G02*
X0127520Y0105709I-000276J0000000D01*
G01*
X0124449Y0105709D01*
G75*
G02*
X0124173Y0105984I0000000J0000276D01*
G01*
X0124173Y0108189D01*
G75*
G02*
X0124449Y0108465I0000276J0000000D01*
G01*
G37*
G36*
G01*
X0061607Y0020225D02*
X0057473Y0020225D01*
G75*
G02*
X0057079Y0020619I0000000J0000394D01*
G01*
X0057079Y0023768D01*
G75*
G02*
X0057473Y0024162I0000394J0000000D01*
G01*
X0061607Y0024162D01*
G75*
G02*
X0062000Y0023768I0000000J-000394D01*
G01*
X0062000Y0020619D01*
G75*
G02*
X0061607Y0020225I-000394J0000000D01*
G01*
G37*
G36*
G01*
X0061607Y0028099D02*
X0057473Y0028099D01*
G75*
G02*
X0057079Y0028493I0000000J0000394D01*
G01*
X0057079Y0031642D01*
G75*
G02*
X0057473Y0032036I0000394J0000000D01*
G01*
X0061607Y0032036D01*
G75*
G02*
X0062000Y0031642I0000000J-000394D01*
G01*
X0062000Y0028493D01*
G75*
G02*
X0061607Y0028099I-000394J0000000D01*
G01*
G37*
G36*
G01*
X0003583Y0294291D02*
X0006654Y0294291D01*
G75*
G02*
X0006929Y0294016I0000000J-000276D01*
G01*
X0006929Y0291811D01*
G75*
G02*
X0006654Y0291535I-000276J0000000D01*
G01*
X0003583Y0291535D01*
G75*
G02*
X0003307Y0291811I0000000J0000276D01*
G01*
X0003307Y0294016D01*
G75*
G02*
X0003583Y0294291I0000276J0000000D01*
G01*
G37*
G36*
G01*
X0003583Y0287992D02*
X0006654Y0287992D01*
G75*
G02*
X0006929Y0287717I0000000J-000276D01*
G01*
X0006929Y0285512D01*
G75*
G02*
X0006654Y0285236I-000276J0000000D01*
G01*
X0003583Y0285236D01*
G75*
G02*
X0003307Y0285512I0000000J0000276D01*
G01*
X0003307Y0287717D01*
G75*
G02*
X0003583Y0287992I0000276J0000000D01*
G01*
G37*
G36*
G01*
X0117495Y0168012D02*
X0119513Y0168012D01*
G75*
G02*
X0120374Y0167151I0000000J-000861D01*
G01*
X0120374Y0165428D01*
G75*
G02*
X0119513Y0164567I-000861J0000000D01*
G01*
X0117495Y0164567D01*
G75*
G02*
X0116634Y0165428I0000000J0000861D01*
G01*
X0116634Y0167151D01*
G75*
G02*
X0117495Y0168012I0000861J0000000D01*
G01*
G37*
G36*
G01*
X0117495Y0161811D02*
X0119513Y0161811D01*
G75*
G02*
X0120374Y0160950I0000000J-000861D01*
G01*
X0120374Y0159227D01*
G75*
G02*
X0119513Y0158366I-000861J0000000D01*
G01*
X0117495Y0158366D01*
G75*
G02*
X0116634Y0159227I0000000J0000861D01*
G01*
X0116634Y0160950D01*
G75*
G02*
X0117495Y0161811I0000861J0000000D01*
G01*
G37*
G36*
G01*
X0113789Y0158465D02*
X0110719Y0158465D01*
G75*
G02*
X0110443Y0158740I0000000J0000276D01*
G01*
X0110443Y0160945D01*
G75*
G02*
X0110719Y0161220I0000276J0000000D01*
G01*
X0113789Y0161220D01*
G75*
G02*
X0114065Y0160945I0000000J-000276D01*
G01*
X0114065Y0158740D01*
G75*
G02*
X0113789Y0158465I-000276J0000000D01*
G01*
G37*
G36*
G01*
X0113789Y0164764D02*
X0110719Y0164764D01*
G75*
G02*
X0110443Y0165039I0000000J0000276D01*
G01*
X0110443Y0167244D01*
G75*
G02*
X0110719Y0167520I0000276J0000000D01*
G01*
X0113789Y0167520D01*
G75*
G02*
X0114065Y0167244I0000000J-000276D01*
G01*
X0114065Y0165039D01*
G75*
G02*
X0113789Y0164764I-000276J0000000D01*
G01*
G37*
G36*
G01*
X0194449Y0012710D02*
X0191378Y0012710D01*
G75*
G02*
X0191102Y0012986I0000000J0000276D01*
G01*
X0191102Y0015190D01*
G75*
G02*
X0191378Y0015466I0000276J0000000D01*
G01*
X0194449Y0015466D01*
G75*
G02*
X0194724Y0015190I0000000J-000276D01*
G01*
X0194724Y0012986D01*
G75*
G02*
X0194449Y0012710I-000276J0000000D01*
G01*
G37*
G36*
G01*
X0194449Y0019009D02*
X0191378Y0019009D01*
G75*
G02*
X0191102Y0019285I0000000J0000276D01*
G01*
X0191102Y0021489D01*
G75*
G02*
X0191378Y0021765I0000276J0000000D01*
G01*
X0194449Y0021765D01*
G75*
G02*
X0194724Y0021489I0000000J-000276D01*
G01*
X0194724Y0019285D01*
G75*
G02*
X0194449Y0019009I-000276J0000000D01*
G01*
G37*
G36*
G01*
X0113789Y0130906D02*
X0110719Y0130906D01*
G75*
G02*
X0110443Y0131181I0000000J0000276D01*
G01*
X0110443Y0133386D01*
G75*
G02*
X0110719Y0133661I0000276J0000000D01*
G01*
X0113789Y0133661D01*
G75*
G02*
X0114065Y0133386I0000000J-000276D01*
G01*
X0114065Y0131181D01*
G75*
G02*
X0113789Y0130906I-000276J0000000D01*
G01*
G37*
G36*
G01*
X0113789Y0137205D02*
X0110719Y0137205D01*
G75*
G02*
X0110443Y0137480I0000000J0000276D01*
G01*
X0110443Y0139685D01*
G75*
G02*
X0110719Y0139961I0000276J0000000D01*
G01*
X0113789Y0139961D01*
G75*
G02*
X0114065Y0139685I0000000J-000276D01*
G01*
X0114065Y0137480D01*
G75*
G02*
X0113789Y0137205I-000276J0000000D01*
G01*
G37*
G36*
G01*
X0117692Y0195374D02*
X0119710Y0195374D01*
G75*
G02*
X0120571Y0194513I0000000J-000861D01*
G01*
X0120571Y0192790D01*
G75*
G02*
X0119710Y0191929I-000861J0000000D01*
G01*
X0117692Y0191929D01*
G75*
G02*
X0116831Y0192790I0000000J0000861D01*
G01*
X0116831Y0194513D01*
G75*
G02*
X0117692Y0195374I0000861J0000000D01*
G01*
G37*
G36*
G01*
X0117692Y0189173D02*
X0119710Y0189173D01*
G75*
G02*
X0120571Y0188312I0000000J-000861D01*
G01*
X0120571Y0186590D01*
G75*
G02*
X0119710Y0185728I-000861J0000000D01*
G01*
X0117692Y0185728D01*
G75*
G02*
X0116831Y0186590I0000000J0000861D01*
G01*
X0116831Y0188312D01*
G75*
G02*
X0117692Y0189173I0000861J0000000D01*
G01*
G37*
G36*
G01*
X0243071Y0284587D02*
X0240394Y0284587D01*
G75*
G02*
X0240059Y0284921I0000000J0000335D01*
G01*
X0240059Y0287598D01*
G75*
G02*
X0240394Y0287933I0000335J0000000D01*
G01*
X0243071Y0287933D01*
G75*
G02*
X0243406Y0287598I0000000J-000335D01*
G01*
X0243406Y0284921D01*
G75*
G02*
X0243071Y0284587I-000335J0000000D01*
G01*
G37*
G36*
G01*
X0243071Y0290807D02*
X0240394Y0290807D01*
G75*
G02*
X0240059Y0291142I0000000J0000335D01*
G01*
X0240059Y0293819D01*
G75*
G02*
X0240394Y0294154I0000335J0000000D01*
G01*
X0243071Y0294154D01*
G75*
G02*
X0243406Y0293819I0000000J-000335D01*
G01*
X0243406Y0291142D01*
G75*
G02*
X0243071Y0290807I-000335J0000000D01*
G01*
G37*
G36*
G01*
X0013425Y0294685D02*
X0016496Y0294685D01*
G75*
G02*
X0016772Y0294409I0000000J-000276D01*
G01*
X0016772Y0292205D01*
G75*
G02*
X0016496Y0291929I-000276J0000000D01*
G01*
X0013425Y0291929D01*
G75*
G02*
X0013150Y0292205I0000000J0000276D01*
G01*
X0013150Y0294409D01*
G75*
G02*
X0013425Y0294685I0000276J0000000D01*
G01*
G37*
G36*
G01*
X0013425Y0288386D02*
X0016496Y0288386D01*
G75*
G02*
X0016772Y0288110I0000000J-000276D01*
G01*
X0016772Y0285906D01*
G75*
G02*
X0016496Y0285630I-000276J0000000D01*
G01*
X0013425Y0285630D01*
G75*
G02*
X0013150Y0285906I0000000J0000276D01*
G01*
X0013150Y0288110D01*
G75*
G02*
X0013425Y0288386I0000276J0000000D01*
G01*
G37*
G36*
G01*
X0033031Y0333465D02*
X0029961Y0333465D01*
G75*
G02*
X0029685Y0333740I0000000J0000276D01*
G01*
X0029685Y0335945D01*
G75*
G02*
X0029961Y0336220I0000276J0000000D01*
G01*
X0033031Y0336220D01*
G75*
G02*
X0033307Y0335945I0000000J-000276D01*
G01*
X0033307Y0333740D01*
G75*
G02*
X0033031Y0333465I-000276J0000000D01*
G01*
G37*
G36*
G01*
X0033031Y0339764D02*
X0029961Y0339764D01*
G75*
G02*
X0029685Y0340039I0000000J0000276D01*
G01*
X0029685Y0342244D01*
G75*
G02*
X0029961Y0342520I0000276J0000000D01*
G01*
X0033031Y0342520D01*
G75*
G02*
X0033307Y0342244I0000000J-000276D01*
G01*
X0033307Y0340039D01*
G75*
G02*
X0033031Y0339764I-000276J0000000D01*
G01*
G37*
G36*
G01*
X0004311Y0282087D02*
X0005492Y0282087D01*
G75*
G02*
X0006083Y0281496I0000000J-000591D01*
G01*
X0006083Y0275000D01*
G75*
G02*
X0005492Y0274409I-000591J0000000D01*
G01*
X0004311Y0274409D01*
G75*
G02*
X0003720Y0275000I0000000J0000591D01*
G01*
X0003720Y0281496D01*
G75*
G02*
X0004311Y0282087I0000591J0000000D01*
G01*
G37*
G36*
G01*
X0009311Y0282087D02*
X0010492Y0282087D01*
G75*
G02*
X0011083Y0281496I0000000J-000591D01*
G01*
X0011083Y0275000D01*
G75*
G02*
X0010492Y0274409I-000591J0000000D01*
G01*
X0009311Y0274409D01*
G75*
G02*
X0008720Y0275000I0000000J0000591D01*
G01*
X0008720Y0281496D01*
G75*
G02*
X0009311Y0282087I0000591J0000000D01*
G01*
G37*
G36*
G01*
X0014311Y0282087D02*
X0015492Y0282087D01*
G75*
G02*
X0016083Y0281496I0000000J-000591D01*
G01*
X0016083Y0275000D01*
G75*
G02*
X0015492Y0274409I-000591J0000000D01*
G01*
X0014311Y0274409D01*
G75*
G02*
X0013720Y0275000I0000000J0000591D01*
G01*
X0013720Y0281496D01*
G75*
G02*
X0014311Y0282087I0000591J0000000D01*
G01*
G37*
G36*
G01*
X0019311Y0282087D02*
X0020492Y0282087D01*
G75*
G02*
X0021083Y0281496I0000000J-000591D01*
G01*
X0021083Y0275000D01*
G75*
G02*
X0020492Y0274409I-000591J0000000D01*
G01*
X0019311Y0274409D01*
G75*
G02*
X0018720Y0275000I0000000J0000591D01*
G01*
X0018720Y0281496D01*
G75*
G02*
X0019311Y0282087I0000591J0000000D01*
G01*
G37*
G36*
G01*
X0019311Y0262598D02*
X0020492Y0262598D01*
G75*
G02*
X0021083Y0262008I0000000J-000591D01*
G01*
X0021083Y0255512D01*
G75*
G02*
X0020492Y0254921I-000591J0000000D01*
G01*
X0019311Y0254921D01*
G75*
G02*
X0018720Y0255512I0000000J0000591D01*
G01*
X0018720Y0262008D01*
G75*
G02*
X0019311Y0262598I0000591J0000000D01*
G01*
G37*
G36*
G01*
X0014311Y0262598D02*
X0015492Y0262598D01*
G75*
G02*
X0016083Y0262008I0000000J-000591D01*
G01*
X0016083Y0255512D01*
G75*
G02*
X0015492Y0254921I-000591J0000000D01*
G01*
X0014311Y0254921D01*
G75*
G02*
X0013720Y0255512I0000000J0000591D01*
G01*
X0013720Y0262008D01*
G75*
G02*
X0014311Y0262598I0000591J0000000D01*
G01*
G37*
G36*
G01*
X0009311Y0262598D02*
X0010492Y0262598D01*
G75*
G02*
X0011083Y0262008I0000000J-000591D01*
G01*
X0011083Y0255512D01*
G75*
G02*
X0010492Y0254921I-000591J0000000D01*
G01*
X0009311Y0254921D01*
G75*
G02*
X0008720Y0255512I0000000J0000591D01*
G01*
X0008720Y0262008D01*
G75*
G02*
X0009311Y0262598I0000591J0000000D01*
G01*
G37*
G36*
G01*
X0004311Y0262598D02*
X0005492Y0262598D01*
G75*
G02*
X0006083Y0262008I0000000J-000591D01*
G01*
X0006083Y0255512D01*
G75*
G02*
X0005492Y0254921I-000591J0000000D01*
G01*
X0004311Y0254921D01*
G75*
G02*
X0003720Y0255512I0000000J0000591D01*
G01*
X0003720Y0262008D01*
G75*
G02*
X0004311Y0262598I0000591J0000000D01*
G01*
G37*
G36*
G01*
X0144055Y0098425D02*
X0140984Y0098425D01*
G75*
G02*
X0140709Y0098701I0000000J0000276D01*
G01*
X0140709Y0100906D01*
G75*
G02*
X0140984Y0101181I0000276J0000000D01*
G01*
X0144055Y0101181D01*
G75*
G02*
X0144331Y0100906I0000000J-000276D01*
G01*
X0144331Y0098701D01*
G75*
G02*
X0144055Y0098425I-000276J0000000D01*
G01*
G37*
G36*
G01*
X0144055Y0104724D02*
X0140984Y0104724D01*
G75*
G02*
X0140709Y0105000I0000000J0000276D01*
G01*
X0140709Y0107205D01*
G75*
G02*
X0140984Y0107480I0000276J0000000D01*
G01*
X0144055Y0107480D01*
G75*
G02*
X0144331Y0107205I0000000J-000276D01*
G01*
X0144331Y0105000D01*
G75*
G02*
X0144055Y0104724I-000276J0000000D01*
G01*
G37*
G36*
G01*
X0108169Y0196161D02*
X0108169Y0184941D01*
G75*
G02*
X0107185Y0183957I-000984J0000000D01*
G01*
X0104331Y0183957D01*
G75*
G02*
X0103346Y0184941I0000000J0000984D01*
G01*
X0103346Y0196161D01*
G75*
G02*
X0104331Y0197146I0000984J0000000D01*
G01*
X0107185Y0197146D01*
G75*
G02*
X0108169Y0196161I0000000J-000984D01*
G01*
G37*
G36*
G01*
X0084843Y0196161D02*
X0084843Y0184941D01*
G75*
G02*
X0083858Y0183957I-000984J0000000D01*
G01*
X0081004Y0183957D01*
G75*
G02*
X0080020Y0184941I0000000J0000984D01*
G01*
X0080020Y0196161D01*
G75*
G02*
X0081004Y0197146I0000984J0000000D01*
G01*
X0083858Y0197146D01*
G75*
G02*
X0084843Y0196161I0000000J-000984D01*
G01*
G37*
G36*
G01*
X0113789Y0103346D02*
X0110719Y0103346D01*
G75*
G02*
X0110443Y0103622I0000000J0000276D01*
G01*
X0110443Y0105827D01*
G75*
G02*
X0110719Y0106102I0000276J0000000D01*
G01*
X0113789Y0106102D01*
G75*
G02*
X0114065Y0105827I0000000J-000276D01*
G01*
X0114065Y0103622D01*
G75*
G02*
X0113789Y0103346I-000276J0000000D01*
G01*
G37*
G36*
G01*
X0113789Y0109646D02*
X0110719Y0109646D01*
G75*
G02*
X0110443Y0109921I0000000J0000276D01*
G01*
X0110443Y0112126D01*
G75*
G02*
X0110719Y0112402I0000276J0000000D01*
G01*
X0113789Y0112402D01*
G75*
G02*
X0114065Y0112126I0000000J-000276D01*
G01*
X0114065Y0109921D01*
G75*
G02*
X0113789Y0109646I-000276J0000000D01*
G01*
G37*
G36*
G01*
X0213558Y0339469D02*
X0215576Y0339469D01*
G75*
G02*
X0216437Y0338607I0000000J-000861D01*
G01*
X0216437Y0336885D01*
G75*
G02*
X0215576Y0336024I-000861J0000000D01*
G01*
X0213558Y0336024D01*
G75*
G02*
X0212697Y0336885I0000000J0000861D01*
G01*
X0212697Y0338607D01*
G75*
G02*
X0213558Y0339469I0000861J0000000D01*
G01*
G37*
G36*
G01*
X0213558Y0333268D02*
X0215576Y0333268D01*
G75*
G02*
X0216437Y0332406I0000000J-000861D01*
G01*
X0216437Y0330684D01*
G75*
G02*
X0215576Y0329823I-000861J0000000D01*
G01*
X0213558Y0329823D01*
G75*
G02*
X0212697Y0330684I0000000J0000861D01*
G01*
X0212697Y0332406D01*
G75*
G02*
X0213558Y0333268I0000861J0000000D01*
G01*
G37*
G36*
G01*
X0057473Y0047784D02*
X0061607Y0047784D01*
G75*
G02*
X0062000Y0047390I0000000J-000394D01*
G01*
X0062000Y0044241D01*
G75*
G02*
X0061607Y0043847I-000394J0000000D01*
G01*
X0057473Y0043847D01*
G75*
G02*
X0057079Y0044241I0000000J0000394D01*
G01*
X0057079Y0047390D01*
G75*
G02*
X0057473Y0047784I0000394J0000000D01*
G01*
G37*
G36*
G01*
X0057473Y0039910D02*
X0061607Y0039910D01*
G75*
G02*
X0062000Y0039516I0000000J-000394D01*
G01*
X0062000Y0036367D01*
G75*
G02*
X0061607Y0035973I-000394J0000000D01*
G01*
X0057473Y0035973D01*
G75*
G02*
X0057079Y0036367I0000000J0000394D01*
G01*
X0057079Y0039516D01*
G75*
G02*
X0057473Y0039910I0000394J0000000D01*
G01*
G37*
G36*
G01*
X0113789Y0241142D02*
X0110719Y0241142D01*
G75*
G02*
X0110443Y0241417I0000000J0000276D01*
G01*
X0110443Y0243622D01*
G75*
G02*
X0110719Y0243898I0000276J0000000D01*
G01*
X0113789Y0243898D01*
G75*
G02*
X0114065Y0243622I0000000J-000276D01*
G01*
X0114065Y0241417D01*
G75*
G02*
X0113789Y0241142I-000276J0000000D01*
G01*
G37*
G36*
G01*
X0113789Y0247441D02*
X0110719Y0247441D01*
G75*
G02*
X0110443Y0247717I0000000J0000276D01*
G01*
X0110443Y0249921D01*
G75*
G02*
X0110719Y0250197I0000276J0000000D01*
G01*
X0113789Y0250197D01*
G75*
G02*
X0114065Y0249921I0000000J-000276D01*
G01*
X0114065Y0247717D01*
G75*
G02*
X0113789Y0247441I-000276J0000000D01*
G01*
G37*
G36*
G01*
X0069481Y0020225D02*
X0065347Y0020225D01*
G75*
G02*
X0064953Y0020619I0000000J0000394D01*
G01*
X0064953Y0023768D01*
G75*
G02*
X0065347Y0024162I0000394J0000000D01*
G01*
X0069481Y0024162D01*
G75*
G02*
X0069874Y0023768I0000000J-000394D01*
G01*
X0069874Y0020619D01*
G75*
G02*
X0069481Y0020225I-000394J0000000D01*
G01*
G37*
G36*
G01*
X0069481Y0028099D02*
X0065347Y0028099D01*
G75*
G02*
X0064953Y0028493I0000000J0000394D01*
G01*
X0064953Y0031642D01*
G75*
G02*
X0065347Y0032036I0000394J0000000D01*
G01*
X0069481Y0032036D01*
G75*
G02*
X0069874Y0031642I0000000J-000394D01*
G01*
X0069874Y0028493D01*
G75*
G02*
X0069481Y0028099I-000394J0000000D01*
G01*
G37*
G36*
G01*
X0204291Y0012710D02*
X0201220Y0012710D01*
G75*
G02*
X0200945Y0012986I0000000J0000276D01*
G01*
X0200945Y0015190D01*
G75*
G02*
X0201220Y0015466I0000276J0000000D01*
G01*
X0204291Y0015466D01*
G75*
G02*
X0204567Y0015190I0000000J-000276D01*
G01*
X0204567Y0012986D01*
G75*
G02*
X0204291Y0012710I-000276J0000000D01*
G01*
G37*
G36*
G01*
X0204291Y0019009D02*
X0201220Y0019009D01*
G75*
G02*
X0200945Y0019285I0000000J0000276D01*
G01*
X0200945Y0021489D01*
G75*
G02*
X0201220Y0021765I0000276J0000000D01*
G01*
X0204291Y0021765D01*
G75*
G02*
X0204567Y0021489I0000000J-000276D01*
G01*
X0204567Y0019285D01*
G75*
G02*
X0204291Y0019009I-000276J0000000D01*
G01*
G37*
G36*
G01*
X0064528Y0066339D02*
X0061457Y0066339D01*
G75*
G02*
X0061181Y0066614I0000000J0000276D01*
G01*
X0061181Y0068819D01*
G75*
G02*
X0061457Y0069094I0000276J0000000D01*
G01*
X0064528Y0069094D01*
G75*
G02*
X0064803Y0068819I0000000J-000276D01*
G01*
X0064803Y0066614D01*
G75*
G02*
X0064528Y0066339I-000276J0000000D01*
G01*
G37*
G36*
G01*
X0064528Y0072638D02*
X0061457Y0072638D01*
G75*
G02*
X0061181Y0072913I0000000J0000276D01*
G01*
X0061181Y0075118D01*
G75*
G02*
X0061457Y0075394I0000276J0000000D01*
G01*
X0064528Y0075394D01*
G75*
G02*
X0064803Y0075118I0000000J-000276D01*
G01*
X0064803Y0072913D01*
G75*
G02*
X0064528Y0072638I-000276J0000000D01*
G01*
G37*
G36*
G01*
X0017126Y0352402D02*
X0017126Y0355472D01*
G75*
G02*
X0017402Y0355748I0000276J0000000D01*
G01*
X0019606Y0355748D01*
G75*
G02*
X0019882Y0355472I0000000J-000276D01*
G01*
X0019882Y0352402D01*
G75*
G02*
X0019606Y0352126I-000276J0000000D01*
G01*
X0017402Y0352126D01*
G75*
G02*
X0017126Y0352402I0000000J0000276D01*
G01*
G37*
G36*
G01*
X0023425Y0352402D02*
X0023425Y0355472D01*
G75*
G02*
X0023701Y0355748I0000276J0000000D01*
G01*
X0025906Y0355748D01*
G75*
G02*
X0026181Y0355472I0000000J-000276D01*
G01*
X0026181Y0352402D01*
G75*
G02*
X0025906Y0352126I-000276J0000000D01*
G01*
X0023701Y0352126D01*
G75*
G02*
X0023425Y0352402I0000000J0000276D01*
G01*
G37*
G36*
G01*
X0120827Y0271850D02*
X0117756Y0271850D01*
G75*
G02*
X0117480Y0272126I0000000J0000276D01*
G01*
X0117480Y0274331D01*
G75*
G02*
X0117756Y0274606I0000276J0000000D01*
G01*
X0120827Y0274606D01*
G75*
G02*
X0121102Y0274331I0000000J-000276D01*
G01*
X0121102Y0272126D01*
G75*
G02*
X0120827Y0271850I-000276J0000000D01*
G01*
G37*
G36*
G01*
X0120827Y0278150D02*
X0117756Y0278150D01*
G75*
G02*
X0117480Y0278425I0000000J0000276D01*
G01*
X0117480Y0280630D01*
G75*
G02*
X0117756Y0280906I0000276J0000000D01*
G01*
X0120827Y0280906D01*
G75*
G02*
X0121102Y0280630I0000000J-000276D01*
G01*
X0121102Y0278425D01*
G75*
G02*
X0120827Y0278150I-000276J0000000D01*
G01*
G37*
G36*
G01*
X0015354Y0355472D02*
X0015354Y0352402D01*
G75*
G02*
X0015079Y0352126I-000276J0000000D01*
G01*
X0012874Y0352126D01*
G75*
G02*
X0012598Y0352402I0000000J0000276D01*
G01*
X0012598Y0355472D01*
G75*
G02*
X0012874Y0355748I0000276J0000000D01*
G01*
X0015079Y0355748D01*
G75*
G02*
X0015354Y0355472I0000000J-000276D01*
G01*
G37*
G36*
G01*
X0009055Y0355472D02*
X0009055Y0352402D01*
G75*
G02*
X0008780Y0352126I-000276J0000000D01*
G01*
X0006575Y0352126D01*
G75*
G02*
X0006299Y0352402I0000000J0000276D01*
G01*
X0006299Y0355472D01*
G75*
G02*
X0006575Y0355748I0000276J0000000D01*
G01*
X0008780Y0355748D01*
G75*
G02*
X0009055Y0355472I0000000J-000276D01*
G01*
G37*
G36*
G01*
X0045669Y0080551D02*
X0049803Y0080551D01*
G75*
G02*
X0050197Y0080157I0000000J-000394D01*
G01*
X0050197Y0077008D01*
G75*
G02*
X0049803Y0076614I-000394J0000000D01*
G01*
X0045669Y0076614D01*
G75*
G02*
X0045276Y0077008I0000000J0000394D01*
G01*
X0045276Y0080157D01*
G75*
G02*
X0045669Y0080551I0000394J0000000D01*
G01*
G37*
G36*
G01*
X0045669Y0072677D02*
X0049803Y0072677D01*
G75*
G02*
X0050197Y0072283I0000000J-000394D01*
G01*
X0050197Y0069134D01*
G75*
G02*
X0049803Y0068740I-000394J0000000D01*
G01*
X0045669Y0068740D01*
G75*
G02*
X0045276Y0069134I0000000J0000394D01*
G01*
X0045276Y0072283D01*
G75*
G02*
X0045669Y0072677I0000394J0000000D01*
G01*
G37*
G36*
G01*
X0117298Y0222933D02*
X0119316Y0222933D01*
G75*
G02*
X0120177Y0222072I0000000J-000861D01*
G01*
X0120177Y0220349D01*
G75*
G02*
X0119316Y0219488I-000861J0000000D01*
G01*
X0117298Y0219488D01*
G75*
G02*
X0116437Y0220349I0000000J0000861D01*
G01*
X0116437Y0222072D01*
G75*
G02*
X0117298Y0222933I0000861J0000000D01*
G01*
G37*
G36*
G01*
X0117298Y0216732D02*
X0119316Y0216732D01*
G75*
G02*
X0120177Y0215871I0000000J-000861D01*
G01*
X0120177Y0214149D01*
G75*
G02*
X0119316Y0213287I-000861J0000000D01*
G01*
X0117298Y0213287D01*
G75*
G02*
X0116437Y0214149I0000000J0000861D01*
G01*
X0116437Y0215871D01*
G75*
G02*
X0117298Y0216732I0000861J0000000D01*
G01*
G37*
G36*
G01*
X0131732Y0116339D02*
X0134803Y0116339D01*
G75*
G02*
X0135079Y0116063I0000000J-000276D01*
G01*
X0135079Y0113858D01*
G75*
G02*
X0134803Y0113583I-000276J0000000D01*
G01*
X0131732Y0113583D01*
G75*
G02*
X0131457Y0113858I0000000J0000276D01*
G01*
X0131457Y0116063D01*
G75*
G02*
X0131732Y0116339I0000276J0000000D01*
G01*
G37*
G36*
G01*
X0131732Y0110039D02*
X0134803Y0110039D01*
G75*
G02*
X0135079Y0109764I0000000J-000276D01*
G01*
X0135079Y0107559D01*
G75*
G02*
X0134803Y0107283I-000276J0000000D01*
G01*
X0131732Y0107283D01*
G75*
G02*
X0131457Y0107559I0000000J0000276D01*
G01*
X0131457Y0109764D01*
G75*
G02*
X0131732Y0110039I0000276J0000000D01*
G01*
G37*
G36*
G01*
X0207028Y0323858D02*
X0207028Y0326535D01*
G75*
G02*
X0207362Y0326870I0000335J0000000D01*
G01*
X0210039Y0326870D01*
G75*
G02*
X0210374Y0326535I0000000J-000335D01*
G01*
X0210374Y0323858D01*
G75*
G02*
X0210039Y0323524I-000335J0000000D01*
G01*
X0207362Y0323524D01*
G75*
G02*
X0207028Y0323858I0000000J0000335D01*
G01*
G37*
G36*
G01*
X0213248Y0323858D02*
X0213248Y0326535D01*
G75*
G02*
X0213583Y0326870I0000335J0000000D01*
G01*
X0216260Y0326870D01*
G75*
G02*
X0216594Y0326535I0000000J-000335D01*
G01*
X0216594Y0323858D01*
G75*
G02*
X0216260Y0323524I-000335J0000000D01*
G01*
X0213583Y0323524D01*
G75*
G02*
X0213248Y0323858I0000000J0000335D01*
G01*
G37*
G36*
G01*
X0009370Y0345374D02*
X0010551Y0345374D01*
G75*
G02*
X0011142Y0344783I0000000J-000591D01*
G01*
X0011142Y0338287D01*
G75*
G02*
X0010551Y0337697I-000591J0000000D01*
G01*
X0009370Y0337697D01*
G75*
G02*
X0008780Y0338287I0000000J0000591D01*
G01*
X0008780Y0344783D01*
G75*
G02*
X0009370Y0345374I0000591J0000000D01*
G01*
G37*
G36*
G01*
X0014370Y0345374D02*
X0015551Y0345374D01*
G75*
G02*
X0016142Y0344783I0000000J-000591D01*
G01*
X0016142Y0338287D01*
G75*
G02*
X0015551Y0337697I-000591J0000000D01*
G01*
X0014370Y0337697D01*
G75*
G02*
X0013780Y0338287I0000000J0000591D01*
G01*
X0013780Y0344783D01*
G75*
G02*
X0014370Y0345374I0000591J0000000D01*
G01*
G37*
G36*
G01*
X0019370Y0345374D02*
X0020551Y0345374D01*
G75*
G02*
X0021142Y0344783I0000000J-000591D01*
G01*
X0021142Y0338287D01*
G75*
G02*
X0020551Y0337697I-000591J0000000D01*
G01*
X0019370Y0337697D01*
G75*
G02*
X0018780Y0338287I0000000J0000591D01*
G01*
X0018780Y0344783D01*
G75*
G02*
X0019370Y0345374I0000591J0000000D01*
G01*
G37*
G36*
G01*
X0024370Y0345374D02*
X0025551Y0345374D01*
G75*
G02*
X0026142Y0344783I0000000J-000591D01*
G01*
X0026142Y0338287D01*
G75*
G02*
X0025551Y0337697I-000591J0000000D01*
G01*
X0024370Y0337697D01*
G75*
G02*
X0023780Y0338287I0000000J0000591D01*
G01*
X0023780Y0344783D01*
G75*
G02*
X0024370Y0345374I0000591J0000000D01*
G01*
G37*
G36*
G01*
X0024370Y0325886D02*
X0025551Y0325886D01*
G75*
G02*
X0026142Y0325295I0000000J-000591D01*
G01*
X0026142Y0318799D01*
G75*
G02*
X0025551Y0318209I-000591J0000000D01*
G01*
X0024370Y0318209D01*
G75*
G02*
X0023780Y0318799I0000000J0000591D01*
G01*
X0023780Y0325295D01*
G75*
G02*
X0024370Y0325886I0000591J0000000D01*
G01*
G37*
G36*
G01*
X0019370Y0325886D02*
X0020551Y0325886D01*
G75*
G02*
X0021142Y0325295I0000000J-000591D01*
G01*
X0021142Y0318799D01*
G75*
G02*
X0020551Y0318209I-000591J0000000D01*
G01*
X0019370Y0318209D01*
G75*
G02*
X0018780Y0318799I0000000J0000591D01*
G01*
X0018780Y0325295D01*
G75*
G02*
X0019370Y0325886I0000591J0000000D01*
G01*
G37*
G36*
G01*
X0014370Y0325886D02*
X0015551Y0325886D01*
G75*
G02*
X0016142Y0325295I0000000J-000591D01*
G01*
X0016142Y0318799D01*
G75*
G02*
X0015551Y0318209I-000591J0000000D01*
G01*
X0014370Y0318209D01*
G75*
G02*
X0013780Y0318799I0000000J0000591D01*
G01*
X0013780Y0325295D01*
G75*
G02*
X0014370Y0325886I0000591J0000000D01*
G01*
G37*
G36*
G01*
X0009370Y0325886D02*
X0010551Y0325886D01*
G75*
G02*
X0011142Y0325295I0000000J-000591D01*
G01*
X0011142Y0318799D01*
G75*
G02*
X0010551Y0318209I-000591J0000000D01*
G01*
X0009370Y0318209D01*
G75*
G02*
X0008780Y0318799I0000000J0000591D01*
G01*
X0008780Y0325295D01*
G75*
G02*
X0009370Y0325886I0000591J0000000D01*
G01*
G37*
G36*
G01*
X0018268Y0160039D02*
X0015197Y0160039D01*
G75*
G02*
X0014921Y0160315I0000000J0000276D01*
G01*
X0014921Y0162520D01*
G75*
G02*
X0015197Y0162795I0000276J0000000D01*
G01*
X0018268Y0162795D01*
G75*
G02*
X0018543Y0162520I0000000J-000276D01*
G01*
X0018543Y0160315D01*
G75*
G02*
X0018268Y0160039I-000276J0000000D01*
G01*
G37*
G36*
G01*
X0018268Y0166339D02*
X0015197Y0166339D01*
G75*
G02*
X0014921Y0166614I0000000J0000276D01*
G01*
X0014921Y0168819D01*
G75*
G02*
X0015197Y0169094I0000276J0000000D01*
G01*
X0018268Y0169094D01*
G75*
G02*
X0018543Y0168819I0000000J-000276D01*
G01*
X0018543Y0166614D01*
G75*
G02*
X0018268Y0166339I-000276J0000000D01*
G01*
G37*
G36*
G01*
X0113789Y0213583D02*
X0110719Y0213583D01*
G75*
G02*
X0110443Y0213858I0000000J0000276D01*
G01*
X0110443Y0216063D01*
G75*
G02*
X0110719Y0216339I0000276J0000000D01*
G01*
X0113789Y0216339D01*
G75*
G02*
X0114065Y0216063I0000000J-000276D01*
G01*
X0114065Y0213858D01*
G75*
G02*
X0113789Y0213583I-000276J0000000D01*
G01*
G37*
G36*
G01*
X0113789Y0219882D02*
X0110719Y0219882D01*
G75*
G02*
X0110443Y0220157I0000000J0000276D01*
G01*
X0110443Y0222362D01*
G75*
G02*
X0110719Y0222638I0000276J0000000D01*
G01*
X0113789Y0222638D01*
G75*
G02*
X0114065Y0222362I0000000J-000276D01*
G01*
X0114065Y0220157D01*
G75*
G02*
X0113789Y0219882I-000276J0000000D01*
G01*
G37*
G36*
G01*
X0221432Y0339469D02*
X0223450Y0339469D01*
G75*
G02*
X0224311Y0338607I0000000J-000861D01*
G01*
X0224311Y0336885D01*
G75*
G02*
X0223450Y0336024I-000861J0000000D01*
G01*
X0221432Y0336024D01*
G75*
G02*
X0220571Y0336885I0000000J0000861D01*
G01*
X0220571Y0338607D01*
G75*
G02*
X0221432Y0339469I0000861J0000000D01*
G01*
G37*
G36*
G01*
X0221432Y0333268D02*
X0223450Y0333268D01*
G75*
G02*
X0224311Y0332406I0000000J-000861D01*
G01*
X0224311Y0330684D01*
G75*
G02*
X0223450Y0329823I-000861J0000000D01*
G01*
X0221432Y0329823D01*
G75*
G02*
X0220571Y0330684I0000000J0000861D01*
G01*
X0220571Y0332406D01*
G75*
G02*
X0221432Y0333268I0000861J0000000D01*
G01*
G37*
G36*
G01*
X0049599Y0047784D02*
X0053732Y0047784D01*
G75*
G02*
X0054126Y0047390I0000000J-000394D01*
G01*
X0054126Y0044241D01*
G75*
G02*
X0053732Y0043847I-000394J0000000D01*
G01*
X0049599Y0043847D01*
G75*
G02*
X0049205Y0044241I0000000J0000394D01*
G01*
X0049205Y0047390D01*
G75*
G02*
X0049599Y0047784I0000394J0000000D01*
G01*
G37*
G36*
G01*
X0049599Y0039910D02*
X0053732Y0039910D01*
G75*
G02*
X0054126Y0039516I0000000J-000394D01*
G01*
X0054126Y0036367D01*
G75*
G02*
X0053732Y0035973I-000394J0000000D01*
G01*
X0049599Y0035973D01*
G75*
G02*
X0049205Y0036367I0000000J0000394D01*
G01*
X0049205Y0039516D01*
G75*
G02*
X0049599Y0039910I0000394J0000000D01*
G01*
G37*
G36*
G01*
X0108169Y0113484D02*
X0108169Y0102264D01*
G75*
G02*
X0107185Y0101280I-000984J0000000D01*
G01*
X0104331Y0101280D01*
G75*
G02*
X0103346Y0102264I0000000J0000984D01*
G01*
X0103346Y0113484D01*
G75*
G02*
X0104331Y0114469I0000984J0000000D01*
G01*
X0107185Y0114469D01*
G75*
G02*
X0108169Y0113484I0000000J-000984D01*
G01*
G37*
G36*
G01*
X0084843Y0113484D02*
X0084843Y0102264D01*
G75*
G02*
X0083858Y0101280I-000984J0000000D01*
G01*
X0081004Y0101280D01*
G75*
G02*
X0080020Y0102264I0000000J0000984D01*
G01*
X0080020Y0113484D01*
G75*
G02*
X0081004Y0114469I0000984J0000000D01*
G01*
X0083858Y0114469D01*
G75*
G02*
X0084843Y0113484I0000000J-000984D01*
G01*
G37*
G36*
G01*
X0034055Y0052992D02*
X0029921Y0052992D01*
G75*
G02*
X0029528Y0053386I0000000J0000394D01*
G01*
X0029528Y0056535D01*
G75*
G02*
X0029921Y0056929I0000394J0000000D01*
G01*
X0034055Y0056929D01*
G75*
G02*
X0034449Y0056535I0000000J-000394D01*
G01*
X0034449Y0053386D01*
G75*
G02*
X0034055Y0052992I-000394J0000000D01*
G01*
G37*
G36*
G01*
X0034055Y0060866D02*
X0029921Y0060866D01*
G75*
G02*
X0029528Y0061260I0000000J0000394D01*
G01*
X0029528Y0064409D01*
G75*
G02*
X0029921Y0064803I0000394J0000000D01*
G01*
X0034055Y0064803D01*
G75*
G02*
X0034449Y0064409I0000000J-000394D01*
G01*
X0034449Y0061260D01*
G75*
G02*
X0034055Y0060866I-000394J0000000D01*
G01*
G37*
G36*
G01*
X0041929Y0052992D02*
X0037795Y0052992D01*
G75*
G02*
X0037402Y0053386I0000000J0000394D01*
G01*
X0037402Y0056535D01*
G75*
G02*
X0037795Y0056929I0000394J0000000D01*
G01*
X0041929Y0056929D01*
G75*
G02*
X0042323Y0056535I0000000J-000394D01*
G01*
X0042323Y0053386D01*
G75*
G02*
X0041929Y0052992I-000394J0000000D01*
G01*
G37*
G36*
G01*
X0041929Y0060866D02*
X0037795Y0060866D01*
G75*
G02*
X0037402Y0061260I0000000J0000394D01*
G01*
X0037402Y0064409D01*
G75*
G02*
X0037795Y0064803I0000394J0000000D01*
G01*
X0041929Y0064803D01*
G75*
G02*
X0042323Y0064409I0000000J-000394D01*
G01*
X0042323Y0061260D01*
G75*
G02*
X0041929Y0060866I-000394J0000000D01*
G01*
G37*
G36*
G01*
X0018307Y0052992D02*
X0014173Y0052992D01*
G75*
G02*
X0013780Y0053386I0000000J0000394D01*
G01*
X0013780Y0056535D01*
G75*
G02*
X0014173Y0056929I0000394J0000000D01*
G01*
X0018307Y0056929D01*
G75*
G02*
X0018701Y0056535I0000000J-000394D01*
G01*
X0018701Y0053386D01*
G75*
G02*
X0018307Y0052992I-000394J0000000D01*
G01*
G37*
G36*
G01*
X0018307Y0060866D02*
X0014173Y0060866D01*
G75*
G02*
X0013780Y0061260I0000000J0000394D01*
G01*
X0013780Y0064409D01*
G75*
G02*
X0014173Y0064803I0000394J0000000D01*
G01*
X0018307Y0064803D01*
G75*
G02*
X0018701Y0064409I0000000J-000394D01*
G01*
X0018701Y0061260D01*
G75*
G02*
X0018307Y0060866I-000394J0000000D01*
G01*
G37*
G36*
G01*
X0022047Y0080551D02*
X0026181Y0080551D01*
G75*
G02*
X0026575Y0080157I0000000J-000394D01*
G01*
X0026575Y0077008D01*
G75*
G02*
X0026181Y0076614I-000394J0000000D01*
G01*
X0022047Y0076614D01*
G75*
G02*
X0021654Y0077008I0000000J0000394D01*
G01*
X0021654Y0080157D01*
G75*
G02*
X0022047Y0080551I0000394J0000000D01*
G01*
G37*
G36*
G01*
X0022047Y0072677D02*
X0026181Y0072677D01*
G75*
G02*
X0026575Y0072283I0000000J-000394D01*
G01*
X0026575Y0069134D01*
G75*
G02*
X0026181Y0068740I-000394J0000000D01*
G01*
X0022047Y0068740D01*
G75*
G02*
X0021654Y0069134I0000000J0000394D01*
G01*
X0021654Y0072283D01*
G75*
G02*
X0022047Y0072677I0000394J0000000D01*
G01*
G37*
G36*
G01*
X0073221Y0047784D02*
X0077355Y0047784D01*
G75*
G02*
X0077748Y0047390I0000000J-000394D01*
G01*
X0077748Y0044241D01*
G75*
G02*
X0077355Y0043847I-000394J0000000D01*
G01*
X0073221Y0043847D01*
G75*
G02*
X0072827Y0044241I0000000J0000394D01*
G01*
X0072827Y0047390D01*
G75*
G02*
X0073221Y0047784I0000394J0000000D01*
G01*
G37*
G36*
G01*
X0073221Y0039910D02*
X0077355Y0039910D01*
G75*
G02*
X0077748Y0039516I0000000J-000394D01*
G01*
X0077748Y0036367D01*
G75*
G02*
X0077355Y0035973I-000394J0000000D01*
G01*
X0073221Y0035973D01*
G75*
G02*
X0072827Y0036367I0000000J0000394D01*
G01*
X0072827Y0039516D01*
G75*
G02*
X0073221Y0039910I0000394J0000000D01*
G01*
G37*
G36*
G01*
X0120827Y0297441D02*
X0117756Y0297441D01*
G75*
G02*
X0117480Y0297717I0000000J0000276D01*
G01*
X0117480Y0299921D01*
G75*
G02*
X0117756Y0300197I0000276J0000000D01*
G01*
X0120827Y0300197D01*
G75*
G02*
X0121102Y0299921I0000000J-000276D01*
G01*
X0121102Y0297717D01*
G75*
G02*
X0120827Y0297441I-000276J0000000D01*
G01*
G37*
G36*
G01*
X0120827Y0303740D02*
X0117756Y0303740D01*
G75*
G02*
X0117480Y0304016I0000000J0000276D01*
G01*
X0117480Y0306220D01*
G75*
G02*
X0117756Y0306496I0000276J0000000D01*
G01*
X0120827Y0306496D01*
G75*
G02*
X0121102Y0306220I0000000J-000276D01*
G01*
X0121102Y0304016D01*
G75*
G02*
X0120827Y0303740I-000276J0000000D01*
G01*
G37*
G36*
G01*
X0053732Y0020225D02*
X0049599Y0020225D01*
G75*
G02*
X0049205Y0020619I0000000J0000394D01*
G01*
X0049205Y0023768D01*
G75*
G02*
X0049599Y0024162I0000394J0000000D01*
G01*
X0053732Y0024162D01*
G75*
G02*
X0054126Y0023768I0000000J-000394D01*
G01*
X0054126Y0020619D01*
G75*
G02*
X0053732Y0020225I-000394J0000000D01*
G01*
G37*
G36*
G01*
X0053732Y0028099D02*
X0049599Y0028099D01*
G75*
G02*
X0049205Y0028493I0000000J0000394D01*
G01*
X0049205Y0031642D01*
G75*
G02*
X0049599Y0032036I0000394J0000000D01*
G01*
X0053732Y0032036D01*
G75*
G02*
X0054126Y0031642I0000000J-000394D01*
G01*
X0054126Y0028493D01*
G75*
G02*
X0053732Y0028099I-000394J0000000D01*
G01*
G37*
G36*
G01*
X0222480Y0247835D02*
X0225551Y0247835D01*
G75*
G02*
X0225827Y0247559I0000000J-000276D01*
G01*
X0225827Y0245354D01*
G75*
G02*
X0225551Y0245079I-000276J0000000D01*
G01*
X0222480Y0245079D01*
G75*
G02*
X0222205Y0245354I0000000J0000276D01*
G01*
X0222205Y0247559D01*
G75*
G02*
X0222480Y0247835I0000276J0000000D01*
G01*
G37*
G36*
G01*
X0222480Y0241535D02*
X0225551Y0241535D01*
G75*
G02*
X0225827Y0241260I0000000J-000276D01*
G01*
X0225827Y0239055D01*
G75*
G02*
X0225551Y0238780I-000276J0000000D01*
G01*
X0222480Y0238780D01*
G75*
G02*
X0222205Y0239055I0000000J0000276D01*
G01*
X0222205Y0241260D01*
G75*
G02*
X0222480Y0241535I0000276J0000000D01*
G01*
G37*
G36*
G01*
X0301378Y0284213D02*
X0301378Y0281142D01*
G75*
G02*
X0301102Y0280866I-000276J0000000D01*
G01*
X0298898Y0280866D01*
G75*
G02*
X0298622Y0281142I0000000J0000276D01*
G01*
X0298622Y0284213D01*
G75*
G02*
X0298898Y0284488I0000276J0000000D01*
G01*
X0301102Y0284488D01*
G75*
G02*
X0301378Y0284213I0000000J-000276D01*
G01*
G37*
G36*
G01*
X0295079Y0284213D02*
X0295079Y0281142D01*
G75*
G02*
X0294803Y0280866I-000276J0000000D01*
G01*
X0292598Y0280866D01*
G75*
G02*
X0292323Y0281142I0000000J0000276D01*
G01*
X0292323Y0284213D01*
G75*
G02*
X0292598Y0284488I0000276J0000000D01*
G01*
X0294803Y0284488D01*
G75*
G02*
X0295079Y0284213I0000000J-000276D01*
G01*
G37*
G36*
G01*
X0064528Y0078150D02*
X0061457Y0078150D01*
G75*
G02*
X0061181Y0078425I0000000J0000276D01*
G01*
X0061181Y0080630D01*
G75*
G02*
X0061457Y0080906I0000276J0000000D01*
G01*
X0064528Y0080906D01*
G75*
G02*
X0064803Y0080630I0000000J-000276D01*
G01*
X0064803Y0078425D01*
G75*
G02*
X0064528Y0078150I-000276J0000000D01*
G01*
G37*
G36*
G01*
X0064528Y0084449D02*
X0061457Y0084449D01*
G75*
G02*
X0061181Y0084724I0000000J0000276D01*
G01*
X0061181Y0086929D01*
G75*
G02*
X0061457Y0087205I0000276J0000000D01*
G01*
X0064528Y0087205D01*
G75*
G02*
X0064803Y0086929I0000000J-000276D01*
G01*
X0064803Y0084724D01*
G75*
G02*
X0064528Y0084449I-000276J0000000D01*
G01*
G37*
G36*
G01*
X0051772Y0164921D02*
X0051772Y0161850D01*
G75*
G02*
X0051496Y0161575I-000276J0000000D01*
G01*
X0049291Y0161575D01*
G75*
G02*
X0049016Y0161850I0000000J0000276D01*
G01*
X0049016Y0164921D01*
G75*
G02*
X0049291Y0165197I0000276J0000000D01*
G01*
X0051496Y0165197D01*
G75*
G02*
X0051772Y0164921I0000000J-000276D01*
G01*
G37*
G36*
G01*
X0045472Y0164921D02*
X0045472Y0161850D01*
G75*
G02*
X0045197Y0161575I-000276J0000000D01*
G01*
X0042992Y0161575D01*
G75*
G02*
X0042717Y0161850I0000000J0000276D01*
G01*
X0042717Y0164921D01*
G75*
G02*
X0042992Y0165197I0000276J0000000D01*
G01*
X0045197Y0165197D01*
G75*
G02*
X0045472Y0164921I0000000J-000276D01*
G01*
G37*
G36*
G01*
X0113287Y0305709D02*
X0113287Y0304528D01*
G75*
G02*
X0112697Y0303937I-000591J0000000D01*
G01*
X0106201Y0303937D01*
G75*
G02*
X0105610Y0304528I0000000J0000591D01*
G01*
X0105610Y0305709D01*
G75*
G02*
X0106201Y0306299I0000591J0000000D01*
G01*
X0112697Y0306299D01*
G75*
G02*
X0113287Y0305709I0000000J-000591D01*
G01*
G37*
G36*
G01*
X0113287Y0300709D02*
X0113287Y0299528D01*
G75*
G02*
X0112697Y0298937I-000591J0000000D01*
G01*
X0106201Y0298937D01*
G75*
G02*
X0105610Y0299528I0000000J0000591D01*
G01*
X0105610Y0300709D01*
G75*
G02*
X0106201Y0301299I0000591J0000000D01*
G01*
X0112697Y0301299D01*
G75*
G02*
X0113287Y0300709I0000000J-000591D01*
G01*
G37*
G36*
G01*
X0113287Y0295709D02*
X0113287Y0294528D01*
G75*
G02*
X0112697Y0293937I-000591J0000000D01*
G01*
X0106201Y0293937D01*
G75*
G02*
X0105610Y0294528I0000000J0000591D01*
G01*
X0105610Y0295709D01*
G75*
G02*
X0106201Y0296299I0000591J0000000D01*
G01*
X0112697Y0296299D01*
G75*
G02*
X0113287Y0295709I0000000J-000591D01*
G01*
G37*
G36*
G01*
X0113287Y0290709D02*
X0113287Y0289528D01*
G75*
G02*
X0112697Y0288937I-000591J0000000D01*
G01*
X0106201Y0288937D01*
G75*
G02*
X0105610Y0289528I0000000J0000591D01*
G01*
X0105610Y0290709D01*
G75*
G02*
X0106201Y0291299I0000591J0000000D01*
G01*
X0112697Y0291299D01*
G75*
G02*
X0113287Y0290709I0000000J-000591D01*
G01*
G37*
G36*
G01*
X0093799Y0290709D02*
X0093799Y0289528D01*
G75*
G02*
X0093209Y0288937I-000591J0000000D01*
G01*
X0086713Y0288937D01*
G75*
G02*
X0086122Y0289528I0000000J0000591D01*
G01*
X0086122Y0290709D01*
G75*
G02*
X0086713Y0291299I0000591J0000000D01*
G01*
X0093209Y0291299D01*
G75*
G02*
X0093799Y0290709I0000000J-000591D01*
G01*
G37*
G36*
G01*
X0093799Y0295709D02*
X0093799Y0294528D01*
G75*
G02*
X0093209Y0293937I-000591J0000000D01*
G01*
X0086713Y0293937D01*
G75*
G02*
X0086122Y0294528I0000000J0000591D01*
G01*
X0086122Y0295709D01*
G75*
G02*
X0086713Y0296299I0000591J0000000D01*
G01*
X0093209Y0296299D01*
G75*
G02*
X0093799Y0295709I0000000J-000591D01*
G01*
G37*
G36*
G01*
X0093799Y0300709D02*
X0093799Y0299528D01*
G75*
G02*
X0093209Y0298937I-000591J0000000D01*
G01*
X0086713Y0298937D01*
G75*
G02*
X0086122Y0299528I0000000J0000591D01*
G01*
X0086122Y0300709D01*
G75*
G02*
X0086713Y0301299I0000591J0000000D01*
G01*
X0093209Y0301299D01*
G75*
G02*
X0093799Y0300709I0000000J-000591D01*
G01*
G37*
G36*
G01*
X0093799Y0305709D02*
X0093799Y0304528D01*
G75*
G02*
X0093209Y0303937I-000591J0000000D01*
G01*
X0086713Y0303937D01*
G75*
G02*
X0086122Y0304528I0000000J0000591D01*
G01*
X0086122Y0305709D01*
G75*
G02*
X0086713Y0306299I0000591J0000000D01*
G01*
X0093209Y0306299D01*
G75*
G02*
X0093799Y0305709I0000000J-000591D01*
G01*
G37*
X0096949Y0004823D02*
G01*
G75*
D121*
X0126864Y0081201D02*
D03*
X0113872Y0081201D02*
D03*
D122*
X0146724Y0081595D02*
D03*
X0135307Y0081595D02*
D03*
X0146724Y0073563D02*
D03*
X0135307Y0073563D02*
D03*
D125*
X0109351Y0059547D02*
D03*
X0109351Y0063484D02*
D03*
X0106004Y0074114D02*
D03*
X0114666Y0074114D02*
D03*
X0105217Y0068866D02*
D03*
X0113878Y0068866D02*
D03*
D126*
X0117104Y0016240D02*
D03*
X0113560Y0016240D02*
D03*
X0126495Y0052973D02*
D03*
X0130039Y0052973D02*
D03*
X0118498Y0068078D02*
D03*
X0122041Y0068078D02*
D03*
X0125722Y0016240D02*
D03*
X0122179Y0016240D02*
D03*
X0105217Y0020177D02*
D03*
X0108760Y0020177D02*
D03*
D127*
X0130702Y0069653D02*
D03*
X0130702Y0073197D02*
D03*
X0109935Y0082055D02*
D03*
X0109935Y0078511D02*
D03*
X0158699Y0023738D02*
D03*
X0158699Y0027282D02*
D03*
D128*
X0162697Y0022933D02*
D03*
X0162697Y0018996D02*
D03*
D129*
X0099902Y0076476D02*
D03*
X0099902Y0009547D02*
D03*
X0099902Y0056988D02*
D03*
X0160925Y0056791D02*
D03*
X0160925Y0081988D02*
D03*
X0160925Y0032382D02*
D03*
X0160925Y0049311D02*
D03*
X0160925Y0007776D02*
D03*
X0099902Y0083760D02*
D03*
D137*
X0154823Y0082776D02*
D03*
X0154823Y0074114D02*
D03*
X0116907Y0020177D02*
D03*
X0112970Y0020177D02*
D03*
X0121588Y0020177D02*
D03*
X0125525Y0020177D02*
D03*
X0118301Y0074114D02*
D03*
X0122238Y0074114D02*
D03*
X0141234Y0052500D02*
D03*
X0145171Y0052500D02*
D03*
X0149010Y0015059D02*
D03*
X0145072Y0015059D02*
D03*
D138*
X0146162Y0061122D02*
D03*
X0135138Y0061122D02*
D03*
D139*
X0113484Y0056799D02*
D03*
X0113484Y0063019D02*
D03*
X0127578Y0056799D02*
D03*
X0127578Y0063019D02*
D03*
X0122887Y0056799D02*
D03*
X0122887Y0063019D02*
D03*
X0118195Y0056799D02*
D03*
X0118195Y0063019D02*
D03*
X0126397Y0069043D02*
D03*
X0126397Y0075264D02*
D03*
D140*
X0122021Y0026937D02*
D03*
X0117021Y0026937D02*
D03*
X0112021Y0026937D02*
D03*
X0107021Y0026937D02*
D03*
X0122021Y0049574D02*
D03*
X0117021Y0049574D02*
D03*
X0112021Y0049574D02*
D03*
X0107021Y0049574D02*
D03*
X0145088Y0021654D02*
D03*
X0140088Y0021654D02*
D03*
X0135088Y0021654D02*
D03*
X0130088Y0021654D02*
D03*
X0145088Y0045079D02*
D03*
X0140088Y0045079D02*
D03*
X0135088Y0045079D02*
D03*
X0130088Y0045079D02*
D03*
D141*
X0114521Y0038255D02*
D03*
D142*
X0137588Y0033366D02*
D03*
X0303051Y0323327D02*
G01*
G75*
D128*
X0313287Y0287894D02*
D03*
X0309547Y0287894D02*
D03*
X0305807Y0287894D02*
D03*
X0309744Y0322146D02*
D03*
X0313287Y0322146D02*
D03*
D295*
X0313287Y0295374D02*
D03*
X0313287Y0291437D02*
D03*
X0313287Y0306497D02*
D03*
X0313287Y0310434D02*
D03*
X0313287Y0314863D02*
D03*
X0313287Y0318800D02*
D03*
X0306004Y0295374D02*
D03*
X0306004Y0291437D02*
D03*
D296*
X0305807Y0298759D02*
D03*
X0309350Y0298759D02*
D03*
D297*
X0312520Y0302644D02*
D03*
X0306299Y0302644D02*
D03*
D298*
X0309350Y0315256D02*
D03*
X0309350Y0318799D02*
D03*
X0305807Y0306890D02*
D03*
X0305807Y0310433D02*
D03*
X0309408Y0292028D02*
D03*
X0309408Y0295571D02*
D03*
X0305807Y0318799D02*
D03*
X0305807Y0315256D02*
D03*
X0166437Y0305020D02*
%LPD*%
G01*
D15*
X0193602Y0246752D03*
X0188878Y0246752D03*
X0198327Y0246752D03*
X0203051Y0246752D03*
X0177618Y0303544D03*
X0173681Y0303544D03*
G36*
G01*
X0197031Y0288091D02*
X0195850Y0288091D01*
G75*
G02*
X0195259Y0288681I0000000J0000591D01*
G01*
X0195259Y0292717D01*
G75*
G02*
X0195850Y0293307I0000591J0000000D01*
G01*
X0197031Y0293307D01*
G75*
G02*
X0197621Y0292717I0000000J-000591D01*
G01*
X0197621Y0288681D01*
G75*
G02*
X0197031Y0288091I-000591J0000000D01*
G01*
G37*
G36*
G01*
X0193290Y0288091D02*
X0192109Y0288091D01*
G75*
G02*
X0191519Y0288681I0000000J0000591D01*
G01*
X0191519Y0292717D01*
G75*
G02*
X0192109Y0293307I0000591J0000000D01*
G01*
X0193290Y0293307D01*
G75*
G02*
X0193881Y0292717I0000000J-000591D01*
G01*
X0193881Y0288681D01*
G75*
G02*
X0193290Y0288091I-000591J0000000D01*
G01*
G37*
G36*
G01*
X0189550Y0288091D02*
X0188369Y0288091D01*
G75*
G02*
X0187779Y0288681I0000000J0000591D01*
G01*
X0187779Y0292717D01*
G75*
G02*
X0188369Y0293307I0000591J0000000D01*
G01*
X0189550Y0293307D01*
G75*
G02*
X0190141Y0292717I0000000J-000591D01*
G01*
X0190141Y0288681D01*
G75*
G02*
X0189550Y0288091I-000591J0000000D01*
G01*
G37*
G36*
G01*
X0189550Y0297048D02*
X0188369Y0297048D01*
G75*
G02*
X0187779Y0297638I0000000J0000591D01*
G01*
X0187779Y0301674D01*
G75*
G02*
X0188369Y0302264I0000591J0000000D01*
G01*
X0189550Y0302264D01*
G75*
G02*
X0190141Y0301674I0000000J-000591D01*
G01*
X0190141Y0297638D01*
G75*
G02*
X0189550Y0297048I-000591J0000000D01*
G01*
G37*
G36*
G01*
X0197031Y0297048D02*
X0195850Y0297048D01*
G75*
G02*
X0195259Y0297638I0000000J0000591D01*
G01*
X0195259Y0301674D01*
G75*
G02*
X0195850Y0302264I0000591J0000000D01*
G01*
X0197031Y0302264D01*
G75*
G02*
X0197621Y0301674I0000000J-000591D01*
G01*
X0197621Y0297638D01*
G75*
G02*
X0197031Y0297048I-000591J0000000D01*
G01*
G37*
G36*
G01*
X0174744Y0288366D02*
X0174744Y0287028D01*
G75*
G02*
X0174193Y0286477I-000551J0000000D01*
G01*
X0173091Y0286477D01*
G75*
G02*
X0172539Y0287028I0000000J0000551D01*
G01*
X0172539Y0288366D01*
G75*
G02*
X0173091Y0288918I0000551J0000000D01*
G01*
X0174193Y0288918D01*
G75*
G02*
X0174744Y0288366I0000000J-000551D01*
G01*
G37*
G36*
G01*
X0170965Y0288366D02*
X0170965Y0287028D01*
G75*
G02*
X0170413Y0286477I-000551J0000000D01*
G01*
X0169311Y0286477D01*
G75*
G02*
X0168760Y0287028I0000000J0000551D01*
G01*
X0168760Y0288366D01*
G75*
G02*
X0169311Y0288918I0000551J0000000D01*
G01*
X0170413Y0288918D01*
G75*
G02*
X0170965Y0288366I0000000J-000551D01*
G01*
G37*
G36*
G01*
X0197461Y0261851D02*
X0198799Y0261851D01*
G75*
G02*
X0199350Y0261300I0000000J-000551D01*
G01*
X0199350Y0260197D01*
G75*
G02*
X0198799Y0259646I-000551J0000000D01*
G01*
X0197461Y0259646D01*
G75*
G02*
X0196909Y0260197I0000000J0000551D01*
G01*
X0196909Y0261300D01*
G75*
G02*
X0197461Y0261851I0000551J0000000D01*
G01*
G37*
G36*
G01*
X0197461Y0258071D02*
X0198799Y0258071D01*
G75*
G02*
X0199350Y0257520I0000000J-000551D01*
G01*
X0199350Y0256418D01*
G75*
G02*
X0198799Y0255866I-000551J0000000D01*
G01*
X0197461Y0255866D01*
G75*
G02*
X0196909Y0256418I0000000J0000551D01*
G01*
X0196909Y0257520D01*
G75*
G02*
X0197461Y0258071I0000551J0000000D01*
G01*
G37*
G36*
G01*
X0202461Y0248504D02*
X0201122Y0248504D01*
G75*
G02*
X0200571Y0249055I0000000J0000551D01*
G01*
X0200571Y0250158D01*
G75*
G02*
X0201122Y0250709I0000551J0000000D01*
G01*
X0202461Y0250709D01*
G75*
G02*
X0203012Y0250158I0000000J-000551D01*
G01*
X0203012Y0249055D01*
G75*
G02*
X0202461Y0248504I-000551J0000000D01*
G01*
G37*
G36*
G01*
X0202461Y0252284D02*
X0201122Y0252284D01*
G75*
G02*
X0200571Y0252835I0000000J0000551D01*
G01*
X0200571Y0253937D01*
G75*
G02*
X0201122Y0254489I0000551J0000000D01*
G01*
X0202461Y0254489D01*
G75*
G02*
X0203012Y0253937I0000000J-000551D01*
G01*
X0203012Y0252835D01*
G75*
G02*
X0202461Y0252284I-000551J0000000D01*
G01*
G37*
G36*
G01*
X0193720Y0270256D02*
X0195059Y0270256D01*
G75*
G02*
X0195610Y0269705I0000000J-000551D01*
G01*
X0195610Y0268603D01*
G75*
G02*
X0195059Y0268051I-000551J0000000D01*
G01*
X0193720Y0268051D01*
G75*
G02*
X0193169Y0268603I0000000J0000551D01*
G01*
X0193169Y0269705D01*
G75*
G02*
X0193720Y0270256I0000551J0000000D01*
G01*
G37*
G36*
G01*
X0193720Y0266477D02*
X0195059Y0266477D01*
G75*
G02*
X0195610Y0265926I0000000J-000551D01*
G01*
X0195610Y0264823D01*
G75*
G02*
X0195059Y0264272I-000551J0000000D01*
G01*
X0193720Y0264272D01*
G75*
G02*
X0193169Y0264823I0000000J0000551D01*
G01*
X0193169Y0265926D01*
G75*
G02*
X0193720Y0266477I0000551J0000000D01*
G01*
G37*
G36*
G01*
X0198799Y0248701D02*
X0197461Y0248701D01*
G75*
G02*
X0196909Y0249252I0000000J0000551D01*
G01*
X0196909Y0250355D01*
G75*
G02*
X0197461Y0250906I0000551J0000000D01*
G01*
X0198799Y0250906D01*
G75*
G02*
X0199350Y0250355I0000000J-000551D01*
G01*
X0199350Y0249252D01*
G75*
G02*
X0198799Y0248701I-000551J0000000D01*
G01*
G37*
G36*
G01*
X0198799Y0252481D02*
X0197461Y0252481D01*
G75*
G02*
X0196909Y0253032I0000000J0000551D01*
G01*
X0196909Y0254134D01*
G75*
G02*
X0197461Y0254685I0000551J0000000D01*
G01*
X0198799Y0254685D01*
G75*
G02*
X0199350Y0254134I0000000J-000551D01*
G01*
X0199350Y0253032D01*
G75*
G02*
X0198799Y0252481I-000551J0000000D01*
G01*
G37*
G36*
G01*
X0177283Y0253977D02*
X0178622Y0253977D01*
G75*
G02*
X0179173Y0253426I0000000J-000551D01*
G01*
X0179173Y0252323D01*
G75*
G02*
X0178622Y0251772I-000551J0000000D01*
G01*
X0177283Y0251772D01*
G75*
G02*
X0176732Y0252323I0000000J0000551D01*
G01*
X0176732Y0253426D01*
G75*
G02*
X0177283Y0253977I0000551J0000000D01*
G01*
G37*
G36*
G01*
X0177283Y0250197D02*
X0178622Y0250197D01*
G75*
G02*
X0179173Y0249646I0000000J-000551D01*
G01*
X0179173Y0248544D01*
G75*
G02*
X0178622Y0247992I-000551J0000000D01*
G01*
X0177283Y0247992D01*
G75*
G02*
X0176732Y0248544I0000000J0000551D01*
G01*
X0176732Y0249646D01*
G75*
G02*
X0177283Y0250197I0000551J0000000D01*
G01*
G37*
G36*
G01*
X0169783Y0284486D02*
X0170571Y0284486D01*
G75*
G02*
X0170965Y0284092I0000000J-000394D01*
G01*
X0170965Y0279072D01*
G75*
G02*
X0170571Y0278679I-000394J0000000D01*
G01*
X0169783Y0278679D01*
G75*
G02*
X0169390Y0279072I0000000J0000394D01*
G01*
X0169390Y0284092D01*
G75*
G02*
X0169783Y0284486I0000394J0000000D01*
G01*
G37*
G36*
G01*
X0172343Y0284486D02*
X0173130Y0284486D01*
G75*
G02*
X0173524Y0284092I0000000J-000394D01*
G01*
X0173524Y0279072D01*
G75*
G02*
X0173130Y0278679I-000394J0000000D01*
G01*
X0172343Y0278679D01*
G75*
G02*
X0171949Y0279072I0000000J0000394D01*
G01*
X0171949Y0284092D01*
G75*
G02*
X0172343Y0284486I0000394J0000000D01*
G01*
G37*
G36*
G01*
X0174902Y0284486D02*
X0175689Y0284486D01*
G75*
G02*
X0176083Y0284092I0000000J-000394D01*
G01*
X0176083Y0279072D01*
G75*
G02*
X0175689Y0278679I-000394J0000000D01*
G01*
X0174902Y0278679D01*
G75*
G02*
X0174508Y0279072I0000000J0000394D01*
G01*
X0174508Y0284092D01*
G75*
G02*
X0174902Y0284486I0000394J0000000D01*
G01*
G37*
G36*
G01*
X0177461Y0284486D02*
X0178248Y0284486D01*
G75*
G02*
X0178642Y0284092I0000000J-000394D01*
G01*
X0178642Y0279072D01*
G75*
G02*
X0178248Y0278679I-000394J0000000D01*
G01*
X0177461Y0278679D01*
G75*
G02*
X0177067Y0279072I0000000J0000394D01*
G01*
X0177067Y0284092D01*
G75*
G02*
X0177461Y0284486I0000394J0000000D01*
G01*
G37*
G36*
G01*
X0180020Y0284486D02*
X0180807Y0284486D01*
G75*
G02*
X0181201Y0284092I0000000J-000394D01*
G01*
X0181201Y0279072D01*
G75*
G02*
X0180807Y0278679I-000394J0000000D01*
G01*
X0180020Y0278679D01*
G75*
G02*
X0179626Y0279072I0000000J0000394D01*
G01*
X0179626Y0284092D01*
G75*
G02*
X0180020Y0284486I0000394J0000000D01*
G01*
G37*
G36*
G01*
X0182579Y0284486D02*
X0183366Y0284486D01*
G75*
G02*
X0183760Y0284092I0000000J-000394D01*
G01*
X0183760Y0279072D01*
G75*
G02*
X0183366Y0278679I-000394J0000000D01*
G01*
X0182579Y0278679D01*
G75*
G02*
X0182185Y0279072I0000000J0000394D01*
G01*
X0182185Y0284092D01*
G75*
G02*
X0182579Y0284486I0000394J0000000D01*
G01*
G37*
G36*
G01*
X0185138Y0284486D02*
X0185925Y0284486D01*
G75*
G02*
X0186319Y0284092I0000000J-000394D01*
G01*
X0186319Y0279072D01*
G75*
G02*
X0185925Y0278679I-000394J0000000D01*
G01*
X0185138Y0278679D01*
G75*
G02*
X0184744Y0279072I0000000J0000394D01*
G01*
X0184744Y0284092D01*
G75*
G02*
X0185138Y0284486I0000394J0000000D01*
G01*
G37*
G36*
G01*
X0185138Y0261946D02*
X0185925Y0261946D01*
G75*
G02*
X0186319Y0261553I0000000J-000394D01*
G01*
X0186319Y0256533D01*
G75*
G02*
X0185925Y0256139I-000394J0000000D01*
G01*
X0185138Y0256139D01*
G75*
G02*
X0184744Y0256533I0000000J0000394D01*
G01*
X0184744Y0261553D01*
G75*
G02*
X0185138Y0261946I0000394J0000000D01*
G01*
G37*
G36*
G01*
X0182579Y0261946D02*
X0183366Y0261946D01*
G75*
G02*
X0183760Y0261553I0000000J-000394D01*
G01*
X0183760Y0256533D01*
G75*
G02*
X0183366Y0256139I-000394J0000000D01*
G01*
X0182579Y0256139D01*
G75*
G02*
X0182185Y0256533I0000000J0000394D01*
G01*
X0182185Y0261553D01*
G75*
G02*
X0182579Y0261946I0000394J0000000D01*
G01*
G37*
G36*
G01*
X0180020Y0261946D02*
X0180807Y0261946D01*
G75*
G02*
X0181201Y0261553I0000000J-000394D01*
G01*
X0181201Y0256533D01*
G75*
G02*
X0180807Y0256139I-000394J0000000D01*
G01*
X0180020Y0256139D01*
G75*
G02*
X0179626Y0256533I0000000J0000394D01*
G01*
X0179626Y0261553D01*
G75*
G02*
X0180020Y0261946I0000394J0000000D01*
G01*
G37*
G36*
G01*
X0177461Y0261946D02*
X0178248Y0261946D01*
G75*
G02*
X0178642Y0261553I0000000J-000394D01*
G01*
X0178642Y0256533D01*
G75*
G02*
X0178248Y0256139I-000394J0000000D01*
G01*
X0177461Y0256139D01*
G75*
G02*
X0177067Y0256533I0000000J0000394D01*
G01*
X0177067Y0261553D01*
G75*
G02*
X0177461Y0261946I0000394J0000000D01*
G01*
G37*
G36*
G01*
X0174902Y0261946D02*
X0175689Y0261946D01*
G75*
G02*
X0176083Y0261553I0000000J-000394D01*
G01*
X0176083Y0256533D01*
G75*
G02*
X0175689Y0256139I-000394J0000000D01*
G01*
X0174902Y0256139D01*
G75*
G02*
X0174508Y0256533I0000000J0000394D01*
G01*
X0174508Y0261553D01*
G75*
G02*
X0174902Y0261946I0000394J0000000D01*
G01*
G37*
G36*
G01*
X0172343Y0261946D02*
X0173130Y0261946D01*
G75*
G02*
X0173524Y0261553I0000000J-000394D01*
G01*
X0173524Y0256533D01*
G75*
G02*
X0173130Y0256139I-000394J0000000D01*
G01*
X0172343Y0256139D01*
G75*
G02*
X0171949Y0256533I0000000J0000394D01*
G01*
X0171949Y0261553D01*
G75*
G02*
X0172343Y0261946I0000394J0000000D01*
G01*
G37*
G36*
G01*
X0169783Y0261946D02*
X0170571Y0261946D01*
G75*
G02*
X0170965Y0261553I0000000J-000394D01*
G01*
X0170965Y0256533D01*
G75*
G02*
X0170571Y0256139I-000394J0000000D01*
G01*
X0169783Y0256139D01*
G75*
G02*
X0169390Y0256533I0000000J0000394D01*
G01*
X0169390Y0261553D01*
G75*
G02*
X0169783Y0261946I0000394J0000000D01*
G01*
G37*
G36*
G01*
X0177654Y0302129D02*
X0181197Y0302129D01*
G75*
G02*
X0182181Y0301145I0000000J-000984D01*
G01*
X0182181Y0299078D01*
G75*
G02*
X0181197Y0298094I-000984J0000000D01*
G01*
X0177654Y0298094D01*
G75*
G02*
X0176669Y0299078I0000000J0000984D01*
G01*
X0176669Y0301145D01*
G75*
G02*
X0177654Y0302129I0000984J0000000D01*
G01*
G37*
G36*
G01*
X0177654Y0294944D02*
X0181197Y0294944D01*
G75*
G02*
X0182181Y0293960I0000000J-000984D01*
G01*
X0182181Y0291893D01*
G75*
G02*
X0181197Y0290909I-000984J0000000D01*
G01*
X0177654Y0290909D01*
G75*
G02*
X0176669Y0291893I0000000J0000984D01*
G01*
X0176669Y0293960D01*
G75*
G02*
X0177654Y0294944I0000984J0000000D01*
G01*
G37*
G36*
G01*
X0191378Y0255886D02*
X0189921Y0255886D01*
G75*
G02*
X0189390Y0256418I0000000J0000531D01*
G01*
X0189390Y0257481D01*
G75*
G02*
X0189921Y0258012I0000531J0000000D01*
G01*
X0191378Y0258012D01*
G75*
G02*
X0191909Y0257481I0000000J-000531D01*
G01*
X0191909Y0256418D01*
G75*
G02*
X0191378Y0255886I-000531J0000000D01*
G01*
G37*
G36*
G01*
X0191378Y0259902D02*
X0189921Y0259902D01*
G75*
G02*
X0189390Y0260433I0000000J0000531D01*
G01*
X0189390Y0261496D01*
G75*
G02*
X0189921Y0262028I0000531J0000000D01*
G01*
X0191378Y0262028D01*
G75*
G02*
X0191909Y0261496I0000000J-000531D01*
G01*
X0191909Y0260433D01*
G75*
G02*
X0191378Y0259902I-000531J0000000D01*
G01*
G37*
G36*
G01*
X0202303Y0296319D02*
X0200965Y0296319D01*
G75*
G02*
X0200413Y0296870I0000000J0000551D01*
G01*
X0200413Y0297973D01*
G75*
G02*
X0200965Y0298524I0000551J0000000D01*
G01*
X0202303Y0298524D01*
G75*
G02*
X0202854Y0297973I0000000J-000551D01*
G01*
X0202854Y0296870D01*
G75*
G02*
X0202303Y0296319I-000551J0000000D01*
G01*
G37*
G36*
G01*
X0202303Y0300099D02*
X0200965Y0300099D01*
G75*
G02*
X0200413Y0300650I0000000J0000551D01*
G01*
X0200413Y0301752D01*
G75*
G02*
X0200965Y0302303I0000551J0000000D01*
G01*
X0202303Y0302303D01*
G75*
G02*
X0202854Y0301752I0000000J-000551D01*
G01*
X0202854Y0300650D01*
G75*
G02*
X0202303Y0300099I-000551J0000000D01*
G01*
G37*
G36*
G01*
X0195118Y0248209D02*
X0193661Y0248209D01*
G75*
G02*
X0193130Y0248740I0000000J0000531D01*
G01*
X0193130Y0249803D01*
G75*
G02*
X0193661Y0250335I0000531J0000000D01*
G01*
X0195118Y0250335D01*
G75*
G02*
X0195650Y0249803I0000000J-000531D01*
G01*
X0195650Y0248740D01*
G75*
G02*
X0195118Y0248209I-000531J0000000D01*
G01*
G37*
G36*
G01*
X0195118Y0252225D02*
X0193661Y0252225D01*
G75*
G02*
X0193130Y0252756I0000000J0000531D01*
G01*
X0193130Y0253819D01*
G75*
G02*
X0193661Y0254351I0000531J0000000D01*
G01*
X0195118Y0254351D01*
G75*
G02*
X0195650Y0253819I0000000J-000531D01*
G01*
X0195650Y0252756D01*
G75*
G02*
X0195118Y0252225I-000531J0000000D01*
G01*
G37*
G36*
G01*
X0191378Y0264142D02*
X0189922Y0264142D01*
G75*
G02*
X0189390Y0264674I0000000J0000531D01*
G01*
X0189390Y0265737D01*
G75*
G02*
X0189922Y0266268I0000531J0000000D01*
G01*
X0191378Y0266268D01*
G75*
G02*
X0191910Y0265737I0000000J-000531D01*
G01*
X0191910Y0264674D01*
G75*
G02*
X0191378Y0264142I-000531J0000000D01*
G01*
G37*
G36*
G01*
X0191378Y0268158D02*
X0189922Y0268158D01*
G75*
G02*
X0189390Y0268690I0000000J0000531D01*
G01*
X0189390Y0269753D01*
G75*
G02*
X0189922Y0270284I0000531J0000000D01*
G01*
X0191378Y0270284D01*
G75*
G02*
X0191910Y0269753I0000000J-000531D01*
G01*
X0191910Y0268690D01*
G75*
G02*
X0191378Y0268158I-000531J0000000D01*
G01*
G37*
G36*
G01*
X0173622Y0290909D02*
X0170079Y0290909D01*
G75*
G02*
X0169094Y0291893I0000000J0000984D01*
G01*
X0169094Y0293960D01*
G75*
G02*
X0170079Y0294944I0000984J0000000D01*
G01*
X0173622Y0294944D01*
G75*
G02*
X0174606Y0293960I0000000J-000984D01*
G01*
X0174606Y0291893D01*
G75*
G02*
X0173622Y0290909I-000984J0000000D01*
G01*
G37*
G36*
G01*
X0173622Y0298094D02*
X0170079Y0298094D01*
G75*
G02*
X0169094Y0299078I0000000J0000984D01*
G01*
X0169094Y0301145D01*
G75*
G02*
X0170079Y0302129I0000984J0000000D01*
G01*
X0173622Y0302129D01*
G75*
G02*
X0174606Y0301145I0000000J-000984D01*
G01*
X0174606Y0299078D01*
G75*
G02*
X0173622Y0298094I-000984J0000000D01*
G01*
G37*
G36*
G01*
X0202520Y0264193D02*
X0201063Y0264193D01*
G75*
G02*
X0200531Y0264725I0000000J0000531D01*
G01*
X0200531Y0265788D01*
G75*
G02*
X0201063Y0266319I0000531J0000000D01*
G01*
X0202520Y0266319D01*
G75*
G02*
X0203051Y0265788I0000000J-000531D01*
G01*
X0203051Y0264725D01*
G75*
G02*
X0202520Y0264193I-000531J0000000D01*
G01*
G37*
G36*
G01*
X0202520Y0268209D02*
X0201063Y0268209D01*
G75*
G02*
X0200531Y0268740I0000000J0000531D01*
G01*
X0200531Y0269803D01*
G75*
G02*
X0201063Y0270335I0000531J0000000D01*
G01*
X0202520Y0270335D01*
G75*
G02*
X0203051Y0269803I0000000J-000531D01*
G01*
X0203051Y0268740D01*
G75*
G02*
X0202520Y0268209I-000531J0000000D01*
G01*
G37*
G36*
G01*
X0169016Y0254508D02*
X0170472Y0254508D01*
G75*
G02*
X0171004Y0253977I0000000J-000531D01*
G01*
X0171004Y0252914D01*
G75*
G02*
X0170472Y0252382I-000531J0000000D01*
G01*
X0169016Y0252382D01*
G75*
G02*
X0168484Y0252914I0000000J0000531D01*
G01*
X0168484Y0253977D01*
G75*
G02*
X0169016Y0254508I0000531J0000000D01*
G01*
G37*
G36*
G01*
X0169016Y0250492D02*
X0170472Y0250492D01*
G75*
G02*
X0171004Y0249961I0000000J-000531D01*
G01*
X0171004Y0248898D01*
G75*
G02*
X0170472Y0248366I-000531J0000000D01*
G01*
X0169016Y0248366D01*
G75*
G02*
X0168484Y0248898I0000000J0000531D01*
G01*
X0168484Y0249961D01*
G75*
G02*
X0169016Y0250492I0000531J0000000D01*
G01*
G37*
G36*
G01*
X0180965Y0254055D02*
X0182421Y0254055D01*
G75*
G02*
X0182953Y0253524I0000000J-000531D01*
G01*
X0182953Y0252461D01*
G75*
G02*
X0182421Y0251929I-000531J0000000D01*
G01*
X0180965Y0251929D01*
G75*
G02*
X0180433Y0252461I0000000J0000531D01*
G01*
X0180433Y0253524D01*
G75*
G02*
X0180965Y0254055I0000531J0000000D01*
G01*
G37*
G36*
G01*
X0180965Y0250040D02*
X0182421Y0250040D01*
G75*
G02*
X0182953Y0249508I0000000J-000531D01*
G01*
X0182953Y0248445D01*
G75*
G02*
X0182421Y0247914I-000531J0000000D01*
G01*
X0180965Y0247914D01*
G75*
G02*
X0180433Y0248445I0000000J0000531D01*
G01*
X0180433Y0249508D01*
G75*
G02*
X0180965Y0250040I0000531J0000000D01*
G01*
G37*
G36*
G01*
X0195118Y0255591D02*
X0193661Y0255591D01*
G75*
G02*
X0193130Y0256122I0000000J0000531D01*
G01*
X0193130Y0257185D01*
G75*
G02*
X0193661Y0257717I0000531J0000000D01*
G01*
X0195118Y0257717D01*
G75*
G02*
X0195650Y0257185I0000000J-000531D01*
G01*
X0195650Y0256122D01*
G75*
G02*
X0195118Y0255591I-000531J0000000D01*
G01*
G37*
G36*
G01*
X0195118Y0259607D02*
X0193661Y0259607D01*
G75*
G02*
X0193130Y0260138I0000000J0000531D01*
G01*
X0193130Y0261201D01*
G75*
G02*
X0193661Y0261733I0000531J0000000D01*
G01*
X0195118Y0261733D01*
G75*
G02*
X0195650Y0261201I0000000J-000531D01*
G01*
X0195650Y0260138D01*
G75*
G02*
X0195118Y0259607I-000531J0000000D01*
G01*
G37*
G36*
G01*
X0186201Y0247894D02*
X0184862Y0247894D01*
G75*
G02*
X0184311Y0248445I0000000J0000551D01*
G01*
X0184311Y0249548D01*
G75*
G02*
X0184862Y0250099I0000551J0000000D01*
G01*
X0186201Y0250099D01*
G75*
G02*
X0186752Y0249548I0000000J-000551D01*
G01*
X0186752Y0248445D01*
G75*
G02*
X0186201Y0247894I-000551J0000000D01*
G01*
G37*
G36*
G01*
X0186201Y0251674D02*
X0184862Y0251674D01*
G75*
G02*
X0184311Y0252225I0000000J0000551D01*
G01*
X0184311Y0253327D01*
G75*
G02*
X0184862Y0253878I0000551J0000000D01*
G01*
X0186201Y0253878D01*
G75*
G02*
X0186752Y0253327I0000000J-000551D01*
G01*
X0186752Y0252225D01*
G75*
G02*
X0186201Y0251674I-000551J0000000D01*
G01*
G37*
G36*
G01*
X0175986Y0287042D02*
X0175986Y0288380D01*
G75*
G02*
X0176537Y0288932I0000551J0000000D01*
G01*
X0177639Y0288932D01*
G75*
G02*
X0178191Y0288380I0000000J-000551D01*
G01*
X0178191Y0287042D01*
G75*
G02*
X0177639Y0286491I-000551J0000000D01*
G01*
X0176537Y0286491D01*
G75*
G02*
X0175986Y0287042I0000000J0000551D01*
G01*
G37*
G36*
G01*
X0179765Y0287042D02*
X0179765Y0288380D01*
G75*
G02*
X0180316Y0288932I0000551J0000000D01*
G01*
X0181419Y0288932D01*
G75*
G02*
X0181970Y0288380I0000000J-000551D01*
G01*
X0181970Y0287042D01*
G75*
G02*
X0181419Y0286491I-000551J0000000D01*
G01*
X0180316Y0286491D01*
G75*
G02*
X0179765Y0287042I0000000J0000551D01*
G01*
G37*
G36*
G01*
X0189921Y0254548D02*
X0191378Y0254548D01*
G75*
G02*
X0191909Y0254016I0000000J-000531D01*
G01*
X0191909Y0252953D01*
G75*
G02*
X0191378Y0252422I-000531J0000000D01*
G01*
X0189921Y0252422D01*
G75*
G02*
X0189390Y0252953I0000000J0000531D01*
G01*
X0189390Y0254016D01*
G75*
G02*
X0189921Y0254548I0000531J0000000D01*
G01*
G37*
G36*
G01*
X0189921Y0250532D02*
X0191378Y0250532D01*
G75*
G02*
X0191909Y0250000I0000000J-000531D01*
G01*
X0191909Y0248937D01*
G75*
G02*
X0191378Y0248406I-000531J0000000D01*
G01*
X0189921Y0248406D01*
G75*
G02*
X0189390Y0248937I0000000J0000531D01*
G01*
X0189390Y0250000D01*
G75*
G02*
X0189921Y0250532I0000531J0000000D01*
G01*
G37*
G36*
G01*
X0201280Y0271949D02*
X0200098Y0271949D01*
G75*
G02*
X0199508Y0272540I0000000J0000591D01*
G01*
X0199508Y0276575D01*
G75*
G02*
X0200098Y0277166I0000591J0000000D01*
G01*
X0201280Y0277166D01*
G75*
G02*
X0201870Y0276575I0000000J-000591D01*
G01*
X0201870Y0272540D01*
G75*
G02*
X0201280Y0271949I-000591J0000000D01*
G01*
G37*
G36*
G01*
X0197539Y0271949D02*
X0196358Y0271949D01*
G75*
G02*
X0195768Y0272540I0000000J0000591D01*
G01*
X0195768Y0276575D01*
G75*
G02*
X0196358Y0277166I0000591J0000000D01*
G01*
X0197539Y0277166D01*
G75*
G02*
X0198130Y0276575I0000000J-000591D01*
G01*
X0198130Y0272540D01*
G75*
G02*
X0197539Y0271949I-000591J0000000D01*
G01*
G37*
G36*
G01*
X0193799Y0271949D02*
X0192618Y0271949D01*
G75*
G02*
X0192028Y0272540I0000000J0000591D01*
G01*
X0192028Y0276575D01*
G75*
G02*
X0192618Y0277166I0000591J0000000D01*
G01*
X0193799Y0277166D01*
G75*
G02*
X0194390Y0276575I0000000J-000591D01*
G01*
X0194390Y0272540D01*
G75*
G02*
X0193799Y0271949I-000591J0000000D01*
G01*
G37*
G36*
G01*
X0193799Y0280906D02*
X0192618Y0280906D01*
G75*
G02*
X0192028Y0281496I0000000J0000591D01*
G01*
X0192028Y0285532D01*
G75*
G02*
X0192618Y0286122I0000591J0000000D01*
G01*
X0193799Y0286122D01*
G75*
G02*
X0194390Y0285532I0000000J-000591D01*
G01*
X0194390Y0281496D01*
G75*
G02*
X0193799Y0280906I-000591J0000000D01*
G01*
G37*
G36*
G01*
X0201280Y0280906D02*
X0200098Y0280906D01*
G75*
G02*
X0199508Y0281496I0000000J0000591D01*
G01*
X0199508Y0285532D01*
G75*
G02*
X0200098Y0286122I0000591J0000000D01*
G01*
X0201280Y0286122D01*
G75*
G02*
X0201870Y0285532I0000000J-000591D01*
G01*
X0201870Y0281496D01*
G75*
G02*
X0201280Y0280906I-000591J0000000D01*
G01*
G37*
G36*
G01*
X0197461Y0270256D02*
X0198799Y0270256D01*
G75*
G02*
X0199350Y0269705I0000000J-000551D01*
G01*
X0199350Y0268603D01*
G75*
G02*
X0198799Y0268051I-000551J0000000D01*
G01*
X0197461Y0268051D01*
G75*
G02*
X0196909Y0268603I0000000J0000551D01*
G01*
X0196909Y0269705D01*
G75*
G02*
X0197461Y0270256I0000551J0000000D01*
G01*
G37*
G36*
G01*
X0197461Y0266477D02*
X0198799Y0266477D01*
G75*
G02*
X0199350Y0265926I0000000J-000551D01*
G01*
X0199350Y0264823D01*
G75*
G02*
X0198799Y0264272I-000551J0000000D01*
G01*
X0197461Y0264272D01*
G75*
G02*
X0196909Y0264823I0000000J0000551D01*
G01*
X0196909Y0265926D01*
G75*
G02*
X0197461Y0266477I0000551J0000000D01*
G01*
G37*
X0122933Y0305020D02*
%LPD*%
G01*
D15*
X0150098Y0246752D03*
X0145374Y0246752D03*
X0154823Y0246752D03*
X0159547Y0246752D03*
X0134114Y0303544D03*
X0130177Y0303544D03*
X0391535Y0162008D02*
%LPD*%
G01*
D166*
X0380905Y0165984D03*
X0376905Y0185984D03*
X0384905Y0185984D03*
G36*
G01*
X0384373Y0241516D02*
X0383015Y0241516D01*
G75*
G02*
X0382434Y0242097I0000000J0000581D01*
G01*
X0382434Y0243258D01*
G75*
G02*
X0383015Y0243839I0000581J0000000D01*
G01*
X0384373Y0243839D01*
G75*
G02*
X0384954Y0243258I0000000J-000581D01*
G01*
X0384954Y0242097D01*
G75*
G02*
X0384373Y0241516I-000581J0000000D01*
G01*
G37*
G36*
G01*
X0384373Y0245335D02*
X0383015Y0245335D01*
G75*
G02*
X0382434Y0245915I0000000J0000581D01*
G01*
X0382434Y0247077D01*
G75*
G02*
X0383015Y0247658I0000581J0000000D01*
G01*
X0384373Y0247658D01*
G75*
G02*
X0384954Y0247077I0000000J-000581D01*
G01*
X0384954Y0245915D01*
G75*
G02*
X0384373Y0245335I-000581J0000000D01*
G01*
G37*
G36*
G01*
X0353651Y0246870D02*
X0355009Y0246870D01*
G75*
G02*
X0355590Y0246289I0000000J-000581D01*
G01*
X0355590Y0245128D01*
G75*
G02*
X0355009Y0244547I-000581J0000000D01*
G01*
X0353651Y0244547D01*
G75*
G02*
X0353070Y0245128I0000000J0000581D01*
G01*
X0353070Y0246289D01*
G75*
G02*
X0353651Y0246870I0000581J0000000D01*
G01*
G37*
G36*
G01*
X0353651Y0243051D02*
X0355009Y0243051D01*
G75*
G02*
X0355590Y0242471I0000000J-000581D01*
G01*
X0355590Y0241309D01*
G75*
G02*
X0355009Y0240728I-000581J0000000D01*
G01*
X0353651Y0240728D01*
G75*
G02*
X0353070Y0241309I0000000J0000581D01*
G01*
X0353070Y0242471D01*
G75*
G02*
X0353651Y0243051I0000581J0000000D01*
G01*
G37*
G36*
G01*
X0342888Y0206102D02*
X0344906Y0206102D01*
G75*
G02*
X0345767Y0205241I0000000J-000861D01*
G01*
X0345767Y0203519D01*
G75*
G02*
X0344906Y0202658I-000861J0000000D01*
G01*
X0342888Y0202658D01*
G75*
G02*
X0342027Y0203519I0000000J0000861D01*
G01*
X0342027Y0205241D01*
G75*
G02*
X0342888Y0206102I0000861J0000000D01*
G01*
G37*
G36*
G01*
X0342888Y0199902D02*
X0344906Y0199902D01*
G75*
G02*
X0345767Y0199040I0000000J-000861D01*
G01*
X0345767Y0197318D01*
G75*
G02*
X0344906Y0196457I-000861J0000000D01*
G01*
X0342888Y0196457D01*
G75*
G02*
X0342027Y0197318I0000000J0000861D01*
G01*
X0342027Y0199040D01*
G75*
G02*
X0342888Y0199902I0000861J0000000D01*
G01*
G37*
G36*
G01*
X0387214Y0247658D02*
X0388572Y0247658D01*
G75*
G02*
X0389153Y0247077I0000000J-000581D01*
G01*
X0389153Y0245915D01*
G75*
G02*
X0388572Y0245335I-000581J0000000D01*
G01*
X0387214Y0245335D01*
G75*
G02*
X0386633Y0245915I0000000J0000581D01*
G01*
X0386633Y0247077D01*
G75*
G02*
X0387214Y0247658I0000581J0000000D01*
G01*
G37*
G36*
G01*
X0387214Y0243839D02*
X0388572Y0243839D01*
G75*
G02*
X0389153Y0243258I0000000J-000581D01*
G01*
X0389153Y0242097D01*
G75*
G02*
X0388572Y0241516I-000581J0000000D01*
G01*
X0387214Y0241516D01*
G75*
G02*
X0386633Y0242097I0000000J0000581D01*
G01*
X0386633Y0243258D01*
G75*
G02*
X0387214Y0243839I0000581J0000000D01*
G01*
G37*
G36*
G01*
X0348218Y0187956D02*
X0346860Y0187956D01*
G75*
G02*
X0346279Y0188536I0000000J0000581D01*
G01*
X0346279Y0189698D01*
G75*
G02*
X0346860Y0190279I0000581J0000000D01*
G01*
X0348218Y0190279D01*
G75*
G02*
X0348799Y0189698I0000000J-000581D01*
G01*
X0348799Y0188536D01*
G75*
G02*
X0348218Y0187956I-000581J0000000D01*
G01*
G37*
G36*
G01*
X0348218Y0191775D02*
X0346860Y0191775D01*
G75*
G02*
X0346279Y0192355I0000000J0000581D01*
G01*
X0346279Y0193517D01*
G75*
G02*
X0346860Y0194097I0000581J0000000D01*
G01*
X0348218Y0194097D01*
G75*
G02*
X0348799Y0193517I0000000J-000581D01*
G01*
X0348799Y0192355D01*
G75*
G02*
X0348218Y0191775I-000581J0000000D01*
G01*
G37*
G36*
G01*
X0350088Y0196043D02*
X0348730Y0196043D01*
G75*
G02*
X0348149Y0196624I0000000J0000581D01*
G01*
X0348149Y0197786D01*
G75*
G02*
X0348730Y0198366I0000581J0000000D01*
G01*
X0350088Y0198366D01*
G75*
G02*
X0350669Y0197786I0000000J-000581D01*
G01*
X0350669Y0196624D01*
G75*
G02*
X0350088Y0196043I-000581J0000000D01*
G01*
G37*
G36*
G01*
X0350088Y0199862D02*
X0348730Y0199862D01*
G75*
G02*
X0348149Y0200443I0000000J0000581D01*
G01*
X0348149Y0201604D01*
G75*
G02*
X0348730Y0202185I0000581J0000000D01*
G01*
X0350088Y0202185D01*
G75*
G02*
X0350669Y0201604I0000000J-000581D01*
G01*
X0350669Y0200443D01*
G75*
G02*
X0350088Y0199862I-000581J0000000D01*
G01*
G37*
G36*
G01*
X0342755Y0167431D02*
X0342755Y0168789D01*
G75*
G02*
X0343336Y0169370I0000581J0000000D01*
G01*
X0344498Y0169370D01*
G75*
G02*
X0345078Y0168789I0000000J-000581D01*
G01*
X0345078Y0167431D01*
G75*
G02*
X0344498Y0166851I-000581J0000000D01*
G01*
X0343336Y0166851D01*
G75*
G02*
X0342755Y0167431I0000000J0000581D01*
G01*
G37*
G36*
G01*
X0346574Y0167431D02*
X0346574Y0168789D01*
G75*
G02*
X0347155Y0169370I0000581J0000000D01*
G01*
X0348316Y0169370D01*
G75*
G02*
X0348897Y0168789I0000000J-000581D01*
G01*
X0348897Y0167431D01*
G75*
G02*
X0348316Y0166851I-000581J0000000D01*
G01*
X0347155Y0166851D01*
G75*
G02*
X0346574Y0167431I0000000J0000581D01*
G01*
G37*
G36*
G01*
X0360344Y0216949D02*
X0361702Y0216949D01*
G75*
G02*
X0362283Y0216368I0000000J-000581D01*
G01*
X0362283Y0215207D01*
G75*
G02*
X0361702Y0214626I-000581J0000000D01*
G01*
X0360344Y0214626D01*
G75*
G02*
X0359763Y0215207I0000000J0000581D01*
G01*
X0359763Y0216368D01*
G75*
G02*
X0360344Y0216949I0000581J0000000D01*
G01*
G37*
G36*
G01*
X0360344Y0213130D02*
X0361702Y0213130D01*
G75*
G02*
X0362283Y0212549I0000000J-000581D01*
G01*
X0362283Y0211388D01*
G75*
G02*
X0361702Y0210807I-000581J0000000D01*
G01*
X0360344Y0210807D01*
G75*
G02*
X0359763Y0211388I0000000J0000581D01*
G01*
X0359763Y0212549D01*
G75*
G02*
X0360344Y0213130I0000581J0000000D01*
G01*
G37*
G36*
G01*
X0365639Y0210807D02*
X0364281Y0210807D01*
G75*
G02*
X0363700Y0211388I0000000J0000581D01*
G01*
X0363700Y0212549D01*
G75*
G02*
X0364281Y0213130I0000581J0000000D01*
G01*
X0365639Y0213130D01*
G75*
G02*
X0366220Y0212549I0000000J-000581D01*
G01*
X0366220Y0211388D01*
G75*
G02*
X0365639Y0210807I-000581J0000000D01*
G01*
G37*
G36*
G01*
X0365639Y0214626D02*
X0364281Y0214626D01*
G75*
G02*
X0363700Y0215207I0000000J0000581D01*
G01*
X0363700Y0216368D01*
G75*
G02*
X0364281Y0216949I0000581J0000000D01*
G01*
X0365639Y0216949D01*
G75*
G02*
X0366220Y0216368I0000000J-000581D01*
G01*
X0366220Y0215207D01*
G75*
G02*
X0365639Y0214626I-000581J0000000D01*
G01*
G37*
G36*
G01*
X0358671Y0246870D02*
X0360029Y0246870D01*
G75*
G02*
X0360610Y0246289I0000000J-000581D01*
G01*
X0360610Y0245128D01*
G75*
G02*
X0360029Y0244547I-000581J0000000D01*
G01*
X0358671Y0244547D01*
G75*
G02*
X0358090Y0245128I0000000J0000581D01*
G01*
X0358090Y0246289D01*
G75*
G02*
X0358671Y0246870I0000581J0000000D01*
G01*
G37*
G36*
G01*
X0358671Y0243051D02*
X0360029Y0243051D01*
G75*
G02*
X0360610Y0242471I0000000J-000581D01*
G01*
X0360610Y0241309D01*
G75*
G02*
X0360029Y0240728I-000581J0000000D01*
G01*
X0358671Y0240728D01*
G75*
G02*
X0358090Y0241309I0000000J0000581D01*
G01*
X0358090Y0242471D01*
G75*
G02*
X0358671Y0243051I0000581J0000000D01*
G01*
G37*
D300*
X0386614Y0203937D03*
X0384055Y0203937D03*
X0381496Y0203937D03*
X0378937Y0203937D03*
X0376378Y0203937D03*
X0373818Y0203937D03*
X0371259Y0203937D03*
X0371259Y0227165D03*
X0373818Y0227165D03*
X0376378Y0227165D03*
X0378937Y0227165D03*
X0381496Y0227165D03*
X0384055Y0227165D03*
X0386614Y0227165D03*
G36*
G01*
X0343120Y0194114D02*
X0344478Y0194114D01*
G75*
G02*
X0345059Y0193534I0000000J-000581D01*
G01*
X0345059Y0192372D01*
G75*
G02*
X0344478Y0191791I-000581J0000000D01*
G01*
X0343120Y0191791D01*
G75*
G02*
X0342539Y0192372I0000000J0000581D01*
G01*
X0342539Y0193534D01*
G75*
G02*
X0343120Y0194114I0000581J0000000D01*
G01*
G37*
G36*
G01*
X0343120Y0190295D02*
X0344478Y0190295D01*
G75*
G02*
X0345059Y0189715I0000000J-000581D01*
G01*
X0345059Y0188553D01*
G75*
G02*
X0344478Y0187973I-000581J0000000D01*
G01*
X0343120Y0187973D01*
G75*
G02*
X0342539Y0188553I0000000J0000581D01*
G01*
X0342539Y0189715D01*
G75*
G02*
X0343120Y0190295I0000581J0000000D01*
G01*
G37*
G36*
G01*
X0340738Y0187973D02*
X0339379Y0187973D01*
G75*
G02*
X0338799Y0188553I0000000J0000581D01*
G01*
X0338799Y0189715D01*
G75*
G02*
X0339379Y0190295I0000581J0000000D01*
G01*
X0340738Y0190295D01*
G75*
G02*
X0341318Y0189715I0000000J-000581D01*
G01*
X0341318Y0188553D01*
G75*
G02*
X0340738Y0187973I-000581J0000000D01*
G01*
G37*
G36*
G01*
X0340738Y0191791D02*
X0339379Y0191791D01*
G75*
G02*
X0338799Y0192372I0000000J0000581D01*
G01*
X0338799Y0193534D01*
G75*
G02*
X0339379Y0194114I0000581J0000000D01*
G01*
X0340738Y0194114D01*
G75*
G02*
X0341318Y0193534I0000000J-000581D01*
G01*
X0341318Y0192372D01*
G75*
G02*
X0340738Y0191791I-000581J0000000D01*
G01*
G37*
G36*
G01*
X0379484Y0241516D02*
X0378126Y0241516D01*
G75*
G02*
X0377545Y0242097I0000000J0000581D01*
G01*
X0377545Y0243258D01*
G75*
G02*
X0378126Y0243839I0000581J0000000D01*
G01*
X0379484Y0243839D01*
G75*
G02*
X0380065Y0243258I0000000J-000581D01*
G01*
X0380065Y0242097D01*
G75*
G02*
X0379484Y0241516I-000581J0000000D01*
G01*
G37*
G36*
G01*
X0379484Y0245335D02*
X0378126Y0245335D01*
G75*
G02*
X0377545Y0245915I0000000J0000581D01*
G01*
X0377545Y0247077D01*
G75*
G02*
X0378126Y0247658I0000581J0000000D01*
G01*
X0379484Y0247658D01*
G75*
G02*
X0380065Y0247077I0000000J-000581D01*
G01*
X0380065Y0245915D01*
G75*
G02*
X0379484Y0245335I-000581J0000000D01*
G01*
G37*
G36*
G01*
X0356407Y0213701D02*
X0357765Y0213701D01*
G75*
G02*
X0358346Y0213120I0000000J-000581D01*
G01*
X0358346Y0211959D01*
G75*
G02*
X0357765Y0211378I-000581J0000000D01*
G01*
X0356407Y0211378D01*
G75*
G02*
X0355826Y0211959I0000000J0000581D01*
G01*
X0355826Y0213120D01*
G75*
G02*
X0356407Y0213701I0000581J0000000D01*
G01*
G37*
G36*
G01*
X0356407Y0209882D02*
X0357765Y0209882D01*
G75*
G02*
X0358346Y0209301I0000000J-000581D01*
G01*
X0358346Y0208140D01*
G75*
G02*
X0357765Y0207559I-000581J0000000D01*
G01*
X0356407Y0207559D01*
G75*
G02*
X0355826Y0208140I0000000J0000581D01*
G01*
X0355826Y0209301D01*
G75*
G02*
X0356407Y0209882I0000581J0000000D01*
G01*
G37*
G36*
G01*
X0364281Y0209567D02*
X0365639Y0209567D01*
G75*
G02*
X0366220Y0208986I0000000J-000581D01*
G01*
X0366220Y0207825D01*
G75*
G02*
X0365639Y0207244I-000581J0000000D01*
G01*
X0364281Y0207244D01*
G75*
G02*
X0363700Y0207825I0000000J0000581D01*
G01*
X0363700Y0208986D01*
G75*
G02*
X0364281Y0209567I0000581J0000000D01*
G01*
G37*
G36*
G01*
X0364281Y0205748D02*
X0365639Y0205748D01*
G75*
G02*
X0366220Y0205167I0000000J-000581D01*
G01*
X0366220Y0204006D01*
G75*
G02*
X0365639Y0203425I-000581J0000000D01*
G01*
X0364281Y0203425D01*
G75*
G02*
X0363700Y0204006I0000000J0000581D01*
G01*
X0363700Y0205167D01*
G75*
G02*
X0364281Y0205748I0000581J0000000D01*
G01*
G37*
G36*
G01*
X0388897Y0198317D02*
X0388897Y0196959D01*
G75*
G02*
X0388316Y0196378I-000581J0000000D01*
G01*
X0387155Y0196378D01*
G75*
G02*
X0386574Y0196959I0000000J0000581D01*
G01*
X0386574Y0198317D01*
G75*
G02*
X0387155Y0198898I0000581J0000000D01*
G01*
X0388316Y0198898D01*
G75*
G02*
X0388897Y0198317I0000000J-000581D01*
G01*
G37*
G36*
G01*
X0385078Y0198317D02*
X0385078Y0196959D01*
G75*
G02*
X0384498Y0196378I-000581J0000000D01*
G01*
X0383336Y0196378D01*
G75*
G02*
X0382755Y0196959I0000000J0000581D01*
G01*
X0382755Y0198317D01*
G75*
G02*
X0383336Y0198898I0000581J0000000D01*
G01*
X0384498Y0198898D01*
G75*
G02*
X0385078Y0198317I0000000J-000581D01*
G01*
G37*
G36*
G01*
X0360344Y0224429D02*
X0361702Y0224429D01*
G75*
G02*
X0362283Y0223849I0000000J-000581D01*
G01*
X0362283Y0222687D01*
G75*
G02*
X0361702Y0222106I-000581J0000000D01*
G01*
X0360344Y0222106D01*
G75*
G02*
X0359763Y0222687I0000000J0000581D01*
G01*
X0359763Y0223849D01*
G75*
G02*
X0360344Y0224429I0000581J0000000D01*
G01*
G37*
G36*
G01*
X0360344Y0220610D02*
X0361702Y0220610D01*
G75*
G02*
X0362283Y0220030I0000000J-000581D01*
G01*
X0362283Y0218868D01*
G75*
G02*
X0361702Y0218288I-000581J0000000D01*
G01*
X0360344Y0218288D01*
G75*
G02*
X0359763Y0218868I0000000J0000581D01*
G01*
X0359763Y0220030D01*
G75*
G02*
X0360344Y0220610I0000581J0000000D01*
G01*
G37*
G36*
G01*
X0361702Y0225768D02*
X0360344Y0225768D01*
G75*
G02*
X0359763Y0226349I0000000J0000581D01*
G01*
X0359763Y0227510D01*
G75*
G02*
X0360344Y0228091I0000581J0000000D01*
G01*
X0361702Y0228091D01*
G75*
G02*
X0362283Y0227510I0000000J-000581D01*
G01*
X0362283Y0226349D01*
G75*
G02*
X0361702Y0225768I-000581J0000000D01*
G01*
G37*
G36*
G01*
X0361702Y0229587D02*
X0360344Y0229587D01*
G75*
G02*
X0359763Y0230167I0000000J0000581D01*
G01*
X0359763Y0231329D01*
G75*
G02*
X0360344Y0231910I0000581J0000000D01*
G01*
X0361702Y0231910D01*
G75*
G02*
X0362283Y0231329I0000000J-000581D01*
G01*
X0362283Y0230167D01*
G75*
G02*
X0361702Y0229587I-000581J0000000D01*
G01*
G37*
G36*
G01*
X0388897Y0194577D02*
X0388897Y0193219D01*
G75*
G02*
X0388316Y0192638I-000581J0000000D01*
G01*
X0387155Y0192638D01*
G75*
G02*
X0386574Y0193219I0000000J0000581D01*
G01*
X0386574Y0194577D01*
G75*
G02*
X0387155Y0195158I0000581J0000000D01*
G01*
X0388316Y0195158D01*
G75*
G02*
X0388897Y0194577I0000000J-000581D01*
G01*
G37*
G36*
G01*
X0385078Y0194577D02*
X0385078Y0193219D01*
G75*
G02*
X0384498Y0192638I-000581J0000000D01*
G01*
X0383336Y0192638D01*
G75*
G02*
X0382755Y0193219I0000000J0000581D01*
G01*
X0382755Y0194577D01*
G75*
G02*
X0383336Y0195158I0000581J0000000D01*
G01*
X0384498Y0195158D01*
G75*
G02*
X0385078Y0194577I0000000J-000581D01*
G01*
G37*
D301*
X0340059Y0183898D03*
X0343799Y0183898D03*
X0347539Y0183898D03*
X0347539Y0173583D03*
X0340059Y0173583D03*
G36*
G01*
X0357765Y0218386D02*
X0356407Y0218386D01*
G75*
G02*
X0355826Y0218967I0000000J0000581D01*
G01*
X0355826Y0220128D01*
G75*
G02*
X0356407Y0220709I0000581J0000000D01*
G01*
X0357765Y0220709D01*
G75*
G02*
X0358346Y0220128I0000000J-000581D01*
G01*
X0358346Y0218967D01*
G75*
G02*
X0357765Y0218386I-000581J0000000D01*
G01*
G37*
G36*
G01*
X0357765Y0222205D02*
X0356407Y0222205D01*
G75*
G02*
X0355826Y0222786I0000000J0000581D01*
G01*
X0355826Y0223947D01*
G75*
G02*
X0356407Y0224528I0000581J0000000D01*
G01*
X0357765Y0224528D01*
G75*
G02*
X0358346Y0223947I0000000J-000581D01*
G01*
X0358346Y0222786D01*
G75*
G02*
X0357765Y0222205I-000581J0000000D01*
G01*
G37*
G36*
G01*
X0353661Y0205797D02*
X0353661Y0204439D01*
G75*
G02*
X0353080Y0203858I-000581J0000000D01*
G01*
X0351919Y0203858D01*
G75*
G02*
X0351338Y0204439I0000000J0000581D01*
G01*
X0351338Y0205797D01*
G75*
G02*
X0351919Y0206378I0000581J0000000D01*
G01*
X0353080Y0206378D01*
G75*
G02*
X0353661Y0205797I0000000J-000581D01*
G01*
G37*
G36*
G01*
X0349842Y0205797D02*
X0349842Y0204439D01*
G75*
G02*
X0349261Y0203858I-000581J0000000D01*
G01*
X0348100Y0203858D01*
G75*
G02*
X0347519Y0204439I0000000J0000581D01*
G01*
X0347519Y0205797D01*
G75*
G02*
X0348100Y0206378I0000581J0000000D01*
G01*
X0349261Y0206378D01*
G75*
G02*
X0349842Y0205797I0000000J-000581D01*
G01*
G37*
G36*
G01*
X0380236Y0198317D02*
X0380236Y0196959D01*
G75*
G02*
X0379655Y0196378I-000581J0000000D01*
G01*
X0378494Y0196378D01*
G75*
G02*
X0377913Y0196959I0000000J0000581D01*
G01*
X0377913Y0198317D01*
G75*
G02*
X0378494Y0198898I0000581J0000000D01*
G01*
X0379655Y0198898D01*
G75*
G02*
X0380236Y0198317I0000000J-000581D01*
G01*
G37*
G36*
G01*
X0376417Y0198317D02*
X0376417Y0196959D01*
G75*
G02*
X0375836Y0196378I-000581J0000000D01*
G01*
X0374675Y0196378D01*
G75*
G02*
X0374094Y0196959I0000000J0000581D01*
G01*
X0374094Y0198317D01*
G75*
G02*
X0374675Y0198898I0000581J0000000D01*
G01*
X0375836Y0198898D01*
G75*
G02*
X0376417Y0198317I0000000J-000581D01*
G01*
G37*
G36*
G01*
X0373139Y0240079D02*
X0374498Y0240079D01*
G75*
G02*
X0375078Y0239498I0000000J-000581D01*
G01*
X0375078Y0238337D01*
G75*
G02*
X0374498Y0237756I-000581J0000000D01*
G01*
X0373139Y0237756D01*
G75*
G02*
X0372559Y0238337I0000000J0000581D01*
G01*
X0372559Y0239498D01*
G75*
G02*
X0373139Y0240079I0000581J0000000D01*
G01*
G37*
G36*
G01*
X0373139Y0236260D02*
X0374498Y0236260D01*
G75*
G02*
X0375078Y0235679I0000000J-000581D01*
G01*
X0375078Y0234518D01*
G75*
G02*
X0374498Y0233937I-000581J0000000D01*
G01*
X0373139Y0233937D01*
G75*
G02*
X0372559Y0234518I0000000J0000581D01*
G01*
X0372559Y0235679D01*
G75*
G02*
X0373139Y0236260I0000581J0000000D01*
G01*
G37*
G36*
G01*
X0373139Y0247658D02*
X0374498Y0247658D01*
G75*
G02*
X0375078Y0247077I0000000J-000581D01*
G01*
X0375078Y0245915D01*
G75*
G02*
X0374498Y0245335I-000581J0000000D01*
G01*
X0373139Y0245335D01*
G75*
G02*
X0372559Y0245915I0000000J0000581D01*
G01*
X0372559Y0247077D01*
G75*
G02*
X0373139Y0247658I0000581J0000000D01*
G01*
G37*
G36*
G01*
X0373139Y0243839D02*
X0374498Y0243839D01*
G75*
G02*
X0375078Y0243258I0000000J-000581D01*
G01*
X0375078Y0242097D01*
G75*
G02*
X0374498Y0241516I-000581J0000000D01*
G01*
X0373139Y0241516D01*
G75*
G02*
X0372559Y0242097I0000000J0000581D01*
G01*
X0372559Y0243258D01*
G75*
G02*
X0373139Y0243839I0000581J0000000D01*
G01*
G37*
G36*
G01*
X0380236Y0194577D02*
X0380236Y0193219D01*
G75*
G02*
X0379655Y0192638I-000581J0000000D01*
G01*
X0378494Y0192638D01*
G75*
G02*
X0377913Y0193219I0000000J0000581D01*
G01*
X0377913Y0194577D01*
G75*
G02*
X0378494Y0195158I0000581J0000000D01*
G01*
X0379655Y0195158D01*
G75*
G02*
X0380236Y0194577I0000000J-000581D01*
G01*
G37*
G36*
G01*
X0376417Y0194577D02*
X0376417Y0193219D01*
G75*
G02*
X0375836Y0192638I-000581J0000000D01*
G01*
X0374675Y0192638D01*
G75*
G02*
X0374094Y0193219I0000000J0000581D01*
G01*
X0374094Y0194577D01*
G75*
G02*
X0374675Y0195158I0000581J0000000D01*
G01*
X0375836Y0195158D01*
G75*
G02*
X0376417Y0194577I0000000J-000581D01*
G01*
G37*
G36*
G01*
X0364281Y0227579D02*
X0365639Y0227579D01*
G75*
G02*
X0366220Y0226998I0000000J-000581D01*
G01*
X0366220Y0225837D01*
G75*
G02*
X0365639Y0225256I-000581J0000000D01*
G01*
X0364281Y0225256D01*
G75*
G02*
X0363700Y0225837I0000000J0000581D01*
G01*
X0363700Y0226998D01*
G75*
G02*
X0364281Y0227579I0000581J0000000D01*
G01*
G37*
G36*
G01*
X0364281Y0223760D02*
X0365639Y0223760D01*
G75*
G02*
X0366220Y0223179I0000000J-000581D01*
G01*
X0366220Y0222018D01*
G75*
G02*
X0365639Y0221437I-000581J0000000D01*
G01*
X0364281Y0221437D01*
G75*
G02*
X0363700Y0222018I0000000J0000581D01*
G01*
X0363700Y0223179D01*
G75*
G02*
X0364281Y0223760I0000581J0000000D01*
G01*
G37*
G36*
G01*
X0380236Y0190837D02*
X0380236Y0189478D01*
G75*
G02*
X0379655Y0188898I-000581J0000000D01*
G01*
X0378494Y0188898D01*
G75*
G02*
X0377913Y0189478I0000000J0000581D01*
G01*
X0377913Y0190837D01*
G75*
G02*
X0378494Y0191417I0000581J0000000D01*
G01*
X0379655Y0191417D01*
G75*
G02*
X0380236Y0190837I0000000J-000581D01*
G01*
G37*
G36*
G01*
X0376417Y0190837D02*
X0376417Y0189478D01*
G75*
G02*
X0375836Y0188898I-000581J0000000D01*
G01*
X0374675Y0188898D01*
G75*
G02*
X0374094Y0189478I0000000J0000581D01*
G01*
X0374094Y0190837D01*
G75*
G02*
X0374675Y0191417I0000581J0000000D01*
G01*
X0375836Y0191417D01*
G75*
G02*
X0376417Y0190837I0000000J-000581D01*
G01*
G37*
G36*
G01*
X0382755Y0189478D02*
X0382755Y0190837D01*
G75*
G02*
X0383336Y0191417I0000581J0000000D01*
G01*
X0384498Y0191417D01*
G75*
G02*
X0385078Y0190837I0000000J-000581D01*
G01*
X0385078Y0189478D01*
G75*
G02*
X0384498Y0188898I-000581J0000000D01*
G01*
X0383336Y0188898D01*
G75*
G02*
X0382755Y0189478I0000000J0000581D01*
G01*
G37*
G36*
G01*
X0386574Y0189478D02*
X0386574Y0190837D01*
G75*
G02*
X0387155Y0191417I0000581J0000000D01*
G01*
X0388316Y0191417D01*
G75*
G02*
X0388897Y0190837I0000000J-000581D01*
G01*
X0388897Y0189478D01*
G75*
G02*
X0388316Y0188898I-000581J0000000D01*
G01*
X0387155Y0188898D01*
G75*
G02*
X0386574Y0189478I0000000J0000581D01*
G01*
G37*
G36*
G01*
X0376948Y0174665D02*
X0375610Y0174665D01*
G75*
G02*
X0375059Y0175216I0000000J0000551D01*
G01*
X0375059Y0176319D01*
G75*
G02*
X0375610Y0176870I0000551J0000000D01*
G01*
X0376948Y0176870D01*
G75*
G02*
X0377500Y0176319I0000000J-000551D01*
G01*
X0377500Y0175216D01*
G75*
G02*
X0376948Y0174665I-000551J0000000D01*
G01*
G37*
G36*
G01*
X0376948Y0178445D02*
X0375610Y0178445D01*
G75*
G02*
X0375059Y0178996I0000000J0000551D01*
G01*
X0375059Y0180098D01*
G75*
G02*
X0375610Y0180649I0000551J0000000D01*
G01*
X0376948Y0180649D01*
G75*
G02*
X0377500Y0180098I0000000J-000551D01*
G01*
X0377500Y0178996D01*
G75*
G02*
X0376948Y0178445I-000551J0000000D01*
G01*
G37*
G36*
G01*
X0350689Y0229606D02*
X0352145Y0229606D01*
G75*
G02*
X0352677Y0229075I0000000J-000531D01*
G01*
X0352677Y0228012D01*
G75*
G02*
X0352145Y0227480I-000531J0000000D01*
G01*
X0350689Y0227480D01*
G75*
G02*
X0350157Y0228012I0000000J0000531D01*
G01*
X0350157Y0229075D01*
G75*
G02*
X0350689Y0229606I0000531J0000000D01*
G01*
G37*
G36*
G01*
X0350689Y0225591D02*
X0352145Y0225591D01*
G75*
G02*
X0352677Y0225059I0000000J-000531D01*
G01*
X0352677Y0223996D01*
G75*
G02*
X0352145Y0223465I-000531J0000000D01*
G01*
X0350689Y0223465D01*
G75*
G02*
X0350157Y0223996I0000000J0000531D01*
G01*
X0350157Y0225059D01*
G75*
G02*
X0350689Y0225591I0000531J0000000D01*
G01*
G37*
G36*
G01*
X0365221Y0168878D02*
X0365221Y0167421D01*
G75*
G02*
X0364690Y0166890I-000531J0000000D01*
G01*
X0363627Y0166890D01*
G75*
G02*
X0363095Y0167421I0000000J0000531D01*
G01*
X0363095Y0168878D01*
G75*
G02*
X0363627Y0169410I0000531J0000000D01*
G01*
X0364690Y0169410D01*
G75*
G02*
X0365221Y0168878I0000000J-000531D01*
G01*
G37*
G36*
G01*
X0361206Y0168878D02*
X0361206Y0167421D01*
G75*
G02*
X0360674Y0166890I-000531J0000000D01*
G01*
X0359611Y0166890D01*
G75*
G02*
X0359080Y0167421I0000000J0000531D01*
G01*
X0359080Y0168878D01*
G75*
G02*
X0359611Y0169410I0000531J0000000D01*
G01*
X0360674Y0169410D01*
G75*
G02*
X0361206Y0168878I0000000J-000531D01*
G01*
G37*
G36*
G01*
X0389173Y0169488D02*
X0387992Y0169488D01*
G75*
G02*
X0387401Y0170079I0000000J0000591D01*
G01*
X0387401Y0174705D01*
G75*
G02*
X0387992Y0175295I0000591J0000000D01*
G01*
X0389173Y0175295D01*
G75*
G02*
X0389763Y0174705I0000000J-000591D01*
G01*
X0389763Y0170079D01*
G75*
G02*
X0389173Y0169488I-000591J0000000D01*
G01*
G37*
G36*
G01*
X0381692Y0169488D02*
X0380511Y0169488D01*
G75*
G02*
X0379921Y0170079I0000000J0000591D01*
G01*
X0379921Y0174705D01*
G75*
G02*
X0380511Y0175295I0000591J0000000D01*
G01*
X0381692Y0175295D01*
G75*
G02*
X0382283Y0174705I0000000J-000591D01*
G01*
X0382283Y0170079D01*
G75*
G02*
X0381692Y0169488I-000591J0000000D01*
G01*
G37*
G36*
G01*
X0385433Y0176870D02*
X0384252Y0176870D01*
G75*
G02*
X0383661Y0177461I0000000J0000591D01*
G01*
X0383661Y0182087D01*
G75*
G02*
X0384252Y0182677I0000591J0000000D01*
G01*
X0385433Y0182677D01*
G75*
G02*
X0386023Y0182087I0000000J-000591D01*
G01*
X0386023Y0177461D01*
G75*
G02*
X0385433Y0176870I-000591J0000000D01*
G01*
G37*
G36*
G01*
X0351241Y0167441D02*
X0351241Y0168780D01*
G75*
G02*
X0351792Y0169331I0000551J0000000D01*
G01*
X0352895Y0169331D01*
G75*
G02*
X0353446Y0168780I0000000J-000551D01*
G01*
X0353446Y0167441D01*
G75*
G02*
X0352895Y0166890I-000551J0000000D01*
G01*
X0351792Y0166890D01*
G75*
G02*
X0351241Y0167441I0000000J0000551D01*
G01*
G37*
G36*
G01*
X0355021Y0167441D02*
X0355021Y0168780D01*
G75*
G02*
X0355572Y0169331I0000551J0000000D01*
G01*
X0356674Y0169331D01*
G75*
G02*
X0357225Y0168780I0000000J-000551D01*
G01*
X0357225Y0167441D01*
G75*
G02*
X0356674Y0166890I-000551J0000000D01*
G01*
X0355572Y0166890D01*
G75*
G02*
X0355021Y0167441I0000000J0000551D01*
G01*
G37*
G36*
G01*
X0354312Y0198228D02*
X0355493Y0198228D01*
G75*
G02*
X0356084Y0197638I0000000J-000591D01*
G01*
X0356084Y0191929D01*
G75*
G02*
X0355493Y0191339I-000591J0000000D01*
G01*
X0354312Y0191339D01*
G75*
G02*
X0353722Y0191929I0000000J0000591D01*
G01*
X0353722Y0197638D01*
G75*
G02*
X0354312Y0198228I0000591J0000000D01*
G01*
G37*
G36*
G01*
X0359312Y0198228D02*
X0360493Y0198228D01*
G75*
G02*
X0361084Y0197638I0000000J-000591D01*
G01*
X0361084Y0191929D01*
G75*
G02*
X0360493Y0191339I-000591J0000000D01*
G01*
X0359312Y0191339D01*
G75*
G02*
X0358722Y0191929I0000000J0000591D01*
G01*
X0358722Y0197638D01*
G75*
G02*
X0359312Y0198228I0000591J0000000D01*
G01*
G37*
G36*
G01*
X0364312Y0198228D02*
X0365493Y0198228D01*
G75*
G02*
X0366084Y0197638I0000000J-000591D01*
G01*
X0366084Y0191929D01*
G75*
G02*
X0365493Y0191339I-000591J0000000D01*
G01*
X0364312Y0191339D01*
G75*
G02*
X0363722Y0191929I0000000J0000591D01*
G01*
X0363722Y0197638D01*
G75*
G02*
X0364312Y0198228I0000591J0000000D01*
G01*
G37*
G36*
G01*
X0369312Y0198228D02*
X0370493Y0198228D01*
G75*
G02*
X0371084Y0197638I0000000J-000591D01*
G01*
X0371084Y0191929D01*
G75*
G02*
X0370493Y0191339I-000591J0000000D01*
G01*
X0369312Y0191339D01*
G75*
G02*
X0368722Y0191929I0000000J0000591D01*
G01*
X0368722Y0197638D01*
G75*
G02*
X0369312Y0198228I0000591J0000000D01*
G01*
G37*
G36*
G01*
X0369312Y0177953D02*
X0370493Y0177953D01*
G75*
G02*
X0371084Y0177362I0000000J-000591D01*
G01*
X0371084Y0171654D01*
G75*
G02*
X0370493Y0171063I-000591J0000000D01*
G01*
X0369312Y0171063D01*
G75*
G02*
X0368722Y0171654I0000000J0000591D01*
G01*
X0368722Y0177362D01*
G75*
G02*
X0369312Y0177953I0000591J0000000D01*
G01*
G37*
G36*
G01*
X0364312Y0177953D02*
X0365493Y0177953D01*
G75*
G02*
X0366084Y0177362I0000000J-000591D01*
G01*
X0366084Y0171654D01*
G75*
G02*
X0365493Y0171063I-000591J0000000D01*
G01*
X0364312Y0171063D01*
G75*
G02*
X0363722Y0171654I0000000J0000591D01*
G01*
X0363722Y0177362D01*
G75*
G02*
X0364312Y0177953I0000591J0000000D01*
G01*
G37*
G36*
G01*
X0359312Y0177953D02*
X0360493Y0177953D01*
G75*
G02*
X0361084Y0177362I0000000J-000591D01*
G01*
X0361084Y0171654D01*
G75*
G02*
X0360493Y0171063I-000591J0000000D01*
G01*
X0359312Y0171063D01*
G75*
G02*
X0358722Y0171654I0000000J0000591D01*
G01*
X0358722Y0177362D01*
G75*
G02*
X0359312Y0177953I0000591J0000000D01*
G01*
G37*
G36*
G01*
X0354312Y0177953D02*
X0355493Y0177953D01*
G75*
G02*
X0356084Y0177362I0000000J-000591D01*
G01*
X0356084Y0171654D01*
G75*
G02*
X0355493Y0171063I-000591J0000000D01*
G01*
X0354312Y0171063D01*
G75*
G02*
X0353722Y0171654I0000000J0000591D01*
G01*
X0353722Y0177362D01*
G75*
G02*
X0354312Y0177953I0000591J0000000D01*
G01*
G37*
X0312992Y0189764D02*
G01*
G75*
D396*
X0261023Y0104725D02*
D03*
X0261023Y0130020D02*
D03*
X0261023Y0114764D02*
D03*
X0261023Y0119980D02*
D03*
X0268110Y0089469D02*
D03*
X0261023Y0089469D02*
D03*
X0261023Y0099508D02*
D03*
X0268110Y0099508D02*
D03*
X0268110Y0130020D02*
D03*
X0268110Y0119980D02*
D03*
X0268110Y0114764D02*
D03*
X0268110Y0104725D02*
D03*
D397*
X0261023Y0108170D02*
D03*
X0261023Y0123425D02*
D03*
X0261023Y0111319D02*
D03*
X0261023Y0126575D02*
D03*
X0261023Y0096063D02*
D03*
X0261023Y0092914D02*
D03*
X0268110Y0092914D02*
D03*
X0268110Y0096063D02*
D03*
X0268110Y0123425D02*
D03*
X0268110Y0126575D02*
D03*
X0268110Y0108170D02*
D03*
X0268110Y0111319D02*
D03*
D400*
X0259055Y0051575D02*
D03*
X0262992Y0051575D02*
D03*
X0264567Y0055118D02*
D03*
X0268504Y0055118D02*
D03*
X0256693Y0072441D02*
D03*
X0260630Y0072441D02*
D03*
X0228040Y0130143D02*
D03*
X0231977Y0130143D02*
D03*
X0236236Y0130143D02*
D03*
X0240173Y0130143D02*
D03*
X0279558Y0097676D02*
D03*
X0283495Y0097676D02*
D03*
X0279558Y0101399D02*
D03*
X0283495Y0101399D02*
D03*
X0281974Y0064567D02*
D03*
X0278037Y0064567D02*
D03*
X0193340Y0053634D02*
D03*
X0229088Y0053873D02*
D03*
X0214173Y0130143D02*
D03*
X0246457Y0075985D02*
D03*
X0246457Y0080315D02*
D03*
X0249887Y0084534D02*
D03*
X0261164Y0084479D02*
D03*
X0240748Y0114139D02*
D03*
X0249537Y0114139D02*
D03*
X0253474Y0122624D02*
D03*
X0188557Y0152490D02*
D03*
X0214173Y0134646D02*
D03*
X0255118Y0051575D02*
D03*
X0268504Y0084570D02*
D03*
X0290157Y0083172D02*
D03*
X0304222Y0083172D02*
D03*
X0290157Y0087402D02*
D03*
X0304222Y0087402D02*
D03*
X0264519Y0134310D02*
D03*
X0309055Y0136221D02*
D03*
X0242520Y0075985D02*
D03*
X0253474Y0114139D02*
D03*
X0244685Y0114139D02*
D03*
X0244685Y0118627D02*
D03*
X0240748Y0118627D02*
D03*
X0186614Y0138583D02*
D03*
X0190551Y0138583D02*
D03*
X0192494Y0152490D02*
D03*
X0277939Y0081666D02*
D03*
X0281876Y0081666D02*
D03*
X0308160Y0083172D02*
D03*
X0264567Y0084570D02*
D03*
X0249537Y0122624D02*
D03*
X0257227Y0084479D02*
D03*
X0253824Y0084534D02*
D03*
X0294094Y0087402D02*
D03*
X0268456Y0134310D02*
D03*
X0305118Y0136221D02*
D03*
X0233025Y0053873D02*
D03*
X0259055Y0051575D02*
D03*
X0285827Y0076599D02*
D03*
X0289764Y0076599D02*
D03*
X0294094Y0083172D02*
D03*
X0210236Y0134646D02*
D03*
X0210236Y0130143D02*
D03*
X0242520Y0080315D02*
D03*
X0197277Y0053634D02*
D03*
X0206593Y0053634D02*
D03*
X0202656Y0053634D02*
D03*
X0300285Y0087402D02*
D03*
X0309055Y0132284D02*
D03*
X0305118Y0132284D02*
D03*
X0309055Y0119882D02*
D03*
X0305118Y0119882D02*
D03*
X0309055Y0115748D02*
D03*
X0305118Y0115748D02*
D03*
X0309055Y0107480D02*
D03*
X0305118Y0107480D02*
D03*
X0309055Y0111614D02*
D03*
X0305118Y0111614D02*
D03*
X0309055Y0103347D02*
D03*
X0305118Y0103347D02*
D03*
X0309055Y0124016D02*
D03*
X0305118Y0124016D02*
D03*
X0309055Y0128150D02*
D03*
X0305118Y0128150D02*
D03*
D402*
X0254065Y0100788D02*
D03*
X0254065Y0096555D02*
D03*
X0208661Y0184646D02*
D03*
X0213386Y0184646D02*
D03*
X0218110Y0184646D02*
D03*
X0222834Y0184646D02*
D03*
X0292913Y0056299D02*
D03*
X0288779Y0056299D02*
D03*
X0197599Y0148520D02*
D03*
X0197599Y0144583D02*
D03*
X0308528Y0057481D02*
D03*
X0308528Y0061417D02*
D03*
X0254065Y0092618D02*
D03*
X0254065Y0104725D02*
D03*
X0201771Y0149016D02*
D03*
X0201771Y0145079D02*
D03*
X0226544Y0176792D02*
D03*
X0226544Y0172855D02*
D03*
X0222834Y0172855D02*
D03*
X0222834Y0176792D02*
D03*
X0222834Y0162205D02*
D03*
X0222834Y0166142D02*
D03*
X0222834Y0180709D02*
D03*
X0218110Y0180709D02*
D03*
X0208661Y0180709D02*
D03*
X0213386Y0180709D02*
D03*
X0307493Y0147515D02*
D03*
X0307493Y0143578D02*
D03*
X0257283Y0144488D02*
D03*
X0257283Y0148425D02*
D03*
X0257283Y0154725D02*
D03*
X0257283Y0158662D02*
D03*
X0285236Y0144488D02*
D03*
X0285236Y0148425D02*
D03*
X0261811Y0169882D02*
D03*
X0261811Y0165945D02*
D03*
X0291141Y0169882D02*
D03*
X0291141Y0165945D02*
D03*
X0303937Y0169882D02*
D03*
X0303937Y0165945D02*
D03*
X0287045Y0176792D02*
D03*
X0287045Y0180729D02*
D03*
X0308661Y0177166D02*
D03*
X0308661Y0173229D02*
D03*
X0308464Y0180315D02*
D03*
X0308464Y0184252D02*
D03*
X0308528Y0069007D02*
D03*
X0308528Y0065070D02*
D03*
X0292913Y0052362D02*
D03*
X0288779Y0052362D02*
D03*
X0285039Y0165945D02*
D03*
X0285039Y0169882D02*
D03*
X0280709Y0165945D02*
D03*
X0280709Y0169882D02*
D03*
X0272244Y0165945D02*
D03*
X0272244Y0169882D02*
D03*
X0268078Y0180729D02*
D03*
X0268078Y0176792D02*
D03*
X0229331Y0148425D02*
D03*
X0229331Y0144488D02*
D03*
X0299606Y0165945D02*
D03*
X0299606Y0169882D02*
D03*
X0249235Y0180729D02*
D03*
X0249235Y0176792D02*
D03*
X0253346Y0165945D02*
D03*
X0253346Y0169882D02*
D03*
X0266141Y0165945D02*
D03*
X0266141Y0169882D02*
D03*
X0230255Y0180729D02*
D03*
X0230255Y0176792D02*
D03*
X0234448Y0165945D02*
D03*
X0234448Y0169882D02*
D03*
X0242913Y0165945D02*
D03*
X0242913Y0169882D02*
D03*
X0247244Y0165945D02*
D03*
X0247244Y0169882D02*
D03*
X0229467Y0162205D02*
D03*
X0229467Y0166142D02*
D03*
D404*
X0273435Y0059508D02*
D03*
X0281175Y0068983D02*
D03*
X0299508Y0092353D02*
D03*
D407*
X0225787Y0060925D02*
D03*
X0232087Y0060925D02*
D03*
X0262401Y0059547D02*
D03*
X0268701Y0059547D02*
D03*
X0262401Y0064173D02*
D03*
X0268701Y0064173D02*
D03*
D404*
X0290256Y0096094D02*
D03*
X0281175Y0076463D02*
D03*
X0271923Y0072723D02*
D03*
X0273435Y0052028D02*
D03*
X0282687Y0055768D02*
D03*
X0299508Y0099834D02*
D03*
D218*
X0235079Y0135630D02*
D03*
X0220866Y0135630D02*
D03*
X0250866Y0135630D02*
D03*
D219*
X0197874Y0058071D02*
D03*
X0217874Y0062071D02*
D03*
X0217874Y0054071D02*
D03*
D36*
X0308661Y0052362D02*
D03*
D425*
X0264961Y0069370D02*
D03*
X0264961Y0075591D02*
D03*
D426*
X0235531Y0140158D02*
D03*
X0235531Y0147244D02*
D03*
X0245571Y0147244D02*
D03*
X0245571Y0140158D02*
D03*
X0263484Y0147244D02*
D03*
X0291437Y0147244D02*
D03*
X0273523Y0151181D02*
D03*
X0218405Y0176378D02*
D03*
X0218405Y0169292D02*
D03*
X0208366Y0169292D02*
D03*
X0208366Y0176378D02*
D03*
X0301476Y0158268D02*
D03*
X0301476Y0151181D02*
D03*
X0291437Y0151181D02*
D03*
X0291437Y0158268D02*
D03*
X0291437Y0140158D02*
D03*
X0301476Y0147244D02*
D03*
X0301476Y0140158D02*
D03*
X0273523Y0158268D02*
D03*
X0263484Y0151181D02*
D03*
X0263484Y0158268D02*
D03*
X0263484Y0140158D02*
D03*
X0273523Y0147244D02*
D03*
X0273523Y0140158D02*
D03*
X0272539Y0182087D02*
D03*
X0272539Y0175000D02*
D03*
X0282579Y0175000D02*
D03*
X0282579Y0182087D02*
D03*
X0291437Y0182087D02*
D03*
X0291437Y0175000D02*
D03*
X0301476Y0175000D02*
D03*
X0301476Y0182087D02*
D03*
X0253641Y0182087D02*
D03*
X0253641Y0175000D02*
D03*
X0263681Y0175000D02*
D03*
X0263681Y0182087D02*
D03*
X0234744Y0182087D02*
D03*
X0234744Y0175000D02*
D03*
X0244783Y0175000D02*
D03*
X0244783Y0182087D02*
D03*
X0235531Y0158268D02*
D03*
X0235531Y0151181D02*
D03*
X0245571Y0151181D02*
D03*
X0245571Y0158268D02*
D03*
X0207972Y0158268D02*
D03*
X0207972Y0151181D02*
D03*
X0218012Y0151181D02*
D03*
X0218012Y0158268D02*
D03*
X0218012Y0140158D02*
D03*
X0218012Y0147244D02*
D03*
X0207972Y0147244D02*
D03*
X0207972Y0140158D02*
D03*
D427*
X0242126Y0147244D02*
D03*
X0238976Y0147244D02*
D03*
X0238976Y0140158D02*
D03*
X0242126Y0140158D02*
D03*
X0266929Y0147244D02*
D03*
X0294882Y0147244D02*
D03*
X0270079Y0151181D02*
D03*
X0211811Y0169292D02*
D03*
X0214960Y0169292D02*
D03*
X0214960Y0176378D02*
D03*
X0211811Y0176378D02*
D03*
X0294882Y0151181D02*
D03*
X0298031Y0151181D02*
D03*
X0298031Y0158268D02*
D03*
X0294882Y0158268D02*
D03*
X0298031Y0147244D02*
D03*
X0294882Y0140158D02*
D03*
X0298031Y0140158D02*
D03*
X0266929Y0151181D02*
D03*
X0270079Y0158268D02*
D03*
X0266929Y0158268D02*
D03*
X0270078Y0147244D02*
D03*
X0266929Y0140158D02*
D03*
X0270078Y0140158D02*
D03*
X0275984Y0182087D02*
D03*
X0279134Y0182087D02*
D03*
X0279134Y0175000D02*
D03*
X0275984Y0175000D02*
D03*
X0294881Y0182087D02*
D03*
X0298031Y0182087D02*
D03*
X0298031Y0175000D02*
D03*
X0294881Y0175000D02*
D03*
X0257086Y0182087D02*
D03*
X0260236Y0182087D02*
D03*
X0260236Y0175000D02*
D03*
X0257086Y0175000D02*
D03*
X0238189Y0182087D02*
D03*
X0241338Y0182087D02*
D03*
X0241338Y0175000D02*
D03*
X0238189Y0175000D02*
D03*
X0238976Y0158268D02*
D03*
X0242126Y0158268D02*
D03*
X0242126Y0151181D02*
D03*
X0238976Y0151181D02*
D03*
X0211417Y0158268D02*
D03*
X0214567Y0158268D02*
D03*
X0214567Y0151181D02*
D03*
X0211417Y0151181D02*
D03*
X0214567Y0140158D02*
D03*
X0211417Y0140158D02*
D03*
X0211417Y0147244D02*
D03*
X0214567Y0147244D02*
D03*
D428*
X0203189Y0062894D02*
D03*
X0203189Y0057904D02*
D03*
X0209409Y0057904D02*
D03*
X0209409Y0062894D02*
D03*
D429*
X0190551Y0069784D02*
D03*
X0223228Y0069784D02*
D03*
X0190551Y0123917D02*
D03*
X0223228Y0123917D02*
D03*
D430*
X0200787Y0087815D02*
D03*
X0200787Y0079154D02*
D03*
X0200787Y0083484D02*
D03*
X0200787Y0092146D02*
D03*
X0200787Y0096477D02*
D03*
X0200787Y0100807D02*
D03*
X0200787Y0105138D02*
D03*
X0200787Y0109469D02*
D03*
D431*
X0182480Y0168425D02*
D03*
X0195684Y0168425D02*
D03*
X0189961Y0176457D02*
D03*
X0203164Y0176457D02*
D03*
X0186220Y0159173D02*
D03*
X0199424Y0159173D02*
D03*
X0199424Y0185709D02*
D03*
X0287598Y0070788D02*
D03*
X0291338Y0061536D02*
D03*
X0186220Y0185709D02*
D03*
D245*
X0188557Y0142652D02*
D03*
X0192494Y0142652D02*
D03*
X0188557Y0148656D02*
D03*
X0190525Y0148656D02*
D03*
X0190525Y0142652D02*
D03*
X0192494Y0148656D02*
D03*
D432*
X0279122Y0086004D02*
D03*
X0284240Y0086004D02*
D03*
X0281681Y0086004D02*
D03*
X0279122Y0093485D02*
D03*
X0284240Y0093485D02*
D03*
D247*
X0275905Y0105512D02*
D03*
X0298897Y0108071D02*
D03*
X0298897Y0105512D02*
D03*
X0275905Y0128543D02*
D03*
X0298897Y0131102D02*
D03*
X0298897Y0133662D02*
D03*
X0298897Y0128543D02*
D03*
X0298897Y0125984D02*
D03*
X0298897Y0123425D02*
D03*
X0298897Y0120866D02*
D03*
X0298897Y0118307D02*
D03*
X0298897Y0115748D02*
D03*
X0298897Y0113189D02*
D03*
X0298897Y0110630D02*
D03*
X0275905Y0133662D02*
D03*
X0275905Y0131102D02*
D03*
X0275905Y0125984D02*
D03*
X0275905Y0123425D02*
D03*
X0275905Y0120866D02*
D03*
X0275905Y0118307D02*
D03*
X0275905Y0115748D02*
D03*
X0275905Y0113189D02*
D03*
X0275905Y0110630D02*
D03*
X0275905Y0108071D02*
D03*
D433*
X0301968Y0067925D02*
D03*
X0301968Y0056507D02*
D03*
D434*
X0243878Y0065790D02*
D03*
X0256870Y0065790D02*
D03*
X0307955Y0076990D02*
D03*
X0294963Y0076990D02*
D03*
D250*
X0245103Y0091195D02*
D03*
X0245103Y0105762D02*
D03*
D251*
X0193527Y0146638D02*
D03*
X0193527Y0144670D02*
D03*
X0187523Y0144670D02*
D03*
X0187523Y0146638D02*
D03*
D435*
X0258514Y0078672D02*
D03*
X0252609Y0078672D02*
D03*
D431*
X0189961Y0168425D02*
D03*
X0203164Y0168425D02*
D03*
X0195684Y0176457D02*
D03*
X0295079Y0070788D02*
D03*
X0182480Y0176457D02*
D03*
D253*
X0255711Y0129331D02*
D03*
X0249018Y0129331D02*
D03*
D436*
X0239350Y0055794D02*
D03*
X0250767Y0055794D02*
D03*
D437*
X0308267Y0090158D02*
D03*
X0308267Y0096457D02*
D03*
X0120571Y0215256D02*
G01*
G75*
D128*
X0144980Y0184055D02*
D03*
X0131004Y0183760D02*
D03*
X0125984Y0184941D02*
D03*
X0128051Y0188386D02*
D03*
M02*
