G75*
G70*
%OFA0B0*%
%FSLAX25Y25*%
%IPPOS*%
%LPD*%
%AMOC8*
5,1,8,0,0,1.08239X$1,22.5*
%
%AMM121*
21,1,0.029130,0.018900,0.000000,-0.000000,90.000000*
21,1,0.018900,0.029130,0.000000,-0.000000,90.000000*
1,1,0.010240,0.009450,0.009450*
1,1,0.010240,0.009450,-0.009450*
1,1,0.010240,-0.009450,-0.009450*
1,1,0.010240,-0.009450,0.009450*
%
%AMM122*
21,1,0.025200,0.019680,0.000000,-0.000000,180.000000*
21,1,0.015750,0.029130,0.000000,-0.000000,180.000000*
1,1,0.009450,-0.007870,0.009840*
1,1,0.009450,0.007870,0.009840*
1,1,0.009450,0.007870,-0.009840*
1,1,0.009450,-0.007870,-0.009840*
%
%AMM123*
21,1,0.038980,0.026770,0.000000,-0.000000,180.000000*
21,1,0.026770,0.038980,0.000000,-0.000000,180.000000*
1,1,0.012210,-0.013390,0.013390*
1,1,0.012210,0.013390,0.013390*
1,1,0.012210,0.013390,-0.013390*
1,1,0.012210,-0.013390,-0.013390*
%
%AMM124*
21,1,0.025200,0.019680,0.000000,-0.000000,270.000000*
21,1,0.015750,0.029130,0.000000,-0.000000,270.000000*
1,1,0.009450,-0.009840,-0.007870*
1,1,0.009450,-0.009840,0.007870*
1,1,0.009450,0.009840,0.007870*
1,1,0.009450,0.009840,-0.007870*
%
%AMM199*
21,1,0.029530,0.026380,-0.000000,-0.000000,90.000000*
21,1,0.020470,0.035430,-0.000000,-0.000000,90.000000*
1,1,0.009060,0.013190,0.010240*
1,1,0.009060,0.013190,-0.010240*
1,1,0.009060,-0.013190,-0.010240*
1,1,0.009060,-0.013190,0.010240*
%
%AMM20*
21,1,0.041340,0.026770,0.000000,0.000000,0.000000*
21,1,0.029130,0.038980,0.000000,0.000000,0.000000*
1,1,0.012210,0.014570,-0.013390*
1,1,0.012210,-0.014570,-0.013390*
1,1,0.012210,-0.014570,0.013390*
1,1,0.012210,0.014570,0.013390*
%
%AMM200*
21,1,0.021650,0.027950,-0.000000,-0.000000,90.000000*
21,1,0.014170,0.035430,-0.000000,-0.000000,90.000000*
1,1,0.007480,0.013980,0.007090*
1,1,0.007480,0.013980,-0.007090*
1,1,0.007480,-0.013980,-0.007090*
1,1,0.007480,-0.013980,0.007090*
%
%AMM203*
21,1,0.031500,0.018900,-0.000000,-0.000000,270.000000*
21,1,0.022840,0.027560,-0.000000,-0.000000,270.000000*
1,1,0.008660,-0.009450,-0.011420*
1,1,0.008660,-0.009450,0.011420*
1,1,0.008660,0.009450,0.011420*
1,1,0.008660,0.009450,-0.011420*
%
%AMM205*
21,1,0.031500,0.018900,-0.000000,-0.000000,0.000000*
21,1,0.022840,0.027560,-0.000000,-0.000000,0.000000*
1,1,0.008660,0.011420,-0.009450*
1,1,0.008660,-0.011420,-0.009450*
1,1,0.008660,-0.011420,0.009450*
1,1,0.008660,0.011420,0.009450*
%
%AMM207*
21,1,0.039370,0.030320,-0.000000,-0.000000,90.000000*
21,1,0.028350,0.041340,-0.000000,-0.000000,90.000000*
1,1,0.011020,0.015160,0.014170*
1,1,0.011020,0.015160,-0.014170*
1,1,0.011020,-0.015160,-0.014170*
1,1,0.011020,-0.015160,0.014170*
%
%AMM21*
21,1,0.076380,0.036220,0.000000,0.000000,90.000000*
21,1,0.061810,0.050790,0.000000,0.000000,90.000000*
1,1,0.014570,0.018110,0.030910*
1,1,0.014570,0.018110,-0.030910*
1,1,0.014570,-0.018110,-0.030910*
1,1,0.014570,-0.018110,0.030910*
%
%AMM210*
21,1,0.031500,0.030710,-0.000000,-0.000000,180.000000*
21,1,0.022050,0.040160,-0.000000,-0.000000,180.000000*
1,1,0.009450,-0.011020,0.015350*
1,1,0.009450,0.011020,0.015350*
1,1,0.009450,0.011020,-0.015350*
1,1,0.009450,-0.011020,-0.015350*
%
%AMM228*
21,1,0.037400,0.026770,-0.000000,-0.000000,270.000000*
21,1,0.026770,0.037400,-0.000000,-0.000000,270.000000*
1,1,0.010630,-0.013390,-0.013390*
1,1,0.010630,-0.013390,0.013390*
1,1,0.010630,0.013390,0.013390*
1,1,0.010630,0.013390,-0.013390*
%
%AMM229*
21,1,0.029530,0.026380,-0.000000,-0.000000,180.000000*
21,1,0.020470,0.035430,-0.000000,-0.000000,180.000000*
1,1,0.009060,-0.010240,0.013190*
1,1,0.009060,0.010240,0.013190*
1,1,0.009060,0.010240,-0.013190*
1,1,0.009060,-0.010240,-0.013190*
%
%AMM230*
21,1,0.021650,0.027950,-0.000000,-0.000000,180.000000*
21,1,0.014170,0.035430,-0.000000,-0.000000,180.000000*
1,1,0.007480,-0.007090,0.013980*
1,1,0.007480,0.007090,0.013980*
1,1,0.007480,0.007090,-0.013980*
1,1,0.007480,-0.007090,-0.013980*
%
%AMM231*
21,1,0.037400,0.026770,-0.000000,-0.000000,180.000000*
21,1,0.026770,0.037400,-0.000000,-0.000000,180.000000*
1,1,0.010630,-0.013390,0.013390*
1,1,0.010630,0.013390,0.013390*
1,1,0.010630,0.013390,-0.013390*
1,1,0.010630,-0.013390,-0.013390*
%
%AMM232*
21,1,0.082680,0.045670,-0.000000,-0.000000,0.000000*
21,1,0.067320,0.061020,-0.000000,-0.000000,0.000000*
1,1,0.015350,0.033660,-0.022840*
1,1,0.015350,-0.033660,-0.022840*
1,1,0.015350,-0.033660,0.022840*
1,1,0.015350,0.033660,0.022840*
%
%AMM233*
21,1,0.062990,0.020470,-0.000000,-0.000000,0.000000*
21,1,0.053940,0.029530,-0.000000,-0.000000,0.000000*
1,1,0.009060,0.026970,-0.010240*
1,1,0.009060,-0.026970,-0.010240*
1,1,0.009060,-0.026970,0.010240*
1,1,0.009060,0.026970,0.010240*
%
%AMM234*
21,1,0.039370,0.030320,-0.000000,-0.000000,0.000000*
21,1,0.028350,0.041340,-0.000000,-0.000000,0.000000*
1,1,0.011020,0.014170,-0.015160*
1,1,0.011020,-0.014170,-0.015160*
1,1,0.011020,-0.014170,0.015160*
1,1,0.011020,0.014170,0.015160*
%
%AMM235*
21,1,0.016540,0.028980,-0.000000,-0.000000,0.000000*
21,1,0.010080,0.035430,-0.000000,-0.000000,0.000000*
1,1,0.006460,0.005040,-0.014490*
1,1,0.006460,-0.005040,-0.014490*
1,1,0.006460,-0.005040,0.014490*
1,1,0.006460,0.005040,0.014490*
%
%AMM236*
21,1,0.074800,0.036220,-0.000000,-0.000000,180.000000*
21,1,0.061810,0.049210,-0.000000,-0.000000,180.000000*
1,1,0.012990,-0.030910,0.018110*
1,1,0.012990,0.030910,0.018110*
1,1,0.012990,0.030910,-0.018110*
1,1,0.012990,-0.030910,-0.018110*
%
%AMM237*
21,1,0.039760,0.026770,-0.000000,-0.000000,180.000000*
21,1,0.029130,0.037400,-0.000000,-0.000000,180.000000*
1,1,0.010630,-0.014570,0.013390*
1,1,0.010630,0.014570,0.013390*
1,1,0.010630,0.014570,-0.013390*
1,1,0.010630,-0.014570,-0.013390*
%
%AMM238*
21,1,0.031500,0.049610,-0.000000,-0.000000,180.000000*
21,1,0.022050,0.059060,-0.000000,-0.000000,180.000000*
1,1,0.009450,-0.011020,0.024800*
1,1,0.009450,0.011020,0.024800*
1,1,0.009450,0.011020,-0.024800*
1,1,0.009450,-0.011020,-0.024800*
%
%AMM239*
21,1,0.074800,0.036220,-0.000000,-0.000000,270.000000*
21,1,0.061810,0.049210,-0.000000,-0.000000,270.000000*
1,1,0.012990,-0.018110,-0.030910*
1,1,0.012990,-0.018110,0.030910*
1,1,0.012990,0.018110,0.030910*
1,1,0.012990,0.018110,-0.030910*
%
%AMM24*
21,1,0.029130,0.018900,0.000000,0.000000,90.000000*
21,1,0.018900,0.029130,0.000000,0.000000,90.000000*
1,1,0.010240,0.009450,0.009450*
1,1,0.010240,0.009450,-0.009450*
1,1,0.010240,-0.009450,-0.009450*
1,1,0.010240,-0.009450,0.009450*
%
%AMM240*
21,1,0.031500,0.030710,-0.000000,-0.000000,270.000000*
21,1,0.022050,0.040160,-0.000000,-0.000000,270.000000*
1,1,0.009450,-0.015350,-0.011020*
1,1,0.009450,-0.015350,0.011020*
1,1,0.009450,0.015350,0.011020*
1,1,0.009450,0.015350,-0.011020*
%
%AMM25*
21,1,0.025200,0.019680,0.000000,0.000000,0.000000*
21,1,0.015750,0.029130,0.000000,0.000000,0.000000*
1,1,0.009450,0.007870,-0.009840*
1,1,0.009450,-0.007870,-0.009840*
1,1,0.009450,-0.007870,0.009840*
1,1,0.009450,0.007870,0.009840*
%
%AMM26*
21,1,0.025200,0.019680,0.000000,0.000000,270.000000*
21,1,0.015750,0.029130,0.000000,0.000000,270.000000*
1,1,0.009450,-0.009840,-0.007870*
1,1,0.009450,-0.009840,0.007870*
1,1,0.009450,0.009840,0.007870*
1,1,0.009450,0.009840,-0.007870*
%
%AMM32*
21,1,0.111810,0.050390,0.000000,0.000000,90.000000*
21,1,0.093700,0.068500,0.000000,0.000000,90.000000*
1,1,0.018110,0.025200,0.046850*
1,1,0.018110,0.025200,-0.046850*
1,1,0.018110,-0.025200,-0.046850*
1,1,0.018110,-0.025200,0.046850*
%
%AMM33*
21,1,0.038980,0.026770,0.000000,0.000000,270.000000*
21,1,0.026770,0.038980,0.000000,0.000000,270.000000*
1,1,0.012210,-0.013390,-0.013390*
1,1,0.012210,-0.013390,0.013390*
1,1,0.012210,0.013390,0.013390*
1,1,0.012210,0.013390,-0.013390*
%
%AMM34*
21,1,0.029130,0.018900,0.000000,0.000000,180.000000*
21,1,0.018900,0.029130,0.000000,0.000000,180.000000*
1,1,0.010240,-0.009450,0.009450*
1,1,0.010240,0.009450,0.009450*
1,1,0.010240,0.009450,-0.009450*
1,1,0.010240,-0.009450,-0.009450*
%
%AMM35*
21,1,0.127560,0.075590,0.000000,0.000000,180.000000*
21,1,0.103150,0.100000,0.000000,0.000000,180.000000*
1,1,0.024410,-0.051580,0.037800*
1,1,0.024410,0.051580,0.037800*
1,1,0.024410,0.051580,-0.037800*
1,1,0.024410,-0.051580,-0.037800*
%
%AMM36*
21,1,0.123620,0.083460,0.000000,0.000000,0.000000*
21,1,0.097240,0.109840,0.000000,0.000000,0.000000*
1,1,0.026380,0.048620,-0.041730*
1,1,0.026380,-0.048620,-0.041730*
1,1,0.026380,-0.048620,0.041730*
1,1,0.026380,0.048620,0.041730*
%
%ADD12C,0.11811*%
%ADD120M20*%
%ADD121M21*%
%ADD124M24*%
%ADD125M25*%
%ADD126M26*%
%ADD127C,0.02913*%
%ADD128C,0.06457*%
%ADD138M32*%
%ADD139M33*%
%ADD140M34*%
%ADD141O,0.02520X0.09213*%
%ADD142M35*%
%ADD143M36*%
%ADD158C,0.05118*%
%ADD173C,0.03900*%
%ADD20O,0.10630X0.14567*%
%ADD21C,0.06693*%
%ADD22R,0.07874X0.05906*%
%ADD228C,0.04724*%
%ADD229C,0.04294*%
%ADD23R,0.07874X0.14961*%
%ADD24C,0.03150*%
%ADD25C,0.25197*%
%ADD254R,0.01772X0.01870*%
%ADD256O,0.05354X0.01378*%
%ADD259R,0.09843X0.07087*%
%ADD26C,0.06000*%
%ADD260R,0.01870X0.01772*%
%ADD262R,0.04331X0.04724*%
%ADD27O,0.07283X0.06693*%
%ADD28R,0.05906X0.07874*%
%ADD29R,0.14961X0.07874*%
%ADD30C,0.02362*%
%ADD304M121*%
%ADD305M122*%
%ADD306M123*%
%ADD307M124*%
%ADD311R,0.07874X0.07500*%
%ADD312O,0.07874X0.07500*%
%ADD314R,0.01772X0.05709*%
%ADD315R,0.02559X0.04803*%
%ADD36R,0.04331X0.04331*%
%ADD37C,0.04331*%
%ADD38O,0.09449X0.04331*%
%ADD41C,0.05906*%
%ADD410M199*%
%ADD411M200*%
%ADD414M203*%
%ADD416M205*%
%ADD418M207*%
%ADD421M210*%
%ADD439M228*%
%ADD440M229*%
%ADD441M230*%
%ADD442M231*%
%ADD443M232*%
%ADD444M233*%
%ADD445M234*%
%ADD446M235*%
%ADD447M236*%
%ADD448M237*%
%ADD449M238*%
%ADD450M239*%
%ADD451M240*%
%ADD57O,0.14567X0.10630*%
%ADD74O,0.03937X0.08268*%
%ADD75O,0.03937X0.06299*%
%ADD76R,0.06693X0.06693*%
%ADD77O,0.06693X0.06693*%
%ADD78C,0.13000*%
%ADD80C,0.00472*%
%ADD81C,0.02559*%
%ADD94R,0.09055X0.17323*%
%ADD95R,0.09055X0.15748*%
X0000000Y0000000D02*
%LPD*%
G01*
D80*
X0390354Y0029232D02*
X0339173Y0029232D01*
X0339173Y0056791D01*
X0390354Y0056791D01*
X0390354Y0029232D01*
G36*
X0390354Y0029232D02*
G01*
X0339173Y0029232D01*
X0339173Y0056791D01*
X0390354Y0056791D01*
X0390354Y0029232D01*
G37*
D12*
X0033858Y0385925D03*
X0182677Y0385925D03*
G36*
G01*
X0028543Y0350886D02*
X0028543Y0363484D01*
G75*
G02*
X0029528Y0364469I0000984J0000000D01*
G01*
X0038189Y0364469D01*
G75*
G02*
X0039173Y0363484I0000000J-000984D01*
G01*
X0039173Y0350886D01*
G75*
G02*
X0038189Y0349902I-000984J0000000D01*
G01*
X0029528Y0349902D01*
G75*
G02*
X0028543Y0350886I0000000J0000984D01*
G01*
G37*
D20*
X0050394Y0357185D03*
X0066929Y0357185D03*
X0083465Y0357185D03*
X0100000Y0357185D03*
X0116535Y0357185D03*
X0133071Y0357185D03*
X0149606Y0357185D03*
X0166142Y0357185D03*
X0182677Y0357185D03*
X0033858Y0335531D03*
X0050394Y0335531D03*
X0066929Y0335531D03*
X0083465Y0335531D03*
X0100000Y0335531D03*
X0116535Y0335531D03*
X0133071Y0335531D03*
X0149606Y0335531D03*
X0166142Y0335531D03*
X0182677Y0335531D03*
D21*
X0133858Y0226378D03*
D12*
X0211024Y0385925D03*
X0359843Y0385925D03*
G36*
G01*
X0205709Y0350886D02*
X0205709Y0363484D01*
G75*
G02*
X0206693Y0364469I0000984J0000000D01*
G01*
X0215354Y0364469D01*
G75*
G02*
X0216339Y0363484I0000000J-000984D01*
G01*
X0216339Y0350886D01*
G75*
G02*
X0215354Y0349902I-000984J0000000D01*
G01*
X0206693Y0349902D01*
G75*
G02*
X0205709Y0350886I0000000J0000984D01*
G01*
G37*
D20*
X0227559Y0357185D03*
X0244094Y0357185D03*
X0260630Y0357185D03*
X0277165Y0357185D03*
X0293701Y0357185D03*
X0310236Y0357185D03*
X0326772Y0357185D03*
X0343307Y0357185D03*
X0359843Y0357185D03*
X0211024Y0335531D03*
X0227559Y0335531D03*
X0244094Y0335531D03*
X0260630Y0335531D03*
X0277165Y0335531D03*
X0293701Y0335531D03*
X0310236Y0335531D03*
X0326772Y0335531D03*
X0343307Y0335531D03*
X0359843Y0335531D03*
D21*
X0122047Y0226378D03*
D24*
X0004331Y0346457D03*
X0007098Y0353138D03*
X0007098Y0339775D03*
X0013780Y0355906D03*
D25*
X0013780Y0346457D03*
D24*
X0013780Y0337008D03*
X0020461Y0353138D03*
X0020461Y0339775D03*
X0023228Y0346457D03*
X0370472Y0346457D03*
X0373240Y0353138D03*
X0373240Y0339775D03*
X0379921Y0355906D03*
D25*
X0379921Y0346457D03*
D24*
X0379921Y0337008D03*
X0386603Y0353138D03*
X0386603Y0339775D03*
X0389370Y0346457D03*
D26*
X0078268Y0076575D03*
X0078268Y0057283D03*
G36*
G01*
X0329429Y0008465D02*
X0324114Y0008465D01*
G75*
G02*
X0323130Y0009449I0000000J0000984D01*
G01*
X0323130Y0014173D01*
G75*
G02*
X0324114Y0015157I0000984J0000000D01*
G01*
X0329429Y0015157D01*
G75*
G02*
X0330413Y0014173I0000000J-000984D01*
G01*
X0330413Y0009449D01*
G75*
G02*
X0329429Y0008465I-000984J0000000D01*
G01*
G37*
D27*
X0326772Y0021654D03*
X0326772Y0031496D03*
X0326772Y0041339D03*
X0326772Y0051181D03*
D21*
X0246063Y0029528D03*
X0171260Y0124016D03*
D24*
X0004331Y0013780D03*
X0007098Y0020461D03*
X0007098Y0007098D03*
X0013780Y0023228D03*
D25*
X0013780Y0013780D03*
D24*
X0013780Y0004331D03*
X0020461Y0020461D03*
X0020461Y0007098D03*
X0023228Y0013780D03*
D30*
X0193602Y0246752D03*
X0188878Y0246752D03*
X0198327Y0246752D03*
X0203051Y0246752D03*
X0177618Y0303543D03*
X0173681Y0303543D03*
D36*
X0233268Y0012205D03*
D37*
X0226378Y0015354D03*
X0233268Y0018504D03*
X0226378Y0021654D03*
X0233268Y0024803D03*
D38*
X0229823Y0004134D03*
X0229823Y0032874D03*
D26*
X0088583Y0076575D03*
X0088583Y0057283D03*
D30*
X0311319Y0287500D03*
X0307579Y0287500D03*
X0303839Y0287500D03*
X0307776Y0321752D03*
X0311319Y0321752D03*
D41*
X0160925Y0081988D03*
X0160925Y0056791D03*
X0160925Y0049311D03*
X0160925Y0032382D03*
D30*
X0162697Y0022933D03*
X0162697Y0018996D03*
D41*
X0160925Y0007776D03*
X0099902Y0083760D03*
X0099902Y0076476D03*
X0099902Y0056988D03*
X0099902Y0009547D03*
D30*
X0125984Y0184941D03*
X0128051Y0188386D03*
X0131004Y0183760D03*
X0144980Y0184055D03*
D12*
X0007776Y0163780D03*
X0007776Y0312598D03*
G36*
G01*
X0042815Y0158465D02*
X0030217Y0158465D01*
G75*
G02*
X0029232Y0159449I0000000J0000984D01*
G01*
X0029232Y0168110D01*
G75*
G02*
X0030217Y0169094I0000984J0000000D01*
G01*
X0042815Y0169094D01*
G75*
G02*
X0043799Y0168110I0000000J-000984D01*
G01*
X0043799Y0159449D01*
G75*
G02*
X0042815Y0158465I-000984J0000000D01*
G01*
G37*
D57*
X0036516Y0180315D03*
X0036516Y0196850D03*
X0036516Y0213386D03*
X0036516Y0229921D03*
X0036516Y0246457D03*
X0036516Y0262992D03*
X0036516Y0279528D03*
X0036516Y0296063D03*
X0036516Y0312598D03*
X0058169Y0163780D03*
X0058169Y0180315D03*
X0058169Y0196850D03*
X0058169Y0213386D03*
X0058169Y0229921D03*
X0058169Y0246457D03*
X0058169Y0262992D03*
X0058169Y0279528D03*
X0058169Y0296063D03*
X0058169Y0312598D03*
D12*
X0385925Y0311811D03*
X0385925Y0278740D03*
G36*
G01*
X0350886Y0317126D02*
X0363484Y0317126D01*
G75*
G02*
X0364469Y0316142I0000000J-000984D01*
G01*
X0364469Y0307480D01*
G75*
G02*
X0363484Y0306496I-000984J0000000D01*
G01*
X0350886Y0306496D01*
G75*
G02*
X0349902Y0307480I0000000J0000984D01*
G01*
X0349902Y0316142D01*
G75*
G02*
X0350886Y0317126I0000984J0000000D01*
G01*
G37*
D57*
X0357185Y0295276D03*
X0357185Y0278740D03*
X0335531Y0311811D03*
X0335531Y0295276D03*
X0335531Y0278740D03*
D26*
X0320866Y0314764D03*
X0320866Y0295472D03*
D21*
X0155512Y0196693D03*
X0155512Y0206693D03*
X0155512Y0216693D03*
X0155512Y0226693D03*
X0155512Y0236693D03*
X0165512Y0196693D03*
X0165512Y0206693D03*
X0165512Y0216693D03*
X0165512Y0226693D03*
X0165512Y0236693D03*
X0175512Y0196693D03*
X0175512Y0206693D03*
X0175512Y0216693D03*
X0175512Y0226693D03*
X0175512Y0236693D03*
X0246063Y0009843D03*
D12*
X0007776Y0101575D03*
X0007776Y0134646D03*
G36*
G01*
X0042815Y0096260D02*
X0030217Y0096260D01*
G75*
G02*
X0029232Y0097244I0000000J0000984D01*
G01*
X0029232Y0105906D01*
G75*
G02*
X0030217Y0106890I0000984J0000000D01*
G01*
X0042815Y0106890D01*
G75*
G02*
X0043799Y0105906I0000000J-000984D01*
G01*
X0043799Y0097244D01*
G75*
G02*
X0042815Y0096260I-000984J0000000D01*
G01*
G37*
D57*
X0036516Y0118110D03*
X0036516Y0134646D03*
X0058169Y0101575D03*
X0058169Y0118110D03*
X0058169Y0134646D03*
D81*
X0185472Y0026004D03*
X0208228Y0026004D03*
D74*
X0179843Y0027972D03*
D75*
X0179843Y0011516D03*
D74*
X0213858Y0027972D03*
D75*
X0213858Y0011516D03*
D24*
X0370472Y0013780D03*
X0373240Y0020461D03*
X0373240Y0007098D03*
X0379921Y0023228D03*
D25*
X0379921Y0013780D03*
D24*
X0379921Y0004331D03*
X0386603Y0020461D03*
X0386603Y0007098D03*
X0389370Y0013780D03*
D30*
X0150098Y0246752D03*
X0145374Y0246752D03*
X0154823Y0246752D03*
X0159547Y0246752D03*
X0134114Y0303543D03*
X0130177Y0303543D03*
D26*
X0073031Y0089677D03*
X0092323Y0089677D03*
D76*
X0386457Y0147638D03*
D77*
X0376457Y0147638D03*
X0366457Y0147638D03*
X0356457Y0147638D03*
X0346457Y0147638D03*
X0336457Y0147638D03*
D21*
X0171260Y0017717D03*
D78*
X0277966Y0295000D03*
X0277966Y0205000D03*
D26*
X0227966Y0275000D03*
X0227966Y0265000D03*
X0227966Y0255000D03*
X0227966Y0245000D03*
X0227966Y0235000D03*
X0227966Y0225000D03*
D21*
X0185512Y0196693D03*
X0185512Y0206693D03*
X0185512Y0216693D03*
X0185512Y0226693D03*
X0185512Y0236693D03*
X0195512Y0196693D03*
X0195512Y0206693D03*
X0195512Y0216693D03*
X0195512Y0226693D03*
X0195512Y0236693D03*
X0205512Y0196693D03*
X0205512Y0206693D03*
X0205512Y0216693D03*
X0205512Y0226693D03*
X0205512Y0236693D03*
G36*
G01*
X0222047Y0288337D02*
X0223228Y0288337D01*
G75*
G02*
X0223819Y0287746I0000000J-000591D01*
G01*
X0223819Y0283120D01*
G75*
G02*
X0223228Y0282530I-000591J0000000D01*
G01*
X0222047Y0282530D01*
G75*
G02*
X0221457Y0283120I0000000J0000591D01*
G01*
X0221457Y0287746D01*
G75*
G02*
X0222047Y0288337I0000591J0000000D01*
G01*
G37*
G36*
G01*
X0229528Y0288337D02*
X0230709Y0288337D01*
G75*
G02*
X0231299Y0287746I0000000J-000591D01*
G01*
X0231299Y0283120D01*
G75*
G02*
X0230709Y0282530I-000591J0000000D01*
G01*
X0229528Y0282530D01*
G75*
G02*
X0228937Y0283120I0000000J0000591D01*
G01*
X0228937Y0287746D01*
G75*
G02*
X0229528Y0288337I0000591J0000000D01*
G01*
G37*
G36*
G01*
X0225787Y0280955D02*
X0226969Y0280955D01*
G75*
G02*
X0227559Y0280364I0000000J-000591D01*
G01*
X0227559Y0275738D01*
G75*
G02*
X0226969Y0275148I-000591J0000000D01*
G01*
X0225787Y0275148D01*
G75*
G02*
X0225197Y0275738I0000000J0000591D01*
G01*
X0225197Y0280364D01*
G75*
G02*
X0225787Y0280955I0000591J0000000D01*
G01*
G37*
G36*
G01*
X0049803Y0052992D02*
X0045669Y0052992D01*
G75*
G02*
X0045276Y0053386I0000000J0000394D01*
G01*
X0045276Y0056535D01*
G75*
G02*
X0045669Y0056929I0000394J0000000D01*
G01*
X0049803Y0056929D01*
G75*
G02*
X0050197Y0056535I0000000J-000394D01*
G01*
X0050197Y0053386D01*
G75*
G02*
X0049803Y0052992I-000394J0000000D01*
G01*
G37*
G36*
G01*
X0049803Y0060866D02*
X0045669Y0060866D01*
G75*
G02*
X0045276Y0061260I0000000J0000394D01*
G01*
X0045276Y0064409D01*
G75*
G02*
X0045669Y0064803I0000394J0000000D01*
G01*
X0049803Y0064803D01*
G75*
G02*
X0050197Y0064409I0000000J-000394D01*
G01*
X0050197Y0061260D01*
G75*
G02*
X0049803Y0060866I-000394J0000000D01*
G01*
G37*
G36*
G01*
X0076811Y0298819D02*
X0072795Y0298819D01*
G75*
G02*
X0072441Y0299173I0000000J0000354D01*
G01*
X0072441Y0302008D01*
G75*
G02*
X0072795Y0302362I0000354J0000000D01*
G01*
X0076811Y0302362D01*
G75*
G02*
X0077165Y0302008I0000000J-000354D01*
G01*
X0077165Y0299173D01*
G75*
G02*
X0076811Y0298819I-000354J0000000D01*
G01*
G37*
G36*
G01*
X0076811Y0311811D02*
X0072795Y0311811D01*
G75*
G02*
X0072441Y0312165I0000000J0000354D01*
G01*
X0072441Y0315000D01*
G75*
G02*
X0072795Y0315354I0000354J0000000D01*
G01*
X0076811Y0315354D01*
G75*
G02*
X0077165Y0315000I0000000J-000354D01*
G01*
X0077165Y0312165D01*
G75*
G02*
X0076811Y0311811I-000354J0000000D01*
G01*
G37*
D41*
X0362205Y0085040D03*
X0362205Y0114567D03*
D94*
X0362205Y0068898D03*
D95*
X0362205Y0131890D03*
G36*
G01*
X0021220Y0145079D02*
X0018150Y0145079D01*
G75*
G02*
X0017874Y0145354I0000000J0000276D01*
G01*
X0017874Y0147559D01*
G75*
G02*
X0018150Y0147835I0000276J0000000D01*
G01*
X0021220Y0147835D01*
G75*
G02*
X0021496Y0147559I0000000J-000276D01*
G01*
X0021496Y0145354D01*
G75*
G02*
X0021220Y0145079I-000276J0000000D01*
G01*
G37*
G36*
G01*
X0021220Y0151378D02*
X0018150Y0151378D01*
G75*
G02*
X0017874Y0151654I0000000J0000276D01*
G01*
X0017874Y0153858D01*
G75*
G02*
X0018150Y0154134I0000276J0000000D01*
G01*
X0021220Y0154134D01*
G75*
G02*
X0021496Y0153858I0000000J-000276D01*
G01*
X0021496Y0151654D01*
G75*
G02*
X0021220Y0151378I-000276J0000000D01*
G01*
G37*
G36*
G01*
X0026181Y0052992D02*
X0022047Y0052992D01*
G75*
G02*
X0021654Y0053386I0000000J0000394D01*
G01*
X0021654Y0056535D01*
G75*
G02*
X0022047Y0056929I0000394J0000000D01*
G01*
X0026181Y0056929D01*
G75*
G02*
X0026575Y0056535I0000000J-000394D01*
G01*
X0026575Y0053386D01*
G75*
G02*
X0026181Y0052992I-000394J0000000D01*
G01*
G37*
G36*
G01*
X0026181Y0060866D02*
X0022047Y0060866D01*
G75*
G02*
X0021654Y0061260I0000000J0000394D01*
G01*
X0021654Y0064409D01*
G75*
G02*
X0022047Y0064803I0000394J0000000D01*
G01*
X0026181Y0064803D01*
G75*
G02*
X0026575Y0064409I0000000J-000394D01*
G01*
X0026575Y0061260D01*
G75*
G02*
X0026181Y0060866I-000394J0000000D01*
G01*
G37*
G36*
G01*
X0380551Y0138642D02*
X0383228Y0138642D01*
G75*
G02*
X0383563Y0138307I0000000J-000335D01*
G01*
X0383563Y0135630D01*
G75*
G02*
X0383228Y0135295I-000335J0000000D01*
G01*
X0380551Y0135295D01*
G75*
G02*
X0380217Y0135630I0000000J0000335D01*
G01*
X0380217Y0138307D01*
G75*
G02*
X0380551Y0138642I0000335J0000000D01*
G01*
G37*
G36*
G01*
X0380551Y0132421D02*
X0383228Y0132421D01*
G75*
G02*
X0383563Y0132087I0000000J-000335D01*
G01*
X0383563Y0129409D01*
G75*
G02*
X0383228Y0129075I-000335J0000000D01*
G01*
X0380551Y0129075D01*
G75*
G02*
X0380217Y0129409I0000000J0000335D01*
G01*
X0380217Y0132087D01*
G75*
G02*
X0380551Y0132421I0000335J0000000D01*
G01*
G37*
G36*
G01*
X0229370Y0294222D02*
X0229370Y0292884D01*
G75*
G02*
X0228819Y0292333I-000551J0000000D01*
G01*
X0227717Y0292333D01*
G75*
G02*
X0227165Y0292884I0000000J0000551D01*
G01*
X0227165Y0294222D01*
G75*
G02*
X0227717Y0294774I0000551J0000000D01*
G01*
X0228819Y0294774D01*
G75*
G02*
X0229370Y0294222I0000000J-000551D01*
G01*
G37*
G36*
G01*
X0225591Y0294222D02*
X0225591Y0292884D01*
G75*
G02*
X0225039Y0292333I-000551J0000000D01*
G01*
X0223937Y0292333D01*
G75*
G02*
X0223386Y0292884I0000000J0000551D01*
G01*
X0223386Y0294222D01*
G75*
G02*
X0223937Y0294774I0000551J0000000D01*
G01*
X0225039Y0294774D01*
G75*
G02*
X0225591Y0294222I0000000J-000551D01*
G01*
G37*
G36*
G01*
X0031063Y0145079D02*
X0027992Y0145079D01*
G75*
G02*
X0027717Y0145354I0000000J0000276D01*
G01*
X0027717Y0147559D01*
G75*
G02*
X0027992Y0147835I0000276J0000000D01*
G01*
X0031063Y0147835D01*
G75*
G02*
X0031339Y0147559I0000000J-000276D01*
G01*
X0031339Y0145354D01*
G75*
G02*
X0031063Y0145079I-000276J0000000D01*
G01*
G37*
G36*
G01*
X0031063Y0151378D02*
X0027992Y0151378D01*
G75*
G02*
X0027717Y0151654I0000000J0000276D01*
G01*
X0027717Y0153858D01*
G75*
G02*
X0027992Y0154134I0000276J0000000D01*
G01*
X0031063Y0154134D01*
G75*
G02*
X0031339Y0153858I0000000J-000276D01*
G01*
X0031339Y0151654D01*
G75*
G02*
X0031063Y0151378I-000276J0000000D01*
G01*
G37*
G36*
G01*
X0145453Y0313130D02*
X0145453Y0316201D01*
G75*
G02*
X0145728Y0316476I0000276J0000000D01*
G01*
X0147933Y0316476D01*
G75*
G02*
X0148209Y0316201I0000000J-000276D01*
G01*
X0148209Y0313130D01*
G75*
G02*
X0147933Y0312854I-000276J0000000D01*
G01*
X0145728Y0312854D01*
G75*
G02*
X0145453Y0313130I0000000J0000276D01*
G01*
G37*
G36*
G01*
X0151752Y0313130D02*
X0151752Y0316201D01*
G75*
G02*
X0152028Y0316476I0000276J0000000D01*
G01*
X0154232Y0316476D01*
G75*
G02*
X0154508Y0316201I0000000J-000276D01*
G01*
X0154508Y0313130D01*
G75*
G02*
X0154232Y0312854I-000276J0000000D01*
G01*
X0152028Y0312854D01*
G75*
G02*
X0151752Y0313130I0000000J0000276D01*
G01*
G37*
G36*
G01*
X0063287Y0043307D02*
X0067421Y0043307D01*
G75*
G02*
X0067815Y0042913I0000000J-000394D01*
G01*
X0067815Y0039764D01*
G75*
G02*
X0067421Y0039370I-000394J0000000D01*
G01*
X0063287Y0039370D01*
G75*
G02*
X0062894Y0039764I0000000J0000394D01*
G01*
X0062894Y0042913D01*
G75*
G02*
X0063287Y0043307I0000394J0000000D01*
G01*
G37*
G36*
G01*
X0063287Y0035433D02*
X0067421Y0035433D01*
G75*
G02*
X0067815Y0035039I0000000J-000394D01*
G01*
X0067815Y0031890D01*
G75*
G02*
X0067421Y0031496I-000394J0000000D01*
G01*
X0063287Y0031496D01*
G75*
G02*
X0062894Y0031890I0000000J0000394D01*
G01*
X0062894Y0035039D01*
G75*
G02*
X0063287Y0035433I0000394J0000000D01*
G01*
G37*
G36*
G01*
X0099459Y0251575D02*
X0099459Y0240354D01*
G75*
G02*
X0098474Y0239370I-000984J0000000D01*
G01*
X0095620Y0239370D01*
G75*
G02*
X0094636Y0240354I0000000J0000984D01*
G01*
X0094636Y0251575D01*
G75*
G02*
X0095620Y0252559I0000984J0000000D01*
G01*
X0098474Y0252559D01*
G75*
G02*
X0099459Y0251575I0000000J-000984D01*
G01*
G37*
G36*
G01*
X0076132Y0251575D02*
X0076132Y0240354D01*
G75*
G02*
X0075148Y0239370I-000984J0000000D01*
G01*
X0072293Y0239370D01*
G75*
G02*
X0071309Y0240354I0000000J0000984D01*
G01*
X0071309Y0251575D01*
G75*
G02*
X0072293Y0252559I0000984J0000000D01*
G01*
X0075148Y0252559D01*
G75*
G02*
X0076132Y0251575I0000000J-000984D01*
G01*
G37*
G36*
G01*
X0029921Y0080551D02*
X0034055Y0080551D01*
G75*
G02*
X0034449Y0080157I0000000J-000394D01*
G01*
X0034449Y0077008D01*
G75*
G02*
X0034055Y0076614I-000394J0000000D01*
G01*
X0029921Y0076614D01*
G75*
G02*
X0029528Y0077008I0000000J0000394D01*
G01*
X0029528Y0080157D01*
G75*
G02*
X0029921Y0080551I0000394J0000000D01*
G01*
G37*
G36*
G01*
X0029921Y0072677D02*
X0034055Y0072677D01*
G75*
G02*
X0034449Y0072283I0000000J-000394D01*
G01*
X0034449Y0069134D01*
G75*
G02*
X0034055Y0068740I-000394J0000000D01*
G01*
X0029921Y0068740D01*
G75*
G02*
X0029528Y0069134I0000000J0000394D01*
G01*
X0029528Y0072283D01*
G75*
G02*
X0029921Y0072677I0000394J0000000D01*
G01*
G37*
G36*
G01*
X0075295Y0015748D02*
X0071161Y0015748D01*
G75*
G02*
X0070768Y0016142I0000000J0000394D01*
G01*
X0070768Y0019291D01*
G75*
G02*
X0071161Y0019685I0000394J0000000D01*
G01*
X0075295Y0019685D01*
G75*
G02*
X0075689Y0019291I0000000J-000394D01*
G01*
X0075689Y0016142D01*
G75*
G02*
X0075295Y0015748I-000394J0000000D01*
G01*
G37*
G36*
G01*
X0075295Y0023622D02*
X0071161Y0023622D01*
G75*
G02*
X0070768Y0024016I0000000J0000394D01*
G01*
X0070768Y0027165D01*
G75*
G02*
X0071161Y0027559I0000394J0000000D01*
G01*
X0075295Y0027559D01*
G75*
G02*
X0075689Y0027165I0000000J-000394D01*
G01*
X0075689Y0024016D01*
G75*
G02*
X0075295Y0023622I-000394J0000000D01*
G01*
G37*
G36*
G01*
X0014173Y0080551D02*
X0018307Y0080551D01*
G75*
G02*
X0018701Y0080157I0000000J-000394D01*
G01*
X0018701Y0077008D01*
G75*
G02*
X0018307Y0076614I-000394J0000000D01*
G01*
X0014173Y0076614D01*
G75*
G02*
X0013780Y0077008I0000000J0000394D01*
G01*
X0013780Y0080157D01*
G75*
G02*
X0014173Y0080551I0000394J0000000D01*
G01*
G37*
G36*
G01*
X0014173Y0072677D02*
X0018307Y0072677D01*
G75*
G02*
X0018701Y0072283I0000000J-000394D01*
G01*
X0018701Y0069134D01*
G75*
G02*
X0018307Y0068740I-000394J0000000D01*
G01*
X0014173Y0068740D01*
G75*
G02*
X0013780Y0069134I0000000J0000394D01*
G01*
X0013780Y0072283D01*
G75*
G02*
X0014173Y0072677I0000394J0000000D01*
G01*
G37*
G36*
G01*
X0099459Y0168898D02*
X0099459Y0157677D01*
G75*
G02*
X0098474Y0156693I-000984J0000000D01*
G01*
X0095620Y0156693D01*
G75*
G02*
X0094636Y0157677I0000000J0000984D01*
G01*
X0094636Y0168898D01*
G75*
G02*
X0095620Y0169882I0000984J0000000D01*
G01*
X0098474Y0169882D01*
G75*
G02*
X0099459Y0168898I0000000J-000984D01*
G01*
G37*
G36*
G01*
X0076132Y0168898D02*
X0076132Y0157677D01*
G75*
G02*
X0075148Y0156693I-000984J0000000D01*
G01*
X0072293Y0156693D01*
G75*
G02*
X0071309Y0157677I0000000J0000984D01*
G01*
X0071309Y0168898D01*
G75*
G02*
X0072293Y0169882I0000984J0000000D01*
G01*
X0075148Y0169882D01*
G75*
G02*
X0076132Y0168898I0000000J-000984D01*
G01*
G37*
D28*
X0022835Y0176575D03*
X0013780Y0176575D03*
X0004724Y0176575D03*
D29*
X0013780Y0201378D03*
G36*
G01*
X0039665Y0043307D02*
X0043799Y0043307D01*
G75*
G02*
X0044193Y0042913I0000000J-000394D01*
G01*
X0044193Y0039764D01*
G75*
G02*
X0043799Y0039370I-000394J0000000D01*
G01*
X0039665Y0039370D01*
G75*
G02*
X0039272Y0039764I0000000J0000394D01*
G01*
X0039272Y0042913D01*
G75*
G02*
X0039665Y0043307I0000394J0000000D01*
G01*
G37*
G36*
G01*
X0039665Y0035433D02*
X0043799Y0035433D01*
G75*
G02*
X0044193Y0035039I0000000J-000394D01*
G01*
X0044193Y0031890D01*
G75*
G02*
X0043799Y0031496I-000394J0000000D01*
G01*
X0039665Y0031496D01*
G75*
G02*
X0039272Y0031890I0000000J0000394D01*
G01*
X0039272Y0035039D01*
G75*
G02*
X0039665Y0035433I0000394J0000000D01*
G01*
G37*
D28*
X0022835Y0212008D03*
X0013780Y0212008D03*
X0004724Y0212008D03*
D29*
X0013780Y0236811D03*
G36*
G01*
X0043799Y0015748D02*
X0039665Y0015748D01*
G75*
G02*
X0039272Y0016142I0000000J0000394D01*
G01*
X0039272Y0019291D01*
G75*
G02*
X0039665Y0019685I0000394J0000000D01*
G01*
X0043799Y0019685D01*
G75*
G02*
X0044193Y0019291I0000000J-000394D01*
G01*
X0044193Y0016142D01*
G75*
G02*
X0043799Y0015748I-000394J0000000D01*
G01*
G37*
G36*
G01*
X0043799Y0023622D02*
X0039665Y0023622D01*
G75*
G02*
X0039272Y0024016I0000000J0000394D01*
G01*
X0039272Y0027165D01*
G75*
G02*
X0039665Y0027559I0000394J0000000D01*
G01*
X0043799Y0027559D01*
G75*
G02*
X0044193Y0027165I0000000J-000394D01*
G01*
X0044193Y0024016D01*
G75*
G02*
X0043799Y0023622I-000394J0000000D01*
G01*
G37*
G36*
G01*
X0099459Y0141339D02*
X0099459Y0130118D01*
G75*
G02*
X0098474Y0129134I-000984J0000000D01*
G01*
X0095620Y0129134D01*
G75*
G02*
X0094636Y0130118I0000000J0000984D01*
G01*
X0094636Y0141339D01*
G75*
G02*
X0095620Y0142323I0000984J0000000D01*
G01*
X0098474Y0142323D01*
G75*
G02*
X0099459Y0141339I0000000J-000984D01*
G01*
G37*
G36*
G01*
X0076132Y0141339D02*
X0076132Y0130118D01*
G75*
G02*
X0075148Y0129134I-000984J0000000D01*
G01*
X0072293Y0129134D01*
G75*
G02*
X0071309Y0130118I0000000J0000984D01*
G01*
X0071309Y0141339D01*
G75*
G02*
X0072293Y0142323I0000984J0000000D01*
G01*
X0075148Y0142323D01*
G75*
G02*
X0076132Y0141339I0000000J-000984D01*
G01*
G37*
G36*
G01*
X0099459Y0224016D02*
X0099459Y0212795D01*
G75*
G02*
X0098474Y0211811I-000984J0000000D01*
G01*
X0095620Y0211811D01*
G75*
G02*
X0094636Y0212795I0000000J0000984D01*
G01*
X0094636Y0224016D01*
G75*
G02*
X0095620Y0225000I0000984J0000000D01*
G01*
X0098474Y0225000D01*
G75*
G02*
X0099459Y0224016I0000000J-000984D01*
G01*
G37*
G36*
G01*
X0076132Y0224016D02*
X0076132Y0212795D01*
G75*
G02*
X0075148Y0211811I-000984J0000000D01*
G01*
X0072293Y0211811D01*
G75*
G02*
X0071309Y0212795I0000000J0000984D01*
G01*
X0071309Y0224016D01*
G75*
G02*
X0072293Y0225000I0000984J0000000D01*
G01*
X0075148Y0225000D01*
G75*
G02*
X0076132Y0224016I0000000J-000984D01*
G01*
G37*
G36*
G01*
X0037795Y0080551D02*
X0041929Y0080551D01*
G75*
G02*
X0042323Y0080157I0000000J-000394D01*
G01*
X0042323Y0077008D01*
G75*
G02*
X0041929Y0076614I-000394J0000000D01*
G01*
X0037795Y0076614D01*
G75*
G02*
X0037402Y0077008I0000000J0000394D01*
G01*
X0037402Y0080157D01*
G75*
G02*
X0037795Y0080551I0000394J0000000D01*
G01*
G37*
G36*
G01*
X0037795Y0072677D02*
X0041929Y0072677D01*
G75*
G02*
X0042323Y0072283I0000000J-000394D01*
G01*
X0042323Y0069134D01*
G75*
G02*
X0041929Y0068740I-000394J0000000D01*
G01*
X0037795Y0068740D01*
G75*
G02*
X0037402Y0069134I0000000J0000394D01*
G01*
X0037402Y0072283D01*
G75*
G02*
X0037795Y0072677I0000394J0000000D01*
G01*
G37*
G36*
G01*
X0072244Y0262244D02*
X0072244Y0265315D01*
G75*
G02*
X0072520Y0265591I0000276J0000000D01*
G01*
X0074724Y0265591D01*
G75*
G02*
X0075000Y0265315I0000000J-000276D01*
G01*
X0075000Y0262244D01*
G75*
G02*
X0074724Y0261969I-000276J0000000D01*
G01*
X0072520Y0261969D01*
G75*
G02*
X0072244Y0262244I0000000J0000276D01*
G01*
G37*
G36*
G01*
X0078543Y0262244D02*
X0078543Y0265315D01*
G75*
G02*
X0078819Y0265591I0000276J0000000D01*
G01*
X0081024Y0265591D01*
G75*
G02*
X0081299Y0265315I0000000J-000276D01*
G01*
X0081299Y0262244D01*
G75*
G02*
X0081024Y0261969I-000276J0000000D01*
G01*
X0078819Y0261969D01*
G75*
G02*
X0078543Y0262244I0000000J0000276D01*
G01*
G37*
G36*
G01*
X0076811Y0269291D02*
X0072795Y0269291D01*
G75*
G02*
X0072441Y0269646I0000000J0000354D01*
G01*
X0072441Y0272480D01*
G75*
G02*
X0072795Y0272835I0000354J0000000D01*
G01*
X0076811Y0272835D01*
G75*
G02*
X0077165Y0272480I0000000J-000354D01*
G01*
X0077165Y0269646D01*
G75*
G02*
X0076811Y0269291I-000354J0000000D01*
G01*
G37*
G36*
G01*
X0076811Y0282283D02*
X0072795Y0282283D01*
G75*
G02*
X0072441Y0282638I0000000J0000354D01*
G01*
X0072441Y0285472D01*
G75*
G02*
X0072795Y0285827I0000354J0000000D01*
G01*
X0076811Y0285827D01*
G75*
G02*
X0077165Y0285472I0000000J-000354D01*
G01*
X0077165Y0282638D01*
G75*
G02*
X0076811Y0282283I-000354J0000000D01*
G01*
G37*
G36*
G01*
X0343071Y0061811D02*
X0341181Y0061811D01*
G75*
G02*
X0340945Y0062047I0000000J0000236D01*
G01*
X0340945Y0063937D01*
G75*
G02*
X0341181Y0064173I0000236J0000000D01*
G01*
X0343071Y0064173D01*
G75*
G02*
X0343307Y0063937I0000000J-000236D01*
G01*
X0343307Y0062047D01*
G75*
G02*
X0343071Y0061811I-000236J0000000D01*
G01*
G37*
G36*
G01*
X0351732Y0061811D02*
X0349843Y0061811D01*
G75*
G02*
X0349606Y0062047I0000000J0000236D01*
G01*
X0349606Y0063937D01*
G75*
G02*
X0349843Y0064173I0000236J0000000D01*
G01*
X0351732Y0064173D01*
G75*
G02*
X0351969Y0063937I0000000J-000236D01*
G01*
X0351969Y0062047D01*
G75*
G02*
X0351732Y0061811I-000236J0000000D01*
G01*
G37*
G36*
G01*
X0111713Y0192382D02*
X0111713Y0189311D01*
G75*
G02*
X0111437Y0189035I-000276J0000000D01*
G01*
X0109232Y0189035D01*
G75*
G02*
X0108957Y0189311I0000000J0000276D01*
G01*
X0108957Y0192382D01*
G75*
G02*
X0109232Y0192657I0000276J0000000D01*
G01*
X0111437Y0192657D01*
G75*
G02*
X0111713Y0192382I0000000J-000276D01*
G01*
G37*
G36*
G01*
X0105413Y0192382D02*
X0105413Y0189311D01*
G75*
G02*
X0105138Y0189035I-000276J0000000D01*
G01*
X0102933Y0189035D01*
G75*
G02*
X0102657Y0189311I0000000J0000276D01*
G01*
X0102657Y0192382D01*
G75*
G02*
X0102933Y0192657I0000276J0000000D01*
G01*
X0105138Y0192657D01*
G75*
G02*
X0105413Y0192382I0000000J-000276D01*
G01*
G37*
G36*
G01*
X0124449Y0114764D02*
X0127520Y0114764D01*
G75*
G02*
X0127795Y0114488I0000000J-000276D01*
G01*
X0127795Y0112283D01*
G75*
G02*
X0127520Y0112008I-000276J0000000D01*
G01*
X0124449Y0112008D01*
G75*
G02*
X0124173Y0112283I0000000J0000276D01*
G01*
X0124173Y0114488D01*
G75*
G02*
X0124449Y0114764I0000276J0000000D01*
G01*
G37*
G36*
G01*
X0124449Y0108465D02*
X0127520Y0108465D01*
G75*
G02*
X0127795Y0108189I0000000J-000276D01*
G01*
X0127795Y0105984D01*
G75*
G02*
X0127520Y0105709I-000276J0000000D01*
G01*
X0124449Y0105709D01*
G75*
G02*
X0124173Y0105984I0000000J0000276D01*
G01*
X0124173Y0108189D01*
G75*
G02*
X0124449Y0108465I0000276J0000000D01*
G01*
G37*
G36*
G01*
X0059547Y0015748D02*
X0055413Y0015748D01*
G75*
G02*
X0055020Y0016142I0000000J0000394D01*
G01*
X0055020Y0019291D01*
G75*
G02*
X0055413Y0019685I0000394J0000000D01*
G01*
X0059547Y0019685D01*
G75*
G02*
X0059941Y0019291I0000000J-000394D01*
G01*
X0059941Y0016142D01*
G75*
G02*
X0059547Y0015748I-000394J0000000D01*
G01*
G37*
G36*
G01*
X0059547Y0023622D02*
X0055413Y0023622D01*
G75*
G02*
X0055020Y0024016I0000000J0000394D01*
G01*
X0055020Y0027165D01*
G75*
G02*
X0055413Y0027559I0000394J0000000D01*
G01*
X0059547Y0027559D01*
G75*
G02*
X0059941Y0027165I0000000J-000394D01*
G01*
X0059941Y0024016D01*
G75*
G02*
X0059547Y0023622I-000394J0000000D01*
G01*
G37*
G36*
G01*
X0019291Y0309744D02*
X0020472Y0309744D01*
G75*
G02*
X0021063Y0309154I0000000J-000591D01*
G01*
X0021063Y0304528D01*
G75*
G02*
X0020472Y0303937I-000591J0000000D01*
G01*
X0019291Y0303937D01*
G75*
G02*
X0018701Y0304528I0000000J0000591D01*
G01*
X0018701Y0309154D01*
G75*
G02*
X0019291Y0309744I0000591J0000000D01*
G01*
G37*
G36*
G01*
X0023031Y0302362D02*
X0024213Y0302362D01*
G75*
G02*
X0024803Y0301772I0000000J-000591D01*
G01*
X0024803Y0297146D01*
G75*
G02*
X0024213Y0296555I-000591J0000000D01*
G01*
X0023031Y0296555D01*
G75*
G02*
X0022441Y0297146I0000000J0000591D01*
G01*
X0022441Y0301772D01*
G75*
G02*
X0023031Y0302362I0000591J0000000D01*
G01*
G37*
G36*
G01*
X0026772Y0309744D02*
X0027953Y0309744D01*
G75*
G02*
X0028543Y0309154I0000000J-000591D01*
G01*
X0028543Y0304528D01*
G75*
G02*
X0027953Y0303937I-000591J0000000D01*
G01*
X0026772Y0303937D01*
G75*
G02*
X0026181Y0304528I0000000J0000591D01*
G01*
X0026181Y0309154D01*
G75*
G02*
X0026772Y0309744I0000591J0000000D01*
G01*
G37*
G36*
G01*
X0111713Y0164823D02*
X0111713Y0161752D01*
G75*
G02*
X0111437Y0161476I-000276J0000000D01*
G01*
X0109232Y0161476D01*
G75*
G02*
X0108957Y0161752I0000000J0000276D01*
G01*
X0108957Y0164823D01*
G75*
G02*
X0109232Y0165098I0000276J0000000D01*
G01*
X0111437Y0165098D01*
G75*
G02*
X0111713Y0164823I0000000J-000276D01*
G01*
G37*
G36*
G01*
X0105413Y0164823D02*
X0105413Y0161752D01*
G75*
G02*
X0105138Y0161476I-000276J0000000D01*
G01*
X0102933Y0161476D01*
G75*
G02*
X0102657Y0161752I0000000J0000276D01*
G01*
X0102657Y0164823D01*
G75*
G02*
X0102933Y0165098I0000276J0000000D01*
G01*
X0105138Y0165098D01*
G75*
G02*
X0105413Y0164823I0000000J-000276D01*
G01*
G37*
G36*
G01*
X0001280Y0281102D02*
X0001280Y0282283D01*
G75*
G02*
X0001870Y0282874I0000591J0000000D01*
G01*
X0006496Y0282874D01*
G75*
G02*
X0007087Y0282283I0000000J-000591D01*
G01*
X0007087Y0281102D01*
G75*
G02*
X0006496Y0280512I-000591J0000000D01*
G01*
X0001870Y0280512D01*
G75*
G02*
X0001280Y0281102I0000000J0000591D01*
G01*
G37*
G36*
G01*
X0008661Y0284843D02*
X0008661Y0286024D01*
G75*
G02*
X0009252Y0286614I0000591J0000000D01*
G01*
X0013878Y0286614D01*
G75*
G02*
X0014469Y0286024I0000000J-000591D01*
G01*
X0014469Y0284843D01*
G75*
G02*
X0013878Y0284252I-000591J0000000D01*
G01*
X0009252Y0284252D01*
G75*
G02*
X0008661Y0284843I0000000J0000591D01*
G01*
G37*
G36*
G01*
X0001280Y0288583D02*
X0001280Y0289764D01*
G75*
G02*
X0001870Y0290354I0000591J0000000D01*
G01*
X0006496Y0290354D01*
G75*
G02*
X0007087Y0289764I0000000J-000591D01*
G01*
X0007087Y0288583D01*
G75*
G02*
X0006496Y0287992I-000591J0000000D01*
G01*
X0001870Y0287992D01*
G75*
G02*
X0001280Y0288583I0000000J0000591D01*
G01*
G37*
G36*
G01*
X0194449Y0012710D02*
X0191378Y0012710D01*
G75*
G02*
X0191102Y0012986I0000000J0000276D01*
G01*
X0191102Y0015190D01*
G75*
G02*
X0191378Y0015466I0000276J0000000D01*
G01*
X0194449Y0015466D01*
G75*
G02*
X0194724Y0015190I0000000J-000276D01*
G01*
X0194724Y0012986D01*
G75*
G02*
X0194449Y0012710I-000276J0000000D01*
G01*
G37*
G36*
G01*
X0194449Y0019009D02*
X0191378Y0019009D01*
G75*
G02*
X0191102Y0019285I0000000J0000276D01*
G01*
X0191102Y0021489D01*
G75*
G02*
X0191378Y0021765I0000276J0000000D01*
G01*
X0194449Y0021765D01*
G75*
G02*
X0194724Y0021489I0000000J-000276D01*
G01*
X0194724Y0019285D01*
G75*
G02*
X0194449Y0019009I-000276J0000000D01*
G01*
G37*
G36*
G01*
X0111713Y0137264D02*
X0111713Y0134193D01*
G75*
G02*
X0111437Y0133917I-000276J0000000D01*
G01*
X0109232Y0133917D01*
G75*
G02*
X0108957Y0134193I0000000J0000276D01*
G01*
X0108957Y0137264D01*
G75*
G02*
X0109232Y0137539I0000276J0000000D01*
G01*
X0111437Y0137539D01*
G75*
G02*
X0111713Y0137264I0000000J-000276D01*
G01*
G37*
G36*
G01*
X0105413Y0137264D02*
X0105413Y0134193D01*
G75*
G02*
X0105138Y0133917I-000276J0000000D01*
G01*
X0102933Y0133917D01*
G75*
G02*
X0102657Y0134193I0000000J0000276D01*
G01*
X0102657Y0137264D01*
G75*
G02*
X0102933Y0137539I0000276J0000000D01*
G01*
X0105138Y0137539D01*
G75*
G02*
X0105413Y0137264I0000000J-000276D01*
G01*
G37*
G36*
G01*
X0017283Y0317520D02*
X0014213Y0317520D01*
G75*
G02*
X0013937Y0317795I0000000J0000276D01*
G01*
X0013937Y0320000D01*
G75*
G02*
X0014213Y0320276I0000276J0000000D01*
G01*
X0017283Y0320276D01*
G75*
G02*
X0017559Y0320000I0000000J-000276D01*
G01*
X0017559Y0317795D01*
G75*
G02*
X0017283Y0317520I-000276J0000000D01*
G01*
G37*
G36*
G01*
X0017283Y0323819D02*
X0014213Y0323819D01*
G75*
G02*
X0013937Y0324094I0000000J0000276D01*
G01*
X0013937Y0326299D01*
G75*
G02*
X0014213Y0326575I0000276J0000000D01*
G01*
X0017283Y0326575D01*
G75*
G02*
X0017559Y0326299I0000000J-000276D01*
G01*
X0017559Y0324094D01*
G75*
G02*
X0017283Y0323819I-000276J0000000D01*
G01*
G37*
D22*
X0089961Y0266535D03*
X0089961Y0275591D03*
X0089961Y0284646D03*
D23*
X0114764Y0275591D03*
G36*
G01*
X0145236Y0117520D02*
X0142165Y0117520D01*
G75*
G02*
X0141890Y0117795I0000000J0000276D01*
G01*
X0141890Y0120000D01*
G75*
G02*
X0142165Y0120276I0000276J0000000D01*
G01*
X0145236Y0120276D01*
G75*
G02*
X0145512Y0120000I0000000J-000276D01*
G01*
X0145512Y0117795D01*
G75*
G02*
X0145236Y0117520I-000276J0000000D01*
G01*
G37*
G36*
G01*
X0145236Y0123819D02*
X0142165Y0123819D01*
G75*
G02*
X0141890Y0124094I0000000J0000276D01*
G01*
X0141890Y0126299D01*
G75*
G02*
X0142165Y0126575I0000276J0000000D01*
G01*
X0145236Y0126575D01*
G75*
G02*
X0145512Y0126299I0000000J-000276D01*
G01*
X0145512Y0124094D01*
G75*
G02*
X0145236Y0123819I-000276J0000000D01*
G01*
G37*
G36*
G01*
X0099459Y0196457D02*
X0099459Y0185236D01*
G75*
G02*
X0098474Y0184252I-000984J0000000D01*
G01*
X0095620Y0184252D01*
G75*
G02*
X0094636Y0185236I0000000J0000984D01*
G01*
X0094636Y0196457D01*
G75*
G02*
X0095620Y0197441I0000984J0000000D01*
G01*
X0098474Y0197441D01*
G75*
G02*
X0099459Y0196457I0000000J-000984D01*
G01*
G37*
G36*
G01*
X0076132Y0196457D02*
X0076132Y0185236D01*
G75*
G02*
X0075148Y0184252I-000984J0000000D01*
G01*
X0072293Y0184252D01*
G75*
G02*
X0071309Y0185236I0000000J0000984D01*
G01*
X0071309Y0196457D01*
G75*
G02*
X0072293Y0197441I0000984J0000000D01*
G01*
X0075148Y0197441D01*
G75*
G02*
X0076132Y0196457I0000000J-000984D01*
G01*
G37*
G36*
G01*
X0111713Y0109705D02*
X0111713Y0106634D01*
G75*
G02*
X0111437Y0106358I-000276J0000000D01*
G01*
X0109232Y0106358D01*
G75*
G02*
X0108957Y0106634I0000000J0000276D01*
G01*
X0108957Y0109705D01*
G75*
G02*
X0109232Y0109980I0000276J0000000D01*
G01*
X0111437Y0109980D01*
G75*
G02*
X0111713Y0109705I0000000J-000276D01*
G01*
G37*
G36*
G01*
X0105413Y0109705D02*
X0105413Y0106634D01*
G75*
G02*
X0105138Y0106358I-000276J0000000D01*
G01*
X0102933Y0106358D01*
G75*
G02*
X0102657Y0106634I0000000J0000276D01*
G01*
X0102657Y0109705D01*
G75*
G02*
X0102933Y0109980I0000276J0000000D01*
G01*
X0105138Y0109980D01*
G75*
G02*
X0105413Y0109705I0000000J-000276D01*
G01*
G37*
G36*
G01*
X0055413Y0043307D02*
X0059547Y0043307D01*
G75*
G02*
X0059941Y0042913I0000000J-000394D01*
G01*
X0059941Y0039764D01*
G75*
G02*
X0059547Y0039370I-000394J0000000D01*
G01*
X0055413Y0039370D01*
G75*
G02*
X0055020Y0039764I0000000J0000394D01*
G01*
X0055020Y0042913D01*
G75*
G02*
X0055413Y0043307I0000394J0000000D01*
G01*
G37*
G36*
G01*
X0055413Y0035433D02*
X0059547Y0035433D01*
G75*
G02*
X0059941Y0035039I0000000J-000394D01*
G01*
X0059941Y0031890D01*
G75*
G02*
X0059547Y0031496I-000394J0000000D01*
G01*
X0055413Y0031496D01*
G75*
G02*
X0055020Y0031890I0000000J0000394D01*
G01*
X0055020Y0035039D01*
G75*
G02*
X0055413Y0035433I0000394J0000000D01*
G01*
G37*
G36*
G01*
X0111713Y0247500D02*
X0111713Y0244429D01*
G75*
G02*
X0111437Y0244154I-000276J0000000D01*
G01*
X0109232Y0244154D01*
G75*
G02*
X0108957Y0244429I0000000J0000276D01*
G01*
X0108957Y0247500D01*
G75*
G02*
X0109232Y0247776I0000276J0000000D01*
G01*
X0111437Y0247776D01*
G75*
G02*
X0111713Y0247500I0000000J-000276D01*
G01*
G37*
G36*
G01*
X0105413Y0247500D02*
X0105413Y0244429D01*
G75*
G02*
X0105138Y0244154I-000276J0000000D01*
G01*
X0102933Y0244154D01*
G75*
G02*
X0102657Y0244429I0000000J0000276D01*
G01*
X0102657Y0247500D01*
G75*
G02*
X0102933Y0247776I0000276J0000000D01*
G01*
X0105138Y0247776D01*
G75*
G02*
X0105413Y0247500I0000000J-000276D01*
G01*
G37*
G36*
G01*
X0067421Y0015748D02*
X0063287Y0015748D01*
G75*
G02*
X0062894Y0016142I0000000J0000394D01*
G01*
X0062894Y0019291D01*
G75*
G02*
X0063287Y0019685I0000394J0000000D01*
G01*
X0067421Y0019685D01*
G75*
G02*
X0067815Y0019291I0000000J-000394D01*
G01*
X0067815Y0016142D01*
G75*
G02*
X0067421Y0015748I-000394J0000000D01*
G01*
G37*
G36*
G01*
X0067421Y0023622D02*
X0063287Y0023622D01*
G75*
G02*
X0062894Y0024016I0000000J0000394D01*
G01*
X0062894Y0027165D01*
G75*
G02*
X0063287Y0027559I0000394J0000000D01*
G01*
X0067421Y0027559D01*
G75*
G02*
X0067815Y0027165I0000000J-000394D01*
G01*
X0067815Y0024016D01*
G75*
G02*
X0067421Y0023622I-000394J0000000D01*
G01*
G37*
G36*
G01*
X0204291Y0012710D02*
X0201220Y0012710D01*
G75*
G02*
X0200945Y0012986I0000000J0000276D01*
G01*
X0200945Y0015190D01*
G75*
G02*
X0201220Y0015466I0000276J0000000D01*
G01*
X0204291Y0015466D01*
G75*
G02*
X0204567Y0015190I0000000J-000276D01*
G01*
X0204567Y0012986D01*
G75*
G02*
X0204291Y0012710I-000276J0000000D01*
G01*
G37*
G36*
G01*
X0204291Y0019009D02*
X0201220Y0019009D01*
G75*
G02*
X0200945Y0019285I0000000J0000276D01*
G01*
X0200945Y0021489D01*
G75*
G02*
X0201220Y0021765I0000276J0000000D01*
G01*
X0204291Y0021765D01*
G75*
G02*
X0204567Y0021489I0000000J-000276D01*
G01*
X0204567Y0019285D01*
G75*
G02*
X0204291Y0019009I-000276J0000000D01*
G01*
G37*
G36*
G01*
X0064528Y0066339D02*
X0061457Y0066339D01*
G75*
G02*
X0061181Y0066614I0000000J0000276D01*
G01*
X0061181Y0068819D01*
G75*
G02*
X0061457Y0069094I0000276J0000000D01*
G01*
X0064528Y0069094D01*
G75*
G02*
X0064803Y0068819I0000000J-000276D01*
G01*
X0064803Y0066614D01*
G75*
G02*
X0064528Y0066339I-000276J0000000D01*
G01*
G37*
G36*
G01*
X0064528Y0072638D02*
X0061457Y0072638D01*
G75*
G02*
X0061181Y0072913I0000000J0000276D01*
G01*
X0061181Y0075118D01*
G75*
G02*
X0061457Y0075394I0000276J0000000D01*
G01*
X0064528Y0075394D01*
G75*
G02*
X0064803Y0075118I0000000J-000276D01*
G01*
X0064803Y0072913D01*
G75*
G02*
X0064528Y0072638I-000276J0000000D01*
G01*
G37*
G36*
G01*
X0027126Y0317520D02*
X0024055Y0317520D01*
G75*
G02*
X0023780Y0317795I0000000J0000276D01*
G01*
X0023780Y0320000D01*
G75*
G02*
X0024055Y0320276I0000276J0000000D01*
G01*
X0027126Y0320276D01*
G75*
G02*
X0027402Y0320000I0000000J-000276D01*
G01*
X0027402Y0317795D01*
G75*
G02*
X0027126Y0317520I-000276J0000000D01*
G01*
G37*
G36*
G01*
X0027126Y0323819D02*
X0024055Y0323819D01*
G75*
G02*
X0023780Y0324094I0000000J0000276D01*
G01*
X0023780Y0326299D01*
G75*
G02*
X0024055Y0326575I0000276J0000000D01*
G01*
X0027126Y0326575D01*
G75*
G02*
X0027402Y0326299I0000000J-000276D01*
G01*
X0027402Y0324094D01*
G75*
G02*
X0027126Y0323819I-000276J0000000D01*
G01*
G37*
D22*
X0089961Y0296063D03*
X0089961Y0305118D03*
X0089961Y0314173D03*
D23*
X0114764Y0305118D03*
G36*
G01*
X0001280Y0294882D02*
X0001280Y0296063D01*
G75*
G02*
X0001870Y0296654I0000591J0000000D01*
G01*
X0006496Y0296654D01*
G75*
G02*
X0007087Y0296063I0000000J-000591D01*
G01*
X0007087Y0294882D01*
G75*
G02*
X0006496Y0294291I-000591J0000000D01*
G01*
X0001870Y0294291D01*
G75*
G02*
X0001280Y0294882I0000000J0000591D01*
G01*
G37*
G36*
G01*
X0008661Y0298622D02*
X0008661Y0299803D01*
G75*
G02*
X0009252Y0300394I0000591J0000000D01*
G01*
X0013878Y0300394D01*
G75*
G02*
X0014469Y0299803I0000000J-000591D01*
G01*
X0014469Y0298622D01*
G75*
G02*
X0013878Y0298031I-000591J0000000D01*
G01*
X0009252Y0298031D01*
G75*
G02*
X0008661Y0298622I0000000J0000591D01*
G01*
G37*
G36*
G01*
X0001280Y0302362D02*
X0001280Y0303543D01*
G75*
G02*
X0001870Y0304134I0000591J0000000D01*
G01*
X0006496Y0304134D01*
G75*
G02*
X0007087Y0303543I0000000J-000591D01*
G01*
X0007087Y0302362D01*
G75*
G02*
X0006496Y0301772I-000591J0000000D01*
G01*
X0001870Y0301772D01*
G75*
G02*
X0001280Y0302362I0000000J0000591D01*
G01*
G37*
G36*
G01*
X0045669Y0080551D02*
X0049803Y0080551D01*
G75*
G02*
X0050197Y0080157I0000000J-000394D01*
G01*
X0050197Y0077008D01*
G75*
G02*
X0049803Y0076614I-000394J0000000D01*
G01*
X0045669Y0076614D01*
G75*
G02*
X0045276Y0077008I0000000J0000394D01*
G01*
X0045276Y0080157D01*
G75*
G02*
X0045669Y0080551I0000394J0000000D01*
G01*
G37*
G36*
G01*
X0045669Y0072677D02*
X0049803Y0072677D01*
G75*
G02*
X0050197Y0072283I0000000J-000394D01*
G01*
X0050197Y0069134D01*
G75*
G02*
X0049803Y0068740I-000394J0000000D01*
G01*
X0045669Y0068740D01*
G75*
G02*
X0045276Y0069134I0000000J0000394D01*
G01*
X0045276Y0072283D01*
G75*
G02*
X0045669Y0072677I0000394J0000000D01*
G01*
G37*
G36*
G01*
X0127520Y0117520D02*
X0124449Y0117520D01*
G75*
G02*
X0124173Y0117795I0000000J0000276D01*
G01*
X0124173Y0120000D01*
G75*
G02*
X0124449Y0120276I0000276J0000000D01*
G01*
X0127520Y0120276D01*
G75*
G02*
X0127795Y0120000I0000000J-000276D01*
G01*
X0127795Y0117795D01*
G75*
G02*
X0127520Y0117520I-000276J0000000D01*
G01*
G37*
G36*
G01*
X0127520Y0123819D02*
X0124449Y0123819D01*
G75*
G02*
X0124173Y0124094I0000000J0000276D01*
G01*
X0124173Y0126299D01*
G75*
G02*
X0124449Y0126575I0000276J0000000D01*
G01*
X0127520Y0126575D01*
G75*
G02*
X0127795Y0126299I0000000J-000276D01*
G01*
X0127795Y0124094D01*
G75*
G02*
X0127520Y0123819I-000276J0000000D01*
G01*
G37*
G36*
G01*
X0011378Y0145079D02*
X0008307Y0145079D01*
G75*
G02*
X0008031Y0145354I0000000J0000276D01*
G01*
X0008031Y0147559D01*
G75*
G02*
X0008307Y0147835I0000276J0000000D01*
G01*
X0011378Y0147835D01*
G75*
G02*
X0011654Y0147559I0000000J-000276D01*
G01*
X0011654Y0145354D01*
G75*
G02*
X0011378Y0145079I-000276J0000000D01*
G01*
G37*
G36*
G01*
X0011378Y0151378D02*
X0008307Y0151378D01*
G75*
G02*
X0008031Y0151654I0000000J0000276D01*
G01*
X0008031Y0153858D01*
G75*
G02*
X0008307Y0154134I0000276J0000000D01*
G01*
X0011378Y0154134D01*
G75*
G02*
X0011654Y0153858I0000000J-000276D01*
G01*
X0011654Y0151654D01*
G75*
G02*
X0011378Y0151378I-000276J0000000D01*
G01*
G37*
G36*
G01*
X0111713Y0219941D02*
X0111713Y0216870D01*
G75*
G02*
X0111437Y0216594I-000276J0000000D01*
G01*
X0109232Y0216594D01*
G75*
G02*
X0108957Y0216870I0000000J0000276D01*
G01*
X0108957Y0219941D01*
G75*
G02*
X0109232Y0220217I0000276J0000000D01*
G01*
X0111437Y0220217D01*
G75*
G02*
X0111713Y0219941I0000000J-000276D01*
G01*
G37*
G36*
G01*
X0105413Y0219941D02*
X0105413Y0216870D01*
G75*
G02*
X0105138Y0216594I-000276J0000000D01*
G01*
X0102933Y0216594D01*
G75*
G02*
X0102657Y0216870I0000000J0000276D01*
G01*
X0102657Y0219941D01*
G75*
G02*
X0102933Y0220217I0000276J0000000D01*
G01*
X0105138Y0220217D01*
G75*
G02*
X0105413Y0219941I0000000J-000276D01*
G01*
G37*
G36*
G01*
X0047539Y0043307D02*
X0051673Y0043307D01*
G75*
G02*
X0052067Y0042913I0000000J-000394D01*
G01*
X0052067Y0039764D01*
G75*
G02*
X0051673Y0039370I-000394J0000000D01*
G01*
X0047539Y0039370D01*
G75*
G02*
X0047146Y0039764I0000000J0000394D01*
G01*
X0047146Y0042913D01*
G75*
G02*
X0047539Y0043307I0000394J0000000D01*
G01*
G37*
G36*
G01*
X0047539Y0035433D02*
X0051673Y0035433D01*
G75*
G02*
X0052067Y0035039I0000000J-000394D01*
G01*
X0052067Y0031890D01*
G75*
G02*
X0051673Y0031496I-000394J0000000D01*
G01*
X0047539Y0031496D01*
G75*
G02*
X0047146Y0031890I0000000J0000394D01*
G01*
X0047146Y0035039D01*
G75*
G02*
X0047539Y0035433I0000394J0000000D01*
G01*
G37*
G36*
G01*
X0099459Y0113780D02*
X0099459Y0102559D01*
G75*
G02*
X0098474Y0101575I-000984J0000000D01*
G01*
X0095620Y0101575D01*
G75*
G02*
X0094636Y0102559I0000000J0000984D01*
G01*
X0094636Y0113780D01*
G75*
G02*
X0095620Y0114764I0000984J0000000D01*
G01*
X0098474Y0114764D01*
G75*
G02*
X0099459Y0113780I0000000J-000984D01*
G01*
G37*
G36*
G01*
X0076132Y0113780D02*
X0076132Y0102559D01*
G75*
G02*
X0075148Y0101575I-000984J0000000D01*
G01*
X0072293Y0101575D01*
G75*
G02*
X0071309Y0102559I0000000J0000984D01*
G01*
X0071309Y0113780D01*
G75*
G02*
X0072293Y0114764I0000984J0000000D01*
G01*
X0075148Y0114764D01*
G75*
G02*
X0076132Y0113780I0000000J-000984D01*
G01*
G37*
G36*
G01*
X0034055Y0052992D02*
X0029921Y0052992D01*
G75*
G02*
X0029528Y0053386I0000000J0000394D01*
G01*
X0029528Y0056535D01*
G75*
G02*
X0029921Y0056929I0000394J0000000D01*
G01*
X0034055Y0056929D01*
G75*
G02*
X0034449Y0056535I0000000J-000394D01*
G01*
X0034449Y0053386D01*
G75*
G02*
X0034055Y0052992I-000394J0000000D01*
G01*
G37*
G36*
G01*
X0034055Y0060866D02*
X0029921Y0060866D01*
G75*
G02*
X0029528Y0061260I0000000J0000394D01*
G01*
X0029528Y0064409D01*
G75*
G02*
X0029921Y0064803I0000394J0000000D01*
G01*
X0034055Y0064803D01*
G75*
G02*
X0034449Y0064409I0000000J-000394D01*
G01*
X0034449Y0061260D01*
G75*
G02*
X0034055Y0060866I-000394J0000000D01*
G01*
G37*
D28*
X0144882Y0135236D03*
X0135827Y0135236D03*
X0126772Y0135236D03*
D29*
X0135827Y0160039D03*
G36*
G01*
X0041929Y0052992D02*
X0037795Y0052992D01*
G75*
G02*
X0037402Y0053386I0000000J0000394D01*
G01*
X0037402Y0056535D01*
G75*
G02*
X0037795Y0056929I0000394J0000000D01*
G01*
X0041929Y0056929D01*
G75*
G02*
X0042323Y0056535I0000000J-000394D01*
G01*
X0042323Y0053386D01*
G75*
G02*
X0041929Y0052992I-000394J0000000D01*
G01*
G37*
G36*
G01*
X0041929Y0060866D02*
X0037795Y0060866D01*
G75*
G02*
X0037402Y0061260I0000000J0000394D01*
G01*
X0037402Y0064409D01*
G75*
G02*
X0037795Y0064803I0000394J0000000D01*
G01*
X0041929Y0064803D01*
G75*
G02*
X0042323Y0064409I0000000J-000394D01*
G01*
X0042323Y0061260D01*
G75*
G02*
X0041929Y0060866I-000394J0000000D01*
G01*
G37*
G36*
G01*
X0018307Y0052992D02*
X0014173Y0052992D01*
G75*
G02*
X0013780Y0053386I0000000J0000394D01*
G01*
X0013780Y0056535D01*
G75*
G02*
X0014173Y0056929I0000394J0000000D01*
G01*
X0018307Y0056929D01*
G75*
G02*
X0018701Y0056535I0000000J-000394D01*
G01*
X0018701Y0053386D01*
G75*
G02*
X0018307Y0052992I-000394J0000000D01*
G01*
G37*
G36*
G01*
X0018307Y0060866D02*
X0014173Y0060866D01*
G75*
G02*
X0013780Y0061260I0000000J0000394D01*
G01*
X0013780Y0064409D01*
G75*
G02*
X0014173Y0064803I0000394J0000000D01*
G01*
X0018307Y0064803D01*
G75*
G02*
X0018701Y0064409I0000000J-000394D01*
G01*
X0018701Y0061260D01*
G75*
G02*
X0018307Y0060866I-000394J0000000D01*
G01*
G37*
G36*
G01*
X0017028Y0281102D02*
X0017028Y0282283D01*
G75*
G02*
X0017618Y0282874I0000591J0000000D01*
G01*
X0022244Y0282874D01*
G75*
G02*
X0022835Y0282283I0000000J-000591D01*
G01*
X0022835Y0281102D01*
G75*
G02*
X0022244Y0280512I-000591J0000000D01*
G01*
X0017618Y0280512D01*
G75*
G02*
X0017028Y0281102I0000000J0000591D01*
G01*
G37*
G36*
G01*
X0024409Y0284843D02*
X0024409Y0286024D01*
G75*
G02*
X0025000Y0286614I0000591J0000000D01*
G01*
X0029626Y0286614D01*
G75*
G02*
X0030217Y0286024I0000000J-000591D01*
G01*
X0030217Y0284843D01*
G75*
G02*
X0029626Y0284252I-000591J0000000D01*
G01*
X0025000Y0284252D01*
G75*
G02*
X0024409Y0284843I0000000J0000591D01*
G01*
G37*
G36*
G01*
X0017028Y0288583D02*
X0017028Y0289764D01*
G75*
G02*
X0017618Y0290354I0000591J0000000D01*
G01*
X0022244Y0290354D01*
G75*
G02*
X0022835Y0289764I0000000J-000591D01*
G01*
X0022835Y0288583D01*
G75*
G02*
X0022244Y0287992I-000591J0000000D01*
G01*
X0017618Y0287992D01*
G75*
G02*
X0017028Y0288583I0000000J0000591D01*
G01*
G37*
G36*
G01*
X0022047Y0080551D02*
X0026181Y0080551D01*
G75*
G02*
X0026575Y0080157I0000000J-000394D01*
G01*
X0026575Y0077008D01*
G75*
G02*
X0026181Y0076614I-000394J0000000D01*
G01*
X0022047Y0076614D01*
G75*
G02*
X0021654Y0077008I0000000J0000394D01*
G01*
X0021654Y0080157D01*
G75*
G02*
X0022047Y0080551I0000394J0000000D01*
G01*
G37*
G36*
G01*
X0022047Y0072677D02*
X0026181Y0072677D01*
G75*
G02*
X0026575Y0072283I0000000J-000394D01*
G01*
X0026575Y0069134D01*
G75*
G02*
X0026181Y0068740I-000394J0000000D01*
G01*
X0022047Y0068740D01*
G75*
G02*
X0021654Y0069134I0000000J0000394D01*
G01*
X0021654Y0072283D01*
G75*
G02*
X0022047Y0072677I0000394J0000000D01*
G01*
G37*
G36*
G01*
X0071161Y0043307D02*
X0075295Y0043307D01*
G75*
G02*
X0075689Y0042913I0000000J-000394D01*
G01*
X0075689Y0039764D01*
G75*
G02*
X0075295Y0039370I-000394J0000000D01*
G01*
X0071161Y0039370D01*
G75*
G02*
X0070768Y0039764I0000000J0000394D01*
G01*
X0070768Y0042913D01*
G75*
G02*
X0071161Y0043307I0000394J0000000D01*
G01*
G37*
G36*
G01*
X0071161Y0035433D02*
X0075295Y0035433D01*
G75*
G02*
X0075689Y0035039I0000000J-000394D01*
G01*
X0075689Y0031890D01*
G75*
G02*
X0075295Y0031496I-000394J0000000D01*
G01*
X0071161Y0031496D01*
G75*
G02*
X0070768Y0031890I0000000J0000394D01*
G01*
X0070768Y0035039D01*
G75*
G02*
X0071161Y0035433I0000394J0000000D01*
G01*
G37*
G36*
G01*
X0070276Y0291772D02*
X0070276Y0294843D01*
G75*
G02*
X0070551Y0295118I0000276J0000000D01*
G01*
X0072756Y0295118D01*
G75*
G02*
X0073031Y0294843I0000000J-000276D01*
G01*
X0073031Y0291772D01*
G75*
G02*
X0072756Y0291496I-000276J0000000D01*
G01*
X0070551Y0291496D01*
G75*
G02*
X0070276Y0291772I0000000J0000276D01*
G01*
G37*
G36*
G01*
X0076575Y0291772D02*
X0076575Y0294843D01*
G75*
G02*
X0076850Y0295118I0000276J0000000D01*
G01*
X0079055Y0295118D01*
G75*
G02*
X0079331Y0294843I0000000J-000276D01*
G01*
X0079331Y0291772D01*
G75*
G02*
X0079055Y0291496I-000276J0000000D01*
G01*
X0076850Y0291496D01*
G75*
G02*
X0076575Y0291772I0000000J0000276D01*
G01*
G37*
G36*
G01*
X0051673Y0015748D02*
X0047539Y0015748D01*
G75*
G02*
X0047146Y0016142I0000000J0000394D01*
G01*
X0047146Y0019291D01*
G75*
G02*
X0047539Y0019685I0000394J0000000D01*
G01*
X0051673Y0019685D01*
G75*
G02*
X0052067Y0019291I0000000J-000394D01*
G01*
X0052067Y0016142D01*
G75*
G02*
X0051673Y0015748I-000394J0000000D01*
G01*
G37*
G36*
G01*
X0051673Y0023622D02*
X0047539Y0023622D01*
G75*
G02*
X0047146Y0024016I0000000J0000394D01*
G01*
X0047146Y0027165D01*
G75*
G02*
X0047539Y0027559I0000394J0000000D01*
G01*
X0051673Y0027559D01*
G75*
G02*
X0052067Y0027165I0000000J-000394D01*
G01*
X0052067Y0024016D01*
G75*
G02*
X0051673Y0023622I-000394J0000000D01*
G01*
G37*
G36*
G01*
X0064528Y0078150D02*
X0061457Y0078150D01*
G75*
G02*
X0061181Y0078425I0000000J0000276D01*
G01*
X0061181Y0080630D01*
G75*
G02*
X0061457Y0080906I0000276J0000000D01*
G01*
X0064528Y0080906D01*
G75*
G02*
X0064803Y0080630I0000000J-000276D01*
G01*
X0064803Y0078425D01*
G75*
G02*
X0064528Y0078150I-000276J0000000D01*
G01*
G37*
G36*
G01*
X0064528Y0084449D02*
X0061457Y0084449D01*
G75*
G02*
X0061181Y0084724I0000000J0000276D01*
G01*
X0061181Y0086929D01*
G75*
G02*
X0061457Y0087205I0000276J0000000D01*
G01*
X0064528Y0087205D01*
G75*
G02*
X0064803Y0086929I0000000J-000276D01*
G01*
X0064803Y0084724D01*
G75*
G02*
X0064528Y0084449I-000276J0000000D01*
G01*
G37*
D28*
X0022835Y0247441D03*
X0013780Y0247441D03*
X0004724Y0247441D03*
D29*
X0013780Y0272244D03*
X0096949Y0004823D02*
G01*
G75*
D120*
X0126864Y0081201D02*
D03*
X0113872Y0081201D02*
D03*
D121*
X0146724Y0081595D02*
D03*
X0135307Y0081595D02*
D03*
X0146724Y0073563D02*
D03*
X0135307Y0073563D02*
D03*
D124*
X0109351Y0059547D02*
D03*
X0109351Y0063484D02*
D03*
X0106004Y0074114D02*
D03*
X0114666Y0074114D02*
D03*
X0105217Y0068866D02*
D03*
X0113878Y0068866D02*
D03*
D125*
X0117104Y0016240D02*
D03*
X0113560Y0016240D02*
D03*
X0126495Y0052973D02*
D03*
X0130039Y0052973D02*
D03*
X0118498Y0068078D02*
D03*
X0122041Y0068078D02*
D03*
X0125722Y0016240D02*
D03*
X0122179Y0016240D02*
D03*
X0105217Y0020177D02*
D03*
X0108760Y0020177D02*
D03*
D126*
X0130702Y0069653D02*
D03*
X0130702Y0073197D02*
D03*
X0109935Y0082055D02*
D03*
X0109935Y0078511D02*
D03*
X0158699Y0023738D02*
D03*
X0158699Y0027282D02*
D03*
D127*
X0162697Y0022933D02*
D03*
X0162697Y0018996D02*
D03*
D128*
X0099902Y0076476D02*
D03*
X0099902Y0009547D02*
D03*
X0099902Y0056988D02*
D03*
X0160925Y0056791D02*
D03*
X0160925Y0081988D02*
D03*
X0160925Y0032382D02*
D03*
X0160925Y0049311D02*
D03*
X0160925Y0007776D02*
D03*
X0099902Y0083760D02*
D03*
D138*
X0146162Y0061122D02*
D03*
X0135138Y0061122D02*
D03*
D139*
X0113484Y0056799D02*
D03*
X0113484Y0063019D02*
D03*
X0127578Y0056799D02*
D03*
X0127578Y0063019D02*
D03*
X0122887Y0056799D02*
D03*
X0122887Y0063019D02*
D03*
X0118195Y0056799D02*
D03*
X0118195Y0063019D02*
D03*
X0126397Y0069043D02*
D03*
X0126397Y0075264D02*
D03*
D140*
X0116907Y0020177D02*
D03*
X0112970Y0020177D02*
D03*
X0121588Y0020177D02*
D03*
X0125525Y0020177D02*
D03*
X0118301Y0074114D02*
D03*
X0122238Y0074114D02*
D03*
X0141234Y0052500D02*
D03*
X0145171Y0052500D02*
D03*
X0149010Y0015059D02*
D03*
X0145072Y0015059D02*
D03*
D141*
X0122021Y0026937D02*
D03*
X0117021Y0026937D02*
D03*
X0112021Y0026937D02*
D03*
X0107021Y0026937D02*
D03*
X0122021Y0049574D02*
D03*
X0117021Y0049574D02*
D03*
X0112021Y0049574D02*
D03*
X0107021Y0049574D02*
D03*
X0145088Y0021654D02*
D03*
X0140088Y0021654D02*
D03*
X0135088Y0021654D02*
D03*
X0130088Y0021654D02*
D03*
X0145088Y0045079D02*
D03*
X0140088Y0045079D02*
D03*
X0135088Y0045079D02*
D03*
X0130088Y0045079D02*
D03*
D142*
X0114521Y0038255D02*
D03*
D143*
X0137588Y0033366D02*
D03*
X0301083Y0322933D02*
G01*
G75*
D127*
X0311319Y0287500D02*
D03*
X0307579Y0287500D02*
D03*
X0303839Y0287500D02*
D03*
X0307776Y0321752D02*
D03*
X0311319Y0321752D02*
D03*
D304*
X0311319Y0294980D02*
D03*
X0311319Y0291043D02*
D03*
X0311319Y0306103D02*
D03*
X0311319Y0310040D02*
D03*
X0311319Y0314469D02*
D03*
X0311319Y0318406D02*
D03*
X0304036Y0294980D02*
D03*
X0304036Y0291043D02*
D03*
D305*
X0303839Y0298365D02*
D03*
X0307382Y0298365D02*
D03*
D306*
X0310552Y0302250D02*
D03*
X0304331Y0302250D02*
D03*
D307*
X0307382Y0314862D02*
D03*
X0307382Y0318405D02*
D03*
X0303839Y0306496D02*
D03*
X0303839Y0310039D02*
D03*
X0307440Y0291634D02*
D03*
X0307440Y0295177D02*
D03*
X0303839Y0318405D02*
D03*
X0303839Y0314862D02*
D03*
X0166437Y0305020D02*
%LPD*%
G01*
D30*
X0193602Y0246752D03*
X0188878Y0246752D03*
X0198327Y0246752D03*
X0203051Y0246752D03*
X0177618Y0303544D03*
X0173681Y0303544D03*
G36*
G01*
X0197031Y0288091D02*
X0195850Y0288091D01*
G75*
G02*
X0195259Y0288681I0000000J0000591D01*
G01*
X0195259Y0292717D01*
G75*
G02*
X0195850Y0293307I0000591J0000000D01*
G01*
X0197031Y0293307D01*
G75*
G02*
X0197621Y0292717I0000000J-000591D01*
G01*
X0197621Y0288681D01*
G75*
G02*
X0197031Y0288091I-000591J0000000D01*
G01*
G37*
G36*
G01*
X0193290Y0288091D02*
X0192109Y0288091D01*
G75*
G02*
X0191519Y0288681I0000000J0000591D01*
G01*
X0191519Y0292717D01*
G75*
G02*
X0192109Y0293307I0000591J0000000D01*
G01*
X0193290Y0293307D01*
G75*
G02*
X0193881Y0292717I0000000J-000591D01*
G01*
X0193881Y0288681D01*
G75*
G02*
X0193290Y0288091I-000591J0000000D01*
G01*
G37*
G36*
G01*
X0189550Y0288091D02*
X0188369Y0288091D01*
G75*
G02*
X0187779Y0288681I0000000J0000591D01*
G01*
X0187779Y0292717D01*
G75*
G02*
X0188369Y0293307I0000591J0000000D01*
G01*
X0189550Y0293307D01*
G75*
G02*
X0190141Y0292717I0000000J-000591D01*
G01*
X0190141Y0288681D01*
G75*
G02*
X0189550Y0288091I-000591J0000000D01*
G01*
G37*
G36*
G01*
X0189550Y0297048D02*
X0188369Y0297048D01*
G75*
G02*
X0187779Y0297638I0000000J0000591D01*
G01*
X0187779Y0301674D01*
G75*
G02*
X0188369Y0302264I0000591J0000000D01*
G01*
X0189550Y0302264D01*
G75*
G02*
X0190141Y0301674I0000000J-000591D01*
G01*
X0190141Y0297638D01*
G75*
G02*
X0189550Y0297048I-000591J0000000D01*
G01*
G37*
G36*
G01*
X0197031Y0297048D02*
X0195850Y0297048D01*
G75*
G02*
X0195259Y0297638I0000000J0000591D01*
G01*
X0195259Y0301674D01*
G75*
G02*
X0195850Y0302264I0000591J0000000D01*
G01*
X0197031Y0302264D01*
G75*
G02*
X0197621Y0301674I0000000J-000591D01*
G01*
X0197621Y0297638D01*
G75*
G02*
X0197031Y0297048I-000591J0000000D01*
G01*
G37*
G36*
G01*
X0174744Y0288366D02*
X0174744Y0287028D01*
G75*
G02*
X0174193Y0286477I-000551J0000000D01*
G01*
X0173091Y0286477D01*
G75*
G02*
X0172539Y0287028I0000000J0000551D01*
G01*
X0172539Y0288366D01*
G75*
G02*
X0173091Y0288918I0000551J0000000D01*
G01*
X0174193Y0288918D01*
G75*
G02*
X0174744Y0288366I0000000J-000551D01*
G01*
G37*
G36*
G01*
X0170965Y0288366D02*
X0170965Y0287028D01*
G75*
G02*
X0170413Y0286477I-000551J0000000D01*
G01*
X0169311Y0286477D01*
G75*
G02*
X0168760Y0287028I0000000J0000551D01*
G01*
X0168760Y0288366D01*
G75*
G02*
X0169311Y0288918I0000551J0000000D01*
G01*
X0170413Y0288918D01*
G75*
G02*
X0170965Y0288366I0000000J-000551D01*
G01*
G37*
G36*
G01*
X0197461Y0261851D02*
X0198799Y0261851D01*
G75*
G02*
X0199350Y0261300I0000000J-000551D01*
G01*
X0199350Y0260197D01*
G75*
G02*
X0198799Y0259646I-000551J0000000D01*
G01*
X0197461Y0259646D01*
G75*
G02*
X0196909Y0260197I0000000J0000551D01*
G01*
X0196909Y0261300D01*
G75*
G02*
X0197461Y0261851I0000551J0000000D01*
G01*
G37*
G36*
G01*
X0197461Y0258071D02*
X0198799Y0258071D01*
G75*
G02*
X0199350Y0257520I0000000J-000551D01*
G01*
X0199350Y0256418D01*
G75*
G02*
X0198799Y0255866I-000551J0000000D01*
G01*
X0197461Y0255866D01*
G75*
G02*
X0196909Y0256418I0000000J0000551D01*
G01*
X0196909Y0257520D01*
G75*
G02*
X0197461Y0258071I0000551J0000000D01*
G01*
G37*
G36*
G01*
X0202461Y0248504D02*
X0201122Y0248504D01*
G75*
G02*
X0200571Y0249055I0000000J0000551D01*
G01*
X0200571Y0250158D01*
G75*
G02*
X0201122Y0250709I0000551J0000000D01*
G01*
X0202461Y0250709D01*
G75*
G02*
X0203012Y0250158I0000000J-000551D01*
G01*
X0203012Y0249055D01*
G75*
G02*
X0202461Y0248504I-000551J0000000D01*
G01*
G37*
G36*
G01*
X0202461Y0252284D02*
X0201122Y0252284D01*
G75*
G02*
X0200571Y0252835I0000000J0000551D01*
G01*
X0200571Y0253937D01*
G75*
G02*
X0201122Y0254489I0000551J0000000D01*
G01*
X0202461Y0254489D01*
G75*
G02*
X0203012Y0253937I0000000J-000551D01*
G01*
X0203012Y0252835D01*
G75*
G02*
X0202461Y0252284I-000551J0000000D01*
G01*
G37*
G36*
G01*
X0193720Y0270256D02*
X0195059Y0270256D01*
G75*
G02*
X0195610Y0269705I0000000J-000551D01*
G01*
X0195610Y0268603D01*
G75*
G02*
X0195059Y0268051I-000551J0000000D01*
G01*
X0193720Y0268051D01*
G75*
G02*
X0193169Y0268603I0000000J0000551D01*
G01*
X0193169Y0269705D01*
G75*
G02*
X0193720Y0270256I0000551J0000000D01*
G01*
G37*
G36*
G01*
X0193720Y0266477D02*
X0195059Y0266477D01*
G75*
G02*
X0195610Y0265926I0000000J-000551D01*
G01*
X0195610Y0264823D01*
G75*
G02*
X0195059Y0264272I-000551J0000000D01*
G01*
X0193720Y0264272D01*
G75*
G02*
X0193169Y0264823I0000000J0000551D01*
G01*
X0193169Y0265926D01*
G75*
G02*
X0193720Y0266477I0000551J0000000D01*
G01*
G37*
G36*
G01*
X0198799Y0248701D02*
X0197461Y0248701D01*
G75*
G02*
X0196909Y0249252I0000000J0000551D01*
G01*
X0196909Y0250355D01*
G75*
G02*
X0197461Y0250906I0000551J0000000D01*
G01*
X0198799Y0250906D01*
G75*
G02*
X0199350Y0250355I0000000J-000551D01*
G01*
X0199350Y0249252D01*
G75*
G02*
X0198799Y0248701I-000551J0000000D01*
G01*
G37*
G36*
G01*
X0198799Y0252481D02*
X0197461Y0252481D01*
G75*
G02*
X0196909Y0253032I0000000J0000551D01*
G01*
X0196909Y0254134D01*
G75*
G02*
X0197461Y0254685I0000551J0000000D01*
G01*
X0198799Y0254685D01*
G75*
G02*
X0199350Y0254134I0000000J-000551D01*
G01*
X0199350Y0253032D01*
G75*
G02*
X0198799Y0252481I-000551J0000000D01*
G01*
G37*
G36*
G01*
X0177283Y0253977D02*
X0178622Y0253977D01*
G75*
G02*
X0179173Y0253426I0000000J-000551D01*
G01*
X0179173Y0252323D01*
G75*
G02*
X0178622Y0251772I-000551J0000000D01*
G01*
X0177283Y0251772D01*
G75*
G02*
X0176732Y0252323I0000000J0000551D01*
G01*
X0176732Y0253426D01*
G75*
G02*
X0177283Y0253977I0000551J0000000D01*
G01*
G37*
G36*
G01*
X0177283Y0250197D02*
X0178622Y0250197D01*
G75*
G02*
X0179173Y0249646I0000000J-000551D01*
G01*
X0179173Y0248544D01*
G75*
G02*
X0178622Y0247992I-000551J0000000D01*
G01*
X0177283Y0247992D01*
G75*
G02*
X0176732Y0248544I0000000J0000551D01*
G01*
X0176732Y0249646D01*
G75*
G02*
X0177283Y0250197I0000551J0000000D01*
G01*
G37*
G36*
G01*
X0169783Y0284486D02*
X0170571Y0284486D01*
G75*
G02*
X0170965Y0284092I0000000J-000394D01*
G01*
X0170965Y0279072D01*
G75*
G02*
X0170571Y0278679I-000394J0000000D01*
G01*
X0169783Y0278679D01*
G75*
G02*
X0169390Y0279072I0000000J0000394D01*
G01*
X0169390Y0284092D01*
G75*
G02*
X0169783Y0284486I0000394J0000000D01*
G01*
G37*
G36*
G01*
X0172343Y0284486D02*
X0173130Y0284486D01*
G75*
G02*
X0173524Y0284092I0000000J-000394D01*
G01*
X0173524Y0279072D01*
G75*
G02*
X0173130Y0278679I-000394J0000000D01*
G01*
X0172343Y0278679D01*
G75*
G02*
X0171949Y0279072I0000000J0000394D01*
G01*
X0171949Y0284092D01*
G75*
G02*
X0172343Y0284486I0000394J0000000D01*
G01*
G37*
G36*
G01*
X0174902Y0284486D02*
X0175689Y0284486D01*
G75*
G02*
X0176083Y0284092I0000000J-000394D01*
G01*
X0176083Y0279072D01*
G75*
G02*
X0175689Y0278679I-000394J0000000D01*
G01*
X0174902Y0278679D01*
G75*
G02*
X0174508Y0279072I0000000J0000394D01*
G01*
X0174508Y0284092D01*
G75*
G02*
X0174902Y0284486I0000394J0000000D01*
G01*
G37*
G36*
G01*
X0177461Y0284486D02*
X0178248Y0284486D01*
G75*
G02*
X0178642Y0284092I0000000J-000394D01*
G01*
X0178642Y0279072D01*
G75*
G02*
X0178248Y0278679I-000394J0000000D01*
G01*
X0177461Y0278679D01*
G75*
G02*
X0177067Y0279072I0000000J0000394D01*
G01*
X0177067Y0284092D01*
G75*
G02*
X0177461Y0284486I0000394J0000000D01*
G01*
G37*
G36*
G01*
X0180020Y0284486D02*
X0180807Y0284486D01*
G75*
G02*
X0181201Y0284092I0000000J-000394D01*
G01*
X0181201Y0279072D01*
G75*
G02*
X0180807Y0278679I-000394J0000000D01*
G01*
X0180020Y0278679D01*
G75*
G02*
X0179626Y0279072I0000000J0000394D01*
G01*
X0179626Y0284092D01*
G75*
G02*
X0180020Y0284486I0000394J0000000D01*
G01*
G37*
G36*
G01*
X0182579Y0284486D02*
X0183366Y0284486D01*
G75*
G02*
X0183760Y0284092I0000000J-000394D01*
G01*
X0183760Y0279072D01*
G75*
G02*
X0183366Y0278679I-000394J0000000D01*
G01*
X0182579Y0278679D01*
G75*
G02*
X0182185Y0279072I0000000J0000394D01*
G01*
X0182185Y0284092D01*
G75*
G02*
X0182579Y0284486I0000394J0000000D01*
G01*
G37*
G36*
G01*
X0185138Y0284486D02*
X0185925Y0284486D01*
G75*
G02*
X0186319Y0284092I0000000J-000394D01*
G01*
X0186319Y0279072D01*
G75*
G02*
X0185925Y0278679I-000394J0000000D01*
G01*
X0185138Y0278679D01*
G75*
G02*
X0184744Y0279072I0000000J0000394D01*
G01*
X0184744Y0284092D01*
G75*
G02*
X0185138Y0284486I0000394J0000000D01*
G01*
G37*
G36*
G01*
X0185138Y0261946D02*
X0185925Y0261946D01*
G75*
G02*
X0186319Y0261553I0000000J-000394D01*
G01*
X0186319Y0256533D01*
G75*
G02*
X0185925Y0256139I-000394J0000000D01*
G01*
X0185138Y0256139D01*
G75*
G02*
X0184744Y0256533I0000000J0000394D01*
G01*
X0184744Y0261553D01*
G75*
G02*
X0185138Y0261946I0000394J0000000D01*
G01*
G37*
G36*
G01*
X0182579Y0261946D02*
X0183366Y0261946D01*
G75*
G02*
X0183760Y0261553I0000000J-000394D01*
G01*
X0183760Y0256533D01*
G75*
G02*
X0183366Y0256139I-000394J0000000D01*
G01*
X0182579Y0256139D01*
G75*
G02*
X0182185Y0256533I0000000J0000394D01*
G01*
X0182185Y0261553D01*
G75*
G02*
X0182579Y0261946I0000394J0000000D01*
G01*
G37*
G36*
G01*
X0180020Y0261946D02*
X0180807Y0261946D01*
G75*
G02*
X0181201Y0261553I0000000J-000394D01*
G01*
X0181201Y0256533D01*
G75*
G02*
X0180807Y0256139I-000394J0000000D01*
G01*
X0180020Y0256139D01*
G75*
G02*
X0179626Y0256533I0000000J0000394D01*
G01*
X0179626Y0261553D01*
G75*
G02*
X0180020Y0261946I0000394J0000000D01*
G01*
G37*
G36*
G01*
X0177461Y0261946D02*
X0178248Y0261946D01*
G75*
G02*
X0178642Y0261553I0000000J-000394D01*
G01*
X0178642Y0256533D01*
G75*
G02*
X0178248Y0256139I-000394J0000000D01*
G01*
X0177461Y0256139D01*
G75*
G02*
X0177067Y0256533I0000000J0000394D01*
G01*
X0177067Y0261553D01*
G75*
G02*
X0177461Y0261946I0000394J0000000D01*
G01*
G37*
G36*
G01*
X0174902Y0261946D02*
X0175689Y0261946D01*
G75*
G02*
X0176083Y0261553I0000000J-000394D01*
G01*
X0176083Y0256533D01*
G75*
G02*
X0175689Y0256139I-000394J0000000D01*
G01*
X0174902Y0256139D01*
G75*
G02*
X0174508Y0256533I0000000J0000394D01*
G01*
X0174508Y0261553D01*
G75*
G02*
X0174902Y0261946I0000394J0000000D01*
G01*
G37*
G36*
G01*
X0172343Y0261946D02*
X0173130Y0261946D01*
G75*
G02*
X0173524Y0261553I0000000J-000394D01*
G01*
X0173524Y0256533D01*
G75*
G02*
X0173130Y0256139I-000394J0000000D01*
G01*
X0172343Y0256139D01*
G75*
G02*
X0171949Y0256533I0000000J0000394D01*
G01*
X0171949Y0261553D01*
G75*
G02*
X0172343Y0261946I0000394J0000000D01*
G01*
G37*
G36*
G01*
X0169783Y0261946D02*
X0170571Y0261946D01*
G75*
G02*
X0170965Y0261553I0000000J-000394D01*
G01*
X0170965Y0256533D01*
G75*
G02*
X0170571Y0256139I-000394J0000000D01*
G01*
X0169783Y0256139D01*
G75*
G02*
X0169390Y0256533I0000000J0000394D01*
G01*
X0169390Y0261553D01*
G75*
G02*
X0169783Y0261946I0000394J0000000D01*
G01*
G37*
G36*
G01*
X0177654Y0302129D02*
X0181197Y0302129D01*
G75*
G02*
X0182181Y0301145I0000000J-000984D01*
G01*
X0182181Y0299078D01*
G75*
G02*
X0181197Y0298094I-000984J0000000D01*
G01*
X0177654Y0298094D01*
G75*
G02*
X0176669Y0299078I0000000J0000984D01*
G01*
X0176669Y0301145D01*
G75*
G02*
X0177654Y0302129I0000984J0000000D01*
G01*
G37*
G36*
G01*
X0177654Y0294944D02*
X0181197Y0294944D01*
G75*
G02*
X0182181Y0293960I0000000J-000984D01*
G01*
X0182181Y0291893D01*
G75*
G02*
X0181197Y0290909I-000984J0000000D01*
G01*
X0177654Y0290909D01*
G75*
G02*
X0176669Y0291893I0000000J0000984D01*
G01*
X0176669Y0293960D01*
G75*
G02*
X0177654Y0294944I0000984J0000000D01*
G01*
G37*
G36*
G01*
X0191378Y0255886D02*
X0189921Y0255886D01*
G75*
G02*
X0189390Y0256418I0000000J0000531D01*
G01*
X0189390Y0257481D01*
G75*
G02*
X0189921Y0258012I0000531J0000000D01*
G01*
X0191378Y0258012D01*
G75*
G02*
X0191909Y0257481I0000000J-000531D01*
G01*
X0191909Y0256418D01*
G75*
G02*
X0191378Y0255886I-000531J0000000D01*
G01*
G37*
G36*
G01*
X0191378Y0259902D02*
X0189921Y0259902D01*
G75*
G02*
X0189390Y0260433I0000000J0000531D01*
G01*
X0189390Y0261496D01*
G75*
G02*
X0189921Y0262028I0000531J0000000D01*
G01*
X0191378Y0262028D01*
G75*
G02*
X0191909Y0261496I0000000J-000531D01*
G01*
X0191909Y0260433D01*
G75*
G02*
X0191378Y0259902I-000531J0000000D01*
G01*
G37*
G36*
G01*
X0202303Y0296319D02*
X0200965Y0296319D01*
G75*
G02*
X0200413Y0296870I0000000J0000551D01*
G01*
X0200413Y0297973D01*
G75*
G02*
X0200965Y0298524I0000551J0000000D01*
G01*
X0202303Y0298524D01*
G75*
G02*
X0202854Y0297973I0000000J-000551D01*
G01*
X0202854Y0296870D01*
G75*
G02*
X0202303Y0296319I-000551J0000000D01*
G01*
G37*
G36*
G01*
X0202303Y0300099D02*
X0200965Y0300099D01*
G75*
G02*
X0200413Y0300650I0000000J0000551D01*
G01*
X0200413Y0301752D01*
G75*
G02*
X0200965Y0302303I0000551J0000000D01*
G01*
X0202303Y0302303D01*
G75*
G02*
X0202854Y0301752I0000000J-000551D01*
G01*
X0202854Y0300650D01*
G75*
G02*
X0202303Y0300099I-000551J0000000D01*
G01*
G37*
G36*
G01*
X0195118Y0248209D02*
X0193661Y0248209D01*
G75*
G02*
X0193130Y0248740I0000000J0000531D01*
G01*
X0193130Y0249803D01*
G75*
G02*
X0193661Y0250335I0000531J0000000D01*
G01*
X0195118Y0250335D01*
G75*
G02*
X0195650Y0249803I0000000J-000531D01*
G01*
X0195650Y0248740D01*
G75*
G02*
X0195118Y0248209I-000531J0000000D01*
G01*
G37*
G36*
G01*
X0195118Y0252225D02*
X0193661Y0252225D01*
G75*
G02*
X0193130Y0252756I0000000J0000531D01*
G01*
X0193130Y0253819D01*
G75*
G02*
X0193661Y0254351I0000531J0000000D01*
G01*
X0195118Y0254351D01*
G75*
G02*
X0195650Y0253819I0000000J-000531D01*
G01*
X0195650Y0252756D01*
G75*
G02*
X0195118Y0252225I-000531J0000000D01*
G01*
G37*
G36*
G01*
X0191378Y0264142D02*
X0189922Y0264142D01*
G75*
G02*
X0189390Y0264674I0000000J0000531D01*
G01*
X0189390Y0265737D01*
G75*
G02*
X0189922Y0266268I0000531J0000000D01*
G01*
X0191378Y0266268D01*
G75*
G02*
X0191910Y0265737I0000000J-000531D01*
G01*
X0191910Y0264674D01*
G75*
G02*
X0191378Y0264142I-000531J0000000D01*
G01*
G37*
G36*
G01*
X0191378Y0268158D02*
X0189922Y0268158D01*
G75*
G02*
X0189390Y0268690I0000000J0000531D01*
G01*
X0189390Y0269753D01*
G75*
G02*
X0189922Y0270284I0000531J0000000D01*
G01*
X0191378Y0270284D01*
G75*
G02*
X0191910Y0269753I0000000J-000531D01*
G01*
X0191910Y0268690D01*
G75*
G02*
X0191378Y0268158I-000531J0000000D01*
G01*
G37*
G36*
G01*
X0173622Y0290909D02*
X0170079Y0290909D01*
G75*
G02*
X0169094Y0291893I0000000J0000984D01*
G01*
X0169094Y0293960D01*
G75*
G02*
X0170079Y0294944I0000984J0000000D01*
G01*
X0173622Y0294944D01*
G75*
G02*
X0174606Y0293960I0000000J-000984D01*
G01*
X0174606Y0291893D01*
G75*
G02*
X0173622Y0290909I-000984J0000000D01*
G01*
G37*
G36*
G01*
X0173622Y0298094D02*
X0170079Y0298094D01*
G75*
G02*
X0169094Y0299078I0000000J0000984D01*
G01*
X0169094Y0301145D01*
G75*
G02*
X0170079Y0302129I0000984J0000000D01*
G01*
X0173622Y0302129D01*
G75*
G02*
X0174606Y0301145I0000000J-000984D01*
G01*
X0174606Y0299078D01*
G75*
G02*
X0173622Y0298094I-000984J0000000D01*
G01*
G37*
G36*
G01*
X0202520Y0264193D02*
X0201063Y0264193D01*
G75*
G02*
X0200531Y0264725I0000000J0000531D01*
G01*
X0200531Y0265788D01*
G75*
G02*
X0201063Y0266319I0000531J0000000D01*
G01*
X0202520Y0266319D01*
G75*
G02*
X0203051Y0265788I0000000J-000531D01*
G01*
X0203051Y0264725D01*
G75*
G02*
X0202520Y0264193I-000531J0000000D01*
G01*
G37*
G36*
G01*
X0202520Y0268209D02*
X0201063Y0268209D01*
G75*
G02*
X0200531Y0268740I0000000J0000531D01*
G01*
X0200531Y0269803D01*
G75*
G02*
X0201063Y0270335I0000531J0000000D01*
G01*
X0202520Y0270335D01*
G75*
G02*
X0203051Y0269803I0000000J-000531D01*
G01*
X0203051Y0268740D01*
G75*
G02*
X0202520Y0268209I-000531J0000000D01*
G01*
G37*
G36*
G01*
X0169016Y0254508D02*
X0170472Y0254508D01*
G75*
G02*
X0171004Y0253977I0000000J-000531D01*
G01*
X0171004Y0252914D01*
G75*
G02*
X0170472Y0252382I-000531J0000000D01*
G01*
X0169016Y0252382D01*
G75*
G02*
X0168484Y0252914I0000000J0000531D01*
G01*
X0168484Y0253977D01*
G75*
G02*
X0169016Y0254508I0000531J0000000D01*
G01*
G37*
G36*
G01*
X0169016Y0250492D02*
X0170472Y0250492D01*
G75*
G02*
X0171004Y0249961I0000000J-000531D01*
G01*
X0171004Y0248898D01*
G75*
G02*
X0170472Y0248366I-000531J0000000D01*
G01*
X0169016Y0248366D01*
G75*
G02*
X0168484Y0248898I0000000J0000531D01*
G01*
X0168484Y0249961D01*
G75*
G02*
X0169016Y0250492I0000531J0000000D01*
G01*
G37*
G36*
G01*
X0180965Y0254055D02*
X0182421Y0254055D01*
G75*
G02*
X0182953Y0253524I0000000J-000531D01*
G01*
X0182953Y0252461D01*
G75*
G02*
X0182421Y0251929I-000531J0000000D01*
G01*
X0180965Y0251929D01*
G75*
G02*
X0180433Y0252461I0000000J0000531D01*
G01*
X0180433Y0253524D01*
G75*
G02*
X0180965Y0254055I0000531J0000000D01*
G01*
G37*
G36*
G01*
X0180965Y0250040D02*
X0182421Y0250040D01*
G75*
G02*
X0182953Y0249508I0000000J-000531D01*
G01*
X0182953Y0248445D01*
G75*
G02*
X0182421Y0247914I-000531J0000000D01*
G01*
X0180965Y0247914D01*
G75*
G02*
X0180433Y0248445I0000000J0000531D01*
G01*
X0180433Y0249508D01*
G75*
G02*
X0180965Y0250040I0000531J0000000D01*
G01*
G37*
G36*
G01*
X0195118Y0255591D02*
X0193661Y0255591D01*
G75*
G02*
X0193130Y0256122I0000000J0000531D01*
G01*
X0193130Y0257185D01*
G75*
G02*
X0193661Y0257717I0000531J0000000D01*
G01*
X0195118Y0257717D01*
G75*
G02*
X0195650Y0257185I0000000J-000531D01*
G01*
X0195650Y0256122D01*
G75*
G02*
X0195118Y0255591I-000531J0000000D01*
G01*
G37*
G36*
G01*
X0195118Y0259607D02*
X0193661Y0259607D01*
G75*
G02*
X0193130Y0260138I0000000J0000531D01*
G01*
X0193130Y0261201D01*
G75*
G02*
X0193661Y0261733I0000531J0000000D01*
G01*
X0195118Y0261733D01*
G75*
G02*
X0195650Y0261201I0000000J-000531D01*
G01*
X0195650Y0260138D01*
G75*
G02*
X0195118Y0259607I-000531J0000000D01*
G01*
G37*
G36*
G01*
X0186201Y0247894D02*
X0184862Y0247894D01*
G75*
G02*
X0184311Y0248445I0000000J0000551D01*
G01*
X0184311Y0249548D01*
G75*
G02*
X0184862Y0250099I0000551J0000000D01*
G01*
X0186201Y0250099D01*
G75*
G02*
X0186752Y0249548I0000000J-000551D01*
G01*
X0186752Y0248445D01*
G75*
G02*
X0186201Y0247894I-000551J0000000D01*
G01*
G37*
G36*
G01*
X0186201Y0251674D02*
X0184862Y0251674D01*
G75*
G02*
X0184311Y0252225I0000000J0000551D01*
G01*
X0184311Y0253327D01*
G75*
G02*
X0184862Y0253878I0000551J0000000D01*
G01*
X0186201Y0253878D01*
G75*
G02*
X0186752Y0253327I0000000J-000551D01*
G01*
X0186752Y0252225D01*
G75*
G02*
X0186201Y0251674I-000551J0000000D01*
G01*
G37*
G36*
G01*
X0175986Y0287042D02*
X0175986Y0288380D01*
G75*
G02*
X0176537Y0288932I0000551J0000000D01*
G01*
X0177639Y0288932D01*
G75*
G02*
X0178191Y0288380I0000000J-000551D01*
G01*
X0178191Y0287042D01*
G75*
G02*
X0177639Y0286491I-000551J0000000D01*
G01*
X0176537Y0286491D01*
G75*
G02*
X0175986Y0287042I0000000J0000551D01*
G01*
G37*
G36*
G01*
X0179765Y0287042D02*
X0179765Y0288380D01*
G75*
G02*
X0180316Y0288932I0000551J0000000D01*
G01*
X0181419Y0288932D01*
G75*
G02*
X0181970Y0288380I0000000J-000551D01*
G01*
X0181970Y0287042D01*
G75*
G02*
X0181419Y0286491I-000551J0000000D01*
G01*
X0180316Y0286491D01*
G75*
G02*
X0179765Y0287042I0000000J0000551D01*
G01*
G37*
G36*
G01*
X0189921Y0254548D02*
X0191378Y0254548D01*
G75*
G02*
X0191909Y0254016I0000000J-000531D01*
G01*
X0191909Y0252953D01*
G75*
G02*
X0191378Y0252422I-000531J0000000D01*
G01*
X0189921Y0252422D01*
G75*
G02*
X0189390Y0252953I0000000J0000531D01*
G01*
X0189390Y0254016D01*
G75*
G02*
X0189921Y0254548I0000531J0000000D01*
G01*
G37*
G36*
G01*
X0189921Y0250532D02*
X0191378Y0250532D01*
G75*
G02*
X0191909Y0250000I0000000J-000531D01*
G01*
X0191909Y0248937D01*
G75*
G02*
X0191378Y0248406I-000531J0000000D01*
G01*
X0189921Y0248406D01*
G75*
G02*
X0189390Y0248937I0000000J0000531D01*
G01*
X0189390Y0250000D01*
G75*
G02*
X0189921Y0250532I0000531J0000000D01*
G01*
G37*
G36*
G01*
X0201280Y0271949D02*
X0200098Y0271949D01*
G75*
G02*
X0199508Y0272540I0000000J0000591D01*
G01*
X0199508Y0276575D01*
G75*
G02*
X0200098Y0277166I0000591J0000000D01*
G01*
X0201280Y0277166D01*
G75*
G02*
X0201870Y0276575I0000000J-000591D01*
G01*
X0201870Y0272540D01*
G75*
G02*
X0201280Y0271949I-000591J0000000D01*
G01*
G37*
G36*
G01*
X0197539Y0271949D02*
X0196358Y0271949D01*
G75*
G02*
X0195768Y0272540I0000000J0000591D01*
G01*
X0195768Y0276575D01*
G75*
G02*
X0196358Y0277166I0000591J0000000D01*
G01*
X0197539Y0277166D01*
G75*
G02*
X0198130Y0276575I0000000J-000591D01*
G01*
X0198130Y0272540D01*
G75*
G02*
X0197539Y0271949I-000591J0000000D01*
G01*
G37*
G36*
G01*
X0193799Y0271949D02*
X0192618Y0271949D01*
G75*
G02*
X0192028Y0272540I0000000J0000591D01*
G01*
X0192028Y0276575D01*
G75*
G02*
X0192618Y0277166I0000591J0000000D01*
G01*
X0193799Y0277166D01*
G75*
G02*
X0194390Y0276575I0000000J-000591D01*
G01*
X0194390Y0272540D01*
G75*
G02*
X0193799Y0271949I-000591J0000000D01*
G01*
G37*
G36*
G01*
X0193799Y0280906D02*
X0192618Y0280906D01*
G75*
G02*
X0192028Y0281496I0000000J0000591D01*
G01*
X0192028Y0285532D01*
G75*
G02*
X0192618Y0286122I0000591J0000000D01*
G01*
X0193799Y0286122D01*
G75*
G02*
X0194390Y0285532I0000000J-000591D01*
G01*
X0194390Y0281496D01*
G75*
G02*
X0193799Y0280906I-000591J0000000D01*
G01*
G37*
G36*
G01*
X0201280Y0280906D02*
X0200098Y0280906D01*
G75*
G02*
X0199508Y0281496I0000000J0000591D01*
G01*
X0199508Y0285532D01*
G75*
G02*
X0200098Y0286122I0000591J0000000D01*
G01*
X0201280Y0286122D01*
G75*
G02*
X0201870Y0285532I0000000J-000591D01*
G01*
X0201870Y0281496D01*
G75*
G02*
X0201280Y0280906I-000591J0000000D01*
G01*
G37*
G36*
G01*
X0197461Y0270256D02*
X0198799Y0270256D01*
G75*
G02*
X0199350Y0269705I0000000J-000551D01*
G01*
X0199350Y0268603D01*
G75*
G02*
X0198799Y0268051I-000551J0000000D01*
G01*
X0197461Y0268051D01*
G75*
G02*
X0196909Y0268603I0000000J0000551D01*
G01*
X0196909Y0269705D01*
G75*
G02*
X0197461Y0270256I0000551J0000000D01*
G01*
G37*
G36*
G01*
X0197461Y0266477D02*
X0198799Y0266477D01*
G75*
G02*
X0199350Y0265926I0000000J-000551D01*
G01*
X0199350Y0264823D01*
G75*
G02*
X0198799Y0264272I-000551J0000000D01*
G01*
X0197461Y0264272D01*
G75*
G02*
X0196909Y0264823I0000000J0000551D01*
G01*
X0196909Y0265926D01*
G75*
G02*
X0197461Y0266477I0000551J0000000D01*
G01*
G37*
X0122933Y0305020D02*
%LPD*%
G01*
D30*
X0150098Y0246752D03*
X0145374Y0246752D03*
X0154823Y0246752D03*
X0159547Y0246752D03*
X0134114Y0303544D03*
X0130177Y0303544D03*
X0391437Y0155906D02*
%LPD*%
G01*
D158*
X0379823Y0247087D03*
X0368012Y0239213D03*
X0379823Y0231339D03*
D173*
X0380610Y0160079D03*
X0384610Y0180079D03*
X0376610Y0180079D03*
D311*
X0341732Y0249567D03*
D312*
X0341732Y0239567D03*
X0341732Y0229567D03*
G36*
G01*
X0384078Y0235611D02*
X0382720Y0235611D01*
G75*
G02*
X0382139Y0236191I0000000J0000581D01*
G01*
X0382139Y0237353D01*
G75*
G02*
X0382720Y0237934I0000581J0000000D01*
G01*
X0384078Y0237934D01*
G75*
G02*
X0384659Y0237353I0000000J-000581D01*
G01*
X0384659Y0236191D01*
G75*
G02*
X0384078Y0235611I-000581J0000000D01*
G01*
G37*
G36*
G01*
X0384078Y0239430D02*
X0382720Y0239430D01*
G75*
G02*
X0382139Y0240010I0000000J0000581D01*
G01*
X0382139Y0241172D01*
G75*
G02*
X0382720Y0241752I0000581J0000000D01*
G01*
X0384078Y0241752D01*
G75*
G02*
X0384659Y0241172I0000000J-000581D01*
G01*
X0384659Y0240010D01*
G75*
G02*
X0384078Y0239430I-000581J0000000D01*
G01*
G37*
G36*
G01*
X0368789Y0250079D02*
X0367431Y0250079D01*
G75*
G02*
X0366850Y0250660I0000000J0000581D01*
G01*
X0366850Y0251821D01*
G75*
G02*
X0367431Y0252402I0000581J0000000D01*
G01*
X0368789Y0252402D01*
G75*
G02*
X0369370Y0251821I0000000J-000581D01*
G01*
X0369370Y0250660D01*
G75*
G02*
X0368789Y0250079I-000581J0000000D01*
G01*
G37*
G36*
G01*
X0368789Y0253898D02*
X0367431Y0253898D01*
G75*
G02*
X0366850Y0254479I0000000J0000581D01*
G01*
X0366850Y0255640D01*
G75*
G02*
X0367431Y0256221I0000581J0000000D01*
G01*
X0368789Y0256221D01*
G75*
G02*
X0369370Y0255640I0000000J-000581D01*
G01*
X0369370Y0254479D01*
G75*
G02*
X0368789Y0253898I-000581J0000000D01*
G01*
G37*
G36*
G01*
X0342593Y0200197D02*
X0344611Y0200197D01*
G75*
G02*
X0345472Y0199336I0000000J-000861D01*
G01*
X0345472Y0197614D01*
G75*
G02*
X0344611Y0196752I-000861J0000000D01*
G01*
X0342593Y0196752D01*
G75*
G02*
X0341732Y0197614I0000000J0000861D01*
G01*
X0341732Y0199336D01*
G75*
G02*
X0342593Y0200197I0000861J0000000D01*
G01*
G37*
G36*
G01*
X0342593Y0193997D02*
X0344611Y0193997D01*
G75*
G02*
X0345472Y0193135I0000000J-000861D01*
G01*
X0345472Y0191413D01*
G75*
G02*
X0344611Y0190552I-000861J0000000D01*
G01*
X0342593Y0190552D01*
G75*
G02*
X0341732Y0191413I0000000J0000861D01*
G01*
X0341732Y0193135D01*
G75*
G02*
X0342593Y0193997I0000861J0000000D01*
G01*
G37*
G36*
G01*
X0386919Y0241752D02*
X0388278Y0241752D01*
G75*
G02*
X0388858Y0241172I0000000J-000581D01*
G01*
X0388858Y0240010D01*
G75*
G02*
X0388278Y0239430I-000581J0000000D01*
G01*
X0386919Y0239430D01*
G75*
G02*
X0386339Y0240010I0000000J0000581D01*
G01*
X0386339Y0241172D01*
G75*
G02*
X0386919Y0241752I0000581J0000000D01*
G01*
G37*
G36*
G01*
X0386919Y0237934D02*
X0388278Y0237934D01*
G75*
G02*
X0388858Y0237353I0000000J-000581D01*
G01*
X0388858Y0236191D01*
G75*
G02*
X0388278Y0235611I-000581J0000000D01*
G01*
X0386919Y0235611D01*
G75*
G02*
X0386339Y0236191I0000000J0000581D01*
G01*
X0386339Y0237353D01*
G75*
G02*
X0386919Y0237934I0000581J0000000D01*
G01*
G37*
G36*
G01*
X0347923Y0182051D02*
X0346565Y0182051D01*
G75*
G02*
X0345984Y0182631I0000000J0000581D01*
G01*
X0345984Y0183793D01*
G75*
G02*
X0346565Y0184373I0000581J0000000D01*
G01*
X0347923Y0184373D01*
G75*
G02*
X0348504Y0183793I0000000J-000581D01*
G01*
X0348504Y0182631D01*
G75*
G02*
X0347923Y0182051I-000581J0000000D01*
G01*
G37*
G36*
G01*
X0347923Y0185869D02*
X0346565Y0185869D01*
G75*
G02*
X0345984Y0186450I0000000J0000581D01*
G01*
X0345984Y0187612D01*
G75*
G02*
X0346565Y0188192I0000581J0000000D01*
G01*
X0347923Y0188192D01*
G75*
G02*
X0348504Y0187612I0000000J-000581D01*
G01*
X0348504Y0186450D01*
G75*
G02*
X0347923Y0185869I-000581J0000000D01*
G01*
G37*
G36*
G01*
X0349793Y0190138D02*
X0348435Y0190138D01*
G75*
G02*
X0347854Y0190719I0000000J0000581D01*
G01*
X0347854Y0191880D01*
G75*
G02*
X0348435Y0192461I0000581J0000000D01*
G01*
X0349793Y0192461D01*
G75*
G02*
X0350374Y0191880I0000000J-000581D01*
G01*
X0350374Y0190719D01*
G75*
G02*
X0349793Y0190138I-000581J0000000D01*
G01*
G37*
G36*
G01*
X0349793Y0193957D02*
X0348435Y0193957D01*
G75*
G02*
X0347854Y0194538I0000000J0000581D01*
G01*
X0347854Y0195699D01*
G75*
G02*
X0348435Y0196280I0000581J0000000D01*
G01*
X0349793Y0196280D01*
G75*
G02*
X0350374Y0195699I0000000J-000581D01*
G01*
X0350374Y0194538D01*
G75*
G02*
X0349793Y0193957I-000581J0000000D01*
G01*
G37*
G36*
G01*
X0342461Y0161526D02*
X0342461Y0162884D01*
G75*
G02*
X0343041Y0163465I0000581J0000000D01*
G01*
X0344203Y0163465D01*
G75*
G02*
X0344783Y0162884I0000000J-000581D01*
G01*
X0344783Y0161526D01*
G75*
G02*
X0344203Y0160945I-000581J0000000D01*
G01*
X0343041Y0160945D01*
G75*
G02*
X0342461Y0161526I0000000J0000581D01*
G01*
G37*
G36*
G01*
X0346280Y0161526D02*
X0346280Y0162884D01*
G75*
G02*
X0346860Y0163465I0000581J0000000D01*
G01*
X0348022Y0163465D01*
G75*
G02*
X0348602Y0162884I0000000J-000581D01*
G01*
X0348602Y0161526D01*
G75*
G02*
X0348022Y0160945I-000581J0000000D01*
G01*
X0346860Y0160945D01*
G75*
G02*
X0346280Y0161526I0000000J0000581D01*
G01*
G37*
G36*
G01*
X0360049Y0211044D02*
X0361407Y0211044D01*
G75*
G02*
X0361988Y0210463I0000000J-000581D01*
G01*
X0361988Y0209302D01*
G75*
G02*
X0361407Y0208721I-000581J0000000D01*
G01*
X0360049Y0208721D01*
G75*
G02*
X0359468Y0209302I0000000J0000581D01*
G01*
X0359468Y0210463D01*
G75*
G02*
X0360049Y0211044I0000581J0000000D01*
G01*
G37*
G36*
G01*
X0360049Y0207225D02*
X0361407Y0207225D01*
G75*
G02*
X0361988Y0206644I0000000J-000581D01*
G01*
X0361988Y0205483D01*
G75*
G02*
X0361407Y0204902I-000581J0000000D01*
G01*
X0360049Y0204902D01*
G75*
G02*
X0359468Y0205483I0000000J0000581D01*
G01*
X0359468Y0206644D01*
G75*
G02*
X0360049Y0207225I0000581J0000000D01*
G01*
G37*
G36*
G01*
X0365344Y0204902D02*
X0363986Y0204902D01*
G75*
G02*
X0363406Y0205483I0000000J0000581D01*
G01*
X0363406Y0206644D01*
G75*
G02*
X0363986Y0207225I0000581J0000000D01*
G01*
X0365344Y0207225D01*
G75*
G02*
X0365925Y0206644I0000000J-000581D01*
G01*
X0365925Y0205483D01*
G75*
G02*
X0365344Y0204902I-000581J0000000D01*
G01*
G37*
G36*
G01*
X0365344Y0208721D02*
X0363986Y0208721D01*
G75*
G02*
X0363406Y0209302I0000000J0000581D01*
G01*
X0363406Y0210463D01*
G75*
G02*
X0363986Y0211044I0000581J0000000D01*
G01*
X0365344Y0211044D01*
G75*
G02*
X0365925Y0210463I0000000J-000581D01*
G01*
X0365925Y0209302D01*
G75*
G02*
X0365344Y0208721I-000581J0000000D01*
G01*
G37*
G36*
G01*
X0362904Y0252382D02*
X0364262Y0252382D01*
G75*
G02*
X0364843Y0251802I0000000J-000581D01*
G01*
X0364843Y0250640D01*
G75*
G02*
X0364262Y0250060I-000581J0000000D01*
G01*
X0362904Y0250060D01*
G75*
G02*
X0362323Y0250640I0000000J0000581D01*
G01*
X0362323Y0251802D01*
G75*
G02*
X0362904Y0252382I0000581J0000000D01*
G01*
G37*
G36*
G01*
X0362904Y0248563D02*
X0364262Y0248563D01*
G75*
G02*
X0364843Y0247983I0000000J-000581D01*
G01*
X0364843Y0246821D01*
G75*
G02*
X0364262Y0246241I-000581J0000000D01*
G01*
X0362904Y0246241D01*
G75*
G02*
X0362323Y0246821I0000000J0000581D01*
G01*
X0362323Y0247983D01*
G75*
G02*
X0362904Y0248563I0000581J0000000D01*
G01*
G37*
D314*
X0386319Y0198032D03*
X0383760Y0198032D03*
X0381201Y0198032D03*
X0378642Y0198032D03*
X0376083Y0198032D03*
X0373524Y0198032D03*
X0370965Y0198032D03*
X0370965Y0221260D03*
X0373524Y0221260D03*
X0376083Y0221260D03*
X0378642Y0221260D03*
X0381201Y0221260D03*
X0383760Y0221260D03*
X0386319Y0221260D03*
G36*
G01*
X0342825Y0188209D02*
X0344183Y0188209D01*
G75*
G02*
X0344764Y0187628I0000000J-000581D01*
G01*
X0344764Y0186467D01*
G75*
G02*
X0344183Y0185886I-000581J0000000D01*
G01*
X0342825Y0185886D01*
G75*
G02*
X0342244Y0186467I0000000J0000581D01*
G01*
X0342244Y0187628D01*
G75*
G02*
X0342825Y0188209I0000581J0000000D01*
G01*
G37*
G36*
G01*
X0342825Y0184390D02*
X0344183Y0184390D01*
G75*
G02*
X0344764Y0183810I0000000J-000581D01*
G01*
X0344764Y0182648D01*
G75*
G02*
X0344183Y0182067I-000581J0000000D01*
G01*
X0342825Y0182067D01*
G75*
G02*
X0342244Y0182648I0000000J0000581D01*
G01*
X0342244Y0183810D01*
G75*
G02*
X0342825Y0184390I0000581J0000000D01*
G01*
G37*
G36*
G01*
X0340443Y0182067D02*
X0339085Y0182067D01*
G75*
G02*
X0338504Y0182648I0000000J0000581D01*
G01*
X0338504Y0183810D01*
G75*
G02*
X0339085Y0184390I0000581J0000000D01*
G01*
X0340443Y0184390D01*
G75*
G02*
X0341024Y0183810I0000000J-000581D01*
G01*
X0341024Y0182648D01*
G75*
G02*
X0340443Y0182067I-000581J0000000D01*
G01*
G37*
G36*
G01*
X0340443Y0185886D02*
X0339085Y0185886D01*
G75*
G02*
X0338504Y0186467I0000000J0000581D01*
G01*
X0338504Y0187628D01*
G75*
G02*
X0339085Y0188209I0000581J0000000D01*
G01*
X0340443Y0188209D01*
G75*
G02*
X0341024Y0187628I0000000J-000581D01*
G01*
X0341024Y0186467D01*
G75*
G02*
X0340443Y0185886I-000581J0000000D01*
G01*
G37*
G36*
G01*
X0349892Y0242304D02*
X0348533Y0242304D01*
G75*
G02*
X0347953Y0242884I0000000J0000581D01*
G01*
X0347953Y0244046D01*
G75*
G02*
X0348533Y0244626I0000581J0000000D01*
G01*
X0349892Y0244626D01*
G75*
G02*
X0350472Y0244046I0000000J-000581D01*
G01*
X0350472Y0242884D01*
G75*
G02*
X0349892Y0242304I-000581J0000000D01*
G01*
G37*
G36*
G01*
X0349892Y0246123D02*
X0348533Y0246123D01*
G75*
G02*
X0347953Y0246703I0000000J0000581D01*
G01*
X0347953Y0247865D01*
G75*
G02*
X0348533Y0248445I0000581J0000000D01*
G01*
X0349892Y0248445D01*
G75*
G02*
X0350472Y0247865I0000000J-000581D01*
G01*
X0350472Y0246703D01*
G75*
G02*
X0349892Y0246123I-000581J0000000D01*
G01*
G37*
G36*
G01*
X0379190Y0235611D02*
X0377831Y0235611D01*
G75*
G02*
X0377251Y0236191I0000000J0000581D01*
G01*
X0377251Y0237353D01*
G75*
G02*
X0377831Y0237934I0000581J0000000D01*
G01*
X0379190Y0237934D01*
G75*
G02*
X0379770Y0237353I0000000J-000581D01*
G01*
X0379770Y0236191D01*
G75*
G02*
X0379190Y0235611I-000581J0000000D01*
G01*
G37*
G36*
G01*
X0379190Y0239430D02*
X0377831Y0239430D01*
G75*
G02*
X0377251Y0240010I0000000J0000581D01*
G01*
X0377251Y0241172D01*
G75*
G02*
X0377831Y0241752I0000581J0000000D01*
G01*
X0379190Y0241752D01*
G75*
G02*
X0379770Y0241172I0000000J-000581D01*
G01*
X0379770Y0240010D01*
G75*
G02*
X0379190Y0239430I-000581J0000000D01*
G01*
G37*
G36*
G01*
X0356112Y0207796D02*
X0357470Y0207796D01*
G75*
G02*
X0358051Y0207215I0000000J-000581D01*
G01*
X0358051Y0206054D01*
G75*
G02*
X0357470Y0205473I-000581J0000000D01*
G01*
X0356112Y0205473D01*
G75*
G02*
X0355531Y0206054I0000000J0000581D01*
G01*
X0355531Y0207215D01*
G75*
G02*
X0356112Y0207796I0000581J0000000D01*
G01*
G37*
G36*
G01*
X0356112Y0203977D02*
X0357470Y0203977D01*
G75*
G02*
X0358051Y0203396I0000000J-000581D01*
G01*
X0358051Y0202235D01*
G75*
G02*
X0357470Y0201654I-000581J0000000D01*
G01*
X0356112Y0201654D01*
G75*
G02*
X0355531Y0202235I0000000J0000581D01*
G01*
X0355531Y0203396D01*
G75*
G02*
X0356112Y0203977I0000581J0000000D01*
G01*
G37*
G36*
G01*
X0348533Y0256123D02*
X0349892Y0256123D01*
G75*
G02*
X0350472Y0255542I0000000J-000581D01*
G01*
X0350472Y0254380D01*
G75*
G02*
X0349892Y0253800I-000581J0000000D01*
G01*
X0348533Y0253800D01*
G75*
G02*
X0347953Y0254380I0000000J0000581D01*
G01*
X0347953Y0255542D01*
G75*
G02*
X0348533Y0256123I0000581J0000000D01*
G01*
G37*
G36*
G01*
X0348533Y0252304D02*
X0349892Y0252304D01*
G75*
G02*
X0350472Y0251723I0000000J-000581D01*
G01*
X0350472Y0250562D01*
G75*
G02*
X0349892Y0249981I-000581J0000000D01*
G01*
X0348533Y0249981D01*
G75*
G02*
X0347953Y0250562I0000000J0000581D01*
G01*
X0347953Y0251723D01*
G75*
G02*
X0348533Y0252304I0000581J0000000D01*
G01*
G37*
G36*
G01*
X0363986Y0203662D02*
X0365344Y0203662D01*
G75*
G02*
X0365925Y0203081I0000000J-000581D01*
G01*
X0365925Y0201920D01*
G75*
G02*
X0365344Y0201339I-000581J0000000D01*
G01*
X0363986Y0201339D01*
G75*
G02*
X0363406Y0201920I0000000J0000581D01*
G01*
X0363406Y0203081D01*
G75*
G02*
X0363986Y0203662I0000581J0000000D01*
G01*
G37*
G36*
G01*
X0363986Y0199843D02*
X0365344Y0199843D01*
G75*
G02*
X0365925Y0199262I0000000J-000581D01*
G01*
X0365925Y0198101D01*
G75*
G02*
X0365344Y0197520I-000581J0000000D01*
G01*
X0363986Y0197520D01*
G75*
G02*
X0363406Y0198101I0000000J0000581D01*
G01*
X0363406Y0199262D01*
G75*
G02*
X0363986Y0199843I0000581J0000000D01*
G01*
G37*
G36*
G01*
X0388602Y0192412D02*
X0388602Y0191054D01*
G75*
G02*
X0388022Y0190473I-000581J0000000D01*
G01*
X0386860Y0190473D01*
G75*
G02*
X0386280Y0191054I0000000J0000581D01*
G01*
X0386280Y0192412D01*
G75*
G02*
X0386860Y0192993I0000581J0000000D01*
G01*
X0388022Y0192993D01*
G75*
G02*
X0388602Y0192412I0000000J-000581D01*
G01*
G37*
G36*
G01*
X0384783Y0192412D02*
X0384783Y0191054D01*
G75*
G02*
X0384203Y0190473I-000581J0000000D01*
G01*
X0383041Y0190473D01*
G75*
G02*
X0382461Y0191054I0000000J0000581D01*
G01*
X0382461Y0192412D01*
G75*
G02*
X0383041Y0192993I0000581J0000000D01*
G01*
X0384203Y0192993D01*
G75*
G02*
X0384783Y0192412I0000000J-000581D01*
G01*
G37*
G36*
G01*
X0360049Y0218524D02*
X0361407Y0218524D01*
G75*
G02*
X0361988Y0217943I0000000J-000581D01*
G01*
X0361988Y0216782D01*
G75*
G02*
X0361407Y0216201I-000581J0000000D01*
G01*
X0360049Y0216201D01*
G75*
G02*
X0359468Y0216782I0000000J0000581D01*
G01*
X0359468Y0217943D01*
G75*
G02*
X0360049Y0218524I0000581J0000000D01*
G01*
G37*
G36*
G01*
X0360049Y0214705D02*
X0361407Y0214705D01*
G75*
G02*
X0361988Y0214125I0000000J-000581D01*
G01*
X0361988Y0212963D01*
G75*
G02*
X0361407Y0212382I-000581J0000000D01*
G01*
X0360049Y0212382D01*
G75*
G02*
X0359468Y0212963I0000000J0000581D01*
G01*
X0359468Y0214125D01*
G75*
G02*
X0360049Y0214705I0000581J0000000D01*
G01*
G37*
G36*
G01*
X0361407Y0219863D02*
X0360049Y0219863D01*
G75*
G02*
X0359468Y0220443I0000000J0000581D01*
G01*
X0359468Y0221605D01*
G75*
G02*
X0360049Y0222186I0000581J0000000D01*
G01*
X0361407Y0222186D01*
G75*
G02*
X0361988Y0221605I0000000J-000581D01*
G01*
X0361988Y0220443D01*
G75*
G02*
X0361407Y0219863I-000581J0000000D01*
G01*
G37*
G36*
G01*
X0361407Y0223682D02*
X0360049Y0223682D01*
G75*
G02*
X0359468Y0224262I0000000J0000581D01*
G01*
X0359468Y0225424D01*
G75*
G02*
X0360049Y0226004I0000581J0000000D01*
G01*
X0361407Y0226004D01*
G75*
G02*
X0361988Y0225424I0000000J-000581D01*
G01*
X0361988Y0224262D01*
G75*
G02*
X0361407Y0223682I-000581J0000000D01*
G01*
G37*
G36*
G01*
X0388602Y0188672D02*
X0388602Y0187313D01*
G75*
G02*
X0388022Y0186733I-000581J0000000D01*
G01*
X0386860Y0186733D01*
G75*
G02*
X0386280Y0187313I0000000J0000581D01*
G01*
X0386280Y0188672D01*
G75*
G02*
X0386860Y0189252I0000581J0000000D01*
G01*
X0388022Y0189252D01*
G75*
G02*
X0388602Y0188672I0000000J-000581D01*
G01*
G37*
G36*
G01*
X0384783Y0188672D02*
X0384783Y0187313D01*
G75*
G02*
X0384203Y0186733I-000581J0000000D01*
G01*
X0383041Y0186733D01*
G75*
G02*
X0382461Y0187313I0000000J0000581D01*
G01*
X0382461Y0188672D01*
G75*
G02*
X0383041Y0189252I0000581J0000000D01*
G01*
X0384203Y0189252D01*
G75*
G02*
X0384783Y0188672I0000000J-000581D01*
G01*
G37*
D315*
X0339764Y0177993D03*
X0343504Y0177993D03*
X0347244Y0177993D03*
X0347244Y0167678D03*
X0339764Y0167678D03*
G36*
G01*
X0357470Y0212481D02*
X0356112Y0212481D01*
G75*
G02*
X0355531Y0213062I0000000J0000581D01*
G01*
X0355531Y0214223D01*
G75*
G02*
X0356112Y0214804I0000581J0000000D01*
G01*
X0357470Y0214804D01*
G75*
G02*
X0358051Y0214223I0000000J-000581D01*
G01*
X0358051Y0213062D01*
G75*
G02*
X0357470Y0212481I-000581J0000000D01*
G01*
G37*
G36*
G01*
X0357470Y0216300D02*
X0356112Y0216300D01*
G75*
G02*
X0355531Y0216880I0000000J0000581D01*
G01*
X0355531Y0218042D01*
G75*
G02*
X0356112Y0218623I0000581J0000000D01*
G01*
X0357470Y0218623D01*
G75*
G02*
X0358051Y0218042I0000000J-000581D01*
G01*
X0358051Y0216880D01*
G75*
G02*
X0357470Y0216300I-000581J0000000D01*
G01*
G37*
G36*
G01*
X0353366Y0199892D02*
X0353366Y0198534D01*
G75*
G02*
X0352785Y0197953I-000581J0000000D01*
G01*
X0351624Y0197953D01*
G75*
G02*
X0351043Y0198534I0000000J0000581D01*
G01*
X0351043Y0199892D01*
G75*
G02*
X0351624Y0200473I0000581J0000000D01*
G01*
X0352785Y0200473D01*
G75*
G02*
X0353366Y0199892I0000000J-000581D01*
G01*
G37*
G36*
G01*
X0349547Y0199892D02*
X0349547Y0198534D01*
G75*
G02*
X0348967Y0197953I-000581J0000000D01*
G01*
X0347805Y0197953D01*
G75*
G02*
X0347224Y0198534I0000000J0000581D01*
G01*
X0347224Y0199892D01*
G75*
G02*
X0347805Y0200473I0000581J0000000D01*
G01*
X0348967Y0200473D01*
G75*
G02*
X0349547Y0199892I0000000J-000581D01*
G01*
G37*
G36*
G01*
X0373799Y0191054D02*
X0373799Y0192412D01*
G75*
G02*
X0374380Y0192993I0000581J0000000D01*
G01*
X0375541Y0192993D01*
G75*
G02*
X0376122Y0192412I0000000J-000581D01*
G01*
X0376122Y0191054D01*
G75*
G02*
X0375541Y0190473I-000581J0000000D01*
G01*
X0374380Y0190473D01*
G75*
G02*
X0373799Y0191054I0000000J0000581D01*
G01*
G37*
G36*
G01*
X0377618Y0191054D02*
X0377618Y0192412D01*
G75*
G02*
X0378199Y0192993I0000581J0000000D01*
G01*
X0379360Y0192993D01*
G75*
G02*
X0379941Y0192412I0000000J-000581D01*
G01*
X0379941Y0191054D01*
G75*
G02*
X0379360Y0190473I-000581J0000000D01*
G01*
X0378199Y0190473D01*
G75*
G02*
X0377618Y0191054I0000000J0000581D01*
G01*
G37*
G36*
G01*
X0372844Y0234174D02*
X0374203Y0234174D01*
G75*
G02*
X0374783Y0233593I0000000J-000581D01*
G01*
X0374783Y0232432D01*
G75*
G02*
X0374203Y0231851I-000581J0000000D01*
G01*
X0372844Y0231851D01*
G75*
G02*
X0372264Y0232432I0000000J0000581D01*
G01*
X0372264Y0233593D01*
G75*
G02*
X0372844Y0234174I0000581J0000000D01*
G01*
G37*
G36*
G01*
X0372844Y0230355D02*
X0374203Y0230355D01*
G75*
G02*
X0374783Y0229774I0000000J-000581D01*
G01*
X0374783Y0228613D01*
G75*
G02*
X0374203Y0228032I-000581J0000000D01*
G01*
X0372844Y0228032D01*
G75*
G02*
X0372264Y0228613I0000000J0000581D01*
G01*
X0372264Y0229774D01*
G75*
G02*
X0372844Y0230355I0000581J0000000D01*
G01*
G37*
G36*
G01*
X0372844Y0241752D02*
X0374203Y0241752D01*
G75*
G02*
X0374783Y0241172I0000000J-000581D01*
G01*
X0374783Y0240010D01*
G75*
G02*
X0374203Y0239430I-000581J0000000D01*
G01*
X0372844Y0239430D01*
G75*
G02*
X0372264Y0240010I0000000J0000581D01*
G01*
X0372264Y0241172D01*
G75*
G02*
X0372844Y0241752I0000581J0000000D01*
G01*
G37*
G36*
G01*
X0372844Y0237934D02*
X0374203Y0237934D01*
G75*
G02*
X0374783Y0237353I0000000J-000581D01*
G01*
X0374783Y0236191D01*
G75*
G02*
X0374203Y0235611I-000581J0000000D01*
G01*
X0372844Y0235611D01*
G75*
G02*
X0372264Y0236191I0000000J0000581D01*
G01*
X0372264Y0237353D01*
G75*
G02*
X0372844Y0237934I0000581J0000000D01*
G01*
G37*
G36*
G01*
X0373799Y0187313D02*
X0373799Y0188672D01*
G75*
G02*
X0374380Y0189252I0000581J0000000D01*
G01*
X0375541Y0189252D01*
G75*
G02*
X0376122Y0188672I0000000J-000581D01*
G01*
X0376122Y0187313D01*
G75*
G02*
X0375541Y0186733I-000581J0000000D01*
G01*
X0374380Y0186733D01*
G75*
G02*
X0373799Y0187313I0000000J0000581D01*
G01*
G37*
G36*
G01*
X0377618Y0187313D02*
X0377618Y0188672D01*
G75*
G02*
X0378199Y0189252I0000581J0000000D01*
G01*
X0379360Y0189252D01*
G75*
G02*
X0379941Y0188672I0000000J-000581D01*
G01*
X0379941Y0187313D01*
G75*
G02*
X0379360Y0186733I-000581J0000000D01*
G01*
X0378199Y0186733D01*
G75*
G02*
X0377618Y0187313I0000000J0000581D01*
G01*
G37*
G36*
G01*
X0363986Y0221674D02*
X0365344Y0221674D01*
G75*
G02*
X0365925Y0221093I0000000J-000581D01*
G01*
X0365925Y0219932D01*
G75*
G02*
X0365344Y0219351I-000581J0000000D01*
G01*
X0363986Y0219351D01*
G75*
G02*
X0363406Y0219932I0000000J0000581D01*
G01*
X0363406Y0221093D01*
G75*
G02*
X0363986Y0221674I0000581J0000000D01*
G01*
G37*
G36*
G01*
X0363986Y0217855D02*
X0365344Y0217855D01*
G75*
G02*
X0365925Y0217274I0000000J-000581D01*
G01*
X0365925Y0216113D01*
G75*
G02*
X0365344Y0215532I-000581J0000000D01*
G01*
X0363986Y0215532D01*
G75*
G02*
X0363406Y0216113I0000000J0000581D01*
G01*
X0363406Y0217274D01*
G75*
G02*
X0363986Y0217855I0000581J0000000D01*
G01*
G37*
G36*
G01*
X0373799Y0183573D02*
X0373799Y0184932D01*
G75*
G02*
X0374380Y0185512I0000581J0000000D01*
G01*
X0375541Y0185512D01*
G75*
G02*
X0376122Y0184932I0000000J-000581D01*
G01*
X0376122Y0183573D01*
G75*
G02*
X0375541Y0182993I-000581J0000000D01*
G01*
X0374380Y0182993D01*
G75*
G02*
X0373799Y0183573I0000000J0000581D01*
G01*
G37*
G36*
G01*
X0377618Y0183573D02*
X0377618Y0184932D01*
G75*
G02*
X0378199Y0185512I0000581J0000000D01*
G01*
X0379360Y0185512D01*
G75*
G02*
X0379941Y0184932I0000000J-000581D01*
G01*
X0379941Y0183573D01*
G75*
G02*
X0379360Y0182993I-000581J0000000D01*
G01*
X0378199Y0182993D01*
G75*
G02*
X0377618Y0183573I0000000J0000581D01*
G01*
G37*
G36*
G01*
X0382461Y0183573D02*
X0382461Y0184932D01*
G75*
G02*
X0383041Y0185512I0000581J0000000D01*
G01*
X0384203Y0185512D01*
G75*
G02*
X0384783Y0184932I0000000J-000581D01*
G01*
X0384783Y0183573D01*
G75*
G02*
X0384203Y0182993I-000581J0000000D01*
G01*
X0383041Y0182993D01*
G75*
G02*
X0382461Y0183573I0000000J0000581D01*
G01*
G37*
G36*
G01*
X0386280Y0183573D02*
X0386280Y0184932D01*
G75*
G02*
X0386860Y0185512I0000581J0000000D01*
G01*
X0388022Y0185512D01*
G75*
G02*
X0388602Y0184932I0000000J-000581D01*
G01*
X0388602Y0183573D01*
G75*
G02*
X0388022Y0182993I-000581J0000000D01*
G01*
X0386860Y0182993D01*
G75*
G02*
X0386280Y0183573I0000000J0000581D01*
G01*
G37*
G36*
G01*
X0376654Y0168760D02*
X0375315Y0168760D01*
G75*
G02*
X0374764Y0169311I0000000J0000551D01*
G01*
X0374764Y0170414D01*
G75*
G02*
X0375315Y0170965I0000551J0000000D01*
G01*
X0376654Y0170965D01*
G75*
G02*
X0377205Y0170414I0000000J-000551D01*
G01*
X0377205Y0169311D01*
G75*
G02*
X0376654Y0168760I-000551J0000000D01*
G01*
G37*
G36*
G01*
X0376654Y0172540D02*
X0375315Y0172540D01*
G75*
G02*
X0374764Y0173091I0000000J0000551D01*
G01*
X0374764Y0174193D01*
G75*
G02*
X0375315Y0174744I0000551J0000000D01*
G01*
X0376654Y0174744D01*
G75*
G02*
X0377205Y0174193I0000000J-000551D01*
G01*
X0377205Y0173091D01*
G75*
G02*
X0376654Y0172540I-000551J0000000D01*
G01*
G37*
G36*
G01*
X0350394Y0223701D02*
X0351850Y0223701D01*
G75*
G02*
X0352382Y0223170I0000000J-000531D01*
G01*
X0352382Y0222107D01*
G75*
G02*
X0351850Y0221575I-000531J0000000D01*
G01*
X0350394Y0221575D01*
G75*
G02*
X0349862Y0222107I0000000J0000531D01*
G01*
X0349862Y0223170D01*
G75*
G02*
X0350394Y0223701I0000531J0000000D01*
G01*
G37*
G36*
G01*
X0350394Y0219686D02*
X0351850Y0219686D01*
G75*
G02*
X0352382Y0219154I0000000J-000531D01*
G01*
X0352382Y0218091D01*
G75*
G02*
X0351850Y0217560I-000531J0000000D01*
G01*
X0350394Y0217560D01*
G75*
G02*
X0349862Y0218091I0000000J0000531D01*
G01*
X0349862Y0219154D01*
G75*
G02*
X0350394Y0219686I0000531J0000000D01*
G01*
G37*
G36*
G01*
X0364927Y0162973D02*
X0364927Y0161516D01*
G75*
G02*
X0364395Y0160985I-000531J0000000D01*
G01*
X0363332Y0160985D01*
G75*
G02*
X0362801Y0161516I0000000J0000531D01*
G01*
X0362801Y0162973D01*
G75*
G02*
X0363332Y0163504I0000531J0000000D01*
G01*
X0364395Y0163504D01*
G75*
G02*
X0364927Y0162973I0000000J-000531D01*
G01*
G37*
G36*
G01*
X0360911Y0162973D02*
X0360911Y0161516D01*
G75*
G02*
X0360379Y0160985I-000531J0000000D01*
G01*
X0359316Y0160985D01*
G75*
G02*
X0358785Y0161516I0000000J0000531D01*
G01*
X0358785Y0162973D01*
G75*
G02*
X0359316Y0163504I0000531J0000000D01*
G01*
X0360379Y0163504D01*
G75*
G02*
X0360911Y0162973I0000000J-000531D01*
G01*
G37*
G36*
G01*
X0388878Y0163583D02*
X0387697Y0163583D01*
G75*
G02*
X0387106Y0164174I0000000J0000591D01*
G01*
X0387106Y0168800D01*
G75*
G02*
X0387697Y0169390I0000591J0000000D01*
G01*
X0388878Y0169390D01*
G75*
G02*
X0389468Y0168800I0000000J-000591D01*
G01*
X0389468Y0164174D01*
G75*
G02*
X0388878Y0163583I-000591J0000000D01*
G01*
G37*
G36*
G01*
X0381398Y0163583D02*
X0380217Y0163583D01*
G75*
G02*
X0379626Y0164174I0000000J0000591D01*
G01*
X0379626Y0168800D01*
G75*
G02*
X0380217Y0169390I0000591J0000000D01*
G01*
X0381398Y0169390D01*
G75*
G02*
X0381988Y0168800I0000000J-000591D01*
G01*
X0381988Y0164174D01*
G75*
G02*
X0381398Y0163583I-000591J0000000D01*
G01*
G37*
G36*
G01*
X0385138Y0170965D02*
X0383957Y0170965D01*
G75*
G02*
X0383366Y0171556I0000000J0000591D01*
G01*
X0383366Y0176182D01*
G75*
G02*
X0383957Y0176772I0000591J0000000D01*
G01*
X0385138Y0176772D01*
G75*
G02*
X0385728Y0176182I0000000J-000591D01*
G01*
X0385728Y0171556D01*
G75*
G02*
X0385138Y0170965I-000591J0000000D01*
G01*
G37*
G36*
G01*
X0350946Y0161536D02*
X0350946Y0162875D01*
G75*
G02*
X0351498Y0163426I0000551J0000000D01*
G01*
X0352600Y0163426D01*
G75*
G02*
X0353151Y0162875I0000000J-000551D01*
G01*
X0353151Y0161536D01*
G75*
G02*
X0352600Y0160985I-000551J0000000D01*
G01*
X0351498Y0160985D01*
G75*
G02*
X0350946Y0161536I0000000J0000551D01*
G01*
G37*
G36*
G01*
X0354726Y0161536D02*
X0354726Y0162875D01*
G75*
G02*
X0355277Y0163426I0000551J0000000D01*
G01*
X0356379Y0163426D01*
G75*
G02*
X0356931Y0162875I0000000J-000551D01*
G01*
X0356931Y0161536D01*
G75*
G02*
X0356379Y0160985I-000551J0000000D01*
G01*
X0355277Y0160985D01*
G75*
G02*
X0354726Y0161536I0000000J0000551D01*
G01*
G37*
G36*
G01*
X0354017Y0192323D02*
X0355198Y0192323D01*
G75*
G02*
X0355789Y0191733I0000000J-000591D01*
G01*
X0355789Y0186024D01*
G75*
G02*
X0355198Y0185434I-000591J0000000D01*
G01*
X0354017Y0185434D01*
G75*
G02*
X0353427Y0186024I0000000J0000591D01*
G01*
X0353427Y0191733D01*
G75*
G02*
X0354017Y0192323I0000591J0000000D01*
G01*
G37*
G36*
G01*
X0359017Y0192323D02*
X0360198Y0192323D01*
G75*
G02*
X0360789Y0191733I0000000J-000591D01*
G01*
X0360789Y0186024D01*
G75*
G02*
X0360198Y0185434I-000591J0000000D01*
G01*
X0359017Y0185434D01*
G75*
G02*
X0358427Y0186024I0000000J0000591D01*
G01*
X0358427Y0191733D01*
G75*
G02*
X0359017Y0192323I0000591J0000000D01*
G01*
G37*
G36*
G01*
X0364017Y0192323D02*
X0365198Y0192323D01*
G75*
G02*
X0365789Y0191733I0000000J-000591D01*
G01*
X0365789Y0186024D01*
G75*
G02*
X0365198Y0185434I-000591J0000000D01*
G01*
X0364017Y0185434D01*
G75*
G02*
X0363427Y0186024I0000000J0000591D01*
G01*
X0363427Y0191733D01*
G75*
G02*
X0364017Y0192323I0000591J0000000D01*
G01*
G37*
G36*
G01*
X0369017Y0192323D02*
X0370198Y0192323D01*
G75*
G02*
X0370789Y0191733I0000000J-000591D01*
G01*
X0370789Y0186024D01*
G75*
G02*
X0370198Y0185434I-000591J0000000D01*
G01*
X0369017Y0185434D01*
G75*
G02*
X0368427Y0186024I0000000J0000591D01*
G01*
X0368427Y0191733D01*
G75*
G02*
X0369017Y0192323I0000591J0000000D01*
G01*
G37*
G36*
G01*
X0369017Y0172048D02*
X0370198Y0172048D01*
G75*
G02*
X0370789Y0171457I0000000J-000591D01*
G01*
X0370789Y0165749D01*
G75*
G02*
X0370198Y0165158I-000591J0000000D01*
G01*
X0369017Y0165158D01*
G75*
G02*
X0368427Y0165749I0000000J0000591D01*
G01*
X0368427Y0171457D01*
G75*
G02*
X0369017Y0172048I0000591J0000000D01*
G01*
G37*
G36*
G01*
X0364017Y0172048D02*
X0365198Y0172048D01*
G75*
G02*
X0365789Y0171457I0000000J-000591D01*
G01*
X0365789Y0165749D01*
G75*
G02*
X0365198Y0165158I-000591J0000000D01*
G01*
X0364017Y0165158D01*
G75*
G02*
X0363427Y0165749I0000000J0000591D01*
G01*
X0363427Y0171457D01*
G75*
G02*
X0364017Y0172048I0000591J0000000D01*
G01*
G37*
G36*
G01*
X0359017Y0172048D02*
X0360198Y0172048D01*
G75*
G02*
X0360789Y0171457I0000000J-000591D01*
G01*
X0360789Y0165749D01*
G75*
G02*
X0360198Y0165158I-000591J0000000D01*
G01*
X0359017Y0165158D01*
G75*
G02*
X0358427Y0165749I0000000J0000591D01*
G01*
X0358427Y0171457D01*
G75*
G02*
X0359017Y0172048I0000591J0000000D01*
G01*
G37*
G36*
G01*
X0354017Y0172048D02*
X0355198Y0172048D01*
G75*
G02*
X0355789Y0171457I0000000J-000591D01*
G01*
X0355789Y0165749D01*
G75*
G02*
X0355198Y0165158I-000591J0000000D01*
G01*
X0354017Y0165158D01*
G75*
G02*
X0353427Y0165749I0000000J0000591D01*
G01*
X0353427Y0171457D01*
G75*
G02*
X0354017Y0172048I0000591J0000000D01*
G01*
G37*
X0312992Y0189764D02*
G01*
G75*
D410*
X0261023Y0104725D02*
D03*
X0261023Y0130020D02*
D03*
X0261023Y0114764D02*
D03*
X0261023Y0119980D02*
D03*
X0268110Y0089469D02*
D03*
X0261023Y0089469D02*
D03*
X0261023Y0099508D02*
D03*
X0268110Y0099508D02*
D03*
X0268110Y0130020D02*
D03*
X0268110Y0119980D02*
D03*
X0268110Y0114764D02*
D03*
X0268110Y0104725D02*
D03*
D411*
X0261023Y0108170D02*
D03*
X0261023Y0123425D02*
D03*
X0261023Y0111319D02*
D03*
X0261023Y0126575D02*
D03*
X0261023Y0096063D02*
D03*
X0261023Y0092914D02*
D03*
X0268110Y0092914D02*
D03*
X0268110Y0096063D02*
D03*
X0268110Y0123425D02*
D03*
X0268110Y0126575D02*
D03*
X0268110Y0108170D02*
D03*
X0268110Y0111319D02*
D03*
D414*
X0259055Y0051575D02*
D03*
X0262992Y0051575D02*
D03*
X0264567Y0055118D02*
D03*
X0268504Y0055118D02*
D03*
X0256693Y0072441D02*
D03*
X0260630Y0072441D02*
D03*
X0228040Y0130143D02*
D03*
X0231977Y0130143D02*
D03*
X0236236Y0130143D02*
D03*
X0240173Y0130143D02*
D03*
X0279558Y0097676D02*
D03*
X0283495Y0097676D02*
D03*
X0279558Y0101399D02*
D03*
X0283495Y0101399D02*
D03*
X0281974Y0064567D02*
D03*
X0278037Y0064567D02*
D03*
X0193340Y0053634D02*
D03*
X0229088Y0053873D02*
D03*
X0214173Y0130143D02*
D03*
X0246457Y0075985D02*
D03*
X0246457Y0080315D02*
D03*
X0249887Y0084534D02*
D03*
X0261164Y0084479D02*
D03*
X0240748Y0114139D02*
D03*
X0249537Y0114139D02*
D03*
X0253474Y0122624D02*
D03*
X0188557Y0152490D02*
D03*
X0214173Y0134646D02*
D03*
X0255118Y0051575D02*
D03*
X0268504Y0084570D02*
D03*
X0290157Y0083172D02*
D03*
X0304222Y0083172D02*
D03*
X0290157Y0087402D02*
D03*
X0304222Y0087402D02*
D03*
X0264519Y0134310D02*
D03*
X0309055Y0136221D02*
D03*
X0242520Y0075985D02*
D03*
X0253474Y0114139D02*
D03*
X0244685Y0114139D02*
D03*
X0244685Y0118627D02*
D03*
X0240748Y0118627D02*
D03*
X0186614Y0138583D02*
D03*
X0190551Y0138583D02*
D03*
X0192494Y0152490D02*
D03*
X0277939Y0081666D02*
D03*
X0281876Y0081666D02*
D03*
X0308160Y0083172D02*
D03*
X0264567Y0084570D02*
D03*
X0249537Y0122624D02*
D03*
X0257227Y0084479D02*
D03*
X0253824Y0084534D02*
D03*
X0294094Y0087402D02*
D03*
X0268456Y0134310D02*
D03*
X0305118Y0136221D02*
D03*
X0233025Y0053873D02*
D03*
X0259055Y0051575D02*
D03*
X0285827Y0076599D02*
D03*
X0289764Y0076599D02*
D03*
X0294094Y0083172D02*
D03*
X0210236Y0134646D02*
D03*
X0210236Y0130143D02*
D03*
X0242520Y0080315D02*
D03*
X0197277Y0053634D02*
D03*
X0206593Y0053634D02*
D03*
X0202656Y0053634D02*
D03*
X0300285Y0087402D02*
D03*
X0309055Y0132284D02*
D03*
X0305118Y0132284D02*
D03*
X0309055Y0119882D02*
D03*
X0305118Y0119882D02*
D03*
X0309055Y0115748D02*
D03*
X0305118Y0115748D02*
D03*
X0309055Y0107480D02*
D03*
X0305118Y0107480D02*
D03*
X0309055Y0111614D02*
D03*
X0305118Y0111614D02*
D03*
X0309055Y0103347D02*
D03*
X0305118Y0103347D02*
D03*
X0309055Y0124016D02*
D03*
X0305118Y0124016D02*
D03*
X0309055Y0128150D02*
D03*
X0305118Y0128150D02*
D03*
D416*
X0254065Y0100788D02*
D03*
X0254065Y0096555D02*
D03*
X0208661Y0184646D02*
D03*
X0213386Y0184646D02*
D03*
X0218110Y0184646D02*
D03*
X0222834Y0184646D02*
D03*
X0292913Y0056299D02*
D03*
X0288779Y0056299D02*
D03*
X0197599Y0148520D02*
D03*
X0197599Y0144583D02*
D03*
X0308528Y0057481D02*
D03*
X0308528Y0061417D02*
D03*
X0254065Y0092618D02*
D03*
X0254065Y0104725D02*
D03*
X0201771Y0149016D02*
D03*
X0201771Y0145079D02*
D03*
X0226544Y0176792D02*
D03*
X0226544Y0172855D02*
D03*
X0222834Y0172855D02*
D03*
X0222834Y0176792D02*
D03*
X0222834Y0162205D02*
D03*
X0222834Y0166142D02*
D03*
X0222834Y0180709D02*
D03*
X0218110Y0180709D02*
D03*
X0208661Y0180709D02*
D03*
X0213386Y0180709D02*
D03*
X0307493Y0147515D02*
D03*
X0307493Y0143578D02*
D03*
X0257283Y0144488D02*
D03*
X0257283Y0148425D02*
D03*
X0257283Y0154725D02*
D03*
X0257283Y0158662D02*
D03*
X0285236Y0144488D02*
D03*
X0285236Y0148425D02*
D03*
X0261811Y0169882D02*
D03*
X0261811Y0165945D02*
D03*
X0291141Y0169882D02*
D03*
X0291141Y0165945D02*
D03*
X0303937Y0169882D02*
D03*
X0303937Y0165945D02*
D03*
X0287045Y0176792D02*
D03*
X0287045Y0180729D02*
D03*
X0308661Y0177166D02*
D03*
X0308661Y0173229D02*
D03*
X0308464Y0180315D02*
D03*
X0308464Y0184252D02*
D03*
X0308528Y0069007D02*
D03*
X0308528Y0065070D02*
D03*
X0292913Y0052362D02*
D03*
X0288779Y0052362D02*
D03*
X0285039Y0165945D02*
D03*
X0285039Y0169882D02*
D03*
X0280709Y0165945D02*
D03*
X0280709Y0169882D02*
D03*
X0272244Y0165945D02*
D03*
X0272244Y0169882D02*
D03*
X0268078Y0180729D02*
D03*
X0268078Y0176792D02*
D03*
X0229331Y0148425D02*
D03*
X0229331Y0144488D02*
D03*
X0299606Y0165945D02*
D03*
X0299606Y0169882D02*
D03*
X0249235Y0180729D02*
D03*
X0249235Y0176792D02*
D03*
X0253346Y0165945D02*
D03*
X0253346Y0169882D02*
D03*
X0266141Y0165945D02*
D03*
X0266141Y0169882D02*
D03*
X0230255Y0180729D02*
D03*
X0230255Y0176792D02*
D03*
X0234448Y0165945D02*
D03*
X0234448Y0169882D02*
D03*
X0242913Y0165945D02*
D03*
X0242913Y0169882D02*
D03*
X0247244Y0165945D02*
D03*
X0247244Y0169882D02*
D03*
X0229467Y0162205D02*
D03*
X0229467Y0166142D02*
D03*
D418*
X0273435Y0059508D02*
D03*
X0281175Y0068983D02*
D03*
X0299508Y0092353D02*
D03*
D421*
X0225787Y0060925D02*
D03*
X0232087Y0060925D02*
D03*
X0262401Y0059547D02*
D03*
X0268701Y0059547D02*
D03*
X0262401Y0064173D02*
D03*
X0268701Y0064173D02*
D03*
D418*
X0290256Y0096094D02*
D03*
X0281175Y0076463D02*
D03*
X0271923Y0072723D02*
D03*
X0273435Y0052028D02*
D03*
X0282687Y0055768D02*
D03*
X0299508Y0099834D02*
D03*
D228*
X0235079Y0135630D02*
D03*
X0220866Y0135630D02*
D03*
X0250866Y0135630D02*
D03*
D229*
X0197874Y0058071D02*
D03*
X0217874Y0062071D02*
D03*
X0217874Y0054071D02*
D03*
D41*
X0308661Y0052362D02*
D03*
D439*
X0264961Y0069370D02*
D03*
X0264961Y0075591D02*
D03*
D440*
X0235531Y0140158D02*
D03*
X0235531Y0147244D02*
D03*
X0245571Y0147244D02*
D03*
X0245571Y0140158D02*
D03*
X0263484Y0147244D02*
D03*
X0291437Y0147244D02*
D03*
X0273523Y0151181D02*
D03*
X0218405Y0176378D02*
D03*
X0218405Y0169292D02*
D03*
X0208366Y0169292D02*
D03*
X0208366Y0176378D02*
D03*
X0301476Y0158268D02*
D03*
X0301476Y0151181D02*
D03*
X0291437Y0151181D02*
D03*
X0291437Y0158268D02*
D03*
X0291437Y0140158D02*
D03*
X0301476Y0147244D02*
D03*
X0301476Y0140158D02*
D03*
X0273523Y0158268D02*
D03*
X0263484Y0151181D02*
D03*
X0263484Y0158268D02*
D03*
X0263484Y0140158D02*
D03*
X0273523Y0147244D02*
D03*
X0273523Y0140158D02*
D03*
X0272539Y0182087D02*
D03*
X0272539Y0175000D02*
D03*
X0282579Y0175000D02*
D03*
X0282579Y0182087D02*
D03*
X0291437Y0182087D02*
D03*
X0291437Y0175000D02*
D03*
X0301476Y0175000D02*
D03*
X0301476Y0182087D02*
D03*
X0253641Y0182087D02*
D03*
X0253641Y0175000D02*
D03*
X0263681Y0175000D02*
D03*
X0263681Y0182087D02*
D03*
X0234744Y0182087D02*
D03*
X0234744Y0175000D02*
D03*
X0244783Y0175000D02*
D03*
X0244783Y0182087D02*
D03*
X0235531Y0158268D02*
D03*
X0235531Y0151181D02*
D03*
X0245571Y0151181D02*
D03*
X0245571Y0158268D02*
D03*
X0207972Y0158268D02*
D03*
X0207972Y0151181D02*
D03*
X0218012Y0151181D02*
D03*
X0218012Y0158268D02*
D03*
X0218012Y0140158D02*
D03*
X0218012Y0147244D02*
D03*
X0207972Y0147244D02*
D03*
X0207972Y0140158D02*
D03*
D441*
X0242126Y0147244D02*
D03*
X0238976Y0147244D02*
D03*
X0238976Y0140158D02*
D03*
X0242126Y0140158D02*
D03*
X0266929Y0147244D02*
D03*
X0294882Y0147244D02*
D03*
X0270079Y0151181D02*
D03*
X0211811Y0169292D02*
D03*
X0214960Y0169292D02*
D03*
X0214960Y0176378D02*
D03*
X0211811Y0176378D02*
D03*
X0294882Y0151181D02*
D03*
X0298031Y0151181D02*
D03*
X0298031Y0158268D02*
D03*
X0294882Y0158268D02*
D03*
X0298031Y0147244D02*
D03*
X0294882Y0140158D02*
D03*
X0298031Y0140158D02*
D03*
X0266929Y0151181D02*
D03*
X0270079Y0158268D02*
D03*
X0266929Y0158268D02*
D03*
X0270078Y0147244D02*
D03*
X0266929Y0140158D02*
D03*
X0270078Y0140158D02*
D03*
X0275984Y0182087D02*
D03*
X0279134Y0182087D02*
D03*
X0279134Y0175000D02*
D03*
X0275984Y0175000D02*
D03*
X0294881Y0182087D02*
D03*
X0298031Y0182087D02*
D03*
X0298031Y0175000D02*
D03*
X0294881Y0175000D02*
D03*
X0257086Y0182087D02*
D03*
X0260236Y0182087D02*
D03*
X0260236Y0175000D02*
D03*
X0257086Y0175000D02*
D03*
X0238189Y0182087D02*
D03*
X0241338Y0182087D02*
D03*
X0241338Y0175000D02*
D03*
X0238189Y0175000D02*
D03*
X0238976Y0158268D02*
D03*
X0242126Y0158268D02*
D03*
X0242126Y0151181D02*
D03*
X0238976Y0151181D02*
D03*
X0211417Y0158268D02*
D03*
X0214567Y0158268D02*
D03*
X0214567Y0151181D02*
D03*
X0211417Y0151181D02*
D03*
X0214567Y0140158D02*
D03*
X0211417Y0140158D02*
D03*
X0211417Y0147244D02*
D03*
X0214567Y0147244D02*
D03*
D442*
X0203189Y0062894D02*
D03*
X0203189Y0057904D02*
D03*
X0209409Y0057904D02*
D03*
X0209409Y0062894D02*
D03*
D443*
X0190551Y0069784D02*
D03*
X0223228Y0069784D02*
D03*
X0190551Y0123917D02*
D03*
X0223228Y0123917D02*
D03*
D444*
X0200787Y0087815D02*
D03*
X0200787Y0079154D02*
D03*
X0200787Y0083484D02*
D03*
X0200787Y0092146D02*
D03*
X0200787Y0096477D02*
D03*
X0200787Y0100807D02*
D03*
X0200787Y0105138D02*
D03*
X0200787Y0109469D02*
D03*
D445*
X0182480Y0168425D02*
D03*
X0195684Y0168425D02*
D03*
X0189961Y0176457D02*
D03*
X0203164Y0176457D02*
D03*
X0186220Y0159173D02*
D03*
X0199424Y0159173D02*
D03*
X0199424Y0185709D02*
D03*
X0287598Y0070788D02*
D03*
X0291338Y0061536D02*
D03*
X0186220Y0185709D02*
D03*
D254*
X0188557Y0142652D02*
D03*
X0192494Y0142652D02*
D03*
X0188557Y0148656D02*
D03*
X0190525Y0148656D02*
D03*
X0190525Y0142652D02*
D03*
X0192494Y0148656D02*
D03*
D446*
X0279122Y0086004D02*
D03*
X0284240Y0086004D02*
D03*
X0281681Y0086004D02*
D03*
X0279122Y0093485D02*
D03*
X0284240Y0093485D02*
D03*
D256*
X0275905Y0105512D02*
D03*
X0298897Y0108071D02*
D03*
X0298897Y0105512D02*
D03*
X0275905Y0128543D02*
D03*
X0298897Y0131102D02*
D03*
X0298897Y0133662D02*
D03*
X0298897Y0128543D02*
D03*
X0298897Y0125984D02*
D03*
X0298897Y0123425D02*
D03*
X0298897Y0120866D02*
D03*
X0298897Y0118307D02*
D03*
X0298897Y0115748D02*
D03*
X0298897Y0113189D02*
D03*
X0298897Y0110630D02*
D03*
X0275905Y0133662D02*
D03*
X0275905Y0131102D02*
D03*
X0275905Y0125984D02*
D03*
X0275905Y0123425D02*
D03*
X0275905Y0120866D02*
D03*
X0275905Y0118307D02*
D03*
X0275905Y0115748D02*
D03*
X0275905Y0113189D02*
D03*
X0275905Y0110630D02*
D03*
X0275905Y0108071D02*
D03*
D447*
X0301968Y0067925D02*
D03*
X0301968Y0056507D02*
D03*
D448*
X0243878Y0065790D02*
D03*
X0256870Y0065790D02*
D03*
X0307955Y0076990D02*
D03*
X0294963Y0076990D02*
D03*
D259*
X0245103Y0091195D02*
D03*
X0245103Y0105762D02*
D03*
D260*
X0193527Y0146638D02*
D03*
X0193527Y0144670D02*
D03*
X0187523Y0144670D02*
D03*
X0187523Y0146638D02*
D03*
D449*
X0258514Y0078672D02*
D03*
X0252609Y0078672D02*
D03*
D445*
X0189961Y0168425D02*
D03*
X0203164Y0168425D02*
D03*
X0195684Y0176457D02*
D03*
X0295079Y0070788D02*
D03*
X0182480Y0176457D02*
D03*
D262*
X0255711Y0129331D02*
D03*
X0249018Y0129331D02*
D03*
D450*
X0239350Y0055794D02*
D03*
X0250767Y0055794D02*
D03*
D451*
X0308267Y0090158D02*
D03*
X0308267Y0096457D02*
D03*
X0120571Y0215256D02*
G01*
G75*
D127*
X0144980Y0184055D02*
D03*
X0131004Y0183760D02*
D03*
X0125984Y0184941D02*
D03*
X0128051Y0188386D02*
D03*
M02*
