G04 #@! TF.GenerationSoftware,KiCad,Pcbnew,8.0.7-8.0.7-0~ubuntu24.04.1*
G04 #@! TF.CreationDate,2025-01-01T00:24:38+00:00*
G04 #@! TF.ProjectId,uaefi,75616566-692e-46b6-9963-61645f706362,D*
G04 #@! TF.SameCoordinates,Original*
G04 #@! TF.FileFunction,Soldermask,Bot*
G04 #@! TF.FilePolarity,Negative*
%FSLAX46Y46*%
G04 Gerber Fmt 4.6, Leading zero omitted, Abs format (unit mm)*
G04 Created by KiCad (PCBNEW 8.0.7-8.0.7-0~ubuntu24.04.1) date 2025-01-01 00:24:38*
%MOMM*%
%LPD*%
G01*
G04 APERTURE LIST*
%ADD10C,0.120000*%
%ADD11R,1.700000X1.700000*%
%ADD12O,1.700000X1.700000*%
%ADD13C,3.000000*%
%ADD14O,2.700000X3.700000*%
%ADD15C,1.700000*%
%ADD16C,0.800000*%
%ADD17C,6.400000*%
%ADD18C,1.524000*%
%ADD19O,1.850000X1.700000*%
%ADD20C,0.600000*%
%ADD21R,1.100000X1.100000*%
%ADD22C,1.100000*%
%ADD23O,2.400000X1.100000*%
%ADD24C,1.500000*%
%ADD25C,0.599999*%
%ADD26O,3.700000X2.700000*%
%ADD27C,0.650000*%
%ADD28O,1.000000X2.100000*%
%ADD29O,1.000000X1.600000*%
%ADD30C,3.302000*%
%ADD31R,2.299995X4.399991*%
%ADD32R,2.299995X3.999992*%
G04 APERTURE END LIST*
D10*
G04 #@! TO.C,U5*
X99150000Y7225000D02*
X86150000Y7225000D01*
X86150000Y14225000D01*
X99150000Y14225000D01*
X99150000Y7225000D01*
G36*
X99150000Y7225000D02*
G01*
X86150000Y7225000D01*
X86150000Y14225000D01*
X99150000Y14225000D01*
X99150000Y7225000D01*
G37*
G04 #@! TD*
D11*
G04 #@! TO.C,J21*
X13315000Y52750000D03*
D12*
X10775000Y52750000D03*
X13315000Y50210000D03*
X10775000Y50210000D03*
G04 #@! TD*
D13*
G04 #@! TO.C,J10*
X60300000Y98025000D03*
X89700000Y98025000D03*
G36*
G01*
X58950000Y89125001D02*
X58950000Y92324999D01*
G75*
G02*
X59200001Y92575000I250001J0D01*
G01*
X61399999Y92575000D01*
G75*
G02*
X61650000Y92324999I0J-250001D01*
G01*
X61650000Y89125001D01*
G75*
G02*
X61399999Y88875000I-250001J0D01*
G01*
X59200001Y88875000D01*
G75*
G02*
X58950000Y89125001I0J250001D01*
G01*
G37*
D14*
X64500000Y90725000D03*
X68700000Y90725000D03*
X72900000Y90725000D03*
X77100000Y90725000D03*
X81300000Y90725000D03*
X85500000Y90725000D03*
X89700000Y90725000D03*
X60300000Y85225000D03*
X64500000Y85225000D03*
X68700000Y85225000D03*
X72900000Y85225000D03*
X77100000Y85225000D03*
X81300000Y85225000D03*
X85500000Y85225000D03*
X89700000Y85225000D03*
G04 #@! TD*
D15*
G04 #@! TO.C,P8*
X83200000Y19300000D03*
G04 #@! TD*
D11*
G04 #@! TO.C,J20*
X13315000Y61150000D03*
D12*
X10775000Y61150000D03*
X13315000Y58610000D03*
X10775000Y58610000D03*
G04 #@! TD*
D15*
G04 #@! TO.C,P5*
X41600000Y46000000D03*
G04 #@! TD*
D13*
G04 #@! TO.C,J2*
X10600000Y98025000D03*
X48400000Y98025000D03*
G36*
G01*
X9250000Y89125001D02*
X9250000Y92324999D01*
G75*
G02*
X9500001Y92575000I250001J0D01*
G01*
X11699999Y92575000D01*
G75*
G02*
X11950000Y92324999I0J-250001D01*
G01*
X11950000Y89125001D01*
G75*
G02*
X11699999Y88875000I-250001J0D01*
G01*
X9500001Y88875000D01*
G75*
G02*
X9250000Y89125001I0J250001D01*
G01*
G37*
D14*
X14800000Y90725000D03*
X19000000Y90725000D03*
X23200000Y90725000D03*
X27400000Y90725000D03*
X31600000Y90725000D03*
X35800000Y90725000D03*
X40000000Y90725000D03*
X44200000Y90725000D03*
X48400000Y90725000D03*
X10600000Y85225000D03*
X14800000Y85225000D03*
X19000000Y85225000D03*
X23200000Y85225000D03*
X27400000Y85225000D03*
X31600000Y85225000D03*
X35800000Y85225000D03*
X40000000Y85225000D03*
X44200000Y85225000D03*
X48400000Y85225000D03*
G04 #@! TD*
D11*
G04 #@! TO.C,J17*
X39190000Y89225000D03*
D12*
X36650000Y89225000D03*
X39190000Y86685000D03*
X36650000Y86685000D03*
G04 #@! TD*
D15*
G04 #@! TO.C,P1*
X32000000Y57500000D03*
G04 #@! TD*
G04 #@! TO.C,P2*
X34900000Y57500000D03*
G04 #@! TD*
G04 #@! TO.C,P15*
X5540000Y11500000D03*
G04 #@! TD*
D16*
G04 #@! TO.C,H1*
X1100000Y96500000D03*
X1802944Y98197056D03*
X1802944Y94802944D03*
X3500000Y98900000D03*
D17*
X3500000Y96500000D03*
D16*
X3500000Y94100000D03*
X5197056Y98197056D03*
X5197056Y94802944D03*
X5900000Y96500000D03*
G04 #@! TD*
G04 #@! TO.C,H4*
X94100000Y96500000D03*
X94802944Y98197056D03*
X94802944Y94802944D03*
X96500000Y98900000D03*
D17*
X96500000Y96500000D03*
D16*
X96500000Y94100000D03*
X98197056Y98197056D03*
X98197056Y94802944D03*
X98900000Y96500000D03*
G04 #@! TD*
D18*
G04 #@! TO.C,F4*
X18400000Y19450000D03*
X18400000Y14550000D03*
G04 #@! TD*
G04 #@! TO.C,J7*
G36*
G01*
X83675000Y2150000D02*
X82325000Y2150000D01*
G75*
G02*
X82075000Y2400000I0J250000D01*
G01*
X82075000Y3600000D01*
G75*
G02*
X82325000Y3850000I250000J0D01*
G01*
X83675000Y3850000D01*
G75*
G02*
X83925000Y3600000I0J-250000D01*
G01*
X83925000Y2400000D01*
G75*
G02*
X83675000Y2150000I-250000J0D01*
G01*
G37*
D19*
X83000000Y5500000D03*
X83000000Y8000000D03*
X83000000Y10500000D03*
X83000000Y13000000D03*
G04 #@! TD*
D15*
G04 #@! TO.C,P4*
X62500000Y7500000D03*
G04 #@! TD*
D16*
G04 #@! TO.C,H2*
X1100000Y3500000D03*
X1802944Y5197056D03*
X1802944Y1802944D03*
X3500000Y5900000D03*
D17*
X3500000Y3500000D03*
D16*
X3500000Y1100000D03*
X5197056Y5197056D03*
X5197056Y1802944D03*
X5900000Y3500000D03*
G04 #@! TD*
D20*
G04 #@! TO.C,M3*
X49175000Y62675000D03*
X47975000Y62675000D03*
X50375000Y62675000D03*
X51575000Y62675000D03*
X45115000Y77100000D03*
X44115000Y77100000D03*
G04 #@! TD*
D15*
G04 #@! TO.C,P17*
X3000000Y11500000D03*
G04 #@! TD*
D21*
G04 #@! TO.C,J8*
X59250000Y3100000D03*
D22*
X57500000Y3900000D03*
X59250000Y4700000D03*
X57500000Y5500000D03*
X59250000Y6300000D03*
D23*
X58375000Y1050000D03*
X58375000Y8350000D03*
G04 #@! TD*
D18*
G04 #@! TO.C,F3*
X20600000Y19450000D03*
X20600000Y14550000D03*
G04 #@! TD*
D20*
G04 #@! TO.C,M2*
X79574999Y73125000D03*
X78624999Y73125000D03*
X77675001Y73125000D03*
X78674999Y81825000D03*
X79574999Y81825000D03*
G04 #@! TD*
D15*
G04 #@! TO.C,P18*
X23000000Y11000000D03*
G04 #@! TD*
D24*
G04 #@! TO.C,M1*
X40874995Y20824999D03*
X40874995Y14425002D03*
X40874995Y12524999D03*
X40874995Y8224999D03*
D20*
X41324994Y5825002D03*
X41324994Y4825001D03*
D24*
X40874995Y1974999D03*
X25374998Y21275001D03*
X25374998Y19425002D03*
X25374998Y14474999D03*
X25374998Y2425001D03*
G04 #@! TD*
D15*
G04 #@! TO.C,P6*
X39060000Y46000000D03*
G04 #@! TD*
D25*
G04 #@! TO.C,M7*
X31999999Y46975001D03*
X32524999Y47850003D03*
X33274997Y46674999D03*
X36824998Y46750002D03*
G04 #@! TD*
D11*
G04 #@! TO.C,J11*
X80490000Y89225000D03*
D12*
X77950000Y89225000D03*
X80490000Y86685000D03*
X77950000Y86685000D03*
G04 #@! TD*
D13*
G04 #@! TO.C,J5*
X1975000Y45200000D03*
X1975000Y78800000D03*
G36*
G01*
X10874999Y43850000D02*
X7675001Y43850000D01*
G75*
G02*
X7425000Y44100001I0J250001D01*
G01*
X7425000Y46299999D01*
G75*
G02*
X7675001Y46550000I250001J0D01*
G01*
X10874999Y46550000D01*
G75*
G02*
X11125000Y46299999I0J-250001D01*
G01*
X11125000Y44100001D01*
G75*
G02*
X10874999Y43850000I-250001J0D01*
G01*
G37*
D26*
X9275000Y49400000D03*
X9275000Y53600000D03*
X9275000Y57800000D03*
X9275000Y62000000D03*
X9275000Y66200000D03*
X9275000Y70400000D03*
X9275000Y74600000D03*
X9275000Y78800000D03*
X14775000Y45200000D03*
X14775000Y49400000D03*
X14775000Y53600000D03*
X14775000Y57800000D03*
X14775000Y62000000D03*
X14775000Y66200000D03*
X14775000Y70400000D03*
X14775000Y74600000D03*
X14775000Y78800000D03*
G04 #@! TD*
D11*
G04 #@! TO.C,J1*
X88890000Y89225000D03*
D12*
X86350000Y89225000D03*
X88890000Y86685000D03*
X86350000Y86685000D03*
G04 #@! TD*
D13*
G04 #@! TO.C,J3*
X98025000Y79200000D03*
X98025000Y70800000D03*
G36*
G01*
X89125001Y80550000D02*
X92324999Y80550000D01*
G75*
G02*
X92575000Y80299999I0J-250001D01*
G01*
X92575000Y78100001D01*
G75*
G02*
X92324999Y77850000I-250001J0D01*
G01*
X89125001Y77850000D01*
G75*
G02*
X88875000Y78100001I0J250001D01*
G01*
X88875000Y80299999D01*
G75*
G02*
X89125001Y80550000I250001J0D01*
G01*
G37*
D26*
X90725000Y75000000D03*
X90725000Y70800000D03*
X85225000Y79200000D03*
X85225000Y75000000D03*
X85225000Y70800000D03*
G04 #@! TD*
D11*
G04 #@! TO.C,J16*
X30790000Y89225000D03*
D12*
X28250000Y89225000D03*
X30790000Y86685000D03*
X28250000Y86685000D03*
G04 #@! TD*
D18*
G04 #@! TO.C,F1*
X22800000Y19450000D03*
X22800000Y14550000D03*
G04 #@! TD*
D15*
G04 #@! TO.C,G3*
X39500000Y49960000D03*
X39500000Y52500000D03*
X39500000Y55040000D03*
X39500000Y57580000D03*
X39500000Y60120000D03*
X42040000Y49960000D03*
X42040000Y52500000D03*
X42040000Y55040000D03*
X42040000Y57580000D03*
X42040000Y60120000D03*
X44580000Y49960000D03*
X44580000Y52500000D03*
X44580000Y55040000D03*
X44580000Y57580000D03*
X44580000Y60120000D03*
G04 #@! TD*
G04 #@! TO.C,P3*
X62500000Y2500000D03*
G04 #@! TD*
D18*
G04 #@! TO.C,R4*
X43474609Y6474609D03*
X43474609Y2664609D03*
G04 #@! TD*
D11*
G04 #@! TO.C,J24*
X89265000Y78350000D03*
D12*
X86725000Y78350000D03*
X89265000Y75810000D03*
X86725000Y75810000D03*
G04 #@! TD*
D13*
G04 #@! TO.C,J4*
X1975000Y25800000D03*
X1975000Y38400000D03*
G36*
G01*
X10874999Y24450000D02*
X7675001Y24450000D01*
G75*
G02*
X7425000Y24700001I0J250001D01*
G01*
X7425000Y26899999D01*
G75*
G02*
X7675001Y27150000I250001J0D01*
G01*
X10874999Y27150000D01*
G75*
G02*
X11125000Y26899999I0J-250001D01*
G01*
X11125000Y24700001D01*
G75*
G02*
X10874999Y24450000I-250001J0D01*
G01*
G37*
D26*
X9275000Y30000000D03*
X9275000Y34200000D03*
X9275000Y38400000D03*
X14775000Y25800000D03*
X14775000Y30000000D03*
X14775000Y34200000D03*
X14775000Y38400000D03*
G04 #@! TD*
D15*
G04 #@! TO.C,P7*
X83200000Y24000000D03*
G04 #@! TD*
D11*
G04 #@! TO.C,J13*
X63690000Y89225000D03*
D12*
X61150000Y89225000D03*
X63690000Y86685000D03*
X61150000Y86685000D03*
G04 #@! TD*
D27*
G04 #@! TO.C,J9*
X47110000Y6605000D03*
X52890000Y6605000D03*
D28*
X45680000Y7105000D03*
D29*
X45680000Y2925000D03*
D28*
X54320000Y7105000D03*
D29*
X54320000Y2925000D03*
G04 #@! TD*
D16*
G04 #@! TO.C,H3*
X94100000Y3500000D03*
X94802944Y5197056D03*
X94802944Y1802944D03*
X96500000Y5900000D03*
D17*
X96500000Y3500000D03*
D16*
X96500000Y1100000D03*
X98197056Y5197056D03*
X98197056Y1802944D03*
X98900000Y3500000D03*
G04 #@! TD*
D20*
G04 #@! TO.C,M4*
X38125000Y62675000D03*
X36925000Y62675000D03*
X39325000Y62675000D03*
X40525000Y62675000D03*
X34065000Y77100000D03*
X33065000Y77100000D03*
G04 #@! TD*
D11*
G04 #@! TO.C,J14*
X13990000Y89225000D03*
D12*
X11450000Y89225000D03*
X13990000Y86685000D03*
X11450000Y86685000D03*
G04 #@! TD*
D11*
G04 #@! TO.C,J18*
X13315000Y77950000D03*
D12*
X10775000Y77950000D03*
X13315000Y75410000D03*
X10775000Y75410000D03*
G04 #@! TD*
D18*
G04 #@! TO.C,F2*
X18550000Y22600000D03*
X23450000Y22600000D03*
G04 #@! TD*
D11*
G04 #@! TO.C,J15*
X22390000Y89225000D03*
D12*
X19850000Y89225000D03*
X22390000Y86685000D03*
X19850000Y86685000D03*
G04 #@! TD*
D11*
G04 #@! TO.C,J6*
X98150000Y37900000D03*
D12*
X95610000Y37900000D03*
X93070000Y37900000D03*
X90530000Y37900000D03*
X87990000Y37900000D03*
X85450000Y37900000D03*
G04 #@! TD*
D11*
G04 #@! TO.C,J19*
X13315000Y69550000D03*
D12*
X10775000Y69550000D03*
X13315000Y67010000D03*
X10775000Y67010000D03*
G04 #@! TD*
D11*
G04 #@! TO.C,J22*
X13315000Y37550000D03*
D12*
X10775000Y37550000D03*
X13315000Y35010000D03*
X10775000Y35010000D03*
G04 #@! TD*
D11*
G04 #@! TO.C,J12*
X72090000Y89225000D03*
D12*
X69550000Y89225000D03*
X72090000Y86685000D03*
X69550000Y86685000D03*
G04 #@! TD*
D30*
G04 #@! TO.C,U3*
X72203250Y75430000D03*
X72203250Y52570000D03*
D18*
X59503250Y70350000D03*
X59503250Y67810000D03*
X59503250Y65270000D03*
X59503250Y62730000D03*
X59503250Y60190000D03*
X59503250Y57650000D03*
G04 #@! TD*
D15*
G04 #@! TO.C,P16*
X8080000Y11500000D03*
G04 #@! TD*
G04 #@! TO.C,G4*
X47120000Y49960000D03*
X47120000Y52500000D03*
X47120000Y55040000D03*
X47120000Y57580000D03*
X47120000Y60120000D03*
X49660000Y49960000D03*
X49660000Y52500000D03*
X49660000Y55040000D03*
X49660000Y57580000D03*
X49660000Y60120000D03*
X52200000Y49960000D03*
X52200000Y52500000D03*
X52200000Y55040000D03*
X52200000Y57580000D03*
X52200000Y60120000D03*
G04 #@! TD*
G04 #@! TO.C,D8*
G36*
G01*
X54400000Y81257023D02*
X54700000Y81257023D01*
G75*
G02*
X54850000Y81107023I0J-150000D01*
G01*
X54850000Y79932023D01*
G75*
G02*
X54700000Y79782023I-150000J0D01*
G01*
X54400000Y79782023D01*
G75*
G02*
X54250000Y79932023I0J150000D01*
G01*
X54250000Y81107023D01*
G75*
G02*
X54400000Y81257023I150000J0D01*
G01*
G37*
G36*
G01*
X56300000Y81257023D02*
X56600000Y81257023D01*
G75*
G02*
X56750000Y81107023I0J-150000D01*
G01*
X56750000Y79932023D01*
G75*
G02*
X56600000Y79782023I-150000J0D01*
G01*
X56300000Y79782023D01*
G75*
G02*
X56150000Y79932023I0J150000D01*
G01*
X56150000Y81107023D01*
G75*
G02*
X56300000Y81257023I150000J0D01*
G01*
G37*
G36*
G01*
X55350000Y79382023D02*
X55650000Y79382023D01*
G75*
G02*
X55800000Y79232023I0J-150000D01*
G01*
X55800000Y78057023D01*
G75*
G02*
X55650000Y77907023I-150000J0D01*
G01*
X55350000Y77907023D01*
G75*
G02*
X55200000Y78057023I0J150000D01*
G01*
X55200000Y79232023D01*
G75*
G02*
X55350000Y79382023I150000J0D01*
G01*
G37*
G04 #@! TD*
G04 #@! TO.C,C10*
G36*
G01*
X12650000Y13460000D02*
X11600000Y13460000D01*
G75*
G02*
X11500000Y13560000I0J100000D01*
G01*
X11500000Y14360000D01*
G75*
G02*
X11600000Y14460000I100000J0D01*
G01*
X12650000Y14460000D01*
G75*
G02*
X12750000Y14360000I0J-100000D01*
G01*
X12750000Y13560000D01*
G75*
G02*
X12650000Y13460000I-100000J0D01*
G01*
G37*
G36*
G01*
X12650000Y15460000D02*
X11600000Y15460000D01*
G75*
G02*
X11500000Y15560000I0J100000D01*
G01*
X11500000Y16360000D01*
G75*
G02*
X11600000Y16460000I100000J0D01*
G01*
X12650000Y16460000D01*
G75*
G02*
X12750000Y16360000I0J-100000D01*
G01*
X12750000Y15560000D01*
G75*
G02*
X12650000Y15460000I-100000J0D01*
G01*
G37*
G04 #@! TD*
G04 #@! TO.C,C27*
G36*
G01*
X61460000Y66315001D02*
X62140000Y66315001D01*
G75*
G02*
X62225000Y66230001I0J-85000D01*
G01*
X62225000Y65550001D01*
G75*
G02*
X62140000Y65465001I-85000J0D01*
G01*
X61460000Y65465001D01*
G75*
G02*
X61375000Y65550001I0J85000D01*
G01*
X61375000Y66230001D01*
G75*
G02*
X61460000Y66315001I85000J0D01*
G01*
G37*
G36*
G01*
X61460000Y64734999D02*
X62140000Y64734999D01*
G75*
G02*
X62225000Y64649999I0J-85000D01*
G01*
X62225000Y63969999D01*
G75*
G02*
X62140000Y63884999I-85000J0D01*
G01*
X61460000Y63884999D01*
G75*
G02*
X61375000Y63969999I0J85000D01*
G01*
X61375000Y64649999D01*
G75*
G02*
X61460000Y64734999I85000J0D01*
G01*
G37*
G04 #@! TD*
G04 #@! TO.C,D4*
G36*
G01*
X19510000Y75900000D02*
X18490000Y75900000D01*
G75*
G02*
X18400000Y75990000I0J90000D01*
G01*
X18400000Y76710000D01*
G75*
G02*
X18490000Y76800000I90000J0D01*
G01*
X19510000Y76800000D01*
G75*
G02*
X19600000Y76710000I0J-90000D01*
G01*
X19600000Y75990000D01*
G75*
G02*
X19510000Y75900000I-90000J0D01*
G01*
G37*
G36*
G01*
X19510000Y79200000D02*
X18490000Y79200000D01*
G75*
G02*
X18400000Y79290000I0J90000D01*
G01*
X18400000Y80010000D01*
G75*
G02*
X18490000Y80100000I90000J0D01*
G01*
X19510000Y80100000D01*
G75*
G02*
X19600000Y80010000I0J-90000D01*
G01*
X19600000Y79290000D01*
G75*
G02*
X19510000Y79200000I-90000J0D01*
G01*
G37*
G04 #@! TD*
D24*
G04 #@! TO.C,BT1*
X92000000Y21600142D03*
X92000000Y29100000D03*
D31*
X92000000Y17500048D03*
D32*
X92000000Y33500067D03*
G04 #@! TD*
G04 #@! TO.C,U10*
G36*
G01*
X1095000Y62900000D02*
X1395000Y62900000D01*
G75*
G02*
X1545000Y62750000I0J-150000D01*
G01*
X1545000Y61100000D01*
G75*
G02*
X1395000Y60950000I-150000J0D01*
G01*
X1095000Y60950000D01*
G75*
G02*
X945000Y61100000I0J150000D01*
G01*
X945000Y62750000D01*
G75*
G02*
X1095000Y62900000I150000J0D01*
G01*
G37*
G36*
G01*
X2365000Y62900000D02*
X2665000Y62900000D01*
G75*
G02*
X2815000Y62750000I0J-150000D01*
G01*
X2815000Y61100000D01*
G75*
G02*
X2665000Y60950000I-150000J0D01*
G01*
X2365000Y60950000D01*
G75*
G02*
X2215000Y61100000I0J150000D01*
G01*
X2215000Y62750000D01*
G75*
G02*
X2365000Y62900000I150000J0D01*
G01*
G37*
G36*
G01*
X3635000Y62900000D02*
X3935000Y62900000D01*
G75*
G02*
X4085000Y62750000I0J-150000D01*
G01*
X4085000Y61100000D01*
G75*
G02*
X3935000Y60950000I-150000J0D01*
G01*
X3635000Y60950000D01*
G75*
G02*
X3485000Y61100000I0J150000D01*
G01*
X3485000Y62750000D01*
G75*
G02*
X3635000Y62900000I150000J0D01*
G01*
G37*
G36*
G01*
X4905000Y62900000D02*
X5205000Y62900000D01*
G75*
G02*
X5355000Y62750000I0J-150000D01*
G01*
X5355000Y61100000D01*
G75*
G02*
X5205000Y60950000I-150000J0D01*
G01*
X4905000Y60950000D01*
G75*
G02*
X4755000Y61100000I0J150000D01*
G01*
X4755000Y62750000D01*
G75*
G02*
X4905000Y62900000I150000J0D01*
G01*
G37*
G36*
G01*
X4905000Y57950000D02*
X5205000Y57950000D01*
G75*
G02*
X5355000Y57800000I0J-150000D01*
G01*
X5355000Y56150000D01*
G75*
G02*
X5205000Y56000000I-150000J0D01*
G01*
X4905000Y56000000D01*
G75*
G02*
X4755000Y56150000I0J150000D01*
G01*
X4755000Y57800000D01*
G75*
G02*
X4905000Y57950000I150000J0D01*
G01*
G37*
G36*
G01*
X3635000Y57950000D02*
X3935000Y57950000D01*
G75*
G02*
X4085000Y57800000I0J-150000D01*
G01*
X4085000Y56150000D01*
G75*
G02*
X3935000Y56000000I-150000J0D01*
G01*
X3635000Y56000000D01*
G75*
G02*
X3485000Y56150000I0J150000D01*
G01*
X3485000Y57800000D01*
G75*
G02*
X3635000Y57950000I150000J0D01*
G01*
G37*
G36*
G01*
X2365000Y57950000D02*
X2665000Y57950000D01*
G75*
G02*
X2815000Y57800000I0J-150000D01*
G01*
X2815000Y56150000D01*
G75*
G02*
X2665000Y56000000I-150000J0D01*
G01*
X2365000Y56000000D01*
G75*
G02*
X2215000Y56150000I0J150000D01*
G01*
X2215000Y57800000D01*
G75*
G02*
X2365000Y57950000I150000J0D01*
G01*
G37*
G36*
G01*
X1095000Y57950000D02*
X1395000Y57950000D01*
G75*
G02*
X1545000Y57800000I0J-150000D01*
G01*
X1545000Y56150000D01*
G75*
G02*
X1395000Y56000000I-150000J0D01*
G01*
X1095000Y56000000D01*
G75*
G02*
X945000Y56150000I0J150000D01*
G01*
X945000Y57800000D01*
G75*
G02*
X1095000Y57950000I150000J0D01*
G01*
G37*
G04 #@! TD*
G04 #@! TO.C,R31*
G36*
G01*
X2940000Y40650000D02*
X2160000Y40650000D01*
G75*
G02*
X2090000Y40720000I0J70000D01*
G01*
X2090000Y41280000D01*
G75*
G02*
X2160000Y41350000I70000J0D01*
G01*
X2940000Y41350000D01*
G75*
G02*
X3010000Y41280000I0J-70000D01*
G01*
X3010000Y40720000D01*
G75*
G02*
X2940000Y40650000I-70000J0D01*
G01*
G37*
G36*
G01*
X2940000Y42250000D02*
X2160000Y42250000D01*
G75*
G02*
X2090000Y42320000I0J70000D01*
G01*
X2090000Y42880000D01*
G75*
G02*
X2160000Y42950000I70000J0D01*
G01*
X2940000Y42950000D01*
G75*
G02*
X3010000Y42880000I0J-70000D01*
G01*
X3010000Y42320000D01*
G75*
G02*
X2940000Y42250000I-70000J0D01*
G01*
G37*
G04 #@! TD*
G04 #@! TO.C,C30*
G36*
G01*
X58405002Y82940000D02*
X58405002Y82260000D01*
G75*
G02*
X58320002Y82175000I-85000J0D01*
G01*
X57640002Y82175000D01*
G75*
G02*
X57555002Y82260000I0J85000D01*
G01*
X57555002Y82940000D01*
G75*
G02*
X57640002Y83025000I85000J0D01*
G01*
X58320002Y83025000D01*
G75*
G02*
X58405002Y82940000I0J-85000D01*
G01*
G37*
G36*
G01*
X56825000Y82940000D02*
X56825000Y82260000D01*
G75*
G02*
X56740000Y82175000I-85000J0D01*
G01*
X56060000Y82175000D01*
G75*
G02*
X55975000Y82260000I0J85000D01*
G01*
X55975000Y82940000D01*
G75*
G02*
X56060000Y83025000I85000J0D01*
G01*
X56740000Y83025000D01*
G75*
G02*
X56825000Y82940000I0J-85000D01*
G01*
G37*
G04 #@! TD*
G04 #@! TO.C,C7*
G36*
G01*
X6650000Y13460000D02*
X5600000Y13460000D01*
G75*
G02*
X5500000Y13560000I0J100000D01*
G01*
X5500000Y14360000D01*
G75*
G02*
X5600000Y14460000I100000J0D01*
G01*
X6650000Y14460000D01*
G75*
G02*
X6750000Y14360000I0J-100000D01*
G01*
X6750000Y13560000D01*
G75*
G02*
X6650000Y13460000I-100000J0D01*
G01*
G37*
G36*
G01*
X6650000Y15460000D02*
X5600000Y15460000D01*
G75*
G02*
X5500000Y15560000I0J100000D01*
G01*
X5500000Y16360000D01*
G75*
G02*
X5600000Y16460000I100000J0D01*
G01*
X6650000Y16460000D01*
G75*
G02*
X6750000Y16360000I0J-100000D01*
G01*
X6750000Y15560000D01*
G75*
G02*
X6650000Y15460000I-100000J0D01*
G01*
G37*
G04 #@! TD*
G04 #@! TO.C,C33*
G36*
G01*
X96660000Y35215001D02*
X97340000Y35215001D01*
G75*
G02*
X97425000Y35130001I0J-85000D01*
G01*
X97425000Y34450001D01*
G75*
G02*
X97340000Y34365001I-85000J0D01*
G01*
X96660000Y34365001D01*
G75*
G02*
X96575000Y34450001I0J85000D01*
G01*
X96575000Y35130001D01*
G75*
G02*
X96660000Y35215001I85000J0D01*
G01*
G37*
G36*
G01*
X96660000Y33634999D02*
X97340000Y33634999D01*
G75*
G02*
X97425000Y33549999I0J-85000D01*
G01*
X97425000Y32869999D01*
G75*
G02*
X97340000Y32784999I-85000J0D01*
G01*
X96660000Y32784999D01*
G75*
G02*
X96575000Y32869999I0J85000D01*
G01*
X96575000Y33549999D01*
G75*
G02*
X96660000Y33634999I85000J0D01*
G01*
G37*
G04 #@! TD*
G04 #@! TO.C,C29*
G36*
G01*
X54284999Y76742023D02*
X54284999Y77422023D01*
G75*
G02*
X54369999Y77507023I85000J0D01*
G01*
X55049999Y77507023D01*
G75*
G02*
X55134999Y77422023I0J-85000D01*
G01*
X55134999Y76742023D01*
G75*
G02*
X55049999Y76657023I-85000J0D01*
G01*
X54369999Y76657023D01*
G75*
G02*
X54284999Y76742023I0J85000D01*
G01*
G37*
G36*
G01*
X55865001Y76742023D02*
X55865001Y77422023D01*
G75*
G02*
X55950001Y77507023I85000J0D01*
G01*
X56630001Y77507023D01*
G75*
G02*
X56715001Y77422023I0J-85000D01*
G01*
X56715001Y76742023D01*
G75*
G02*
X56630001Y76657023I-85000J0D01*
G01*
X55950001Y76657023D01*
G75*
G02*
X55865001Y76742023I0J85000D01*
G01*
G37*
G04 #@! TD*
G04 #@! TO.C,R34*
G36*
G01*
X6290000Y40650000D02*
X5510000Y40650000D01*
G75*
G02*
X5440000Y40720000I0J70000D01*
G01*
X5440000Y41280000D01*
G75*
G02*
X5510000Y41350000I70000J0D01*
G01*
X6290000Y41350000D01*
G75*
G02*
X6360000Y41280000I0J-70000D01*
G01*
X6360000Y40720000D01*
G75*
G02*
X6290000Y40650000I-70000J0D01*
G01*
G37*
G36*
G01*
X6290000Y42250000D02*
X5510000Y42250000D01*
G75*
G02*
X5440000Y42320000I0J70000D01*
G01*
X5440000Y42880000D01*
G75*
G02*
X5510000Y42950000I70000J0D01*
G01*
X6290000Y42950000D01*
G75*
G02*
X6360000Y42880000I0J-70000D01*
G01*
X6360000Y42320000D01*
G75*
G02*
X6290000Y42250000I-70000J0D01*
G01*
G37*
G04 #@! TD*
G04 #@! TO.C,C17*
G36*
G01*
X16075000Y11000000D02*
X17125000Y11000000D01*
G75*
G02*
X17225000Y10900000I0J-100000D01*
G01*
X17225000Y10100000D01*
G75*
G02*
X17125000Y10000000I-100000J0D01*
G01*
X16075000Y10000000D01*
G75*
G02*
X15975000Y10100000I0J100000D01*
G01*
X15975000Y10900000D01*
G75*
G02*
X16075000Y11000000I100000J0D01*
G01*
G37*
G36*
G01*
X16075000Y9000000D02*
X17125000Y9000000D01*
G75*
G02*
X17225000Y8900000I0J-100000D01*
G01*
X17225000Y8100000D01*
G75*
G02*
X17125000Y8000000I-100000J0D01*
G01*
X16075000Y8000000D01*
G75*
G02*
X15975000Y8100000I0J100000D01*
G01*
X15975000Y8900000D01*
G75*
G02*
X16075000Y9000000I100000J0D01*
G01*
G37*
G04 #@! TD*
G04 #@! TO.C,R20*
G36*
G01*
X27475000Y63825000D02*
X27475000Y60975000D01*
G75*
G02*
X27225000Y60725000I-250000J0D01*
G01*
X26500000Y60725000D01*
G75*
G02*
X26250000Y60975000I0J250000D01*
G01*
X26250000Y63825000D01*
G75*
G02*
X26500000Y64075000I250000J0D01*
G01*
X27225000Y64075000D01*
G75*
G02*
X27475000Y63825000I0J-250000D01*
G01*
G37*
G36*
G01*
X21550000Y63825000D02*
X21550000Y60975000D01*
G75*
G02*
X21300000Y60725000I-250000J0D01*
G01*
X20575000Y60725000D01*
G75*
G02*
X20325000Y60975000I0J250000D01*
G01*
X20325000Y63825000D01*
G75*
G02*
X20575000Y64075000I250000J0D01*
G01*
X21300000Y64075000D01*
G75*
G02*
X21550000Y63825000I0J-250000D01*
G01*
G37*
G04 #@! TD*
G04 #@! TO.C,C3*
G36*
G01*
X7600000Y20460000D02*
X8650000Y20460000D01*
G75*
G02*
X8750000Y20360000I0J-100000D01*
G01*
X8750000Y19560000D01*
G75*
G02*
X8650000Y19460000I-100000J0D01*
G01*
X7600000Y19460000D01*
G75*
G02*
X7500000Y19560000I0J100000D01*
G01*
X7500000Y20360000D01*
G75*
G02*
X7600000Y20460000I100000J0D01*
G01*
G37*
G36*
G01*
X7600000Y18460000D02*
X8650000Y18460000D01*
G75*
G02*
X8750000Y18360000I0J-100000D01*
G01*
X8750000Y17560000D01*
G75*
G02*
X8650000Y17460000I-100000J0D01*
G01*
X7600000Y17460000D01*
G75*
G02*
X7500000Y17560000I0J100000D01*
G01*
X7500000Y18360000D01*
G75*
G02*
X7600000Y18460000I100000J0D01*
G01*
G37*
G04 #@! TD*
G04 #@! TO.C,C23*
G36*
G01*
X19125000Y4000000D02*
X18075000Y4000000D01*
G75*
G02*
X17975000Y4100000I0J100000D01*
G01*
X17975000Y4900000D01*
G75*
G02*
X18075000Y5000000I100000J0D01*
G01*
X19125000Y5000000D01*
G75*
G02*
X19225000Y4900000I0J-100000D01*
G01*
X19225000Y4100000D01*
G75*
G02*
X19125000Y4000000I-100000J0D01*
G01*
G37*
G36*
G01*
X19125000Y6000000D02*
X18075000Y6000000D01*
G75*
G02*
X17975000Y6100000I0J100000D01*
G01*
X17975000Y6900000D01*
G75*
G02*
X18075000Y7000000I100000J0D01*
G01*
X19125000Y7000000D01*
G75*
G02*
X19225000Y6900000I0J-100000D01*
G01*
X19225000Y6100000D01*
G75*
G02*
X19125000Y6000000I-100000J0D01*
G01*
G37*
G04 #@! TD*
G04 #@! TO.C,U4*
G36*
G01*
X53445000Y75250000D02*
X53745000Y75250000D01*
G75*
G02*
X53895000Y75100000I0J-150000D01*
G01*
X53895000Y73450000D01*
G75*
G02*
X53745000Y73300000I-150000J0D01*
G01*
X53445000Y73300000D01*
G75*
G02*
X53295000Y73450000I0J150000D01*
G01*
X53295000Y75100000D01*
G75*
G02*
X53445000Y75250000I150000J0D01*
G01*
G37*
G36*
G01*
X54715000Y75250000D02*
X55015000Y75250000D01*
G75*
G02*
X55165000Y75100000I0J-150000D01*
G01*
X55165000Y73450000D01*
G75*
G02*
X55015000Y73300000I-150000J0D01*
G01*
X54715000Y73300000D01*
G75*
G02*
X54565000Y73450000I0J150000D01*
G01*
X54565000Y75100000D01*
G75*
G02*
X54715000Y75250000I150000J0D01*
G01*
G37*
G36*
G01*
X55985000Y75250000D02*
X56285000Y75250000D01*
G75*
G02*
X56435000Y75100000I0J-150000D01*
G01*
X56435000Y73450000D01*
G75*
G02*
X56285000Y73300000I-150000J0D01*
G01*
X55985000Y73300000D01*
G75*
G02*
X55835000Y73450000I0J150000D01*
G01*
X55835000Y75100000D01*
G75*
G02*
X55985000Y75250000I150000J0D01*
G01*
G37*
G36*
G01*
X57255000Y75250000D02*
X57555000Y75250000D01*
G75*
G02*
X57705000Y75100000I0J-150000D01*
G01*
X57705000Y73450000D01*
G75*
G02*
X57555000Y73300000I-150000J0D01*
G01*
X57255000Y73300000D01*
G75*
G02*
X57105000Y73450000I0J150000D01*
G01*
X57105000Y75100000D01*
G75*
G02*
X57255000Y75250000I150000J0D01*
G01*
G37*
G36*
G01*
X57255000Y70300000D02*
X57555000Y70300000D01*
G75*
G02*
X57705000Y70150000I0J-150000D01*
G01*
X57705000Y68500000D01*
G75*
G02*
X57555000Y68350000I-150000J0D01*
G01*
X57255000Y68350000D01*
G75*
G02*
X57105000Y68500000I0J150000D01*
G01*
X57105000Y70150000D01*
G75*
G02*
X57255000Y70300000I150000J0D01*
G01*
G37*
G36*
G01*
X55985000Y70300000D02*
X56285000Y70300000D01*
G75*
G02*
X56435000Y70150000I0J-150000D01*
G01*
X56435000Y68500000D01*
G75*
G02*
X56285000Y68350000I-150000J0D01*
G01*
X55985000Y68350000D01*
G75*
G02*
X55835000Y68500000I0J150000D01*
G01*
X55835000Y70150000D01*
G75*
G02*
X55985000Y70300000I150000J0D01*
G01*
G37*
G36*
G01*
X54715000Y70300000D02*
X55015000Y70300000D01*
G75*
G02*
X55165000Y70150000I0J-150000D01*
G01*
X55165000Y68500000D01*
G75*
G02*
X55015000Y68350000I-150000J0D01*
G01*
X54715000Y68350000D01*
G75*
G02*
X54565000Y68500000I0J150000D01*
G01*
X54565000Y70150000D01*
G75*
G02*
X54715000Y70300000I150000J0D01*
G01*
G37*
G36*
G01*
X53445000Y70300000D02*
X53745000Y70300000D01*
G75*
G02*
X53895000Y70150000I0J-150000D01*
G01*
X53895000Y68500000D01*
G75*
G02*
X53745000Y68350000I-150000J0D01*
G01*
X53445000Y68350000D01*
G75*
G02*
X53295000Y68500000I0J150000D01*
G01*
X53295000Y70150000D01*
G75*
G02*
X53445000Y70300000I150000J0D01*
G01*
G37*
G04 #@! TD*
G04 #@! TO.C,C1*
G36*
G01*
X3600000Y20460000D02*
X4650000Y20460000D01*
G75*
G02*
X4750000Y20360000I0J-100000D01*
G01*
X4750000Y19560000D01*
G75*
G02*
X4650000Y19460000I-100000J0D01*
G01*
X3600000Y19460000D01*
G75*
G02*
X3500000Y19560000I0J100000D01*
G01*
X3500000Y20360000D01*
G75*
G02*
X3600000Y20460000I100000J0D01*
G01*
G37*
G36*
G01*
X3600000Y18460000D02*
X4650000Y18460000D01*
G75*
G02*
X4750000Y18360000I0J-100000D01*
G01*
X4750000Y17560000D01*
G75*
G02*
X4650000Y17460000I-100000J0D01*
G01*
X3600000Y17460000D01*
G75*
G02*
X3500000Y17560000I0J100000D01*
G01*
X3500000Y18360000D01*
G75*
G02*
X3600000Y18460000I100000J0D01*
G01*
G37*
G04 #@! TD*
G04 #@! TO.C,R26*
G36*
G01*
X27475000Y42825000D02*
X27475000Y39975000D01*
G75*
G02*
X27225000Y39725000I-250000J0D01*
G01*
X26500000Y39725000D01*
G75*
G02*
X26250000Y39975000I0J250000D01*
G01*
X26250000Y42825000D01*
G75*
G02*
X26500000Y43075000I250000J0D01*
G01*
X27225000Y43075000D01*
G75*
G02*
X27475000Y42825000I0J-250000D01*
G01*
G37*
G36*
G01*
X21550000Y42825000D02*
X21550000Y39975000D01*
G75*
G02*
X21300000Y39725000I-250000J0D01*
G01*
X20575000Y39725000D01*
G75*
G02*
X20325000Y39975000I0J250000D01*
G01*
X20325000Y42825000D01*
G75*
G02*
X20575000Y43075000I250000J0D01*
G01*
X21300000Y43075000D01*
G75*
G02*
X21550000Y42825000I0J-250000D01*
G01*
G37*
G04 #@! TD*
G04 #@! TO.C,U11*
G36*
G01*
X1095000Y54350000D02*
X1395000Y54350000D01*
G75*
G02*
X1545000Y54200000I0J-150000D01*
G01*
X1545000Y52550000D01*
G75*
G02*
X1395000Y52400000I-150000J0D01*
G01*
X1095000Y52400000D01*
G75*
G02*
X945000Y52550000I0J150000D01*
G01*
X945000Y54200000D01*
G75*
G02*
X1095000Y54350000I150000J0D01*
G01*
G37*
G36*
G01*
X2365000Y54350000D02*
X2665000Y54350000D01*
G75*
G02*
X2815000Y54200000I0J-150000D01*
G01*
X2815000Y52550000D01*
G75*
G02*
X2665000Y52400000I-150000J0D01*
G01*
X2365000Y52400000D01*
G75*
G02*
X2215000Y52550000I0J150000D01*
G01*
X2215000Y54200000D01*
G75*
G02*
X2365000Y54350000I150000J0D01*
G01*
G37*
G36*
G01*
X3635000Y54350000D02*
X3935000Y54350000D01*
G75*
G02*
X4085000Y54200000I0J-150000D01*
G01*
X4085000Y52550000D01*
G75*
G02*
X3935000Y52400000I-150000J0D01*
G01*
X3635000Y52400000D01*
G75*
G02*
X3485000Y52550000I0J150000D01*
G01*
X3485000Y54200000D01*
G75*
G02*
X3635000Y54350000I150000J0D01*
G01*
G37*
G36*
G01*
X4905000Y54350000D02*
X5205000Y54350000D01*
G75*
G02*
X5355000Y54200000I0J-150000D01*
G01*
X5355000Y52550000D01*
G75*
G02*
X5205000Y52400000I-150000J0D01*
G01*
X4905000Y52400000D01*
G75*
G02*
X4755000Y52550000I0J150000D01*
G01*
X4755000Y54200000D01*
G75*
G02*
X4905000Y54350000I150000J0D01*
G01*
G37*
G36*
G01*
X4905000Y49400000D02*
X5205000Y49400000D01*
G75*
G02*
X5355000Y49250000I0J-150000D01*
G01*
X5355000Y47600000D01*
G75*
G02*
X5205000Y47450000I-150000J0D01*
G01*
X4905000Y47450000D01*
G75*
G02*
X4755000Y47600000I0J150000D01*
G01*
X4755000Y49250000D01*
G75*
G02*
X4905000Y49400000I150000J0D01*
G01*
G37*
G36*
G01*
X3635000Y49400000D02*
X3935000Y49400000D01*
G75*
G02*
X4085000Y49250000I0J-150000D01*
G01*
X4085000Y47600000D01*
G75*
G02*
X3935000Y47450000I-150000J0D01*
G01*
X3635000Y47450000D01*
G75*
G02*
X3485000Y47600000I0J150000D01*
G01*
X3485000Y49250000D01*
G75*
G02*
X3635000Y49400000I150000J0D01*
G01*
G37*
G36*
G01*
X2365000Y49400000D02*
X2665000Y49400000D01*
G75*
G02*
X2815000Y49250000I0J-150000D01*
G01*
X2815000Y47600000D01*
G75*
G02*
X2665000Y47450000I-150000J0D01*
G01*
X2365000Y47450000D01*
G75*
G02*
X2215000Y47600000I0J150000D01*
G01*
X2215000Y49250000D01*
G75*
G02*
X2365000Y49400000I150000J0D01*
G01*
G37*
G36*
G01*
X1095000Y49400000D02*
X1395000Y49400000D01*
G75*
G02*
X1545000Y49250000I0J-150000D01*
G01*
X1545000Y47600000D01*
G75*
G02*
X1395000Y47450000I-150000J0D01*
G01*
X1095000Y47450000D01*
G75*
G02*
X945000Y47600000I0J150000D01*
G01*
X945000Y49250000D01*
G75*
G02*
X1095000Y49400000I150000J0D01*
G01*
G37*
G04 #@! TD*
G04 #@! TO.C,C31*
G36*
G01*
X59940000Y72284999D02*
X59260000Y72284999D01*
G75*
G02*
X59175000Y72369999I0J85000D01*
G01*
X59175000Y73049999D01*
G75*
G02*
X59260000Y73134999I85000J0D01*
G01*
X59940000Y73134999D01*
G75*
G02*
X60025000Y73049999I0J-85000D01*
G01*
X60025000Y72369999D01*
G75*
G02*
X59940000Y72284999I-85000J0D01*
G01*
G37*
G36*
G01*
X59940000Y73865001D02*
X59260000Y73865001D01*
G75*
G02*
X59175000Y73950001I0J85000D01*
G01*
X59175000Y74630001D01*
G75*
G02*
X59260000Y74715001I85000J0D01*
G01*
X59940000Y74715001D01*
G75*
G02*
X60025000Y74630001I0J-85000D01*
G01*
X60025000Y73950001D01*
G75*
G02*
X59940000Y73865001I-85000J0D01*
G01*
G37*
G04 #@! TD*
G04 #@! TO.C,F9*
G36*
G01*
X29843750Y35675000D02*
X30356250Y35675000D01*
G75*
G02*
X30575000Y35456250I0J-218750D01*
G01*
X30575000Y35018750D01*
G75*
G02*
X30356250Y34800000I-218750J0D01*
G01*
X29843750Y34800000D01*
G75*
G02*
X29625000Y35018750I0J218750D01*
G01*
X29625000Y35456250D01*
G75*
G02*
X29843750Y35675000I218750J0D01*
G01*
G37*
G36*
G01*
X29843750Y34100000D02*
X30356250Y34100000D01*
G75*
G02*
X30575000Y33881250I0J-218750D01*
G01*
X30575000Y33443750D01*
G75*
G02*
X30356250Y33225000I-218750J0D01*
G01*
X29843750Y33225000D01*
G75*
G02*
X29625000Y33443750I0J218750D01*
G01*
X29625000Y33881250D01*
G75*
G02*
X29843750Y34100000I218750J0D01*
G01*
G37*
G04 #@! TD*
G04 #@! TO.C,C14*
G36*
G01*
X10075000Y11000000D02*
X11125000Y11000000D01*
G75*
G02*
X11225000Y10900000I0J-100000D01*
G01*
X11225000Y10100000D01*
G75*
G02*
X11125000Y10000000I-100000J0D01*
G01*
X10075000Y10000000D01*
G75*
G02*
X9975000Y10100000I0J100000D01*
G01*
X9975000Y10900000D01*
G75*
G02*
X10075000Y11000000I100000J0D01*
G01*
G37*
G36*
G01*
X10075000Y9000000D02*
X11125000Y9000000D01*
G75*
G02*
X11225000Y8900000I0J-100000D01*
G01*
X11225000Y8100000D01*
G75*
G02*
X11125000Y8000000I-100000J0D01*
G01*
X10075000Y8000000D01*
G75*
G02*
X9975000Y8100000I0J100000D01*
G01*
X9975000Y8900000D01*
G75*
G02*
X10075000Y9000000I100000J0D01*
G01*
G37*
G04 #@! TD*
G04 #@! TO.C,C19*
G36*
G01*
X11125000Y4000000D02*
X10075000Y4000000D01*
G75*
G02*
X9975000Y4100000I0J100000D01*
G01*
X9975000Y4900000D01*
G75*
G02*
X10075000Y5000000I100000J0D01*
G01*
X11125000Y5000000D01*
G75*
G02*
X11225000Y4900000I0J-100000D01*
G01*
X11225000Y4100000D01*
G75*
G02*
X11125000Y4000000I-100000J0D01*
G01*
G37*
G36*
G01*
X11125000Y6000000D02*
X10075000Y6000000D01*
G75*
G02*
X9975000Y6100000I0J100000D01*
G01*
X9975000Y6900000D01*
G75*
G02*
X10075000Y7000000I100000J0D01*
G01*
X11125000Y7000000D01*
G75*
G02*
X11225000Y6900000I0J-100000D01*
G01*
X11225000Y6100000D01*
G75*
G02*
X11125000Y6000000I-100000J0D01*
G01*
G37*
G04 #@! TD*
G04 #@! TO.C,F6*
G36*
G01*
X29793750Y63625000D02*
X30306250Y63625000D01*
G75*
G02*
X30525000Y63406250I0J-218750D01*
G01*
X30525000Y62968750D01*
G75*
G02*
X30306250Y62750000I-218750J0D01*
G01*
X29793750Y62750000D01*
G75*
G02*
X29575000Y62968750I0J218750D01*
G01*
X29575000Y63406250D01*
G75*
G02*
X29793750Y63625000I218750J0D01*
G01*
G37*
G36*
G01*
X29793750Y62050000D02*
X30306250Y62050000D01*
G75*
G02*
X30525000Y61831250I0J-218750D01*
G01*
X30525000Y61393750D01*
G75*
G02*
X30306250Y61175000I-218750J0D01*
G01*
X29793750Y61175000D01*
G75*
G02*
X29575000Y61393750I0J218750D01*
G01*
X29575000Y61831250D01*
G75*
G02*
X29793750Y62050000I218750J0D01*
G01*
G37*
G04 #@! TD*
G04 #@! TO.C,R27*
G36*
G01*
X27475000Y35825000D02*
X27475000Y32975000D01*
G75*
G02*
X27225000Y32725000I-250000J0D01*
G01*
X26500000Y32725000D01*
G75*
G02*
X26250000Y32975000I0J250000D01*
G01*
X26250000Y35825000D01*
G75*
G02*
X26500000Y36075000I250000J0D01*
G01*
X27225000Y36075000D01*
G75*
G02*
X27475000Y35825000I0J-250000D01*
G01*
G37*
G36*
G01*
X21550000Y35825000D02*
X21550000Y32975000D01*
G75*
G02*
X21300000Y32725000I-250000J0D01*
G01*
X20575000Y32725000D01*
G75*
G02*
X20325000Y32975000I0J250000D01*
G01*
X20325000Y35825000D01*
G75*
G02*
X20575000Y36075000I250000J0D01*
G01*
X21300000Y36075000D01*
G75*
G02*
X21550000Y35825000I0J-250000D01*
G01*
G37*
G04 #@! TD*
G04 #@! TO.C,R21*
G36*
G01*
X27475000Y56825000D02*
X27475000Y53975000D01*
G75*
G02*
X27225000Y53725000I-250000J0D01*
G01*
X26500000Y53725000D01*
G75*
G02*
X26250000Y53975000I0J250000D01*
G01*
X26250000Y56825000D01*
G75*
G02*
X26500000Y57075000I250000J0D01*
G01*
X27225000Y57075000D01*
G75*
G02*
X27475000Y56825000I0J-250000D01*
G01*
G37*
G36*
G01*
X21550000Y56825000D02*
X21550000Y53975000D01*
G75*
G02*
X21300000Y53725000I-250000J0D01*
G01*
X20575000Y53725000D01*
G75*
G02*
X20325000Y53975000I0J250000D01*
G01*
X20325000Y56825000D01*
G75*
G02*
X20575000Y57075000I250000J0D01*
G01*
X21300000Y57075000D01*
G75*
G02*
X21550000Y56825000I0J-250000D01*
G01*
G37*
G04 #@! TD*
G04 #@! TO.C,C4*
G36*
G01*
X9600000Y20460000D02*
X10650000Y20460000D01*
G75*
G02*
X10750000Y20360000I0J-100000D01*
G01*
X10750000Y19560000D01*
G75*
G02*
X10650000Y19460000I-100000J0D01*
G01*
X9600000Y19460000D01*
G75*
G02*
X9500000Y19560000I0J100000D01*
G01*
X9500000Y20360000D01*
G75*
G02*
X9600000Y20460000I100000J0D01*
G01*
G37*
G36*
G01*
X9600000Y18460000D02*
X10650000Y18460000D01*
G75*
G02*
X10750000Y18360000I0J-100000D01*
G01*
X10750000Y17560000D01*
G75*
G02*
X10650000Y17460000I-100000J0D01*
G01*
X9600000Y17460000D01*
G75*
G02*
X9500000Y17560000I0J100000D01*
G01*
X9500000Y18360000D01*
G75*
G02*
X9600000Y18460000I100000J0D01*
G01*
G37*
G04 #@! TD*
G04 #@! TO.C,F10*
G36*
G01*
X82893750Y33675000D02*
X83406250Y33675000D01*
G75*
G02*
X83625000Y33456250I0J-218750D01*
G01*
X83625000Y33018750D01*
G75*
G02*
X83406250Y32800000I-218750J0D01*
G01*
X82893750Y32800000D01*
G75*
G02*
X82675000Y33018750I0J218750D01*
G01*
X82675000Y33456250D01*
G75*
G02*
X82893750Y33675000I218750J0D01*
G01*
G37*
G36*
G01*
X82893750Y32100000D02*
X83406250Y32100000D01*
G75*
G02*
X83625000Y31881250I0J-218750D01*
G01*
X83625000Y31443750D01*
G75*
G02*
X83406250Y31225000I-218750J0D01*
G01*
X82893750Y31225000D01*
G75*
G02*
X82675000Y31443750I0J218750D01*
G01*
X82675000Y31881250D01*
G75*
G02*
X82893750Y32100000I218750J0D01*
G01*
G37*
G04 #@! TD*
G04 #@! TO.C,D2*
G36*
G01*
X19510000Y68400000D02*
X18490000Y68400000D01*
G75*
G02*
X18400000Y68490000I0J90000D01*
G01*
X18400000Y69210000D01*
G75*
G02*
X18490000Y69300000I90000J0D01*
G01*
X19510000Y69300000D01*
G75*
G02*
X19600000Y69210000I0J-90000D01*
G01*
X19600000Y68490000D01*
G75*
G02*
X19510000Y68400000I-90000J0D01*
G01*
G37*
G36*
G01*
X19510000Y71700000D02*
X18490000Y71700000D01*
G75*
G02*
X18400000Y71790000I0J90000D01*
G01*
X18400000Y72510000D01*
G75*
G02*
X18490000Y72600000I90000J0D01*
G01*
X19510000Y72600000D01*
G75*
G02*
X19600000Y72510000I0J-90000D01*
G01*
X19600000Y71790000D01*
G75*
G02*
X19510000Y71700000I-90000J0D01*
G01*
G37*
G04 #@! TD*
G04 #@! TO.C,D1*
G36*
G01*
X87140000Y15700000D02*
X86660000Y15700000D01*
G75*
G02*
X86600000Y15760000I0J60000D01*
G01*
X86600000Y16240000D01*
G75*
G02*
X86660000Y16300000I60000J0D01*
G01*
X87140000Y16300000D01*
G75*
G02*
X87200000Y16240000I0J-60000D01*
G01*
X87200000Y15760000D01*
G75*
G02*
X87140000Y15700000I-60000J0D01*
G01*
G37*
G36*
G01*
X89340000Y15700000D02*
X88860000Y15700000D01*
G75*
G02*
X88800000Y15760000I0J60000D01*
G01*
X88800000Y16240000D01*
G75*
G02*
X88860000Y16300000I60000J0D01*
G01*
X89340000Y16300000D01*
G75*
G02*
X89400000Y16240000I0J-60000D01*
G01*
X89400000Y15760000D01*
G75*
G02*
X89340000Y15700000I-60000J0D01*
G01*
G37*
G04 #@! TD*
G04 #@! TO.C,R19*
G36*
G01*
X28902500Y47250000D02*
X28122500Y47250000D01*
G75*
G02*
X28052500Y47320000I0J70000D01*
G01*
X28052500Y47880000D01*
G75*
G02*
X28122500Y47950000I70000J0D01*
G01*
X28902500Y47950000D01*
G75*
G02*
X28972500Y47880000I0J-70000D01*
G01*
X28972500Y47320000D01*
G75*
G02*
X28902500Y47250000I-70000J0D01*
G01*
G37*
G36*
G01*
X28902500Y48850000D02*
X28122500Y48850000D01*
G75*
G02*
X28052500Y48920000I0J70000D01*
G01*
X28052500Y49480000D01*
G75*
G02*
X28122500Y49550000I70000J0D01*
G01*
X28902500Y49550000D01*
G75*
G02*
X28972500Y49480000I0J-70000D01*
G01*
X28972500Y48920000D01*
G75*
G02*
X28902500Y48850000I-70000J0D01*
G01*
G37*
G04 #@! TD*
G04 #@! TO.C,R33*
G36*
G01*
X31610000Y29150000D02*
X32390000Y29150000D01*
G75*
G02*
X32460000Y29080000I0J-70000D01*
G01*
X32460000Y28520000D01*
G75*
G02*
X32390000Y28450000I-70000J0D01*
G01*
X31610000Y28450000D01*
G75*
G02*
X31540000Y28520000I0J70000D01*
G01*
X31540000Y29080000D01*
G75*
G02*
X31610000Y29150000I70000J0D01*
G01*
G37*
G36*
G01*
X31610000Y27550000D02*
X32390000Y27550000D01*
G75*
G02*
X32460000Y27480000I0J-70000D01*
G01*
X32460000Y26920000D01*
G75*
G02*
X32390000Y26850000I-70000J0D01*
G01*
X31610000Y26850000D01*
G75*
G02*
X31540000Y26920000I0J70000D01*
G01*
X31540000Y27480000D01*
G75*
G02*
X31610000Y27550000I70000J0D01*
G01*
G37*
G04 #@! TD*
G04 #@! TO.C,C21*
G36*
G01*
X15125000Y4000000D02*
X14075000Y4000000D01*
G75*
G02*
X13975000Y4100000I0J100000D01*
G01*
X13975000Y4900000D01*
G75*
G02*
X14075000Y5000000I100000J0D01*
G01*
X15125000Y5000000D01*
G75*
G02*
X15225000Y4900000I0J-100000D01*
G01*
X15225000Y4100000D01*
G75*
G02*
X15125000Y4000000I-100000J0D01*
G01*
G37*
G36*
G01*
X15125000Y6000000D02*
X14075000Y6000000D01*
G75*
G02*
X13975000Y6100000I0J100000D01*
G01*
X13975000Y6900000D01*
G75*
G02*
X14075000Y7000000I100000J0D01*
G01*
X15125000Y7000000D01*
G75*
G02*
X15225000Y6900000I0J-100000D01*
G01*
X15225000Y6100000D01*
G75*
G02*
X15125000Y6000000I-100000J0D01*
G01*
G37*
G04 #@! TD*
G04 #@! TO.C,F8*
G36*
G01*
X29843750Y42675000D02*
X30356250Y42675000D01*
G75*
G02*
X30575000Y42456250I0J-218750D01*
G01*
X30575000Y42018750D01*
G75*
G02*
X30356250Y41800000I-218750J0D01*
G01*
X29843750Y41800000D01*
G75*
G02*
X29625000Y42018750I0J218750D01*
G01*
X29625000Y42456250D01*
G75*
G02*
X29843750Y42675000I218750J0D01*
G01*
G37*
G36*
G01*
X29843750Y41100000D02*
X30356250Y41100000D01*
G75*
G02*
X30575000Y40881250I0J-218750D01*
G01*
X30575000Y40443750D01*
G75*
G02*
X30356250Y40225000I-218750J0D01*
G01*
X29843750Y40225000D01*
G75*
G02*
X29625000Y40443750I0J218750D01*
G01*
X29625000Y40881250D01*
G75*
G02*
X29843750Y41100000I218750J0D01*
G01*
G37*
G04 #@! TD*
G04 #@! TO.C,R23*
G36*
G01*
X28902500Y40250000D02*
X28122500Y40250000D01*
G75*
G02*
X28052500Y40320000I0J70000D01*
G01*
X28052500Y40880000D01*
G75*
G02*
X28122500Y40950000I70000J0D01*
G01*
X28902500Y40950000D01*
G75*
G02*
X28972500Y40880000I0J-70000D01*
G01*
X28972500Y40320000D01*
G75*
G02*
X28902500Y40250000I-70000J0D01*
G01*
G37*
G36*
G01*
X28902500Y41850000D02*
X28122500Y41850000D01*
G75*
G02*
X28052500Y41920000I0J70000D01*
G01*
X28052500Y42480000D01*
G75*
G02*
X28122500Y42550000I70000J0D01*
G01*
X28902500Y42550000D01*
G75*
G02*
X28972500Y42480000I0J-70000D01*
G01*
X28972500Y41920000D01*
G75*
G02*
X28902500Y41850000I-70000J0D01*
G01*
G37*
G04 #@! TD*
G04 #@! TO.C,R7*
G36*
G01*
X49390000Y3228318D02*
X48610000Y3228318D01*
G75*
G02*
X48540000Y3298318I0J70000D01*
G01*
X48540000Y3858318D01*
G75*
G02*
X48610000Y3928318I70000J0D01*
G01*
X49390000Y3928318D01*
G75*
G02*
X49460000Y3858318I0J-70000D01*
G01*
X49460000Y3298318D01*
G75*
G02*
X49390000Y3228318I-70000J0D01*
G01*
G37*
G36*
G01*
X49390000Y4828318D02*
X48610000Y4828318D01*
G75*
G02*
X48540000Y4898318I0J70000D01*
G01*
X48540000Y5458318D01*
G75*
G02*
X48610000Y5528318I70000J0D01*
G01*
X49390000Y5528318D01*
G75*
G02*
X49460000Y5458318I0J-70000D01*
G01*
X49460000Y4898318D01*
G75*
G02*
X49390000Y4828318I-70000J0D01*
G01*
G37*
G04 #@! TD*
G04 #@! TO.C,R24*
G36*
G01*
X28902500Y33250000D02*
X28122500Y33250000D01*
G75*
G02*
X28052500Y33320000I0J70000D01*
G01*
X28052500Y33880000D01*
G75*
G02*
X28122500Y33950000I70000J0D01*
G01*
X28902500Y33950000D01*
G75*
G02*
X28972500Y33880000I0J-70000D01*
G01*
X28972500Y33320000D01*
G75*
G02*
X28902500Y33250000I-70000J0D01*
G01*
G37*
G36*
G01*
X28902500Y34850000D02*
X28122500Y34850000D01*
G75*
G02*
X28052500Y34920000I0J70000D01*
G01*
X28052500Y35480000D01*
G75*
G02*
X28122500Y35550000I70000J0D01*
G01*
X28902500Y35550000D01*
G75*
G02*
X28972500Y35480000I0J-70000D01*
G01*
X28972500Y34920000D01*
G75*
G02*
X28902500Y34850000I-70000J0D01*
G01*
G37*
G04 #@! TD*
G04 #@! TO.C,F7*
G36*
G01*
X29893750Y49625000D02*
X30406250Y49625000D01*
G75*
G02*
X30625000Y49406250I0J-218750D01*
G01*
X30625000Y48968750D01*
G75*
G02*
X30406250Y48750000I-218750J0D01*
G01*
X29893750Y48750000D01*
G75*
G02*
X29675000Y48968750I0J218750D01*
G01*
X29675000Y49406250D01*
G75*
G02*
X29893750Y49625000I218750J0D01*
G01*
G37*
G36*
G01*
X29893750Y48050000D02*
X30406250Y48050000D01*
G75*
G02*
X30625000Y47831250I0J-218750D01*
G01*
X30625000Y47393750D01*
G75*
G02*
X30406250Y47175000I-218750J0D01*
G01*
X29893750Y47175000D01*
G75*
G02*
X29675000Y47393750I0J218750D01*
G01*
X29675000Y47831250D01*
G75*
G02*
X29893750Y48050000I218750J0D01*
G01*
G37*
G04 #@! TD*
G04 #@! TO.C,C32*
G36*
G01*
X61740000Y72284999D02*
X61060000Y72284999D01*
G75*
G02*
X60975000Y72369999I0J85000D01*
G01*
X60975000Y73049999D01*
G75*
G02*
X61060000Y73134999I85000J0D01*
G01*
X61740000Y73134999D01*
G75*
G02*
X61825000Y73049999I0J-85000D01*
G01*
X61825000Y72369999D01*
G75*
G02*
X61740000Y72284999I-85000J0D01*
G01*
G37*
G36*
G01*
X61740000Y73865001D02*
X61060000Y73865001D01*
G75*
G02*
X60975000Y73950001I0J85000D01*
G01*
X60975000Y74630001D01*
G75*
G02*
X61060000Y74715001I85000J0D01*
G01*
X61740000Y74715001D01*
G75*
G02*
X61825000Y74630001I0J-85000D01*
G01*
X61825000Y73950001D01*
G75*
G02*
X61740000Y73865001I-85000J0D01*
G01*
G37*
G04 #@! TD*
G04 #@! TO.C,R16*
G36*
G01*
X5440000Y88700000D02*
X4660000Y88700000D01*
G75*
G02*
X4590000Y88770000I0J70000D01*
G01*
X4590000Y89330000D01*
G75*
G02*
X4660000Y89400000I70000J0D01*
G01*
X5440000Y89400000D01*
G75*
G02*
X5510000Y89330000I0J-70000D01*
G01*
X5510000Y88770000D01*
G75*
G02*
X5440000Y88700000I-70000J0D01*
G01*
G37*
G36*
G01*
X5440000Y90300000D02*
X4660000Y90300000D01*
G75*
G02*
X4590000Y90370000I0J70000D01*
G01*
X4590000Y90930000D01*
G75*
G02*
X4660000Y91000000I70000J0D01*
G01*
X5440000Y91000000D01*
G75*
G02*
X5510000Y90930000I0J-70000D01*
G01*
X5510000Y90370000D01*
G75*
G02*
X5440000Y90300000I-70000J0D01*
G01*
G37*
G04 #@! TD*
G04 #@! TO.C,U9*
G36*
G01*
X1095000Y71650000D02*
X1395000Y71650000D01*
G75*
G02*
X1545000Y71500000I0J-150000D01*
G01*
X1545000Y69850000D01*
G75*
G02*
X1395000Y69700000I-150000J0D01*
G01*
X1095000Y69700000D01*
G75*
G02*
X945000Y69850000I0J150000D01*
G01*
X945000Y71500000D01*
G75*
G02*
X1095000Y71650000I150000J0D01*
G01*
G37*
G36*
G01*
X2365000Y71650000D02*
X2665000Y71650000D01*
G75*
G02*
X2815000Y71500000I0J-150000D01*
G01*
X2815000Y69850000D01*
G75*
G02*
X2665000Y69700000I-150000J0D01*
G01*
X2365000Y69700000D01*
G75*
G02*
X2215000Y69850000I0J150000D01*
G01*
X2215000Y71500000D01*
G75*
G02*
X2365000Y71650000I150000J0D01*
G01*
G37*
G36*
G01*
X3635000Y71650000D02*
X3935000Y71650000D01*
G75*
G02*
X4085000Y71500000I0J-150000D01*
G01*
X4085000Y69850000D01*
G75*
G02*
X3935000Y69700000I-150000J0D01*
G01*
X3635000Y69700000D01*
G75*
G02*
X3485000Y69850000I0J150000D01*
G01*
X3485000Y71500000D01*
G75*
G02*
X3635000Y71650000I150000J0D01*
G01*
G37*
G36*
G01*
X4905000Y71650000D02*
X5205000Y71650000D01*
G75*
G02*
X5355000Y71500000I0J-150000D01*
G01*
X5355000Y69850000D01*
G75*
G02*
X5205000Y69700000I-150000J0D01*
G01*
X4905000Y69700000D01*
G75*
G02*
X4755000Y69850000I0J150000D01*
G01*
X4755000Y71500000D01*
G75*
G02*
X4905000Y71650000I150000J0D01*
G01*
G37*
G36*
G01*
X4905000Y66700000D02*
X5205000Y66700000D01*
G75*
G02*
X5355000Y66550000I0J-150000D01*
G01*
X5355000Y64900000D01*
G75*
G02*
X5205000Y64750000I-150000J0D01*
G01*
X4905000Y64750000D01*
G75*
G02*
X4755000Y64900000I0J150000D01*
G01*
X4755000Y66550000D01*
G75*
G02*
X4905000Y66700000I150000J0D01*
G01*
G37*
G36*
G01*
X3635000Y66700000D02*
X3935000Y66700000D01*
G75*
G02*
X4085000Y66550000I0J-150000D01*
G01*
X4085000Y64900000D01*
G75*
G02*
X3935000Y64750000I-150000J0D01*
G01*
X3635000Y64750000D01*
G75*
G02*
X3485000Y64900000I0J150000D01*
G01*
X3485000Y66550000D01*
G75*
G02*
X3635000Y66700000I150000J0D01*
G01*
G37*
G36*
G01*
X2365000Y66700000D02*
X2665000Y66700000D01*
G75*
G02*
X2815000Y66550000I0J-150000D01*
G01*
X2815000Y64900000D01*
G75*
G02*
X2665000Y64750000I-150000J0D01*
G01*
X2365000Y64750000D01*
G75*
G02*
X2215000Y64900000I0J150000D01*
G01*
X2215000Y66550000D01*
G75*
G02*
X2365000Y66700000I150000J0D01*
G01*
G37*
G36*
G01*
X1095000Y66700000D02*
X1395000Y66700000D01*
G75*
G02*
X1545000Y66550000I0J-150000D01*
G01*
X1545000Y64900000D01*
G75*
G02*
X1395000Y64750000I-150000J0D01*
G01*
X1095000Y64750000D01*
G75*
G02*
X945000Y64900000I0J150000D01*
G01*
X945000Y66550000D01*
G75*
G02*
X1095000Y66700000I150000J0D01*
G01*
G37*
G04 #@! TD*
G04 #@! TO.C,R30*
G36*
G01*
X36590000Y25000000D02*
X35810000Y25000000D01*
G75*
G02*
X35740000Y25070000I0J70000D01*
G01*
X35740000Y25630000D01*
G75*
G02*
X35810000Y25700000I70000J0D01*
G01*
X36590000Y25700000D01*
G75*
G02*
X36660000Y25630000I0J-70000D01*
G01*
X36660000Y25070000D01*
G75*
G02*
X36590000Y25000000I-70000J0D01*
G01*
G37*
G36*
G01*
X36590000Y26600000D02*
X35810000Y26600000D01*
G75*
G02*
X35740000Y26670000I0J70000D01*
G01*
X35740000Y27230000D01*
G75*
G02*
X35810000Y27300000I70000J0D01*
G01*
X36590000Y27300000D01*
G75*
G02*
X36660000Y27230000I0J-70000D01*
G01*
X36660000Y26670000D01*
G75*
G02*
X36590000Y26600000I-70000J0D01*
G01*
G37*
G04 #@! TD*
G04 #@! TO.C,R22*
G36*
G01*
X27475000Y49825000D02*
X27475000Y46975000D01*
G75*
G02*
X27225000Y46725000I-250000J0D01*
G01*
X26500000Y46725000D01*
G75*
G02*
X26250000Y46975000I0J250000D01*
G01*
X26250000Y49825000D01*
G75*
G02*
X26500000Y50075000I250000J0D01*
G01*
X27225000Y50075000D01*
G75*
G02*
X27475000Y49825000I0J-250000D01*
G01*
G37*
G36*
G01*
X21550000Y49825000D02*
X21550000Y46975000D01*
G75*
G02*
X21300000Y46725000I-250000J0D01*
G01*
X20575000Y46725000D01*
G75*
G02*
X20325000Y46975000I0J250000D01*
G01*
X20325000Y49825000D01*
G75*
G02*
X20575000Y50075000I250000J0D01*
G01*
X21300000Y50075000D01*
G75*
G02*
X21550000Y49825000I0J-250000D01*
G01*
G37*
G04 #@! TD*
G04 #@! TO.C,R25*
G36*
G01*
X28902500Y26250000D02*
X28122500Y26250000D01*
G75*
G02*
X28052500Y26320000I0J70000D01*
G01*
X28052500Y26880000D01*
G75*
G02*
X28122500Y26950000I70000J0D01*
G01*
X28902500Y26950000D01*
G75*
G02*
X28972500Y26880000I0J-70000D01*
G01*
X28972500Y26320000D01*
G75*
G02*
X28902500Y26250000I-70000J0D01*
G01*
G37*
G36*
G01*
X28902500Y27850000D02*
X28122500Y27850000D01*
G75*
G02*
X28052500Y27920000I0J70000D01*
G01*
X28052500Y28480000D01*
G75*
G02*
X28122500Y28550000I70000J0D01*
G01*
X28902500Y28550000D01*
G75*
G02*
X28972500Y28480000I0J-70000D01*
G01*
X28972500Y27920000D01*
G75*
G02*
X28902500Y27850000I-70000J0D01*
G01*
G37*
G04 #@! TD*
G04 #@! TO.C,L2*
G36*
G01*
X54243750Y86225000D02*
X54756250Y86225000D01*
G75*
G02*
X54975000Y86006250I0J-218750D01*
G01*
X54975000Y85568750D01*
G75*
G02*
X54756250Y85350000I-218750J0D01*
G01*
X54243750Y85350000D01*
G75*
G02*
X54025000Y85568750I0J218750D01*
G01*
X54025000Y86006250D01*
G75*
G02*
X54243750Y86225000I218750J0D01*
G01*
G37*
G36*
G01*
X54243750Y84650000D02*
X54756250Y84650000D01*
G75*
G02*
X54975000Y84431250I0J-218750D01*
G01*
X54975000Y83993750D01*
G75*
G02*
X54756250Y83775000I-218750J0D01*
G01*
X54243750Y83775000D01*
G75*
G02*
X54025000Y83993750I0J218750D01*
G01*
X54025000Y84431250D01*
G75*
G02*
X54243750Y84650000I218750J0D01*
G01*
G37*
G04 #@! TD*
G04 #@! TO.C,C16*
G36*
G01*
X14075000Y11000000D02*
X15125000Y11000000D01*
G75*
G02*
X15225000Y10900000I0J-100000D01*
G01*
X15225000Y10100000D01*
G75*
G02*
X15125000Y10000000I-100000J0D01*
G01*
X14075000Y10000000D01*
G75*
G02*
X13975000Y10100000I0J100000D01*
G01*
X13975000Y10900000D01*
G75*
G02*
X14075000Y11000000I100000J0D01*
G01*
G37*
G36*
G01*
X14075000Y9000000D02*
X15125000Y9000000D01*
G75*
G02*
X15225000Y8900000I0J-100000D01*
G01*
X15225000Y8100000D01*
G75*
G02*
X15125000Y8000000I-100000J0D01*
G01*
X14075000Y8000000D01*
G75*
G02*
X13975000Y8100000I0J100000D01*
G01*
X13975000Y8900000D01*
G75*
G02*
X14075000Y9000000I100000J0D01*
G01*
G37*
G04 #@! TD*
G04 #@! TO.C,R17*
G36*
G01*
X28902500Y61250000D02*
X28122500Y61250000D01*
G75*
G02*
X28052500Y61320000I0J70000D01*
G01*
X28052500Y61880000D01*
G75*
G02*
X28122500Y61950000I70000J0D01*
G01*
X28902500Y61950000D01*
G75*
G02*
X28972500Y61880000I0J-70000D01*
G01*
X28972500Y61320000D01*
G75*
G02*
X28902500Y61250000I-70000J0D01*
G01*
G37*
G36*
G01*
X28902500Y62850000D02*
X28122500Y62850000D01*
G75*
G02*
X28052500Y62920000I0J70000D01*
G01*
X28052500Y63480000D01*
G75*
G02*
X28122500Y63550000I70000J0D01*
G01*
X28902500Y63550000D01*
G75*
G02*
X28972500Y63480000I0J-70000D01*
G01*
X28972500Y62920000D01*
G75*
G02*
X28902500Y62850000I-70000J0D01*
G01*
G37*
G04 #@! TD*
G04 #@! TO.C,C22*
G36*
G01*
X17125000Y4000000D02*
X16075000Y4000000D01*
G75*
G02*
X15975000Y4100000I0J100000D01*
G01*
X15975000Y4900000D01*
G75*
G02*
X16075000Y5000000I100000J0D01*
G01*
X17125000Y5000000D01*
G75*
G02*
X17225000Y4900000I0J-100000D01*
G01*
X17225000Y4100000D01*
G75*
G02*
X17125000Y4000000I-100000J0D01*
G01*
G37*
G36*
G01*
X17125000Y6000000D02*
X16075000Y6000000D01*
G75*
G02*
X15975000Y6100000I0J100000D01*
G01*
X15975000Y6900000D01*
G75*
G02*
X16075000Y7000000I100000J0D01*
G01*
X17125000Y7000000D01*
G75*
G02*
X17225000Y6900000I0J-100000D01*
G01*
X17225000Y6100000D01*
G75*
G02*
X17125000Y6000000I-100000J0D01*
G01*
G37*
G04 #@! TD*
G04 #@! TO.C,R8*
G36*
G01*
X51890000Y3228318D02*
X51110000Y3228318D01*
G75*
G02*
X51040000Y3298318I0J70000D01*
G01*
X51040000Y3858318D01*
G75*
G02*
X51110000Y3928318I70000J0D01*
G01*
X51890000Y3928318D01*
G75*
G02*
X51960000Y3858318I0J-70000D01*
G01*
X51960000Y3298318D01*
G75*
G02*
X51890000Y3228318I-70000J0D01*
G01*
G37*
G36*
G01*
X51890000Y4828318D02*
X51110000Y4828318D01*
G75*
G02*
X51040000Y4898318I0J70000D01*
G01*
X51040000Y5458318D01*
G75*
G02*
X51110000Y5528318I70000J0D01*
G01*
X51890000Y5528318D01*
G75*
G02*
X51960000Y5458318I0J-70000D01*
G01*
X51960000Y4898318D01*
G75*
G02*
X51890000Y4828318I-70000J0D01*
G01*
G37*
G04 #@! TD*
G04 #@! TO.C,R3*
G36*
G01*
X16390000Y16850000D02*
X15610000Y16850000D01*
G75*
G02*
X15540000Y16920000I0J70000D01*
G01*
X15540000Y17480000D01*
G75*
G02*
X15610000Y17550000I70000J0D01*
G01*
X16390000Y17550000D01*
G75*
G02*
X16460000Y17480000I0J-70000D01*
G01*
X16460000Y16920000D01*
G75*
G02*
X16390000Y16850000I-70000J0D01*
G01*
G37*
G36*
G01*
X16390000Y18450000D02*
X15610000Y18450000D01*
G75*
G02*
X15540000Y18520000I0J70000D01*
G01*
X15540000Y19080000D01*
G75*
G02*
X15610000Y19150000I70000J0D01*
G01*
X16390000Y19150000D01*
G75*
G02*
X16460000Y19080000I0J-70000D01*
G01*
X16460000Y18520000D01*
G75*
G02*
X16390000Y18450000I-70000J0D01*
G01*
G37*
G04 #@! TD*
G04 #@! TO.C,R15*
G36*
G01*
X2890000Y88700000D02*
X2110000Y88700000D01*
G75*
G02*
X2040000Y88770000I0J70000D01*
G01*
X2040000Y89330000D01*
G75*
G02*
X2110000Y89400000I70000J0D01*
G01*
X2890000Y89400000D01*
G75*
G02*
X2960000Y89330000I0J-70000D01*
G01*
X2960000Y88770000D01*
G75*
G02*
X2890000Y88700000I-70000J0D01*
G01*
G37*
G36*
G01*
X2890000Y90300000D02*
X2110000Y90300000D01*
G75*
G02*
X2040000Y90370000I0J70000D01*
G01*
X2040000Y90930000D01*
G75*
G02*
X2110000Y91000000I70000J0D01*
G01*
X2890000Y91000000D01*
G75*
G02*
X2960000Y90930000I0J-70000D01*
G01*
X2960000Y90370000D01*
G75*
G02*
X2890000Y90300000I-70000J0D01*
G01*
G37*
G04 #@! TD*
G04 #@! TO.C,R13*
G36*
G01*
X30690000Y72150000D02*
X29910000Y72150000D01*
G75*
G02*
X29840000Y72220000I0J70000D01*
G01*
X29840000Y72780000D01*
G75*
G02*
X29910000Y72850000I70000J0D01*
G01*
X30690000Y72850000D01*
G75*
G02*
X30760000Y72780000I0J-70000D01*
G01*
X30760000Y72220000D01*
G75*
G02*
X30690000Y72150000I-70000J0D01*
G01*
G37*
G36*
G01*
X30690000Y73750000D02*
X29910000Y73750000D01*
G75*
G02*
X29840000Y73820000I0J70000D01*
G01*
X29840000Y74380000D01*
G75*
G02*
X29910000Y74450000I70000J0D01*
G01*
X30690000Y74450000D01*
G75*
G02*
X30760000Y74380000I0J-70000D01*
G01*
X30760000Y73820000D01*
G75*
G02*
X30690000Y73750000I-70000J0D01*
G01*
G37*
G04 #@! TD*
G04 #@! TO.C,C5*
G36*
G01*
X11600000Y20460000D02*
X12650000Y20460000D01*
G75*
G02*
X12750000Y20360000I0J-100000D01*
G01*
X12750000Y19560000D01*
G75*
G02*
X12650000Y19460000I-100000J0D01*
G01*
X11600000Y19460000D01*
G75*
G02*
X11500000Y19560000I0J100000D01*
G01*
X11500000Y20360000D01*
G75*
G02*
X11600000Y20460000I100000J0D01*
G01*
G37*
G36*
G01*
X11600000Y18460000D02*
X12650000Y18460000D01*
G75*
G02*
X12750000Y18360000I0J-100000D01*
G01*
X12750000Y17560000D01*
G75*
G02*
X12650000Y17460000I-100000J0D01*
G01*
X11600000Y17460000D01*
G75*
G02*
X11500000Y17560000I0J100000D01*
G01*
X11500000Y18360000D01*
G75*
G02*
X11600000Y18460000I100000J0D01*
G01*
G37*
G04 #@! TD*
G04 #@! TO.C,F5*
G36*
G01*
X29793750Y56625000D02*
X30306250Y56625000D01*
G75*
G02*
X30525000Y56406250I0J-218750D01*
G01*
X30525000Y55968750D01*
G75*
G02*
X30306250Y55750000I-218750J0D01*
G01*
X29793750Y55750000D01*
G75*
G02*
X29575000Y55968750I0J218750D01*
G01*
X29575000Y56406250D01*
G75*
G02*
X29793750Y56625000I218750J0D01*
G01*
G37*
G36*
G01*
X29793750Y55050000D02*
X30306250Y55050000D01*
G75*
G02*
X30525000Y54831250I0J-218750D01*
G01*
X30525000Y54393750D01*
G75*
G02*
X30306250Y54175000I-218750J0D01*
G01*
X29793750Y54175000D01*
G75*
G02*
X29575000Y54393750I0J218750D01*
G01*
X29575000Y54831250D01*
G75*
G02*
X29793750Y55050000I218750J0D01*
G01*
G37*
G04 #@! TD*
G04 #@! TO.C,R32*
G36*
G01*
X33460000Y29550000D02*
X34240000Y29550000D01*
G75*
G02*
X34310000Y29480000I0J-70000D01*
G01*
X34310000Y28920000D01*
G75*
G02*
X34240000Y28850000I-70000J0D01*
G01*
X33460000Y28850000D01*
G75*
G02*
X33390000Y28920000I0J70000D01*
G01*
X33390000Y29480000D01*
G75*
G02*
X33460000Y29550000I70000J0D01*
G01*
G37*
G36*
G01*
X33460000Y27950000D02*
X34240000Y27950000D01*
G75*
G02*
X34310000Y27880000I0J-70000D01*
G01*
X34310000Y27320000D01*
G75*
G02*
X34240000Y27250000I-70000J0D01*
G01*
X33460000Y27250000D01*
G75*
G02*
X33390000Y27320000I0J70000D01*
G01*
X33390000Y27880000D01*
G75*
G02*
X33460000Y27950000I70000J0D01*
G01*
G37*
G04 #@! TD*
G04 #@! TO.C,C28*
G36*
G01*
X52584999Y82260000D02*
X52584999Y82940000D01*
G75*
G02*
X52669999Y83025000I85000J0D01*
G01*
X53349999Y83025000D01*
G75*
G02*
X53434999Y82940000I0J-85000D01*
G01*
X53434999Y82260000D01*
G75*
G02*
X53349999Y82175000I-85000J0D01*
G01*
X52669999Y82175000D01*
G75*
G02*
X52584999Y82260000I0J85000D01*
G01*
G37*
G36*
G01*
X54165001Y82260000D02*
X54165001Y82940000D01*
G75*
G02*
X54250001Y83025000I85000J0D01*
G01*
X54930001Y83025000D01*
G75*
G02*
X55015001Y82940000I0J-85000D01*
G01*
X55015001Y82260000D01*
G75*
G02*
X54930001Y82175000I-85000J0D01*
G01*
X54250001Y82175000D01*
G75*
G02*
X54165001Y82260000I0J85000D01*
G01*
G37*
G04 #@! TD*
G04 #@! TO.C,U6*
G36*
G01*
X2380000Y87725000D02*
X2680000Y87725000D01*
G75*
G02*
X2830000Y87575000I0J-150000D01*
G01*
X2830000Y85925000D01*
G75*
G02*
X2680000Y85775000I-150000J0D01*
G01*
X2380000Y85775000D01*
G75*
G02*
X2230000Y85925000I0J150000D01*
G01*
X2230000Y87575000D01*
G75*
G02*
X2380000Y87725000I150000J0D01*
G01*
G37*
G36*
G01*
X3650000Y87725000D02*
X3950000Y87725000D01*
G75*
G02*
X4100000Y87575000I0J-150000D01*
G01*
X4100000Y85925000D01*
G75*
G02*
X3950000Y85775000I-150000J0D01*
G01*
X3650000Y85775000D01*
G75*
G02*
X3500000Y85925000I0J150000D01*
G01*
X3500000Y87575000D01*
G75*
G02*
X3650000Y87725000I150000J0D01*
G01*
G37*
G36*
G01*
X4920000Y87725000D02*
X5220000Y87725000D01*
G75*
G02*
X5370000Y87575000I0J-150000D01*
G01*
X5370000Y85925000D01*
G75*
G02*
X5220000Y85775000I-150000J0D01*
G01*
X4920000Y85775000D01*
G75*
G02*
X4770000Y85925000I0J150000D01*
G01*
X4770000Y87575000D01*
G75*
G02*
X4920000Y87725000I150000J0D01*
G01*
G37*
G36*
G01*
X6190000Y87725000D02*
X6490000Y87725000D01*
G75*
G02*
X6640000Y87575000I0J-150000D01*
G01*
X6640000Y85925000D01*
G75*
G02*
X6490000Y85775000I-150000J0D01*
G01*
X6190000Y85775000D01*
G75*
G02*
X6040000Y85925000I0J150000D01*
G01*
X6040000Y87575000D01*
G75*
G02*
X6190000Y87725000I150000J0D01*
G01*
G37*
G36*
G01*
X6190000Y82775000D02*
X6490000Y82775000D01*
G75*
G02*
X6640000Y82625000I0J-150000D01*
G01*
X6640000Y80975000D01*
G75*
G02*
X6490000Y80825000I-150000J0D01*
G01*
X6190000Y80825000D01*
G75*
G02*
X6040000Y80975000I0J150000D01*
G01*
X6040000Y82625000D01*
G75*
G02*
X6190000Y82775000I150000J0D01*
G01*
G37*
G36*
G01*
X4920000Y82775000D02*
X5220000Y82775000D01*
G75*
G02*
X5370000Y82625000I0J-150000D01*
G01*
X5370000Y80975000D01*
G75*
G02*
X5220000Y80825000I-150000J0D01*
G01*
X4920000Y80825000D01*
G75*
G02*
X4770000Y80975000I0J150000D01*
G01*
X4770000Y82625000D01*
G75*
G02*
X4920000Y82775000I150000J0D01*
G01*
G37*
G36*
G01*
X3650000Y82775000D02*
X3950000Y82775000D01*
G75*
G02*
X4100000Y82625000I0J-150000D01*
G01*
X4100000Y80975000D01*
G75*
G02*
X3950000Y80825000I-150000J0D01*
G01*
X3650000Y80825000D01*
G75*
G02*
X3500000Y80975000I0J150000D01*
G01*
X3500000Y82625000D01*
G75*
G02*
X3650000Y82775000I150000J0D01*
G01*
G37*
G36*
G01*
X2380000Y82775000D02*
X2680000Y82775000D01*
G75*
G02*
X2830000Y82625000I0J-150000D01*
G01*
X2830000Y80975000D01*
G75*
G02*
X2680000Y80825000I-150000J0D01*
G01*
X2380000Y80825000D01*
G75*
G02*
X2230000Y80975000I0J150000D01*
G01*
X2230000Y82625000D01*
G75*
G02*
X2380000Y82775000I150000J0D01*
G01*
G37*
G04 #@! TD*
G04 #@! TO.C,R29*
G36*
G01*
X4640000Y40650000D02*
X3860000Y40650000D01*
G75*
G02*
X3790000Y40720000I0J70000D01*
G01*
X3790000Y41280000D01*
G75*
G02*
X3860000Y41350000I70000J0D01*
G01*
X4640000Y41350000D01*
G75*
G02*
X4710000Y41280000I0J-70000D01*
G01*
X4710000Y40720000D01*
G75*
G02*
X4640000Y40650000I-70000J0D01*
G01*
G37*
G36*
G01*
X4640000Y42250000D02*
X3860000Y42250000D01*
G75*
G02*
X3790000Y42320000I0J70000D01*
G01*
X3790000Y42880000D01*
G75*
G02*
X3860000Y42950000I70000J0D01*
G01*
X4640000Y42950000D01*
G75*
G02*
X4710000Y42880000I0J-70000D01*
G01*
X4710000Y42320000D01*
G75*
G02*
X4640000Y42250000I-70000J0D01*
G01*
G37*
G04 #@! TD*
G04 #@! TO.C,R18*
G36*
G01*
X28902500Y54250000D02*
X28122500Y54250000D01*
G75*
G02*
X28052500Y54320000I0J70000D01*
G01*
X28052500Y54880000D01*
G75*
G02*
X28122500Y54950000I70000J0D01*
G01*
X28902500Y54950000D01*
G75*
G02*
X28972500Y54880000I0J-70000D01*
G01*
X28972500Y54320000D01*
G75*
G02*
X28902500Y54250000I-70000J0D01*
G01*
G37*
G36*
G01*
X28902500Y55850000D02*
X28122500Y55850000D01*
G75*
G02*
X28052500Y55920000I0J70000D01*
G01*
X28052500Y56480000D01*
G75*
G02*
X28122500Y56550000I70000J0D01*
G01*
X28902500Y56550000D01*
G75*
G02*
X28972500Y56480000I0J-70000D01*
G01*
X28972500Y55920000D01*
G75*
G02*
X28902500Y55850000I-70000J0D01*
G01*
G37*
G04 #@! TD*
G04 #@! TO.C,L1*
G36*
G01*
X56243750Y86225000D02*
X56756250Y86225000D01*
G75*
G02*
X56975000Y86006250I0J-218750D01*
G01*
X56975000Y85568750D01*
G75*
G02*
X56756250Y85350000I-218750J0D01*
G01*
X56243750Y85350000D01*
G75*
G02*
X56025000Y85568750I0J218750D01*
G01*
X56025000Y86006250D01*
G75*
G02*
X56243750Y86225000I218750J0D01*
G01*
G37*
G36*
G01*
X56243750Y84650000D02*
X56756250Y84650000D01*
G75*
G02*
X56975000Y84431250I0J-218750D01*
G01*
X56975000Y83993750D01*
G75*
G02*
X56756250Y83775000I-218750J0D01*
G01*
X56243750Y83775000D01*
G75*
G02*
X56025000Y83993750I0J218750D01*
G01*
X56025000Y84431250D01*
G75*
G02*
X56243750Y84650000I218750J0D01*
G01*
G37*
G04 #@! TD*
G04 #@! TO.C,C15*
G36*
G01*
X12075000Y11000000D02*
X13125000Y11000000D01*
G75*
G02*
X13225000Y10900000I0J-100000D01*
G01*
X13225000Y10100000D01*
G75*
G02*
X13125000Y10000000I-100000J0D01*
G01*
X12075000Y10000000D01*
G75*
G02*
X11975000Y10100000I0J100000D01*
G01*
X11975000Y10900000D01*
G75*
G02*
X12075000Y11000000I100000J0D01*
G01*
G37*
G36*
G01*
X12075000Y9000000D02*
X13125000Y9000000D01*
G75*
G02*
X13225000Y8900000I0J-100000D01*
G01*
X13225000Y8100000D01*
G75*
G02*
X13125000Y8000000I-100000J0D01*
G01*
X12075000Y8000000D01*
G75*
G02*
X11975000Y8100000I0J100000D01*
G01*
X11975000Y8900000D01*
G75*
G02*
X12075000Y9000000I100000J0D01*
G01*
G37*
G04 #@! TD*
G04 #@! TO.C,R28*
G36*
G01*
X27475000Y28825000D02*
X27475000Y25975000D01*
G75*
G02*
X27225000Y25725000I-250000J0D01*
G01*
X26500000Y25725000D01*
G75*
G02*
X26250000Y25975000I0J250000D01*
G01*
X26250000Y28825000D01*
G75*
G02*
X26500000Y29075000I250000J0D01*
G01*
X27225000Y29075000D01*
G75*
G02*
X27475000Y28825000I0J-250000D01*
G01*
G37*
G36*
G01*
X21550000Y28825000D02*
X21550000Y25975000D01*
G75*
G02*
X21300000Y25725000I-250000J0D01*
G01*
X20575000Y25725000D01*
G75*
G02*
X20325000Y25975000I0J250000D01*
G01*
X20325000Y28825000D01*
G75*
G02*
X20575000Y29075000I250000J0D01*
G01*
X21300000Y29075000D01*
G75*
G02*
X21550000Y28825000I0J-250000D01*
G01*
G37*
G04 #@! TD*
G04 #@! TO.C,C8*
G36*
G01*
X8650000Y13460000D02*
X7600000Y13460000D01*
G75*
G02*
X7500000Y13560000I0J100000D01*
G01*
X7500000Y14360000D01*
G75*
G02*
X7600000Y14460000I100000J0D01*
G01*
X8650000Y14460000D01*
G75*
G02*
X8750000Y14360000I0J-100000D01*
G01*
X8750000Y13560000D01*
G75*
G02*
X8650000Y13460000I-100000J0D01*
G01*
G37*
G36*
G01*
X8650000Y15460000D02*
X7600000Y15460000D01*
G75*
G02*
X7500000Y15560000I0J100000D01*
G01*
X7500000Y16360000D01*
G75*
G02*
X7600000Y16460000I100000J0D01*
G01*
X8650000Y16460000D01*
G75*
G02*
X8750000Y16360000I0J-100000D01*
G01*
X8750000Y15560000D01*
G75*
G02*
X8650000Y15460000I-100000J0D01*
G01*
G37*
G04 #@! TD*
G04 #@! TO.C,C9*
G36*
G01*
X10650000Y13460000D02*
X9600000Y13460000D01*
G75*
G02*
X9500000Y13560000I0J100000D01*
G01*
X9500000Y14360000D01*
G75*
G02*
X9600000Y14460000I100000J0D01*
G01*
X10650000Y14460000D01*
G75*
G02*
X10750000Y14360000I0J-100000D01*
G01*
X10750000Y13560000D01*
G75*
G02*
X10650000Y13460000I-100000J0D01*
G01*
G37*
G36*
G01*
X10650000Y15460000D02*
X9600000Y15460000D01*
G75*
G02*
X9500000Y15560000I0J100000D01*
G01*
X9500000Y16360000D01*
G75*
G02*
X9600000Y16460000I100000J0D01*
G01*
X10650000Y16460000D01*
G75*
G02*
X10750000Y16360000I0J-100000D01*
G01*
X10750000Y15560000D01*
G75*
G02*
X10650000Y15460000I-100000J0D01*
G01*
G37*
G04 #@! TD*
G04 #@! TO.C,C6*
G36*
G01*
X4650000Y13460000D02*
X3600000Y13460000D01*
G75*
G02*
X3500000Y13560000I0J100000D01*
G01*
X3500000Y14360000D01*
G75*
G02*
X3600000Y14460000I100000J0D01*
G01*
X4650000Y14460000D01*
G75*
G02*
X4750000Y14360000I0J-100000D01*
G01*
X4750000Y13560000D01*
G75*
G02*
X4650000Y13460000I-100000J0D01*
G01*
G37*
G36*
G01*
X4650000Y15460000D02*
X3600000Y15460000D01*
G75*
G02*
X3500000Y15560000I0J100000D01*
G01*
X3500000Y16360000D01*
G75*
G02*
X3600000Y16460000I100000J0D01*
G01*
X4650000Y16460000D01*
G75*
G02*
X4750000Y16360000I0J-100000D01*
G01*
X4750000Y15560000D01*
G75*
G02*
X4650000Y15460000I-100000J0D01*
G01*
G37*
G04 #@! TD*
G04 #@! TO.C,C2*
G36*
G01*
X5600000Y20460000D02*
X6650000Y20460000D01*
G75*
G02*
X6750000Y20360000I0J-100000D01*
G01*
X6750000Y19560000D01*
G75*
G02*
X6650000Y19460000I-100000J0D01*
G01*
X5600000Y19460000D01*
G75*
G02*
X5500000Y19560000I0J100000D01*
G01*
X5500000Y20360000D01*
G75*
G02*
X5600000Y20460000I100000J0D01*
G01*
G37*
G36*
G01*
X5600000Y18460000D02*
X6650000Y18460000D01*
G75*
G02*
X6750000Y18360000I0J-100000D01*
G01*
X6750000Y17560000D01*
G75*
G02*
X6650000Y17460000I-100000J0D01*
G01*
X5600000Y17460000D01*
G75*
G02*
X5500000Y17560000I0J100000D01*
G01*
X5500000Y18360000D01*
G75*
G02*
X5600000Y18460000I100000J0D01*
G01*
G37*
G04 #@! TD*
G04 #@! TO.C,C18*
G36*
G01*
X18075000Y11000000D02*
X19125000Y11000000D01*
G75*
G02*
X19225000Y10900000I0J-100000D01*
G01*
X19225000Y10100000D01*
G75*
G02*
X19125000Y10000000I-100000J0D01*
G01*
X18075000Y10000000D01*
G75*
G02*
X17975000Y10100000I0J100000D01*
G01*
X17975000Y10900000D01*
G75*
G02*
X18075000Y11000000I100000J0D01*
G01*
G37*
G36*
G01*
X18075000Y9000000D02*
X19125000Y9000000D01*
G75*
G02*
X19225000Y8900000I0J-100000D01*
G01*
X19225000Y8100000D01*
G75*
G02*
X19125000Y8000000I-100000J0D01*
G01*
X18075000Y8000000D01*
G75*
G02*
X17975000Y8100000I0J100000D01*
G01*
X17975000Y8900000D01*
G75*
G02*
X18075000Y9000000I100000J0D01*
G01*
G37*
G04 #@! TD*
G04 #@! TO.C,R12*
G36*
G01*
X30690000Y75550000D02*
X29910000Y75550000D01*
G75*
G02*
X29840000Y75620000I0J70000D01*
G01*
X29840000Y76180000D01*
G75*
G02*
X29910000Y76250000I70000J0D01*
G01*
X30690000Y76250000D01*
G75*
G02*
X30760000Y76180000I0J-70000D01*
G01*
X30760000Y75620000D01*
G75*
G02*
X30690000Y75550000I-70000J0D01*
G01*
G37*
G36*
G01*
X30690000Y77150000D02*
X29910000Y77150000D01*
G75*
G02*
X29840000Y77220000I0J70000D01*
G01*
X29840000Y77780000D01*
G75*
G02*
X29910000Y77850000I70000J0D01*
G01*
X30690000Y77850000D01*
G75*
G02*
X30760000Y77780000I0J-70000D01*
G01*
X30760000Y77220000D01*
G75*
G02*
X30690000Y77150000I-70000J0D01*
G01*
G37*
G04 #@! TD*
G04 #@! TO.C,C20*
G36*
G01*
X13125000Y4000000D02*
X12075000Y4000000D01*
G75*
G02*
X11975000Y4100000I0J100000D01*
G01*
X11975000Y4900000D01*
G75*
G02*
X12075000Y5000000I100000J0D01*
G01*
X13125000Y5000000D01*
G75*
G02*
X13225000Y4900000I0J-100000D01*
G01*
X13225000Y4100000D01*
G75*
G02*
X13125000Y4000000I-100000J0D01*
G01*
G37*
G36*
G01*
X13125000Y6000000D02*
X12075000Y6000000D01*
G75*
G02*
X11975000Y6100000I0J100000D01*
G01*
X11975000Y6900000D01*
G75*
G02*
X12075000Y7000000I100000J0D01*
G01*
X13125000Y7000000D01*
G75*
G02*
X13225000Y6900000I0J-100000D01*
G01*
X13225000Y6100000D01*
G75*
G02*
X13125000Y6000000I-100000J0D01*
G01*
G37*
G04 #@! TD*
G04 #@! TO.C,R5*
G36*
G01*
X56510000Y62950000D02*
X57290000Y62950000D01*
G75*
G02*
X57360000Y62880000I0J-70000D01*
G01*
X57360000Y62320000D01*
G75*
G02*
X57290000Y62250000I-70000J0D01*
G01*
X56510000Y62250000D01*
G75*
G02*
X56440000Y62320000I0J70000D01*
G01*
X56440000Y62880000D01*
G75*
G02*
X56510000Y62950000I70000J0D01*
G01*
G37*
G36*
G01*
X56510000Y61350000D02*
X57290000Y61350000D01*
G75*
G02*
X57360000Y61280000I0J-70000D01*
G01*
X57360000Y60720000D01*
G75*
G02*
X57290000Y60650000I-70000J0D01*
G01*
X56510000Y60650000D01*
G75*
G02*
X56440000Y60720000I0J70000D01*
G01*
X56440000Y61280000D01*
G75*
G02*
X56510000Y61350000I70000J0D01*
G01*
G37*
G04 #@! TD*
G04 #@! TO.C,R6*
G36*
G01*
X77210000Y71950000D02*
X77990000Y71950000D01*
G75*
G02*
X78060000Y71880000I0J-70000D01*
G01*
X78060000Y71320000D01*
G75*
G02*
X77990000Y71250000I-70000J0D01*
G01*
X77210000Y71250000D01*
G75*
G02*
X77140000Y71320000I0J70000D01*
G01*
X77140000Y71880000D01*
G75*
G02*
X77210000Y71950000I70000J0D01*
G01*
G37*
G36*
G01*
X77210000Y70350000D02*
X77990000Y70350000D01*
G75*
G02*
X78060000Y70280000I0J-70000D01*
G01*
X78060000Y69720000D01*
G75*
G02*
X77990000Y69650000I-70000J0D01*
G01*
X77210000Y69650000D01*
G75*
G02*
X77140000Y69720000I0J70000D01*
G01*
X77140000Y70280000D01*
G75*
G02*
X77210000Y70350000I70000J0D01*
G01*
G37*
G04 #@! TD*
G04 #@! TO.C,R2*
G36*
G01*
X16390000Y19850000D02*
X15610000Y19850000D01*
G75*
G02*
X15540000Y19920000I0J70000D01*
G01*
X15540000Y20480000D01*
G75*
G02*
X15610000Y20550000I70000J0D01*
G01*
X16390000Y20550000D01*
G75*
G02*
X16460000Y20480000I0J-70000D01*
G01*
X16460000Y19920000D01*
G75*
G02*
X16390000Y19850000I-70000J0D01*
G01*
G37*
G36*
G01*
X16390000Y21450000D02*
X15610000Y21450000D01*
G75*
G02*
X15540000Y21520000I0J70000D01*
G01*
X15540000Y22080000D01*
G75*
G02*
X15610000Y22150000I70000J0D01*
G01*
X16390000Y22150000D01*
G75*
G02*
X16460000Y22080000I0J-70000D01*
G01*
X16460000Y21520000D01*
G75*
G02*
X16390000Y21450000I-70000J0D01*
G01*
G37*
G04 #@! TD*
G04 #@! TO.C,U8*
G36*
G01*
X28775000Y77650000D02*
X28775000Y77350000D01*
G75*
G02*
X28625000Y77200000I-150000J0D01*
G01*
X26975000Y77200000D01*
G75*
G02*
X26825000Y77350000I0J150000D01*
G01*
X26825000Y77650000D01*
G75*
G02*
X26975000Y77800000I150000J0D01*
G01*
X28625000Y77800000D01*
G75*
G02*
X28775000Y77650000I0J-150000D01*
G01*
G37*
G36*
G01*
X28775000Y76380000D02*
X28775000Y76080000D01*
G75*
G02*
X28625000Y75930000I-150000J0D01*
G01*
X26975000Y75930000D01*
G75*
G02*
X26825000Y76080000I0J150000D01*
G01*
X26825000Y76380000D01*
G75*
G02*
X26975000Y76530000I150000J0D01*
G01*
X28625000Y76530000D01*
G75*
G02*
X28775000Y76380000I0J-150000D01*
G01*
G37*
G36*
G01*
X28775000Y75110000D02*
X28775000Y74810000D01*
G75*
G02*
X28625000Y74660000I-150000J0D01*
G01*
X26975000Y74660000D01*
G75*
G02*
X26825000Y74810000I0J150000D01*
G01*
X26825000Y75110000D01*
G75*
G02*
X26975000Y75260000I150000J0D01*
G01*
X28625000Y75260000D01*
G75*
G02*
X28775000Y75110000I0J-150000D01*
G01*
G37*
G36*
G01*
X28775000Y73840000D02*
X28775000Y73540000D01*
G75*
G02*
X28625000Y73390000I-150000J0D01*
G01*
X26975000Y73390000D01*
G75*
G02*
X26825000Y73540000I0J150000D01*
G01*
X26825000Y73840000D01*
G75*
G02*
X26975000Y73990000I150000J0D01*
G01*
X28625000Y73990000D01*
G75*
G02*
X28775000Y73840000I0J-150000D01*
G01*
G37*
G36*
G01*
X23825000Y73840000D02*
X23825000Y73540000D01*
G75*
G02*
X23675000Y73390000I-150000J0D01*
G01*
X22025000Y73390000D01*
G75*
G02*
X21875000Y73540000I0J150000D01*
G01*
X21875000Y73840000D01*
G75*
G02*
X22025000Y73990000I150000J0D01*
G01*
X23675000Y73990000D01*
G75*
G02*
X23825000Y73840000I0J-150000D01*
G01*
G37*
G36*
G01*
X23825000Y75110000D02*
X23825000Y74810000D01*
G75*
G02*
X23675000Y74660000I-150000J0D01*
G01*
X22025000Y74660000D01*
G75*
G02*
X21875000Y74810000I0J150000D01*
G01*
X21875000Y75110000D01*
G75*
G02*
X22025000Y75260000I150000J0D01*
G01*
X23675000Y75260000D01*
G75*
G02*
X23825000Y75110000I0J-150000D01*
G01*
G37*
G36*
G01*
X23825000Y76380000D02*
X23825000Y76080000D01*
G75*
G02*
X23675000Y75930000I-150000J0D01*
G01*
X22025000Y75930000D01*
G75*
G02*
X21875000Y76080000I0J150000D01*
G01*
X21875000Y76380000D01*
G75*
G02*
X22025000Y76530000I150000J0D01*
G01*
X23675000Y76530000D01*
G75*
G02*
X23825000Y76380000I0J-150000D01*
G01*
G37*
G36*
G01*
X23825000Y77650000D02*
X23825000Y77350000D01*
G75*
G02*
X23675000Y77200000I-150000J0D01*
G01*
X22025000Y77200000D01*
G75*
G02*
X21875000Y77350000I0J150000D01*
G01*
X21875000Y77650000D01*
G75*
G02*
X22025000Y77800000I150000J0D01*
G01*
X23675000Y77800000D01*
G75*
G02*
X23825000Y77650000I0J-150000D01*
G01*
G37*
G04 #@! TD*
M02*
