G04 #@! TF.GenerationSoftware,KiCad,Pcbnew,7.0.9-7.0.9~ubuntu22.04.1*
G04 #@! TF.CreationDate,2023-11-30T19:58:23+00:00*
G04 #@! TF.ProjectId,uaefi,75616566-692e-46b6-9963-61645f706362,rev?*
G04 #@! TF.SameCoordinates,Original*
G04 #@! TF.FileFunction,Copper,L1,Top*
G04 #@! TF.FilePolarity,Positive*
%FSLAX46Y46*%
G04 Gerber Fmt 4.6, Leading zero omitted, Abs format (unit mm)*
G04 Created by KiCad (PCBNEW 7.0.9-7.0.9~ubuntu22.04.1) date 2023-11-30 19:58:23*
%MOMM*%
%LPD*%
G01*
G04 APERTURE LIST*
G04 #@! TA.AperFunction,EtchedComponent*
%ADD10C,0.200000*%
G04 #@! TD*
G04 #@! TA.AperFunction,ComponentPad*
%ADD11C,0.700000*%
G04 #@! TD*
G04 #@! TA.AperFunction,SMDPad,CuDef*
%ADD12C,3.000000*%
G04 #@! TD*
G04 #@! TA.AperFunction,SMDPad,CuDef*
%ADD13R,3.000000X0.250000*%
G04 #@! TD*
G04 #@! TA.AperFunction,SMDPad,CuDef*
%ADD14R,1.100000X0.250000*%
G04 #@! TD*
G04 #@! TA.AperFunction,SMDPad,CuDef*
%ADD15R,0.980000X0.250000*%
G04 #@! TD*
G04 #@! TA.AperFunction,SMDPad,CuDef*
%ADD16R,1.450000X0.250000*%
G04 #@! TD*
G04 #@! TA.AperFunction,SMDPad,CuDef*
%ADD17R,0.250000X27.600000*%
G04 #@! TD*
G04 #@! TA.AperFunction,SMDPad,CuDef*
%ADD18R,1.950000X0.250000*%
G04 #@! TD*
G04 #@! TA.AperFunction,SMDPad,CuDef*
%ADD19R,0.950000X0.250000*%
G04 #@! TD*
G04 #@! TA.AperFunction,ComponentPad*
%ADD20O,2.700000X3.700000*%
G04 #@! TD*
G04 #@! TA.AperFunction,ComponentPad*
%ADD21C,1.700000*%
G04 #@! TD*
G04 #@! TA.AperFunction,SMDPad,CuDef*
%ADD22R,2.000000X1.500000*%
G04 #@! TD*
G04 #@! TA.AperFunction,SMDPad,CuDef*
%ADD23R,2.000000X3.800000*%
G04 #@! TD*
G04 #@! TA.AperFunction,ComponentPad*
%ADD24C,0.800000*%
G04 #@! TD*
G04 #@! TA.AperFunction,ComponentPad*
%ADD25C,6.400000*%
G04 #@! TD*
G04 #@! TA.AperFunction,ComponentPad*
%ADD26C,1.524000*%
G04 #@! TD*
G04 #@! TA.AperFunction,ComponentPad*
%ADD27O,1.850000X1.700000*%
G04 #@! TD*
G04 #@! TA.AperFunction,SMDPad,CuDef*
%ADD28R,1.500000X2.000000*%
G04 #@! TD*
G04 #@! TA.AperFunction,SMDPad,CuDef*
%ADD29R,3.800000X2.000000*%
G04 #@! TD*
G04 #@! TA.AperFunction,ComponentPad*
%ADD30C,0.600000*%
G04 #@! TD*
G04 #@! TA.AperFunction,SMDPad,CuDef*
%ADD31R,6.185000X0.250000*%
G04 #@! TD*
G04 #@! TA.AperFunction,SMDPad,CuDef*
%ADD32R,1.115000X0.250000*%
G04 #@! TD*
G04 #@! TA.AperFunction,SMDPad,CuDef*
%ADD33R,0.250000X14.275000*%
G04 #@! TD*
G04 #@! TA.AperFunction,SMDPad,CuDef*
%ADD34R,0.250000X15.100000*%
G04 #@! TD*
G04 #@! TA.AperFunction,SMDPad,CuDef*
%ADD35R,5.175000X0.250000*%
G04 #@! TD*
G04 #@! TA.AperFunction,ComponentPad*
%ADD36R,1.100000X1.100000*%
G04 #@! TD*
G04 #@! TA.AperFunction,ComponentPad*
%ADD37C,1.100000*%
G04 #@! TD*
G04 #@! TA.AperFunction,ComponentPad*
%ADD38O,2.400000X1.100000*%
G04 #@! TD*
G04 #@! TA.AperFunction,SMDPad,CuDef*
%ADD39O,1.225000X0.200000*%
G04 #@! TD*
G04 #@! TA.AperFunction,SMDPad,CuDef*
%ADD40O,0.200000X9.300000*%
G04 #@! TD*
G04 #@! TA.AperFunction,ComponentPad*
%ADD41C,1.500000*%
G04 #@! TD*
G04 #@! TA.AperFunction,SMDPad,CuDef*
%ADD42O,0.200000X3.300000*%
G04 #@! TD*
G04 #@! TA.AperFunction,SMDPad,CuDef*
%ADD43O,0.200000X10.200000*%
G04 #@! TD*
G04 #@! TA.AperFunction,SMDPad,CuDef*
%ADD44O,0.200000X0.300000*%
G04 #@! TD*
G04 #@! TA.AperFunction,SMDPad,CuDef*
%ADD45O,17.000000X0.200000*%
G04 #@! TD*
G04 #@! TA.AperFunction,SMDPad,CuDef*
%ADD46O,15.400000X0.200000*%
G04 #@! TD*
G04 #@! TA.AperFunction,SMDPad,CuDef*
%ADD47O,0.200000X4.800000*%
G04 #@! TD*
G04 #@! TA.AperFunction,SMDPad,CuDef*
%ADD48O,0.200000X2.600000*%
G04 #@! TD*
G04 #@! TA.AperFunction,SMDPad,CuDef*
%ADD49O,0.200000X1.000000*%
G04 #@! TD*
G04 #@! TA.AperFunction,SMDPad,CuDef*
%ADD50O,0.200000X1.500000*%
G04 #@! TD*
G04 #@! TA.AperFunction,SMDPad,CuDef*
%ADD51O,5.669999X0.200000*%
G04 #@! TD*
G04 #@! TA.AperFunction,SMDPad,CuDef*
%ADD52O,0.200000X11.100001*%
G04 #@! TD*
G04 #@! TA.AperFunction,SMDPad,CuDef*
%ADD53O,0.399999X9.800001*%
G04 #@! TD*
G04 #@! TA.AperFunction,SMDPad,CuDef*
%ADD54O,0.250000X0.499999*%
G04 #@! TD*
G04 #@! TA.AperFunction,SMDPad,CuDef*
%ADD55O,6.799999X0.200000*%
G04 #@! TD*
G04 #@! TA.AperFunction,SMDPad,CuDef*
%ADD56O,0.499999X0.250000*%
G04 #@! TD*
G04 #@! TA.AperFunction,ComponentPad*
%ADD57C,0.599999*%
G04 #@! TD*
G04 #@! TA.AperFunction,ComponentPad*
%ADD58O,3.700000X2.700000*%
G04 #@! TD*
G04 #@! TA.AperFunction,SMDPad,CuDef*
%ADD59R,1.300000X1.000000*%
G04 #@! TD*
G04 #@! TA.AperFunction,SMDPad,CuDef*
%ADD60R,2.000000X0.650000*%
G04 #@! TD*
G04 #@! TA.AperFunction,SMDPad,CuDef*
%ADD61R,4.500000X8.100000*%
G04 #@! TD*
G04 #@! TA.AperFunction,SMDPad,CuDef*
%ADD62R,0.200000X3.700000*%
G04 #@! TD*
G04 #@! TA.AperFunction,SMDPad,CuDef*
%ADD63R,0.200000X0.400000*%
G04 #@! TD*
G04 #@! TA.AperFunction,SMDPad,CuDef*
%ADD64R,0.200000X1.600000*%
G04 #@! TD*
G04 #@! TA.AperFunction,SMDPad,CuDef*
%ADD65R,0.200000X9.700000*%
G04 #@! TD*
G04 #@! TA.AperFunction,SMDPad,CuDef*
%ADD66R,0.200000X2.300000*%
G04 #@! TD*
G04 #@! TA.AperFunction,SMDPad,CuDef*
%ADD67R,1.400000X0.200000*%
G04 #@! TD*
G04 #@! TA.AperFunction,SMDPad,CuDef*
%ADD68R,6.400000X0.200000*%
G04 #@! TD*
G04 #@! TA.AperFunction,SMDPad,CuDef*
%ADD69R,1.700000X0.200000*%
G04 #@! TD*
G04 #@! TA.AperFunction,SMDPad,CuDef*
%ADD70R,3.300000X0.200000*%
G04 #@! TD*
G04 #@! TA.AperFunction,SMDPad,CuDef*
%ADD71R,0.200000X7.000000*%
G04 #@! TD*
G04 #@! TA.AperFunction,SMDPad,CuDef*
%ADD72R,0.200000X3.300000*%
G04 #@! TD*
G04 #@! TA.AperFunction,SMDPad,CuDef*
%ADD73R,0.200000X6.300000*%
G04 #@! TD*
G04 #@! TA.AperFunction,SMDPad,CuDef*
%ADD74R,0.300000X1.150000*%
G04 #@! TD*
G04 #@! TA.AperFunction,ComponentPad*
%ADD75O,1.000000X2.100000*%
G04 #@! TD*
G04 #@! TA.AperFunction,ComponentPad*
%ADD76O,1.000000X1.600000*%
G04 #@! TD*
G04 #@! TA.AperFunction,ComponentPad*
%ADD77R,1.700000X1.700000*%
G04 #@! TD*
G04 #@! TA.AperFunction,ComponentPad*
%ADD78O,1.700000X1.700000*%
G04 #@! TD*
G04 #@! TA.AperFunction,ComponentPad*
%ADD79C,3.302000*%
G04 #@! TD*
G04 #@! TA.AperFunction,SMDPad,CuDef*
%ADD80R,0.690000X1.350000*%
G04 #@! TD*
G04 APERTURE END LIST*
D10*
G04 #@! TO.C,G2*
X69500000Y6500000D02*
X69500000Y8000000D01*
X69500000Y6500000D02*
X71000000Y6500000D01*
X71000000Y6500000D02*
X71000000Y1500000D01*
X71000000Y1500000D02*
X73500000Y1500000D01*
X73500000Y9500000D02*
X71500000Y9500000D01*
X73500000Y1500000D02*
X73500000Y9500000D01*
X69500000Y8000000D02*
G75*
G03*
X71499999Y9500000I78399J1978801D01*
G01*
G04 #@! TD*
G04 #@! TO.P,C24,1*
G04 #@! TO.N,GND*
G04 #@! TA.AperFunction,SMDPad,CuDef*
G36*
G01*
X7260000Y10215001D02*
X7940000Y10215001D01*
G75*
G02*
X8025000Y10130001I0J-85000D01*
G01*
X8025000Y9450001D01*
G75*
G02*
X7940000Y9365001I-85000J0D01*
G01*
X7260000Y9365001D01*
G75*
G02*
X7175000Y9450001I0J85000D01*
G01*
X7175000Y10130001D01*
G75*
G02*
X7260000Y10215001I85000J0D01*
G01*
G37*
G04 #@! TD.AperFunction*
G04 #@! TO.P,C24,2*
G04 #@! TO.N,/DC Driver 2/PWR*
G04 #@! TA.AperFunction,SMDPad,CuDef*
G36*
G01*
X7260000Y8634999D02*
X7940000Y8634999D01*
G75*
G02*
X8025000Y8549999I0J-85000D01*
G01*
X8025000Y7869999D01*
G75*
G02*
X7940000Y7784999I-85000J0D01*
G01*
X7260000Y7784999D01*
G75*
G02*
X7175000Y7869999I0J85000D01*
G01*
X7175000Y8549999D01*
G75*
G02*
X7260000Y8634999I85000J0D01*
G01*
G37*
G04 #@! TD.AperFunction*
G04 #@! TD*
G04 #@! TO.P,Q10,1,G*
G04 #@! TO.N,Net-(Q10-G)*
G04 #@! TA.AperFunction,SMDPad,CuDef*
G36*
G01*
X28800000Y39570000D02*
X28800000Y38870000D01*
G75*
G02*
X28550000Y38620000I-250000J0D01*
G01*
X26850000Y38620000D01*
G75*
G02*
X26600000Y38870000I0J250000D01*
G01*
X26600000Y39570000D01*
G75*
G02*
X26850000Y39820000I250000J0D01*
G01*
X28550000Y39820000D01*
G75*
G02*
X28800000Y39570000I0J-250000D01*
G01*
G37*
G04 #@! TD.AperFunction*
G04 #@! TO.P,Q10,2,C*
G04 #@! TO.N,/OUT_IGN4*
G04 #@! TA.AperFunction,SMDPad,CuDef*
G36*
G01*
X24600000Y41100000D02*
X24600000Y38850000D01*
G75*
G02*
X24350000Y38600000I-250000J0D01*
G01*
X21800000Y38600000D01*
G75*
G02*
X21550000Y38850000I0J250000D01*
G01*
X21550000Y41100000D01*
G75*
G02*
X21800000Y41350000I250000J0D01*
G01*
X24350000Y41350000D01*
G75*
G02*
X24600000Y41100000I0J-250000D01*
G01*
G37*
G04 #@! TD.AperFunction*
G04 #@! TA.AperFunction,SMDPad,CuDef*
G36*
G01*
X24600000Y44150000D02*
X24600000Y41900000D01*
G75*
G02*
X24350000Y41650000I-250000J0D01*
G01*
X21800000Y41650000D01*
G75*
G02*
X21550000Y41900000I0J250000D01*
G01*
X21550000Y44150000D01*
G75*
G02*
X21800000Y44400000I250000J0D01*
G01*
X24350000Y44400000D01*
G75*
G02*
X24600000Y44150000I0J-250000D01*
G01*
G37*
G04 #@! TD.AperFunction*
G04 #@! TA.AperFunction,SMDPad,CuDef*
G36*
G01*
X24600000Y44150003D02*
X24600000Y38849997D01*
G75*
G02*
X24350003Y38600000I-249997J0D01*
G01*
X18449997Y38600000D01*
G75*
G02*
X18200000Y38849997I0J249997D01*
G01*
X18200000Y44150003D01*
G75*
G02*
X18449997Y44400000I249997J0D01*
G01*
X24350003Y44400000D01*
G75*
G02*
X24600000Y44150003I0J-249997D01*
G01*
G37*
G04 #@! TD.AperFunction*
G04 #@! TA.AperFunction,SMDPad,CuDef*
G36*
G01*
X21250000Y41100000D02*
X21250000Y38850000D01*
G75*
G02*
X21000000Y38600000I-250000J0D01*
G01*
X18450000Y38600000D01*
G75*
G02*
X18200000Y38850000I0J250000D01*
G01*
X18200000Y41100000D01*
G75*
G02*
X18450000Y41350000I250000J0D01*
G01*
X21000000Y41350000D01*
G75*
G02*
X21250000Y41100000I0J-250000D01*
G01*
G37*
G04 #@! TD.AperFunction*
G04 #@! TA.AperFunction,SMDPad,CuDef*
G36*
G01*
X21250000Y44150000D02*
X21250000Y41900000D01*
G75*
G02*
X21000000Y41650000I-250000J0D01*
G01*
X18450000Y41650000D01*
G75*
G02*
X18200000Y41900000I0J250000D01*
G01*
X18200000Y44150000D01*
G75*
G02*
X18450000Y44400000I250000J0D01*
G01*
X21000000Y44400000D01*
G75*
G02*
X21250000Y44150000I0J-250000D01*
G01*
G37*
G04 #@! TD.AperFunction*
G04 #@! TO.P,Q10,3,E*
G04 #@! TO.N,GND*
G04 #@! TA.AperFunction,SMDPad,CuDef*
G36*
G01*
X28800000Y44130000D02*
X28800000Y43430000D01*
G75*
G02*
X28550000Y43180000I-250000J0D01*
G01*
X26850000Y43180000D01*
G75*
G02*
X26600000Y43430000I0J250000D01*
G01*
X26600000Y44130000D01*
G75*
G02*
X26850000Y44380000I250000J0D01*
G01*
X28550000Y44380000D01*
G75*
G02*
X28800000Y44130000I0J-250000D01*
G01*
G37*
G04 #@! TD.AperFunction*
G04 #@! TD*
G04 #@! TO.P,C27,1*
G04 #@! TO.N,GND*
G04 #@! TA.AperFunction,SMDPad,CuDef*
G36*
G01*
X54660000Y67215001D02*
X55340000Y67215001D01*
G75*
G02*
X55425000Y67130001I0J-85000D01*
G01*
X55425000Y66450001D01*
G75*
G02*
X55340000Y66365001I-85000J0D01*
G01*
X54660000Y66365001D01*
G75*
G02*
X54575000Y66450001I0J85000D01*
G01*
X54575000Y67130001D01*
G75*
G02*
X54660000Y67215001I85000J0D01*
G01*
G37*
G04 #@! TD.AperFunction*
G04 #@! TO.P,C27,2*
G04 #@! TO.N,+5VA*
G04 #@! TA.AperFunction,SMDPad,CuDef*
G36*
G01*
X54660000Y65634999D02*
X55340000Y65634999D01*
G75*
G02*
X55425000Y65549999I0J-85000D01*
G01*
X55425000Y64869999D01*
G75*
G02*
X55340000Y64784999I-85000J0D01*
G01*
X54660000Y64784999D01*
G75*
G02*
X54575000Y64869999I0J85000D01*
G01*
X54575000Y65549999D01*
G75*
G02*
X54660000Y65634999I85000J0D01*
G01*
G37*
G04 #@! TD.AperFunction*
G04 #@! TD*
G04 #@! TO.P,C30,1*
G04 #@! TO.N,Net-(U4-T+)*
G04 #@! TA.AperFunction,SMDPad,CuDef*
G36*
G01*
X55170000Y77027500D02*
X54830000Y77027500D01*
G75*
G02*
X54690000Y77167500I0J140000D01*
G01*
X54690000Y77447500D01*
G75*
G02*
X54830000Y77587500I140000J0D01*
G01*
X55170000Y77587500D01*
G75*
G02*
X55310000Y77447500I0J-140000D01*
G01*
X55310000Y77167500D01*
G75*
G02*
X55170000Y77027500I-140000J0D01*
G01*
G37*
G04 #@! TD.AperFunction*
G04 #@! TO.P,C30,2*
G04 #@! TO.N,GND*
G04 #@! TA.AperFunction,SMDPad,CuDef*
G36*
G01*
X55170000Y77987500D02*
X54830000Y77987500D01*
G75*
G02*
X54690000Y78127500I0J140000D01*
G01*
X54690000Y78407500D01*
G75*
G02*
X54830000Y78547500I140000J0D01*
G01*
X55170000Y78547500D01*
G75*
G02*
X55310000Y78407500I0J-140000D01*
G01*
X55310000Y78127500D01*
G75*
G02*
X55170000Y77987500I-140000J0D01*
G01*
G37*
G04 #@! TD.AperFunction*
G04 #@! TD*
D11*
G04 #@! TO.P,M5,E1,LSU_Un*
G04 #@! TO.N,/WBO_Un*
X97775000Y66750000D03*
G04 #@! TO.P,M5,E2,LSU_Vm*
G04 #@! TO.N,/WBO_Vm*
X94775000Y66750000D03*
G04 #@! TO.P,M5,E3,LSU_Ip*
G04 #@! TO.N,/WBO_Ip*
X95775000Y66750000D03*
G04 #@! TO.P,M5,E4,LSU_Rtrim*
G04 #@! TO.N,/WBO_Rtrim*
X96775000Y66750000D03*
D12*
G04 #@! TO.P,M5,E5,LSU_H+*
G04 #@! TO.N,/WBO_Heater*
X92625000Y65500000D03*
D13*
G04 #@! TO.P,M5,E6,LSU_H-*
G04 #@! TO.N,GND*
X89125000Y67125000D03*
D14*
G04 #@! TO.P,M5,G,GND*
X85925000Y39775000D03*
D15*
X90265000Y39775000D03*
X93565000Y39775000D03*
D16*
X98650000Y39775000D03*
D17*
X85500000Y53450000D03*
X99250000Y53450000D03*
D18*
X86350000Y67125000D03*
D19*
X98900000Y67125000D03*
G04 #@! TO.P,M5,J1,SEL1*
G04 #@! TO.N,Net-(M5-PULL_DOWN1)*
G04 #@! TA.AperFunction,SMDPad,CuDef*
G36*
G01*
X86525000Y49200000D02*
X87775000Y49200000D01*
G75*
G02*
X87900000Y49075000I0J-125000D01*
G01*
X87900000Y48825000D01*
G75*
G02*
X87775000Y48700000I-125000J0D01*
G01*
X86525000Y48700000D01*
G75*
G02*
X86400000Y48825000I0J125000D01*
G01*
X86400000Y49075000D01*
G75*
G02*
X86525000Y49200000I125000J0D01*
G01*
G37*
G04 #@! TD.AperFunction*
G04 #@! TO.P,M5,J2,SEL2*
G04 #@! TO.N,unconnected-(M5-SEL2-PadJ2)*
G04 #@! TA.AperFunction,SMDPad,CuDef*
G36*
G01*
X89200000Y47525000D02*
X89450000Y47525000D01*
G75*
G02*
X89575000Y47400000I0J-125000D01*
G01*
X89575000Y46150000D01*
G75*
G02*
X89450000Y46025000I-125000J0D01*
G01*
X89200000Y46025000D01*
G75*
G02*
X89075000Y46150000I0J125000D01*
G01*
X89075000Y47400000D01*
G75*
G02*
X89200000Y47525000I125000J0D01*
G01*
G37*
G04 #@! TD.AperFunction*
G04 #@! TO.P,M5,J_GND1,PULL_DOWN1*
G04 #@! TO.N,Net-(M5-PULL_DOWN1)*
G04 #@! TA.AperFunction,SMDPad,CuDef*
G36*
G01*
X86525000Y48400000D02*
X87775000Y48400000D01*
G75*
G02*
X87900000Y48275000I0J-125000D01*
G01*
X87900000Y48025000D01*
G75*
G02*
X87775000Y47900000I-125000J0D01*
G01*
X86525000Y47900000D01*
G75*
G02*
X86400000Y48025000I0J125000D01*
G01*
X86400000Y48275000D01*
G75*
G02*
X86525000Y48400000I125000J0D01*
G01*
G37*
G04 #@! TD.AperFunction*
G04 #@! TO.P,M5,J_GND2,PULL_DOWN2*
G04 #@! TO.N,unconnected-(M5-PULL_DOWN2-PadJ_GND2)*
G04 #@! TA.AperFunction,SMDPad,CuDef*
G36*
G01*
X89075000Y48075000D02*
X89075000Y48325000D01*
G75*
G02*
X89200000Y48450000I125000J0D01*
G01*
X89450000Y48450000D01*
G75*
G02*
X89575000Y48325000I0J-125000D01*
G01*
X89575000Y48075000D01*
G75*
G02*
X89450000Y47950000I-125000J0D01*
G01*
X89200000Y47950000D01*
G75*
G02*
X89075000Y48075000I0J125000D01*
G01*
G37*
G04 #@! TD.AperFunction*
G04 #@! TO.P,M5,J_VCC1,PULL_UP1*
G04 #@! TO.N,unconnected-(M5-PULL_UP1-PadJ_VCC1)*
G04 #@! TA.AperFunction,SMDPad,CuDef*
G36*
G01*
X88400000Y49200000D02*
X88650000Y49200000D01*
G75*
G02*
X88775000Y49075000I0J-125000D01*
G01*
X88775000Y48825000D01*
G75*
G02*
X88650000Y48700000I-125000J0D01*
G01*
X88400000Y48700000D01*
G75*
G02*
X88275000Y48825000I0J125000D01*
G01*
X88275000Y49075000D01*
G75*
G02*
X88400000Y49200000I125000J0D01*
G01*
G37*
G04 #@! TD.AperFunction*
G04 #@! TO.P,M5,J_VCC2,PULL_UP2*
G04 #@! TO.N,unconnected-(M5-PULL_UP2-PadJ_VCC2)*
G04 #@! TA.AperFunction,SMDPad,CuDef*
G36*
G01*
X88400000Y47525000D02*
X88650000Y47525000D01*
G75*
G02*
X88775000Y47400000I0J-125000D01*
G01*
X88775000Y46150000D01*
G75*
G02*
X88650000Y46025000I-125000J0D01*
G01*
X88400000Y46025000D01*
G75*
G02*
X88275000Y46150000I0J125000D01*
G01*
X88275000Y47400000D01*
G75*
G02*
X88400000Y47525000I125000J0D01*
G01*
G37*
G04 #@! TD.AperFunction*
D11*
G04 #@! TO.P,M5,W1,V5_IN*
G04 #@! TO.N,+5VA*
X88125000Y40158800D03*
G04 #@! TO.P,M5,W2,CAN_VIO*
G04 #@! TO.N,unconnected-(M5-CAN_VIO-PadW2)*
X89125000Y40158800D03*
G04 #@! TO.P,M5,W3,CANL*
G04 #@! TO.N,/CAN-*
X92421000Y40158800D03*
G04 #@! TO.P,M5,W4,CANH*
G04 #@! TO.N,/CAN+*
X91405000Y40158800D03*
G04 #@! TO.P,M5,W5,nReset*
G04 #@! TO.N,Net-(J6-Pin_5)*
G04 #@! TA.AperFunction,SMDPad,CuDef*
G36*
G01*
X94425000Y39650000D02*
X94425000Y39650000D01*
G75*
G02*
X94300000Y39775000I0J125000D01*
G01*
X94300000Y40025000D01*
G75*
G02*
X94425000Y40150000I125000J0D01*
G01*
X94425000Y40150000D01*
G75*
G02*
X94550000Y40025000I0J-125000D01*
G01*
X94550000Y39775000D01*
G75*
G02*
X94425000Y39650000I-125000J0D01*
G01*
G37*
G04 #@! TD.AperFunction*
G04 #@! TO.P,M5,W6,SWDIO*
G04 #@! TO.N,Net-(J6-Pin_4)*
G04 #@! TA.AperFunction,SMDPad,CuDef*
G36*
G01*
X94925000Y39650000D02*
X94925000Y39650000D01*
G75*
G02*
X94800000Y39775000I0J125000D01*
G01*
X94800000Y40025000D01*
G75*
G02*
X94925000Y40150000I125000J0D01*
G01*
X94925000Y40150000D01*
G75*
G02*
X95050000Y40025000I0J-125000D01*
G01*
X95050000Y39775000D01*
G75*
G02*
X94925000Y39650000I-125000J0D01*
G01*
G37*
G04 #@! TD.AperFunction*
G04 #@! TO.P,M5,W7,SWCLK*
G04 #@! TO.N,Net-(J6-Pin_2)*
G04 #@! TA.AperFunction,SMDPad,CuDef*
G36*
G01*
X95425000Y39650000D02*
X95425000Y39650000D01*
G75*
G02*
X95300000Y39775000I0J125000D01*
G01*
X95300000Y40025000D01*
G75*
G02*
X95425000Y40150000I125000J0D01*
G01*
X95425000Y40150000D01*
G75*
G02*
X95550000Y40025000I0J-125000D01*
G01*
X95550000Y39775000D01*
G75*
G02*
X95425000Y39650000I-125000J0D01*
G01*
G37*
G04 #@! TD.AperFunction*
G04 #@! TO.P,M5,W8,V33_OUT*
G04 #@! TO.N,Net-(J6-Pin_1)*
G04 #@! TA.AperFunction,SMDPad,CuDef*
G36*
G01*
X97525000Y39650000D02*
X97525000Y39650000D01*
G75*
G02*
X97400000Y39775000I0J125000D01*
G01*
X97400000Y40025000D01*
G75*
G02*
X97525000Y40150000I125000J0D01*
G01*
X97525000Y40150000D01*
G75*
G02*
X97650000Y40025000I0J-125000D01*
G01*
X97650000Y39775000D01*
G75*
G02*
X97525000Y39650000I-125000J0D01*
G01*
G37*
G04 #@! TD.AperFunction*
G04 #@! TO.P,M5,W9,VDDA*
G04 #@! TO.N,unconnected-(M5-VDDA-PadW9)*
X87125000Y40158800D03*
G04 #@! TD*
G04 #@! TO.P,J2,1,Pin_1*
G04 #@! TO.N,+5VP*
G04 #@! TA.AperFunction,ComponentPad*
G36*
G01*
X7250000Y89125001D02*
X7250000Y92324999D01*
G75*
G02*
X7500001Y92575000I250001J0D01*
G01*
X9699999Y92575000D01*
G75*
G02*
X9950000Y92324999I0J-250001D01*
G01*
X9950000Y89125001D01*
G75*
G02*
X9699999Y88875000I-250001J0D01*
G01*
X7500001Y88875000D01*
G75*
G02*
X7250000Y89125001I0J250001D01*
G01*
G37*
G04 #@! TD.AperFunction*
D20*
G04 #@! TO.P,J2,2,Pin_2*
X12800000Y90725000D03*
G04 #@! TO.P,J2,3,Pin_3*
G04 #@! TO.N,/IN_BUTTON2*
X17000000Y90725000D03*
G04 #@! TO.P,J2,4,Pin_4*
G04 #@! TO.N,/IN_BUTTON1*
X21200000Y90725000D03*
G04 #@! TO.P,J2,5,Pin_5*
G04 #@! TO.N,/IN_HALL3*
X25400000Y90725000D03*
G04 #@! TO.P,J2,6,Pin_6*
G04 #@! TO.N,/IN_HALL2*
X29600000Y90725000D03*
G04 #@! TO.P,J2,7,Pin_7*
G04 #@! TO.N,/IN_HALL1*
X33800000Y90725000D03*
G04 #@! TO.P,J2,8,Pin_8*
G04 #@! TO.N,GND*
X38000000Y90725000D03*
G04 #@! TO.P,J2,9,Pin_9*
G04 #@! TO.N,/IN_MAP*
X42200000Y90725000D03*
G04 #@! TO.P,J2,10,Pin_10*
G04 #@! TO.N,/EGT+*
X46400000Y90725000D03*
G04 #@! TO.P,J2,11,Pin_11*
G04 #@! TO.N,GNDA*
X8600000Y85225000D03*
G04 #@! TO.P,J2,12,Pin_12*
X12800000Y85225000D03*
G04 #@! TO.P,J2,13,Pin_13*
G04 #@! TO.N,/IN_BUTTON3*
X17000000Y85225000D03*
G04 #@! TO.P,J2,14,Pin_14*
G04 #@! TO.N,/IN_KNOCK_RAW*
X21200000Y85225000D03*
G04 #@! TO.P,J2,15,Pin_15*
G04 #@! TO.N,/IN_FLEX*
X25400000Y85225000D03*
G04 #@! TO.P,J2,16,Pin_16*
G04 #@! TO.N,/VR2-*
X29600000Y85225000D03*
G04 #@! TO.P,J2,17,Pin_17*
G04 #@! TO.N,/VR2+*
X33800000Y85225000D03*
G04 #@! TO.P,J2,18,Pin_18*
G04 #@! TO.N,/VR1-*
X38000000Y85225000D03*
G04 #@! TO.P,J2,19,Pin_19*
G04 #@! TO.N,/VR1+*
X42200000Y85225000D03*
G04 #@! TO.P,J2,20,Pin_20*
G04 #@! TO.N,/EGT-*
X46400000Y85225000D03*
G04 #@! TD*
G04 #@! TO.P,Q7,1,G*
G04 #@! TO.N,Net-(Q7-G)*
G04 #@! TA.AperFunction,SMDPad,CuDef*
G36*
G01*
X28800000Y60570000D02*
X28800000Y59870000D01*
G75*
G02*
X28550000Y59620000I-250000J0D01*
G01*
X26850000Y59620000D01*
G75*
G02*
X26600000Y59870000I0J250000D01*
G01*
X26600000Y60570000D01*
G75*
G02*
X26850000Y60820000I250000J0D01*
G01*
X28550000Y60820000D01*
G75*
G02*
X28800000Y60570000I0J-250000D01*
G01*
G37*
G04 #@! TD.AperFunction*
G04 #@! TO.P,Q7,2,C*
G04 #@! TO.N,/OUT_IGN1*
G04 #@! TA.AperFunction,SMDPad,CuDef*
G36*
G01*
X24600000Y62100000D02*
X24600000Y59850000D01*
G75*
G02*
X24350000Y59600000I-250000J0D01*
G01*
X21800000Y59600000D01*
G75*
G02*
X21550000Y59850000I0J250000D01*
G01*
X21550000Y62100000D01*
G75*
G02*
X21800000Y62350000I250000J0D01*
G01*
X24350000Y62350000D01*
G75*
G02*
X24600000Y62100000I0J-250000D01*
G01*
G37*
G04 #@! TD.AperFunction*
G04 #@! TA.AperFunction,SMDPad,CuDef*
G36*
G01*
X24600000Y65150000D02*
X24600000Y62900000D01*
G75*
G02*
X24350000Y62650000I-250000J0D01*
G01*
X21800000Y62650000D01*
G75*
G02*
X21550000Y62900000I0J250000D01*
G01*
X21550000Y65150000D01*
G75*
G02*
X21800000Y65400000I250000J0D01*
G01*
X24350000Y65400000D01*
G75*
G02*
X24600000Y65150000I0J-250000D01*
G01*
G37*
G04 #@! TD.AperFunction*
G04 #@! TA.AperFunction,SMDPad,CuDef*
G36*
G01*
X24600000Y65150003D02*
X24600000Y59849997D01*
G75*
G02*
X24350003Y59600000I-249997J0D01*
G01*
X18449997Y59600000D01*
G75*
G02*
X18200000Y59849997I0J249997D01*
G01*
X18200000Y65150003D01*
G75*
G02*
X18449997Y65400000I249997J0D01*
G01*
X24350003Y65400000D01*
G75*
G02*
X24600000Y65150003I0J-249997D01*
G01*
G37*
G04 #@! TD.AperFunction*
G04 #@! TA.AperFunction,SMDPad,CuDef*
G36*
G01*
X21250000Y62100000D02*
X21250000Y59850000D01*
G75*
G02*
X21000000Y59600000I-250000J0D01*
G01*
X18450000Y59600000D01*
G75*
G02*
X18200000Y59850000I0J250000D01*
G01*
X18200000Y62100000D01*
G75*
G02*
X18450000Y62350000I250000J0D01*
G01*
X21000000Y62350000D01*
G75*
G02*
X21250000Y62100000I0J-250000D01*
G01*
G37*
G04 #@! TD.AperFunction*
G04 #@! TA.AperFunction,SMDPad,CuDef*
G36*
G01*
X21250000Y65150000D02*
X21250000Y62900000D01*
G75*
G02*
X21000000Y62650000I-250000J0D01*
G01*
X18450000Y62650000D01*
G75*
G02*
X18200000Y62900000I0J250000D01*
G01*
X18200000Y65150000D01*
G75*
G02*
X18450000Y65400000I250000J0D01*
G01*
X21000000Y65400000D01*
G75*
G02*
X21250000Y65150000I0J-250000D01*
G01*
G37*
G04 #@! TD.AperFunction*
G04 #@! TO.P,Q7,3,E*
G04 #@! TO.N,GND*
G04 #@! TA.AperFunction,SMDPad,CuDef*
G36*
G01*
X28800000Y65130000D02*
X28800000Y64430000D01*
G75*
G02*
X28550000Y64180000I-250000J0D01*
G01*
X26850000Y64180000D01*
G75*
G02*
X26600000Y64430000I0J250000D01*
G01*
X26600000Y65130000D01*
G75*
G02*
X26850000Y65380000I250000J0D01*
G01*
X28550000Y65380000D01*
G75*
G02*
X28800000Y65130000I0J-250000D01*
G01*
G37*
G04 #@! TD.AperFunction*
G04 #@! TD*
G04 #@! TO.P,Q8,1,G*
G04 #@! TO.N,Net-(Q8-G)*
G04 #@! TA.AperFunction,SMDPad,CuDef*
G36*
G01*
X28800000Y53570000D02*
X28800000Y52870000D01*
G75*
G02*
X28550000Y52620000I-250000J0D01*
G01*
X26850000Y52620000D01*
G75*
G02*
X26600000Y52870000I0J250000D01*
G01*
X26600000Y53570000D01*
G75*
G02*
X26850000Y53820000I250000J0D01*
G01*
X28550000Y53820000D01*
G75*
G02*
X28800000Y53570000I0J-250000D01*
G01*
G37*
G04 #@! TD.AperFunction*
G04 #@! TO.P,Q8,2,C*
G04 #@! TO.N,/OUT_IGN2*
G04 #@! TA.AperFunction,SMDPad,CuDef*
G36*
G01*
X24600000Y55100000D02*
X24600000Y52850000D01*
G75*
G02*
X24350000Y52600000I-250000J0D01*
G01*
X21800000Y52600000D01*
G75*
G02*
X21550000Y52850000I0J250000D01*
G01*
X21550000Y55100000D01*
G75*
G02*
X21800000Y55350000I250000J0D01*
G01*
X24350000Y55350000D01*
G75*
G02*
X24600000Y55100000I0J-250000D01*
G01*
G37*
G04 #@! TD.AperFunction*
G04 #@! TA.AperFunction,SMDPad,CuDef*
G36*
G01*
X24600000Y58150000D02*
X24600000Y55900000D01*
G75*
G02*
X24350000Y55650000I-250000J0D01*
G01*
X21800000Y55650000D01*
G75*
G02*
X21550000Y55900000I0J250000D01*
G01*
X21550000Y58150000D01*
G75*
G02*
X21800000Y58400000I250000J0D01*
G01*
X24350000Y58400000D01*
G75*
G02*
X24600000Y58150000I0J-250000D01*
G01*
G37*
G04 #@! TD.AperFunction*
G04 #@! TA.AperFunction,SMDPad,CuDef*
G36*
G01*
X24600000Y58150003D02*
X24600000Y52849997D01*
G75*
G02*
X24350003Y52600000I-249997J0D01*
G01*
X18449997Y52600000D01*
G75*
G02*
X18200000Y52849997I0J249997D01*
G01*
X18200000Y58150003D01*
G75*
G02*
X18449997Y58400000I249997J0D01*
G01*
X24350003Y58400000D01*
G75*
G02*
X24600000Y58150003I0J-249997D01*
G01*
G37*
G04 #@! TD.AperFunction*
G04 #@! TA.AperFunction,SMDPad,CuDef*
G36*
G01*
X21250000Y55100000D02*
X21250000Y52850000D01*
G75*
G02*
X21000000Y52600000I-250000J0D01*
G01*
X18450000Y52600000D01*
G75*
G02*
X18200000Y52850000I0J250000D01*
G01*
X18200000Y55100000D01*
G75*
G02*
X18450000Y55350000I250000J0D01*
G01*
X21000000Y55350000D01*
G75*
G02*
X21250000Y55100000I0J-250000D01*
G01*
G37*
G04 #@! TD.AperFunction*
G04 #@! TA.AperFunction,SMDPad,CuDef*
G36*
G01*
X21250000Y58150000D02*
X21250000Y55900000D01*
G75*
G02*
X21000000Y55650000I-250000J0D01*
G01*
X18450000Y55650000D01*
G75*
G02*
X18200000Y55900000I0J250000D01*
G01*
X18200000Y58150000D01*
G75*
G02*
X18450000Y58400000I250000J0D01*
G01*
X21000000Y58400000D01*
G75*
G02*
X21250000Y58150000I0J-250000D01*
G01*
G37*
G04 #@! TD.AperFunction*
G04 #@! TO.P,Q8,3,E*
G04 #@! TO.N,GND*
G04 #@! TA.AperFunction,SMDPad,CuDef*
G36*
G01*
X28800000Y58130000D02*
X28800000Y57430000D01*
G75*
G02*
X28550000Y57180000I-250000J0D01*
G01*
X26850000Y57180000D01*
G75*
G02*
X26600000Y57430000I0J250000D01*
G01*
X26600000Y58130000D01*
G75*
G02*
X26850000Y58380000I250000J0D01*
G01*
X28550000Y58380000D01*
G75*
G02*
X28800000Y58130000I0J-250000D01*
G01*
G37*
G04 #@! TD.AperFunction*
G04 #@! TD*
D21*
G04 #@! TO.P,P1,1,Pin_1*
G04 #@! TO.N,Net-(M7-CANL)*
X34000000Y57500000D03*
G04 #@! TD*
G04 #@! TO.P,C26,1*
G04 #@! TO.N,GND*
G04 #@! TA.AperFunction,SMDPad,CuDef*
G36*
G01*
X23260000Y6715001D02*
X23940000Y6715001D01*
G75*
G02*
X24025000Y6630001I0J-85000D01*
G01*
X24025000Y5950001D01*
G75*
G02*
X23940000Y5865001I-85000J0D01*
G01*
X23260000Y5865001D01*
G75*
G02*
X23175000Y5950001I0J85000D01*
G01*
X23175000Y6630001D01*
G75*
G02*
X23260000Y6715001I85000J0D01*
G01*
G37*
G04 #@! TD.AperFunction*
G04 #@! TO.P,C26,2*
G04 #@! TO.N,/OUT_DC2+*
G04 #@! TA.AperFunction,SMDPad,CuDef*
G36*
G01*
X23260000Y5134999D02*
X23940000Y5134999D01*
G75*
G02*
X24025000Y5049999I0J-85000D01*
G01*
X24025000Y4369999D01*
G75*
G02*
X23940000Y4284999I-85000J0D01*
G01*
X23260000Y4284999D01*
G75*
G02*
X23175000Y4369999I0J85000D01*
G01*
X23175000Y5049999D01*
G75*
G02*
X23260000Y5134999I85000J0D01*
G01*
G37*
G04 #@! TD.AperFunction*
G04 #@! TD*
D22*
G04 #@! TO.P,Q2,1,G*
G04 #@! TO.N,/LS2*
X22850000Y79800000D03*
G04 #@! TO.P,Q2,2,D*
G04 #@! TO.N,/OUT_LS2*
X22850000Y77500000D03*
G04 #@! TO.P,Q2,3,S*
G04 #@! TO.N,GND*
X22850000Y75200000D03*
D23*
G04 #@! TO.P,Q2,4*
G04 #@! TO.N,N/C*
X29150000Y77500000D03*
G04 #@! TD*
G04 #@! TO.P,J1,1,Pin_1*
G04 #@! TO.N,+5VP*
G04 #@! TA.AperFunction,ComponentPad*
G36*
G01*
X52250000Y89125001D02*
X52250000Y92324999D01*
G75*
G02*
X52500001Y92575000I250001J0D01*
G01*
X54699999Y92575000D01*
G75*
G02*
X54950000Y92324999I0J-250001D01*
G01*
X54950000Y89125001D01*
G75*
G02*
X54699999Y88875000I-250001J0D01*
G01*
X52500001Y88875000D01*
G75*
G02*
X52250000Y89125001I0J250001D01*
G01*
G37*
G04 #@! TD.AperFunction*
D20*
G04 #@! TO.P,J1,2,Pin_2*
X57800000Y90725000D03*
G04 #@! TO.P,J1,3,Pin_3*
G04 #@! TO.N,/IN_PPS2*
X62000000Y90725000D03*
G04 #@! TO.P,J1,4,Pin_4*
G04 #@! TO.N,/IN_PPS1*
X66200000Y90725000D03*
G04 #@! TO.P,J1,5,Pin_5*
G04 #@! TO.N,+5VP*
X70400000Y90725000D03*
G04 #@! TO.P,J1,6,Pin_6*
X74600000Y90725000D03*
G04 #@! TO.P,J1,7,Pin_7*
G04 #@! TO.N,/IN_CLT*
X78800000Y90725000D03*
G04 #@! TO.P,J1,8,Pin_8*
G04 #@! TO.N,/IN_IAT*
X83000000Y90725000D03*
G04 #@! TO.P,J1,9,Pin_9*
G04 #@! TO.N,/CAN-*
X87200000Y90725000D03*
G04 #@! TO.P,J1,10,Pin_10*
G04 #@! TO.N,/CAN+*
X91400000Y90725000D03*
G04 #@! TO.P,J1,11,Pin_11*
G04 #@! TO.N,GNDA*
X53600000Y85225000D03*
G04 #@! TO.P,J1,12,Pin_12*
X57800000Y85225000D03*
G04 #@! TO.P,J1,13,Pin_13*
G04 #@! TO.N,/IN_TPS1*
X62000000Y85225000D03*
G04 #@! TO.P,J1,14,Pin_14*
G04 #@! TO.N,/IN_TPS2*
X66200000Y85225000D03*
G04 #@! TO.P,J1,15,Pin_15*
G04 #@! TO.N,GNDA*
X70400000Y85225000D03*
G04 #@! TO.P,J1,16,Pin_16*
X74600000Y85225000D03*
G04 #@! TO.P,J1,17,Pin_17*
G04 #@! TO.N,/IN_AUX3*
X78800000Y85225000D03*
G04 #@! TO.P,J1,18,Pin_18*
G04 #@! TO.N,/IN_AUX2*
X83000000Y85225000D03*
G04 #@! TO.P,J1,19,Pin_19*
G04 #@! TO.N,/IN_AUX1*
X87200000Y85225000D03*
G04 #@! TO.P,J1,20,Pin_20*
G04 #@! TO.N,Net-(J1-Pin_20)*
X91400000Y85225000D03*
G04 #@! TD*
D21*
G04 #@! TO.P,P2,1,Pin_1*
G04 #@! TO.N,Net-(M7-CANH)*
X31000000Y57500000D03*
G04 #@! TD*
G04 #@! TO.P,U4,1,GND*
G04 #@! TO.N,GND*
G04 #@! TA.AperFunction,SMDPad,CuDef*
G36*
G01*
X59255000Y76012500D02*
X59555000Y76012500D01*
G75*
G02*
X59705000Y75862500I0J-150000D01*
G01*
X59705000Y74212500D01*
G75*
G02*
X59555000Y74062500I-150000J0D01*
G01*
X59255000Y74062500D01*
G75*
G02*
X59105000Y74212500I0J150000D01*
G01*
X59105000Y75862500D01*
G75*
G02*
X59255000Y76012500I150000J0D01*
G01*
G37*
G04 #@! TD.AperFunction*
G04 #@! TO.P,U4,2,T-*
G04 #@! TO.N,Net-(U4-T-)*
G04 #@! TA.AperFunction,SMDPad,CuDef*
G36*
G01*
X57985000Y76012500D02*
X58285000Y76012500D01*
G75*
G02*
X58435000Y75862500I0J-150000D01*
G01*
X58435000Y74212500D01*
G75*
G02*
X58285000Y74062500I-150000J0D01*
G01*
X57985000Y74062500D01*
G75*
G02*
X57835000Y74212500I0J150000D01*
G01*
X57835000Y75862500D01*
G75*
G02*
X57985000Y76012500I150000J0D01*
G01*
G37*
G04 #@! TD.AperFunction*
G04 #@! TO.P,U4,3,T+*
G04 #@! TO.N,Net-(U4-T+)*
G04 #@! TA.AperFunction,SMDPad,CuDef*
G36*
G01*
X56715000Y76012500D02*
X57015000Y76012500D01*
G75*
G02*
X57165000Y75862500I0J-150000D01*
G01*
X57165000Y74212500D01*
G75*
G02*
X57015000Y74062500I-150000J0D01*
G01*
X56715000Y74062500D01*
G75*
G02*
X56565000Y74212500I0J150000D01*
G01*
X56565000Y75862500D01*
G75*
G02*
X56715000Y76012500I150000J0D01*
G01*
G37*
G04 #@! TD.AperFunction*
G04 #@! TO.P,U4,4,V_CC*
G04 #@! TO.N,+3.3VA*
G04 #@! TA.AperFunction,SMDPad,CuDef*
G36*
G01*
X55445000Y76012500D02*
X55745000Y76012500D01*
G75*
G02*
X55895000Y75862500I0J-150000D01*
G01*
X55895000Y74212500D01*
G75*
G02*
X55745000Y74062500I-150000J0D01*
G01*
X55445000Y74062500D01*
G75*
G02*
X55295000Y74212500I0J150000D01*
G01*
X55295000Y75862500D01*
G75*
G02*
X55445000Y76012500I150000J0D01*
G01*
G37*
G04 #@! TD.AperFunction*
G04 #@! TO.P,U4,5,SCK*
G04 #@! TO.N,/EGT/SPI_SCK*
G04 #@! TA.AperFunction,SMDPad,CuDef*
G36*
G01*
X55445000Y71062500D02*
X55745000Y71062500D01*
G75*
G02*
X55895000Y70912500I0J-150000D01*
G01*
X55895000Y69262500D01*
G75*
G02*
X55745000Y69112500I-150000J0D01*
G01*
X55445000Y69112500D01*
G75*
G02*
X55295000Y69262500I0J150000D01*
G01*
X55295000Y70912500D01*
G75*
G02*
X55445000Y71062500I150000J0D01*
G01*
G37*
G04 #@! TD.AperFunction*
G04 #@! TO.P,U4,6,~{CS}*
G04 #@! TO.N,/EGT/SPI_CS*
G04 #@! TA.AperFunction,SMDPad,CuDef*
G36*
G01*
X56715000Y71062500D02*
X57015000Y71062500D01*
G75*
G02*
X57165000Y70912500I0J-150000D01*
G01*
X57165000Y69262500D01*
G75*
G02*
X57015000Y69112500I-150000J0D01*
G01*
X56715000Y69112500D01*
G75*
G02*
X56565000Y69262500I0J150000D01*
G01*
X56565000Y70912500D01*
G75*
G02*
X56715000Y71062500I150000J0D01*
G01*
G37*
G04 #@! TD.AperFunction*
G04 #@! TO.P,U4,7,SO*
G04 #@! TO.N,/EGT/SPI_SO*
G04 #@! TA.AperFunction,SMDPad,CuDef*
G36*
G01*
X57985000Y71062500D02*
X58285000Y71062500D01*
G75*
G02*
X58435000Y70912500I0J-150000D01*
G01*
X58435000Y69262500D01*
G75*
G02*
X58285000Y69112500I-150000J0D01*
G01*
X57985000Y69112500D01*
G75*
G02*
X57835000Y69262500I0J150000D01*
G01*
X57835000Y70912500D01*
G75*
G02*
X57985000Y71062500I150000J0D01*
G01*
G37*
G04 #@! TD.AperFunction*
G04 #@! TO.P,U4,8*
G04 #@! TO.N,N/C*
G04 #@! TA.AperFunction,SMDPad,CuDef*
G36*
G01*
X59255000Y71062500D02*
X59555000Y71062500D01*
G75*
G02*
X59705000Y70912500I0J-150000D01*
G01*
X59705000Y69262500D01*
G75*
G02*
X59555000Y69112500I-150000J0D01*
G01*
X59255000Y69112500D01*
G75*
G02*
X59105000Y69262500I0J150000D01*
G01*
X59105000Y70912500D01*
G75*
G02*
X59255000Y71062500I150000J0D01*
G01*
G37*
G04 #@! TD.AperFunction*
G04 #@! TD*
G04 #@! TO.P,C13,1*
G04 #@! TO.N,GND*
G04 #@! TA.AperFunction,SMDPad,CuDef*
G36*
G01*
X16785000Y16175001D02*
X17465000Y16175001D01*
G75*
G02*
X17550000Y16090001I0J-85000D01*
G01*
X17550000Y15410001D01*
G75*
G02*
X17465000Y15325001I-85000J0D01*
G01*
X16785000Y15325001D01*
G75*
G02*
X16700000Y15410001I0J85000D01*
G01*
X16700000Y16090001D01*
G75*
G02*
X16785000Y16175001I85000J0D01*
G01*
G37*
G04 #@! TD.AperFunction*
G04 #@! TO.P,C13,2*
G04 #@! TO.N,/OUT_DC1+*
G04 #@! TA.AperFunction,SMDPad,CuDef*
G36*
G01*
X16785000Y14594999D02*
X17465000Y14594999D01*
G75*
G02*
X17550000Y14509999I0J-85000D01*
G01*
X17550000Y13829999D01*
G75*
G02*
X17465000Y13744999I-85000J0D01*
G01*
X16785000Y13744999D01*
G75*
G02*
X16700000Y13829999I0J85000D01*
G01*
X16700000Y14509999D01*
G75*
G02*
X16785000Y14594999I85000J0D01*
G01*
G37*
G04 #@! TD.AperFunction*
G04 #@! TD*
G04 #@! TO.P,C31,1*
G04 #@! TO.N,+3.3VA*
G04 #@! TA.AperFunction,SMDPad,CuDef*
G36*
G01*
X53670000Y74240000D02*
X53330000Y74240000D01*
G75*
G02*
X53190000Y74380000I0J140000D01*
G01*
X53190000Y74660000D01*
G75*
G02*
X53330000Y74800000I140000J0D01*
G01*
X53670000Y74800000D01*
G75*
G02*
X53810000Y74660000I0J-140000D01*
G01*
X53810000Y74380000D01*
G75*
G02*
X53670000Y74240000I-140000J0D01*
G01*
G37*
G04 #@! TD.AperFunction*
G04 #@! TO.P,C31,2*
G04 #@! TO.N,GND*
G04 #@! TA.AperFunction,SMDPad,CuDef*
G36*
G01*
X53670000Y75200000D02*
X53330000Y75200000D01*
G75*
G02*
X53190000Y75340000I0J140000D01*
G01*
X53190000Y75620000D01*
G75*
G02*
X53330000Y75760000I140000J0D01*
G01*
X53670000Y75760000D01*
G75*
G02*
X53810000Y75620000I0J-140000D01*
G01*
X53810000Y75340000D01*
G75*
G02*
X53670000Y75200000I-140000J0D01*
G01*
G37*
G04 #@! TD.AperFunction*
G04 #@! TD*
D24*
G04 #@! TO.P,H1,1*
G04 #@! TO.N,N/C*
X1100000Y88000000D03*
X1802944Y89697056D03*
X1802944Y86302944D03*
X3500000Y90400000D03*
D25*
X3500000Y88000000D03*
D24*
X3500000Y85600000D03*
X5197056Y89697056D03*
X5197056Y86302944D03*
X5900000Y88000000D03*
G04 #@! TD*
G04 #@! TO.P,H4,1*
G04 #@! TO.N,N/C*
X94100000Y88000000D03*
X94802944Y89697056D03*
X94802944Y86302944D03*
X96500000Y90400000D03*
D25*
X96500000Y88000000D03*
D24*
X96500000Y85600000D03*
X98197056Y89697056D03*
X98197056Y86302944D03*
X98900000Y88000000D03*
G04 #@! TD*
D26*
G04 #@! TO.P,F4,1,1*
G04 #@! TO.N,+12V*
X19880000Y19450000D03*
G04 #@! TA.AperFunction,SMDPad,CuDef*
G36*
G01*
X18980000Y18105010D02*
X18980000Y18795010D01*
G75*
G02*
X19210000Y19025010I230000J0D01*
G01*
X20550000Y19025010D01*
G75*
G02*
X20780000Y18795010I0J-230000D01*
G01*
X20780000Y18105010D01*
G75*
G02*
X20550000Y17875010I-230000J0D01*
G01*
X19210000Y17875010D01*
G75*
G02*
X18980000Y18105010I0J230000D01*
G01*
G37*
G04 #@! TD.AperFunction*
G04 #@! TO.P,F4,2,2*
G04 #@! TO.N,/DC Driver 2/PWR*
G04 #@! TA.AperFunction,SMDPad,CuDef*
G36*
G01*
X18980000Y15204990D02*
X18980000Y15894990D01*
G75*
G02*
X19210000Y16124990I230000J0D01*
G01*
X20550000Y16124990D01*
G75*
G02*
X20780000Y15894990I0J-230000D01*
G01*
X20780000Y15204990D01*
G75*
G02*
X20550000Y14974990I-230000J0D01*
G01*
X19210000Y14974990D01*
G75*
G02*
X18980000Y15204990I0J230000D01*
G01*
G37*
G04 #@! TD.AperFunction*
X19880000Y14550000D03*
G04 #@! TD*
G04 #@! TO.P,C11,1*
G04 #@! TO.N,GND*
G04 #@! TA.AperFunction,SMDPad,CuDef*
G36*
G01*
X785000Y19675001D02*
X1465000Y19675001D01*
G75*
G02*
X1550000Y19590001I0J-85000D01*
G01*
X1550000Y18910001D01*
G75*
G02*
X1465000Y18825001I-85000J0D01*
G01*
X785000Y18825001D01*
G75*
G02*
X700000Y18910001I0J85000D01*
G01*
X700000Y19590001D01*
G75*
G02*
X785000Y19675001I85000J0D01*
G01*
G37*
G04 #@! TD.AperFunction*
G04 #@! TO.P,C11,2*
G04 #@! TO.N,/DC Driver 1/PWR*
G04 #@! TA.AperFunction,SMDPad,CuDef*
G36*
G01*
X785000Y18094999D02*
X1465000Y18094999D01*
G75*
G02*
X1550000Y18009999I0J-85000D01*
G01*
X1550000Y17329999D01*
G75*
G02*
X1465000Y17244999I-85000J0D01*
G01*
X785000Y17244999D01*
G75*
G02*
X700000Y17329999I0J85000D01*
G01*
X700000Y18009999D01*
G75*
G02*
X785000Y18094999I85000J0D01*
G01*
G37*
G04 #@! TD.AperFunction*
G04 #@! TD*
G04 #@! TO.P,J7,1,Pin_1*
G04 #@! TO.N,/VBUS*
G04 #@! TA.AperFunction,ComponentPad*
G36*
G01*
X83675000Y2150000D02*
X82325000Y2150000D01*
G75*
G02*
X82075000Y2400000I0J250000D01*
G01*
X82075000Y3600000D01*
G75*
G02*
X82325000Y3850000I250000J0D01*
G01*
X83675000Y3850000D01*
G75*
G02*
X83925000Y3600000I0J-250000D01*
G01*
X83925000Y2400000D01*
G75*
G02*
X83675000Y2150000I-250000J0D01*
G01*
G37*
G04 #@! TD.AperFunction*
D27*
G04 #@! TO.P,J7,2,Pin_2*
G04 #@! TO.N,/USB-*
X83000000Y5500000D03*
G04 #@! TO.P,J7,3,Pin_3*
G04 #@! TO.N,/USB+*
X83000000Y8000000D03*
G04 #@! TO.P,J7,4,Pin_4*
G04 #@! TO.N,GND*
X83000000Y10500000D03*
G04 #@! TO.P,J7,5,Pin_5*
X83000000Y13000000D03*
G04 #@! TD*
D28*
G04 #@! TO.P,Q16,1,G*
G04 #@! TO.N,/INJ4*
X32200000Y34350000D03*
G04 #@! TO.P,Q16,2,D*
G04 #@! TO.N,/OUT_INJ4*
X34500000Y34350000D03*
G04 #@! TO.P,Q16,3,S*
G04 #@! TO.N,GND*
X36800000Y34350000D03*
D29*
G04 #@! TO.P,Q16,4*
G04 #@! TO.N,N/C*
X34500000Y40650000D03*
G04 #@! TD*
D21*
G04 #@! TO.P,P4,1,Pin_1*
G04 #@! TO.N,Net-(M6-LED_GREEN)*
X62500000Y7500000D03*
G04 #@! TD*
G04 #@! TO.P,P5,1,Pin_1*
G04 #@! TO.N,Net-(M6-SPI2_MOSI_(PB15))*
X43500000Y31500000D03*
G04 #@! TD*
D24*
G04 #@! TO.P,H2,1*
G04 #@! TO.N,N/C*
X1100000Y3500000D03*
X1802944Y5197056D03*
X1802944Y1802944D03*
X3500000Y5900000D03*
D25*
X3500000Y3500000D03*
D24*
X3500000Y1100000D03*
X5197056Y5197056D03*
X5197056Y1802944D03*
X5900000Y3500000D03*
G04 #@! TD*
D30*
G04 #@! TO.P,M3,E1,Thresh_IN*
G04 #@! TO.N,/VR1_THRESHOLD*
X49175000Y62675000D03*
G04 #@! TO.P,M3,E2,OUT_A*
G04 #@! TO.N,/VR1_A*
X47975000Y62675000D03*
G04 #@! TO.P,M3,E3,OUT*
G04 #@! TO.N,/VR1*
X50375000Y62675000D03*
G04 #@! TO.P,M3,E4,V5_IN*
G04 #@! TO.N,+5VA*
X51575000Y62675000D03*
D31*
G04 #@! TO.P,M3,G,GND*
G04 #@! TO.N,GND*
X48907500Y77325000D03*
D32*
X42857500Y77325000D03*
D33*
X51875000Y70312500D03*
D34*
X42425000Y69900000D03*
D35*
X44887500Y62475000D03*
D30*
G04 #@! TO.P,M3,W1,VR-*
G04 #@! TO.N,/VR1-*
X45115000Y77100000D03*
G04 #@! TO.P,M3,W2,VR+*
G04 #@! TO.N,/VR1+*
X44115000Y77100000D03*
G04 #@! TD*
D36*
G04 #@! TO.P,J8,1,VBUS*
G04 #@! TO.N,/VBUS*
X59250000Y3100000D03*
D37*
G04 #@! TO.P,J8,2,D-*
G04 #@! TO.N,/USB-*
X57500000Y3900000D03*
G04 #@! TO.P,J8,3,D+*
G04 #@! TO.N,/USB+*
X59250000Y4700000D03*
G04 #@! TO.P,J8,4,ID*
G04 #@! TO.N,unconnected-(J8-ID-Pad4)*
X57500000Y5500000D03*
G04 #@! TO.P,J8,5,GND*
G04 #@! TO.N,GND*
X59250000Y6300000D03*
D38*
G04 #@! TO.P,J8,6,Shield*
X58375000Y1050000D03*
X58375000Y8350000D03*
G04 #@! TD*
D26*
G04 #@! TO.P,F3,1,1*
G04 #@! TO.N,+12V*
X22500000Y19450000D03*
G04 #@! TA.AperFunction,SMDPad,CuDef*
G36*
G01*
X21600000Y18105010D02*
X21600000Y18795010D01*
G75*
G02*
X21830000Y19025010I230000J0D01*
G01*
X23170000Y19025010D01*
G75*
G02*
X23400000Y18795010I0J-230000D01*
G01*
X23400000Y18105010D01*
G75*
G02*
X23170000Y17875010I-230000J0D01*
G01*
X21830000Y17875010D01*
G75*
G02*
X21600000Y18105010I0J230000D01*
G01*
G37*
G04 #@! TD.AperFunction*
G04 #@! TO.P,F3,2,2*
G04 #@! TO.N,/DC Driver 1/PWR*
G04 #@! TA.AperFunction,SMDPad,CuDef*
G36*
G01*
X21600000Y15204990D02*
X21600000Y15894990D01*
G75*
G02*
X21830000Y16124990I230000J0D01*
G01*
X23170000Y16124990D01*
G75*
G02*
X23400000Y15894990I0J-230000D01*
G01*
X23400000Y15204990D01*
G75*
G02*
X23170000Y14974990I-230000J0D01*
G01*
X21830000Y14974990D01*
G75*
G02*
X21600000Y15204990I0J230000D01*
G01*
G37*
G04 #@! TD.AperFunction*
X22500000Y14550000D03*
G04 #@! TD*
D30*
G04 #@! TO.P,M2,E1,V5A*
G04 #@! TO.N,+5VA*
X79074999Y73025000D03*
D39*
G04 #@! TO.P,M2,E2,GND*
G04 #@! TO.N,GND*
X77099999Y81925000D03*
D40*
X79674999Y77375000D03*
X76574999Y77375000D03*
D30*
X78124999Y73025000D03*
G04 #@! TO.P,M2,E3,OUT_KNOCK*
G04 #@! TO.N,/IN_KNOCK*
X77175001Y73025000D03*
G04 #@! TO.P,M2,W1,IN_KNOCK*
G04 #@! TO.N,/IN_KNOCK_RAW*
X78174999Y81725000D03*
G04 #@! TO.P,M2,W2,VREF*
G04 #@! TO.N,/VREF2*
X79074999Y81725000D03*
G04 #@! TD*
G04 #@! TO.P,C25,1*
G04 #@! TO.N,GND*
G04 #@! TA.AperFunction,SMDPad,CuDef*
G36*
G01*
X7940000Y4284999D02*
X7260000Y4284999D01*
G75*
G02*
X7175000Y4369999I0J85000D01*
G01*
X7175000Y5049999D01*
G75*
G02*
X7260000Y5134999I85000J0D01*
G01*
X7940000Y5134999D01*
G75*
G02*
X8025000Y5049999I0J-85000D01*
G01*
X8025000Y4369999D01*
G75*
G02*
X7940000Y4284999I-85000J0D01*
G01*
G37*
G04 #@! TD.AperFunction*
G04 #@! TO.P,C25,2*
G04 #@! TO.N,/OUT_DC2-*
G04 #@! TA.AperFunction,SMDPad,CuDef*
G36*
G01*
X7940000Y5865001D02*
X7260000Y5865001D01*
G75*
G02*
X7175000Y5950001I0J85000D01*
G01*
X7175000Y6630001D01*
G75*
G02*
X7260000Y6715001I85000J0D01*
G01*
X7940000Y6715001D01*
G75*
G02*
X8025000Y6630001I0J-85000D01*
G01*
X8025000Y5950001D01*
G75*
G02*
X7940000Y5865001I-85000J0D01*
G01*
G37*
G04 #@! TD.AperFunction*
G04 #@! TD*
G04 #@! TO.P,R4,1*
G04 #@! TO.N,/VR2-*
G04 #@! TA.AperFunction,SMDPad,CuDef*
G36*
G01*
X33519997Y78500000D02*
X33519997Y81350000D01*
G75*
G02*
X33769997Y81600000I250000J0D01*
G01*
X34494997Y81600000D01*
G75*
G02*
X34744997Y81350000I0J-250000D01*
G01*
X34744997Y78500000D01*
G75*
G02*
X34494997Y78250000I-250000J0D01*
G01*
X33769997Y78250000D01*
G75*
G02*
X33519997Y78500000I0J250000D01*
G01*
G37*
G04 #@! TD.AperFunction*
G04 #@! TO.P,R4,2*
G04 #@! TO.N,Net-(R1-Pad2)*
G04 #@! TA.AperFunction,SMDPad,CuDef*
G36*
G01*
X39444997Y78500000D02*
X39444997Y81350000D01*
G75*
G02*
X39694997Y81600000I250000J0D01*
G01*
X40419997Y81600000D01*
G75*
G02*
X40669997Y81350000I0J-250000D01*
G01*
X40669997Y78500000D01*
G75*
G02*
X40419997Y78250000I-250000J0D01*
G01*
X39694997Y78250000D01*
G75*
G02*
X39444997Y78500000I0J250000D01*
G01*
G37*
G04 #@! TD.AperFunction*
G04 #@! TD*
D41*
G04 #@! TO.P,M1,E1,VBAT*
G04 #@! TO.N,/VBAT*
X40874995Y20824999D03*
G04 #@! TO.P,M1,E2,V12*
G04 #@! TO.N,unconnected-(M1-V12-PadE2)*
X40874995Y14425002D03*
G04 #@! TO.P,M1,E3,VIGN*
G04 #@! TO.N,/VIGN*
X40874995Y12524999D03*
G04 #@! TO.P,M1,E4,V5*
G04 #@! TO.N,+5V*
X40874995Y8224999D03*
D30*
G04 #@! TO.P,M1,E5,EN_5VP*
G04 #@! TO.N,/PWR_EN*
X41324994Y5825002D03*
G04 #@! TO.P,M1,E6,PG_5VP*
G04 #@! TO.N,Net-(M1-PG_5VP)*
X41324994Y4825001D03*
D42*
G04 #@! TO.P,M1,S1,GND*
G04 #@! TO.N,GND*
X24724999Y16974999D03*
D43*
X24724999Y8475001D03*
D44*
X24724999Y1374999D03*
D45*
X33124997Y1324999D03*
D46*
X33924998Y21924999D03*
D41*
X40874995Y1974999D03*
D44*
X41524996Y21874999D03*
D47*
X41524996Y17675001D03*
D48*
X41524996Y10324999D03*
D49*
X41524996Y6825002D03*
D50*
X41524996Y3525001D03*
D41*
G04 #@! TO.P,M1,V1,V12_PERM*
G04 #@! TO.N,+12V_RAW*
X25374998Y21275001D03*
G04 #@! TO.P,M1,V2,IN_VIGN*
G04 #@! TO.N,/IN_VIGN*
X25374998Y19425002D03*
G04 #@! TO.P,M1,V3,V12_RAW*
G04 #@! TO.N,+12V_RAW*
X25374998Y14474999D03*
G04 #@! TO.P,M1,V4,5VP*
G04 #@! TO.N,+5VP*
X25374998Y2425001D03*
G04 #@! TD*
G04 #@! TO.P,Q12,1,G*
G04 #@! TO.N,Net-(Q12-G)*
G04 #@! TA.AperFunction,SMDPad,CuDef*
G36*
G01*
X28800000Y25570000D02*
X28800000Y24870000D01*
G75*
G02*
X28550000Y24620000I-250000J0D01*
G01*
X26850000Y24620000D01*
G75*
G02*
X26600000Y24870000I0J250000D01*
G01*
X26600000Y25570000D01*
G75*
G02*
X26850000Y25820000I250000J0D01*
G01*
X28550000Y25820000D01*
G75*
G02*
X28800000Y25570000I0J-250000D01*
G01*
G37*
G04 #@! TD.AperFunction*
G04 #@! TO.P,Q12,2,C*
G04 #@! TO.N,/OUT_IGN6*
G04 #@! TA.AperFunction,SMDPad,CuDef*
G36*
G01*
X24600000Y27100000D02*
X24600000Y24850000D01*
G75*
G02*
X24350000Y24600000I-250000J0D01*
G01*
X21800000Y24600000D01*
G75*
G02*
X21550000Y24850000I0J250000D01*
G01*
X21550000Y27100000D01*
G75*
G02*
X21800000Y27350000I250000J0D01*
G01*
X24350000Y27350000D01*
G75*
G02*
X24600000Y27100000I0J-250000D01*
G01*
G37*
G04 #@! TD.AperFunction*
G04 #@! TA.AperFunction,SMDPad,CuDef*
G36*
G01*
X24600000Y30150000D02*
X24600000Y27900000D01*
G75*
G02*
X24350000Y27650000I-250000J0D01*
G01*
X21800000Y27650000D01*
G75*
G02*
X21550000Y27900000I0J250000D01*
G01*
X21550000Y30150000D01*
G75*
G02*
X21800000Y30400000I250000J0D01*
G01*
X24350000Y30400000D01*
G75*
G02*
X24600000Y30150000I0J-250000D01*
G01*
G37*
G04 #@! TD.AperFunction*
G04 #@! TA.AperFunction,SMDPad,CuDef*
G36*
G01*
X24600000Y30150003D02*
X24600000Y24849997D01*
G75*
G02*
X24350003Y24600000I-249997J0D01*
G01*
X18449997Y24600000D01*
G75*
G02*
X18200000Y24849997I0J249997D01*
G01*
X18200000Y30150003D01*
G75*
G02*
X18449997Y30400000I249997J0D01*
G01*
X24350003Y30400000D01*
G75*
G02*
X24600000Y30150003I0J-249997D01*
G01*
G37*
G04 #@! TD.AperFunction*
G04 #@! TA.AperFunction,SMDPad,CuDef*
G36*
G01*
X21250000Y27100000D02*
X21250000Y24850000D01*
G75*
G02*
X21000000Y24600000I-250000J0D01*
G01*
X18450000Y24600000D01*
G75*
G02*
X18200000Y24850000I0J250000D01*
G01*
X18200000Y27100000D01*
G75*
G02*
X18450000Y27350000I250000J0D01*
G01*
X21000000Y27350000D01*
G75*
G02*
X21250000Y27100000I0J-250000D01*
G01*
G37*
G04 #@! TD.AperFunction*
G04 #@! TA.AperFunction,SMDPad,CuDef*
G36*
G01*
X21250000Y30150000D02*
X21250000Y27900000D01*
G75*
G02*
X21000000Y27650000I-250000J0D01*
G01*
X18450000Y27650000D01*
G75*
G02*
X18200000Y27900000I0J250000D01*
G01*
X18200000Y30150000D01*
G75*
G02*
X18450000Y30400000I250000J0D01*
G01*
X21000000Y30400000D01*
G75*
G02*
X21250000Y30150000I0J-250000D01*
G01*
G37*
G04 #@! TD.AperFunction*
G04 #@! TO.P,Q12,3,E*
G04 #@! TO.N,GND*
G04 #@! TA.AperFunction,SMDPad,CuDef*
G36*
G01*
X28800000Y30130000D02*
X28800000Y29430000D01*
G75*
G02*
X28550000Y29180000I-250000J0D01*
G01*
X26850000Y29180000D01*
G75*
G02*
X26600000Y29430000I0J250000D01*
G01*
X26600000Y30130000D01*
G75*
G02*
X26850000Y30380000I250000J0D01*
G01*
X28550000Y30380000D01*
G75*
G02*
X28800000Y30130000I0J-250000D01*
G01*
G37*
G04 #@! TD.AperFunction*
G04 #@! TD*
D51*
G04 #@! TO.P,M7,E1,GND*
G04 #@! TO.N,GND*
X34762500Y54475001D03*
D52*
X37500000Y49000000D03*
D53*
X30900003Y48299999D03*
D54*
X30900003Y43675005D03*
D55*
X34162501Y43500001D03*
D56*
G04 #@! TO.P,M7,S1,CANL*
G04 #@! TO.N,Net-(M7-CANL)*
X30950001Y54024999D03*
G04 #@! TO.P,M7,S2,CANH*
G04 #@! TO.N,Net-(M7-CANH)*
X30950001Y53524998D03*
D57*
G04 #@! TO.P,M7,V1,V5*
G04 #@! TO.N,+5VA*
X31999999Y46975001D03*
G04 #@! TO.P,M7,V2,CAN_VIO*
G04 #@! TO.N,+3.3VA*
X32524999Y47850003D03*
G04 #@! TO.P,M7,V5,CAN_TX*
G04 #@! TO.N,Net-(M6-SPI2_SCK_{slash}_CAN2_TX_(PB13))*
X33274997Y46674999D03*
G04 #@! TO.P,M7,V6,CAN_RX*
G04 #@! TO.N,Net-(M6-SPI2_CS_{slash}_CAN2_RX_(PB12))*
X36824998Y46750002D03*
G04 #@! TD*
D22*
G04 #@! TO.P,Q4,1,G*
G04 #@! TO.N,/LS4*
X22850000Y72300000D03*
G04 #@! TO.P,Q4,2,D*
G04 #@! TO.N,/OUT_LS4*
X22850000Y70000000D03*
G04 #@! TO.P,Q4,3,S*
G04 #@! TO.N,GND*
X22850000Y67700000D03*
D23*
G04 #@! TO.P,Q4,4*
G04 #@! TO.N,N/C*
X29150000Y70000000D03*
G04 #@! TD*
G04 #@! TO.P,R9,1*
G04 #@! TO.N,/DC1_DIS*
G04 #@! TA.AperFunction,SMDPad,CuDef*
G36*
G01*
X16735000Y19110000D02*
X17515000Y19110000D01*
G75*
G02*
X17585000Y19040000I0J-70000D01*
G01*
X17585000Y18480000D01*
G75*
G02*
X17515000Y18410000I-70000J0D01*
G01*
X16735000Y18410000D01*
G75*
G02*
X16665000Y18480000I0J70000D01*
G01*
X16665000Y19040000D01*
G75*
G02*
X16735000Y19110000I70000J0D01*
G01*
G37*
G04 #@! TD.AperFunction*
G04 #@! TO.P,R9,2*
G04 #@! TO.N,+3.3V*
G04 #@! TA.AperFunction,SMDPad,CuDef*
G36*
G01*
X16735000Y17510000D02*
X17515000Y17510000D01*
G75*
G02*
X17585000Y17440000I0J-70000D01*
G01*
X17585000Y16880000D01*
G75*
G02*
X17515000Y16810000I-70000J0D01*
G01*
X16735000Y16810000D01*
G75*
G02*
X16665000Y16880000I0J70000D01*
G01*
X16665000Y17440000D01*
G75*
G02*
X16735000Y17510000I70000J0D01*
G01*
G37*
G04 #@! TD.AperFunction*
G04 #@! TD*
G04 #@! TO.P,C32,1*
G04 #@! TO.N,+3.3VA*
G04 #@! TA.AperFunction,SMDPad,CuDef*
G36*
G01*
X53330000Y73260000D02*
X53670000Y73260000D01*
G75*
G02*
X53810000Y73120000I0J-140000D01*
G01*
X53810000Y72840000D01*
G75*
G02*
X53670000Y72700000I-140000J0D01*
G01*
X53330000Y72700000D01*
G75*
G02*
X53190000Y72840000I0J140000D01*
G01*
X53190000Y73120000D01*
G75*
G02*
X53330000Y73260000I140000J0D01*
G01*
G37*
G04 #@! TD.AperFunction*
G04 #@! TO.P,C32,2*
G04 #@! TO.N,GND*
G04 #@! TA.AperFunction,SMDPad,CuDef*
G36*
G01*
X53330000Y72300000D02*
X53670000Y72300000D01*
G75*
G02*
X53810000Y72160000I0J-140000D01*
G01*
X53810000Y71880000D01*
G75*
G02*
X53670000Y71740000I-140000J0D01*
G01*
X53330000Y71740000D01*
G75*
G02*
X53190000Y71880000I0J140000D01*
G01*
X53190000Y72160000D01*
G75*
G02*
X53330000Y72300000I140000J0D01*
G01*
G37*
G04 #@! TD.AperFunction*
G04 #@! TD*
G04 #@! TO.P,J5,1,Pin_1*
G04 #@! TO.N,/OUT_INJ6*
G04 #@! TA.AperFunction,ComponentPad*
G36*
G01*
X10874999Y40250000D02*
X7675001Y40250000D01*
G75*
G02*
X7425000Y40500001I0J250001D01*
G01*
X7425000Y42699999D01*
G75*
G02*
X7675001Y42950000I250001J0D01*
G01*
X10874999Y42950000D01*
G75*
G02*
X11125000Y42699999I0J-250001D01*
G01*
X11125000Y40500001D01*
G75*
G02*
X10874999Y40250000I-250001J0D01*
G01*
G37*
G04 #@! TD.AperFunction*
D58*
G04 #@! TO.P,J5,2,Pin_2*
G04 #@! TO.N,/OUT_INJ5*
X9275000Y45800000D03*
G04 #@! TO.P,J5,3,Pin_3*
G04 #@! TO.N,/OUT_INJ4*
X9275000Y50000000D03*
G04 #@! TO.P,J5,4,Pin_4*
G04 #@! TO.N,/OUT_INJ3*
X9275000Y54200000D03*
G04 #@! TO.P,J5,5,Pin_5*
G04 #@! TO.N,/OUT_INJ2*
X9275000Y58400000D03*
G04 #@! TO.P,J5,6,Pin_6*
G04 #@! TO.N,/OUT_INJ1*
X9275000Y62600000D03*
G04 #@! TO.P,J5,7,Pin_7*
G04 #@! TO.N,/OUT_LS1*
X9275000Y66800000D03*
G04 #@! TO.P,J5,8,Pin_8*
G04 #@! TO.N,/OUT_LS_WEAK2*
X9275000Y71000000D03*
G04 #@! TO.P,J5,9,Pin_9*
G04 #@! TO.N,/OUT_LS_WEAK1*
X9275000Y75200000D03*
G04 #@! TO.P,J5,10,Pin_10*
G04 #@! TO.N,GND*
X9275000Y79400000D03*
G04 #@! TO.P,J5,11,Pin_11*
G04 #@! TO.N,/OUT_IGN6*
X14775000Y41600000D03*
G04 #@! TO.P,J5,12,Pin_12*
G04 #@! TO.N,/OUT_IGN5*
X14775000Y45800000D03*
G04 #@! TO.P,J5,13,Pin_13*
G04 #@! TO.N,/OUT_IGN4*
X14775000Y50000000D03*
G04 #@! TO.P,J5,14,Pin_14*
G04 #@! TO.N,/OUT_IGN3*
X14775000Y54200000D03*
G04 #@! TO.P,J5,15,Pin_15*
G04 #@! TO.N,/OUT_IGN2*
X14775000Y58400000D03*
G04 #@! TO.P,J5,16,Pin_16*
G04 #@! TO.N,/OUT_IGN1*
X14775000Y62600000D03*
G04 #@! TO.P,J5,17,Pin_17*
G04 #@! TO.N,/OUT_LS4*
X14775000Y66800000D03*
G04 #@! TO.P,J5,18,Pin_18*
G04 #@! TO.N,/OUT_LS3*
X14775000Y71000000D03*
G04 #@! TO.P,J5,19,Pin_19*
G04 #@! TO.N,/OUT_LS2*
X14775000Y75200000D03*
G04 #@! TO.P,J5,20,Pin_20*
G04 #@! TO.N,GND*
X14775000Y79400000D03*
G04 #@! TD*
G04 #@! TO.P,Q9,1,G*
G04 #@! TO.N,Net-(Q9-G)*
G04 #@! TA.AperFunction,SMDPad,CuDef*
G36*
G01*
X28800000Y46570000D02*
X28800000Y45870000D01*
G75*
G02*
X28550000Y45620000I-250000J0D01*
G01*
X26850000Y45620000D01*
G75*
G02*
X26600000Y45870000I0J250000D01*
G01*
X26600000Y46570000D01*
G75*
G02*
X26850000Y46820000I250000J0D01*
G01*
X28550000Y46820000D01*
G75*
G02*
X28800000Y46570000I0J-250000D01*
G01*
G37*
G04 #@! TD.AperFunction*
G04 #@! TO.P,Q9,2,C*
G04 #@! TO.N,/OUT_IGN3*
G04 #@! TA.AperFunction,SMDPad,CuDef*
G36*
G01*
X24600000Y48100000D02*
X24600000Y45850000D01*
G75*
G02*
X24350000Y45600000I-250000J0D01*
G01*
X21800000Y45600000D01*
G75*
G02*
X21550000Y45850000I0J250000D01*
G01*
X21550000Y48100000D01*
G75*
G02*
X21800000Y48350000I250000J0D01*
G01*
X24350000Y48350000D01*
G75*
G02*
X24600000Y48100000I0J-250000D01*
G01*
G37*
G04 #@! TD.AperFunction*
G04 #@! TA.AperFunction,SMDPad,CuDef*
G36*
G01*
X24600000Y51150000D02*
X24600000Y48900000D01*
G75*
G02*
X24350000Y48650000I-250000J0D01*
G01*
X21800000Y48650000D01*
G75*
G02*
X21550000Y48900000I0J250000D01*
G01*
X21550000Y51150000D01*
G75*
G02*
X21800000Y51400000I250000J0D01*
G01*
X24350000Y51400000D01*
G75*
G02*
X24600000Y51150000I0J-250000D01*
G01*
G37*
G04 #@! TD.AperFunction*
G04 #@! TA.AperFunction,SMDPad,CuDef*
G36*
G01*
X24600000Y51150003D02*
X24600000Y45849997D01*
G75*
G02*
X24350003Y45600000I-249997J0D01*
G01*
X18449997Y45600000D01*
G75*
G02*
X18200000Y45849997I0J249997D01*
G01*
X18200000Y51150003D01*
G75*
G02*
X18449997Y51400000I249997J0D01*
G01*
X24350003Y51400000D01*
G75*
G02*
X24600000Y51150003I0J-249997D01*
G01*
G37*
G04 #@! TD.AperFunction*
G04 #@! TA.AperFunction,SMDPad,CuDef*
G36*
G01*
X21250000Y48100000D02*
X21250000Y45850000D01*
G75*
G02*
X21000000Y45600000I-250000J0D01*
G01*
X18450000Y45600000D01*
G75*
G02*
X18200000Y45850000I0J250000D01*
G01*
X18200000Y48100000D01*
G75*
G02*
X18450000Y48350000I250000J0D01*
G01*
X21000000Y48350000D01*
G75*
G02*
X21250000Y48100000I0J-250000D01*
G01*
G37*
G04 #@! TD.AperFunction*
G04 #@! TA.AperFunction,SMDPad,CuDef*
G36*
G01*
X21250000Y51150000D02*
X21250000Y48900000D01*
G75*
G02*
X21000000Y48650000I-250000J0D01*
G01*
X18450000Y48650000D01*
G75*
G02*
X18200000Y48900000I0J250000D01*
G01*
X18200000Y51150000D01*
G75*
G02*
X18450000Y51400000I250000J0D01*
G01*
X21000000Y51400000D01*
G75*
G02*
X21250000Y51150000I0J-250000D01*
G01*
G37*
G04 #@! TD.AperFunction*
G04 #@! TO.P,Q9,3,E*
G04 #@! TO.N,GND*
G04 #@! TA.AperFunction,SMDPad,CuDef*
G36*
G01*
X28800000Y51130000D02*
X28800000Y50430000D01*
G75*
G02*
X28550000Y50180000I-250000J0D01*
G01*
X26850000Y50180000D01*
G75*
G02*
X26600000Y50430000I0J250000D01*
G01*
X26600000Y51130000D01*
G75*
G02*
X26850000Y51380000I250000J0D01*
G01*
X28550000Y51380000D01*
G75*
G02*
X28800000Y51130000I0J-250000D01*
G01*
G37*
G04 #@! TD.AperFunction*
G04 #@! TD*
D59*
G04 #@! TO.P,U5,1,TXD*
G04 #@! TO.N,Net-(M6-UART2_RX_(PD6))*
X99000000Y15000000D03*
G04 #@! TO.P,U5,2,RXD*
G04 #@! TO.N,Net-(M6-UART2_TX_(PD5))*
X99000000Y16500000D03*
G04 #@! TO.P,U5,3*
G04 #@! TO.N,N/C*
X99000000Y18000000D03*
G04 #@! TO.P,U5,4*
X99000000Y19500000D03*
G04 #@! TO.P,U5,5,IO1*
G04 #@! TO.N,unconnected-(U5-IO1-Pad5)*
X99000000Y21000000D03*
G04 #@! TO.P,U5,6,IO2*
G04 #@! TO.N,unconnected-(U5-IO2-Pad6)*
X99000000Y22500000D03*
G04 #@! TO.P,U5,7*
G04 #@! TO.N,N/C*
X99000000Y24000000D03*
G04 #@! TO.P,U5,8*
X99000000Y25500000D03*
G04 #@! TO.P,U5,9*
X99000000Y27000000D03*
G04 #@! TO.P,U5,10*
X99000000Y28500000D03*
G04 #@! TO.P,U5,11*
X99000000Y30000000D03*
G04 #@! TO.P,U5,12,3V3*
G04 #@! TO.N,+3.3VA*
X99000000Y31500000D03*
G04 #@! TO.P,U5,13,GND*
G04 #@! TO.N,GND*
X99000000Y33000000D03*
G04 #@! TO.P,U5,14*
G04 #@! TO.N,N/C*
X86300000Y33000000D03*
G04 #@! TO.P,U5,15,EN*
G04 #@! TO.N,unconnected-(U5-EN-Pad15)*
X86300000Y31500000D03*
G04 #@! TO.P,U5,16,ALED*
G04 #@! TO.N,unconnected-(U5-ALED-Pad16)*
X86300000Y30000000D03*
G04 #@! TO.P,U5,17,STAT*
G04 #@! TO.N,unconnected-(U5-STAT-Pad17)*
X86300000Y28500000D03*
G04 #@! TO.P,U5,18*
G04 #@! TO.N,N/C*
X86300000Y27000000D03*
G04 #@! TO.P,U5,19*
X86300000Y25500000D03*
G04 #@! TO.P,U5,20*
X86300000Y24000000D03*
G04 #@! TO.P,U5,21*
X86300000Y22500000D03*
G04 #@! TO.P,U5,22*
X86300000Y21000000D03*
G04 #@! TO.P,U5,23*
X86300000Y19500000D03*
G04 #@! TO.P,U5,24*
X86300000Y18000000D03*
G04 #@! TO.P,U5,25*
X86300000Y16500000D03*
G04 #@! TO.P,U5,26*
X86300000Y15000000D03*
G04 #@! TD*
G04 #@! TO.P,L2,1,1*
G04 #@! TO.N,/EGT-*
G04 #@! TA.AperFunction,SMDPad,CuDef*
G36*
G01*
X58243750Y79512500D02*
X58756250Y79512500D01*
G75*
G02*
X58975000Y79293750I0J-218750D01*
G01*
X58975000Y78856250D01*
G75*
G02*
X58756250Y78637500I-218750J0D01*
G01*
X58243750Y78637500D01*
G75*
G02*
X58025000Y78856250I0J218750D01*
G01*
X58025000Y79293750D01*
G75*
G02*
X58243750Y79512500I218750J0D01*
G01*
G37*
G04 #@! TD.AperFunction*
G04 #@! TO.P,L2,2,2*
G04 #@! TO.N,Net-(U4-T-)*
G04 #@! TA.AperFunction,SMDPad,CuDef*
G36*
G01*
X58243750Y77937500D02*
X58756250Y77937500D01*
G75*
G02*
X58975000Y77718750I0J-218750D01*
G01*
X58975000Y77281250D01*
G75*
G02*
X58756250Y77062500I-218750J0D01*
G01*
X58243750Y77062500D01*
G75*
G02*
X58025000Y77281250I0J218750D01*
G01*
X58025000Y77718750D01*
G75*
G02*
X58243750Y77937500I218750J0D01*
G01*
G37*
G04 #@! TD.AperFunction*
G04 #@! TD*
G04 #@! TO.P,J3,1,Pin_1*
G04 #@! TO.N,/WBO_Un*
G04 #@! TA.AperFunction,ComponentPad*
G36*
G01*
X89125001Y80550000D02*
X92324999Y80550000D01*
G75*
G02*
X92575000Y80299999I0J-250001D01*
G01*
X92575000Y78100001D01*
G75*
G02*
X92324999Y77850000I-250001J0D01*
G01*
X89125001Y77850000D01*
G75*
G02*
X88875000Y78100001I0J250001D01*
G01*
X88875000Y80299999D01*
G75*
G02*
X89125001Y80550000I250001J0D01*
G01*
G37*
G04 #@! TD.AperFunction*
D58*
G04 #@! TO.P,J3,2,Pin_2*
G04 #@! TO.N,/WBO_Vm*
X90725000Y75000000D03*
G04 #@! TO.P,J3,3,Pin_3*
G04 #@! TO.N,+12V_RAW*
X90725000Y70800000D03*
G04 #@! TO.P,J3,4,Pin_4*
G04 #@! TO.N,/WBO_Ip*
X85225000Y79200000D03*
G04 #@! TO.P,J3,5,Pin_5*
G04 #@! TO.N,/WBO_Rtrim*
X85225000Y75000000D03*
G04 #@! TO.P,J3,6,Pin_6*
G04 #@! TO.N,/WBO_Heater*
X85225000Y70800000D03*
G04 #@! TD*
G04 #@! TO.P,R13,1*
G04 #@! TO.N,GND*
G04 #@! TA.AperFunction,SMDPad,CuDef*
G36*
G01*
X18350000Y72110000D02*
X18350000Y72890000D01*
G75*
G02*
X18420000Y72960000I70000J0D01*
G01*
X18980000Y72960000D01*
G75*
G02*
X19050000Y72890000I0J-70000D01*
G01*
X19050000Y72110000D01*
G75*
G02*
X18980000Y72040000I-70000J0D01*
G01*
X18420000Y72040000D01*
G75*
G02*
X18350000Y72110000I0J70000D01*
G01*
G37*
G04 #@! TD.AperFunction*
G04 #@! TO.P,R13,2*
G04 #@! TO.N,/LS4*
G04 #@! TA.AperFunction,SMDPad,CuDef*
G36*
G01*
X19950000Y72110000D02*
X19950000Y72890000D01*
G75*
G02*
X20020000Y72960000I70000J0D01*
G01*
X20580000Y72960000D01*
G75*
G02*
X20650000Y72890000I0J-70000D01*
G01*
X20650000Y72110000D01*
G75*
G02*
X20580000Y72040000I-70000J0D01*
G01*
X20020000Y72040000D01*
G75*
G02*
X19950000Y72110000I0J70000D01*
G01*
G37*
G04 #@! TD.AperFunction*
G04 #@! TD*
D26*
G04 #@! TO.P,F1,1,1*
G04 #@! TO.N,Net-(J1-Pin_20)*
X81500000Y79950000D03*
G04 #@! TA.AperFunction,SMDPad,CuDef*
G36*
G01*
X80600000Y78605010D02*
X80600000Y79295010D01*
G75*
G02*
X80830000Y79525010I230000J0D01*
G01*
X82170000Y79525010D01*
G75*
G02*
X82400000Y79295010I0J-230000D01*
G01*
X82400000Y78605010D01*
G75*
G02*
X82170000Y78375010I-230000J0D01*
G01*
X80830000Y78375010D01*
G75*
G02*
X80600000Y78605010I0J230000D01*
G01*
G37*
G04 #@! TD.AperFunction*
G04 #@! TO.P,F1,2,2*
G04 #@! TO.N,/IN_VIGN*
G04 #@! TA.AperFunction,SMDPad,CuDef*
G36*
G01*
X80600000Y75704990D02*
X80600000Y76394990D01*
G75*
G02*
X80830000Y76624990I230000J0D01*
G01*
X82170000Y76624990D01*
G75*
G02*
X82400000Y76394990I0J-230000D01*
G01*
X82400000Y75704990D01*
G75*
G02*
X82170000Y75474990I-230000J0D01*
G01*
X80830000Y75474990D01*
G75*
G02*
X80600000Y75704990I0J230000D01*
G01*
G37*
G04 #@! TD.AperFunction*
X81500000Y75050000D03*
G04 #@! TD*
D21*
G04 #@! TO.P,G3,1*
G04 #@! TO.N,GND*
X39500000Y49960000D03*
G04 #@! TO.P,G3,2*
X39500000Y52500000D03*
G04 #@! TO.P,G3,3*
G04 #@! TO.N,+3.3VA*
X39500000Y55040000D03*
G04 #@! TO.P,G3,4*
G04 #@! TO.N,+5VA*
X39500000Y57580000D03*
G04 #@! TO.P,G3,5*
G04 #@! TO.N,+12V_RAW*
X39500000Y60120000D03*
G04 #@! TO.P,G3,6*
G04 #@! TO.N,GND*
X42040000Y49960000D03*
G04 #@! TO.P,G3,7*
X42040000Y52500000D03*
G04 #@! TO.P,G3,8*
G04 #@! TO.N,+3.3VA*
X42040000Y55040000D03*
G04 #@! TO.P,G3,9*
G04 #@! TO.N,+5VA*
X42040000Y57580000D03*
G04 #@! TO.P,G3,10*
G04 #@! TO.N,+12V_RAW*
X42040000Y60120000D03*
G04 #@! TO.P,G3,11*
G04 #@! TO.N,GND*
X44580000Y49960000D03*
G04 #@! TO.P,G3,12*
X44580000Y52500000D03*
G04 #@! TO.P,G3,13*
G04 #@! TO.N,+3.3VA*
X44580000Y55040000D03*
G04 #@! TO.P,G3,14*
G04 #@! TO.N,+5VA*
X44580000Y57580000D03*
G04 #@! TO.P,G3,15*
G04 #@! TO.N,+12V_RAW*
X44580000Y60120000D03*
G04 #@! TD*
G04 #@! TO.P,P3,1,Pin_1*
G04 #@! TO.N,Net-(M6-LED_YELLOW)*
X62500000Y2500000D03*
G04 #@! TD*
G04 #@! TO.P,R11,1*
G04 #@! TO.N,GND*
G04 #@! TA.AperFunction,SMDPad,CuDef*
G36*
G01*
X18350000Y79610000D02*
X18350000Y80390000D01*
G75*
G02*
X18420000Y80460000I70000J0D01*
G01*
X18980000Y80460000D01*
G75*
G02*
X19050000Y80390000I0J-70000D01*
G01*
X19050000Y79610000D01*
G75*
G02*
X18980000Y79540000I-70000J0D01*
G01*
X18420000Y79540000D01*
G75*
G02*
X18350000Y79610000I0J70000D01*
G01*
G37*
G04 #@! TD.AperFunction*
G04 #@! TO.P,R11,2*
G04 #@! TO.N,/LS2*
G04 #@! TA.AperFunction,SMDPad,CuDef*
G36*
G01*
X19950000Y79610000D02*
X19950000Y80390000D01*
G75*
G02*
X20020000Y80460000I70000J0D01*
G01*
X20580000Y80460000D01*
G75*
G02*
X20650000Y80390000I0J-70000D01*
G01*
X20650000Y79610000D01*
G75*
G02*
X20580000Y79540000I-70000J0D01*
G01*
X20020000Y79540000D01*
G75*
G02*
X19950000Y79610000I0J70000D01*
G01*
G37*
G04 #@! TD.AperFunction*
G04 #@! TD*
G04 #@! TO.P,D3,1,K*
G04 #@! TO.N,+12V_RAW*
G04 #@! TA.AperFunction,SMDPad,CuDef*
G36*
G01*
X19510000Y74400000D02*
X18490000Y74400000D01*
G75*
G02*
X18400000Y74490000I0J90000D01*
G01*
X18400000Y75210000D01*
G75*
G02*
X18490000Y75300000I90000J0D01*
G01*
X19510000Y75300000D01*
G75*
G02*
X19600000Y75210000I0J-90000D01*
G01*
X19600000Y74490000D01*
G75*
G02*
X19510000Y74400000I-90000J0D01*
G01*
G37*
G04 #@! TD.AperFunction*
G04 #@! TO.P,D3,2,A*
G04 #@! TO.N,/OUT_LS2*
G04 #@! TA.AperFunction,SMDPad,CuDef*
G36*
G01*
X19510000Y77700000D02*
X18490000Y77700000D01*
G75*
G02*
X18400000Y77790000I0J90000D01*
G01*
X18400000Y78510000D01*
G75*
G02*
X18490000Y78600000I90000J0D01*
G01*
X19510000Y78600000D01*
G75*
G02*
X19600000Y78510000I0J-90000D01*
G01*
X19600000Y77790000D01*
G75*
G02*
X19510000Y77700000I-90000J0D01*
G01*
G37*
G04 #@! TD.AperFunction*
G04 #@! TD*
D60*
G04 #@! TO.P,U1,1,DIR*
G04 #@! TO.N,/DC1_DIR*
X4200000Y20000000D03*
G04 #@! TO.P,U1,2,VSO*
G04 #@! TO.N,+3.3V*
X4200000Y19000000D03*
G04 #@! TO.P,U1,3,SO*
G04 #@! TO.N,unconnected-(U1-SO-Pad3)*
X4200000Y18000000D03*
G04 #@! TO.P,U1,4,VS*
G04 #@! TO.N,/DC Driver 1/PWR*
X4200000Y17000000D03*
G04 #@! TO.P,U1,5,OUT1*
G04 #@! TO.N,/OUT_DC1-*
X4200000Y16000000D03*
G04 #@! TO.P,U1,6,GND*
G04 #@! TO.N,GND*
X4200000Y15000000D03*
G04 #@! TO.P,U1,7,OUT2*
G04 #@! TO.N,/OUT_DC1+*
X13800000Y15000000D03*
G04 #@! TO.P,U1,8,SI*
G04 #@! TO.N,GND*
X13800000Y16000000D03*
G04 #@! TO.P,U1,9,CSN*
X13800000Y17000000D03*
G04 #@! TO.P,U1,10,SCK*
X13800000Y18000000D03*
G04 #@! TO.P,U1,11,DIS*
G04 #@! TO.N,/DC1_DIS*
X13800000Y19000000D03*
G04 #@! TO.P,U1,12,PWM*
G04 #@! TO.N,/DC1_PWM*
X13800000Y20000000D03*
D61*
G04 #@! TO.P,U1,13,GND*
G04 #@! TO.N,GND*
X9000000Y17500000D03*
G04 #@! TD*
D60*
G04 #@! TO.P,U2,1,DIR*
G04 #@! TO.N,/DC2_DIR*
X10825000Y10540000D03*
G04 #@! TO.P,U2,2,VSO*
G04 #@! TO.N,+3.3V*
X10825000Y9540000D03*
G04 #@! TO.P,U2,3,SO*
G04 #@! TO.N,unconnected-(U2-SO-Pad3)*
X10825000Y8540000D03*
G04 #@! TO.P,U2,4,VS*
G04 #@! TO.N,/DC Driver 2/PWR*
X10825000Y7540000D03*
G04 #@! TO.P,U2,5,OUT1*
G04 #@! TO.N,/OUT_DC2-*
X10825000Y6540000D03*
G04 #@! TO.P,U2,6,GND*
G04 #@! TO.N,GND*
X10825000Y5540000D03*
G04 #@! TO.P,U2,7,OUT2*
G04 #@! TO.N,/OUT_DC2+*
X20425000Y5540000D03*
G04 #@! TO.P,U2,8,SI*
G04 #@! TO.N,GND*
X20425000Y6540000D03*
G04 #@! TO.P,U2,9,CSN*
X20425000Y7540000D03*
G04 #@! TO.P,U2,10,SCK*
X20425000Y8540000D03*
G04 #@! TO.P,U2,11,DIS*
G04 #@! TO.N,/DC2_DIS*
X20425000Y9540000D03*
G04 #@! TO.P,U2,12,PWM*
G04 #@! TO.N,/DC2_PWM*
X20425000Y10540000D03*
D61*
G04 #@! TO.P,U2,13,GND*
G04 #@! TO.N,GND*
X15625000Y8040000D03*
G04 #@! TD*
G04 #@! TO.P,C28,1*
G04 #@! TO.N,Net-(U4-T-)*
G04 #@! TA.AperFunction,SMDPad,CuDef*
G36*
G01*
X60170000Y77027500D02*
X59830000Y77027500D01*
G75*
G02*
X59690000Y77167500I0J140000D01*
G01*
X59690000Y77447500D01*
G75*
G02*
X59830000Y77587500I140000J0D01*
G01*
X60170000Y77587500D01*
G75*
G02*
X60310000Y77447500I0J-140000D01*
G01*
X60310000Y77167500D01*
G75*
G02*
X60170000Y77027500I-140000J0D01*
G01*
G37*
G04 #@! TD.AperFunction*
G04 #@! TO.P,C28,2*
G04 #@! TO.N,GND*
G04 #@! TA.AperFunction,SMDPad,CuDef*
G36*
G01*
X60170000Y77987500D02*
X59830000Y77987500D01*
G75*
G02*
X59690000Y78127500I0J140000D01*
G01*
X59690000Y78407500D01*
G75*
G02*
X59830000Y78547500I140000J0D01*
G01*
X60170000Y78547500D01*
G75*
G02*
X60310000Y78407500I0J-140000D01*
G01*
X60310000Y78127500D01*
G75*
G02*
X60170000Y77987500I-140000J0D01*
G01*
G37*
G04 #@! TD.AperFunction*
G04 #@! TD*
G04 #@! TO.P,J4,1,Pin_1*
G04 #@! TO.N,GND*
G04 #@! TA.AperFunction,ComponentPad*
G36*
G01*
X10874999Y24450000D02*
X7675001Y24450000D01*
G75*
G02*
X7425000Y24700001I0J250001D01*
G01*
X7425000Y26899999D01*
G75*
G02*
X7675001Y27150000I250001J0D01*
G01*
X10874999Y27150000D01*
G75*
G02*
X11125000Y26899999I0J-250001D01*
G01*
X11125000Y24700001D01*
G75*
G02*
X10874999Y24450000I-250001J0D01*
G01*
G37*
G04 #@! TD.AperFunction*
D58*
G04 #@! TO.P,J4,2,Pin_2*
G04 #@! TO.N,/OUT_DC2-*
X9275000Y30000000D03*
G04 #@! TO.P,J4,3,Pin_3*
G04 #@! TO.N,/OUT_DC2+*
X9275000Y34200000D03*
G04 #@! TO.P,J4,4,Pin_4*
G04 #@! TO.N,+12V*
X14775000Y25800000D03*
G04 #@! TO.P,J4,5,Pin_5*
G04 #@! TO.N,/OUT_DC1-*
X14775000Y30000000D03*
G04 #@! TO.P,J4,6,Pin_6*
G04 #@! TO.N,/OUT_DC1+*
X14775000Y34200000D03*
G04 #@! TD*
D30*
G04 #@! TO.P,M6,E1,V5A_SWITCHABLE*
G04 #@! TO.N,+5VA*
X45800010Y41400000D03*
G04 #@! TO.P,M6,E2,GNDA*
G04 #@! TO.N,unconnected-(M6-GNDA-PadE2)*
X45800000Y37100000D03*
G04 #@! TO.P,M6,E3,I2C_SCL_(PB10)*
G04 #@! TO.N,unconnected-(M6-I2C_SCL_(PB10)-PadE3)*
X45800000Y36300010D03*
G04 #@! TO.P,M6,E4,I2C_SDA_(PB11)*
G04 #@! TO.N,unconnected-(M6-I2C_SDA_(PB11)-PadE4)*
X45800000Y35500000D03*
G04 #@! TO.P,M6,E5,IN_VIGN_(PA5)*
G04 #@! TO.N,/VIGN*
X45800000Y34700000D03*
G04 #@! TO.P,M6,E6,SPI2_CS_/_CAN2_RX_(PB12)*
G04 #@! TO.N,Net-(M6-SPI2_CS_{slash}_CAN2_RX_(PB12))*
X45800000Y33900000D03*
G04 #@! TO.P,M6,E7,SPI2_SCK_/_CAN2_TX_(PB13)*
G04 #@! TO.N,Net-(M6-SPI2_SCK_{slash}_CAN2_TX_(PB13))*
X45800000Y33100000D03*
G04 #@! TO.P,M6,E8,SPI2_MISO_(PB14)*
G04 #@! TO.N,/DC1_DIS*
X45800000Y32300000D03*
G04 #@! TO.P,M6,E9,SPI2_MOSI_(PB15)*
G04 #@! TO.N,Net-(M6-SPI2_MOSI_(PB15))*
X45800000Y31500000D03*
G04 #@! TO.P,M6,E10,OUT_INJ8_(PD12)*
G04 #@! TO.N,/LS2*
X45800000Y30700000D03*
G04 #@! TO.P,M6,E11,OUT_INJ7_(PD15)*
G04 #@! TO.N,/LS1*
X45800000Y29900000D03*
G04 #@! TO.P,M6,E12,OUT_INJ6_(PA8)*
G04 #@! TO.N,/INJ6*
X45800000Y29100000D03*
G04 #@! TO.P,M6,E13,OUT_INJ5_(PD2)*
G04 #@! TO.N,/INJ5*
X45800000Y28300000D03*
G04 #@! TO.P,M6,E14,OUT_INJ4_(PD10)*
G04 #@! TO.N,/INJ4*
X45800000Y27500000D03*
G04 #@! TO.P,M6,E15,OUT_INJ3_(PD11)*
G04 #@! TO.N,/INJ3*
X45800000Y26700000D03*
G04 #@! TO.P,M6,E16,OUT_INJ2_(PA9)*
G04 #@! TO.N,/INJ2*
X45800010Y25900010D03*
G04 #@! TO.P,M6,E17,OUT_INJ1_(PD3)*
G04 #@! TO.N,/INJ1*
X45800000Y25100000D03*
G04 #@! TO.P,M6,E18,OUT_PWM1_(PD13)*
G04 #@! TO.N,/LS3*
X45800000Y23700000D03*
G04 #@! TO.P,M6,E19,OUT_PWM2_(PC6)*
G04 #@! TO.N,/LS4*
X45800000Y22900010D03*
G04 #@! TO.P,M6,E20,OUT_PWM3_(PC7)*
G04 #@! TO.N,/DC1_PWM*
X45800000Y22100010D03*
G04 #@! TO.P,M6,E21,OUT_PWM4_(PC8)*
G04 #@! TO.N,/DC1_DIR*
X45800000Y21300010D03*
G04 #@! TO.P,M6,E22,OUT_PWM5_(PC9)*
G04 #@! TO.N,/DC2_PWM*
X45800000Y20500010D03*
G04 #@! TO.P,M6,E23,OUT_PWM6_(PD14)*
G04 #@! TO.N,/VR1_THRESHOLD*
X45800000Y19700000D03*
D62*
G04 #@! TO.P,M6,G,GND*
G04 #@! TO.N,GND*
X79400010Y14850010D03*
D63*
X79400010Y17900000D03*
D62*
X79400010Y20950010D03*
D64*
X79400010Y25400000D03*
D65*
X79400010Y39050000D03*
D66*
X79400010Y47050000D03*
D67*
X77600000Y48100010D03*
D68*
X75500010Y12300010D03*
D69*
X69450010Y12300010D03*
D70*
X65950010Y12300010D03*
D67*
X56200010Y12300010D03*
D68*
X48700010Y48100010D03*
D71*
X45600000Y15699990D03*
D63*
X45600000Y24400010D03*
D72*
X45600000Y39250010D03*
D73*
X45600000Y45050010D03*
D30*
G04 #@! TO.P,M6,N1,VBUS*
G04 #@! TO.N,/VBUS*
X46200000Y12500000D03*
G04 #@! TO.P,M6,N2,USBM_(PA11)*
G04 #@! TO.N,/USB-*
X47000000Y12500000D03*
G04 #@! TO.P,M6,N3,USBP_(PA12)*
G04 #@! TO.N,/USB+*
X47800000Y12500000D03*
G04 #@! TO.P,M6,N4,USBID_(PA10)*
G04 #@! TO.N,/DC2_DIS*
X48600010Y12500000D03*
G04 #@! TO.P,M6,N5,SWDIO_(PA13)*
G04 #@! TO.N,unconnected-(M6-SWDIO_(PA13)-PadN5)*
X49400000Y12500000D03*
G04 #@! TO.P,M6,N6,SWCLK_(PA14)*
G04 #@! TO.N,unconnected-(M6-SWCLK_(PA14)-PadN6)*
X50200000Y12500000D03*
G04 #@! TO.P,M6,N7,nReset*
G04 #@! TO.N,unconnected-(M6-nReset-PadN7)*
X51000000Y12500000D03*
G04 #@! TO.P,M6,N8,SWO_(PB3)*
G04 #@! TO.N,unconnected-(M6-SWO_(PB3)-PadN8)*
X51800010Y12500000D03*
G04 #@! TO.P,M6,N9,SPI3_CS_(PA15)*
G04 #@! TO.N,/EGT/SPI_CS*
X52600000Y12500010D03*
G04 #@! TO.P,M6,N10,SPI3_SCK_(PC10)*
G04 #@! TO.N,/EGT/SPI_SCK*
X53400000Y12500010D03*
G04 #@! TO.P,M6,N11,SPI3_MISO_(PC11)*
G04 #@! TO.N,/EGT/SPI_SO*
X54200000Y12500010D03*
G04 #@! TO.P,M6,N12,SPI3_MOSI_(PC12)*
G04 #@! TO.N,/DC2_DIR*
X55000000Y12500010D03*
G04 #@! TO.P,M6,N13,UART2_TX_(PD5)*
G04 #@! TO.N,Net-(M6-UART2_TX_(PD5))*
X57400010Y12500010D03*
G04 #@! TO.P,M6,N14,UART2_RX_(PD6)*
G04 #@! TO.N,Net-(M6-UART2_RX_(PD6))*
X58200010Y12500010D03*
G04 #@! TO.P,M6,N14a,LED_GREEN*
G04 #@! TO.N,Net-(M6-LED_GREEN)*
X59000000Y12500000D03*
G04 #@! TO.P,M6,N14b,LED_YELLOW*
G04 #@! TO.N,Net-(M6-LED_YELLOW)*
X59800010Y12500000D03*
G04 #@! TO.P,M6,N15,V33_SWITCHABLE*
G04 #@! TO.N,+3.3VA*
X60600010Y12500000D03*
G04 #@! TO.P,M6,N16,BOOT0*
G04 #@! TO.N,unconnected-(M6-BOOT0-PadN16)*
X61400010Y12500000D03*
G04 #@! TO.P,M6,N17,VBAT*
G04 #@! TO.N,/VBAT*
X62200010Y12500000D03*
G04 #@! TO.P,M6,N18,UART8_RX_(PE0)*
G04 #@! TO.N,/VR1*
X63000010Y12500010D03*
G04 #@! TO.P,M6,N19,UART8_TX_(PE1)*
G04 #@! TO.N,/VR2*
X63800010Y12500010D03*
G04 #@! TO.P,M6,N20,OUT_PWR_EN_(PE10)*
G04 #@! TO.N,/PWR_EN*
X68100010Y12500010D03*
G04 #@! TO.P,M6,N21,V33*
G04 #@! TO.N,+3.3V*
X70800010Y12500010D03*
G04 #@! TO.P,M6,N22,VCC*
G04 #@! TO.N,+5V*
X71800000Y12500010D03*
G04 #@! TO.P,M6,N23,V33*
G04 #@! TO.N,unconnected-(M6-V33-PadN23)*
X79200010Y12500010D03*
G04 #@! TO.P,M6,S1,IN_D4_(PE15)*
G04 #@! TO.N,/IN_BUTTON3*
X52399990Y47900010D03*
G04 #@! TO.P,M6,S2,IN_D3_(PE14)*
G04 #@! TO.N,/IN_HALL3*
X53600000Y47900010D03*
G04 #@! TO.P,M6,S3,IN_D2_(PE13)*
G04 #@! TO.N,/IN_HALL2*
X54800000Y47900010D03*
G04 #@! TO.P,M6,S4,IN_D1_(PE12)*
G04 #@! TO.N,/IN_HALL1*
X56000000Y47900010D03*
G04 #@! TO.P,M6,S5,VREF2*
G04 #@! TO.N,/VREF2*
X57200000Y47900010D03*
G04 #@! TO.P,M6,S6,IN_AUX4_(PA7)*
G04 #@! TO.N,/IN_VMAIN*
X58400000Y47900010D03*
G04 #@! TO.P,M6,S7,IN_AUX3_(PC5)*
G04 #@! TO.N,/IN_AUX3*
X59600000Y47900010D03*
G04 #@! TO.P,M6,S8,IN_AUX2_(PC4/PE9)*
G04 #@! TO.N,/IN_PPS2*
X60800000Y47900010D03*
G04 #@! TO.P,M6,S9,IN_AUX1_(PB0)*
G04 #@! TO.N,/IN_TPS2*
X62000000Y47900010D03*
G04 #@! TO.P,M6,S10,IN_O2S2_(PA1)*
G04 #@! TO.N,/IN_AUX2*
X63200000Y47900010D03*
G04 #@! TO.P,M6,S11,IN_O2S_/_CAN_WAKEUP_(PA0)*
G04 #@! TO.N,/IN_AUX1*
X64400000Y47900010D03*
G04 #@! TO.P,M6,S12,IN_MAP2_(PC1)*
G04 #@! TO.N,/INTERNAL_MAP*
X65600000Y47900010D03*
G04 #@! TO.P,M6,S13,IN_MAP1_(PC0)*
G04 #@! TO.N,/IN_MAP*
X66800000Y47900010D03*
G04 #@! TO.P,M6,S14,IN_CRANK_(PB1)*
G04 #@! TO.N,/IN_BUTTON1*
X68000000Y47900010D03*
G04 #@! TO.P,M6,S15,IN_KNOCK_(PA2)*
G04 #@! TO.N,/ADC3*
X69200000Y47900010D03*
G04 #@! TO.P,M6,S16,IN_CAM_(PA6)*
G04 #@! TO.N,/IN_BUTTON2*
X70400000Y47900010D03*
G04 #@! TO.P,M6,S17,IN_VSS_(PE11)*
G04 #@! TO.N,/IN_FLEX*
X71600000Y47900010D03*
G04 #@! TO.P,M6,S18,IN_TPS_(PA4)*
G04 #@! TO.N,/IN_TPS1*
X72800010Y47900010D03*
G04 #@! TO.P,M6,S19,IN_PPS_(PA3)*
G04 #@! TO.N,/IN_PPS1*
X74000010Y47900010D03*
G04 #@! TO.P,M6,S20,IN_IAT_(PC3)*
G04 #@! TO.N,/IN_IAT*
X75200010Y47900010D03*
G04 #@! TO.P,M6,S21,IN_CLT_(PC2)*
G04 #@! TO.N,/IN_CLT*
X76400010Y47900010D03*
G04 #@! TO.P,M6,S22,VREF1*
G04 #@! TO.N,unconnected-(M6-VREF1-PadS22)*
X78800010Y47900010D03*
G04 #@! TO.P,M6,W1,GNDA*
G04 #@! TO.N,GNDA*
X79200010Y45400000D03*
G04 #@! TO.P,M6,W2,V5A_SWITCHABLE*
G04 #@! TO.N,+5VA*
X79200010Y44400000D03*
G04 #@! TO.P,M6,W3,IGN8_(PE6)*
G04 #@! TO.N,/LS_WEAK2*
X79200010Y33700010D03*
G04 #@! TO.P,M6,W4,IGN7_(PB9)*
G04 #@! TO.N,/LS_WEAK1*
X79200010Y32700000D03*
G04 #@! TO.P,M6,W5,IGN6_(PB8)*
G04 #@! TO.N,/IGN6*
X79200010Y31700010D03*
G04 #@! TO.P,M6,W6,IGN5_(PE2)*
G04 #@! TO.N,/IGN5*
X79200010Y30700010D03*
G04 #@! TO.P,M6,W7,IGN4_(PE3)*
G04 #@! TO.N,/IGN4*
X79200010Y29700010D03*
G04 #@! TO.P,M6,W8,IGN3_(PE4)*
G04 #@! TO.N,/IGN3*
X79200010Y28700010D03*
G04 #@! TO.P,M6,W9,IGN2_(PE5)*
G04 #@! TO.N,/IGN2*
X79200010Y27700010D03*
G04 #@! TO.P,M6,W10,IGN1_(PC13)*
G04 #@! TO.N,/IGN1*
X79200010Y26700010D03*
G04 #@! TO.P,M6,W11,CANH*
G04 #@! TO.N,/CAN+*
X79200010Y24100010D03*
G04 #@! TO.P,M6,W12,CANL*
G04 #@! TO.N,/CAN-*
X79200010Y23300010D03*
G04 #@! TO.P,M6,W13,V33_REF*
G04 #@! TO.N,unconnected-(M6-V33_REF-PadW13)*
X79200010Y18600000D03*
G04 #@! TO.P,M6,W14,V5A_SWITCHABLE*
G04 #@! TO.N,unconnected-(M6-V5A_SWITCHABLE-PadW14)*
X79200010Y17200010D03*
G04 #@! TD*
G04 #@! TO.P,L1,1,1*
G04 #@! TO.N,/EGT+*
G04 #@! TA.AperFunction,SMDPad,CuDef*
G36*
G01*
X56243750Y79512500D02*
X56756250Y79512500D01*
G75*
G02*
X56975000Y79293750I0J-218750D01*
G01*
X56975000Y78856250D01*
G75*
G02*
X56756250Y78637500I-218750J0D01*
G01*
X56243750Y78637500D01*
G75*
G02*
X56025000Y78856250I0J218750D01*
G01*
X56025000Y79293750D01*
G75*
G02*
X56243750Y79512500I218750J0D01*
G01*
G37*
G04 #@! TD.AperFunction*
G04 #@! TO.P,L1,2,2*
G04 #@! TO.N,Net-(U4-T+)*
G04 #@! TA.AperFunction,SMDPad,CuDef*
G36*
G01*
X56243750Y77937500D02*
X56756250Y77937500D01*
G75*
G02*
X56975000Y77718750I0J-218750D01*
G01*
X56975000Y77281250D01*
G75*
G02*
X56756250Y77062500I-218750J0D01*
G01*
X56243750Y77062500D01*
G75*
G02*
X56025000Y77281250I0J218750D01*
G01*
X56025000Y77718750D01*
G75*
G02*
X56243750Y77937500I218750J0D01*
G01*
G37*
G04 #@! TD.AperFunction*
G04 #@! TD*
G04 #@! TO.P,Q11,1,G*
G04 #@! TO.N,Net-(Q11-G)*
G04 #@! TA.AperFunction,SMDPad,CuDef*
G36*
G01*
X28800000Y32570000D02*
X28800000Y31870000D01*
G75*
G02*
X28550000Y31620000I-250000J0D01*
G01*
X26850000Y31620000D01*
G75*
G02*
X26600000Y31870000I0J250000D01*
G01*
X26600000Y32570000D01*
G75*
G02*
X26850000Y32820000I250000J0D01*
G01*
X28550000Y32820000D01*
G75*
G02*
X28800000Y32570000I0J-250000D01*
G01*
G37*
G04 #@! TD.AperFunction*
G04 #@! TO.P,Q11,2,C*
G04 #@! TO.N,/OUT_IGN5*
G04 #@! TA.AperFunction,SMDPad,CuDef*
G36*
G01*
X24600000Y34100000D02*
X24600000Y31850000D01*
G75*
G02*
X24350000Y31600000I-250000J0D01*
G01*
X21800000Y31600000D01*
G75*
G02*
X21550000Y31850000I0J250000D01*
G01*
X21550000Y34100000D01*
G75*
G02*
X21800000Y34350000I250000J0D01*
G01*
X24350000Y34350000D01*
G75*
G02*
X24600000Y34100000I0J-250000D01*
G01*
G37*
G04 #@! TD.AperFunction*
G04 #@! TA.AperFunction,SMDPad,CuDef*
G36*
G01*
X24600000Y37150000D02*
X24600000Y34900000D01*
G75*
G02*
X24350000Y34650000I-250000J0D01*
G01*
X21800000Y34650000D01*
G75*
G02*
X21550000Y34900000I0J250000D01*
G01*
X21550000Y37150000D01*
G75*
G02*
X21800000Y37400000I250000J0D01*
G01*
X24350000Y37400000D01*
G75*
G02*
X24600000Y37150000I0J-250000D01*
G01*
G37*
G04 #@! TD.AperFunction*
G04 #@! TA.AperFunction,SMDPad,CuDef*
G36*
G01*
X24600000Y37150003D02*
X24600000Y31849997D01*
G75*
G02*
X24350003Y31600000I-249997J0D01*
G01*
X18449997Y31600000D01*
G75*
G02*
X18200000Y31849997I0J249997D01*
G01*
X18200000Y37150003D01*
G75*
G02*
X18449997Y37400000I249997J0D01*
G01*
X24350003Y37400000D01*
G75*
G02*
X24600000Y37150003I0J-249997D01*
G01*
G37*
G04 #@! TD.AperFunction*
G04 #@! TA.AperFunction,SMDPad,CuDef*
G36*
G01*
X21250000Y34100000D02*
X21250000Y31850000D01*
G75*
G02*
X21000000Y31600000I-250000J0D01*
G01*
X18450000Y31600000D01*
G75*
G02*
X18200000Y31850000I0J250000D01*
G01*
X18200000Y34100000D01*
G75*
G02*
X18450000Y34350000I250000J0D01*
G01*
X21000000Y34350000D01*
G75*
G02*
X21250000Y34100000I0J-250000D01*
G01*
G37*
G04 #@! TD.AperFunction*
G04 #@! TA.AperFunction,SMDPad,CuDef*
G36*
G01*
X21250000Y37150000D02*
X21250000Y34900000D01*
G75*
G02*
X21000000Y34650000I-250000J0D01*
G01*
X18450000Y34650000D01*
G75*
G02*
X18200000Y34900000I0J250000D01*
G01*
X18200000Y37150000D01*
G75*
G02*
X18450000Y37400000I250000J0D01*
G01*
X21000000Y37400000D01*
G75*
G02*
X21250000Y37150000I0J-250000D01*
G01*
G37*
G04 #@! TD.AperFunction*
G04 #@! TO.P,Q11,3,E*
G04 #@! TO.N,GND*
G04 #@! TA.AperFunction,SMDPad,CuDef*
G36*
G01*
X28800000Y37130000D02*
X28800000Y36430000D01*
G75*
G02*
X28550000Y36180000I-250000J0D01*
G01*
X26850000Y36180000D01*
G75*
G02*
X26600000Y36430000I0J250000D01*
G01*
X26600000Y37130000D01*
G75*
G02*
X26850000Y37380000I250000J0D01*
G01*
X28550000Y37380000D01*
G75*
G02*
X28800000Y37130000I0J-250000D01*
G01*
G37*
G04 #@! TD.AperFunction*
G04 #@! TD*
D74*
G04 #@! TO.P,J9,A1,GND*
G04 #@! TO.N,GND*
X46650000Y7670000D03*
G04 #@! TO.P,J9,A4,VBUS*
G04 #@! TO.N,/VBUS*
X47450000Y7670000D03*
G04 #@! TO.P,J9,A5,CC1*
G04 #@! TO.N,Net-(J9-CC1)*
X48750000Y7670000D03*
G04 #@! TO.P,J9,A6,D+*
G04 #@! TO.N,/USB+*
X49750000Y7670000D03*
G04 #@! TO.P,J9,A7,D-*
G04 #@! TO.N,/USB-*
X50250000Y7670000D03*
G04 #@! TO.P,J9,A8,SBU1*
G04 #@! TO.N,unconnected-(J9-SBU1-PadA8)*
X51250000Y7670000D03*
G04 #@! TO.P,J9,A9,VBUS*
G04 #@! TO.N,/VBUS*
X52550000Y7670000D03*
G04 #@! TO.P,J9,A12,GND*
G04 #@! TO.N,GND*
X53350000Y7670000D03*
G04 #@! TO.P,J9,B1,GND*
X53050000Y7670000D03*
G04 #@! TO.P,J9,B4,VBUS*
G04 #@! TO.N,/VBUS*
X52250000Y7670000D03*
G04 #@! TO.P,J9,B5,CC2*
G04 #@! TO.N,Net-(J9-CC2)*
X51750000Y7670000D03*
G04 #@! TO.P,J9,B6,D+*
G04 #@! TO.N,/USB+*
X50750000Y7670000D03*
G04 #@! TO.P,J9,B7,D-*
G04 #@! TO.N,/USB-*
X49250000Y7670000D03*
G04 #@! TO.P,J9,B8,SBU2*
G04 #@! TO.N,unconnected-(J9-SBU2-PadB8)*
X48250000Y7670000D03*
G04 #@! TO.P,J9,B9,VBUS*
G04 #@! TO.N,/VBUS*
X47750000Y7670000D03*
G04 #@! TO.P,J9,B12,GND*
G04 #@! TO.N,GND*
X46950000Y7670000D03*
D75*
G04 #@! TO.P,J9,S1,SHIELD*
X45680000Y7105000D03*
D76*
X45680000Y2925000D03*
D75*
X54320000Y7105000D03*
D76*
X54320000Y2925000D03*
G04 #@! TD*
D24*
G04 #@! TO.P,H3,1*
G04 #@! TO.N,N/C*
X94100000Y3500000D03*
X94802944Y5197056D03*
X94802944Y1802944D03*
X96500000Y5900000D03*
D25*
X96500000Y3500000D03*
D24*
X96500000Y1100000D03*
X98197056Y5197056D03*
X98197056Y1802944D03*
X98900000Y3500000D03*
G04 #@! TD*
D30*
G04 #@! TO.P,M4,E1,NC*
G04 #@! TO.N,unconnected-(M4-NC-PadE1)*
X38125000Y62675000D03*
G04 #@! TO.P,M4,E2,NC*
G04 #@! TO.N,unconnected-(M4-NC-PadE2)*
X36925000Y62675000D03*
G04 #@! TO.P,M4,E3,OUT*
G04 #@! TO.N,/VR2*
X39325000Y62675000D03*
G04 #@! TO.P,M4,E4,V5_IN*
G04 #@! TO.N,+5VA*
X40525000Y62675000D03*
D31*
G04 #@! TO.P,M4,G,GND*
G04 #@! TO.N,GND*
X37857500Y77325000D03*
D32*
X31807500Y77325000D03*
D33*
X40825000Y70312500D03*
D34*
X31375000Y69900000D03*
D35*
X33837500Y62475000D03*
D30*
G04 #@! TO.P,M4,W1,VR-*
G04 #@! TO.N,/VR2-*
X34065000Y77100000D03*
G04 #@! TO.P,M4,W2,VR+*
G04 #@! TO.N,/VR2+*
X33065000Y77100000D03*
G04 #@! TD*
D26*
G04 #@! TO.P,F2,1,1*
G04 #@! TO.N,+12V*
X18550000Y22778024D03*
G04 #@! TA.AperFunction,SMDPad,CuDef*
G36*
G01*
X19894990Y21878024D02*
X19204990Y21878024D01*
G75*
G02*
X18974990Y22108024I0J230000D01*
G01*
X18974990Y23448024D01*
G75*
G02*
X19204990Y23678024I230000J0D01*
G01*
X19894990Y23678024D01*
G75*
G02*
X20124990Y23448024I0J-230000D01*
G01*
X20124990Y22108024D01*
G75*
G02*
X19894990Y21878024I-230000J0D01*
G01*
G37*
G04 #@! TD.AperFunction*
G04 #@! TO.P,F2,2,2*
G04 #@! TO.N,+12V_RAW*
G04 #@! TA.AperFunction,SMDPad,CuDef*
G36*
G01*
X22795010Y21878024D02*
X22105010Y21878024D01*
G75*
G02*
X21875010Y22108024I0J230000D01*
G01*
X21875010Y23448024D01*
G75*
G02*
X22105010Y23678024I230000J0D01*
G01*
X22795010Y23678024D01*
G75*
G02*
X23025010Y23448024I0J-230000D01*
G01*
X23025010Y22108024D01*
G75*
G02*
X22795010Y21878024I-230000J0D01*
G01*
G37*
G04 #@! TD.AperFunction*
X23450000Y22778024D03*
G04 #@! TD*
G04 #@! TO.P,D5,1,K*
G04 #@! TO.N,+12V_RAW*
G04 #@! TA.AperFunction,SMDPad,CuDef*
G36*
G01*
X19510000Y66900000D02*
X18490000Y66900000D01*
G75*
G02*
X18400000Y66990000I0J90000D01*
G01*
X18400000Y67710000D01*
G75*
G02*
X18490000Y67800000I90000J0D01*
G01*
X19510000Y67800000D01*
G75*
G02*
X19600000Y67710000I0J-90000D01*
G01*
X19600000Y66990000D01*
G75*
G02*
X19510000Y66900000I-90000J0D01*
G01*
G37*
G04 #@! TD.AperFunction*
G04 #@! TO.P,D5,2,A*
G04 #@! TO.N,/OUT_LS4*
G04 #@! TA.AperFunction,SMDPad,CuDef*
G36*
G01*
X19510000Y70200000D02*
X18490000Y70200000D01*
G75*
G02*
X18400000Y70290000I0J90000D01*
G01*
X18400000Y71010000D01*
G75*
G02*
X18490000Y71100000I90000J0D01*
G01*
X19510000Y71100000D01*
G75*
G02*
X19600000Y71010000I0J-90000D01*
G01*
X19600000Y70290000D01*
G75*
G02*
X19510000Y70200000I-90000J0D01*
G01*
G37*
G04 #@! TD.AperFunction*
G04 #@! TD*
D77*
G04 #@! TO.P,J6,1,Pin_1*
G04 #@! TO.N,Net-(J6-Pin_1)*
X98160000Y37500000D03*
D78*
G04 #@! TO.P,J6,2,Pin_2*
G04 #@! TO.N,Net-(J6-Pin_2)*
X95620000Y37500000D03*
G04 #@! TO.P,J6,3,Pin_3*
G04 #@! TO.N,GND*
X93080000Y37500000D03*
G04 #@! TO.P,J6,4,Pin_4*
G04 #@! TO.N,Net-(J6-Pin_4)*
X90540000Y37500000D03*
G04 #@! TO.P,J6,5,Pin_5*
G04 #@! TO.N,Net-(J6-Pin_5)*
X88000000Y37500000D03*
G04 #@! TO.P,J6,6,Pin_6*
G04 #@! TO.N,unconnected-(J6-Pin_6-Pad6)*
X85460000Y37500000D03*
G04 #@! TD*
D21*
G04 #@! TO.P,P6,1,Pin_1*
G04 #@! TO.N,Net-(M1-PG_5VP)*
X43500000Y4500000D03*
G04 #@! TD*
G04 #@! TO.P,R5,1*
G04 #@! TO.N,/VR1_A*
G04 #@! TA.AperFunction,SMDPad,CuDef*
G36*
G01*
X54610000Y62150000D02*
X55390000Y62150000D01*
G75*
G02*
X55460000Y62080000I0J-70000D01*
G01*
X55460000Y61520000D01*
G75*
G02*
X55390000Y61450000I-70000J0D01*
G01*
X54610000Y61450000D01*
G75*
G02*
X54540000Y61520000I0J70000D01*
G01*
X54540000Y62080000D01*
G75*
G02*
X54610000Y62150000I70000J0D01*
G01*
G37*
G04 #@! TD.AperFunction*
G04 #@! TO.P,R5,2*
G04 #@! TO.N,/ADC3*
G04 #@! TA.AperFunction,SMDPad,CuDef*
G36*
G01*
X54610000Y60550000D02*
X55390000Y60550000D01*
G75*
G02*
X55460000Y60480000I0J-70000D01*
G01*
X55460000Y59920000D01*
G75*
G02*
X55390000Y59850000I-70000J0D01*
G01*
X54610000Y59850000D01*
G75*
G02*
X54540000Y59920000I0J70000D01*
G01*
X54540000Y60480000D01*
G75*
G02*
X54610000Y60550000I70000J0D01*
G01*
G37*
G04 #@! TD.AperFunction*
G04 #@! TD*
G04 #@! TO.P,R6,1*
G04 #@! TO.N,/IN_KNOCK*
G04 #@! TA.AperFunction,SMDPad,CuDef*
G36*
G01*
X80110000Y71150000D02*
X80890000Y71150000D01*
G75*
G02*
X80960000Y71080000I0J-70000D01*
G01*
X80960000Y70520000D01*
G75*
G02*
X80890000Y70450000I-70000J0D01*
G01*
X80110000Y70450000D01*
G75*
G02*
X80040000Y70520000I0J70000D01*
G01*
X80040000Y71080000D01*
G75*
G02*
X80110000Y71150000I70000J0D01*
G01*
G37*
G04 #@! TD.AperFunction*
G04 #@! TO.P,R6,2*
G04 #@! TO.N,/ADC3*
G04 #@! TA.AperFunction,SMDPad,CuDef*
G36*
G01*
X80110000Y69550000D02*
X80890000Y69550000D01*
G75*
G02*
X80960000Y69480000I0J-70000D01*
G01*
X80960000Y68920000D01*
G75*
G02*
X80890000Y68850000I-70000J0D01*
G01*
X80110000Y68850000D01*
G75*
G02*
X80040000Y68920000I0J70000D01*
G01*
X80040000Y69480000D01*
G75*
G02*
X80110000Y69550000I70000J0D01*
G01*
G37*
G04 #@! TD.AperFunction*
G04 #@! TD*
G04 #@! TO.P,R14,1*
G04 #@! TO.N,/DC2_DIS*
G04 #@! TA.AperFunction,SMDPad,CuDef*
G36*
G01*
X23210000Y9650000D02*
X23990000Y9650000D01*
G75*
G02*
X24060000Y9580000I0J-70000D01*
G01*
X24060000Y9020000D01*
G75*
G02*
X23990000Y8950000I-70000J0D01*
G01*
X23210000Y8950000D01*
G75*
G02*
X23140000Y9020000I0J70000D01*
G01*
X23140000Y9580000D01*
G75*
G02*
X23210000Y9650000I70000J0D01*
G01*
G37*
G04 #@! TD.AperFunction*
G04 #@! TO.P,R14,2*
G04 #@! TO.N,+3.3V*
G04 #@! TA.AperFunction,SMDPad,CuDef*
G36*
G01*
X23210000Y8050000D02*
X23990000Y8050000D01*
G75*
G02*
X24060000Y7980000I0J-70000D01*
G01*
X24060000Y7420000D01*
G75*
G02*
X23990000Y7350000I-70000J0D01*
G01*
X23210000Y7350000D01*
G75*
G02*
X23140000Y7420000I0J70000D01*
G01*
X23140000Y7980000D01*
G75*
G02*
X23210000Y8050000I70000J0D01*
G01*
G37*
G04 #@! TD.AperFunction*
G04 #@! TD*
D28*
G04 #@! TO.P,Q17,1,G*
G04 #@! TO.N,/INJ5*
X32200000Y25350000D03*
G04 #@! TO.P,Q17,2,D*
G04 #@! TO.N,/OUT_INJ5*
X34500000Y25350000D03*
G04 #@! TO.P,Q17,3,S*
G04 #@! TO.N,GND*
X36800000Y25350000D03*
D29*
G04 #@! TO.P,Q17,4*
G04 #@! TO.N,N/C*
X34500000Y31650000D03*
G04 #@! TD*
D79*
G04 #@! TO.P,U3,*
G04 #@! TO.N,*
X70603250Y74930000D03*
X70603250Y52070000D03*
D80*
G04 #@! TO.P,U3,0*
G04 #@! TO.N,N/C*
X68723250Y68442500D03*
X68723250Y58600000D03*
X67453250Y58600000D03*
X66183250Y58600000D03*
X64913250Y58600000D03*
D26*
G04 #@! TO.P,U3,1,VOUT*
G04 #@! TO.N,/INTERNAL_MAP*
X57903250Y69850000D03*
D80*
X64913250Y68442500D03*
G04 #@! TO.P,U3,2,GND*
G04 #@! TO.N,GND*
X66183250Y68442500D03*
D26*
X57903250Y67310000D03*
D80*
G04 #@! TO.P,U3,3,VCC*
G04 #@! TO.N,+5VA*
X67453250Y68442500D03*
D26*
X57903250Y64770000D03*
G04 #@! TO.P,U3,4,V1*
G04 #@! TO.N,unconnected-(U3-V1-Pad4)*
X57903250Y62230000D03*
G04 #@! TO.P,U3,5,V2*
G04 #@! TO.N,unconnected-(U3-V2-Pad5)*
X57903250Y59690000D03*
G04 #@! TO.P,U3,6,V_EX*
G04 #@! TO.N,unconnected-(U3-V_EX-Pad6)*
X57903250Y57150000D03*
G04 #@! TD*
G04 #@! TO.P,C12,1*
G04 #@! TO.N,GND*
G04 #@! TA.AperFunction,SMDPad,CuDef*
G36*
G01*
X1465000Y13744999D02*
X785000Y13744999D01*
G75*
G02*
X700000Y13829999I0J85000D01*
G01*
X700000Y14509999D01*
G75*
G02*
X785000Y14594999I85000J0D01*
G01*
X1465000Y14594999D01*
G75*
G02*
X1550000Y14509999I0J-85000D01*
G01*
X1550000Y13829999D01*
G75*
G02*
X1465000Y13744999I-85000J0D01*
G01*
G37*
G04 #@! TD.AperFunction*
G04 #@! TO.P,C12,2*
G04 #@! TO.N,/OUT_DC1-*
G04 #@! TA.AperFunction,SMDPad,CuDef*
G36*
G01*
X1465000Y15325001D02*
X785000Y15325001D01*
G75*
G02*
X700000Y15410001I0J85000D01*
G01*
X700000Y16090001D01*
G75*
G02*
X785000Y16175001I85000J0D01*
G01*
X1465000Y16175001D01*
G75*
G02*
X1550000Y16090001I0J-85000D01*
G01*
X1550000Y15410001D01*
G75*
G02*
X1465000Y15325001I-85000J0D01*
G01*
G37*
G04 #@! TD.AperFunction*
G04 #@! TD*
D21*
G04 #@! TO.P,G4,1*
G04 #@! TO.N,Net-(G4-Pad1)*
X47120000Y49960000D03*
G04 #@! TO.P,G4,2*
G04 #@! TO.N,Net-(G4-Pad12)*
X47120000Y52500000D03*
G04 #@! TO.P,G4,3*
G04 #@! TO.N,Net-(G4-Pad13)*
X47120000Y55040000D03*
G04 #@! TO.P,G4,4*
G04 #@! TO.N,Net-(G4-Pad14)*
X47120000Y57580000D03*
G04 #@! TO.P,G4,5*
G04 #@! TO.N,Net-(G4-Pad10)*
X47120000Y60120000D03*
G04 #@! TO.P,G4,6*
G04 #@! TO.N,Net-(G4-Pad1)*
X49660000Y49960000D03*
G04 #@! TO.P,G4,7*
G04 #@! TO.N,Net-(G4-Pad12)*
X49660000Y52500000D03*
G04 #@! TO.P,G4,8*
G04 #@! TO.N,Net-(G4-Pad13)*
X49660000Y55040000D03*
G04 #@! TO.P,G4,9*
G04 #@! TO.N,Net-(G4-Pad14)*
X49660000Y57580000D03*
G04 #@! TO.P,G4,10*
G04 #@! TO.N,Net-(G4-Pad10)*
X49660000Y60120000D03*
G04 #@! TO.P,G4,11*
G04 #@! TO.N,Net-(G4-Pad1)*
X52200000Y49960000D03*
G04 #@! TO.P,G4,12*
G04 #@! TO.N,Net-(G4-Pad12)*
X52200000Y52500000D03*
G04 #@! TO.P,G4,13*
G04 #@! TO.N,Net-(G4-Pad13)*
X52200000Y55040000D03*
G04 #@! TO.P,G4,14*
G04 #@! TO.N,Net-(G4-Pad14)*
X52200000Y57580000D03*
G04 #@! TO.P,G4,15*
G04 #@! TO.N,Net-(G4-Pad10)*
X52200000Y60120000D03*
G04 #@! TD*
M02*
