G04 #@! TF.GenerationSoftware,KiCad,Pcbnew,8.0.9-8.0.9-0~ubuntu24.04.1*
G04 #@! TF.CreationDate,2026-09-01T19:19:20+00:00*
G04 #@! TF.ProjectId,uaefi,75616566-692e-46b6-9963-61645f706362,F3*
G04 #@! TF.SameCoordinates,Original*
G04 #@! TF.FileFunction,Soldermask,Top*
G04 #@! TF.FilePolarity,Negative*
%FSLAX46Y46*%
G04 Gerber Fmt 4.6, Leading zero omitted, Abs format (unit mm)*
G04 Created by KiCad (PCBNEW 8.0.9-8.0.9-0~ubuntu24.04.1) date 2026-09-01 19:19:20*
%MOMM*%
%LPD*%
G01*
G04 APERTURE LIST*
%ADD10C,0.120000*%
%ADD11R,1.700000X1.700000*%
%ADD12O,1.700000X1.700000*%
%ADD13C,3.000000*%
%ADD14O,2.700000X3.700000*%
%ADD15C,1.700000*%
%ADD16C,0.800000*%
%ADD17C,6.400000*%
%ADD18O,1.850000X1.700000*%
%ADD19C,0.600000*%
%ADD20R,1.100000X1.100000*%
%ADD21C,1.100000*%
%ADD22O,2.400000X1.100000*%
%ADD23C,1.500000*%
%ADD24O,0.250000X0.499999*%
%ADD25O,0.499999X0.250000*%
%ADD26C,0.599999*%
%ADD27O,3.700000X2.700000*%
%ADD28R,1.300000X1.000000*%
%ADD29R,2.000000X0.650000*%
%ADD30R,4.500000X8.100000*%
%ADD31C,0.650000*%
%ADD32R,0.300000X1.150000*%
%ADD33O,1.000000X2.100000*%
%ADD34O,1.000000X1.600000*%
%ADD35C,3.302000*%
%ADD36R,0.690000X1.350000*%
%ADD37C,1.524000*%
G04 APERTURE END LIST*
D10*
G04 #@! TO.C,U5*
X98650000Y8825000D02*
X85650000Y8825000D01*
X85650000Y15825000D01*
X98650000Y15825000D01*
X98650000Y8825000D01*
G36*
X98650000Y8825000D02*
G01*
X85650000Y8825000D01*
X85650000Y15825000D01*
X98650000Y15825000D01*
X98650000Y8825000D01*
G37*
G04 #@! TD*
G04 #@! TO.C,R40*
G36*
G01*
X96799999Y84175000D02*
X96799999Y85425000D01*
G75*
G02*
X96899999Y85525000I100000J0D01*
G01*
X97699999Y85525000D01*
G75*
G02*
X97799999Y85425000I0J-100000D01*
G01*
X97799999Y84175000D01*
G75*
G02*
X97699999Y84075000I-100000J0D01*
G01*
X96899999Y84075000D01*
G75*
G02*
X96799999Y84175000I0J100000D01*
G01*
G37*
G36*
G01*
X98700021Y84175000D02*
X98700021Y85425000D01*
G75*
G02*
X98800021Y85525000I100000J0D01*
G01*
X99600021Y85525000D01*
G75*
G02*
X99700021Y85425000I0J-100000D01*
G01*
X99700021Y84175000D01*
G75*
G02*
X99600021Y84075000I-100000J0D01*
G01*
X98800021Y84075000D01*
G75*
G02*
X98700021Y84175000I0J100000D01*
G01*
G37*
G04 #@! TD*
G04 #@! TO.C,U7*
G36*
G01*
X28775000Y75110000D02*
X28775000Y74810000D01*
G75*
G02*
X28625000Y74660000I-150000J0D01*
G01*
X26975000Y74660000D01*
G75*
G02*
X26825000Y74810000I0J150000D01*
G01*
X26825000Y75110000D01*
G75*
G02*
X26975000Y75260000I150000J0D01*
G01*
X28625000Y75260000D01*
G75*
G02*
X28775000Y75110000I0J-150000D01*
G01*
G37*
G36*
G01*
X28775000Y76380000D02*
X28775000Y76080000D01*
G75*
G02*
X28625000Y75930000I-150000J0D01*
G01*
X26975000Y75930000D01*
G75*
G02*
X26825000Y76080000I0J150000D01*
G01*
X26825000Y76380000D01*
G75*
G02*
X26975000Y76530000I150000J0D01*
G01*
X28625000Y76530000D01*
G75*
G02*
X28775000Y76380000I0J-150000D01*
G01*
G37*
G36*
G01*
X28775000Y77650000D02*
X28775000Y77350000D01*
G75*
G02*
X28625000Y77200000I-150000J0D01*
G01*
X26975000Y77200000D01*
G75*
G02*
X26825000Y77350000I0J150000D01*
G01*
X26825000Y77650000D01*
G75*
G02*
X26975000Y77800000I150000J0D01*
G01*
X28625000Y77800000D01*
G75*
G02*
X28775000Y77650000I0J-150000D01*
G01*
G37*
G36*
G01*
X28775000Y78920000D02*
X28775000Y78620000D01*
G75*
G02*
X28625000Y78470000I-150000J0D01*
G01*
X26975000Y78470000D01*
G75*
G02*
X26825000Y78620000I0J150000D01*
G01*
X26825000Y78920000D01*
G75*
G02*
X26975000Y79070000I150000J0D01*
G01*
X28625000Y79070000D01*
G75*
G02*
X28775000Y78920000I0J-150000D01*
G01*
G37*
G36*
G01*
X23825000Y78920000D02*
X23825000Y78620000D01*
G75*
G02*
X23675000Y78470000I-150000J0D01*
G01*
X22025000Y78470000D01*
G75*
G02*
X21875000Y78620000I0J150000D01*
G01*
X21875000Y78920000D01*
G75*
G02*
X22025000Y79070000I150000J0D01*
G01*
X23675000Y79070000D01*
G75*
G02*
X23825000Y78920000I0J-150000D01*
G01*
G37*
G36*
G01*
X23825000Y77650000D02*
X23825000Y77350000D01*
G75*
G02*
X23675000Y77200000I-150000J0D01*
G01*
X22025000Y77200000D01*
G75*
G02*
X21875000Y77350000I0J150000D01*
G01*
X21875000Y77650000D01*
G75*
G02*
X22025000Y77800000I150000J0D01*
G01*
X23675000Y77800000D01*
G75*
G02*
X23825000Y77650000I0J-150000D01*
G01*
G37*
G36*
G01*
X23825000Y76380000D02*
X23825000Y76080000D01*
G75*
G02*
X23675000Y75930000I-150000J0D01*
G01*
X22025000Y75930000D01*
G75*
G02*
X21875000Y76080000I0J150000D01*
G01*
X21875000Y76380000D01*
G75*
G02*
X22025000Y76530000I150000J0D01*
G01*
X23675000Y76530000D01*
G75*
G02*
X23825000Y76380000I0J-150000D01*
G01*
G37*
G36*
G01*
X23825000Y75110000D02*
X23825000Y74810000D01*
G75*
G02*
X23675000Y74660000I-150000J0D01*
G01*
X22025000Y74660000D01*
G75*
G02*
X21875000Y74810000I0J150000D01*
G01*
X21875000Y75110000D01*
G75*
G02*
X22025000Y75260000I150000J0D01*
G01*
X23675000Y75260000D01*
G75*
G02*
X23825000Y75110000I0J-150000D01*
G01*
G37*
G04 #@! TD*
G04 #@! TO.C,C24*
G36*
G01*
X8260000Y9965001D02*
X8940000Y9965001D01*
G75*
G02*
X9025000Y9880001I0J-85000D01*
G01*
X9025000Y9200001D01*
G75*
G02*
X8940000Y9115001I-85000J0D01*
G01*
X8260000Y9115001D01*
G75*
G02*
X8175000Y9200001I0J85000D01*
G01*
X8175000Y9880001D01*
G75*
G02*
X8260000Y9965001I85000J0D01*
G01*
G37*
G36*
G01*
X8260000Y8384999D02*
X8940000Y8384999D01*
G75*
G02*
X9025000Y8299999I0J-85000D01*
G01*
X9025000Y7619999D01*
G75*
G02*
X8940000Y7534999I-85000J0D01*
G01*
X8260000Y7534999D01*
G75*
G02*
X8175000Y7619999I0J85000D01*
G01*
X8175000Y8299999D01*
G75*
G02*
X8260000Y8384999I85000J0D01*
G01*
G37*
G04 #@! TD*
G04 #@! TO.C,R39*
G36*
G01*
X96799999Y86675000D02*
X96799999Y87925000D01*
G75*
G02*
X96899999Y88025000I100000J0D01*
G01*
X97699999Y88025000D01*
G75*
G02*
X97799999Y87925000I0J-100000D01*
G01*
X97799999Y86675000D01*
G75*
G02*
X97699999Y86575000I-100000J0D01*
G01*
X96899999Y86575000D01*
G75*
G02*
X96799999Y86675000I0J100000D01*
G01*
G37*
G36*
G01*
X98700021Y86675000D02*
X98700021Y87925000D01*
G75*
G02*
X98800021Y88025000I100000J0D01*
G01*
X99600021Y88025000D01*
G75*
G02*
X99700021Y87925000I0J-100000D01*
G01*
X99700021Y86675000D01*
G75*
G02*
X99600021Y86575000I-100000J0D01*
G01*
X98800021Y86575000D01*
G75*
G02*
X98700021Y86675000I0J100000D01*
G01*
G37*
G04 #@! TD*
G04 #@! TO.C,Q10*
G36*
G01*
X28800000Y39570000D02*
X28800000Y38870000D01*
G75*
G02*
X28550000Y38620000I-250000J0D01*
G01*
X26850000Y38620000D01*
G75*
G02*
X26600000Y38870000I0J250000D01*
G01*
X26600000Y39570000D01*
G75*
G02*
X26850000Y39820000I250000J0D01*
G01*
X28550000Y39820000D01*
G75*
G02*
X28800000Y39570000I0J-250000D01*
G01*
G37*
G36*
G01*
X24600000Y44150003D02*
X24600000Y38849997D01*
G75*
G02*
X24350003Y38600000I-249997J0D01*
G01*
X18449997Y38600000D01*
G75*
G02*
X18200000Y38849997I0J249997D01*
G01*
X18200000Y44150003D01*
G75*
G02*
X18449997Y44400000I249997J0D01*
G01*
X24350003Y44400000D01*
G75*
G02*
X24600000Y44150003I0J-249997D01*
G01*
G37*
G36*
G01*
X28800000Y44130000D02*
X28800000Y43430000D01*
G75*
G02*
X28550000Y43180000I-250000J0D01*
G01*
X26850000Y43180000D01*
G75*
G02*
X26600000Y43430000I0J250000D01*
G01*
X26600000Y44130000D01*
G75*
G02*
X26850000Y44380000I250000J0D01*
G01*
X28550000Y44380000D01*
G75*
G02*
X28800000Y44130000I0J-250000D01*
G01*
G37*
G04 #@! TD*
D11*
G04 #@! TO.C,J21*
X13315000Y52750000D03*
D12*
X10775000Y52750000D03*
X13315000Y50210000D03*
X10775000Y50210000D03*
G04 #@! TD*
D13*
G04 #@! TO.C,J10*
X60300000Y98025000D03*
X89700000Y98025000D03*
G36*
G01*
X58950000Y89125001D02*
X58950000Y92324999D01*
G75*
G02*
X59200001Y92575000I250001J0D01*
G01*
X61399999Y92575000D01*
G75*
G02*
X61650000Y92324999I0J-250001D01*
G01*
X61650000Y89125001D01*
G75*
G02*
X61399999Y88875000I-250001J0D01*
G01*
X59200001Y88875000D01*
G75*
G02*
X58950000Y89125001I0J250001D01*
G01*
G37*
D14*
X64500000Y90725000D03*
X68700000Y90725000D03*
X72900000Y90725000D03*
X77100000Y90725000D03*
X81300000Y90725000D03*
X85500000Y90725000D03*
X89700000Y90725000D03*
X60300000Y85225000D03*
X64500000Y85225000D03*
X68700000Y85225000D03*
X72900000Y85225000D03*
X77100000Y85225000D03*
X81300000Y85225000D03*
X85500000Y85225000D03*
X89700000Y85225000D03*
G04 #@! TD*
D15*
G04 #@! TO.C,P8*
X83200000Y19300000D03*
G04 #@! TD*
D11*
G04 #@! TO.C,J20*
X13315000Y61150000D03*
D12*
X10775000Y61150000D03*
X13315000Y58610000D03*
X10775000Y58610000D03*
G04 #@! TD*
D15*
G04 #@! TO.C,P5*
X41600000Y46000000D03*
G04 #@! TD*
D13*
G04 #@! TO.C,J2*
X10600000Y98025000D03*
X48400000Y98025000D03*
G36*
G01*
X9250000Y89125001D02*
X9250000Y92324999D01*
G75*
G02*
X9500001Y92575000I250001J0D01*
G01*
X11699999Y92575000D01*
G75*
G02*
X11950000Y92324999I0J-250001D01*
G01*
X11950000Y89125001D01*
G75*
G02*
X11699999Y88875000I-250001J0D01*
G01*
X9500001Y88875000D01*
G75*
G02*
X9250000Y89125001I0J250001D01*
G01*
G37*
D14*
X14800000Y90725000D03*
X19000000Y90725000D03*
X23200000Y90725000D03*
X27400000Y90725000D03*
X31600000Y90725000D03*
X35800000Y90725000D03*
X40000000Y90725000D03*
X44200000Y90725000D03*
X48400000Y90725000D03*
X10600000Y85225000D03*
X14800000Y85225000D03*
X19000000Y85225000D03*
X23200000Y85225000D03*
X27400000Y85225000D03*
X31600000Y85225000D03*
X35800000Y85225000D03*
X40000000Y85225000D03*
X44200000Y85225000D03*
X48400000Y85225000D03*
G04 #@! TD*
G04 #@! TO.C,Q7*
G36*
G01*
X28800000Y60570000D02*
X28800000Y59870000D01*
G75*
G02*
X28550000Y59620000I-250000J0D01*
G01*
X26850000Y59620000D01*
G75*
G02*
X26600000Y59870000I0J250000D01*
G01*
X26600000Y60570000D01*
G75*
G02*
X26850000Y60820000I250000J0D01*
G01*
X28550000Y60820000D01*
G75*
G02*
X28800000Y60570000I0J-250000D01*
G01*
G37*
G36*
G01*
X24600000Y65150003D02*
X24600000Y59849997D01*
G75*
G02*
X24350003Y59600000I-249997J0D01*
G01*
X18449997Y59600000D01*
G75*
G02*
X18200000Y59849997I0J249997D01*
G01*
X18200000Y65150003D01*
G75*
G02*
X18449997Y65400000I249997J0D01*
G01*
X24350003Y65400000D01*
G75*
G02*
X24600000Y65150003I0J-249997D01*
G01*
G37*
G36*
G01*
X28800000Y65130000D02*
X28800000Y64430000D01*
G75*
G02*
X28550000Y64180000I-250000J0D01*
G01*
X26850000Y64180000D01*
G75*
G02*
X26600000Y64430000I0J250000D01*
G01*
X26600000Y65130000D01*
G75*
G02*
X26850000Y65380000I250000J0D01*
G01*
X28550000Y65380000D01*
G75*
G02*
X28800000Y65130000I0J-250000D01*
G01*
G37*
G04 #@! TD*
G04 #@! TO.C,Q8*
G36*
G01*
X28800000Y53570000D02*
X28800000Y52870000D01*
G75*
G02*
X28550000Y52620000I-250000J0D01*
G01*
X26850000Y52620000D01*
G75*
G02*
X26600000Y52870000I0J250000D01*
G01*
X26600000Y53570000D01*
G75*
G02*
X26850000Y53820000I250000J0D01*
G01*
X28550000Y53820000D01*
G75*
G02*
X28800000Y53570000I0J-250000D01*
G01*
G37*
G36*
G01*
X24600000Y58150003D02*
X24600000Y52849997D01*
G75*
G02*
X24350003Y52600000I-249997J0D01*
G01*
X18449997Y52600000D01*
G75*
G02*
X18200000Y52849997I0J249997D01*
G01*
X18200000Y58150003D01*
G75*
G02*
X18449997Y58400000I249997J0D01*
G01*
X24350003Y58400000D01*
G75*
G02*
X24600000Y58150003I0J-249997D01*
G01*
G37*
G36*
G01*
X28800000Y58130000D02*
X28800000Y57430000D01*
G75*
G02*
X28550000Y57180000I-250000J0D01*
G01*
X26850000Y57180000D01*
G75*
G02*
X26600000Y57430000I0J250000D01*
G01*
X26600000Y58130000D01*
G75*
G02*
X26850000Y58380000I250000J0D01*
G01*
X28550000Y58380000D01*
G75*
G02*
X28800000Y58130000I0J-250000D01*
G01*
G37*
G04 #@! TD*
D11*
G04 #@! TO.C,J17*
X39190000Y89225000D03*
D12*
X36650000Y89225000D03*
X39190000Y86685000D03*
X36650000Y86685000D03*
G04 #@! TD*
D15*
G04 #@! TO.C,P1*
X32000000Y57500000D03*
G04 #@! TD*
G04 #@! TO.C,C26*
G36*
G01*
X23260000Y6715001D02*
X23940000Y6715001D01*
G75*
G02*
X24025000Y6630001I0J-85000D01*
G01*
X24025000Y5950001D01*
G75*
G02*
X23940000Y5865001I-85000J0D01*
G01*
X23260000Y5865001D01*
G75*
G02*
X23175000Y5950001I0J85000D01*
G01*
X23175000Y6630001D01*
G75*
G02*
X23260000Y6715001I85000J0D01*
G01*
G37*
G36*
G01*
X23260000Y5134999D02*
X23940000Y5134999D01*
G75*
G02*
X24025000Y5049999I0J-85000D01*
G01*
X24025000Y4369999D01*
G75*
G02*
X23940000Y4284999I-85000J0D01*
G01*
X23260000Y4284999D01*
G75*
G02*
X23175000Y4369999I0J85000D01*
G01*
X23175000Y5049999D01*
G75*
G02*
X23260000Y5134999I85000J0D01*
G01*
G37*
G04 #@! TD*
G04 #@! TO.C,R1*
G36*
G01*
X36082497Y80315000D02*
X36082497Y79535000D01*
G75*
G02*
X36012497Y79465000I-70000J0D01*
G01*
X35452497Y79465000D01*
G75*
G02*
X35382497Y79535000I0J70000D01*
G01*
X35382497Y80315000D01*
G75*
G02*
X35452497Y80385000I70000J0D01*
G01*
X36012497Y80385000D01*
G75*
G02*
X36082497Y80315000I0J-70000D01*
G01*
G37*
G36*
G01*
X34482497Y80315000D02*
X34482497Y79535000D01*
G75*
G02*
X34412497Y79465000I-70000J0D01*
G01*
X33852497Y79465000D01*
G75*
G02*
X33782497Y79535000I0J70000D01*
G01*
X33782497Y80315000D01*
G75*
G02*
X33852497Y80385000I70000J0D01*
G01*
X34412497Y80385000D01*
G75*
G02*
X34482497Y80315000I0J-70000D01*
G01*
G37*
G04 #@! TD*
G04 #@! TO.C,P2*
X34900000Y57500000D03*
G04 #@! TD*
G04 #@! TO.C,C13*
G36*
G01*
X16385000Y16175001D02*
X17065000Y16175001D01*
G75*
G02*
X17150000Y16090001I0J-85000D01*
G01*
X17150000Y15410001D01*
G75*
G02*
X17065000Y15325001I-85000J0D01*
G01*
X16385000Y15325001D01*
G75*
G02*
X16300000Y15410001I0J85000D01*
G01*
X16300000Y16090001D01*
G75*
G02*
X16385000Y16175001I85000J0D01*
G01*
G37*
G36*
G01*
X16385000Y14594999D02*
X17065000Y14594999D01*
G75*
G02*
X17150000Y14509999I0J-85000D01*
G01*
X17150000Y13829999D01*
G75*
G02*
X17065000Y13744999I-85000J0D01*
G01*
X16385000Y13744999D01*
G75*
G02*
X16300000Y13829999I0J85000D01*
G01*
X16300000Y14509999D01*
G75*
G02*
X16385000Y14594999I85000J0D01*
G01*
G37*
G04 #@! TD*
G04 #@! TO.C,P15*
X5540000Y11500000D03*
G04 #@! TD*
D16*
G04 #@! TO.C,H1*
X1100000Y96500000D03*
X1802944Y98197056D03*
X1802944Y94802944D03*
X3500000Y98900000D03*
D17*
X3500000Y96500000D03*
D16*
X3500000Y94100000D03*
X5197056Y98197056D03*
X5197056Y94802944D03*
X5900000Y96500000D03*
G04 #@! TD*
G04 #@! TO.C,H4*
X94100000Y96500000D03*
X94802944Y98197056D03*
X94802944Y94802944D03*
X96500000Y98900000D03*
D17*
X96500000Y96500000D03*
D16*
X96500000Y94100000D03*
X98197056Y98197056D03*
X98197056Y94802944D03*
X98900000Y96500000D03*
G04 #@! TD*
G04 #@! TO.C,F4*
G36*
G01*
X17775001Y19200000D02*
X19024999Y19200000D01*
G75*
G02*
X19275000Y18949999I0J-250001D01*
G01*
X19275000Y18025001D01*
G75*
G02*
X19024999Y17775000I-250001J0D01*
G01*
X17775001Y17775000D01*
G75*
G02*
X17525000Y18025001I0J250001D01*
G01*
X17525000Y18949999D01*
G75*
G02*
X17775001Y19200000I250001J0D01*
G01*
G37*
G36*
G01*
X17775001Y16225000D02*
X19024999Y16225000D01*
G75*
G02*
X19275000Y15974999I0J-250001D01*
G01*
X19275000Y15050001D01*
G75*
G02*
X19024999Y14800000I-250001J0D01*
G01*
X17775001Y14800000D01*
G75*
G02*
X17525000Y15050001I0J250001D01*
G01*
X17525000Y15974999D01*
G75*
G02*
X17775001Y16225000I250001J0D01*
G01*
G37*
G04 #@! TD*
G04 #@! TO.C,R37*
G36*
G01*
X93349999Y84175000D02*
X93349999Y85425000D01*
G75*
G02*
X93449999Y85525000I100000J0D01*
G01*
X94249999Y85525000D01*
G75*
G02*
X94349999Y85425000I0J-100000D01*
G01*
X94349999Y84175000D01*
G75*
G02*
X94249999Y84075000I-100000J0D01*
G01*
X93449999Y84075000D01*
G75*
G02*
X93349999Y84175000I0J100000D01*
G01*
G37*
G36*
G01*
X95250021Y84175000D02*
X95250021Y85425000D01*
G75*
G02*
X95350021Y85525000I100000J0D01*
G01*
X96150021Y85525000D01*
G75*
G02*
X96250021Y85425000I0J-100000D01*
G01*
X96250021Y84175000D01*
G75*
G02*
X96150021Y84075000I-100000J0D01*
G01*
X95350021Y84075000D01*
G75*
G02*
X95250021Y84175000I0J100000D01*
G01*
G37*
G04 #@! TD*
G04 #@! TO.C,C11*
G36*
G01*
X1260000Y18515001D02*
X1940000Y18515001D01*
G75*
G02*
X2025000Y18430001I0J-85000D01*
G01*
X2025000Y17750001D01*
G75*
G02*
X1940000Y17665001I-85000J0D01*
G01*
X1260000Y17665001D01*
G75*
G02*
X1175000Y17750001I0J85000D01*
G01*
X1175000Y18430001D01*
G75*
G02*
X1260000Y18515001I85000J0D01*
G01*
G37*
G36*
G01*
X1260000Y16934999D02*
X1940000Y16934999D01*
G75*
G02*
X2025000Y16849999I0J-85000D01*
G01*
X2025000Y16169999D01*
G75*
G02*
X1940000Y16084999I-85000J0D01*
G01*
X1260000Y16084999D01*
G75*
G02*
X1175000Y16169999I0J85000D01*
G01*
X1175000Y16849999D01*
G75*
G02*
X1260000Y16934999I85000J0D01*
G01*
G37*
G04 #@! TD*
G04 #@! TO.C,J7*
G36*
G01*
X83675000Y2150000D02*
X82325000Y2150000D01*
G75*
G02*
X82075000Y2400000I0J250000D01*
G01*
X82075000Y3600000D01*
G75*
G02*
X82325000Y3850000I250000J0D01*
G01*
X83675000Y3850000D01*
G75*
G02*
X83925000Y3600000I0J-250000D01*
G01*
X83925000Y2400000D01*
G75*
G02*
X83675000Y2150000I-250000J0D01*
G01*
G37*
D18*
X83000000Y5500000D03*
X83000000Y8000000D03*
X83000000Y10500000D03*
X83000000Y13000000D03*
G04 #@! TD*
D15*
G04 #@! TO.C,P4*
X62500000Y7500000D03*
G04 #@! TD*
D16*
G04 #@! TO.C,H2*
X1100000Y3500000D03*
X1802944Y5197056D03*
X1802944Y1802944D03*
X3500000Y5900000D03*
D17*
X3500000Y3500000D03*
D16*
X3500000Y1100000D03*
X5197056Y5197056D03*
X5197056Y1802944D03*
X5900000Y3500000D03*
G04 #@! TD*
D19*
G04 #@! TO.C,M3*
X49175000Y62675000D03*
X47975000Y62675000D03*
X50375000Y62675000D03*
X51575000Y62675000D03*
X45115000Y77100000D03*
X44115000Y77100000D03*
G04 #@! TD*
G04 #@! TO.C,R10*
G36*
G01*
X29750000Y72090000D02*
X29750000Y71310000D01*
G75*
G02*
X29680000Y71240000I-70000J0D01*
G01*
X29120000Y71240000D01*
G75*
G02*
X29050000Y71310000I0J70000D01*
G01*
X29050000Y72090000D01*
G75*
G02*
X29120000Y72160000I70000J0D01*
G01*
X29680000Y72160000D01*
G75*
G02*
X29750000Y72090000I0J-70000D01*
G01*
G37*
G36*
G01*
X28150000Y72090000D02*
X28150000Y71310000D01*
G75*
G02*
X28080000Y71240000I-70000J0D01*
G01*
X27520000Y71240000D01*
G75*
G02*
X27450000Y71310000I0J70000D01*
G01*
X27450000Y72090000D01*
G75*
G02*
X27520000Y72160000I70000J0D01*
G01*
X28080000Y72160000D01*
G75*
G02*
X28150000Y72090000I0J-70000D01*
G01*
G37*
G04 #@! TD*
D15*
G04 #@! TO.C,P17*
X3000000Y11500000D03*
G04 #@! TD*
D20*
G04 #@! TO.C,J8*
X59250000Y3100000D03*
D21*
X57500000Y3900000D03*
X59250000Y4700000D03*
X57500000Y5500000D03*
X59250000Y6300000D03*
D22*
X58375000Y1050000D03*
X58375000Y8350000D03*
G04 #@! TD*
G04 #@! TO.C,F3*
G36*
G01*
X19975001Y19200000D02*
X21224999Y19200000D01*
G75*
G02*
X21475000Y18949999I0J-250001D01*
G01*
X21475000Y18025001D01*
G75*
G02*
X21224999Y17775000I-250001J0D01*
G01*
X19975001Y17775000D01*
G75*
G02*
X19725000Y18025001I0J250001D01*
G01*
X19725000Y18949999D01*
G75*
G02*
X19975001Y19200000I250001J0D01*
G01*
G37*
G36*
G01*
X19975001Y16225000D02*
X21224999Y16225000D01*
G75*
G02*
X21475000Y15974999I0J-250001D01*
G01*
X21475000Y15050001D01*
G75*
G02*
X21224999Y14800000I-250001J0D01*
G01*
X19975001Y14800000D01*
G75*
G02*
X19725000Y15050001I0J250001D01*
G01*
X19725000Y15974999D01*
G75*
G02*
X19975001Y16225000I250001J0D01*
G01*
G37*
G04 #@! TD*
D19*
G04 #@! TO.C,M2*
X79574999Y73125000D03*
X78624999Y73125000D03*
X77675001Y73125000D03*
X78674999Y81825000D03*
X79574999Y81825000D03*
G04 #@! TD*
D15*
G04 #@! TO.C,P18*
X23000000Y11000000D03*
G04 #@! TD*
D23*
G04 #@! TO.C,M1*
X40874995Y20824999D03*
X40874995Y14425002D03*
X40874995Y12524999D03*
X40874995Y8224999D03*
D19*
X41324994Y5825002D03*
X41324994Y4825001D03*
D23*
X40874995Y1974999D03*
X25374998Y21275001D03*
X25374998Y19425002D03*
X25374998Y14474999D03*
X25374998Y2425001D03*
G04 #@! TD*
G04 #@! TO.C,Q12*
G36*
G01*
X28800000Y25570000D02*
X28800000Y24870000D01*
G75*
G02*
X28550000Y24620000I-250000J0D01*
G01*
X26850000Y24620000D01*
G75*
G02*
X26600000Y24870000I0J250000D01*
G01*
X26600000Y25570000D01*
G75*
G02*
X26850000Y25820000I250000J0D01*
G01*
X28550000Y25820000D01*
G75*
G02*
X28800000Y25570000I0J-250000D01*
G01*
G37*
G36*
G01*
X24600000Y30150003D02*
X24600000Y24849997D01*
G75*
G02*
X24350003Y24600000I-249997J0D01*
G01*
X18449997Y24600000D01*
G75*
G02*
X18200000Y24849997I0J249997D01*
G01*
X18200000Y30150003D01*
G75*
G02*
X18449997Y30400000I249997J0D01*
G01*
X24350003Y30400000D01*
G75*
G02*
X24600000Y30150003I0J-249997D01*
G01*
G37*
G36*
G01*
X28800000Y30130000D02*
X28800000Y29430000D01*
G75*
G02*
X28550000Y29180000I-250000J0D01*
G01*
X26850000Y29180000D01*
G75*
G02*
X26600000Y29430000I0J250000D01*
G01*
X26600000Y30130000D01*
G75*
G02*
X26850000Y30380000I250000J0D01*
G01*
X28550000Y30380000D01*
G75*
G02*
X28800000Y30130000I0J-250000D01*
G01*
G37*
G04 #@! TD*
D15*
G04 #@! TO.C,P6*
X39060000Y46000000D03*
G04 #@! TD*
D24*
G04 #@! TO.C,M7*
X30900003Y43675005D03*
D25*
X30950001Y54024999D03*
X30950001Y53524998D03*
D26*
X31999999Y46975001D03*
X32524999Y47850003D03*
X33274997Y46674999D03*
X36824998Y46750002D03*
G04 #@! TD*
G04 #@! TO.C,R9*
G36*
G01*
X16335000Y19110000D02*
X17115000Y19110000D01*
G75*
G02*
X17185000Y19040000I0J-70000D01*
G01*
X17185000Y18480000D01*
G75*
G02*
X17115000Y18410000I-70000J0D01*
G01*
X16335000Y18410000D01*
G75*
G02*
X16265000Y18480000I0J70000D01*
G01*
X16265000Y19040000D01*
G75*
G02*
X16335000Y19110000I70000J0D01*
G01*
G37*
G36*
G01*
X16335000Y17510000D02*
X17115000Y17510000D01*
G75*
G02*
X17185000Y17440000I0J-70000D01*
G01*
X17185000Y16880000D01*
G75*
G02*
X17115000Y16810000I-70000J0D01*
G01*
X16335000Y16810000D01*
G75*
G02*
X16265000Y16880000I0J70000D01*
G01*
X16265000Y17440000D01*
G75*
G02*
X16335000Y17510000I70000J0D01*
G01*
G37*
G04 #@! TD*
D11*
G04 #@! TO.C,J11*
X80490000Y89225000D03*
D12*
X77950000Y89225000D03*
X80490000Y86685000D03*
X77950000Y86685000D03*
G04 #@! TD*
D13*
G04 #@! TO.C,J5*
X1975000Y45200000D03*
X1975000Y78800000D03*
G36*
G01*
X10874999Y43850000D02*
X7675001Y43850000D01*
G75*
G02*
X7425000Y44100001I0J250001D01*
G01*
X7425000Y46299999D01*
G75*
G02*
X7675001Y46550000I250001J0D01*
G01*
X10874999Y46550000D01*
G75*
G02*
X11125000Y46299999I0J-250001D01*
G01*
X11125000Y44100001D01*
G75*
G02*
X10874999Y43850000I-250001J0D01*
G01*
G37*
D27*
X9275000Y49400000D03*
X9275000Y53600000D03*
X9275000Y57800000D03*
X9275000Y62000000D03*
X9275000Y66200000D03*
X9275000Y70400000D03*
X9275000Y74600000D03*
X9275000Y78800000D03*
X14775000Y45200000D03*
X14775000Y49400000D03*
X14775000Y53600000D03*
X14775000Y57800000D03*
X14775000Y62000000D03*
X14775000Y66200000D03*
X14775000Y70400000D03*
X14775000Y74600000D03*
X14775000Y78800000D03*
G04 #@! TD*
G04 #@! TO.C,Q9*
G36*
G01*
X28800000Y46570000D02*
X28800000Y45870000D01*
G75*
G02*
X28550000Y45620000I-250000J0D01*
G01*
X26850000Y45620000D01*
G75*
G02*
X26600000Y45870000I0J250000D01*
G01*
X26600000Y46570000D01*
G75*
G02*
X26850000Y46820000I250000J0D01*
G01*
X28550000Y46820000D01*
G75*
G02*
X28800000Y46570000I0J-250000D01*
G01*
G37*
G36*
G01*
X24600000Y51150003D02*
X24600000Y45849997D01*
G75*
G02*
X24350003Y45600000I-249997J0D01*
G01*
X18449997Y45600000D01*
G75*
G02*
X18200000Y45849997I0J249997D01*
G01*
X18200000Y51150003D01*
G75*
G02*
X18449997Y51400000I249997J0D01*
G01*
X24350003Y51400000D01*
G75*
G02*
X24600000Y51150003I0J-249997D01*
G01*
G37*
G36*
G01*
X28800000Y51130000D02*
X28800000Y50430000D01*
G75*
G02*
X28550000Y50180000I-250000J0D01*
G01*
X26850000Y50180000D01*
G75*
G02*
X26600000Y50430000I0J250000D01*
G01*
X26600000Y51130000D01*
G75*
G02*
X26850000Y51380000I250000J0D01*
G01*
X28550000Y51380000D01*
G75*
G02*
X28800000Y51130000I0J-250000D01*
G01*
G37*
G04 #@! TD*
D28*
G04 #@! TO.C,U5*
X98500000Y16400000D03*
X98500000Y17900000D03*
X98500000Y19400000D03*
X98500000Y20900000D03*
X98500000Y22400000D03*
X98500000Y23900000D03*
X98500000Y25400000D03*
X98500000Y26900000D03*
X98500000Y28400000D03*
X98500000Y29900000D03*
X98500000Y31400000D03*
X98500000Y32900000D03*
X98500000Y34400000D03*
X85800000Y34400000D03*
X85800000Y32900000D03*
X85800000Y31400000D03*
X85800000Y29900000D03*
X85800000Y28400000D03*
X85800000Y26900000D03*
X85800000Y25400000D03*
X85800000Y23900000D03*
X85800000Y22400000D03*
X85800000Y20900000D03*
X85800000Y19400000D03*
X85800000Y17900000D03*
X85800000Y16400000D03*
G04 #@! TD*
D11*
G04 #@! TO.C,J1*
X88890000Y89225000D03*
D12*
X86350000Y89225000D03*
X88890000Y86685000D03*
X86350000Y86685000D03*
G04 #@! TD*
D13*
G04 #@! TO.C,J3*
X98025000Y79200000D03*
X98025000Y70800000D03*
G36*
G01*
X89125001Y80550000D02*
X92324999Y80550000D01*
G75*
G02*
X92575000Y80299999I0J-250001D01*
G01*
X92575000Y78100001D01*
G75*
G02*
X92324999Y77850000I-250001J0D01*
G01*
X89125001Y77850000D01*
G75*
G02*
X88875000Y78100001I0J250001D01*
G01*
X88875000Y80299999D01*
G75*
G02*
X89125001Y80550000I250001J0D01*
G01*
G37*
D27*
X90725000Y75000000D03*
X90725000Y70800000D03*
X85225000Y79200000D03*
X85225000Y75000000D03*
X85225000Y70800000D03*
G04 #@! TD*
G04 #@! TO.C,R35*
G36*
G01*
X93349999Y89175000D02*
X93349999Y90425000D01*
G75*
G02*
X93449999Y90525000I100000J0D01*
G01*
X94249999Y90525000D01*
G75*
G02*
X94349999Y90425000I0J-100000D01*
G01*
X94349999Y89175000D01*
G75*
G02*
X94249999Y89075000I-100000J0D01*
G01*
X93449999Y89075000D01*
G75*
G02*
X93349999Y89175000I0J100000D01*
G01*
G37*
G36*
G01*
X95250021Y89175000D02*
X95250021Y90425000D01*
G75*
G02*
X95350021Y90525000I100000J0D01*
G01*
X96150021Y90525000D01*
G75*
G02*
X96250021Y90425000I0J-100000D01*
G01*
X96250021Y89175000D01*
G75*
G02*
X96150021Y89075000I-100000J0D01*
G01*
X95350021Y89075000D01*
G75*
G02*
X95250021Y89175000I0J100000D01*
G01*
G37*
G04 #@! TD*
D11*
G04 #@! TO.C,J16*
X30790000Y89225000D03*
D12*
X28250000Y89225000D03*
X30790000Y86685000D03*
X28250000Y86685000D03*
G04 #@! TD*
G04 #@! TO.C,F1*
G36*
G01*
X22175001Y19200000D02*
X23424999Y19200000D01*
G75*
G02*
X23675000Y18949999I0J-250001D01*
G01*
X23675000Y18025001D01*
G75*
G02*
X23424999Y17775000I-250001J0D01*
G01*
X22175001Y17775000D01*
G75*
G02*
X21925000Y18025001I0J250001D01*
G01*
X21925000Y18949999D01*
G75*
G02*
X22175001Y19200000I250001J0D01*
G01*
G37*
G36*
G01*
X22175001Y16225000D02*
X23424999Y16225000D01*
G75*
G02*
X23675000Y15974999I0J-250001D01*
G01*
X23675000Y15050001D01*
G75*
G02*
X23424999Y14800000I-250001J0D01*
G01*
X22175001Y14800000D01*
G75*
G02*
X21925000Y15050001I0J250001D01*
G01*
X21925000Y15974999D01*
G75*
G02*
X22175001Y16225000I250001J0D01*
G01*
G37*
G04 #@! TD*
D15*
G04 #@! TO.C,G3*
X39500000Y49960000D03*
X39500000Y52500000D03*
X39500000Y55040000D03*
X39500000Y57580000D03*
X39500000Y60120000D03*
X42040000Y49960000D03*
X42040000Y52500000D03*
X42040000Y55040000D03*
X42040000Y57580000D03*
X42040000Y60120000D03*
X44580000Y49960000D03*
X44580000Y52500000D03*
X44580000Y55040000D03*
X44580000Y57580000D03*
X44580000Y60120000D03*
G04 #@! TD*
G04 #@! TO.C,P3*
X62500000Y2500000D03*
G04 #@! TD*
G04 #@! TO.C,R11*
G36*
G01*
X32150000Y80990000D02*
X32150000Y80210000D01*
G75*
G02*
X32080000Y80140000I-70000J0D01*
G01*
X31520000Y80140000D01*
G75*
G02*
X31450000Y80210000I0J70000D01*
G01*
X31450000Y80990000D01*
G75*
G02*
X31520000Y81060000I70000J0D01*
G01*
X32080000Y81060000D01*
G75*
G02*
X32150000Y80990000I0J-70000D01*
G01*
G37*
G36*
G01*
X30550000Y80990000D02*
X30550000Y80210000D01*
G75*
G02*
X30480000Y80140000I-70000J0D01*
G01*
X29920000Y80140000D01*
G75*
G02*
X29850000Y80210000I0J70000D01*
G01*
X29850000Y80990000D01*
G75*
G02*
X29920000Y81060000I70000J0D01*
G01*
X30480000Y81060000D01*
G75*
G02*
X30550000Y80990000I0J-70000D01*
G01*
G37*
G04 #@! TD*
G04 #@! TO.C,D3*
G36*
G01*
X19510000Y74400000D02*
X18490000Y74400000D01*
G75*
G02*
X18400000Y74490000I0J90000D01*
G01*
X18400000Y75210000D01*
G75*
G02*
X18490000Y75300000I90000J0D01*
G01*
X19510000Y75300000D01*
G75*
G02*
X19600000Y75210000I0J-90000D01*
G01*
X19600000Y74490000D01*
G75*
G02*
X19510000Y74400000I-90000J0D01*
G01*
G37*
G36*
G01*
X19510000Y77700000D02*
X18490000Y77700000D01*
G75*
G02*
X18400000Y77790000I0J90000D01*
G01*
X18400000Y78510000D01*
G75*
G02*
X18490000Y78600000I90000J0D01*
G01*
X19510000Y78600000D01*
G75*
G02*
X19600000Y78510000I0J-90000D01*
G01*
X19600000Y77790000D01*
G75*
G02*
X19510000Y77700000I-90000J0D01*
G01*
G37*
G04 #@! TD*
G04 #@! TO.C,R38*
G36*
G01*
X96799999Y89175000D02*
X96799999Y90425000D01*
G75*
G02*
X96899999Y90525000I100000J0D01*
G01*
X97699999Y90525000D01*
G75*
G02*
X97799999Y90425000I0J-100000D01*
G01*
X97799999Y89175000D01*
G75*
G02*
X97699999Y89075000I-100000J0D01*
G01*
X96899999Y89075000D01*
G75*
G02*
X96799999Y89175000I0J100000D01*
G01*
G37*
G36*
G01*
X98700021Y89175000D02*
X98700021Y90425000D01*
G75*
G02*
X98800021Y90525000I100000J0D01*
G01*
X99600021Y90525000D01*
G75*
G02*
X99700021Y90425000I0J-100000D01*
G01*
X99700021Y89175000D01*
G75*
G02*
X99600021Y89075000I-100000J0D01*
G01*
X98800021Y89075000D01*
G75*
G02*
X98700021Y89175000I0J100000D01*
G01*
G37*
G04 #@! TD*
G04 #@! TO.C,R36*
G36*
G01*
X93349999Y86675000D02*
X93349999Y87925000D01*
G75*
G02*
X93449999Y88025000I100000J0D01*
G01*
X94249999Y88025000D01*
G75*
G02*
X94349999Y87925000I0J-100000D01*
G01*
X94349999Y86675000D01*
G75*
G02*
X94249999Y86575000I-100000J0D01*
G01*
X93449999Y86575000D01*
G75*
G02*
X93349999Y86675000I0J100000D01*
G01*
G37*
G36*
G01*
X95250021Y86675000D02*
X95250021Y87925000D01*
G75*
G02*
X95350021Y88025000I100000J0D01*
G01*
X96150021Y88025000D01*
G75*
G02*
X96250021Y87925000I0J-100000D01*
G01*
X96250021Y86675000D01*
G75*
G02*
X96150021Y86575000I-100000J0D01*
G01*
X95350021Y86575000D01*
G75*
G02*
X95250021Y86675000I0J100000D01*
G01*
G37*
G04 #@! TD*
D29*
G04 #@! TO.C,U1*
X4200000Y20000000D03*
X4200000Y19000000D03*
X4200000Y18000000D03*
X4200000Y17000000D03*
X4200000Y16000000D03*
X4200000Y15000000D03*
X13800000Y15000000D03*
X13800000Y16000000D03*
X13800000Y17000000D03*
X13800000Y18000000D03*
X13800000Y19000000D03*
X13800000Y20000000D03*
D30*
X9000000Y17500000D03*
G04 #@! TD*
D29*
G04 #@! TO.C,U2*
X11050000Y10950000D03*
X11050000Y9950000D03*
X11050000Y8950000D03*
X11050000Y7950000D03*
X11050000Y6950000D03*
X11050000Y5950000D03*
X20650000Y5950000D03*
X20650000Y6950000D03*
X20650000Y7950000D03*
X20650000Y8950000D03*
X20650000Y9950000D03*
X20650000Y10950000D03*
D30*
X15850000Y8450000D03*
G04 #@! TD*
D11*
G04 #@! TO.C,J24*
X89265000Y78350000D03*
D12*
X86725000Y78350000D03*
X89265000Y75810000D03*
X86725000Y75810000D03*
G04 #@! TD*
D13*
G04 #@! TO.C,J4*
X1975000Y25800000D03*
X1975000Y38400000D03*
G36*
G01*
X10874999Y24450000D02*
X7675001Y24450000D01*
G75*
G02*
X7425000Y24700001I0J250001D01*
G01*
X7425000Y26899999D01*
G75*
G02*
X7675001Y27150000I250001J0D01*
G01*
X10874999Y27150000D01*
G75*
G02*
X11125000Y26899999I0J-250001D01*
G01*
X11125000Y24700001D01*
G75*
G02*
X10874999Y24450000I-250001J0D01*
G01*
G37*
D27*
X9275000Y30000000D03*
X9275000Y34200000D03*
X9275000Y38400000D03*
X14775000Y25800000D03*
X14775000Y30000000D03*
X14775000Y34200000D03*
X14775000Y38400000D03*
G04 #@! TD*
D15*
G04 #@! TO.C,P7*
X83200000Y24000000D03*
G04 #@! TD*
G04 #@! TO.C,R49*
G36*
G01*
X29810000Y79500000D02*
X30590000Y79500000D01*
G75*
G02*
X30660000Y79430000I0J-70000D01*
G01*
X30660000Y78870000D01*
G75*
G02*
X30590000Y78800000I-70000J0D01*
G01*
X29810000Y78800000D01*
G75*
G02*
X29740000Y78870000I0J70000D01*
G01*
X29740000Y79430000D01*
G75*
G02*
X29810000Y79500000I70000J0D01*
G01*
G37*
G36*
G01*
X29810000Y77900000D02*
X30590000Y77900000D01*
G75*
G02*
X30660000Y77830000I0J-70000D01*
G01*
X30660000Y77270000D01*
G75*
G02*
X30590000Y77200000I-70000J0D01*
G01*
X29810000Y77200000D01*
G75*
G02*
X29740000Y77270000I0J70000D01*
G01*
X29740000Y77830000D01*
G75*
G02*
X29810000Y77900000I70000J0D01*
G01*
G37*
G04 #@! TD*
G04 #@! TO.C,Q11*
G36*
G01*
X28800000Y32570000D02*
X28800000Y31870000D01*
G75*
G02*
X28550000Y31620000I-250000J0D01*
G01*
X26850000Y31620000D01*
G75*
G02*
X26600000Y31870000I0J250000D01*
G01*
X26600000Y32570000D01*
G75*
G02*
X26850000Y32820000I250000J0D01*
G01*
X28550000Y32820000D01*
G75*
G02*
X28800000Y32570000I0J-250000D01*
G01*
G37*
G36*
G01*
X24600000Y37150003D02*
X24600000Y31849997D01*
G75*
G02*
X24350003Y31600000I-249997J0D01*
G01*
X18449997Y31600000D01*
G75*
G02*
X18200000Y31849997I0J249997D01*
G01*
X18200000Y37150003D01*
G75*
G02*
X18449997Y37400000I249997J0D01*
G01*
X24350003Y37400000D01*
G75*
G02*
X24600000Y37150003I0J-249997D01*
G01*
G37*
G36*
G01*
X28800000Y37130000D02*
X28800000Y36430000D01*
G75*
G02*
X28550000Y36180000I-250000J0D01*
G01*
X26850000Y36180000D01*
G75*
G02*
X26600000Y36430000I0J250000D01*
G01*
X26600000Y37130000D01*
G75*
G02*
X26850000Y37380000I250000J0D01*
G01*
X28550000Y37380000D01*
G75*
G02*
X28800000Y37130000I0J-250000D01*
G01*
G37*
G04 #@! TD*
D11*
G04 #@! TO.C,J13*
X63690000Y89225000D03*
D12*
X61150000Y89225000D03*
X63690000Y86685000D03*
X61150000Y86685000D03*
G04 #@! TD*
D31*
G04 #@! TO.C,J9*
X47110000Y6605000D03*
X52890000Y6605000D03*
D32*
X46650000Y7670000D03*
X47450000Y7670000D03*
X48750000Y7670000D03*
X49750000Y7670000D03*
X50250000Y7670000D03*
X51250000Y7670000D03*
X52550000Y7670000D03*
X53350000Y7670000D03*
X53050000Y7670000D03*
X52250000Y7670000D03*
X51750000Y7670000D03*
X50750000Y7670000D03*
X49250000Y7670000D03*
X48250000Y7670000D03*
X47750000Y7670000D03*
X46950000Y7670000D03*
D33*
X45680000Y7105000D03*
D34*
X45680000Y2925000D03*
D33*
X54320000Y7105000D03*
D34*
X54320000Y2925000D03*
G04 #@! TD*
D16*
G04 #@! TO.C,H3*
X94100000Y3500000D03*
X94802944Y5197056D03*
X94802944Y1802944D03*
X96500000Y5900000D03*
D17*
X96500000Y3500000D03*
D16*
X96500000Y1100000D03*
X98197056Y5197056D03*
X98197056Y1802944D03*
X98900000Y3500000D03*
G04 #@! TD*
G04 #@! TO.C,R48*
G36*
G01*
X27450000Y72810000D02*
X27450000Y73590000D01*
G75*
G02*
X27520000Y73660000I70000J0D01*
G01*
X28080000Y73660000D01*
G75*
G02*
X28150000Y73590000I0J-70000D01*
G01*
X28150000Y72810000D01*
G75*
G02*
X28080000Y72740000I-70000J0D01*
G01*
X27520000Y72740000D01*
G75*
G02*
X27450000Y72810000I0J70000D01*
G01*
G37*
G36*
G01*
X29050000Y72810000D02*
X29050000Y73590000D01*
G75*
G02*
X29120000Y73660000I70000J0D01*
G01*
X29680000Y73660000D01*
G75*
G02*
X29750000Y73590000I0J-70000D01*
G01*
X29750000Y72810000D01*
G75*
G02*
X29680000Y72740000I-70000J0D01*
G01*
X29120000Y72740000D01*
G75*
G02*
X29050000Y72810000I0J70000D01*
G01*
G37*
G04 #@! TD*
D19*
G04 #@! TO.C,M4*
X38125000Y62675000D03*
X36925000Y62675000D03*
X39325000Y62675000D03*
X40525000Y62675000D03*
X34065000Y77100000D03*
X33065000Y77100000D03*
G04 #@! TD*
D11*
G04 #@! TO.C,J14*
X13990000Y89225000D03*
D12*
X11450000Y89225000D03*
X13990000Y86685000D03*
X11450000Y86685000D03*
G04 #@! TD*
D11*
G04 #@! TO.C,J18*
X13315000Y77950000D03*
D12*
X10775000Y77950000D03*
X13315000Y75410000D03*
X10775000Y75410000D03*
G04 #@! TD*
G04 #@! TO.C,F2*
G36*
G01*
X18800000Y21975001D02*
X18800000Y23224999D01*
G75*
G02*
X19050001Y23475000I250001J0D01*
G01*
X19974999Y23475000D01*
G75*
G02*
X20225000Y23224999I0J-250001D01*
G01*
X20225000Y21975001D01*
G75*
G02*
X19974999Y21725000I-250001J0D01*
G01*
X19050001Y21725000D01*
G75*
G02*
X18800000Y21975001I0J250001D01*
G01*
G37*
G36*
G01*
X21775000Y21975001D02*
X21775000Y23224999D01*
G75*
G02*
X22025001Y23475000I250001J0D01*
G01*
X22949999Y23475000D01*
G75*
G02*
X23200000Y23224999I0J-250001D01*
G01*
X23200000Y21975001D01*
G75*
G02*
X22949999Y21725000I-250001J0D01*
G01*
X22025001Y21725000D01*
G75*
G02*
X21775000Y21975001I0J250001D01*
G01*
G37*
G04 #@! TD*
D11*
G04 #@! TO.C,J15*
X22390000Y89225000D03*
D12*
X19850000Y89225000D03*
X22390000Y86685000D03*
X19850000Y86685000D03*
G04 #@! TD*
G04 #@! TO.C,D5*
G36*
G01*
X19510000Y66900000D02*
X18490000Y66900000D01*
G75*
G02*
X18400000Y66990000I0J90000D01*
G01*
X18400000Y67710000D01*
G75*
G02*
X18490000Y67800000I90000J0D01*
G01*
X19510000Y67800000D01*
G75*
G02*
X19600000Y67710000I0J-90000D01*
G01*
X19600000Y66990000D01*
G75*
G02*
X19510000Y66900000I-90000J0D01*
G01*
G37*
G36*
G01*
X19510000Y70200000D02*
X18490000Y70200000D01*
G75*
G02*
X18400000Y70290000I0J90000D01*
G01*
X18400000Y71010000D01*
G75*
G02*
X18490000Y71100000I90000J0D01*
G01*
X19510000Y71100000D01*
G75*
G02*
X19600000Y71010000I0J-90000D01*
G01*
X19600000Y70290000D01*
G75*
G02*
X19510000Y70200000I-90000J0D01*
G01*
G37*
G04 #@! TD*
D11*
G04 #@! TO.C,J6*
X98175000Y39175000D03*
D12*
X95635000Y39175000D03*
X93095000Y39175000D03*
X90555000Y39175000D03*
X88015000Y39175000D03*
X85475000Y39175000D03*
G04 #@! TD*
D11*
G04 #@! TO.C,J19*
X13315000Y69550000D03*
D12*
X10775000Y69550000D03*
X13315000Y67010000D03*
X10775000Y67010000D03*
G04 #@! TD*
D11*
G04 #@! TO.C,J22*
X13315000Y37550000D03*
D12*
X10775000Y37550000D03*
X13315000Y35010000D03*
X10775000Y35010000D03*
G04 #@! TD*
G04 #@! TO.C,R14*
G36*
G01*
X23210000Y9550000D02*
X23990000Y9550000D01*
G75*
G02*
X24060000Y9480000I0J-70000D01*
G01*
X24060000Y8920000D01*
G75*
G02*
X23990000Y8850000I-70000J0D01*
G01*
X23210000Y8850000D01*
G75*
G02*
X23140000Y8920000I0J70000D01*
G01*
X23140000Y9480000D01*
G75*
G02*
X23210000Y9550000I70000J0D01*
G01*
G37*
G36*
G01*
X23210000Y7950000D02*
X23990000Y7950000D01*
G75*
G02*
X24060000Y7880000I0J-70000D01*
G01*
X24060000Y7320000D01*
G75*
G02*
X23990000Y7250000I-70000J0D01*
G01*
X23210000Y7250000D01*
G75*
G02*
X23140000Y7320000I0J70000D01*
G01*
X23140000Y7880000D01*
G75*
G02*
X23210000Y7950000I70000J0D01*
G01*
G37*
G04 #@! TD*
D11*
G04 #@! TO.C,J12*
X72090000Y89225000D03*
D12*
X69550000Y89225000D03*
X72090000Y86685000D03*
X69550000Y86685000D03*
G04 #@! TD*
D35*
G04 #@! TO.C,U3*
X72203250Y75430000D03*
X72203250Y52570000D03*
D36*
X70323250Y68942500D03*
X70323250Y59100000D03*
X69053250Y59100000D03*
X67783250Y59100000D03*
X66513250Y59100000D03*
D37*
X59503250Y70350000D03*
D36*
X66513250Y68942500D03*
X67783250Y68942500D03*
D37*
X59503250Y67810000D03*
D36*
X69053250Y68942500D03*
D37*
X59503250Y65270000D03*
X59503250Y62730000D03*
X59503250Y60190000D03*
X59503250Y57650000D03*
G04 #@! TD*
D15*
G04 #@! TO.C,P16*
X8080000Y11500000D03*
G04 #@! TD*
G04 #@! TO.C,C12*
G36*
G01*
X1940000Y12984999D02*
X1260000Y12984999D01*
G75*
G02*
X1175000Y13069999I0J85000D01*
G01*
X1175000Y13749999D01*
G75*
G02*
X1260000Y13834999I85000J0D01*
G01*
X1940000Y13834999D01*
G75*
G02*
X2025000Y13749999I0J-85000D01*
G01*
X2025000Y13069999D01*
G75*
G02*
X1940000Y12984999I-85000J0D01*
G01*
G37*
G36*
G01*
X1940000Y14565001D02*
X1260000Y14565001D01*
G75*
G02*
X1175000Y14650001I0J85000D01*
G01*
X1175000Y15330001D01*
G75*
G02*
X1260000Y15415001I85000J0D01*
G01*
X1940000Y15415001D01*
G75*
G02*
X2025000Y15330001I0J-85000D01*
G01*
X2025000Y14650001D01*
G75*
G02*
X1940000Y14565001I-85000J0D01*
G01*
G37*
G04 #@! TD*
G04 #@! TO.C,G4*
X47120000Y49960000D03*
X47120000Y52500000D03*
X47120000Y55040000D03*
X47120000Y57580000D03*
X47120000Y60120000D03*
X49660000Y49960000D03*
X49660000Y52500000D03*
X49660000Y55040000D03*
X49660000Y57580000D03*
X49660000Y60120000D03*
X52200000Y49960000D03*
X52200000Y52500000D03*
X52200000Y55040000D03*
X52200000Y57580000D03*
X52200000Y60120000D03*
G04 #@! TD*
D23*
G04 #@! TO.C,BT1*
X92050000Y23250142D03*
X92050000Y30750000D03*
G04 #@! TD*
M02*
