G04 #@! TF.GenerationSoftware,KiCad,Pcbnew,7.0.9-7.0.9~ubuntu22.04.1*
G04 #@! TF.CreationDate,2023-11-29T19:51:35+00:00*
G04 #@! TF.ProjectId,uaefi,75616566-692e-46b6-9963-61645f706362,rev?*
G04 #@! TF.SameCoordinates,Original*
G04 #@! TF.FileFunction,Soldermask,Bot*
G04 #@! TF.FilePolarity,Negative*
%FSLAX46Y46*%
G04 Gerber Fmt 4.6, Leading zero omitted, Abs format (unit mm)*
G04 Created by KiCad (PCBNEW 7.0.9-7.0.9~ubuntu22.04.1) date 2023-11-29 19:51:35*
%MOMM*%
%LPD*%
G01*
G04 APERTURE LIST*
%ADD10C,0.800000*%
%ADD11C,6.400000*%
%ADD12C,3.000000*%
%ADD13O,2.700000X3.700000*%
%ADD14C,1.700000*%
%ADD15C,1.524000*%
%ADD16C,1.500000*%
%ADD17R,1.700000X1.700000*%
%ADD18O,1.700000X1.700000*%
%ADD19C,0.600000*%
%ADD20C,0.650000*%
%ADD21O,1.000000X2.100000*%
%ADD22O,1.000000X1.600000*%
%ADD23C,3.302000*%
%ADD24O,1.700000X1.850000*%
%ADD25R,1.100000X1.100000*%
%ADD26C,1.100000*%
%ADD27O,1.100000X2.400000*%
G04 APERTURE END LIST*
D10*
G04 #@! TO.C,H4*
X194150000Y76400000D03*
X194852944Y78097056D03*
X194852944Y74702944D03*
X196550000Y78800000D03*
D11*
X196550000Y76400000D03*
D10*
X196550000Y74000000D03*
X198247056Y78097056D03*
X198247056Y74702944D03*
X198950000Y76400000D03*
G04 #@! TD*
D12*
G04 #@! TO.C,J5*
X115800000Y50000000D03*
X153600000Y50000000D03*
G36*
G01*
X114450000Y41100001D02*
X114450000Y44299999D01*
G75*
G02*
X114700001Y44550000I250001J0D01*
G01*
X116899999Y44550000D01*
G75*
G02*
X117150000Y44299999I0J-250001D01*
G01*
X117150000Y41100001D01*
G75*
G02*
X116899999Y40850000I-250001J0D01*
G01*
X114700001Y40850000D01*
G75*
G02*
X114450000Y41100001I0J250001D01*
G01*
G37*
D13*
X120000000Y42700000D03*
X124200000Y42700000D03*
X128400000Y42700000D03*
X132600000Y42700000D03*
X136800000Y42700000D03*
X141000000Y42700000D03*
X145200000Y42700000D03*
X149400000Y42700000D03*
X153600000Y42700000D03*
X115800000Y37200000D03*
X120000000Y37200000D03*
X124200000Y37200000D03*
X128400000Y37200000D03*
X132600000Y37200000D03*
X136800000Y37200000D03*
X141000000Y37200000D03*
X145200000Y37200000D03*
X149400000Y37200000D03*
X153600000Y37200000D03*
G04 #@! TD*
D14*
G04 #@! TO.C,G3*
X190601000Y65399000D03*
X193141000Y65399000D03*
X195681000Y65399000D03*
X198221000Y65399000D03*
X200761000Y65399000D03*
X190601000Y62859000D03*
X193141000Y62859000D03*
X195681000Y62859000D03*
X198221000Y62859000D03*
X200761000Y62859000D03*
X190601000Y60319000D03*
X193141000Y60319000D03*
X195681000Y60319000D03*
X198221000Y60319000D03*
X200761000Y60319000D03*
G04 #@! TD*
D15*
G04 #@! TO.C,F2*
X134835000Y29645000D03*
X139735000Y29645000D03*
G04 #@! TD*
D16*
G04 #@! TO.C,BT1*
X118875089Y26504737D03*
X126374947Y26504737D03*
G04 #@! TD*
D17*
G04 #@! TO.C,J6*
X194350000Y41350000D03*
D18*
X194350000Y38810000D03*
X194350000Y36270000D03*
X194350000Y33730000D03*
X194350000Y31190000D03*
X194350000Y28650000D03*
G04 #@! TD*
D15*
G04 #@! TO.C,F1*
X134835000Y32765000D03*
X139735000Y32765000D03*
G04 #@! TD*
D19*
G04 #@! TO.C,M2*
X130515000Y17544997D03*
X130515000Y16594997D03*
X130515000Y15644999D03*
X121815000Y16644997D03*
X121815000Y17544997D03*
G04 #@! TD*
G04 #@! TO.C,M4*
X172875000Y29225000D03*
X172875000Y28025000D03*
X172875000Y30425000D03*
X172875000Y31625000D03*
X158450000Y25165000D03*
X158450000Y24165000D03*
G04 #@! TD*
D10*
G04 #@! TO.C,H1*
X194150000Y100250000D03*
X194852944Y101947056D03*
X194852944Y98552944D03*
X196550000Y102650000D03*
D11*
X196550000Y100250000D03*
D10*
X196550000Y97850000D03*
X198247056Y101947056D03*
X198247056Y98552944D03*
X198950000Y100250000D03*
G04 #@! TD*
D12*
G04 #@! TO.C,J2*
X115800000Y73300000D03*
X153600000Y73300000D03*
G36*
G01*
X114450000Y64400001D02*
X114450000Y67599999D01*
G75*
G02*
X114700001Y67850000I250001J0D01*
G01*
X116899999Y67850000D01*
G75*
G02*
X117150000Y67599999I0J-250001D01*
G01*
X117150000Y64400001D01*
G75*
G02*
X116899999Y64150000I-250001J0D01*
G01*
X114700001Y64150000D01*
G75*
G02*
X114450000Y64400001I0J250001D01*
G01*
G37*
D13*
X120000000Y66000000D03*
X124200000Y66000000D03*
X128400000Y66000000D03*
X132600000Y66000000D03*
X136800000Y66000000D03*
X141000000Y66000000D03*
X145200000Y66000000D03*
X149400000Y66000000D03*
X153600000Y66000000D03*
X115800000Y60500000D03*
X120000000Y60500000D03*
X124200000Y60500000D03*
X128400000Y60500000D03*
X132600000Y60500000D03*
X136800000Y60500000D03*
X141000000Y60500000D03*
X145200000Y60500000D03*
X149400000Y60500000D03*
X153600000Y60500000D03*
G04 #@! TD*
D15*
G04 #@! TO.C,F3*
X134835000Y26525000D03*
X139735000Y26525000D03*
G04 #@! TD*
D10*
G04 #@! TO.C,H3*
X194150000Y84350000D03*
X194852944Y86047056D03*
X194852944Y82652944D03*
X196550000Y86750000D03*
D11*
X196550000Y84350000D03*
D10*
X196550000Y81950000D03*
X198247056Y86047056D03*
X198247056Y82652944D03*
X198950000Y84350000D03*
G04 #@! TD*
D15*
G04 #@! TO.C,R6*
X193450391Y16248827D03*
X197260391Y16248827D03*
G04 #@! TD*
G04 #@! TO.C,R5*
X193450391Y19099609D03*
X197260391Y19099609D03*
G04 #@! TD*
D12*
G04 #@! TO.C,J1*
X115800000Y96600000D03*
X153600000Y96600000D03*
G36*
G01*
X114450000Y87700001D02*
X114450000Y90899999D01*
G75*
G02*
X114700001Y91150000I250001J0D01*
G01*
X116899999Y91150000D01*
G75*
G02*
X117150000Y90899999I0J-250001D01*
G01*
X117150000Y87700001D01*
G75*
G02*
X116899999Y87450000I-250001J0D01*
G01*
X114700001Y87450000D01*
G75*
G02*
X114450000Y87700001I0J250001D01*
G01*
G37*
D13*
X120000000Y89300000D03*
X124200000Y89300000D03*
X128400000Y89300000D03*
X132600000Y89300000D03*
X136800000Y89300000D03*
X141000000Y89300000D03*
X145200000Y89300000D03*
X149400000Y89300000D03*
X153600000Y89300000D03*
X115800000Y83800000D03*
X120000000Y83800000D03*
X124200000Y83800000D03*
X128400000Y83800000D03*
X132600000Y83800000D03*
X136800000Y83800000D03*
X141000000Y83800000D03*
X145200000Y83800000D03*
X149400000Y83800000D03*
X153600000Y83800000D03*
G04 #@! TD*
D15*
G04 #@! TO.C,F4*
X134835000Y23405000D03*
X139735000Y23405000D03*
G04 #@! TD*
D10*
G04 #@! TO.C,H2*
X194150000Y92300000D03*
X194852944Y93997056D03*
X194852944Y90602944D03*
X196550000Y94700000D03*
D11*
X196550000Y92300000D03*
D10*
X196550000Y89900000D03*
X198247056Y93997056D03*
X198247056Y90602944D03*
X198950000Y92300000D03*
G04 #@! TD*
D20*
G04 #@! TO.C,J9*
X144250000Y20605000D03*
X150030000Y20605000D03*
D21*
X142820000Y21105000D03*
D22*
X142820000Y16925000D03*
D21*
X151460000Y21105000D03*
D22*
X151460000Y16925000D03*
G04 #@! TD*
D23*
G04 #@! TO.C,U3*
X115305500Y-1460500D03*
X138165500Y-1460500D03*
D15*
X120385500Y-14160500D03*
X122925500Y-14160500D03*
X125465500Y-14160500D03*
X128005500Y-14160500D03*
X130545500Y-14160500D03*
X133085500Y-14160500D03*
G04 #@! TD*
D12*
G04 #@! TO.C,J3*
X161050000Y59350000D03*
X169450000Y59350000D03*
G36*
G01*
X159700000Y50450001D02*
X159700000Y53649999D01*
G75*
G02*
X159950001Y53900000I250001J0D01*
G01*
X162149999Y53900000D01*
G75*
G02*
X162400000Y53649999I0J-250001D01*
G01*
X162400000Y50450001D01*
G75*
G02*
X162149999Y50200000I-250001J0D01*
G01*
X159950001Y50200000D01*
G75*
G02*
X159700000Y50450001I0J250001D01*
G01*
G37*
D13*
X165250000Y52050000D03*
X169450000Y52050000D03*
X161050000Y46550000D03*
X165250000Y46550000D03*
X169450000Y46550000D03*
G04 #@! TD*
D12*
G04 #@! TO.C,J4*
X176900000Y59350000D03*
X185300000Y59350000D03*
G36*
G01*
X175550000Y50450001D02*
X175550000Y53649999D01*
G75*
G02*
X175800001Y53900000I250001J0D01*
G01*
X177999999Y53900000D01*
G75*
G02*
X178250000Y53649999I0J-250001D01*
G01*
X178250000Y50450001D01*
G75*
G02*
X177999999Y50200000I-250001J0D01*
G01*
X175800001Y50200000D01*
G75*
G02*
X175550000Y50450001I0J250001D01*
G01*
G37*
D13*
X181100000Y52050000D03*
X185300000Y52050000D03*
X176900000Y46550000D03*
X181100000Y46550000D03*
X185300000Y46550000D03*
G04 #@! TD*
G04 #@! TO.C,J7*
G36*
G01*
X176400000Y16825000D02*
X176400000Y18175000D01*
G75*
G02*
X176650000Y18425000I250000J0D01*
G01*
X177850000Y18425000D01*
G75*
G02*
X178100000Y18175000I0J-250000D01*
G01*
X178100000Y16825000D01*
G75*
G02*
X177850000Y16575000I-250000J0D01*
G01*
X176650000Y16575000D01*
G75*
G02*
X176400000Y16825000I0J250000D01*
G01*
G37*
D24*
X179750000Y17500000D03*
X182250000Y17500000D03*
X184750000Y17500000D03*
X187250000Y17500000D03*
G04 #@! TD*
D19*
G04 #@! TO.C,M3*
X172875000Y40275000D03*
X172875000Y39075000D03*
X172875000Y41475000D03*
X172875000Y42675000D03*
X158450000Y36215000D03*
X158450000Y35215000D03*
G04 #@! TD*
D16*
G04 #@! TO.C,M1*
X190774996Y41974998D03*
X190774996Y35575001D03*
X190774996Y33674998D03*
X190774996Y29374998D03*
D19*
X191224995Y26975001D03*
X191224995Y25975000D03*
D16*
X190774996Y23124998D03*
X175274999Y42425000D03*
X175274999Y40575001D03*
X175274999Y35624998D03*
X175274999Y23575000D03*
G04 #@! TD*
D14*
G04 #@! TO.C,G4*
X190601000Y57167000D03*
X193141000Y57167000D03*
X195681000Y57167000D03*
X198221000Y57167000D03*
X200761000Y57167000D03*
X190601000Y54627000D03*
X193141000Y54627000D03*
X195681000Y54627000D03*
X198221000Y54627000D03*
X200761000Y54627000D03*
X190601000Y52087000D03*
X193141000Y52087000D03*
X195681000Y52087000D03*
X198221000Y52087000D03*
X200761000Y52087000D03*
G04 #@! TD*
D25*
G04 #@! TO.C,J8*
X195350000Y22600000D03*
D26*
X196150000Y24350000D03*
X196950000Y22600000D03*
X197750000Y24350000D03*
X198550000Y22600000D03*
D27*
X193300000Y23475000D03*
X200600000Y23475000D03*
G04 #@! TD*
M02*
