G04 #@! TF.GenerationSoftware,KiCad,Pcbnew,7.0.9-7.0.9~ubuntu22.04.1*
G04 #@! TF.CreationDate,2023-11-30T13:55:00+00:00*
G04 #@! TF.ProjectId,uaefi,75616566-692e-46b6-9963-61645f706362,rev?*
G04 #@! TF.SameCoordinates,Original*
G04 #@! TF.FileFunction,Copper,L1,Top*
G04 #@! TF.FilePolarity,Positive*
%FSLAX46Y46*%
G04 Gerber Fmt 4.6, Leading zero omitted, Abs format (unit mm)*
G04 Created by KiCad (PCBNEW 7.0.9-7.0.9~ubuntu22.04.1) date 2023-11-30 13:55:00*
%MOMM*%
%LPD*%
G01*
G04 APERTURE LIST*
G04 #@! TA.AperFunction,EtchedComponent*
%ADD10C,0.200000*%
G04 #@! TD*
G04 #@! TA.AperFunction,SMDPad,CuDef*
%ADD11R,2.000000X0.650000*%
G04 #@! TD*
G04 #@! TA.AperFunction,SMDPad,CuDef*
%ADD12R,4.500000X8.100000*%
G04 #@! TD*
G04 #@! TA.AperFunction,SMDPad,CuDef*
%ADD13R,2.000000X1.500000*%
G04 #@! TD*
G04 #@! TA.AperFunction,SMDPad,CuDef*
%ADD14R,2.000000X3.800000*%
G04 #@! TD*
G04 #@! TA.AperFunction,ComponentPad*
%ADD15C,0.800000*%
G04 #@! TD*
G04 #@! TA.AperFunction,ComponentPad*
%ADD16C,6.400000*%
G04 #@! TD*
G04 #@! TA.AperFunction,ComponentPad*
%ADD17O,2.700000X3.700000*%
G04 #@! TD*
G04 #@! TA.AperFunction,ComponentPad*
%ADD18C,1.700000*%
G04 #@! TD*
G04 #@! TA.AperFunction,ComponentPad*
%ADD19C,1.524000*%
G04 #@! TD*
G04 #@! TA.AperFunction,SMDPad,CuDef*
%ADD20R,4.399991X2.299995*%
G04 #@! TD*
G04 #@! TA.AperFunction,SMDPad,CuDef*
%ADD21R,3.999992X2.299995*%
G04 #@! TD*
G04 #@! TA.AperFunction,ComponentPad*
%ADD22R,1.700000X1.700000*%
G04 #@! TD*
G04 #@! TA.AperFunction,ComponentPad*
%ADD23O,1.700000X1.700000*%
G04 #@! TD*
G04 #@! TA.AperFunction,ComponentPad*
%ADD24C,0.600000*%
G04 #@! TD*
G04 #@! TA.AperFunction,SMDPad,CuDef*
%ADD25O,0.200000X1.225000*%
G04 #@! TD*
G04 #@! TA.AperFunction,SMDPad,CuDef*
%ADD26O,9.300000X0.200000*%
G04 #@! TD*
G04 #@! TA.AperFunction,SMDPad,CuDef*
%ADD27R,0.250000X6.185000*%
G04 #@! TD*
G04 #@! TA.AperFunction,SMDPad,CuDef*
%ADD28R,0.250000X1.115000*%
G04 #@! TD*
G04 #@! TA.AperFunction,SMDPad,CuDef*
%ADD29R,14.275000X0.250000*%
G04 #@! TD*
G04 #@! TA.AperFunction,SMDPad,CuDef*
%ADD30R,15.100000X0.250000*%
G04 #@! TD*
G04 #@! TA.AperFunction,SMDPad,CuDef*
%ADD31R,0.250000X5.175000*%
G04 #@! TD*
G04 #@! TA.AperFunction,SMDPad,CuDef*
%ADD32R,0.200000X3.700000*%
G04 #@! TD*
G04 #@! TA.AperFunction,SMDPad,CuDef*
%ADD33R,0.200000X0.400000*%
G04 #@! TD*
G04 #@! TA.AperFunction,SMDPad,CuDef*
%ADD34R,0.200000X1.600000*%
G04 #@! TD*
G04 #@! TA.AperFunction,SMDPad,CuDef*
%ADD35R,0.200000X9.700000*%
G04 #@! TD*
G04 #@! TA.AperFunction,SMDPad,CuDef*
%ADD36R,0.200000X2.300000*%
G04 #@! TD*
G04 #@! TA.AperFunction,SMDPad,CuDef*
%ADD37R,1.400000X0.200000*%
G04 #@! TD*
G04 #@! TA.AperFunction,SMDPad,CuDef*
%ADD38R,6.400000X0.200000*%
G04 #@! TD*
G04 #@! TA.AperFunction,SMDPad,CuDef*
%ADD39R,1.700000X0.200000*%
G04 #@! TD*
G04 #@! TA.AperFunction,SMDPad,CuDef*
%ADD40R,3.300000X0.200000*%
G04 #@! TD*
G04 #@! TA.AperFunction,SMDPad,CuDef*
%ADD41R,0.200000X7.000000*%
G04 #@! TD*
G04 #@! TA.AperFunction,SMDPad,CuDef*
%ADD42R,0.200000X3.300000*%
G04 #@! TD*
G04 #@! TA.AperFunction,SMDPad,CuDef*
%ADD43R,0.200000X6.300000*%
G04 #@! TD*
G04 #@! TA.AperFunction,SMDPad,CuDef*
%ADD44R,0.300000X1.150000*%
G04 #@! TD*
G04 #@! TA.AperFunction,ComponentPad*
%ADD45O,1.000000X2.100000*%
G04 #@! TD*
G04 #@! TA.AperFunction,ComponentPad*
%ADD46O,1.000000X1.600000*%
G04 #@! TD*
G04 #@! TA.AperFunction,ComponentPad*
%ADD47C,3.302000*%
G04 #@! TD*
G04 #@! TA.AperFunction,SMDPad,CuDef*
%ADD48R,1.350000X0.690000*%
G04 #@! TD*
G04 #@! TA.AperFunction,ComponentPad*
%ADD49O,1.700000X1.850000*%
G04 #@! TD*
G04 #@! TA.AperFunction,ComponentPad*
%ADD50C,1.500000*%
G04 #@! TD*
G04 #@! TA.AperFunction,SMDPad,CuDef*
%ADD51O,0.200000X3.300000*%
G04 #@! TD*
G04 #@! TA.AperFunction,SMDPad,CuDef*
%ADD52O,0.200000X10.200000*%
G04 #@! TD*
G04 #@! TA.AperFunction,SMDPad,CuDef*
%ADD53O,0.200000X0.300000*%
G04 #@! TD*
G04 #@! TA.AperFunction,SMDPad,CuDef*
%ADD54O,17.000000X0.200000*%
G04 #@! TD*
G04 #@! TA.AperFunction,SMDPad,CuDef*
%ADD55O,15.400000X0.200000*%
G04 #@! TD*
G04 #@! TA.AperFunction,SMDPad,CuDef*
%ADD56O,0.200000X4.800000*%
G04 #@! TD*
G04 #@! TA.AperFunction,SMDPad,CuDef*
%ADD57O,0.200000X2.600000*%
G04 #@! TD*
G04 #@! TA.AperFunction,SMDPad,CuDef*
%ADD58O,0.200000X1.000000*%
G04 #@! TD*
G04 #@! TA.AperFunction,SMDPad,CuDef*
%ADD59O,0.200000X1.500000*%
G04 #@! TD*
G04 #@! TA.AperFunction,ComponentPad*
%ADD60R,1.100000X1.100000*%
G04 #@! TD*
G04 #@! TA.AperFunction,ComponentPad*
%ADD61C,1.100000*%
G04 #@! TD*
G04 #@! TA.AperFunction,ComponentPad*
%ADD62O,1.100000X2.400000*%
G04 #@! TD*
G04 APERTURE END LIST*
D10*
G04 #@! TO.C,G2*
X147041859Y29703998D02*
X147041859Y31203998D01*
X147041859Y29703998D02*
X148541859Y29703998D01*
X148541859Y29703998D02*
X148541859Y24703998D01*
X148541859Y24703998D02*
X151041859Y24703998D01*
X151041859Y32703998D02*
X149041859Y32703998D01*
X151041859Y24703998D02*
X151041859Y32703998D01*
X147041859Y31203998D02*
G75*
G03*
X149041858Y32703998I78399J1978801D01*
G01*
G04 #@! TD*
D11*
G04 #@! TO.P,U1,1,DIR*
G04 #@! TO.N,/DC1_DIR*
X149170000Y8970000D03*
G04 #@! TO.P,U1,2,VSO*
G04 #@! TO.N,+3.3V*
X149170000Y7970000D03*
G04 #@! TO.P,U1,3,SO*
G04 #@! TO.N,unconnected-(U1-SO-Pad3)*
X149170000Y6970000D03*
G04 #@! TO.P,U1,4,VS*
G04 #@! TO.N,/DC Driver 1/PWR*
X149170000Y5970000D03*
G04 #@! TO.P,U1,5,OUT1*
G04 #@! TO.N,/OUT_DC1-*
X149170000Y4970000D03*
G04 #@! TO.P,U1,6,GND*
G04 #@! TO.N,GND*
X149170000Y3970000D03*
G04 #@! TO.P,U1,7,OUT2*
G04 #@! TO.N,/OUT_DC1+*
X158770000Y3970000D03*
G04 #@! TO.P,U1,8,SI*
G04 #@! TO.N,GND*
X158770000Y4970000D03*
G04 #@! TO.P,U1,9,CSN*
X158770000Y5970000D03*
G04 #@! TO.P,U1,10,SCK*
X158770000Y6970000D03*
G04 #@! TO.P,U1,11,DIS*
G04 #@! TO.N,/DC1_DIS*
X158770000Y7970000D03*
G04 #@! TO.P,U1,12,PWM*
G04 #@! TO.N,/DC1_PWM*
X158770000Y8970000D03*
D12*
G04 #@! TO.P,U1,13,GND*
G04 #@! TO.N,GND*
X153970000Y6470000D03*
G04 #@! TD*
D13*
G04 #@! TO.P,Q16,1,G*
G04 #@! TO.N,/INJ4*
X206110000Y77650000D03*
G04 #@! TO.P,Q16,2,D*
G04 #@! TO.N,/OUT_INJ4*
X206110000Y75350000D03*
G04 #@! TO.P,Q16,3,S*
G04 #@! TO.N,GND*
X206110000Y73050000D03*
D14*
G04 #@! TO.P,Q16,4*
G04 #@! TO.N,N/C*
X212410000Y75350000D03*
G04 #@! TD*
D15*
G04 #@! TO.P,H4,1*
G04 #@! TO.N,N/C*
X194150000Y76400000D03*
X194852944Y78097056D03*
X194852944Y74702944D03*
X196550000Y78800000D03*
D16*
X196550000Y76400000D03*
D15*
X196550000Y74000000D03*
X198247056Y78097056D03*
X198247056Y74702944D03*
X198950000Y76400000D03*
G04 #@! TD*
G04 #@! TO.P,J5,1,Pin_1*
G04 #@! TO.N,GND*
G04 #@! TA.AperFunction,ComponentPad*
G36*
G01*
X114450000Y41100001D02*
X114450000Y44299999D01*
G75*
G02*
X114700001Y44550000I250001J0D01*
G01*
X116899999Y44550000D01*
G75*
G02*
X117150000Y44299999I0J-250001D01*
G01*
X117150000Y41100001D01*
G75*
G02*
X116899999Y40850000I-250001J0D01*
G01*
X114700001Y40850000D01*
G75*
G02*
X114450000Y41100001I0J250001D01*
G01*
G37*
G04 #@! TD.AperFunction*
D17*
G04 #@! TO.P,J5,2,Pin_2*
G04 #@! TO.N,/OUT_IGN6*
X120000000Y42700000D03*
G04 #@! TO.P,J5,3,Pin_3*
G04 #@! TO.N,/OUT_IGN5*
X124200000Y42700000D03*
G04 #@! TO.P,J5,4,Pin_4*
G04 #@! TO.N,/OUT_IGN4*
X128400000Y42700000D03*
G04 #@! TO.P,J5,5,Pin_5*
G04 #@! TO.N,/OUT_IGN3*
X132600000Y42700000D03*
G04 #@! TO.P,J5,6,Pin_6*
G04 #@! TO.N,/OUT_IGN2*
X136800000Y42700000D03*
G04 #@! TO.P,J5,7,Pin_7*
G04 #@! TO.N,/OUT_IGN1*
X141000000Y42700000D03*
G04 #@! TO.P,J5,8,Pin_8*
G04 #@! TO.N,/OUT_LS1*
X145200000Y42700000D03*
G04 #@! TO.P,J5,9,Pin_9*
G04 #@! TO.N,/OUT_LS_WEAK2*
X149400000Y42700000D03*
G04 #@! TO.P,J5,10,Pin_10*
G04 #@! TO.N,/OUT_LS_WEAK1*
X153600000Y42700000D03*
G04 #@! TO.P,J5,11,Pin_11*
G04 #@! TO.N,GND*
X115800000Y37200000D03*
G04 #@! TO.P,J5,12,Pin_12*
G04 #@! TO.N,/OUT_INJ6*
X120000000Y37200000D03*
G04 #@! TO.P,J5,13,Pin_13*
G04 #@! TO.N,/OUT_INJ5*
X124200000Y37200000D03*
G04 #@! TO.P,J5,14,Pin_14*
G04 #@! TO.N,/OUT_INJ4*
X128400000Y37200000D03*
G04 #@! TO.P,J5,15,Pin_15*
G04 #@! TO.N,/OUT_INJ3*
X132600000Y37200000D03*
G04 #@! TO.P,J5,16,Pin_16*
G04 #@! TO.N,/OUT_INJ2*
X136800000Y37200000D03*
G04 #@! TO.P,J5,17,Pin_17*
G04 #@! TO.N,/OUT_INJ1*
X141000000Y37200000D03*
G04 #@! TO.P,J5,18,Pin_18*
G04 #@! TO.N,/OUT_LS4*
X145200000Y37200000D03*
G04 #@! TO.P,J5,19,Pin_19*
G04 #@! TO.N,/OUT_LS3*
X149400000Y37200000D03*
G04 #@! TO.P,J5,20,Pin_20*
G04 #@! TO.N,/OUT_LS2*
X153600000Y37200000D03*
G04 #@! TD*
G04 #@! TO.P,C2,1*
G04 #@! TO.N,GND*
G04 #@! TA.AperFunction,SMDPad,CuDef*
G36*
G01*
X143895000Y7395000D02*
X143895000Y8445000D01*
G75*
G02*
X143995000Y8545000I100000J0D01*
G01*
X144795000Y8545000D01*
G75*
G02*
X144895000Y8445000I0J-100000D01*
G01*
X144895000Y7395000D01*
G75*
G02*
X144795000Y7295000I-100000J0D01*
G01*
X143995000Y7295000D01*
G75*
G02*
X143895000Y7395000I0J100000D01*
G01*
G37*
G04 #@! TD.AperFunction*
G04 #@! TO.P,C2,2*
G04 #@! TO.N,/DC Driver 1/PWR*
G04 #@! TA.AperFunction,SMDPad,CuDef*
G36*
G01*
X145895000Y7395000D02*
X145895000Y8445000D01*
G75*
G02*
X145995000Y8545000I100000J0D01*
G01*
X146795000Y8545000D01*
G75*
G02*
X146895000Y8445000I0J-100000D01*
G01*
X146895000Y7395000D01*
G75*
G02*
X146795000Y7295000I-100000J0D01*
G01*
X145995000Y7295000D01*
G75*
G02*
X145895000Y7395000I0J100000D01*
G01*
G37*
G04 #@! TD.AperFunction*
G04 #@! TD*
G04 #@! TO.P,C27,1*
G04 #@! TO.N,GND*
G04 #@! TA.AperFunction,SMDPad,CuDef*
G36*
G01*
X112575000Y-16704986D02*
X112575000Y-16024986D01*
G75*
G02*
X112660000Y-15939986I85000J0D01*
G01*
X113340000Y-15939986D01*
G75*
G02*
X113425000Y-16024986I0J-85000D01*
G01*
X113425000Y-16704986D01*
G75*
G02*
X113340000Y-16789986I-85000J0D01*
G01*
X112660000Y-16789986D01*
G75*
G02*
X112575000Y-16704986I0J85000D01*
G01*
G37*
G04 #@! TD.AperFunction*
G04 #@! TO.P,C27,2*
G04 #@! TO.N,+5VA*
G04 #@! TA.AperFunction,SMDPad,CuDef*
G36*
G01*
X114155002Y-16704986D02*
X114155002Y-16024986D01*
G75*
G02*
X114240002Y-15939986I85000J0D01*
G01*
X114920002Y-15939986D01*
G75*
G02*
X115005002Y-16024986I0J-85000D01*
G01*
X115005002Y-16704986D01*
G75*
G02*
X114920002Y-16789986I-85000J0D01*
G01*
X114240002Y-16789986D01*
G75*
G02*
X114155002Y-16704986I0J85000D01*
G01*
G37*
G04 #@! TD.AperFunction*
G04 #@! TD*
G04 #@! TO.P,C14,1*
G04 #@! TO.N,GND*
G04 #@! TA.AperFunction,SMDPad,CuDef*
G36*
G01*
X163045000Y9645000D02*
X163045000Y10695000D01*
G75*
G02*
X163145000Y10795000I100000J0D01*
G01*
X163945000Y10795000D01*
G75*
G02*
X164045000Y10695000I0J-100000D01*
G01*
X164045000Y9645000D01*
G75*
G02*
X163945000Y9545000I-100000J0D01*
G01*
X163145000Y9545000D01*
G75*
G02*
X163045000Y9645000I0J100000D01*
G01*
G37*
G04 #@! TD.AperFunction*
G04 #@! TO.P,C14,2*
G04 #@! TO.N,/DC Driver 2/PWR*
G04 #@! TA.AperFunction,SMDPad,CuDef*
G36*
G01*
X165045000Y9645000D02*
X165045000Y10695000D01*
G75*
G02*
X165145000Y10795000I100000J0D01*
G01*
X165945000Y10795000D01*
G75*
G02*
X166045000Y10695000I0J-100000D01*
G01*
X166045000Y9645000D01*
G75*
G02*
X165945000Y9545000I-100000J0D01*
G01*
X165145000Y9545000D01*
G75*
G02*
X165045000Y9645000I0J100000D01*
G01*
G37*
G04 #@! TD.AperFunction*
G04 #@! TD*
G04 #@! TO.P,C23,1*
G04 #@! TO.N,GND*
G04 #@! TA.AperFunction,SMDPad,CuDef*
G36*
G01*
X163045000Y-10605000D02*
X163045000Y-9555000D01*
G75*
G02*
X163145000Y-9455000I100000J0D01*
G01*
X163945000Y-9455000D01*
G75*
G02*
X164045000Y-9555000I0J-100000D01*
G01*
X164045000Y-10605000D01*
G75*
G02*
X163945000Y-10705000I-100000J0D01*
G01*
X163145000Y-10705000D01*
G75*
G02*
X163045000Y-10605000I0J100000D01*
G01*
G37*
G04 #@! TD.AperFunction*
G04 #@! TO.P,C23,2*
G04 #@! TO.N,/DC Driver 2/PWR*
G04 #@! TA.AperFunction,SMDPad,CuDef*
G36*
G01*
X165045000Y-10605000D02*
X165045000Y-9555000D01*
G75*
G02*
X165145000Y-9455000I100000J0D01*
G01*
X165945000Y-9455000D01*
G75*
G02*
X166045000Y-9555000I0J-100000D01*
G01*
X166045000Y-10605000D01*
G75*
G02*
X165945000Y-10705000I-100000J0D01*
G01*
X165145000Y-10705000D01*
G75*
G02*
X165045000Y-10605000I0J100000D01*
G01*
G37*
G04 #@! TD.AperFunction*
G04 #@! TD*
G04 #@! TO.P,R3,1*
G04 #@! TO.N,GND*
G04 #@! TA.AperFunction,SMDPad,CuDef*
G36*
G01*
X153485000Y18010313D02*
X153485000Y18790313D01*
G75*
G02*
X153555000Y18860313I70000J0D01*
G01*
X154115000Y18860313D01*
G75*
G02*
X154185000Y18790313I0J-70000D01*
G01*
X154185000Y18010313D01*
G75*
G02*
X154115000Y17940313I-70000J0D01*
G01*
X153555000Y17940313D01*
G75*
G02*
X153485000Y18010313I0J70000D01*
G01*
G37*
G04 #@! TD.AperFunction*
G04 #@! TO.P,R3,2*
G04 #@! TO.N,/IN_VMAIN*
G04 #@! TA.AperFunction,SMDPad,CuDef*
G36*
G01*
X155085000Y18010313D02*
X155085000Y18790313D01*
G75*
G02*
X155155000Y18860313I70000J0D01*
G01*
X155715000Y18860313D01*
G75*
G02*
X155785000Y18790313I0J-70000D01*
G01*
X155785000Y18010313D01*
G75*
G02*
X155715000Y17940313I-70000J0D01*
G01*
X155155000Y17940313D01*
G75*
G02*
X155085000Y18010313I0J70000D01*
G01*
G37*
G04 #@! TD.AperFunction*
G04 #@! TD*
G04 #@! TO.P,R12,1*
G04 #@! TO.N,GND*
G04 #@! TA.AperFunction,SMDPad,CuDef*
G36*
G01*
X229835000Y86480313D02*
X229835000Y87260313D01*
G75*
G02*
X229905000Y87330313I70000J0D01*
G01*
X230465000Y87330313D01*
G75*
G02*
X230535000Y87260313I0J-70000D01*
G01*
X230535000Y86480313D01*
G75*
G02*
X230465000Y86410313I-70000J0D01*
G01*
X229905000Y86410313D01*
G75*
G02*
X229835000Y86480313I0J70000D01*
G01*
G37*
G04 #@! TD.AperFunction*
G04 #@! TO.P,R12,2*
G04 #@! TO.N,/LS3*
G04 #@! TA.AperFunction,SMDPad,CuDef*
G36*
G01*
X231435000Y86480313D02*
X231435000Y87260313D01*
G75*
G02*
X231505000Y87330313I70000J0D01*
G01*
X232065000Y87330313D01*
G75*
G02*
X232135000Y87260313I0J-70000D01*
G01*
X232135000Y86480313D01*
G75*
G02*
X232065000Y86410313I-70000J0D01*
G01*
X231505000Y86410313D01*
G75*
G02*
X231435000Y86480313I0J70000D01*
G01*
G37*
G04 #@! TD.AperFunction*
G04 #@! TD*
G04 #@! TO.P,R8,1*
G04 #@! TO.N,GND*
G04 #@! TA.AperFunction,SMDPad,CuDef*
G36*
G01*
X153485000Y14112221D02*
X153485000Y14892221D01*
G75*
G02*
X153555000Y14962221I70000J0D01*
G01*
X154115000Y14962221D01*
G75*
G02*
X154185000Y14892221I0J-70000D01*
G01*
X154185000Y14112221D01*
G75*
G02*
X154115000Y14042221I-70000J0D01*
G01*
X153555000Y14042221D01*
G75*
G02*
X153485000Y14112221I0J70000D01*
G01*
G37*
G04 #@! TD.AperFunction*
G04 #@! TO.P,R8,2*
G04 #@! TO.N,Net-(J9-CC2)*
G04 #@! TA.AperFunction,SMDPad,CuDef*
G36*
G01*
X155085000Y14112221D02*
X155085000Y14892221D01*
G75*
G02*
X155155000Y14962221I70000J0D01*
G01*
X155715000Y14962221D01*
G75*
G02*
X155785000Y14892221I0J-70000D01*
G01*
X155785000Y14112221D01*
G75*
G02*
X155715000Y14042221I-70000J0D01*
G01*
X155155000Y14042221D01*
G75*
G02*
X155085000Y14112221I0J70000D01*
G01*
G37*
G04 #@! TD.AperFunction*
G04 #@! TD*
G04 #@! TO.P,C32,1*
G04 #@! TO.N,+3.3VA*
G04 #@! TA.AperFunction,SMDPad,CuDef*
G36*
G01*
X205010000Y-6610000D02*
X205010000Y-6270000D01*
G75*
G02*
X205150000Y-6130000I140000J0D01*
G01*
X205430000Y-6130000D01*
G75*
G02*
X205570000Y-6270000I0J-140000D01*
G01*
X205570000Y-6610000D01*
G75*
G02*
X205430000Y-6750000I-140000J0D01*
G01*
X205150000Y-6750000D01*
G75*
G02*
X205010000Y-6610000I0J140000D01*
G01*
G37*
G04 #@! TD.AperFunction*
G04 #@! TO.P,C32,2*
G04 #@! TO.N,GND*
G04 #@! TA.AperFunction,SMDPad,CuDef*
G36*
G01*
X205970000Y-6610000D02*
X205970000Y-6270000D01*
G75*
G02*
X206110000Y-6130000I140000J0D01*
G01*
X206390000Y-6130000D01*
G75*
G02*
X206530000Y-6270000I0J-140000D01*
G01*
X206530000Y-6610000D01*
G75*
G02*
X206390000Y-6750000I-140000J0D01*
G01*
X206110000Y-6750000D01*
G75*
G02*
X205970000Y-6610000I0J140000D01*
G01*
G37*
G04 #@! TD.AperFunction*
G04 #@! TD*
G04 #@! TO.P,C5,1*
G04 #@! TO.N,GND*
G04 #@! TA.AperFunction,SMDPad,CuDef*
G36*
G01*
X143895000Y645000D02*
X143895000Y1695000D01*
G75*
G02*
X143995000Y1795000I100000J0D01*
G01*
X144795000Y1795000D01*
G75*
G02*
X144895000Y1695000I0J-100000D01*
G01*
X144895000Y645000D01*
G75*
G02*
X144795000Y545000I-100000J0D01*
G01*
X143995000Y545000D01*
G75*
G02*
X143895000Y645000I0J100000D01*
G01*
G37*
G04 #@! TD.AperFunction*
G04 #@! TO.P,C5,2*
G04 #@! TO.N,/DC Driver 1/PWR*
G04 #@! TA.AperFunction,SMDPad,CuDef*
G36*
G01*
X145895000Y645000D02*
X145895000Y1695000D01*
G75*
G02*
X145995000Y1795000I100000J0D01*
G01*
X146795000Y1795000D01*
G75*
G02*
X146895000Y1695000I0J-100000D01*
G01*
X146895000Y645000D01*
G75*
G02*
X146795000Y545000I-100000J0D01*
G01*
X145995000Y545000D01*
G75*
G02*
X145895000Y645000I0J100000D01*
G01*
G37*
G04 #@! TD.AperFunction*
G04 #@! TD*
G04 #@! TO.P,R32,1*
G04 #@! TO.N,GND*
G04 #@! TA.AperFunction,SMDPad,CuDef*
G36*
G01*
X214685000Y97011267D02*
X214685000Y97791267D01*
G75*
G02*
X214755000Y97861267I70000J0D01*
G01*
X215315000Y97861267D01*
G75*
G02*
X215385000Y97791267I0J-70000D01*
G01*
X215385000Y97011267D01*
G75*
G02*
X215315000Y96941267I-70000J0D01*
G01*
X214755000Y96941267D01*
G75*
G02*
X214685000Y97011267I0J70000D01*
G01*
G37*
G04 #@! TD.AperFunction*
G04 #@! TO.P,R32,2*
G04 #@! TO.N,/INJ4*
G04 #@! TA.AperFunction,SMDPad,CuDef*
G36*
G01*
X216285000Y97011267D02*
X216285000Y97791267D01*
G75*
G02*
X216355000Y97861267I70000J0D01*
G01*
X216915000Y97861267D01*
G75*
G02*
X216985000Y97791267I0J-70000D01*
G01*
X216985000Y97011267D01*
G75*
G02*
X216915000Y96941267I-70000J0D01*
G01*
X216355000Y96941267D01*
G75*
G02*
X216285000Y97011267I0J70000D01*
G01*
G37*
G04 #@! TD.AperFunction*
G04 #@! TD*
G04 #@! TO.P,C17,1*
G04 #@! TO.N,GND*
G04 #@! TA.AperFunction,SMDPad,CuDef*
G36*
G01*
X163045000Y2895000D02*
X163045000Y3945000D01*
G75*
G02*
X163145000Y4045000I100000J0D01*
G01*
X163945000Y4045000D01*
G75*
G02*
X164045000Y3945000I0J-100000D01*
G01*
X164045000Y2895000D01*
G75*
G02*
X163945000Y2795000I-100000J0D01*
G01*
X163145000Y2795000D01*
G75*
G02*
X163045000Y2895000I0J100000D01*
G01*
G37*
G04 #@! TD.AperFunction*
G04 #@! TO.P,C17,2*
G04 #@! TO.N,/DC Driver 2/PWR*
G04 #@! TA.AperFunction,SMDPad,CuDef*
G36*
G01*
X165045000Y2895000D02*
X165045000Y3945000D01*
G75*
G02*
X165145000Y4045000I100000J0D01*
G01*
X165945000Y4045000D01*
G75*
G02*
X166045000Y3945000I0J-100000D01*
G01*
X166045000Y2895000D01*
G75*
G02*
X165945000Y2795000I-100000J0D01*
G01*
X165145000Y2795000D01*
G75*
G02*
X165045000Y2895000I0J100000D01*
G01*
G37*
G04 #@! TD.AperFunction*
G04 #@! TD*
G04 #@! TO.P,C25,1*
G04 #@! TO.N,GND*
G04 #@! TA.AperFunction,SMDPad,CuDef*
G36*
G01*
X167045000Y-1594971D02*
X167045000Y-914971D01*
G75*
G02*
X167130000Y-829971I85000J0D01*
G01*
X167810000Y-829971D01*
G75*
G02*
X167895000Y-914971I0J-85000D01*
G01*
X167895000Y-1594971D01*
G75*
G02*
X167810000Y-1679971I-85000J0D01*
G01*
X167130000Y-1679971D01*
G75*
G02*
X167045000Y-1594971I0J85000D01*
G01*
G37*
G04 #@! TD.AperFunction*
G04 #@! TO.P,C25,2*
G04 #@! TO.N,/OUT_DC2-*
G04 #@! TA.AperFunction,SMDPad,CuDef*
G36*
G01*
X168625002Y-1594971D02*
X168625002Y-914971D01*
G75*
G02*
X168710002Y-829971I85000J0D01*
G01*
X169390002Y-829971D01*
G75*
G02*
X169475002Y-914971I0J-85000D01*
G01*
X169475002Y-1594971D01*
G75*
G02*
X169390002Y-1679971I-85000J0D01*
G01*
X168710002Y-1679971D01*
G75*
G02*
X168625002Y-1594971I0J85000D01*
G01*
G37*
G04 #@! TD.AperFunction*
G04 #@! TD*
D13*
G04 #@! TO.P,Q4,1,G*
G04 #@! TO.N,/LS4*
X221260000Y77650000D03*
G04 #@! TO.P,Q4,2,D*
G04 #@! TO.N,/OUT_LS4*
X221260000Y75350000D03*
G04 #@! TO.P,Q4,3,S*
G04 #@! TO.N,GND*
X221260000Y73050000D03*
D14*
G04 #@! TO.P,Q4,4*
G04 #@! TO.N,N/C*
X227560000Y75350000D03*
G04 #@! TD*
G04 #@! TO.P,Q8,1,G*
G04 #@! TO.N,Net-(Q8-G)*
G04 #@! TA.AperFunction,SMDPad,CuDef*
G36*
G01*
X205110000Y42580000D02*
X205110000Y43280000D01*
G75*
G02*
X205360000Y43530000I250000J0D01*
G01*
X207060000Y43530000D01*
G75*
G02*
X207310000Y43280000I0J-250000D01*
G01*
X207310000Y42580000D01*
G75*
G02*
X207060000Y42330000I-250000J0D01*
G01*
X205360000Y42330000D01*
G75*
G02*
X205110000Y42580000I0J250000D01*
G01*
G37*
G04 #@! TD.AperFunction*
G04 #@! TO.P,Q8,2,C*
G04 #@! TO.N,/OUT_IGN2*
G04 #@! TA.AperFunction,SMDPad,CuDef*
G36*
G01*
X209310000Y41050000D02*
X209310000Y43300000D01*
G75*
G02*
X209560000Y43550000I250000J0D01*
G01*
X212110000Y43550000D01*
G75*
G02*
X212360000Y43300000I0J-250000D01*
G01*
X212360000Y41050000D01*
G75*
G02*
X212110000Y40800000I-250000J0D01*
G01*
X209560000Y40800000D01*
G75*
G02*
X209310000Y41050000I0J250000D01*
G01*
G37*
G04 #@! TD.AperFunction*
G04 #@! TA.AperFunction,SMDPad,CuDef*
G36*
G01*
X209310000Y38000000D02*
X209310000Y40250000D01*
G75*
G02*
X209560000Y40500000I250000J0D01*
G01*
X212110000Y40500000D01*
G75*
G02*
X212360000Y40250000I0J-250000D01*
G01*
X212360000Y38000000D01*
G75*
G02*
X212110000Y37750000I-250000J0D01*
G01*
X209560000Y37750000D01*
G75*
G02*
X209310000Y38000000I0J250000D01*
G01*
G37*
G04 #@! TD.AperFunction*
G04 #@! TA.AperFunction,SMDPad,CuDef*
G36*
G01*
X209310000Y37999997D02*
X209310000Y43300003D01*
G75*
G02*
X209559997Y43550000I249997J0D01*
G01*
X215460003Y43550000D01*
G75*
G02*
X215710000Y43300003I0J-249997D01*
G01*
X215710000Y37999997D01*
G75*
G02*
X215460003Y37750000I-249997J0D01*
G01*
X209559997Y37750000D01*
G75*
G02*
X209310000Y37999997I0J249997D01*
G01*
G37*
G04 #@! TD.AperFunction*
G04 #@! TA.AperFunction,SMDPad,CuDef*
G36*
G01*
X212660000Y41050000D02*
X212660000Y43300000D01*
G75*
G02*
X212910000Y43550000I250000J0D01*
G01*
X215460000Y43550000D01*
G75*
G02*
X215710000Y43300000I0J-250000D01*
G01*
X215710000Y41050000D01*
G75*
G02*
X215460000Y40800000I-250000J0D01*
G01*
X212910000Y40800000D01*
G75*
G02*
X212660000Y41050000I0J250000D01*
G01*
G37*
G04 #@! TD.AperFunction*
G04 #@! TA.AperFunction,SMDPad,CuDef*
G36*
G01*
X212660000Y38000000D02*
X212660000Y40250000D01*
G75*
G02*
X212910000Y40500000I250000J0D01*
G01*
X215460000Y40500000D01*
G75*
G02*
X215710000Y40250000I0J-250000D01*
G01*
X215710000Y38000000D01*
G75*
G02*
X215460000Y37750000I-250000J0D01*
G01*
X212910000Y37750000D01*
G75*
G02*
X212660000Y38000000I0J250000D01*
G01*
G37*
G04 #@! TD.AperFunction*
G04 #@! TO.P,Q8,3,E*
G04 #@! TO.N,GND*
G04 #@! TA.AperFunction,SMDPad,CuDef*
G36*
G01*
X205110000Y38020000D02*
X205110000Y38720000D01*
G75*
G02*
X205360000Y38970000I250000J0D01*
G01*
X207060000Y38970000D01*
G75*
G02*
X207310000Y38720000I0J-250000D01*
G01*
X207310000Y38020000D01*
G75*
G02*
X207060000Y37770000I-250000J0D01*
G01*
X205360000Y37770000D01*
G75*
G02*
X205110000Y38020000I0J250000D01*
G01*
G37*
G04 #@! TD.AperFunction*
G04 #@! TD*
G04 #@! TO.P,D6,1*
G04 #@! TO.N,/OUT_LS_WEAK1*
G04 #@! TA.AperFunction,SMDPad,CuDef*
G36*
G01*
X182465000Y9870000D02*
X182465000Y10170000D01*
G75*
G02*
X182615000Y10320000I150000J0D01*
G01*
X183790000Y10320000D01*
G75*
G02*
X183940000Y10170000I0J-150000D01*
G01*
X183940000Y9870000D01*
G75*
G02*
X183790000Y9720000I-150000J0D01*
G01*
X182615000Y9720000D01*
G75*
G02*
X182465000Y9870000I0J150000D01*
G01*
G37*
G04 #@! TD.AperFunction*
G04 #@! TO.P,D6,2*
G04 #@! TO.N,GND*
G04 #@! TA.AperFunction,SMDPad,CuDef*
G36*
G01*
X184340000Y8920000D02*
X184340000Y9220000D01*
G75*
G02*
X184490000Y9370000I150000J0D01*
G01*
X185665000Y9370000D01*
G75*
G02*
X185815000Y9220000I0J-150000D01*
G01*
X185815000Y8920000D01*
G75*
G02*
X185665000Y8770000I-150000J0D01*
G01*
X184490000Y8770000D01*
G75*
G02*
X184340000Y8920000I0J150000D01*
G01*
G37*
G04 #@! TD.AperFunction*
G04 #@! TO.P,D6,3*
G04 #@! TO.N,unconnected-(D6-Pad3)*
G04 #@! TA.AperFunction,SMDPad,CuDef*
G36*
G01*
X182465000Y7970000D02*
X182465000Y8270000D01*
G75*
G02*
X182615000Y8420000I150000J0D01*
G01*
X183790000Y8420000D01*
G75*
G02*
X183940000Y8270000I0J-150000D01*
G01*
X183940000Y7970000D01*
G75*
G02*
X183790000Y7820000I-150000J0D01*
G01*
X182615000Y7820000D01*
G75*
G02*
X182465000Y7970000I0J150000D01*
G01*
G37*
G04 #@! TD.AperFunction*
G04 #@! TD*
G04 #@! TO.P,C30,1*
G04 #@! TO.N,Net-(U4-T+)*
G04 #@! TA.AperFunction,SMDPad,CuDef*
G36*
G01*
X205010000Y-2670000D02*
X205010000Y-2330000D01*
G75*
G02*
X205150000Y-2190000I140000J0D01*
G01*
X205430000Y-2190000D01*
G75*
G02*
X205570000Y-2330000I0J-140000D01*
G01*
X205570000Y-2670000D01*
G75*
G02*
X205430000Y-2810000I-140000J0D01*
G01*
X205150000Y-2810000D01*
G75*
G02*
X205010000Y-2670000I0J140000D01*
G01*
G37*
G04 #@! TD.AperFunction*
G04 #@! TO.P,C30,2*
G04 #@! TO.N,GND*
G04 #@! TA.AperFunction,SMDPad,CuDef*
G36*
G01*
X205970000Y-2670000D02*
X205970000Y-2330000D01*
G75*
G02*
X206110000Y-2190000I140000J0D01*
G01*
X206390000Y-2190000D01*
G75*
G02*
X206530000Y-2330000I0J-140000D01*
G01*
X206530000Y-2670000D01*
G75*
G02*
X206390000Y-2810000I-140000J0D01*
G01*
X206110000Y-2810000D01*
G75*
G02*
X205970000Y-2670000I0J140000D01*
G01*
G37*
G04 #@! TD.AperFunction*
G04 #@! TD*
D13*
G04 #@! TO.P,Q13,1,G*
G04 #@! TO.N,/INJ1*
X206110000Y102400000D03*
G04 #@! TO.P,Q13,2,D*
G04 #@! TO.N,/OUT_INJ1*
X206110000Y100100000D03*
G04 #@! TO.P,Q13,3,S*
G04 #@! TO.N,GND*
X206110000Y97800000D03*
D14*
G04 #@! TO.P,Q13,4*
G04 #@! TO.N,N/C*
X212410000Y100100000D03*
G04 #@! TD*
G04 #@! TO.P,C22,1*
G04 #@! TO.N,GND*
G04 #@! TA.AperFunction,SMDPad,CuDef*
G36*
G01*
X163045000Y-8355000D02*
X163045000Y-7305000D01*
G75*
G02*
X163145000Y-7205000I100000J0D01*
G01*
X163945000Y-7205000D01*
G75*
G02*
X164045000Y-7305000I0J-100000D01*
G01*
X164045000Y-8355000D01*
G75*
G02*
X163945000Y-8455000I-100000J0D01*
G01*
X163145000Y-8455000D01*
G75*
G02*
X163045000Y-8355000I0J100000D01*
G01*
G37*
G04 #@! TD.AperFunction*
G04 #@! TO.P,C22,2*
G04 #@! TO.N,/DC Driver 2/PWR*
G04 #@! TA.AperFunction,SMDPad,CuDef*
G36*
G01*
X165045000Y-8355000D02*
X165045000Y-7305000D01*
G75*
G02*
X165145000Y-7205000I100000J0D01*
G01*
X165945000Y-7205000D01*
G75*
G02*
X166045000Y-7305000I0J-100000D01*
G01*
X166045000Y-8355000D01*
G75*
G02*
X165945000Y-8455000I-100000J0D01*
G01*
X165145000Y-8455000D01*
G75*
G02*
X165045000Y-8355000I0J100000D01*
G01*
G37*
G04 #@! TD.AperFunction*
G04 #@! TD*
D18*
G04 #@! TO.P,G3,1*
G04 #@! TO.N,GND*
X190601000Y65399000D03*
G04 #@! TO.P,G3,2*
X193141000Y65399000D03*
G04 #@! TO.P,G3,3*
G04 #@! TO.N,+3.3VA*
X195681000Y65399000D03*
G04 #@! TO.P,G3,4*
G04 #@! TO.N,+5VA*
X198221000Y65399000D03*
G04 #@! TO.P,G3,5*
G04 #@! TO.N,+12V_RAW*
X200761000Y65399000D03*
G04 #@! TO.P,G3,6*
G04 #@! TO.N,GND*
X190601000Y62859000D03*
G04 #@! TO.P,G3,7*
X193141000Y62859000D03*
G04 #@! TO.P,G3,8*
G04 #@! TO.N,+3.3VA*
X195681000Y62859000D03*
G04 #@! TO.P,G3,9*
G04 #@! TO.N,+5VA*
X198221000Y62859000D03*
G04 #@! TO.P,G3,10*
G04 #@! TO.N,+12V_RAW*
X200761000Y62859000D03*
G04 #@! TO.P,G3,11*
G04 #@! TO.N,GND*
X190601000Y60319000D03*
G04 #@! TO.P,G3,12*
X193141000Y60319000D03*
G04 #@! TO.P,G3,13*
G04 #@! TO.N,+3.3VA*
X195681000Y60319000D03*
G04 #@! TO.P,G3,14*
G04 #@! TO.N,+5VA*
X198221000Y60319000D03*
G04 #@! TO.P,G3,15*
G04 #@! TO.N,+12V_RAW*
X200761000Y60319000D03*
G04 #@! TD*
G04 #@! TO.P,R16,1*
G04 #@! TO.N,/LS_WEAK2*
G04 #@! TA.AperFunction,SMDPad,CuDef*
G36*
G01*
X187085000Y7979359D02*
X187085000Y8759359D01*
G75*
G02*
X187155000Y8829359I70000J0D01*
G01*
X187715000Y8829359D01*
G75*
G02*
X187785000Y8759359I0J-70000D01*
G01*
X187785000Y7979359D01*
G75*
G02*
X187715000Y7909359I-70000J0D01*
G01*
X187155000Y7909359D01*
G75*
G02*
X187085000Y7979359I0J70000D01*
G01*
G37*
G04 #@! TD.AperFunction*
G04 #@! TO.P,R16,2*
G04 #@! TO.N,GND*
G04 #@! TA.AperFunction,SMDPad,CuDef*
G36*
G01*
X188685000Y7979359D02*
X188685000Y8759359D01*
G75*
G02*
X188755000Y8829359I70000J0D01*
G01*
X189315000Y8829359D01*
G75*
G02*
X189385000Y8759359I0J-70000D01*
G01*
X189385000Y7979359D01*
G75*
G02*
X189315000Y7909359I-70000J0D01*
G01*
X188755000Y7909359D01*
G75*
G02*
X188685000Y7979359I0J70000D01*
G01*
G37*
G04 #@! TD.AperFunction*
G04 #@! TD*
G04 #@! TO.P,R25,1*
G04 #@! TO.N,Net-(Q12-G)*
G04 #@! TA.AperFunction,SMDPad,CuDef*
G36*
G01*
X216985000Y12273175D02*
X216985000Y13053175D01*
G75*
G02*
X217055000Y13123175I70000J0D01*
G01*
X217615000Y13123175D01*
G75*
G02*
X217685000Y13053175I0J-70000D01*
G01*
X217685000Y12273175D01*
G75*
G02*
X217615000Y12203175I-70000J0D01*
G01*
X217055000Y12203175D01*
G75*
G02*
X216985000Y12273175I0J70000D01*
G01*
G37*
G04 #@! TD.AperFunction*
G04 #@! TO.P,R25,2*
G04 #@! TO.N,/IGN6*
G04 #@! TA.AperFunction,SMDPad,CuDef*
G36*
G01*
X218585000Y12273175D02*
X218585000Y13053175D01*
G75*
G02*
X218655000Y13123175I70000J0D01*
G01*
X219215000Y13123175D01*
G75*
G02*
X219285000Y13053175I0J-70000D01*
G01*
X219285000Y12273175D01*
G75*
G02*
X219215000Y12203175I-70000J0D01*
G01*
X218655000Y12203175D01*
G75*
G02*
X218585000Y12273175I0J70000D01*
G01*
G37*
G04 #@! TD.AperFunction*
G04 #@! TD*
G04 #@! TO.P,C21,1*
G04 #@! TO.N,GND*
G04 #@! TA.AperFunction,SMDPad,CuDef*
G36*
G01*
X163045000Y-6105000D02*
X163045000Y-5055000D01*
G75*
G02*
X163145000Y-4955000I100000J0D01*
G01*
X163945000Y-4955000D01*
G75*
G02*
X164045000Y-5055000I0J-100000D01*
G01*
X164045000Y-6105000D01*
G75*
G02*
X163945000Y-6205000I-100000J0D01*
G01*
X163145000Y-6205000D01*
G75*
G02*
X163045000Y-6105000I0J100000D01*
G01*
G37*
G04 #@! TD.AperFunction*
G04 #@! TO.P,C21,2*
G04 #@! TO.N,/DC Driver 2/PWR*
G04 #@! TA.AperFunction,SMDPad,CuDef*
G36*
G01*
X165045000Y-6105000D02*
X165045000Y-5055000D01*
G75*
G02*
X165145000Y-4955000I100000J0D01*
G01*
X165945000Y-4955000D01*
G75*
G02*
X166045000Y-5055000I0J-100000D01*
G01*
X166045000Y-6105000D01*
G75*
G02*
X165945000Y-6205000I-100000J0D01*
G01*
X165145000Y-6205000D01*
G75*
G02*
X165045000Y-6105000I0J100000D01*
G01*
G37*
G04 #@! TD.AperFunction*
G04 #@! TD*
D19*
G04 #@! TO.P,F2,1,1*
G04 #@! TO.N,+12V*
X134835000Y29645000D03*
G04 #@! TA.AperFunction,SMDPad,CuDef*
G36*
G01*
X136179990Y28745000D02*
X135489990Y28745000D01*
G75*
G02*
X135259990Y28975000I0J230000D01*
G01*
X135259990Y30315000D01*
G75*
G02*
X135489990Y30545000I230000J0D01*
G01*
X136179990Y30545000D01*
G75*
G02*
X136409990Y30315000I0J-230000D01*
G01*
X136409990Y28975000D01*
G75*
G02*
X136179990Y28745000I-230000J0D01*
G01*
G37*
G04 #@! TD.AperFunction*
G04 #@! TO.P,F2,2,2*
G04 #@! TO.N,+12V_RAW*
G04 #@! TA.AperFunction,SMDPad,CuDef*
G36*
G01*
X139080010Y28745000D02*
X138390010Y28745000D01*
G75*
G02*
X138160010Y28975000I0J230000D01*
G01*
X138160010Y30315000D01*
G75*
G02*
X138390010Y30545000I230000J0D01*
G01*
X139080010Y30545000D01*
G75*
G02*
X139310010Y30315000I0J-230000D01*
G01*
X139310010Y28975000D01*
G75*
G02*
X139080010Y28745000I-230000J0D01*
G01*
G37*
G04 #@! TD.AperFunction*
X139735000Y29645000D03*
G04 #@! TD*
D20*
G04 #@! TO.P,BT1,1,+*
G04 #@! TO.N,Net-(BT1-+)*
X114774995Y26504737D03*
D21*
G04 #@! TO.P,BT1,2,-*
G04 #@! TO.N,GND*
X130775014Y26504737D03*
G04 #@! TD*
G04 #@! TO.P,R24,1*
G04 #@! TO.N,Net-(Q11-G)*
G04 #@! TA.AperFunction,SMDPad,CuDef*
G36*
G01*
X216985000Y14222221D02*
X216985000Y15002221D01*
G75*
G02*
X217055000Y15072221I70000J0D01*
G01*
X217615000Y15072221D01*
G75*
G02*
X217685000Y15002221I0J-70000D01*
G01*
X217685000Y14222221D01*
G75*
G02*
X217615000Y14152221I-70000J0D01*
G01*
X217055000Y14152221D01*
G75*
G02*
X216985000Y14222221I0J70000D01*
G01*
G37*
G04 #@! TD.AperFunction*
G04 #@! TO.P,R24,2*
G04 #@! TO.N,/IGN5*
G04 #@! TA.AperFunction,SMDPad,CuDef*
G36*
G01*
X218585000Y14222221D02*
X218585000Y15002221D01*
G75*
G02*
X218655000Y15072221I70000J0D01*
G01*
X219215000Y15072221D01*
G75*
G02*
X219285000Y15002221I0J-70000D01*
G01*
X219285000Y14222221D01*
G75*
G02*
X219215000Y14152221I-70000J0D01*
G01*
X218655000Y14152221D01*
G75*
G02*
X218585000Y14222221I0J70000D01*
G01*
G37*
G04 #@! TD.AperFunction*
G04 #@! TD*
G04 #@! TO.P,R10,1*
G04 #@! TO.N,GND*
G04 #@! TA.AperFunction,SMDPad,CuDef*
G36*
G01*
X229835000Y90378405D02*
X229835000Y91158405D01*
G75*
G02*
X229905000Y91228405I70000J0D01*
G01*
X230465000Y91228405D01*
G75*
G02*
X230535000Y91158405I0J-70000D01*
G01*
X230535000Y90378405D01*
G75*
G02*
X230465000Y90308405I-70000J0D01*
G01*
X229905000Y90308405D01*
G75*
G02*
X229835000Y90378405I0J70000D01*
G01*
G37*
G04 #@! TD.AperFunction*
G04 #@! TO.P,R10,2*
G04 #@! TO.N,/LS1*
G04 #@! TA.AperFunction,SMDPad,CuDef*
G36*
G01*
X231435000Y90378405D02*
X231435000Y91158405D01*
G75*
G02*
X231505000Y91228405I70000J0D01*
G01*
X232065000Y91228405D01*
G75*
G02*
X232135000Y91158405I0J-70000D01*
G01*
X232135000Y90378405D01*
G75*
G02*
X232065000Y90308405I-70000J0D01*
G01*
X231505000Y90308405D01*
G75*
G02*
X231435000Y90378405I0J70000D01*
G01*
G37*
G04 #@! TD.AperFunction*
G04 #@! TD*
G04 #@! TO.P,C18,1*
G04 #@! TO.N,GND*
G04 #@! TA.AperFunction,SMDPad,CuDef*
G36*
G01*
X163045000Y645000D02*
X163045000Y1695000D01*
G75*
G02*
X163145000Y1795000I100000J0D01*
G01*
X163945000Y1795000D01*
G75*
G02*
X164045000Y1695000I0J-100000D01*
G01*
X164045000Y645000D01*
G75*
G02*
X163945000Y545000I-100000J0D01*
G01*
X163145000Y545000D01*
G75*
G02*
X163045000Y645000I0J100000D01*
G01*
G37*
G04 #@! TD.AperFunction*
G04 #@! TO.P,C18,2*
G04 #@! TO.N,/DC Driver 2/PWR*
G04 #@! TA.AperFunction,SMDPad,CuDef*
G36*
G01*
X165045000Y645000D02*
X165045000Y1695000D01*
G75*
G02*
X165145000Y1795000I100000J0D01*
G01*
X165945000Y1795000D01*
G75*
G02*
X166045000Y1695000I0J-100000D01*
G01*
X166045000Y645000D01*
G75*
G02*
X165945000Y545000I-100000J0D01*
G01*
X165145000Y545000D01*
G75*
G02*
X165045000Y645000I0J100000D01*
G01*
G37*
G04 #@! TD.AperFunction*
G04 #@! TD*
D22*
G04 #@! TO.P,J6,1,Pin_1*
G04 #@! TO.N,Net-(J6-Pin_1)*
X194350000Y41350000D03*
D23*
G04 #@! TO.P,J6,2,Pin_2*
G04 #@! TO.N,Net-(J6-Pin_2)*
X194350000Y38810000D03*
G04 #@! TO.P,J6,3,Pin_3*
G04 #@! TO.N,GND*
X194350000Y36270000D03*
G04 #@! TO.P,J6,4,Pin_4*
G04 #@! TO.N,Net-(J6-Pin_4)*
X194350000Y33730000D03*
G04 #@! TO.P,J6,5,Pin_5*
G04 #@! TO.N,Net-(J6-Pin_5)*
X194350000Y31190000D03*
G04 #@! TO.P,J6,6,Pin_6*
G04 #@! TO.N,unconnected-(J6-Pin_6-Pad6)*
X194350000Y28650000D03*
G04 #@! TD*
G04 #@! TO.P,D3,1,K*
G04 #@! TO.N,+12V_RAW*
G04 #@! TA.AperFunction,SMDPad,CuDef*
G36*
G01*
X230045000Y99035000D02*
X230045000Y100055000D01*
G75*
G02*
X230135000Y100145000I90000J0D01*
G01*
X230855000Y100145000D01*
G75*
G02*
X230945000Y100055000I0J-90000D01*
G01*
X230945000Y99035000D01*
G75*
G02*
X230855000Y98945000I-90000J0D01*
G01*
X230135000Y98945000D01*
G75*
G02*
X230045000Y99035000I0J90000D01*
G01*
G37*
G04 #@! TD.AperFunction*
G04 #@! TO.P,D3,2,A*
G04 #@! TO.N,/OUT_LS2*
G04 #@! TA.AperFunction,SMDPad,CuDef*
G36*
G01*
X233345000Y99035000D02*
X233345000Y100055000D01*
G75*
G02*
X233435000Y100145000I90000J0D01*
G01*
X234155000Y100145000D01*
G75*
G02*
X234245000Y100055000I0J-90000D01*
G01*
X234245000Y99035000D01*
G75*
G02*
X234155000Y98945000I-90000J0D01*
G01*
X233435000Y98945000D01*
G75*
G02*
X233345000Y99035000I0J90000D01*
G01*
G37*
G04 #@! TD.AperFunction*
G04 #@! TD*
G04 #@! TO.P,R17,1*
G04 #@! TO.N,Net-(Q7-G)*
G04 #@! TA.AperFunction,SMDPad,CuDef*
G36*
G01*
X216985000Y22018405D02*
X216985000Y22798405D01*
G75*
G02*
X217055000Y22868405I70000J0D01*
G01*
X217615000Y22868405D01*
G75*
G02*
X217685000Y22798405I0J-70000D01*
G01*
X217685000Y22018405D01*
G75*
G02*
X217615000Y21948405I-70000J0D01*
G01*
X217055000Y21948405D01*
G75*
G02*
X216985000Y22018405I0J70000D01*
G01*
G37*
G04 #@! TD.AperFunction*
G04 #@! TO.P,R17,2*
G04 #@! TO.N,/IGN1*
G04 #@! TA.AperFunction,SMDPad,CuDef*
G36*
G01*
X218585000Y22018405D02*
X218585000Y22798405D01*
G75*
G02*
X218655000Y22868405I70000J0D01*
G01*
X219215000Y22868405D01*
G75*
G02*
X219285000Y22798405I0J-70000D01*
G01*
X219285000Y22018405D01*
G75*
G02*
X219215000Y21948405I-70000J0D01*
G01*
X218655000Y21948405D01*
G75*
G02*
X218585000Y22018405I0J70000D01*
G01*
G37*
G04 #@! TD.AperFunction*
G04 #@! TD*
D13*
G04 #@! TO.P,Q1,1,G*
G04 #@! TO.N,/LS1*
X221260000Y102400000D03*
G04 #@! TO.P,Q1,2,D*
G04 #@! TO.N,/OUT_LS1*
X221260000Y100100000D03*
G04 #@! TO.P,Q1,3,S*
G04 #@! TO.N,GND*
X221260000Y97800000D03*
D14*
G04 #@! TO.P,Q1,4*
G04 #@! TO.N,N/C*
X227560000Y100100000D03*
G04 #@! TD*
G04 #@! TO.P,C3,1*
G04 #@! TO.N,GND*
G04 #@! TA.AperFunction,SMDPad,CuDef*
G36*
G01*
X143895000Y5145000D02*
X143895000Y6195000D01*
G75*
G02*
X143995000Y6295000I100000J0D01*
G01*
X144795000Y6295000D01*
G75*
G02*
X144895000Y6195000I0J-100000D01*
G01*
X144895000Y5145000D01*
G75*
G02*
X144795000Y5045000I-100000J0D01*
G01*
X143995000Y5045000D01*
G75*
G02*
X143895000Y5145000I0J100000D01*
G01*
G37*
G04 #@! TD.AperFunction*
G04 #@! TO.P,C3,2*
G04 #@! TO.N,/DC Driver 1/PWR*
G04 #@! TA.AperFunction,SMDPad,CuDef*
G36*
G01*
X145895000Y5145000D02*
X145895000Y6195000D01*
G75*
G02*
X145995000Y6295000I100000J0D01*
G01*
X146795000Y6295000D01*
G75*
G02*
X146895000Y6195000I0J-100000D01*
G01*
X146895000Y5145000D01*
G75*
G02*
X146795000Y5045000I-100000J0D01*
G01*
X145995000Y5045000D01*
G75*
G02*
X145895000Y5145000I0J100000D01*
G01*
G37*
G04 #@! TD.AperFunction*
G04 #@! TD*
G04 #@! TO.P,C28,1*
G04 #@! TO.N,Net-(U4-T-)*
G04 #@! TA.AperFunction,SMDPad,CuDef*
G36*
G01*
X205010000Y1270000D02*
X205010000Y1610000D01*
G75*
G02*
X205150000Y1750000I140000J0D01*
G01*
X205430000Y1750000D01*
G75*
G02*
X205570000Y1610000I0J-140000D01*
G01*
X205570000Y1270000D01*
G75*
G02*
X205430000Y1130000I-140000J0D01*
G01*
X205150000Y1130000D01*
G75*
G02*
X205010000Y1270000I0J140000D01*
G01*
G37*
G04 #@! TD.AperFunction*
G04 #@! TO.P,C28,2*
G04 #@! TO.N,GND*
G04 #@! TA.AperFunction,SMDPad,CuDef*
G36*
G01*
X205970000Y1270000D02*
X205970000Y1610000D01*
G75*
G02*
X206110000Y1750000I140000J0D01*
G01*
X206390000Y1750000D01*
G75*
G02*
X206530000Y1610000I0J-140000D01*
G01*
X206530000Y1270000D01*
G75*
G02*
X206390000Y1130000I-140000J0D01*
G01*
X206110000Y1130000D01*
G75*
G02*
X205970000Y1270000I0J140000D01*
G01*
G37*
G04 #@! TD.AperFunction*
G04 #@! TD*
G04 #@! TO.P,R2,1*
G04 #@! TO.N,/IN_VMAIN*
G04 #@! TA.AperFunction,SMDPad,CuDef*
G36*
G01*
X153485000Y19959359D02*
X153485000Y20739359D01*
G75*
G02*
X153555000Y20809359I70000J0D01*
G01*
X154115000Y20809359D01*
G75*
G02*
X154185000Y20739359I0J-70000D01*
G01*
X154185000Y19959359D01*
G75*
G02*
X154115000Y19889359I-70000J0D01*
G01*
X153555000Y19889359D01*
G75*
G02*
X153485000Y19959359I0J70000D01*
G01*
G37*
G04 #@! TD.AperFunction*
G04 #@! TO.P,R2,2*
G04 #@! TO.N,+12V*
G04 #@! TA.AperFunction,SMDPad,CuDef*
G36*
G01*
X155085000Y19959359D02*
X155085000Y20739359D01*
G75*
G02*
X155155000Y20809359I70000J0D01*
G01*
X155715000Y20809359D01*
G75*
G02*
X155785000Y20739359I0J-70000D01*
G01*
X155785000Y19959359D01*
G75*
G02*
X155715000Y19889359I-70000J0D01*
G01*
X155155000Y19889359D01*
G75*
G02*
X155085000Y19959359I0J70000D01*
G01*
G37*
G04 #@! TD.AperFunction*
G04 #@! TD*
D19*
G04 #@! TO.P,F1,1,1*
G04 #@! TO.N,Net-(J1-Pin_20)*
X134835000Y32765000D03*
G04 #@! TA.AperFunction,SMDPad,CuDef*
G36*
G01*
X136179990Y31865000D02*
X135489990Y31865000D01*
G75*
G02*
X135259990Y32095000I0J230000D01*
G01*
X135259990Y33435000D01*
G75*
G02*
X135489990Y33665000I230000J0D01*
G01*
X136179990Y33665000D01*
G75*
G02*
X136409990Y33435000I0J-230000D01*
G01*
X136409990Y32095000D01*
G75*
G02*
X136179990Y31865000I-230000J0D01*
G01*
G37*
G04 #@! TD.AperFunction*
G04 #@! TO.P,F1,2,2*
G04 #@! TO.N,/IN_VIGN*
G04 #@! TA.AperFunction,SMDPad,CuDef*
G36*
G01*
X139080010Y31865000D02*
X138390010Y31865000D01*
G75*
G02*
X138160010Y32095000I0J230000D01*
G01*
X138160010Y33435000D01*
G75*
G02*
X138390010Y33665000I230000J0D01*
G01*
X139080010Y33665000D01*
G75*
G02*
X139310010Y33435000I0J-230000D01*
G01*
X139310010Y32095000D01*
G75*
G02*
X139080010Y31865000I-230000J0D01*
G01*
G37*
G04 #@! TD.AperFunction*
X139735000Y32765000D03*
G04 #@! TD*
D24*
G04 #@! TO.P,M2,E1,V5A*
G04 #@! TO.N,+5VA*
X130515000Y17544997D03*
D25*
G04 #@! TO.P,M2,E2,GND*
G04 #@! TO.N,GND*
X121615000Y15569997D03*
D26*
X126165000Y18144997D03*
X126165000Y15044997D03*
D24*
X130515000Y16594997D03*
G04 #@! TO.P,M2,E3,OUT_KNOCK*
G04 #@! TO.N,/IN_KNOCK*
X130515000Y15644999D03*
G04 #@! TO.P,M2,W1,IN_KNOCK*
G04 #@! TO.N,/IN_KNOCK_RAW*
X121815000Y16644997D03*
G04 #@! TO.P,M2,W2,VREF*
G04 #@! TO.N,/VREF2*
X121815000Y17544997D03*
G04 #@! TD*
G04 #@! TO.P,R7,1*
G04 #@! TO.N,GND*
G04 #@! TA.AperFunction,SMDPad,CuDef*
G36*
G01*
X153485000Y16061267D02*
X153485000Y16841267D01*
G75*
G02*
X153555000Y16911267I70000J0D01*
G01*
X154115000Y16911267D01*
G75*
G02*
X154185000Y16841267I0J-70000D01*
G01*
X154185000Y16061267D01*
G75*
G02*
X154115000Y15991267I-70000J0D01*
G01*
X153555000Y15991267D01*
G75*
G02*
X153485000Y16061267I0J70000D01*
G01*
G37*
G04 #@! TD.AperFunction*
G04 #@! TO.P,R7,2*
G04 #@! TO.N,Net-(J9-CC1)*
G04 #@! TA.AperFunction,SMDPad,CuDef*
G36*
G01*
X155085000Y16061267D02*
X155085000Y16841267D01*
G75*
G02*
X155155000Y16911267I70000J0D01*
G01*
X155715000Y16911267D01*
G75*
G02*
X155785000Y16841267I0J-70000D01*
G01*
X155785000Y16061267D01*
G75*
G02*
X155715000Y15991267I-70000J0D01*
G01*
X155155000Y15991267D01*
G75*
G02*
X155085000Y16061267I0J70000D01*
G01*
G37*
G04 #@! TD.AperFunction*
G04 #@! TD*
G04 #@! TO.P,R18,1*
G04 #@! TO.N,Net-(Q8-G)*
G04 #@! TA.AperFunction,SMDPad,CuDef*
G36*
G01*
X216985000Y20069359D02*
X216985000Y20849359D01*
G75*
G02*
X217055000Y20919359I70000J0D01*
G01*
X217615000Y20919359D01*
G75*
G02*
X217685000Y20849359I0J-70000D01*
G01*
X217685000Y20069359D01*
G75*
G02*
X217615000Y19999359I-70000J0D01*
G01*
X217055000Y19999359D01*
G75*
G02*
X216985000Y20069359I0J70000D01*
G01*
G37*
G04 #@! TD.AperFunction*
G04 #@! TO.P,R18,2*
G04 #@! TO.N,/IGN2*
G04 #@! TA.AperFunction,SMDPad,CuDef*
G36*
G01*
X218585000Y20069359D02*
X218585000Y20849359D01*
G75*
G02*
X218655000Y20919359I70000J0D01*
G01*
X219215000Y20919359D01*
G75*
G02*
X219285000Y20849359I0J-70000D01*
G01*
X219285000Y20069359D01*
G75*
G02*
X219215000Y19999359I-70000J0D01*
G01*
X218655000Y19999359D01*
G75*
G02*
X218585000Y20069359I0J70000D01*
G01*
G37*
G04 #@! TD.AperFunction*
G04 #@! TD*
G04 #@! TO.P,C16,1*
G04 #@! TO.N,GND*
G04 #@! TA.AperFunction,SMDPad,CuDef*
G36*
G01*
X163045000Y5145000D02*
X163045000Y6195000D01*
G75*
G02*
X163145000Y6295000I100000J0D01*
G01*
X163945000Y6295000D01*
G75*
G02*
X164045000Y6195000I0J-100000D01*
G01*
X164045000Y5145000D01*
G75*
G02*
X163945000Y5045000I-100000J0D01*
G01*
X163145000Y5045000D01*
G75*
G02*
X163045000Y5145000I0J100000D01*
G01*
G37*
G04 #@! TD.AperFunction*
G04 #@! TO.P,C16,2*
G04 #@! TO.N,/DC Driver 2/PWR*
G04 #@! TA.AperFunction,SMDPad,CuDef*
G36*
G01*
X165045000Y5145000D02*
X165045000Y6195000D01*
G75*
G02*
X165145000Y6295000I100000J0D01*
G01*
X165945000Y6295000D01*
G75*
G02*
X166045000Y6195000I0J-100000D01*
G01*
X166045000Y5145000D01*
G75*
G02*
X165945000Y5045000I-100000J0D01*
G01*
X165145000Y5045000D01*
G75*
G02*
X165045000Y5145000I0J100000D01*
G01*
G37*
G04 #@! TD.AperFunction*
G04 #@! TD*
G04 #@! TO.P,D2,1,K*
G04 #@! TO.N,+12V_RAW*
G04 #@! TA.AperFunction,SMDPad,CuDef*
G36*
G01*
X230045000Y102155000D02*
X230045000Y103175000D01*
G75*
G02*
X230135000Y103265000I90000J0D01*
G01*
X230855000Y103265000D01*
G75*
G02*
X230945000Y103175000I0J-90000D01*
G01*
X230945000Y102155000D01*
G75*
G02*
X230855000Y102065000I-90000J0D01*
G01*
X230135000Y102065000D01*
G75*
G02*
X230045000Y102155000I0J90000D01*
G01*
G37*
G04 #@! TD.AperFunction*
G04 #@! TO.P,D2,2,A*
G04 #@! TO.N,/OUT_LS1*
G04 #@! TA.AperFunction,SMDPad,CuDef*
G36*
G01*
X233345000Y102155000D02*
X233345000Y103175000D01*
G75*
G02*
X233435000Y103265000I90000J0D01*
G01*
X234155000Y103265000D01*
G75*
G02*
X234245000Y103175000I0J-90000D01*
G01*
X234245000Y102155000D01*
G75*
G02*
X234155000Y102065000I-90000J0D01*
G01*
X233435000Y102065000D01*
G75*
G02*
X233345000Y102155000I0J90000D01*
G01*
G37*
G04 #@! TD.AperFunction*
G04 #@! TD*
G04 #@! TO.P,R26,1*
G04 #@! TO.N,/IGN4*
G04 #@! TA.AperFunction,SMDPad,CuDef*
G36*
G01*
X217255000Y34185000D02*
X217255000Y37035000D01*
G75*
G02*
X217505000Y37285000I250000J0D01*
G01*
X218230000Y37285000D01*
G75*
G02*
X218480000Y37035000I0J-250000D01*
G01*
X218480000Y34185000D01*
G75*
G02*
X218230000Y33935000I-250000J0D01*
G01*
X217505000Y33935000D01*
G75*
G02*
X217255000Y34185000I0J250000D01*
G01*
G37*
G04 #@! TD.AperFunction*
G04 #@! TO.P,R26,2*
G04 #@! TO.N,/OUT_IGN4*
G04 #@! TA.AperFunction,SMDPad,CuDef*
G36*
G01*
X223180000Y34185000D02*
X223180000Y37035000D01*
G75*
G02*
X223430000Y37285000I250000J0D01*
G01*
X224155000Y37285000D01*
G75*
G02*
X224405000Y37035000I0J-250000D01*
G01*
X224405000Y34185000D01*
G75*
G02*
X224155000Y33935000I-250000J0D01*
G01*
X223430000Y33935000D01*
G75*
G02*
X223180000Y34185000I0J250000D01*
G01*
G37*
G04 #@! TD.AperFunction*
G04 #@! TD*
G04 #@! TO.P,R13,1*
G04 #@! TO.N,GND*
G04 #@! TA.AperFunction,SMDPad,CuDef*
G36*
G01*
X229835000Y84531267D02*
X229835000Y85311267D01*
G75*
G02*
X229905000Y85381267I70000J0D01*
G01*
X230465000Y85381267D01*
G75*
G02*
X230535000Y85311267I0J-70000D01*
G01*
X230535000Y84531267D01*
G75*
G02*
X230465000Y84461267I-70000J0D01*
G01*
X229905000Y84461267D01*
G75*
G02*
X229835000Y84531267I0J70000D01*
G01*
G37*
G04 #@! TD.AperFunction*
G04 #@! TO.P,R13,2*
G04 #@! TO.N,/LS4*
G04 #@! TA.AperFunction,SMDPad,CuDef*
G36*
G01*
X231435000Y84531267D02*
X231435000Y85311267D01*
G75*
G02*
X231505000Y85381267I70000J0D01*
G01*
X232065000Y85381267D01*
G75*
G02*
X232135000Y85311267I0J-70000D01*
G01*
X232135000Y84531267D01*
G75*
G02*
X232065000Y84461267I-70000J0D01*
G01*
X231505000Y84461267D01*
G75*
G02*
X231435000Y84531267I0J70000D01*
G01*
G37*
G04 #@! TD.AperFunction*
G04 #@! TD*
G04 #@! TO.P,C12,1*
G04 #@! TO.N,GND*
G04 #@! TA.AperFunction,SMDPad,CuDef*
G36*
G01*
X147895000Y-1594971D02*
X147895000Y-914971D01*
G75*
G02*
X147980000Y-829971I85000J0D01*
G01*
X148660000Y-829971D01*
G75*
G02*
X148745000Y-914971I0J-85000D01*
G01*
X148745000Y-1594971D01*
G75*
G02*
X148660000Y-1679971I-85000J0D01*
G01*
X147980000Y-1679971D01*
G75*
G02*
X147895000Y-1594971I0J85000D01*
G01*
G37*
G04 #@! TD.AperFunction*
G04 #@! TO.P,C12,2*
G04 #@! TO.N,/OUT_DC1-*
G04 #@! TA.AperFunction,SMDPad,CuDef*
G36*
G01*
X149475002Y-1594971D02*
X149475002Y-914971D01*
G75*
G02*
X149560002Y-829971I85000J0D01*
G01*
X150240002Y-829971D01*
G75*
G02*
X150325002Y-914971I0J-85000D01*
G01*
X150325002Y-1594971D01*
G75*
G02*
X150240002Y-1679971I-85000J0D01*
G01*
X149560002Y-1679971D01*
G75*
G02*
X149475002Y-1594971I0J85000D01*
G01*
G37*
G04 #@! TD.AperFunction*
G04 #@! TD*
G04 #@! TO.P,C31,1*
G04 #@! TO.N,+3.3VA*
G04 #@! TA.AperFunction,SMDPad,CuDef*
G36*
G01*
X205010000Y-4640000D02*
X205010000Y-4300000D01*
G75*
G02*
X205150000Y-4160000I140000J0D01*
G01*
X205430000Y-4160000D01*
G75*
G02*
X205570000Y-4300000I0J-140000D01*
G01*
X205570000Y-4640000D01*
G75*
G02*
X205430000Y-4780000I-140000J0D01*
G01*
X205150000Y-4780000D01*
G75*
G02*
X205010000Y-4640000I0J140000D01*
G01*
G37*
G04 #@! TD.AperFunction*
G04 #@! TO.P,C31,2*
G04 #@! TO.N,GND*
G04 #@! TA.AperFunction,SMDPad,CuDef*
G36*
G01*
X205970000Y-4640000D02*
X205970000Y-4300000D01*
G75*
G02*
X206110000Y-4160000I140000J0D01*
G01*
X206390000Y-4160000D01*
G75*
G02*
X206530000Y-4300000I0J-140000D01*
G01*
X206530000Y-4640000D01*
G75*
G02*
X206390000Y-4780000I-140000J0D01*
G01*
X206110000Y-4780000D01*
G75*
G02*
X205970000Y-4640000I0J140000D01*
G01*
G37*
G04 #@! TD.AperFunction*
G04 #@! TD*
G04 #@! TO.P,Q6,1,G*
G04 #@! TO.N,/LS_WEAK2*
G04 #@! TA.AperFunction,SMDPad,CuDef*
G36*
G01*
X182465000Y-3480000D02*
X182465000Y-3180000D01*
G75*
G02*
X182615000Y-3030000I150000J0D01*
G01*
X183790000Y-3030000D01*
G75*
G02*
X183940000Y-3180000I0J-150000D01*
G01*
X183940000Y-3480000D01*
G75*
G02*
X183790000Y-3630000I-150000J0D01*
G01*
X182615000Y-3630000D01*
G75*
G02*
X182465000Y-3480000I0J150000D01*
G01*
G37*
G04 #@! TD.AperFunction*
G04 #@! TO.P,Q6,2,D*
G04 #@! TO.N,/OUT_LS_WEAK2*
G04 #@! TA.AperFunction,SMDPad,CuDef*
G36*
G01*
X184340000Y-4430000D02*
X184340000Y-4130000D01*
G75*
G02*
X184490000Y-3980000I150000J0D01*
G01*
X185665000Y-3980000D01*
G75*
G02*
X185815000Y-4130000I0J-150000D01*
G01*
X185815000Y-4430000D01*
G75*
G02*
X185665000Y-4580000I-150000J0D01*
G01*
X184490000Y-4580000D01*
G75*
G02*
X184340000Y-4430000I0J150000D01*
G01*
G37*
G04 #@! TD.AperFunction*
G04 #@! TO.P,Q6,3,S*
G04 #@! TO.N,GND*
G04 #@! TA.AperFunction,SMDPad,CuDef*
G36*
G01*
X182465000Y-5380000D02*
X182465000Y-5080000D01*
G75*
G02*
X182615000Y-4930000I150000J0D01*
G01*
X183790000Y-4930000D01*
G75*
G02*
X183940000Y-5080000I0J-150000D01*
G01*
X183940000Y-5380000D01*
G75*
G02*
X183790000Y-5530000I-150000J0D01*
G01*
X182615000Y-5530000D01*
G75*
G02*
X182465000Y-5380000I0J150000D01*
G01*
G37*
G04 #@! TD.AperFunction*
G04 #@! TD*
G04 #@! TO.P,C8,1*
G04 #@! TO.N,GND*
G04 #@! TA.AperFunction,SMDPad,CuDef*
G36*
G01*
X143895000Y-6105000D02*
X143895000Y-5055000D01*
G75*
G02*
X143995000Y-4955000I100000J0D01*
G01*
X144795000Y-4955000D01*
G75*
G02*
X144895000Y-5055000I0J-100000D01*
G01*
X144895000Y-6105000D01*
G75*
G02*
X144795000Y-6205000I-100000J0D01*
G01*
X143995000Y-6205000D01*
G75*
G02*
X143895000Y-6105000I0J100000D01*
G01*
G37*
G04 #@! TD.AperFunction*
G04 #@! TO.P,C8,2*
G04 #@! TO.N,/DC Driver 1/PWR*
G04 #@! TA.AperFunction,SMDPad,CuDef*
G36*
G01*
X145895000Y-6105000D02*
X145895000Y-5055000D01*
G75*
G02*
X145995000Y-4955000I100000J0D01*
G01*
X146795000Y-4955000D01*
G75*
G02*
X146895000Y-5055000I0J-100000D01*
G01*
X146895000Y-6105000D01*
G75*
G02*
X146795000Y-6205000I-100000J0D01*
G01*
X145995000Y-6205000D01*
G75*
G02*
X145895000Y-6105000I0J100000D01*
G01*
G37*
G04 #@! TD.AperFunction*
G04 #@! TD*
G04 #@! TO.P,L2,1,1*
G04 #@! TO.N,/EGT-*
G04 #@! TA.AperFunction,SMDPad,CuDef*
G36*
G01*
X207985000Y-8046250D02*
X207985000Y-7533750D01*
G75*
G02*
X208203750Y-7315000I218750J0D01*
G01*
X208641250Y-7315000D01*
G75*
G02*
X208860000Y-7533750I0J-218750D01*
G01*
X208860000Y-8046250D01*
G75*
G02*
X208641250Y-8265000I-218750J0D01*
G01*
X208203750Y-8265000D01*
G75*
G02*
X207985000Y-8046250I0J218750D01*
G01*
G37*
G04 #@! TD.AperFunction*
G04 #@! TO.P,L2,2,2*
G04 #@! TO.N,Net-(U4-T-)*
G04 #@! TA.AperFunction,SMDPad,CuDef*
G36*
G01*
X209560000Y-8046250D02*
X209560000Y-7533750D01*
G75*
G02*
X209778750Y-7315000I218750J0D01*
G01*
X210216250Y-7315000D01*
G75*
G02*
X210435000Y-7533750I0J-218750D01*
G01*
X210435000Y-8046250D01*
G75*
G02*
X210216250Y-8265000I-218750J0D01*
G01*
X209778750Y-8265000D01*
G75*
G02*
X209560000Y-8046250I0J218750D01*
G01*
G37*
G04 #@! TD.AperFunction*
G04 #@! TD*
G04 #@! TO.P,U4,1,GND*
G04 #@! TO.N,GND*
G04 #@! TA.AperFunction,SMDPad,CuDef*
G36*
G01*
X207980000Y955000D02*
X207980000Y1255000D01*
G75*
G02*
X208130000Y1405000I150000J0D01*
G01*
X209780000Y1405000D01*
G75*
G02*
X209930000Y1255000I0J-150000D01*
G01*
X209930000Y955000D01*
G75*
G02*
X209780000Y805000I-150000J0D01*
G01*
X208130000Y805000D01*
G75*
G02*
X207980000Y955000I0J150000D01*
G01*
G37*
G04 #@! TD.AperFunction*
G04 #@! TO.P,U4,2,T-*
G04 #@! TO.N,Net-(U4-T-)*
G04 #@! TA.AperFunction,SMDPad,CuDef*
G36*
G01*
X207980000Y-315000D02*
X207980000Y-15000D01*
G75*
G02*
X208130000Y135000I150000J0D01*
G01*
X209780000Y135000D01*
G75*
G02*
X209930000Y-15000I0J-150000D01*
G01*
X209930000Y-315000D01*
G75*
G02*
X209780000Y-465000I-150000J0D01*
G01*
X208130000Y-465000D01*
G75*
G02*
X207980000Y-315000I0J150000D01*
G01*
G37*
G04 #@! TD.AperFunction*
G04 #@! TO.P,U4,3,T+*
G04 #@! TO.N,Net-(U4-T+)*
G04 #@! TA.AperFunction,SMDPad,CuDef*
G36*
G01*
X207980000Y-1585000D02*
X207980000Y-1285000D01*
G75*
G02*
X208130000Y-1135000I150000J0D01*
G01*
X209780000Y-1135000D01*
G75*
G02*
X209930000Y-1285000I0J-150000D01*
G01*
X209930000Y-1585000D01*
G75*
G02*
X209780000Y-1735000I-150000J0D01*
G01*
X208130000Y-1735000D01*
G75*
G02*
X207980000Y-1585000I0J150000D01*
G01*
G37*
G04 #@! TD.AperFunction*
G04 #@! TO.P,U4,4,VCC*
G04 #@! TO.N,+3.3VA*
G04 #@! TA.AperFunction,SMDPad,CuDef*
G36*
G01*
X207980000Y-2855000D02*
X207980000Y-2555000D01*
G75*
G02*
X208130000Y-2405000I150000J0D01*
G01*
X209780000Y-2405000D01*
G75*
G02*
X209930000Y-2555000I0J-150000D01*
G01*
X209930000Y-2855000D01*
G75*
G02*
X209780000Y-3005000I-150000J0D01*
G01*
X208130000Y-3005000D01*
G75*
G02*
X207980000Y-2855000I0J150000D01*
G01*
G37*
G04 #@! TD.AperFunction*
G04 #@! TO.P,U4,5,SCK*
G04 #@! TO.N,/EGT/SPI_SCK*
G04 #@! TA.AperFunction,SMDPad,CuDef*
G36*
G01*
X212930000Y-2855000D02*
X212930000Y-2555000D01*
G75*
G02*
X213080000Y-2405000I150000J0D01*
G01*
X214730000Y-2405000D01*
G75*
G02*
X214880000Y-2555000I0J-150000D01*
G01*
X214880000Y-2855000D01*
G75*
G02*
X214730000Y-3005000I-150000J0D01*
G01*
X213080000Y-3005000D01*
G75*
G02*
X212930000Y-2855000I0J150000D01*
G01*
G37*
G04 #@! TD.AperFunction*
G04 #@! TO.P,U4,6,~{CS}*
G04 #@! TO.N,/EGT/SPI_CS*
G04 #@! TA.AperFunction,SMDPad,CuDef*
G36*
G01*
X212930000Y-1585000D02*
X212930000Y-1285000D01*
G75*
G02*
X213080000Y-1135000I150000J0D01*
G01*
X214730000Y-1135000D01*
G75*
G02*
X214880000Y-1285000I0J-150000D01*
G01*
X214880000Y-1585000D01*
G75*
G02*
X214730000Y-1735000I-150000J0D01*
G01*
X213080000Y-1735000D01*
G75*
G02*
X212930000Y-1585000I0J150000D01*
G01*
G37*
G04 #@! TD.AperFunction*
G04 #@! TO.P,U4,7,SO*
G04 #@! TO.N,/EGT/SPI_SO*
G04 #@! TA.AperFunction,SMDPad,CuDef*
G36*
G01*
X212930000Y-315000D02*
X212930000Y-15000D01*
G75*
G02*
X213080000Y135000I150000J0D01*
G01*
X214730000Y135000D01*
G75*
G02*
X214880000Y-15000I0J-150000D01*
G01*
X214880000Y-315000D01*
G75*
G02*
X214730000Y-465000I-150000J0D01*
G01*
X213080000Y-465000D01*
G75*
G02*
X212930000Y-315000I0J150000D01*
G01*
G37*
G04 #@! TD.AperFunction*
G04 #@! TO.P,U4,8*
G04 #@! TO.N,N/C*
G04 #@! TA.AperFunction,SMDPad,CuDef*
G36*
G01*
X212930000Y955000D02*
X212930000Y1255000D01*
G75*
G02*
X213080000Y1405000I150000J0D01*
G01*
X214730000Y1405000D01*
G75*
G02*
X214880000Y1255000I0J-150000D01*
G01*
X214880000Y955000D01*
G75*
G02*
X214730000Y805000I-150000J0D01*
G01*
X213080000Y805000D01*
G75*
G02*
X212930000Y955000I0J150000D01*
G01*
G37*
G04 #@! TD.AperFunction*
G04 #@! TD*
G04 #@! TO.P,C6,1*
G04 #@! TO.N,GND*
G04 #@! TA.AperFunction,SMDPad,CuDef*
G36*
G01*
X143895000Y-1605000D02*
X143895000Y-555000D01*
G75*
G02*
X143995000Y-455000I100000J0D01*
G01*
X144795000Y-455000D01*
G75*
G02*
X144895000Y-555000I0J-100000D01*
G01*
X144895000Y-1605000D01*
G75*
G02*
X144795000Y-1705000I-100000J0D01*
G01*
X143995000Y-1705000D01*
G75*
G02*
X143895000Y-1605000I0J100000D01*
G01*
G37*
G04 #@! TD.AperFunction*
G04 #@! TO.P,C6,2*
G04 #@! TO.N,/DC Driver 1/PWR*
G04 #@! TA.AperFunction,SMDPad,CuDef*
G36*
G01*
X145895000Y-1605000D02*
X145895000Y-555000D01*
G75*
G02*
X145995000Y-455000I100000J0D01*
G01*
X146795000Y-455000D01*
G75*
G02*
X146895000Y-555000I0J-100000D01*
G01*
X146895000Y-1605000D01*
G75*
G02*
X146795000Y-1705000I-100000J0D01*
G01*
X145995000Y-1705000D01*
G75*
G02*
X145895000Y-1605000I0J100000D01*
G01*
G37*
G04 #@! TD.AperFunction*
G04 #@! TD*
G04 #@! TO.P,R33,1*
G04 #@! TO.N,GND*
G04 #@! TA.AperFunction,SMDPad,CuDef*
G36*
G01*
X214685000Y95062221D02*
X214685000Y95842221D01*
G75*
G02*
X214755000Y95912221I70000J0D01*
G01*
X215315000Y95912221D01*
G75*
G02*
X215385000Y95842221I0J-70000D01*
G01*
X215385000Y95062221D01*
G75*
G02*
X215315000Y94992221I-70000J0D01*
G01*
X214755000Y94992221D01*
G75*
G02*
X214685000Y95062221I0J70000D01*
G01*
G37*
G04 #@! TD.AperFunction*
G04 #@! TO.P,R33,2*
G04 #@! TO.N,/INJ5*
G04 #@! TA.AperFunction,SMDPad,CuDef*
G36*
G01*
X216285000Y95062221D02*
X216285000Y95842221D01*
G75*
G02*
X216355000Y95912221I70000J0D01*
G01*
X216915000Y95912221D01*
G75*
G02*
X216985000Y95842221I0J-70000D01*
G01*
X216985000Y95062221D01*
G75*
G02*
X216915000Y94992221I-70000J0D01*
G01*
X216355000Y94992221D01*
G75*
G02*
X216285000Y95062221I0J70000D01*
G01*
G37*
G04 #@! TD.AperFunction*
G04 #@! TD*
G04 #@! TO.P,M4,E1,NC*
G04 #@! TO.N,unconnected-(M4-NC-PadE1)*
X172875000Y29225000D03*
G04 #@! TO.P,M4,E2,NC*
G04 #@! TO.N,unconnected-(M4-NC-PadE2)*
X172875000Y28025000D03*
G04 #@! TO.P,M4,E3,OUT*
G04 #@! TO.N,/VR2*
X172875000Y30425000D03*
G04 #@! TO.P,M4,E4,V5_IN*
G04 #@! TO.N,+5VA*
X172875000Y31625000D03*
D27*
G04 #@! TO.P,M4,G,GND*
G04 #@! TO.N,GND*
X158225000Y28957500D03*
D28*
X158225000Y22907500D03*
D29*
X165237500Y31925000D03*
D30*
X165650000Y22475000D03*
D31*
X173075000Y24937500D03*
D24*
G04 #@! TO.P,M4,W1,VR-*
G04 #@! TO.N,/VR2-*
X158450000Y25165000D03*
G04 #@! TO.P,M4,W2,VR+*
G04 #@! TO.N,/VR2+*
X158450000Y24165000D03*
G04 #@! TD*
G04 #@! TO.P,D8,1,K*
G04 #@! TO.N,Net-(U4-T+)*
G04 #@! TA.AperFunction,SMDPad,CuDef*
G36*
G01*
X211985000Y-5450000D02*
X211985000Y-5150000D01*
G75*
G02*
X212135000Y-5000000I150000J0D01*
G01*
X213310000Y-5000000D01*
G75*
G02*
X213460000Y-5150000I0J-150000D01*
G01*
X213460000Y-5450000D01*
G75*
G02*
X213310000Y-5600000I-150000J0D01*
G01*
X212135000Y-5600000D01*
G75*
G02*
X211985000Y-5450000I0J150000D01*
G01*
G37*
G04 #@! TD.AperFunction*
G04 #@! TO.P,D8,2,K*
G04 #@! TO.N,Net-(U4-T-)*
G04 #@! TA.AperFunction,SMDPad,CuDef*
G36*
G01*
X211985000Y-7350000D02*
X211985000Y-7050000D01*
G75*
G02*
X212135000Y-6900000I150000J0D01*
G01*
X213310000Y-6900000D01*
G75*
G02*
X213460000Y-7050000I0J-150000D01*
G01*
X213460000Y-7350000D01*
G75*
G02*
X213310000Y-7500000I-150000J0D01*
G01*
X212135000Y-7500000D01*
G75*
G02*
X211985000Y-7350000I0J150000D01*
G01*
G37*
G04 #@! TD.AperFunction*
G04 #@! TO.P,D8,3,A*
G04 #@! TO.N,GND*
G04 #@! TA.AperFunction,SMDPad,CuDef*
G36*
G01*
X213860000Y-6400000D02*
X213860000Y-6100000D01*
G75*
G02*
X214010000Y-5950000I150000J0D01*
G01*
X215185000Y-5950000D01*
G75*
G02*
X215335000Y-6100000I0J-150000D01*
G01*
X215335000Y-6400000D01*
G75*
G02*
X215185000Y-6550000I-150000J0D01*
G01*
X214010000Y-6550000D01*
G75*
G02*
X213860000Y-6400000I0J150000D01*
G01*
G37*
G04 #@! TD.AperFunction*
G04 #@! TD*
D13*
G04 #@! TO.P,Q18,1,G*
G04 #@! TO.N,/INJ6*
X206110000Y61150000D03*
G04 #@! TO.P,Q18,2,D*
G04 #@! TO.N,/OUT_INJ6*
X206110000Y58850000D03*
G04 #@! TO.P,Q18,3,S*
G04 #@! TO.N,GND*
X206110000Y56550000D03*
D14*
G04 #@! TO.P,Q18,4*
G04 #@! TO.N,N/C*
X212410000Y58850000D03*
G04 #@! TD*
G04 #@! TO.P,R27,1*
G04 #@! TO.N,/IGN5*
G04 #@! TA.AperFunction,SMDPad,CuDef*
G36*
G01*
X217255000Y29295000D02*
X217255000Y32145000D01*
G75*
G02*
X217505000Y32395000I250000J0D01*
G01*
X218230000Y32395000D01*
G75*
G02*
X218480000Y32145000I0J-250000D01*
G01*
X218480000Y29295000D01*
G75*
G02*
X218230000Y29045000I-250000J0D01*
G01*
X217505000Y29045000D01*
G75*
G02*
X217255000Y29295000I0J250000D01*
G01*
G37*
G04 #@! TD.AperFunction*
G04 #@! TO.P,R27,2*
G04 #@! TO.N,/OUT_IGN5*
G04 #@! TA.AperFunction,SMDPad,CuDef*
G36*
G01*
X223180000Y29295000D02*
X223180000Y32145000D01*
G75*
G02*
X223430000Y32395000I250000J0D01*
G01*
X224155000Y32395000D01*
G75*
G02*
X224405000Y32145000I0J-250000D01*
G01*
X224405000Y29295000D01*
G75*
G02*
X224155000Y29045000I-250000J0D01*
G01*
X223430000Y29045000D01*
G75*
G02*
X223180000Y29295000I0J250000D01*
G01*
G37*
G04 #@! TD.AperFunction*
G04 #@! TD*
D24*
G04 #@! TO.P,M6,E1,V5A_SWITCHABLE*
G04 #@! TO.N,+5VA*
X191775000Y74524990D03*
G04 #@! TO.P,M6,E2,GNDA*
G04 #@! TO.N,unconnected-(M6-GNDA-PadE2)*
X191775010Y78824990D03*
G04 #@! TO.P,M6,E3,I2C_SCL_(PB10)*
G04 #@! TO.N,unconnected-(M6-I2C_SCL_(PB10)-PadE3)*
X191775010Y79624980D03*
G04 #@! TO.P,M6,E4,I2C_SDA_(PB11)*
G04 #@! TO.N,unconnected-(M6-I2C_SDA_(PB11)-PadE4)*
X191775010Y80424990D03*
G04 #@! TO.P,M6,E5,IN_VIGN_(PA5)*
G04 #@! TO.N,/VIGN*
X191775010Y81224990D03*
G04 #@! TO.P,M6,E6,SPI2_CS_/_CAN2_RX_(PB12)*
G04 #@! TO.N,/DC2_DIS*
X191775010Y82024990D03*
G04 #@! TO.P,M6,E7,SPI2_SCK_/_CAN2_TX_(PB13)*
G04 #@! TO.N,/DC2_DIR*
X191775010Y82824990D03*
G04 #@! TO.P,M6,E8,SPI2_MISO_(PB14)*
G04 #@! TO.N,/DC1_DIS*
X191775010Y83624990D03*
G04 #@! TO.P,M6,E9,SPI2_MOSI_(PB15)*
G04 #@! TO.N,/IN_TLS115_PG*
X191775010Y84424990D03*
G04 #@! TO.P,M6,E10,OUT_INJ8_(PD12)*
G04 #@! TO.N,/LS2*
X191775010Y85224990D03*
G04 #@! TO.P,M6,E11,OUT_INJ7_(PD15)*
G04 #@! TO.N,/LS1*
X191775010Y86024990D03*
G04 #@! TO.P,M6,E12,OUT_INJ6_(PA8)*
G04 #@! TO.N,/INJ6*
X191775010Y86824990D03*
G04 #@! TO.P,M6,E13,OUT_INJ5_(PD2)*
G04 #@! TO.N,/INJ5*
X191775010Y87624990D03*
G04 #@! TO.P,M6,E14,OUT_INJ4_(PD10)*
G04 #@! TO.N,/INJ4*
X191775010Y88424990D03*
G04 #@! TO.P,M6,E15,OUT_INJ3_(PD11)*
G04 #@! TO.N,/INJ3*
X191775010Y89224990D03*
G04 #@! TO.P,M6,E16,OUT_INJ2_(PA9)*
G04 #@! TO.N,/INJ2*
X191775000Y90024980D03*
G04 #@! TO.P,M6,E17,OUT_INJ1_(PD3)*
G04 #@! TO.N,/INJ1*
X191775010Y90824990D03*
G04 #@! TO.P,M6,E18,OUT_PWM1_(PD13)*
G04 #@! TO.N,/LS3*
X191775010Y92224990D03*
G04 #@! TO.P,M6,E19,OUT_PWM2_(PC6)*
G04 #@! TO.N,/LS4*
X191775010Y93024980D03*
G04 #@! TO.P,M6,E20,OUT_PWM3_(PC7)*
G04 #@! TO.N,/DC1_PWM*
X191775010Y93824980D03*
G04 #@! TO.P,M6,E21,OUT_PWM4_(PC8)*
G04 #@! TO.N,/DC1_DIR*
X191775010Y94624980D03*
G04 #@! TO.P,M6,E22,OUT_PWM5_(PC9)*
G04 #@! TO.N,/DC2_PWM*
X191775010Y95424980D03*
G04 #@! TO.P,M6,E23,OUT_PWM6_(PD14)*
G04 #@! TO.N,/VR1_THRESHOLD*
X191775010Y96224990D03*
D32*
G04 #@! TO.P,M6,G,GND*
G04 #@! TO.N,GND*
X158175000Y101074980D03*
D33*
X158175000Y98024990D03*
D32*
X158175000Y94974980D03*
D34*
X158175000Y90524990D03*
D35*
X158175000Y76874990D03*
D36*
X158175000Y68874990D03*
D37*
X159975010Y67824980D03*
D38*
X162075000Y103624980D03*
D39*
X168125000Y103624980D03*
D40*
X171625000Y103624980D03*
D37*
X181375000Y103624980D03*
D38*
X188875000Y67824980D03*
D41*
X191975010Y100225000D03*
D33*
X191975010Y91524980D03*
D42*
X191975010Y76674980D03*
D43*
X191975010Y70874980D03*
D24*
G04 #@! TO.P,M6,N1,VBUS*
G04 #@! TO.N,/VBUS*
X191375010Y103424990D03*
G04 #@! TO.P,M6,N2,USBM_(PA11)*
G04 #@! TO.N,/USB-*
X190575010Y103424990D03*
G04 #@! TO.P,M6,N3,USBP_(PA12)*
G04 #@! TO.N,/USB+*
X189775010Y103424990D03*
G04 #@! TO.P,M6,N4,USBID_(PA10)*
G04 #@! TO.N,unconnected-(M6-USBID_(PA10)-PadN4)*
X188975000Y103424990D03*
G04 #@! TO.P,M6,N5,SWDIO_(PA13)*
G04 #@! TO.N,unconnected-(M6-SWDIO_(PA13)-PadN5)*
X188175010Y103424990D03*
G04 #@! TO.P,M6,N6,SWCLK_(PA14)*
G04 #@! TO.N,unconnected-(M6-SWCLK_(PA14)-PadN6)*
X187375010Y103424990D03*
G04 #@! TO.P,M6,N7,nReset*
G04 #@! TO.N,unconnected-(M6-nReset-PadN7)*
X186575010Y103424990D03*
G04 #@! TO.P,M6,N8,SWO_(PB3)*
G04 #@! TO.N,unconnected-(M6-SWO_(PB3)-PadN8)*
X185775000Y103424990D03*
G04 #@! TO.P,M6,N9,SPI3_CS_(PA15)*
G04 #@! TO.N,/EGT/SPI_CS*
X184975010Y103424980D03*
G04 #@! TO.P,M6,N10,SPI3_SCK_(PC10)*
G04 #@! TO.N,/EGT/SPI_SCK*
X184175010Y103424980D03*
G04 #@! TO.P,M6,N11,SPI3_MISO_(PC11)*
G04 #@! TO.N,/EGT/SPI_SO*
X183375010Y103424980D03*
G04 #@! TO.P,M6,N12,SPI3_MOSI_(PC12)*
G04 #@! TO.N,unconnected-(M6-SPI3_MOSI_(PC12)-PadN12)*
X182575010Y103424980D03*
G04 #@! TO.P,M6,N13,UART2_TX_(PD5)*
G04 #@! TO.N,unconnected-(M6-UART2_TX_(PD5)-PadN13)*
X180175000Y103424980D03*
G04 #@! TO.P,M6,N14,UART2_RX_(PD6)*
G04 #@! TO.N,unconnected-(M6-UART2_RX_(PD6)-PadN14)*
X179375000Y103424980D03*
G04 #@! TO.P,M6,N14a,LED_GREEN*
G04 #@! TO.N,unconnected-(M6-LED_GREEN-PadN14a)*
X178575010Y103424990D03*
G04 #@! TO.P,M6,N14b,LED_YELLOW*
G04 #@! TO.N,unconnected-(M6-LED_YELLOW-PadN14b)*
X177775000Y103424990D03*
G04 #@! TO.P,M6,N15,V33_SWITCHABLE*
G04 #@! TO.N,+3.3VA*
X176975000Y103424990D03*
G04 #@! TO.P,M6,N16,BOOT0*
G04 #@! TO.N,unconnected-(M6-BOOT0-PadN16)*
X176175000Y103424990D03*
G04 #@! TO.P,M6,N17,VBAT*
G04 #@! TO.N,/VBAT*
X175375000Y103424990D03*
G04 #@! TO.P,M6,N18,UART8_RX_(PE0)*
G04 #@! TO.N,/VR1*
X174575000Y103424980D03*
G04 #@! TO.P,M6,N19,UART8_TX_(PE1)*
G04 #@! TO.N,/VR2*
X173775000Y103424980D03*
G04 #@! TO.P,M6,N20,OUT_PWR_EN_(PE10)*
G04 #@! TO.N,/PWR_EN*
X169475000Y103424980D03*
G04 #@! TO.P,M6,N21,V33*
G04 #@! TO.N,+3.3V*
X166775000Y103424980D03*
G04 #@! TO.P,M6,N22,VCC*
G04 #@! TO.N,+5V*
X165775010Y103424980D03*
G04 #@! TO.P,M6,N23,V33*
G04 #@! TO.N,unconnected-(M6-V33-PadN23)*
X158375000Y103424980D03*
G04 #@! TO.P,M6,S1,IN_D4_(PE15)*
G04 #@! TO.N,/IN_BUTTON3*
X185175020Y68024980D03*
G04 #@! TO.P,M6,S2,IN_D3_(PE14)*
G04 #@! TO.N,/IN_HALL3*
X183975010Y68024980D03*
G04 #@! TO.P,M6,S3,IN_D2_(PE13)*
G04 #@! TO.N,/IN_HALL2*
X182775010Y68024980D03*
G04 #@! TO.P,M6,S4,IN_D1_(PE12)*
G04 #@! TO.N,/IN_HALL1*
X181575010Y68024980D03*
G04 #@! TO.P,M6,S5,VREF2*
G04 #@! TO.N,/VREF2*
X180375010Y68024980D03*
G04 #@! TO.P,M6,S6,IN_AUX4_(PA7)*
G04 #@! TO.N,/IN_VMAIN*
X179175010Y68024980D03*
G04 #@! TO.P,M6,S7,IN_AUX3_(PC5)*
G04 #@! TO.N,/IN_AUX3*
X177975010Y68024980D03*
G04 #@! TO.P,M6,S8,IN_AUX2_(PC4/PE9)*
G04 #@! TO.N,/IN_PPS2*
X176775010Y68024980D03*
G04 #@! TO.P,M6,S9,IN_AUX1_(PB0)*
G04 #@! TO.N,/IN_TPS2*
X175575010Y68024980D03*
G04 #@! TO.P,M6,S10,IN_O2S2_(PA1)*
G04 #@! TO.N,/IN_AUX2*
X174375010Y68024980D03*
G04 #@! TO.P,M6,S11,IN_O2S_/_CAN_WAKEUP_(PA0)*
G04 #@! TO.N,/IN_AUX1*
X173175010Y68024980D03*
G04 #@! TO.P,M6,S12,IN_MAP2_(PC1)*
G04 #@! TO.N,/INTERNAL_MAP*
X171975010Y68024980D03*
G04 #@! TO.P,M6,S13,IN_MAP1_(PC0)*
G04 #@! TO.N,/IN_MAP*
X170775010Y68024980D03*
G04 #@! TO.P,M6,S14,IN_CRANK_(PB1)*
G04 #@! TO.N,/IN_BUTTON1*
X169575010Y68024980D03*
G04 #@! TO.P,M6,S15,IN_KNOCK_(PA2)*
G04 #@! TO.N,/ADC3*
X168375010Y68024980D03*
G04 #@! TO.P,M6,S16,IN_CAM_(PA6)*
G04 #@! TO.N,/IN_BUTTON2*
X167175010Y68024980D03*
G04 #@! TO.P,M6,S17,IN_VSS_(PE11)*
G04 #@! TO.N,/IN_FLEX*
X165975010Y68024980D03*
G04 #@! TO.P,M6,S18,IN_TPS_(PA4)*
G04 #@! TO.N,/IN_TPS1*
X164775000Y68024980D03*
G04 #@! TO.P,M6,S19,IN_PPS_(PA3)*
G04 #@! TO.N,/IN_PPS1*
X163575000Y68024980D03*
G04 #@! TO.P,M6,S20,IN_IAT_(PC3)*
G04 #@! TO.N,/IN_IAT*
X162375000Y68024980D03*
G04 #@! TO.P,M6,S21,IN_CLT_(PC2)*
G04 #@! TO.N,/IN_CLT*
X161175000Y68024980D03*
G04 #@! TO.P,M6,S22,VREF1*
G04 #@! TO.N,unconnected-(M6-VREF1-PadS22)*
X158775000Y68024980D03*
G04 #@! TO.P,M6,W1,GNDA*
G04 #@! TO.N,GNDA*
X158375000Y70524990D03*
G04 #@! TO.P,M6,W2,V5A_SWITCHABLE*
G04 #@! TO.N,+5VA*
X158375000Y71524990D03*
G04 #@! TO.P,M6,W3,IGN8_(PE6)*
G04 #@! TO.N,/LS_WEAK2*
X158375000Y82224980D03*
G04 #@! TO.P,M6,W4,IGN7_(PB9)*
G04 #@! TO.N,/LS_WEAK1*
X158375000Y83224990D03*
G04 #@! TO.P,M6,W5,IGN6_(PB8)*
G04 #@! TO.N,/IGN6*
X158375000Y84224980D03*
G04 #@! TO.P,M6,W6,IGN5_(PE2)*
G04 #@! TO.N,/IGN5*
X158375000Y85224980D03*
G04 #@! TO.P,M6,W7,IGN4_(PE3)*
G04 #@! TO.N,/IGN4*
X158375000Y86224980D03*
G04 #@! TO.P,M6,W8,IGN3_(PE4)*
G04 #@! TO.N,/IGN3*
X158375000Y87224980D03*
G04 #@! TO.P,M6,W9,IGN2_(PE5)*
G04 #@! TO.N,/IGN2*
X158375000Y88224980D03*
G04 #@! TO.P,M6,W10,IGN1_(PC13)*
G04 #@! TO.N,/IGN1*
X158375000Y89224980D03*
G04 #@! TO.P,M6,W11,CANH*
G04 #@! TO.N,/CAN+*
X158375000Y91824980D03*
G04 #@! TO.P,M6,W12,CANL*
G04 #@! TO.N,/CAN-*
X158375000Y92624980D03*
G04 #@! TO.P,M6,W13,V33_REF*
G04 #@! TO.N,unconnected-(M6-V33_REF-PadW13)*
X158375000Y97324990D03*
G04 #@! TO.P,M6,W14,V5A_SWITCHABLE*
G04 #@! TO.N,unconnected-(M6-V5A_SWITCHABLE-PadW14)*
X158375000Y98724980D03*
G04 #@! TD*
G04 #@! TO.P,R34,1*
G04 #@! TO.N,GND*
G04 #@! TA.AperFunction,SMDPad,CuDef*
G36*
G01*
X214685000Y93113175D02*
X214685000Y93893175D01*
G75*
G02*
X214755000Y93963175I70000J0D01*
G01*
X215315000Y93963175D01*
G75*
G02*
X215385000Y93893175I0J-70000D01*
G01*
X215385000Y93113175D01*
G75*
G02*
X215315000Y93043175I-70000J0D01*
G01*
X214755000Y93043175D01*
G75*
G02*
X214685000Y93113175I0J70000D01*
G01*
G37*
G04 #@! TD.AperFunction*
G04 #@! TO.P,R34,2*
G04 #@! TO.N,/INJ6*
G04 #@! TA.AperFunction,SMDPad,CuDef*
G36*
G01*
X216285000Y93113175D02*
X216285000Y93893175D01*
G75*
G02*
X216355000Y93963175I70000J0D01*
G01*
X216915000Y93963175D01*
G75*
G02*
X216985000Y93893175I0J-70000D01*
G01*
X216985000Y93113175D01*
G75*
G02*
X216915000Y93043175I-70000J0D01*
G01*
X216355000Y93043175D01*
G75*
G02*
X216285000Y93113175I0J70000D01*
G01*
G37*
G04 #@! TD.AperFunction*
G04 #@! TD*
G04 #@! TO.P,C20,1*
G04 #@! TO.N,GND*
G04 #@! TA.AperFunction,SMDPad,CuDef*
G36*
G01*
X163045000Y-3855000D02*
X163045000Y-2805000D01*
G75*
G02*
X163145000Y-2705000I100000J0D01*
G01*
X163945000Y-2705000D01*
G75*
G02*
X164045000Y-2805000I0J-100000D01*
G01*
X164045000Y-3855000D01*
G75*
G02*
X163945000Y-3955000I-100000J0D01*
G01*
X163145000Y-3955000D01*
G75*
G02*
X163045000Y-3855000I0J100000D01*
G01*
G37*
G04 #@! TD.AperFunction*
G04 #@! TO.P,C20,2*
G04 #@! TO.N,/DC Driver 2/PWR*
G04 #@! TA.AperFunction,SMDPad,CuDef*
G36*
G01*
X165045000Y-3855000D02*
X165045000Y-2805000D01*
G75*
G02*
X165145000Y-2705000I100000J0D01*
G01*
X165945000Y-2705000D01*
G75*
G02*
X166045000Y-2805000I0J-100000D01*
G01*
X166045000Y-3855000D01*
G75*
G02*
X165945000Y-3955000I-100000J0D01*
G01*
X165145000Y-3955000D01*
G75*
G02*
X165045000Y-3855000I0J100000D01*
G01*
G37*
G04 #@! TD.AperFunction*
G04 #@! TD*
G04 #@! TO.P,C24,1*
G04 #@! TO.N,GND*
G04 #@! TA.AperFunction,SMDPad,CuDef*
G36*
G01*
X167045000Y355014D02*
X167045000Y1035014D01*
G75*
G02*
X167130000Y1120014I85000J0D01*
G01*
X167810000Y1120014D01*
G75*
G02*
X167895000Y1035014I0J-85000D01*
G01*
X167895000Y355014D01*
G75*
G02*
X167810000Y270014I-85000J0D01*
G01*
X167130000Y270014D01*
G75*
G02*
X167045000Y355014I0J85000D01*
G01*
G37*
G04 #@! TD.AperFunction*
G04 #@! TO.P,C24,2*
G04 #@! TO.N,/DC Driver 2/PWR*
G04 #@! TA.AperFunction,SMDPad,CuDef*
G36*
G01*
X168625002Y355014D02*
X168625002Y1035014D01*
G75*
G02*
X168710002Y1120014I85000J0D01*
G01*
X169390002Y1120014D01*
G75*
G02*
X169475002Y1035014I0J-85000D01*
G01*
X169475002Y355014D01*
G75*
G02*
X169390002Y270014I-85000J0D01*
G01*
X168710002Y270014D01*
G75*
G02*
X168625002Y355014I0J85000D01*
G01*
G37*
G04 #@! TD.AperFunction*
G04 #@! TD*
D15*
G04 #@! TO.P,H1,1*
G04 #@! TO.N,N/C*
X194150000Y100250000D03*
X194852944Y101947056D03*
X194852944Y98552944D03*
X196550000Y102650000D03*
D16*
X196550000Y100250000D03*
D15*
X196550000Y97850000D03*
X198247056Y101947056D03*
X198247056Y98552944D03*
X198950000Y100250000D03*
G04 #@! TD*
D13*
G04 #@! TO.P,Q15,1,G*
G04 #@! TO.N,/INJ3*
X206110000Y85900000D03*
G04 #@! TO.P,Q15,2,D*
G04 #@! TO.N,/OUT_INJ3*
X206110000Y83600000D03*
G04 #@! TO.P,Q15,3,S*
G04 #@! TO.N,GND*
X206110000Y81300000D03*
D14*
G04 #@! TO.P,Q15,4*
G04 #@! TO.N,N/C*
X212410000Y83600000D03*
G04 #@! TD*
G04 #@! TO.P,Q5,1,G*
G04 #@! TO.N,/LS_WEAK1*
G04 #@! TA.AperFunction,SMDPad,CuDef*
G36*
G01*
X182465000Y970000D02*
X182465000Y1270000D01*
G75*
G02*
X182615000Y1420000I150000J0D01*
G01*
X183790000Y1420000D01*
G75*
G02*
X183940000Y1270000I0J-150000D01*
G01*
X183940000Y970000D01*
G75*
G02*
X183790000Y820000I-150000J0D01*
G01*
X182615000Y820000D01*
G75*
G02*
X182465000Y970000I0J150000D01*
G01*
G37*
G04 #@! TD.AperFunction*
G04 #@! TO.P,Q5,2,D*
G04 #@! TO.N,/OUT_LS_WEAK1*
G04 #@! TA.AperFunction,SMDPad,CuDef*
G36*
G01*
X184340000Y20000D02*
X184340000Y320000D01*
G75*
G02*
X184490000Y470000I150000J0D01*
G01*
X185665000Y470000D01*
G75*
G02*
X185815000Y320000I0J-150000D01*
G01*
X185815000Y20000D01*
G75*
G02*
X185665000Y-130000I-150000J0D01*
G01*
X184490000Y-130000D01*
G75*
G02*
X184340000Y20000I0J150000D01*
G01*
G37*
G04 #@! TD.AperFunction*
G04 #@! TO.P,Q5,3,S*
G04 #@! TO.N,GND*
G04 #@! TA.AperFunction,SMDPad,CuDef*
G36*
G01*
X182465000Y-930000D02*
X182465000Y-630000D01*
G75*
G02*
X182615000Y-480000I150000J0D01*
G01*
X183790000Y-480000D01*
G75*
G02*
X183940000Y-630000I0J-150000D01*
G01*
X183940000Y-930000D01*
G75*
G02*
X183790000Y-1080000I-150000J0D01*
G01*
X182615000Y-1080000D01*
G75*
G02*
X182465000Y-930000I0J150000D01*
G01*
G37*
G04 #@! TD.AperFunction*
G04 #@! TD*
D11*
G04 #@! TO.P,U2,1,DIR*
G04 #@! TO.N,/DC2_DIR*
X168320000Y8970000D03*
G04 #@! TO.P,U2,2,VSO*
G04 #@! TO.N,+3.3V*
X168320000Y7970000D03*
G04 #@! TO.P,U2,3,SO*
G04 #@! TO.N,unconnected-(U2-SO-Pad3)*
X168320000Y6970000D03*
G04 #@! TO.P,U2,4,VS*
G04 #@! TO.N,/DC Driver 2/PWR*
X168320000Y5970000D03*
G04 #@! TO.P,U2,5,OUT1*
G04 #@! TO.N,/OUT_DC2-*
X168320000Y4970000D03*
G04 #@! TO.P,U2,6,GND*
G04 #@! TO.N,GND*
X168320000Y3970000D03*
G04 #@! TO.P,U2,7,OUT2*
G04 #@! TO.N,/OUT_DC2+*
X177920000Y3970000D03*
G04 #@! TO.P,U2,8,SI*
G04 #@! TO.N,GND*
X177920000Y4970000D03*
G04 #@! TO.P,U2,9,CSN*
X177920000Y5970000D03*
G04 #@! TO.P,U2,10,SCK*
X177920000Y6970000D03*
G04 #@! TO.P,U2,11,DIS*
G04 #@! TO.N,/DC2_DIS*
X177920000Y7970000D03*
G04 #@! TO.P,U2,12,PWM*
G04 #@! TO.N,/DC2_PWM*
X177920000Y8970000D03*
D12*
G04 #@! TO.P,U2,13,GND*
G04 #@! TO.N,GND*
X173120000Y6470000D03*
G04 #@! TD*
G04 #@! TO.P,Q9,1,G*
G04 #@! TO.N,Net-(Q9-G)*
G04 #@! TA.AperFunction,SMDPad,CuDef*
G36*
G01*
X205110000Y34530000D02*
X205110000Y35230000D01*
G75*
G02*
X205360000Y35480000I250000J0D01*
G01*
X207060000Y35480000D01*
G75*
G02*
X207310000Y35230000I0J-250000D01*
G01*
X207310000Y34530000D01*
G75*
G02*
X207060000Y34280000I-250000J0D01*
G01*
X205360000Y34280000D01*
G75*
G02*
X205110000Y34530000I0J250000D01*
G01*
G37*
G04 #@! TD.AperFunction*
G04 #@! TO.P,Q9,2,C*
G04 #@! TO.N,/OUT_IGN3*
G04 #@! TA.AperFunction,SMDPad,CuDef*
G36*
G01*
X209310000Y33000000D02*
X209310000Y35250000D01*
G75*
G02*
X209560000Y35500000I250000J0D01*
G01*
X212110000Y35500000D01*
G75*
G02*
X212360000Y35250000I0J-250000D01*
G01*
X212360000Y33000000D01*
G75*
G02*
X212110000Y32750000I-250000J0D01*
G01*
X209560000Y32750000D01*
G75*
G02*
X209310000Y33000000I0J250000D01*
G01*
G37*
G04 #@! TD.AperFunction*
G04 #@! TA.AperFunction,SMDPad,CuDef*
G36*
G01*
X209310000Y29950000D02*
X209310000Y32200000D01*
G75*
G02*
X209560000Y32450000I250000J0D01*
G01*
X212110000Y32450000D01*
G75*
G02*
X212360000Y32200000I0J-250000D01*
G01*
X212360000Y29950000D01*
G75*
G02*
X212110000Y29700000I-250000J0D01*
G01*
X209560000Y29700000D01*
G75*
G02*
X209310000Y29950000I0J250000D01*
G01*
G37*
G04 #@! TD.AperFunction*
G04 #@! TA.AperFunction,SMDPad,CuDef*
G36*
G01*
X209310000Y29949997D02*
X209310000Y35250003D01*
G75*
G02*
X209559997Y35500000I249997J0D01*
G01*
X215460003Y35500000D01*
G75*
G02*
X215710000Y35250003I0J-249997D01*
G01*
X215710000Y29949997D01*
G75*
G02*
X215460003Y29700000I-249997J0D01*
G01*
X209559997Y29700000D01*
G75*
G02*
X209310000Y29949997I0J249997D01*
G01*
G37*
G04 #@! TD.AperFunction*
G04 #@! TA.AperFunction,SMDPad,CuDef*
G36*
G01*
X212660000Y33000000D02*
X212660000Y35250000D01*
G75*
G02*
X212910000Y35500000I250000J0D01*
G01*
X215460000Y35500000D01*
G75*
G02*
X215710000Y35250000I0J-250000D01*
G01*
X215710000Y33000000D01*
G75*
G02*
X215460000Y32750000I-250000J0D01*
G01*
X212910000Y32750000D01*
G75*
G02*
X212660000Y33000000I0J250000D01*
G01*
G37*
G04 #@! TD.AperFunction*
G04 #@! TA.AperFunction,SMDPad,CuDef*
G36*
G01*
X212660000Y29950000D02*
X212660000Y32200000D01*
G75*
G02*
X212910000Y32450000I250000J0D01*
G01*
X215460000Y32450000D01*
G75*
G02*
X215710000Y32200000I0J-250000D01*
G01*
X215710000Y29950000D01*
G75*
G02*
X215460000Y29700000I-250000J0D01*
G01*
X212910000Y29700000D01*
G75*
G02*
X212660000Y29950000I0J250000D01*
G01*
G37*
G04 #@! TD.AperFunction*
G04 #@! TO.P,Q9,3,E*
G04 #@! TO.N,GND*
G04 #@! TA.AperFunction,SMDPad,CuDef*
G36*
G01*
X205110000Y29970000D02*
X205110000Y30670000D01*
G75*
G02*
X205360000Y30920000I250000J0D01*
G01*
X207060000Y30920000D01*
G75*
G02*
X207310000Y30670000I0J-250000D01*
G01*
X207310000Y29970000D01*
G75*
G02*
X207060000Y29720000I-250000J0D01*
G01*
X205360000Y29720000D01*
G75*
G02*
X205110000Y29970000I0J250000D01*
G01*
G37*
G04 #@! TD.AperFunction*
G04 #@! TD*
G04 #@! TO.P,D5,1,K*
G04 #@! TO.N,+12V_RAW*
G04 #@! TA.AperFunction,SMDPad,CuDef*
G36*
G01*
X230045000Y92795000D02*
X230045000Y93815000D01*
G75*
G02*
X230135000Y93905000I90000J0D01*
G01*
X230855000Y93905000D01*
G75*
G02*
X230945000Y93815000I0J-90000D01*
G01*
X230945000Y92795000D01*
G75*
G02*
X230855000Y92705000I-90000J0D01*
G01*
X230135000Y92705000D01*
G75*
G02*
X230045000Y92795000I0J90000D01*
G01*
G37*
G04 #@! TD.AperFunction*
G04 #@! TO.P,D5,2,A*
G04 #@! TO.N,/OUT_LS4*
G04 #@! TA.AperFunction,SMDPad,CuDef*
G36*
G01*
X233345000Y92795000D02*
X233345000Y93815000D01*
G75*
G02*
X233435000Y93905000I90000J0D01*
G01*
X234155000Y93905000D01*
G75*
G02*
X234245000Y93815000I0J-90000D01*
G01*
X234245000Y92795000D01*
G75*
G02*
X234155000Y92705000I-90000J0D01*
G01*
X233435000Y92705000D01*
G75*
G02*
X233345000Y92795000I0J90000D01*
G01*
G37*
G04 #@! TD.AperFunction*
G04 #@! TD*
G04 #@! TO.P,C19,1*
G04 #@! TO.N,GND*
G04 #@! TA.AperFunction,SMDPad,CuDef*
G36*
G01*
X163045000Y-1605000D02*
X163045000Y-555000D01*
G75*
G02*
X163145000Y-455000I100000J0D01*
G01*
X163945000Y-455000D01*
G75*
G02*
X164045000Y-555000I0J-100000D01*
G01*
X164045000Y-1605000D01*
G75*
G02*
X163945000Y-1705000I-100000J0D01*
G01*
X163145000Y-1705000D01*
G75*
G02*
X163045000Y-1605000I0J100000D01*
G01*
G37*
G04 #@! TD.AperFunction*
G04 #@! TO.P,C19,2*
G04 #@! TO.N,/DC Driver 2/PWR*
G04 #@! TA.AperFunction,SMDPad,CuDef*
G36*
G01*
X165045000Y-1605000D02*
X165045000Y-555000D01*
G75*
G02*
X165145000Y-455000I100000J0D01*
G01*
X165945000Y-455000D01*
G75*
G02*
X166045000Y-555000I0J-100000D01*
G01*
X166045000Y-1605000D01*
G75*
G02*
X165945000Y-1705000I-100000J0D01*
G01*
X165145000Y-1705000D01*
G75*
G02*
X165045000Y-1605000I0J100000D01*
G01*
G37*
G04 #@! TD.AperFunction*
G04 #@! TD*
G04 #@! TO.P,J2,1,Pin_1*
G04 #@! TO.N,+5VP*
G04 #@! TA.AperFunction,ComponentPad*
G36*
G01*
X114450000Y64400001D02*
X114450000Y67599999D01*
G75*
G02*
X114700001Y67850000I250001J0D01*
G01*
X116899999Y67850000D01*
G75*
G02*
X117150000Y67599999I0J-250001D01*
G01*
X117150000Y64400001D01*
G75*
G02*
X116899999Y64150000I-250001J0D01*
G01*
X114700001Y64150000D01*
G75*
G02*
X114450000Y64400001I0J250001D01*
G01*
G37*
G04 #@! TD.AperFunction*
D17*
G04 #@! TO.P,J2,2,Pin_2*
X120000000Y66000000D03*
G04 #@! TO.P,J2,3,Pin_3*
G04 #@! TO.N,/IN_BUTTON2*
X124200000Y66000000D03*
G04 #@! TO.P,J2,4,Pin_4*
G04 #@! TO.N,/IN_BUTTON1*
X128400000Y66000000D03*
G04 #@! TO.P,J2,5,Pin_5*
G04 #@! TO.N,/IN_HALL3*
X132600000Y66000000D03*
G04 #@! TO.P,J2,6,Pin_6*
G04 #@! TO.N,/IN_HALL2*
X136800000Y66000000D03*
G04 #@! TO.P,J2,7,Pin_7*
G04 #@! TO.N,/IN_HALL1*
X141000000Y66000000D03*
G04 #@! TO.P,J2,8,Pin_8*
G04 #@! TO.N,GND*
X145200000Y66000000D03*
G04 #@! TO.P,J2,9,Pin_9*
G04 #@! TO.N,/IN_MAP*
X149400000Y66000000D03*
G04 #@! TO.P,J2,10,Pin_10*
G04 #@! TO.N,/EGT+*
X153600000Y66000000D03*
G04 #@! TO.P,J2,11,Pin_11*
G04 #@! TO.N,GNDA*
X115800000Y60500000D03*
G04 #@! TO.P,J2,12,Pin_12*
X120000000Y60500000D03*
G04 #@! TO.P,J2,13,Pin_13*
G04 #@! TO.N,/IN_BUTTON3*
X124200000Y60500000D03*
G04 #@! TO.P,J2,14,Pin_14*
G04 #@! TO.N,/IN_KNOCK_RAW*
X128400000Y60500000D03*
G04 #@! TO.P,J2,15,Pin_15*
G04 #@! TO.N,/IN_FLEX*
X132600000Y60500000D03*
G04 #@! TO.P,J2,16,Pin_16*
G04 #@! TO.N,/VR2-*
X136800000Y60500000D03*
G04 #@! TO.P,J2,17,Pin_17*
G04 #@! TO.N,/VR2+*
X141000000Y60500000D03*
G04 #@! TO.P,J2,18,Pin_18*
G04 #@! TO.N,/VR1-*
X145200000Y60500000D03*
G04 #@! TO.P,J2,19,Pin_19*
G04 #@! TO.N,/VR1+*
X149400000Y60500000D03*
G04 #@! TO.P,J2,20,Pin_20*
G04 #@! TO.N,/EGT-*
X153600000Y60500000D03*
G04 #@! TD*
G04 #@! TO.P,C4,1*
G04 #@! TO.N,GND*
G04 #@! TA.AperFunction,SMDPad,CuDef*
G36*
G01*
X143895000Y2895000D02*
X143895000Y3945000D01*
G75*
G02*
X143995000Y4045000I100000J0D01*
G01*
X144795000Y4045000D01*
G75*
G02*
X144895000Y3945000I0J-100000D01*
G01*
X144895000Y2895000D01*
G75*
G02*
X144795000Y2795000I-100000J0D01*
G01*
X143995000Y2795000D01*
G75*
G02*
X143895000Y2895000I0J100000D01*
G01*
G37*
G04 #@! TD.AperFunction*
G04 #@! TO.P,C4,2*
G04 #@! TO.N,/DC Driver 1/PWR*
G04 #@! TA.AperFunction,SMDPad,CuDef*
G36*
G01*
X145895000Y2895000D02*
X145895000Y3945000D01*
G75*
G02*
X145995000Y4045000I100000J0D01*
G01*
X146795000Y4045000D01*
G75*
G02*
X146895000Y3945000I0J-100000D01*
G01*
X146895000Y2895000D01*
G75*
G02*
X146795000Y2795000I-100000J0D01*
G01*
X145995000Y2795000D01*
G75*
G02*
X145895000Y2895000I0J100000D01*
G01*
G37*
G04 #@! TD.AperFunction*
G04 #@! TD*
D19*
G04 #@! TO.P,F3,1,1*
G04 #@! TO.N,+12V*
X134835000Y26525000D03*
G04 #@! TA.AperFunction,SMDPad,CuDef*
G36*
G01*
X136179990Y25625000D02*
X135489990Y25625000D01*
G75*
G02*
X135259990Y25855000I0J230000D01*
G01*
X135259990Y27195000D01*
G75*
G02*
X135489990Y27425000I230000J0D01*
G01*
X136179990Y27425000D01*
G75*
G02*
X136409990Y27195000I0J-230000D01*
G01*
X136409990Y25855000D01*
G75*
G02*
X136179990Y25625000I-230000J0D01*
G01*
G37*
G04 #@! TD.AperFunction*
G04 #@! TO.P,F3,2,2*
G04 #@! TO.N,/DC Driver 1/PWR*
G04 #@! TA.AperFunction,SMDPad,CuDef*
G36*
G01*
X139080010Y25625000D02*
X138390010Y25625000D01*
G75*
G02*
X138160010Y25855000I0J230000D01*
G01*
X138160010Y27195000D01*
G75*
G02*
X138390010Y27425000I230000J0D01*
G01*
X139080010Y27425000D01*
G75*
G02*
X139310010Y27195000I0J-230000D01*
G01*
X139310010Y25855000D01*
G75*
G02*
X139080010Y25625000I-230000J0D01*
G01*
G37*
G04 #@! TD.AperFunction*
X139735000Y26525000D03*
G04 #@! TD*
D15*
G04 #@! TO.P,H3,1*
G04 #@! TO.N,N/C*
X194150000Y84350000D03*
X194852944Y86047056D03*
X194852944Y82652944D03*
X196550000Y86750000D03*
D16*
X196550000Y84350000D03*
D15*
X196550000Y81950000D03*
X198247056Y86047056D03*
X198247056Y82652944D03*
X198950000Y84350000D03*
G04 #@! TD*
G04 #@! TO.P,R23,1*
G04 #@! TO.N,Net-(Q10-G)*
G04 #@! TA.AperFunction,SMDPad,CuDef*
G36*
G01*
X216985000Y16171267D02*
X216985000Y16951267D01*
G75*
G02*
X217055000Y17021267I70000J0D01*
G01*
X217615000Y17021267D01*
G75*
G02*
X217685000Y16951267I0J-70000D01*
G01*
X217685000Y16171267D01*
G75*
G02*
X217615000Y16101267I-70000J0D01*
G01*
X217055000Y16101267D01*
G75*
G02*
X216985000Y16171267I0J70000D01*
G01*
G37*
G04 #@! TD.AperFunction*
G04 #@! TO.P,R23,2*
G04 #@! TO.N,/IGN4*
G04 #@! TA.AperFunction,SMDPad,CuDef*
G36*
G01*
X218585000Y16171267D02*
X218585000Y16951267D01*
G75*
G02*
X218655000Y17021267I70000J0D01*
G01*
X219215000Y17021267D01*
G75*
G02*
X219285000Y16951267I0J-70000D01*
G01*
X219285000Y16171267D01*
G75*
G02*
X219215000Y16101267I-70000J0D01*
G01*
X218655000Y16101267D01*
G75*
G02*
X218585000Y16171267I0J70000D01*
G01*
G37*
G04 #@! TD.AperFunction*
G04 #@! TD*
D13*
G04 #@! TO.P,Q17,1,G*
G04 #@! TO.N,/INJ5*
X206110000Y69400000D03*
G04 #@! TO.P,Q17,2,D*
G04 #@! TO.N,/OUT_INJ5*
X206110000Y67100000D03*
G04 #@! TO.P,Q17,3,S*
G04 #@! TO.N,GND*
X206110000Y64800000D03*
D14*
G04 #@! TO.P,Q17,4*
G04 #@! TO.N,N/C*
X212410000Y67100000D03*
G04 #@! TD*
G04 #@! TO.P,R4,1*
G04 #@! TO.N,/VR2-*
G04 #@! TA.AperFunction,SMDPad,CuDef*
G36*
G01*
X112845000Y14875000D02*
X112845000Y17725000D01*
G75*
G02*
X113095000Y17975000I250000J0D01*
G01*
X113820000Y17975000D01*
G75*
G02*
X114070000Y17725000I0J-250000D01*
G01*
X114070000Y14875000D01*
G75*
G02*
X113820000Y14625000I-250000J0D01*
G01*
X113095000Y14625000D01*
G75*
G02*
X112845000Y14875000I0J250000D01*
G01*
G37*
G04 #@! TD.AperFunction*
G04 #@! TO.P,R4,2*
G04 #@! TO.N,Net-(R1-Pad2)*
G04 #@! TA.AperFunction,SMDPad,CuDef*
G36*
G01*
X118770000Y14875000D02*
X118770000Y17725000D01*
G75*
G02*
X119020000Y17975000I250000J0D01*
G01*
X119745000Y17975000D01*
G75*
G02*
X119995000Y17725000I0J-250000D01*
G01*
X119995000Y14875000D01*
G75*
G02*
X119745000Y14625000I-250000J0D01*
G01*
X119020000Y14625000D01*
G75*
G02*
X118770000Y14875000I0J250000D01*
G01*
G37*
G04 #@! TD.AperFunction*
G04 #@! TD*
D13*
G04 #@! TO.P,Q14,1,G*
G04 #@! TO.N,/INJ2*
X206110000Y94150000D03*
G04 #@! TO.P,Q14,2,D*
G04 #@! TO.N,/OUT_INJ2*
X206110000Y91850000D03*
G04 #@! TO.P,Q14,3,S*
G04 #@! TO.N,GND*
X206110000Y89550000D03*
D14*
G04 #@! TO.P,Q14,4*
G04 #@! TO.N,N/C*
X212410000Y91850000D03*
G04 #@! TD*
G04 #@! TO.P,C10,1*
G04 #@! TO.N,GND*
G04 #@! TA.AperFunction,SMDPad,CuDef*
G36*
G01*
X143895000Y-10605000D02*
X143895000Y-9555000D01*
G75*
G02*
X143995000Y-9455000I100000J0D01*
G01*
X144795000Y-9455000D01*
G75*
G02*
X144895000Y-9555000I0J-100000D01*
G01*
X144895000Y-10605000D01*
G75*
G02*
X144795000Y-10705000I-100000J0D01*
G01*
X143995000Y-10705000D01*
G75*
G02*
X143895000Y-10605000I0J100000D01*
G01*
G37*
G04 #@! TD.AperFunction*
G04 #@! TO.P,C10,2*
G04 #@! TO.N,/DC Driver 1/PWR*
G04 #@! TA.AperFunction,SMDPad,CuDef*
G36*
G01*
X145895000Y-10605000D02*
X145895000Y-9555000D01*
G75*
G02*
X145995000Y-9455000I100000J0D01*
G01*
X146795000Y-9455000D01*
G75*
G02*
X146895000Y-9555000I0J-100000D01*
G01*
X146895000Y-10605000D01*
G75*
G02*
X146795000Y-10705000I-100000J0D01*
G01*
X145995000Y-10705000D01*
G75*
G02*
X145895000Y-10605000I0J100000D01*
G01*
G37*
G04 #@! TD.AperFunction*
G04 #@! TD*
D19*
G04 #@! TO.P,R6,1,1*
G04 #@! TO.N,/IN_KNOCK*
X193450391Y16248827D03*
G04 #@! TA.AperFunction,SMDPad,CuDef*
G36*
G01*
X193905390Y15623827D02*
X193905390Y16873827D01*
G75*
G02*
X194005390Y16973827I100000J0D01*
G01*
X194805390Y16973827D01*
G75*
G02*
X194905390Y16873827I0J-100000D01*
G01*
X194905390Y15623827D01*
G75*
G02*
X194805390Y15523827I-100000J0D01*
G01*
X194005390Y15523827D01*
G75*
G02*
X193905390Y15623827I0J100000D01*
G01*
G37*
G04 #@! TD.AperFunction*
G04 #@! TO.P,R6,2,2*
G04 #@! TO.N,/ADC3*
G04 #@! TA.AperFunction,SMDPad,CuDef*
G36*
G01*
X195805412Y15623827D02*
X195805412Y16873827D01*
G75*
G02*
X195905412Y16973827I100000J0D01*
G01*
X196705412Y16973827D01*
G75*
G02*
X196805412Y16873827I0J-100000D01*
G01*
X196805412Y15623827D01*
G75*
G02*
X196705412Y15523827I-100000J0D01*
G01*
X195905412Y15523827D01*
G75*
G02*
X195805412Y15623827I0J100000D01*
G01*
G37*
G04 #@! TD.AperFunction*
X197260391Y16248827D03*
G04 #@! TD*
G04 #@! TO.P,Q7,1,G*
G04 #@! TO.N,Net-(Q7-G)*
G04 #@! TA.AperFunction,SMDPad,CuDef*
G36*
G01*
X205110000Y50630000D02*
X205110000Y51330000D01*
G75*
G02*
X205360000Y51580000I250000J0D01*
G01*
X207060000Y51580000D01*
G75*
G02*
X207310000Y51330000I0J-250000D01*
G01*
X207310000Y50630000D01*
G75*
G02*
X207060000Y50380000I-250000J0D01*
G01*
X205360000Y50380000D01*
G75*
G02*
X205110000Y50630000I0J250000D01*
G01*
G37*
G04 #@! TD.AperFunction*
G04 #@! TO.P,Q7,2,C*
G04 #@! TO.N,/OUT_IGN1*
G04 #@! TA.AperFunction,SMDPad,CuDef*
G36*
G01*
X209310000Y49100000D02*
X209310000Y51350000D01*
G75*
G02*
X209560000Y51600000I250000J0D01*
G01*
X212110000Y51600000D01*
G75*
G02*
X212360000Y51350000I0J-250000D01*
G01*
X212360000Y49100000D01*
G75*
G02*
X212110000Y48850000I-250000J0D01*
G01*
X209560000Y48850000D01*
G75*
G02*
X209310000Y49100000I0J250000D01*
G01*
G37*
G04 #@! TD.AperFunction*
G04 #@! TA.AperFunction,SMDPad,CuDef*
G36*
G01*
X209310000Y46050000D02*
X209310000Y48300000D01*
G75*
G02*
X209560000Y48550000I250000J0D01*
G01*
X212110000Y48550000D01*
G75*
G02*
X212360000Y48300000I0J-250000D01*
G01*
X212360000Y46050000D01*
G75*
G02*
X212110000Y45800000I-250000J0D01*
G01*
X209560000Y45800000D01*
G75*
G02*
X209310000Y46050000I0J250000D01*
G01*
G37*
G04 #@! TD.AperFunction*
G04 #@! TA.AperFunction,SMDPad,CuDef*
G36*
G01*
X209310000Y46049997D02*
X209310000Y51350003D01*
G75*
G02*
X209559997Y51600000I249997J0D01*
G01*
X215460003Y51600000D01*
G75*
G02*
X215710000Y51350003I0J-249997D01*
G01*
X215710000Y46049997D01*
G75*
G02*
X215460003Y45800000I-249997J0D01*
G01*
X209559997Y45800000D01*
G75*
G02*
X209310000Y46049997I0J249997D01*
G01*
G37*
G04 #@! TD.AperFunction*
G04 #@! TA.AperFunction,SMDPad,CuDef*
G36*
G01*
X212660000Y49100000D02*
X212660000Y51350000D01*
G75*
G02*
X212910000Y51600000I250000J0D01*
G01*
X215460000Y51600000D01*
G75*
G02*
X215710000Y51350000I0J-250000D01*
G01*
X215710000Y49100000D01*
G75*
G02*
X215460000Y48850000I-250000J0D01*
G01*
X212910000Y48850000D01*
G75*
G02*
X212660000Y49100000I0J250000D01*
G01*
G37*
G04 #@! TD.AperFunction*
G04 #@! TA.AperFunction,SMDPad,CuDef*
G36*
G01*
X212660000Y46050000D02*
X212660000Y48300000D01*
G75*
G02*
X212910000Y48550000I250000J0D01*
G01*
X215460000Y48550000D01*
G75*
G02*
X215710000Y48300000I0J-250000D01*
G01*
X215710000Y46050000D01*
G75*
G02*
X215460000Y45800000I-250000J0D01*
G01*
X212910000Y45800000D01*
G75*
G02*
X212660000Y46050000I0J250000D01*
G01*
G37*
G04 #@! TD.AperFunction*
G04 #@! TO.P,Q7,3,E*
G04 #@! TO.N,GND*
G04 #@! TA.AperFunction,SMDPad,CuDef*
G36*
G01*
X205110000Y46070000D02*
X205110000Y46770000D01*
G75*
G02*
X205360000Y47020000I250000J0D01*
G01*
X207060000Y47020000D01*
G75*
G02*
X207310000Y46770000I0J-250000D01*
G01*
X207310000Y46070000D01*
G75*
G02*
X207060000Y45820000I-250000J0D01*
G01*
X205360000Y45820000D01*
G75*
G02*
X205110000Y46070000I0J250000D01*
G01*
G37*
G04 #@! TD.AperFunction*
G04 #@! TD*
G04 #@! TO.P,R5,1,1*
G04 #@! TO.N,/VR1_A*
X193450391Y19099609D03*
G04 #@! TA.AperFunction,SMDPad,CuDef*
G36*
G01*
X193905390Y18474609D02*
X193905390Y19724609D01*
G75*
G02*
X194005390Y19824609I100000J0D01*
G01*
X194805390Y19824609D01*
G75*
G02*
X194905390Y19724609I0J-100000D01*
G01*
X194905390Y18474609D01*
G75*
G02*
X194805390Y18374609I-100000J0D01*
G01*
X194005390Y18374609D01*
G75*
G02*
X193905390Y18474609I0J100000D01*
G01*
G37*
G04 #@! TD.AperFunction*
G04 #@! TO.P,R5,2,2*
G04 #@! TO.N,/ADC3*
G04 #@! TA.AperFunction,SMDPad,CuDef*
G36*
G01*
X195805412Y18474609D02*
X195805412Y19724609D01*
G75*
G02*
X195905412Y19824609I100000J0D01*
G01*
X196705412Y19824609D01*
G75*
G02*
X196805412Y19724609I0J-100000D01*
G01*
X196805412Y18474609D01*
G75*
G02*
X196705412Y18374609I-100000J0D01*
G01*
X195905412Y18374609D01*
G75*
G02*
X195805412Y18474609I0J100000D01*
G01*
G37*
G04 #@! TD.AperFunction*
X197260391Y19099609D03*
G04 #@! TD*
G04 #@! TO.P,C9,1*
G04 #@! TO.N,GND*
G04 #@! TA.AperFunction,SMDPad,CuDef*
G36*
G01*
X143895000Y-8355000D02*
X143895000Y-7305000D01*
G75*
G02*
X143995000Y-7205000I100000J0D01*
G01*
X144795000Y-7205000D01*
G75*
G02*
X144895000Y-7305000I0J-100000D01*
G01*
X144895000Y-8355000D01*
G75*
G02*
X144795000Y-8455000I-100000J0D01*
G01*
X143995000Y-8455000D01*
G75*
G02*
X143895000Y-8355000I0J100000D01*
G01*
G37*
G04 #@! TD.AperFunction*
G04 #@! TO.P,C9,2*
G04 #@! TO.N,/DC Driver 1/PWR*
G04 #@! TA.AperFunction,SMDPad,CuDef*
G36*
G01*
X145895000Y-8355000D02*
X145895000Y-7305000D01*
G75*
G02*
X145995000Y-7205000I100000J0D01*
G01*
X146795000Y-7205000D01*
G75*
G02*
X146895000Y-7305000I0J-100000D01*
G01*
X146895000Y-8355000D01*
G75*
G02*
X146795000Y-8455000I-100000J0D01*
G01*
X145995000Y-8455000D01*
G75*
G02*
X145895000Y-8355000I0J100000D01*
G01*
G37*
G04 #@! TD.AperFunction*
G04 #@! TD*
G04 #@! TO.P,R15,1*
G04 #@! TO.N,/LS_WEAK1*
G04 #@! TA.AperFunction,SMDPad,CuDef*
G36*
G01*
X187085000Y9928405D02*
X187085000Y10708405D01*
G75*
G02*
X187155000Y10778405I70000J0D01*
G01*
X187715000Y10778405D01*
G75*
G02*
X187785000Y10708405I0J-70000D01*
G01*
X187785000Y9928405D01*
G75*
G02*
X187715000Y9858405I-70000J0D01*
G01*
X187155000Y9858405D01*
G75*
G02*
X187085000Y9928405I0J70000D01*
G01*
G37*
G04 #@! TD.AperFunction*
G04 #@! TO.P,R15,2*
G04 #@! TO.N,GND*
G04 #@! TA.AperFunction,SMDPad,CuDef*
G36*
G01*
X188685000Y9928405D02*
X188685000Y10708405D01*
G75*
G02*
X188755000Y10778405I70000J0D01*
G01*
X189315000Y10778405D01*
G75*
G02*
X189385000Y10708405I0J-70000D01*
G01*
X189385000Y9928405D01*
G75*
G02*
X189315000Y9858405I-70000J0D01*
G01*
X188755000Y9858405D01*
G75*
G02*
X188685000Y9928405I0J70000D01*
G01*
G37*
G04 #@! TD.AperFunction*
G04 #@! TD*
G04 #@! TO.P,R30,1*
G04 #@! TO.N,GND*
G04 #@! TA.AperFunction,SMDPad,CuDef*
G36*
G01*
X214685000Y100909359D02*
X214685000Y101689359D01*
G75*
G02*
X214755000Y101759359I70000J0D01*
G01*
X215315000Y101759359D01*
G75*
G02*
X215385000Y101689359I0J-70000D01*
G01*
X215385000Y100909359D01*
G75*
G02*
X215315000Y100839359I-70000J0D01*
G01*
X214755000Y100839359D01*
G75*
G02*
X214685000Y100909359I0J70000D01*
G01*
G37*
G04 #@! TD.AperFunction*
G04 #@! TO.P,R30,2*
G04 #@! TO.N,/INJ2*
G04 #@! TA.AperFunction,SMDPad,CuDef*
G36*
G01*
X216285000Y100909359D02*
X216285000Y101689359D01*
G75*
G02*
X216355000Y101759359I70000J0D01*
G01*
X216915000Y101759359D01*
G75*
G02*
X216985000Y101689359I0J-70000D01*
G01*
X216985000Y100909359D01*
G75*
G02*
X216915000Y100839359I-70000J0D01*
G01*
X216355000Y100839359D01*
G75*
G02*
X216285000Y100909359I0J70000D01*
G01*
G37*
G04 #@! TD.AperFunction*
G04 #@! TD*
G04 #@! TO.P,R9,1*
G04 #@! TO.N,/DC1_DIS*
G04 #@! TA.AperFunction,SMDPad,CuDef*
G36*
G01*
X147895000Y-5561595D02*
X147895000Y-4781595D01*
G75*
G02*
X147965000Y-4711595I70000J0D01*
G01*
X148525000Y-4711595D01*
G75*
G02*
X148595000Y-4781595I0J-70000D01*
G01*
X148595000Y-5561595D01*
G75*
G02*
X148525000Y-5631595I-70000J0D01*
G01*
X147965000Y-5631595D01*
G75*
G02*
X147895000Y-5561595I0J70000D01*
G01*
G37*
G04 #@! TD.AperFunction*
G04 #@! TO.P,R9,2*
G04 #@! TO.N,+3.3V*
G04 #@! TA.AperFunction,SMDPad,CuDef*
G36*
G01*
X149495000Y-5561595D02*
X149495000Y-4781595D01*
G75*
G02*
X149565000Y-4711595I70000J0D01*
G01*
X150125000Y-4711595D01*
G75*
G02*
X150195000Y-4781595I0J-70000D01*
G01*
X150195000Y-5561595D01*
G75*
G02*
X150125000Y-5631595I-70000J0D01*
G01*
X149565000Y-5631595D01*
G75*
G02*
X149495000Y-5561595I0J70000D01*
G01*
G37*
G04 #@! TD.AperFunction*
G04 #@! TD*
G04 #@! TO.P,J1,1,Pin_1*
G04 #@! TO.N,+5VP*
G04 #@! TA.AperFunction,ComponentPad*
G36*
G01*
X114450000Y87700001D02*
X114450000Y90899999D01*
G75*
G02*
X114700001Y91150000I250001J0D01*
G01*
X116899999Y91150000D01*
G75*
G02*
X117150000Y90899999I0J-250001D01*
G01*
X117150000Y87700001D01*
G75*
G02*
X116899999Y87450000I-250001J0D01*
G01*
X114700001Y87450000D01*
G75*
G02*
X114450000Y87700001I0J250001D01*
G01*
G37*
G04 #@! TD.AperFunction*
D17*
G04 #@! TO.P,J1,2,Pin_2*
X120000000Y89300000D03*
G04 #@! TO.P,J1,3,Pin_3*
G04 #@! TO.N,/IN_PPS2*
X124200000Y89300000D03*
G04 #@! TO.P,J1,4,Pin_4*
G04 #@! TO.N,/IN_PPS1*
X128400000Y89300000D03*
G04 #@! TO.P,J1,5,Pin_5*
G04 #@! TO.N,+5VP*
X132600000Y89300000D03*
G04 #@! TO.P,J1,6,Pin_6*
X136800000Y89300000D03*
G04 #@! TO.P,J1,7,Pin_7*
G04 #@! TO.N,/IN_CLT*
X141000000Y89300000D03*
G04 #@! TO.P,J1,8,Pin_8*
G04 #@! TO.N,/IN_IAT*
X145200000Y89300000D03*
G04 #@! TO.P,J1,9,Pin_9*
G04 #@! TO.N,/CAN-*
X149400000Y89300000D03*
G04 #@! TO.P,J1,10,Pin_10*
G04 #@! TO.N,/CAN+*
X153600000Y89300000D03*
G04 #@! TO.P,J1,11,Pin_11*
G04 #@! TO.N,GNDA*
X115800000Y83800000D03*
G04 #@! TO.P,J1,12,Pin_12*
X120000000Y83800000D03*
G04 #@! TO.P,J1,13,Pin_13*
G04 #@! TO.N,/IN_TPS1*
X124200000Y83800000D03*
G04 #@! TO.P,J1,14,Pin_14*
G04 #@! TO.N,/IN_TPS2*
X128400000Y83800000D03*
G04 #@! TO.P,J1,15,Pin_15*
G04 #@! TO.N,GNDA*
X132600000Y83800000D03*
G04 #@! TO.P,J1,16,Pin_16*
X136800000Y83800000D03*
G04 #@! TO.P,J1,17,Pin_17*
G04 #@! TO.N,/IN_AUX3*
X141000000Y83800000D03*
G04 #@! TO.P,J1,18,Pin_18*
G04 #@! TO.N,/IN_AUX2*
X145200000Y83800000D03*
G04 #@! TO.P,J1,19,Pin_19*
G04 #@! TO.N,/IN_AUX1*
X149400000Y83800000D03*
G04 #@! TO.P,J1,20,Pin_20*
G04 #@! TO.N,Net-(J1-Pin_20)*
X153600000Y83800000D03*
G04 #@! TD*
G04 #@! TO.P,Q12,1,G*
G04 #@! TO.N,Net-(Q12-G)*
G04 #@! TA.AperFunction,SMDPad,CuDef*
G36*
G01*
X205110000Y10380000D02*
X205110000Y11080000D01*
G75*
G02*
X205360000Y11330000I250000J0D01*
G01*
X207060000Y11330000D01*
G75*
G02*
X207310000Y11080000I0J-250000D01*
G01*
X207310000Y10380000D01*
G75*
G02*
X207060000Y10130000I-250000J0D01*
G01*
X205360000Y10130000D01*
G75*
G02*
X205110000Y10380000I0J250000D01*
G01*
G37*
G04 #@! TD.AperFunction*
G04 #@! TO.P,Q12,2,C*
G04 #@! TO.N,/OUT_IGN6*
G04 #@! TA.AperFunction,SMDPad,CuDef*
G36*
G01*
X209310000Y8850000D02*
X209310000Y11100000D01*
G75*
G02*
X209560000Y11350000I250000J0D01*
G01*
X212110000Y11350000D01*
G75*
G02*
X212360000Y11100000I0J-250000D01*
G01*
X212360000Y8850000D01*
G75*
G02*
X212110000Y8600000I-250000J0D01*
G01*
X209560000Y8600000D01*
G75*
G02*
X209310000Y8850000I0J250000D01*
G01*
G37*
G04 #@! TD.AperFunction*
G04 #@! TA.AperFunction,SMDPad,CuDef*
G36*
G01*
X209310000Y5800000D02*
X209310000Y8050000D01*
G75*
G02*
X209560000Y8300000I250000J0D01*
G01*
X212110000Y8300000D01*
G75*
G02*
X212360000Y8050000I0J-250000D01*
G01*
X212360000Y5800000D01*
G75*
G02*
X212110000Y5550000I-250000J0D01*
G01*
X209560000Y5550000D01*
G75*
G02*
X209310000Y5800000I0J250000D01*
G01*
G37*
G04 #@! TD.AperFunction*
G04 #@! TA.AperFunction,SMDPad,CuDef*
G36*
G01*
X209310000Y5799997D02*
X209310000Y11100003D01*
G75*
G02*
X209559997Y11350000I249997J0D01*
G01*
X215460003Y11350000D01*
G75*
G02*
X215710000Y11100003I0J-249997D01*
G01*
X215710000Y5799997D01*
G75*
G02*
X215460003Y5550000I-249997J0D01*
G01*
X209559997Y5550000D01*
G75*
G02*
X209310000Y5799997I0J249997D01*
G01*
G37*
G04 #@! TD.AperFunction*
G04 #@! TA.AperFunction,SMDPad,CuDef*
G36*
G01*
X212660000Y8850000D02*
X212660000Y11100000D01*
G75*
G02*
X212910000Y11350000I250000J0D01*
G01*
X215460000Y11350000D01*
G75*
G02*
X215710000Y11100000I0J-250000D01*
G01*
X215710000Y8850000D01*
G75*
G02*
X215460000Y8600000I-250000J0D01*
G01*
X212910000Y8600000D01*
G75*
G02*
X212660000Y8850000I0J250000D01*
G01*
G37*
G04 #@! TD.AperFunction*
G04 #@! TA.AperFunction,SMDPad,CuDef*
G36*
G01*
X212660000Y5800000D02*
X212660000Y8050000D01*
G75*
G02*
X212910000Y8300000I250000J0D01*
G01*
X215460000Y8300000D01*
G75*
G02*
X215710000Y8050000I0J-250000D01*
G01*
X215710000Y5800000D01*
G75*
G02*
X215460000Y5550000I-250000J0D01*
G01*
X212910000Y5550000D01*
G75*
G02*
X212660000Y5800000I0J250000D01*
G01*
G37*
G04 #@! TD.AperFunction*
G04 #@! TO.P,Q12,3,E*
G04 #@! TO.N,GND*
G04 #@! TA.AperFunction,SMDPad,CuDef*
G36*
G01*
X205110000Y5820000D02*
X205110000Y6520000D01*
G75*
G02*
X205360000Y6770000I250000J0D01*
G01*
X207060000Y6770000D01*
G75*
G02*
X207310000Y6520000I0J-250000D01*
G01*
X207310000Y5820000D01*
G75*
G02*
X207060000Y5570000I-250000J0D01*
G01*
X205360000Y5570000D01*
G75*
G02*
X205110000Y5820000I0J250000D01*
G01*
G37*
G04 #@! TD.AperFunction*
G04 #@! TD*
D19*
G04 #@! TO.P,F4,1,1*
G04 #@! TO.N,+12V*
X134835000Y23405000D03*
G04 #@! TA.AperFunction,SMDPad,CuDef*
G36*
G01*
X136179990Y22505000D02*
X135489990Y22505000D01*
G75*
G02*
X135259990Y22735000I0J230000D01*
G01*
X135259990Y24075000D01*
G75*
G02*
X135489990Y24305000I230000J0D01*
G01*
X136179990Y24305000D01*
G75*
G02*
X136409990Y24075000I0J-230000D01*
G01*
X136409990Y22735000D01*
G75*
G02*
X136179990Y22505000I-230000J0D01*
G01*
G37*
G04 #@! TD.AperFunction*
G04 #@! TO.P,F4,2,2*
G04 #@! TO.N,/DC Driver 2/PWR*
G04 #@! TA.AperFunction,SMDPad,CuDef*
G36*
G01*
X139080010Y22505000D02*
X138390010Y22505000D01*
G75*
G02*
X138160010Y22735000I0J230000D01*
G01*
X138160010Y24075000D01*
G75*
G02*
X138390010Y24305000I230000J0D01*
G01*
X139080010Y24305000D01*
G75*
G02*
X139310010Y24075000I0J-230000D01*
G01*
X139310010Y22735000D01*
G75*
G02*
X139080010Y22505000I-230000J0D01*
G01*
G37*
G04 #@! TD.AperFunction*
X139735000Y23405000D03*
G04 #@! TD*
D15*
G04 #@! TO.P,H2,1*
G04 #@! TO.N,N/C*
X194150000Y92300000D03*
X194852944Y93997056D03*
X194852944Y90602944D03*
X196550000Y94700000D03*
D16*
X196550000Y92300000D03*
D15*
X196550000Y89900000D03*
X198247056Y93997056D03*
X198247056Y90602944D03*
X198950000Y92300000D03*
G04 #@! TD*
G04 #@! TO.P,C13,1*
G04 #@! TO.N,GND*
G04 #@! TA.AperFunction,SMDPad,CuDef*
G36*
G01*
X147895000Y-3544956D02*
X147895000Y-2864956D01*
G75*
G02*
X147980000Y-2779956I85000J0D01*
G01*
X148660000Y-2779956D01*
G75*
G02*
X148745000Y-2864956I0J-85000D01*
G01*
X148745000Y-3544956D01*
G75*
G02*
X148660000Y-3629956I-85000J0D01*
G01*
X147980000Y-3629956D01*
G75*
G02*
X147895000Y-3544956I0J85000D01*
G01*
G37*
G04 #@! TD.AperFunction*
G04 #@! TO.P,C13,2*
G04 #@! TO.N,/OUT_DC1+*
G04 #@! TA.AperFunction,SMDPad,CuDef*
G36*
G01*
X149475002Y-3544956D02*
X149475002Y-2864956D01*
G75*
G02*
X149560002Y-2779956I85000J0D01*
G01*
X150240002Y-2779956D01*
G75*
G02*
X150325002Y-2864956I0J-85000D01*
G01*
X150325002Y-3544956D01*
G75*
G02*
X150240002Y-3629956I-85000J0D01*
G01*
X149560002Y-3629956D01*
G75*
G02*
X149475002Y-3544956I0J85000D01*
G01*
G37*
G04 #@! TD.AperFunction*
G04 #@! TD*
G04 #@! TO.P,R31,1*
G04 #@! TO.N,GND*
G04 #@! TA.AperFunction,SMDPad,CuDef*
G36*
G01*
X214685000Y98960313D02*
X214685000Y99740313D01*
G75*
G02*
X214755000Y99810313I70000J0D01*
G01*
X215315000Y99810313D01*
G75*
G02*
X215385000Y99740313I0J-70000D01*
G01*
X215385000Y98960313D01*
G75*
G02*
X215315000Y98890313I-70000J0D01*
G01*
X214755000Y98890313D01*
G75*
G02*
X214685000Y98960313I0J70000D01*
G01*
G37*
G04 #@! TD.AperFunction*
G04 #@! TO.P,R31,2*
G04 #@! TO.N,/INJ3*
G04 #@! TA.AperFunction,SMDPad,CuDef*
G36*
G01*
X216285000Y98960313D02*
X216285000Y99740313D01*
G75*
G02*
X216355000Y99810313I70000J0D01*
G01*
X216915000Y99810313D01*
G75*
G02*
X216985000Y99740313I0J-70000D01*
G01*
X216985000Y98960313D01*
G75*
G02*
X216915000Y98890313I-70000J0D01*
G01*
X216355000Y98890313D01*
G75*
G02*
X216285000Y98960313I0J70000D01*
G01*
G37*
G04 #@! TD.AperFunction*
G04 #@! TD*
D13*
G04 #@! TO.P,Q2,1,G*
G04 #@! TO.N,/LS2*
X221260000Y94150000D03*
G04 #@! TO.P,Q2,2,D*
G04 #@! TO.N,/OUT_LS2*
X221260000Y91850000D03*
G04 #@! TO.P,Q2,3,S*
G04 #@! TO.N,GND*
X221260000Y89550000D03*
D14*
G04 #@! TO.P,Q2,4*
G04 #@! TO.N,N/C*
X227560000Y91850000D03*
G04 #@! TD*
D44*
G04 #@! TO.P,J9,A1,GND*
G04 #@! TO.N,GND*
X143790000Y21670000D03*
G04 #@! TO.P,J9,A4,VBUS*
G04 #@! TO.N,/VBUS*
X144590000Y21670000D03*
G04 #@! TO.P,J9,A5,CC1*
G04 #@! TO.N,Net-(J9-CC1)*
X145890000Y21670000D03*
G04 #@! TO.P,J9,A6,D+*
G04 #@! TO.N,/USB+*
X146890000Y21670000D03*
G04 #@! TO.P,J9,A7,D-*
G04 #@! TO.N,/USB-*
X147390000Y21670000D03*
G04 #@! TO.P,J9,A8,SBU1*
G04 #@! TO.N,unconnected-(J9-SBU1-PadA8)*
X148390000Y21670000D03*
G04 #@! TO.P,J9,A9,VBUS*
G04 #@! TO.N,/VBUS*
X149690000Y21670000D03*
G04 #@! TO.P,J9,A12,GND*
G04 #@! TO.N,GND*
X150490000Y21670000D03*
G04 #@! TO.P,J9,B1,GND*
X150190000Y21670000D03*
G04 #@! TO.P,J9,B4,VBUS*
G04 #@! TO.N,/VBUS*
X149390000Y21670000D03*
G04 #@! TO.P,J9,B5,CC2*
G04 #@! TO.N,Net-(J9-CC2)*
X148890000Y21670000D03*
G04 #@! TO.P,J9,B6,D+*
G04 #@! TO.N,/USB+*
X147890000Y21670000D03*
G04 #@! TO.P,J9,B7,D-*
G04 #@! TO.N,/USB-*
X146390000Y21670000D03*
G04 #@! TO.P,J9,B8,SBU2*
G04 #@! TO.N,unconnected-(J9-SBU2-PadB8)*
X145390000Y21670000D03*
G04 #@! TO.P,J9,B9,VBUS*
G04 #@! TO.N,/VBUS*
X144890000Y21670000D03*
G04 #@! TO.P,J9,B12,GND*
G04 #@! TO.N,GND*
X144090000Y21670000D03*
D45*
G04 #@! TO.P,J9,S1,SHIELD*
X142820000Y21105000D03*
D46*
X142820000Y16925000D03*
D45*
X151460000Y21105000D03*
D46*
X151460000Y16925000D03*
G04 #@! TD*
G04 #@! TO.P,C11,1*
G04 #@! TO.N,GND*
G04 #@! TA.AperFunction,SMDPad,CuDef*
G36*
G01*
X147895000Y355014D02*
X147895000Y1035014D01*
G75*
G02*
X147980000Y1120014I85000J0D01*
G01*
X148660000Y1120014D01*
G75*
G02*
X148745000Y1035014I0J-85000D01*
G01*
X148745000Y355014D01*
G75*
G02*
X148660000Y270014I-85000J0D01*
G01*
X147980000Y270014D01*
G75*
G02*
X147895000Y355014I0J85000D01*
G01*
G37*
G04 #@! TD.AperFunction*
G04 #@! TO.P,C11,2*
G04 #@! TO.N,/DC Driver 1/PWR*
G04 #@! TA.AperFunction,SMDPad,CuDef*
G36*
G01*
X149475002Y355014D02*
X149475002Y1035014D01*
G75*
G02*
X149560002Y1120014I85000J0D01*
G01*
X150240002Y1120014D01*
G75*
G02*
X150325002Y1035014I0J-85000D01*
G01*
X150325002Y355014D01*
G75*
G02*
X150240002Y270014I-85000J0D01*
G01*
X149560002Y270014D01*
G75*
G02*
X149475002Y355014I0J85000D01*
G01*
G37*
G04 #@! TD.AperFunction*
G04 #@! TD*
D47*
G04 #@! TO.P,U3,*
G04 #@! TO.N,*
X115305500Y-1460500D03*
X138165500Y-1460500D03*
D48*
G04 #@! TO.P,U3,0*
G04 #@! TO.N,N/C*
X121793000Y-3340500D03*
X131635500Y-3340500D03*
X131635500Y-4610500D03*
X131635500Y-5880500D03*
X131635500Y-7150500D03*
D19*
G04 #@! TO.P,U3,1,VOUT*
G04 #@! TO.N,/INTERNAL_MAP*
X120385500Y-14160500D03*
D48*
X121793000Y-7150500D03*
G04 #@! TO.P,U3,2,GND*
G04 #@! TO.N,GND*
X121793000Y-5880500D03*
D19*
X122925500Y-14160500D03*
D48*
G04 #@! TO.P,U3,3,VCC*
G04 #@! TO.N,+5VA*
X121793000Y-4610500D03*
D19*
X125465500Y-14160500D03*
G04 #@! TO.P,U3,4,V1*
G04 #@! TO.N,unconnected-(U3-V1-Pad4)*
X128005500Y-14160500D03*
G04 #@! TO.P,U3,5,V2*
G04 #@! TO.N,unconnected-(U3-V2-Pad5)*
X130545500Y-14160500D03*
G04 #@! TO.P,U3,6,V_EX*
G04 #@! TO.N,unconnected-(U3-V_EX-Pad6)*
X133085500Y-14160500D03*
G04 #@! TD*
G04 #@! TO.P,D1,1,K*
G04 #@! TO.N,/VBAT*
G04 #@! TA.AperFunction,SMDPad,CuDef*
G36*
G01*
X158287997Y20700000D02*
X158767997Y20700000D01*
G75*
G02*
X158827997Y20640000I0J-60000D01*
G01*
X158827997Y20160000D01*
G75*
G02*
X158767997Y20100000I-60000J0D01*
G01*
X158287997Y20100000D01*
G75*
G02*
X158227997Y20160000I0J60000D01*
G01*
X158227997Y20640000D01*
G75*
G02*
X158287997Y20700000I60000J0D01*
G01*
G37*
G04 #@! TD.AperFunction*
G04 #@! TO.P,D1,2,A*
G04 #@! TO.N,Net-(BT1-+)*
G04 #@! TA.AperFunction,SMDPad,CuDef*
G36*
G01*
X160487997Y20700000D02*
X160967997Y20700000D01*
G75*
G02*
X161027997Y20640000I0J-60000D01*
G01*
X161027997Y20160000D01*
G75*
G02*
X160967997Y20100000I-60000J0D01*
G01*
X160487997Y20100000D01*
G75*
G02*
X160427997Y20160000I0J60000D01*
G01*
X160427997Y20640000D01*
G75*
G02*
X160487997Y20700000I60000J0D01*
G01*
G37*
G04 #@! TD.AperFunction*
G04 #@! TD*
G04 #@! TO.P,Q11,1,G*
G04 #@! TO.N,Net-(Q11-G)*
G04 #@! TA.AperFunction,SMDPad,CuDef*
G36*
G01*
X205110000Y18430000D02*
X205110000Y19130000D01*
G75*
G02*
X205360000Y19380000I250000J0D01*
G01*
X207060000Y19380000D01*
G75*
G02*
X207310000Y19130000I0J-250000D01*
G01*
X207310000Y18430000D01*
G75*
G02*
X207060000Y18180000I-250000J0D01*
G01*
X205360000Y18180000D01*
G75*
G02*
X205110000Y18430000I0J250000D01*
G01*
G37*
G04 #@! TD.AperFunction*
G04 #@! TO.P,Q11,2,C*
G04 #@! TO.N,/OUT_IGN5*
G04 #@! TA.AperFunction,SMDPad,CuDef*
G36*
G01*
X209310000Y16900000D02*
X209310000Y19150000D01*
G75*
G02*
X209560000Y19400000I250000J0D01*
G01*
X212110000Y19400000D01*
G75*
G02*
X212360000Y19150000I0J-250000D01*
G01*
X212360000Y16900000D01*
G75*
G02*
X212110000Y16650000I-250000J0D01*
G01*
X209560000Y16650000D01*
G75*
G02*
X209310000Y16900000I0J250000D01*
G01*
G37*
G04 #@! TD.AperFunction*
G04 #@! TA.AperFunction,SMDPad,CuDef*
G36*
G01*
X209310000Y13850000D02*
X209310000Y16100000D01*
G75*
G02*
X209560000Y16350000I250000J0D01*
G01*
X212110000Y16350000D01*
G75*
G02*
X212360000Y16100000I0J-250000D01*
G01*
X212360000Y13850000D01*
G75*
G02*
X212110000Y13600000I-250000J0D01*
G01*
X209560000Y13600000D01*
G75*
G02*
X209310000Y13850000I0J250000D01*
G01*
G37*
G04 #@! TD.AperFunction*
G04 #@! TA.AperFunction,SMDPad,CuDef*
G36*
G01*
X209310000Y13849997D02*
X209310000Y19150003D01*
G75*
G02*
X209559997Y19400000I249997J0D01*
G01*
X215460003Y19400000D01*
G75*
G02*
X215710000Y19150003I0J-249997D01*
G01*
X215710000Y13849997D01*
G75*
G02*
X215460003Y13600000I-249997J0D01*
G01*
X209559997Y13600000D01*
G75*
G02*
X209310000Y13849997I0J249997D01*
G01*
G37*
G04 #@! TD.AperFunction*
G04 #@! TA.AperFunction,SMDPad,CuDef*
G36*
G01*
X212660000Y16900000D02*
X212660000Y19150000D01*
G75*
G02*
X212910000Y19400000I250000J0D01*
G01*
X215460000Y19400000D01*
G75*
G02*
X215710000Y19150000I0J-250000D01*
G01*
X215710000Y16900000D01*
G75*
G02*
X215460000Y16650000I-250000J0D01*
G01*
X212910000Y16650000D01*
G75*
G02*
X212660000Y16900000I0J250000D01*
G01*
G37*
G04 #@! TD.AperFunction*
G04 #@! TA.AperFunction,SMDPad,CuDef*
G36*
G01*
X212660000Y13850000D02*
X212660000Y16100000D01*
G75*
G02*
X212910000Y16350000I250000J0D01*
G01*
X215460000Y16350000D01*
G75*
G02*
X215710000Y16100000I0J-250000D01*
G01*
X215710000Y13850000D01*
G75*
G02*
X215460000Y13600000I-250000J0D01*
G01*
X212910000Y13600000D01*
G75*
G02*
X212660000Y13850000I0J250000D01*
G01*
G37*
G04 #@! TD.AperFunction*
G04 #@! TO.P,Q11,3,E*
G04 #@! TO.N,GND*
G04 #@! TA.AperFunction,SMDPad,CuDef*
G36*
G01*
X205110000Y13870000D02*
X205110000Y14570000D01*
G75*
G02*
X205360000Y14820000I250000J0D01*
G01*
X207060000Y14820000D01*
G75*
G02*
X207310000Y14570000I0J-250000D01*
G01*
X207310000Y13870000D01*
G75*
G02*
X207060000Y13620000I-250000J0D01*
G01*
X205360000Y13620000D01*
G75*
G02*
X205110000Y13870000I0J250000D01*
G01*
G37*
G04 #@! TD.AperFunction*
G04 #@! TD*
D13*
G04 #@! TO.P,Q3,1,G*
G04 #@! TO.N,/LS3*
X221260000Y85900000D03*
G04 #@! TO.P,Q3,2,D*
G04 #@! TO.N,/OUT_LS3*
X221260000Y83600000D03*
G04 #@! TO.P,Q3,3,S*
G04 #@! TO.N,GND*
X221260000Y81300000D03*
D14*
G04 #@! TO.P,Q3,4*
G04 #@! TO.N,N/C*
X227560000Y83600000D03*
G04 #@! TD*
G04 #@! TO.P,J3,1,Pin_1*
G04 #@! TO.N,/WBO_Un*
G04 #@! TA.AperFunction,ComponentPad*
G36*
G01*
X159700000Y50450001D02*
X159700000Y53649999D01*
G75*
G02*
X159950001Y53900000I250001J0D01*
G01*
X162149999Y53900000D01*
G75*
G02*
X162400000Y53649999I0J-250001D01*
G01*
X162400000Y50450001D01*
G75*
G02*
X162149999Y50200000I-250001J0D01*
G01*
X159950001Y50200000D01*
G75*
G02*
X159700000Y50450001I0J250001D01*
G01*
G37*
G04 #@! TD.AperFunction*
D17*
G04 #@! TO.P,J3,2,Pin_2*
G04 #@! TO.N,/WBO_Vm*
X165250000Y52050000D03*
G04 #@! TO.P,J3,3,Pin_3*
G04 #@! TO.N,+12V_RAW*
X169450000Y52050000D03*
G04 #@! TO.P,J3,4,Pin_4*
G04 #@! TO.N,/WBO_Ip*
X161050000Y46550000D03*
G04 #@! TO.P,J3,5,Pin_5*
G04 #@! TO.N,/WBO_Rtrim*
X165250000Y46550000D03*
G04 #@! TO.P,J3,6,Pin_6*
G04 #@! TO.N,/WBO_Heater*
X169450000Y46550000D03*
G04 #@! TD*
G04 #@! TO.P,J4,1,Pin_1*
G04 #@! TO.N,GND*
G04 #@! TA.AperFunction,ComponentPad*
G36*
G01*
X175550000Y50450001D02*
X175550000Y53649999D01*
G75*
G02*
X175800001Y53900000I250001J0D01*
G01*
X177999999Y53900000D01*
G75*
G02*
X178250000Y53649999I0J-250001D01*
G01*
X178250000Y50450001D01*
G75*
G02*
X177999999Y50200000I-250001J0D01*
G01*
X175800001Y50200000D01*
G75*
G02*
X175550000Y50450001I0J250001D01*
G01*
G37*
G04 #@! TD.AperFunction*
G04 #@! TO.P,J4,2,Pin_2*
G04 #@! TO.N,/OUT_DC2-*
X181100000Y52050000D03*
G04 #@! TO.P,J4,3,Pin_3*
G04 #@! TO.N,/OUT_DC2+*
X185300000Y52050000D03*
G04 #@! TO.P,J4,4,Pin_4*
G04 #@! TO.N,+12V*
X176900000Y46550000D03*
G04 #@! TO.P,J4,5,Pin_5*
G04 #@! TO.N,/OUT_DC1-*
X181100000Y46550000D03*
G04 #@! TO.P,J4,6,Pin_6*
G04 #@! TO.N,/OUT_DC1+*
X185300000Y46550000D03*
G04 #@! TD*
G04 #@! TO.P,Q10,1,G*
G04 #@! TO.N,Net-(Q10-G)*
G04 #@! TA.AperFunction,SMDPad,CuDef*
G36*
G01*
X205110000Y26480000D02*
X205110000Y27180000D01*
G75*
G02*
X205360000Y27430000I250000J0D01*
G01*
X207060000Y27430000D01*
G75*
G02*
X207310000Y27180000I0J-250000D01*
G01*
X207310000Y26480000D01*
G75*
G02*
X207060000Y26230000I-250000J0D01*
G01*
X205360000Y26230000D01*
G75*
G02*
X205110000Y26480000I0J250000D01*
G01*
G37*
G04 #@! TD.AperFunction*
G04 #@! TO.P,Q10,2,C*
G04 #@! TO.N,/OUT_IGN4*
G04 #@! TA.AperFunction,SMDPad,CuDef*
G36*
G01*
X209310000Y24950000D02*
X209310000Y27200000D01*
G75*
G02*
X209560000Y27450000I250000J0D01*
G01*
X212110000Y27450000D01*
G75*
G02*
X212360000Y27200000I0J-250000D01*
G01*
X212360000Y24950000D01*
G75*
G02*
X212110000Y24700000I-250000J0D01*
G01*
X209560000Y24700000D01*
G75*
G02*
X209310000Y24950000I0J250000D01*
G01*
G37*
G04 #@! TD.AperFunction*
G04 #@! TA.AperFunction,SMDPad,CuDef*
G36*
G01*
X209310000Y21900000D02*
X209310000Y24150000D01*
G75*
G02*
X209560000Y24400000I250000J0D01*
G01*
X212110000Y24400000D01*
G75*
G02*
X212360000Y24150000I0J-250000D01*
G01*
X212360000Y21900000D01*
G75*
G02*
X212110000Y21650000I-250000J0D01*
G01*
X209560000Y21650000D01*
G75*
G02*
X209310000Y21900000I0J250000D01*
G01*
G37*
G04 #@! TD.AperFunction*
G04 #@! TA.AperFunction,SMDPad,CuDef*
G36*
G01*
X209310000Y21899997D02*
X209310000Y27200003D01*
G75*
G02*
X209559997Y27450000I249997J0D01*
G01*
X215460003Y27450000D01*
G75*
G02*
X215710000Y27200003I0J-249997D01*
G01*
X215710000Y21899997D01*
G75*
G02*
X215460003Y21650000I-249997J0D01*
G01*
X209559997Y21650000D01*
G75*
G02*
X209310000Y21899997I0J249997D01*
G01*
G37*
G04 #@! TD.AperFunction*
G04 #@! TA.AperFunction,SMDPad,CuDef*
G36*
G01*
X212660000Y24950000D02*
X212660000Y27200000D01*
G75*
G02*
X212910000Y27450000I250000J0D01*
G01*
X215460000Y27450000D01*
G75*
G02*
X215710000Y27200000I0J-250000D01*
G01*
X215710000Y24950000D01*
G75*
G02*
X215460000Y24700000I-250000J0D01*
G01*
X212910000Y24700000D01*
G75*
G02*
X212660000Y24950000I0J250000D01*
G01*
G37*
G04 #@! TD.AperFunction*
G04 #@! TA.AperFunction,SMDPad,CuDef*
G36*
G01*
X212660000Y21900000D02*
X212660000Y24150000D01*
G75*
G02*
X212910000Y24400000I250000J0D01*
G01*
X215460000Y24400000D01*
G75*
G02*
X215710000Y24150000I0J-250000D01*
G01*
X215710000Y21900000D01*
G75*
G02*
X215460000Y21650000I-250000J0D01*
G01*
X212910000Y21650000D01*
G75*
G02*
X212660000Y21900000I0J250000D01*
G01*
G37*
G04 #@! TD.AperFunction*
G04 #@! TO.P,Q10,3,E*
G04 #@! TO.N,GND*
G04 #@! TA.AperFunction,SMDPad,CuDef*
G36*
G01*
X205110000Y21920000D02*
X205110000Y22620000D01*
G75*
G02*
X205360000Y22870000I250000J0D01*
G01*
X207060000Y22870000D01*
G75*
G02*
X207310000Y22620000I0J-250000D01*
G01*
X207310000Y21920000D01*
G75*
G02*
X207060000Y21670000I-250000J0D01*
G01*
X205360000Y21670000D01*
G75*
G02*
X205110000Y21920000I0J250000D01*
G01*
G37*
G04 #@! TD.AperFunction*
G04 #@! TD*
G04 #@! TO.P,L1,1,1*
G04 #@! TO.N,/EGT+*
G04 #@! TA.AperFunction,SMDPad,CuDef*
G36*
G01*
X207985000Y-5536250D02*
X207985000Y-5023750D01*
G75*
G02*
X208203750Y-4805000I218750J0D01*
G01*
X208641250Y-4805000D01*
G75*
G02*
X208860000Y-5023750I0J-218750D01*
G01*
X208860000Y-5536250D01*
G75*
G02*
X208641250Y-5755000I-218750J0D01*
G01*
X208203750Y-5755000D01*
G75*
G02*
X207985000Y-5536250I0J218750D01*
G01*
G37*
G04 #@! TD.AperFunction*
G04 #@! TO.P,L1,2,2*
G04 #@! TO.N,Net-(U4-T+)*
G04 #@! TA.AperFunction,SMDPad,CuDef*
G36*
G01*
X209560000Y-5536250D02*
X209560000Y-5023750D01*
G75*
G02*
X209778750Y-4805000I218750J0D01*
G01*
X210216250Y-4805000D01*
G75*
G02*
X210435000Y-5023750I0J-218750D01*
G01*
X210435000Y-5536250D01*
G75*
G02*
X210216250Y-5755000I-218750J0D01*
G01*
X209778750Y-5755000D01*
G75*
G02*
X209560000Y-5536250I0J218750D01*
G01*
G37*
G04 #@! TD.AperFunction*
G04 #@! TD*
G04 #@! TO.P,J7,1,Pin_1*
G04 #@! TO.N,/VBUS*
G04 #@! TA.AperFunction,ComponentPad*
G36*
G01*
X176400000Y16825000D02*
X176400000Y18175000D01*
G75*
G02*
X176650000Y18425000I250000J0D01*
G01*
X177850000Y18425000D01*
G75*
G02*
X178100000Y18175000I0J-250000D01*
G01*
X178100000Y16825000D01*
G75*
G02*
X177850000Y16575000I-250000J0D01*
G01*
X176650000Y16575000D01*
G75*
G02*
X176400000Y16825000I0J250000D01*
G01*
G37*
G04 #@! TD.AperFunction*
D49*
G04 #@! TO.P,J7,2,Pin_2*
G04 #@! TO.N,/USB-*
X179750000Y17500000D03*
G04 #@! TO.P,J7,3,Pin_3*
G04 #@! TO.N,/USB+*
X182250000Y17500000D03*
G04 #@! TO.P,J7,4,Pin_4*
G04 #@! TO.N,GND*
X184750000Y17500000D03*
G04 #@! TO.P,J7,5,Pin_5*
X187250000Y17500000D03*
G04 #@! TD*
G04 #@! TO.P,R29,1*
G04 #@! TO.N,GND*
G04 #@! TA.AperFunction,SMDPad,CuDef*
G36*
G01*
X214685000Y102858405D02*
X214685000Y103638405D01*
G75*
G02*
X214755000Y103708405I70000J0D01*
G01*
X215315000Y103708405D01*
G75*
G02*
X215385000Y103638405I0J-70000D01*
G01*
X215385000Y102858405D01*
G75*
G02*
X215315000Y102788405I-70000J0D01*
G01*
X214755000Y102788405D01*
G75*
G02*
X214685000Y102858405I0J70000D01*
G01*
G37*
G04 #@! TD.AperFunction*
G04 #@! TO.P,R29,2*
G04 #@! TO.N,/INJ1*
G04 #@! TA.AperFunction,SMDPad,CuDef*
G36*
G01*
X216285000Y102858405D02*
X216285000Y103638405D01*
G75*
G02*
X216355000Y103708405I70000J0D01*
G01*
X216915000Y103708405D01*
G75*
G02*
X216985000Y103638405I0J-70000D01*
G01*
X216985000Y102858405D01*
G75*
G02*
X216915000Y102788405I-70000J0D01*
G01*
X216355000Y102788405D01*
G75*
G02*
X216285000Y102858405I0J70000D01*
G01*
G37*
G04 #@! TD.AperFunction*
G04 #@! TD*
G04 #@! TO.P,C1,1*
G04 #@! TO.N,GND*
G04 #@! TA.AperFunction,SMDPad,CuDef*
G36*
G01*
X143895000Y9645000D02*
X143895000Y10695000D01*
G75*
G02*
X143995000Y10795000I100000J0D01*
G01*
X144795000Y10795000D01*
G75*
G02*
X144895000Y10695000I0J-100000D01*
G01*
X144895000Y9645000D01*
G75*
G02*
X144795000Y9545000I-100000J0D01*
G01*
X143995000Y9545000D01*
G75*
G02*
X143895000Y9645000I0J100000D01*
G01*
G37*
G04 #@! TD.AperFunction*
G04 #@! TO.P,C1,2*
G04 #@! TO.N,/DC Driver 1/PWR*
G04 #@! TA.AperFunction,SMDPad,CuDef*
G36*
G01*
X145895000Y9645000D02*
X145895000Y10695000D01*
G75*
G02*
X145995000Y10795000I100000J0D01*
G01*
X146795000Y10795000D01*
G75*
G02*
X146895000Y10695000I0J-100000D01*
G01*
X146895000Y9645000D01*
G75*
G02*
X146795000Y9545000I-100000J0D01*
G01*
X145995000Y9545000D01*
G75*
G02*
X145895000Y9645000I0J100000D01*
G01*
G37*
G04 #@! TD.AperFunction*
G04 #@! TD*
G04 #@! TO.P,R22,1*
G04 #@! TO.N,/IGN3*
G04 #@! TA.AperFunction,SMDPad,CuDef*
G36*
G01*
X217255000Y39075000D02*
X217255000Y41925000D01*
G75*
G02*
X217505000Y42175000I250000J0D01*
G01*
X218230000Y42175000D01*
G75*
G02*
X218480000Y41925000I0J-250000D01*
G01*
X218480000Y39075000D01*
G75*
G02*
X218230000Y38825000I-250000J0D01*
G01*
X217505000Y38825000D01*
G75*
G02*
X217255000Y39075000I0J250000D01*
G01*
G37*
G04 #@! TD.AperFunction*
G04 #@! TO.P,R22,2*
G04 #@! TO.N,/OUT_IGN3*
G04 #@! TA.AperFunction,SMDPad,CuDef*
G36*
G01*
X223180000Y39075000D02*
X223180000Y41925000D01*
G75*
G02*
X223430000Y42175000I250000J0D01*
G01*
X224155000Y42175000D01*
G75*
G02*
X224405000Y41925000I0J-250000D01*
G01*
X224405000Y39075000D01*
G75*
G02*
X224155000Y38825000I-250000J0D01*
G01*
X223430000Y38825000D01*
G75*
G02*
X223180000Y39075000I0J250000D01*
G01*
G37*
G04 #@! TD.AperFunction*
G04 #@! TD*
G04 #@! TO.P,R14,1*
G04 #@! TO.N,/DC2_DIS*
G04 #@! TA.AperFunction,SMDPad,CuDef*
G36*
G01*
X167045000Y-5561595D02*
X167045000Y-4781595D01*
G75*
G02*
X167115000Y-4711595I70000J0D01*
G01*
X167675000Y-4711595D01*
G75*
G02*
X167745000Y-4781595I0J-70000D01*
G01*
X167745000Y-5561595D01*
G75*
G02*
X167675000Y-5631595I-70000J0D01*
G01*
X167115000Y-5631595D01*
G75*
G02*
X167045000Y-5561595I0J70000D01*
G01*
G37*
G04 #@! TD.AperFunction*
G04 #@! TO.P,R14,2*
G04 #@! TO.N,+3.3V*
G04 #@! TA.AperFunction,SMDPad,CuDef*
G36*
G01*
X168645000Y-5561595D02*
X168645000Y-4781595D01*
G75*
G02*
X168715000Y-4711595I70000J0D01*
G01*
X169275000Y-4711595D01*
G75*
G02*
X169345000Y-4781595I0J-70000D01*
G01*
X169345000Y-5561595D01*
G75*
G02*
X169275000Y-5631595I-70000J0D01*
G01*
X168715000Y-5631595D01*
G75*
G02*
X168645000Y-5561595I0J70000D01*
G01*
G37*
G04 #@! TD.AperFunction*
G04 #@! TD*
G04 #@! TO.P,R20,1*
G04 #@! TO.N,/IGN1*
G04 #@! TA.AperFunction,SMDPad,CuDef*
G36*
G01*
X217255000Y48855000D02*
X217255000Y51705000D01*
G75*
G02*
X217505000Y51955000I250000J0D01*
G01*
X218230000Y51955000D01*
G75*
G02*
X218480000Y51705000I0J-250000D01*
G01*
X218480000Y48855000D01*
G75*
G02*
X218230000Y48605000I-250000J0D01*
G01*
X217505000Y48605000D01*
G75*
G02*
X217255000Y48855000I0J250000D01*
G01*
G37*
G04 #@! TD.AperFunction*
G04 #@! TO.P,R20,2*
G04 #@! TO.N,/OUT_IGN1*
G04 #@! TA.AperFunction,SMDPad,CuDef*
G36*
G01*
X223180000Y48855000D02*
X223180000Y51705000D01*
G75*
G02*
X223430000Y51955000I250000J0D01*
G01*
X224155000Y51955000D01*
G75*
G02*
X224405000Y51705000I0J-250000D01*
G01*
X224405000Y48855000D01*
G75*
G02*
X224155000Y48605000I-250000J0D01*
G01*
X223430000Y48605000D01*
G75*
G02*
X223180000Y48855000I0J250000D01*
G01*
G37*
G04 #@! TD.AperFunction*
G04 #@! TD*
G04 #@! TO.P,R1,1*
G04 #@! TO.N,+5VP*
G04 #@! TA.AperFunction,SMDPad,CuDef*
G36*
G01*
X153485000Y21908405D02*
X153485000Y22688405D01*
G75*
G02*
X153555000Y22758405I70000J0D01*
G01*
X154115000Y22758405D01*
G75*
G02*
X154185000Y22688405I0J-70000D01*
G01*
X154185000Y21908405D01*
G75*
G02*
X154115000Y21838405I-70000J0D01*
G01*
X153555000Y21838405D01*
G75*
G02*
X153485000Y21908405I0J70000D01*
G01*
G37*
G04 #@! TD.AperFunction*
G04 #@! TO.P,R1,2*
G04 #@! TO.N,Net-(R1-Pad2)*
G04 #@! TA.AperFunction,SMDPad,CuDef*
G36*
G01*
X155085000Y21908405D02*
X155085000Y22688405D01*
G75*
G02*
X155155000Y22758405I70000J0D01*
G01*
X155715000Y22758405D01*
G75*
G02*
X155785000Y22688405I0J-70000D01*
G01*
X155785000Y21908405D01*
G75*
G02*
X155715000Y21838405I-70000J0D01*
G01*
X155155000Y21838405D01*
G75*
G02*
X155085000Y21908405I0J70000D01*
G01*
G37*
G04 #@! TD.AperFunction*
G04 #@! TD*
D24*
G04 #@! TO.P,M3,E1,Thresh_IN*
G04 #@! TO.N,/VR1_THRESHOLD*
X172875000Y40275000D03*
G04 #@! TO.P,M3,E2,OUT_A*
G04 #@! TO.N,/VR1_A*
X172875000Y39075000D03*
G04 #@! TO.P,M3,E3,OUT*
G04 #@! TO.N,/VR1*
X172875000Y41475000D03*
G04 #@! TO.P,M3,E4,V5_IN*
G04 #@! TO.N,+5VA*
X172875000Y42675000D03*
D27*
G04 #@! TO.P,M3,G,GND*
G04 #@! TO.N,GND*
X158225000Y40007500D03*
D28*
X158225000Y33957500D03*
D29*
X165237500Y42975000D03*
D30*
X165650000Y33525000D03*
D31*
X173075000Y35987500D03*
D24*
G04 #@! TO.P,M3,W1,VR-*
G04 #@! TO.N,/VR1-*
X158450000Y36215000D03*
G04 #@! TO.P,M3,W2,VR+*
G04 #@! TO.N,/VR1+*
X158450000Y35215000D03*
G04 #@! TD*
G04 #@! TO.P,D7,1*
G04 #@! TO.N,/OUT_LS_WEAK2*
G04 #@! TA.AperFunction,SMDPad,CuDef*
G36*
G01*
X182465000Y5420000D02*
X182465000Y5720000D01*
G75*
G02*
X182615000Y5870000I150000J0D01*
G01*
X183790000Y5870000D01*
G75*
G02*
X183940000Y5720000I0J-150000D01*
G01*
X183940000Y5420000D01*
G75*
G02*
X183790000Y5270000I-150000J0D01*
G01*
X182615000Y5270000D01*
G75*
G02*
X182465000Y5420000I0J150000D01*
G01*
G37*
G04 #@! TD.AperFunction*
G04 #@! TO.P,D7,2*
G04 #@! TO.N,GND*
G04 #@! TA.AperFunction,SMDPad,CuDef*
G36*
G01*
X184340000Y4470000D02*
X184340000Y4770000D01*
G75*
G02*
X184490000Y4920000I150000J0D01*
G01*
X185665000Y4920000D01*
G75*
G02*
X185815000Y4770000I0J-150000D01*
G01*
X185815000Y4470000D01*
G75*
G02*
X185665000Y4320000I-150000J0D01*
G01*
X184490000Y4320000D01*
G75*
G02*
X184340000Y4470000I0J150000D01*
G01*
G37*
G04 #@! TD.AperFunction*
G04 #@! TO.P,D7,3*
G04 #@! TO.N,unconnected-(D7-Pad3)*
G04 #@! TA.AperFunction,SMDPad,CuDef*
G36*
G01*
X182465000Y3520000D02*
X182465000Y3820000D01*
G75*
G02*
X182615000Y3970000I150000J0D01*
G01*
X183790000Y3970000D01*
G75*
G02*
X183940000Y3820000I0J-150000D01*
G01*
X183940000Y3520000D01*
G75*
G02*
X183790000Y3370000I-150000J0D01*
G01*
X182615000Y3370000D01*
G75*
G02*
X182465000Y3520000I0J150000D01*
G01*
G37*
G04 #@! TD.AperFunction*
G04 #@! TD*
G04 #@! TO.P,C15,1*
G04 #@! TO.N,GND*
G04 #@! TA.AperFunction,SMDPad,CuDef*
G36*
G01*
X163045000Y7395000D02*
X163045000Y8445000D01*
G75*
G02*
X163145000Y8545000I100000J0D01*
G01*
X163945000Y8545000D01*
G75*
G02*
X164045000Y8445000I0J-100000D01*
G01*
X164045000Y7395000D01*
G75*
G02*
X163945000Y7295000I-100000J0D01*
G01*
X163145000Y7295000D01*
G75*
G02*
X163045000Y7395000I0J100000D01*
G01*
G37*
G04 #@! TD.AperFunction*
G04 #@! TO.P,C15,2*
G04 #@! TO.N,/DC Driver 2/PWR*
G04 #@! TA.AperFunction,SMDPad,CuDef*
G36*
G01*
X165045000Y7395000D02*
X165045000Y8445000D01*
G75*
G02*
X165145000Y8545000I100000J0D01*
G01*
X165945000Y8545000D01*
G75*
G02*
X166045000Y8445000I0J-100000D01*
G01*
X166045000Y7395000D01*
G75*
G02*
X165945000Y7295000I-100000J0D01*
G01*
X165145000Y7295000D01*
G75*
G02*
X165045000Y7395000I0J100000D01*
G01*
G37*
G04 #@! TD.AperFunction*
G04 #@! TD*
G04 #@! TO.P,R19,1*
G04 #@! TO.N,Net-(Q9-G)*
G04 #@! TA.AperFunction,SMDPad,CuDef*
G36*
G01*
X216985000Y18120313D02*
X216985000Y18900313D01*
G75*
G02*
X217055000Y18970313I70000J0D01*
G01*
X217615000Y18970313D01*
G75*
G02*
X217685000Y18900313I0J-70000D01*
G01*
X217685000Y18120313D01*
G75*
G02*
X217615000Y18050313I-70000J0D01*
G01*
X217055000Y18050313D01*
G75*
G02*
X216985000Y18120313I0J70000D01*
G01*
G37*
G04 #@! TD.AperFunction*
G04 #@! TO.P,R19,2*
G04 #@! TO.N,/IGN3*
G04 #@! TA.AperFunction,SMDPad,CuDef*
G36*
G01*
X218585000Y18120313D02*
X218585000Y18900313D01*
G75*
G02*
X218655000Y18970313I70000J0D01*
G01*
X219215000Y18970313D01*
G75*
G02*
X219285000Y18900313I0J-70000D01*
G01*
X219285000Y18120313D01*
G75*
G02*
X219215000Y18050313I-70000J0D01*
G01*
X218655000Y18050313D01*
G75*
G02*
X218585000Y18120313I0J70000D01*
G01*
G37*
G04 #@! TD.AperFunction*
G04 #@! TD*
G04 #@! TO.P,D4,1,K*
G04 #@! TO.N,+12V_RAW*
G04 #@! TA.AperFunction,SMDPad,CuDef*
G36*
G01*
X230045000Y95915000D02*
X230045000Y96935000D01*
G75*
G02*
X230135000Y97025000I90000J0D01*
G01*
X230855000Y97025000D01*
G75*
G02*
X230945000Y96935000I0J-90000D01*
G01*
X230945000Y95915000D01*
G75*
G02*
X230855000Y95825000I-90000J0D01*
G01*
X230135000Y95825000D01*
G75*
G02*
X230045000Y95915000I0J90000D01*
G01*
G37*
G04 #@! TD.AperFunction*
G04 #@! TO.P,D4,2,A*
G04 #@! TO.N,/OUT_LS3*
G04 #@! TA.AperFunction,SMDPad,CuDef*
G36*
G01*
X233345000Y95915000D02*
X233345000Y96935000D01*
G75*
G02*
X233435000Y97025000I90000J0D01*
G01*
X234155000Y97025000D01*
G75*
G02*
X234245000Y96935000I0J-90000D01*
G01*
X234245000Y95915000D01*
G75*
G02*
X234155000Y95825000I-90000J0D01*
G01*
X233435000Y95825000D01*
G75*
G02*
X233345000Y95915000I0J90000D01*
G01*
G37*
G04 #@! TD.AperFunction*
G04 #@! TD*
G04 #@! TO.P,R11,1*
G04 #@! TO.N,GND*
G04 #@! TA.AperFunction,SMDPad,CuDef*
G36*
G01*
X229835000Y88429359D02*
X229835000Y89209359D01*
G75*
G02*
X229905000Y89279359I70000J0D01*
G01*
X230465000Y89279359D01*
G75*
G02*
X230535000Y89209359I0J-70000D01*
G01*
X230535000Y88429359D01*
G75*
G02*
X230465000Y88359359I-70000J0D01*
G01*
X229905000Y88359359D01*
G75*
G02*
X229835000Y88429359I0J70000D01*
G01*
G37*
G04 #@! TD.AperFunction*
G04 #@! TO.P,R11,2*
G04 #@! TO.N,/LS2*
G04 #@! TA.AperFunction,SMDPad,CuDef*
G36*
G01*
X231435000Y88429359D02*
X231435000Y89209359D01*
G75*
G02*
X231505000Y89279359I70000J0D01*
G01*
X232065000Y89279359D01*
G75*
G02*
X232135000Y89209359I0J-70000D01*
G01*
X232135000Y88429359D01*
G75*
G02*
X232065000Y88359359I-70000J0D01*
G01*
X231505000Y88359359D01*
G75*
G02*
X231435000Y88429359I0J70000D01*
G01*
G37*
G04 #@! TD.AperFunction*
G04 #@! TD*
G04 #@! TO.P,C26,1*
G04 #@! TO.N,GND*
G04 #@! TA.AperFunction,SMDPad,CuDef*
G36*
G01*
X167045000Y-3544956D02*
X167045000Y-2864956D01*
G75*
G02*
X167130000Y-2779956I85000J0D01*
G01*
X167810000Y-2779956D01*
G75*
G02*
X167895000Y-2864956I0J-85000D01*
G01*
X167895000Y-3544956D01*
G75*
G02*
X167810000Y-3629956I-85000J0D01*
G01*
X167130000Y-3629956D01*
G75*
G02*
X167045000Y-3544956I0J85000D01*
G01*
G37*
G04 #@! TD.AperFunction*
G04 #@! TO.P,C26,2*
G04 #@! TO.N,/OUT_DC2+*
G04 #@! TA.AperFunction,SMDPad,CuDef*
G36*
G01*
X168625002Y-3544956D02*
X168625002Y-2864956D01*
G75*
G02*
X168710002Y-2779956I85000J0D01*
G01*
X169390002Y-2779956D01*
G75*
G02*
X169475002Y-2864956I0J-85000D01*
G01*
X169475002Y-3544956D01*
G75*
G02*
X169390002Y-3629956I-85000J0D01*
G01*
X168710002Y-3629956D01*
G75*
G02*
X168625002Y-3544956I0J85000D01*
G01*
G37*
G04 #@! TD.AperFunction*
G04 #@! TD*
D50*
G04 #@! TO.P,M1,E1,VBAT*
G04 #@! TO.N,/VBAT*
X190774996Y41974998D03*
G04 #@! TO.P,M1,E2,V12*
G04 #@! TO.N,unconnected-(M1-V12-PadE2)*
X190774996Y35575001D03*
G04 #@! TO.P,M1,E3,VIGN*
G04 #@! TO.N,/VIGN*
X190774996Y33674998D03*
G04 #@! TO.P,M1,E4,V5*
G04 #@! TO.N,+5V*
X190774996Y29374998D03*
D24*
G04 #@! TO.P,M1,E5,EN_5VP*
G04 #@! TO.N,/PWR_EN*
X191224995Y26975001D03*
G04 #@! TO.P,M1,E6,PG_5VP*
G04 #@! TO.N,/IN_TLS115_PG*
X191224995Y25975000D03*
D51*
G04 #@! TO.P,M1,S1,GND*
G04 #@! TO.N,GND*
X174625000Y38124998D03*
D52*
X174625000Y29625000D03*
D53*
X174625000Y22524998D03*
D54*
X183024998Y22474998D03*
D55*
X183824999Y43074998D03*
D50*
X190774996Y23124998D03*
D53*
X191424997Y43024998D03*
D56*
X191424997Y38825000D03*
D57*
X191424997Y31474998D03*
D58*
X191424997Y27975001D03*
D59*
X191424997Y24675000D03*
D50*
G04 #@! TO.P,M1,V1,V12_PERM*
G04 #@! TO.N,+12V_RAW*
X175274999Y42425000D03*
G04 #@! TO.P,M1,V2,IN_VIGN*
G04 #@! TO.N,/IN_VIGN*
X175274999Y40575001D03*
G04 #@! TO.P,M1,V3,V12_RAW*
G04 #@! TO.N,+12V_RAW*
X175274999Y35624998D03*
G04 #@! TO.P,M1,V4,5VP*
G04 #@! TO.N,+5VP*
X175274999Y23575000D03*
G04 #@! TD*
G04 #@! TO.P,R28,1*
G04 #@! TO.N,/IGN6*
G04 #@! TA.AperFunction,SMDPad,CuDef*
G36*
G01*
X217255000Y24405000D02*
X217255000Y27255000D01*
G75*
G02*
X217505000Y27505000I250000J0D01*
G01*
X218230000Y27505000D01*
G75*
G02*
X218480000Y27255000I0J-250000D01*
G01*
X218480000Y24405000D01*
G75*
G02*
X218230000Y24155000I-250000J0D01*
G01*
X217505000Y24155000D01*
G75*
G02*
X217255000Y24405000I0J250000D01*
G01*
G37*
G04 #@! TD.AperFunction*
G04 #@! TO.P,R28,2*
G04 #@! TO.N,/OUT_IGN6*
G04 #@! TA.AperFunction,SMDPad,CuDef*
G36*
G01*
X223180000Y24405000D02*
X223180000Y27255000D01*
G75*
G02*
X223430000Y27505000I250000J0D01*
G01*
X224155000Y27505000D01*
G75*
G02*
X224405000Y27255000I0J-250000D01*
G01*
X224405000Y24405000D01*
G75*
G02*
X224155000Y24155000I-250000J0D01*
G01*
X223430000Y24155000D01*
G75*
G02*
X223180000Y24405000I0J250000D01*
G01*
G37*
G04 #@! TD.AperFunction*
G04 #@! TD*
D18*
G04 #@! TO.P,G4,1*
G04 #@! TO.N,Net-(G4-Pad1)*
X190601000Y57167000D03*
G04 #@! TO.P,G4,2*
G04 #@! TO.N,Net-(G4-Pad12)*
X193141000Y57167000D03*
G04 #@! TO.P,G4,3*
G04 #@! TO.N,Net-(G4-Pad13)*
X195681000Y57167000D03*
G04 #@! TO.P,G4,4*
G04 #@! TO.N,Net-(G4-Pad14)*
X198221000Y57167000D03*
G04 #@! TO.P,G4,5*
G04 #@! TO.N,Net-(G4-Pad10)*
X200761000Y57167000D03*
G04 #@! TO.P,G4,6*
G04 #@! TO.N,Net-(G4-Pad1)*
X190601000Y54627000D03*
G04 #@! TO.P,G4,7*
G04 #@! TO.N,Net-(G4-Pad12)*
X193141000Y54627000D03*
G04 #@! TO.P,G4,8*
G04 #@! TO.N,Net-(G4-Pad13)*
X195681000Y54627000D03*
G04 #@! TO.P,G4,9*
G04 #@! TO.N,Net-(G4-Pad14)*
X198221000Y54627000D03*
G04 #@! TO.P,G4,10*
G04 #@! TO.N,Net-(G4-Pad10)*
X200761000Y54627000D03*
G04 #@! TO.P,G4,11*
G04 #@! TO.N,Net-(G4-Pad1)*
X190601000Y52087000D03*
G04 #@! TO.P,G4,12*
G04 #@! TO.N,Net-(G4-Pad12)*
X193141000Y52087000D03*
G04 #@! TO.P,G4,13*
G04 #@! TO.N,Net-(G4-Pad13)*
X195681000Y52087000D03*
G04 #@! TO.P,G4,14*
G04 #@! TO.N,Net-(G4-Pad14)*
X198221000Y52087000D03*
G04 #@! TO.P,G4,15*
G04 #@! TO.N,Net-(G4-Pad10)*
X200761000Y52087000D03*
G04 #@! TD*
G04 #@! TO.P,C7,1*
G04 #@! TO.N,GND*
G04 #@! TA.AperFunction,SMDPad,CuDef*
G36*
G01*
X143895000Y-3855000D02*
X143895000Y-2805000D01*
G75*
G02*
X143995000Y-2705000I100000J0D01*
G01*
X144795000Y-2705000D01*
G75*
G02*
X144895000Y-2805000I0J-100000D01*
G01*
X144895000Y-3855000D01*
G75*
G02*
X144795000Y-3955000I-100000J0D01*
G01*
X143995000Y-3955000D01*
G75*
G02*
X143895000Y-3855000I0J100000D01*
G01*
G37*
G04 #@! TD.AperFunction*
G04 #@! TO.P,C7,2*
G04 #@! TO.N,/DC Driver 1/PWR*
G04 #@! TA.AperFunction,SMDPad,CuDef*
G36*
G01*
X145895000Y-3855000D02*
X145895000Y-2805000D01*
G75*
G02*
X145995000Y-2705000I100000J0D01*
G01*
X146795000Y-2705000D01*
G75*
G02*
X146895000Y-2805000I0J-100000D01*
G01*
X146895000Y-3855000D01*
G75*
G02*
X146795000Y-3955000I-100000J0D01*
G01*
X145995000Y-3955000D01*
G75*
G02*
X145895000Y-3855000I0J100000D01*
G01*
G37*
G04 #@! TD.AperFunction*
G04 #@! TD*
G04 #@! TO.P,C29,1*
G04 #@! TO.N,Net-(U4-T-)*
G04 #@! TA.AperFunction,SMDPad,CuDef*
G36*
G01*
X205010000Y-700000D02*
X205010000Y-360000D01*
G75*
G02*
X205150000Y-220000I140000J0D01*
G01*
X205430000Y-220000D01*
G75*
G02*
X205570000Y-360000I0J-140000D01*
G01*
X205570000Y-700000D01*
G75*
G02*
X205430000Y-840000I-140000J0D01*
G01*
X205150000Y-840000D01*
G75*
G02*
X205010000Y-700000I0J140000D01*
G01*
G37*
G04 #@! TD.AperFunction*
G04 #@! TO.P,C29,2*
G04 #@! TO.N,Net-(U4-T+)*
G04 #@! TA.AperFunction,SMDPad,CuDef*
G36*
G01*
X205970000Y-700000D02*
X205970000Y-360000D01*
G75*
G02*
X206110000Y-220000I140000J0D01*
G01*
X206390000Y-220000D01*
G75*
G02*
X206530000Y-360000I0J-140000D01*
G01*
X206530000Y-700000D01*
G75*
G02*
X206390000Y-840000I-140000J0D01*
G01*
X206110000Y-840000D01*
G75*
G02*
X205970000Y-700000I0J140000D01*
G01*
G37*
G04 #@! TD.AperFunction*
G04 #@! TD*
D60*
G04 #@! TO.P,J8,1,VBUS*
G04 #@! TO.N,/VBUS*
X195350000Y22600000D03*
D61*
G04 #@! TO.P,J8,2,D-*
G04 #@! TO.N,/USB-*
X196150000Y24350000D03*
G04 #@! TO.P,J8,3,D+*
G04 #@! TO.N,/USB+*
X196950000Y22600000D03*
G04 #@! TO.P,J8,4,ID*
G04 #@! TO.N,unconnected-(J8-ID-Pad4)*
X197750000Y24350000D03*
G04 #@! TO.P,J8,5,GND*
G04 #@! TO.N,GND*
X198550000Y22600000D03*
D62*
G04 #@! TO.P,J8,6,Shield*
X193300000Y23475000D03*
X200600000Y23475000D03*
G04 #@! TD*
G04 #@! TO.P,R21,1*
G04 #@! TO.N,/IGN2*
G04 #@! TA.AperFunction,SMDPad,CuDef*
G36*
G01*
X217255000Y43965000D02*
X217255000Y46815000D01*
G75*
G02*
X217505000Y47065000I250000J0D01*
G01*
X218230000Y47065000D01*
G75*
G02*
X218480000Y46815000I0J-250000D01*
G01*
X218480000Y43965000D01*
G75*
G02*
X218230000Y43715000I-250000J0D01*
G01*
X217505000Y43715000D01*
G75*
G02*
X217255000Y43965000I0J250000D01*
G01*
G37*
G04 #@! TD.AperFunction*
G04 #@! TO.P,R21,2*
G04 #@! TO.N,/OUT_IGN2*
G04 #@! TA.AperFunction,SMDPad,CuDef*
G36*
G01*
X223180000Y43965000D02*
X223180000Y46815000D01*
G75*
G02*
X223430000Y47065000I250000J0D01*
G01*
X224155000Y47065000D01*
G75*
G02*
X224405000Y46815000I0J-250000D01*
G01*
X224405000Y43965000D01*
G75*
G02*
X224155000Y43715000I-250000J0D01*
G01*
X223430000Y43715000D01*
G75*
G02*
X223180000Y43965000I0J250000D01*
G01*
G37*
G04 #@! TD.AperFunction*
G04 #@! TD*
M02*
