M48
; DRILL file {KiCad 7.0.9-7.0.9~ubuntu22.04.1} date Wed Nov 29 19:51:35 2023
; FORMAT={2:4/ absolute / inch / suppress leading zeros}
; #@! TF.CreationDate,2023-11-29T19:51:35+00:00
; #@! TF.GenerationSoftware,Kicad,Pcbnew,7.0.9-7.0.9~ubuntu22.04.1
; #@! TF.FileFunction,MixedPlating,1,2
FMAT,2
INCH,TZ
; #@! TA.AperFunction,Plated,PTH,ComponentDrill
T1C0.0118
; #@! TA.AperFunction,Plated,PTH,ComponentDrill
T2C0.0197
; #@! TA.AperFunction,Plated,PTH,ComponentDrill
T3C0.0236
; #@! TA.AperFunction,Plated,PTH,ComponentDrill
T4C0.0276
; #@! TA.AperFunction,Plated,PTH,ComponentDrill
T5C0.0320
; #@! TA.AperFunction,Plated,PTH,ComponentDrill
T6C0.0335
; #@! TA.AperFunction,Plated,PTH,ComponentDrill
T7C0.0394
; #@! TA.AperFunction,Plated,PTH,ComponentDrill
T8C0.0709
; #@! TA.AperFunction,Plated,PTH,ComponentDrill
T9C0.1200
; #@! TA.AperFunction,Plated,PTH,ComponentDrill
T10C0.1260
; #@! TA.AperFunction,NonPlated,NPTH,ComponentDrill
T11C0.0256
; #@! TA.AperFunction,NonPlated,NPTH,ComponentDrill
T12C0.0591
; #@! TA.AperFunction,NonPlated,NPTH,ComponentDrill
T13C0.1181
%
G90
G05
T1
X47959Y6907
X47959Y6553
X51384Y6907
X51384Y6533
X51384Y6159
X62352Y40718
X62352Y38868
X62352Y38317
X62352Y36467
X62352Y36152
X62352Y35128
X62352Y34734
X62352Y34341
X62352Y33947
X62352Y33553
X62352Y33159
X62352Y32766
X62352Y32372
X62352Y28159
X62352Y27766
X62382Y14258
X62382Y13864
X62382Y9907
X62382Y9514
X62510Y26781
X63455Y26781
X63927Y26781
X64400Y26781
X64872Y26781
X65266Y40718
X65344Y26781
X65659Y40718
X65817Y26781
X66289Y26781
X66722Y40718
X66762Y26781
X67234Y26781
X67707Y26781
X68061Y16801
X68061Y16329
X68061Y15856
X68061Y15384
X68061Y12451
X68061Y11978
X68061Y11506
X68061Y11033
X68179Y26781
X68415Y40718
X68652Y26781
X68730Y40718
X69045Y40718
X69124Y26781
X69360Y40718
X69596Y26781
X69675Y40718
X69990Y40718
X70069Y26781
X70305Y40718
X70541Y26781
X70620Y40718
X70935Y40718
X71014Y26781
X71486Y26781
X71880Y40718
X71959Y26781
X72195Y40718
X72431Y26781
X72510Y40718
X72825Y40718
X72904Y26781
X73140Y40718
X73455Y40718
X73770Y40718
X74085Y40718
X74400Y40718
X74715Y40718
X75030Y40718
X75285Y10620
X75285Y10226
X75344Y40718
X75502Y35443
X75502Y29341
X75502Y37884
X75502Y37569
X75502Y37254
X75502Y36939
X75502Y36624
X75502Y36309
X75502Y35758
X75502Y35128
X75502Y34813
X75502Y34498
X75502Y34183
X75502Y33868
X75502Y33553
X75502Y33238
X75502Y32923
X75502Y32608
X75502Y32293
X75502Y31978
X75502Y31663
X75502Y31348
X75502Y31033
T2
X76437Y39469
X76437Y36339
X76437Y33209
X76437Y30079
X76714Y40137
X76714Y38800
X76714Y37007
X76714Y35670
X76714Y33877
X76714Y32541
X76714Y30747
X76714Y29411
X77382Y40413
X77382Y38524
X77382Y37283
X77382Y35394
X77382Y34154
X77382Y32264
X77382Y31024
X77382Y29134
X78050Y40137
X78050Y38800
X78050Y37007
X78050Y35670
X78050Y33877
X78050Y32541
X78050Y30747
X78050Y29411
X78327Y39469
X78327Y36339
X78327Y33209
X78327Y30079
T4
X76909Y8898
X77224Y9587
X77539Y8898
X77854Y9587
X78169Y8898
T5
X47396Y-5575
X48396Y-5575
X49396Y-5575
X50396Y-5575
X51396Y-5575
X52396Y-5575
X53085Y12900
X53085Y11671
X53085Y10443
X53085Y9215
X55014Y12900
X55014Y11671
X55014Y10443
X55014Y9215
X76162Y7520
X76162Y6397
X77662Y7520
X77662Y6397
T6
X69783Y6890
X70768Y6890
X71752Y6890
X72736Y6890
X73720Y6890
T7
X69006Y16703
X69006Y15974
X69006Y14026
X69006Y9281
X75040Y25748
X75040Y24748
X75040Y23748
X75040Y22507
X75040Y21507
X75040Y20507
X75108Y16526
X75108Y14006
X75108Y13258
X75108Y11565
X75108Y9104
X76040Y25748
X76040Y24748
X76040Y23748
X76040Y22507
X76040Y21507
X76040Y20507
X76516Y16280
X76516Y15280
X76516Y14280
X76516Y13280
X76516Y12280
X76516Y11280
X77040Y25748
X77040Y24748
X77040Y23748
X77040Y22507
X77040Y21507
X77040Y20507
X78040Y25748
X78040Y24748
X78040Y23748
X78040Y22507
X78040Y21507
X78040Y20507
X79040Y25748
X79040Y24748
X79040Y23748
X79040Y22507
X79040Y21507
X79040Y20507
T8
X45591Y35157
X45591Y32992
X45591Y25984
X45591Y23819
X45591Y16811
X45591Y14646
X47244Y35157
X47244Y32992
X47244Y25984
X47244Y23819
X47244Y16811
X47244Y14646
X48898Y35157
X48898Y32992
X48898Y25984
X48898Y23819
X48898Y16811
X48898Y14646
X50551Y35157
X50551Y32992
X50551Y25984
X50551Y23819
X50551Y16811
X50551Y14646
X52205Y35157
X52205Y32992
X52205Y25984
X52205Y23819
X52205Y16811
X52205Y14646
X53858Y35157
X53858Y32992
X53858Y25984
X53858Y23819
X53858Y16811
X53858Y14646
X55512Y35157
X55512Y32992
X55512Y25984
X55512Y23819
X55512Y16811
X55512Y14646
X57165Y35157
X57165Y32992
X57165Y25984
X57165Y23819
X57165Y16811
X57165Y14646
X58819Y35157
X58819Y32992
X58819Y25984
X58819Y23819
X58819Y16811
X58819Y14646
X60472Y35157
X60472Y32992
X60472Y25984
X60472Y23819
X60472Y16811
X60472Y14646
X63406Y20492
X63406Y18327
X65059Y20492
X65059Y18327
X66713Y20492
X66713Y18327
X69646Y20492
X69646Y18327
X71299Y20492
X71299Y18327
X72953Y20492
X72953Y18327
T9
X45396Y-575
X54396Y-575
T10
X77382Y39469
X77382Y36339
X77382Y33209
X77382Y30079
T11
X56791Y8112
X59067Y8112
T12
X46801Y10435
X49754Y10435
T13
X45591Y38031
X45591Y28858
X45591Y19685
X60472Y38031
X60472Y28858
X60472Y19685
X63406Y23366
X66713Y23366
X69646Y23366
X72953Y23366
T3
X56228Y8526G85X56228Y8093
G05
X56228Y6781G85X56228Y6545
G05
X59630Y8526G85X59630Y8093
G05
X59630Y6781G85X59630Y6545
G05
T4
X76102Y9498G85X76102Y8986
G05
X78976Y9498G85X78976Y8986
G05
T0
M30
