G04 #@! TF.GenerationSoftware,KiCad,Pcbnew,7.0.9-7.0.9~ubuntu22.04.1*
G04 #@! TF.CreationDate,2023-11-30T13:55:00+00:00*
G04 #@! TF.ProjectId,uaefi,75616566-692e-46b6-9963-61645f706362,rev?*
G04 #@! TF.SameCoordinates,Original*
G04 #@! TF.FileFunction,Soldermask,Top*
G04 #@! TF.FilePolarity,Negative*
%FSLAX46Y46*%
G04 Gerber Fmt 4.6, Leading zero omitted, Abs format (unit mm)*
G04 Created by KiCad (PCBNEW 7.0.9-7.0.9~ubuntu22.04.1) date 2023-11-30 13:55:00*
%MOMM*%
%LPD*%
G01*
G04 APERTURE LIST*
%ADD10R,2.000000X0.650000*%
%ADD11R,4.500000X8.100000*%
%ADD12R,2.000000X1.500000*%
%ADD13R,2.000000X3.800000*%
%ADD14C,0.800000*%
%ADD15C,6.400000*%
%ADD16C,3.000000*%
%ADD17O,2.700000X3.700000*%
%ADD18C,1.700000*%
%ADD19C,1.524000*%
%ADD20C,1.500000*%
%ADD21R,4.399991X2.299995*%
%ADD22R,3.999992X2.299995*%
%ADD23R,1.700000X1.700000*%
%ADD24O,1.700000X1.700000*%
%ADD25C,0.600000*%
%ADD26C,0.650000*%
%ADD27R,0.300000X1.150000*%
%ADD28O,1.000000X2.100000*%
%ADD29O,1.000000X1.600000*%
%ADD30C,3.302000*%
%ADD31R,1.350000X0.690000*%
%ADD32O,1.700000X1.850000*%
%ADD33R,1.100000X1.100000*%
%ADD34C,1.100000*%
%ADD35O,1.100000X2.400000*%
G04 APERTURE END LIST*
D10*
G04 #@! TO.C,U1*
X149170000Y8970000D03*
X149170000Y7970000D03*
X149170000Y6970000D03*
X149170000Y5970000D03*
X149170000Y4970000D03*
X149170000Y3970000D03*
X158770000Y3970000D03*
X158770000Y4970000D03*
X158770000Y5970000D03*
X158770000Y6970000D03*
X158770000Y7970000D03*
X158770000Y8970000D03*
D11*
X153970000Y6470000D03*
G04 #@! TD*
D12*
G04 #@! TO.C,Q16*
X206110000Y77650000D03*
X206110000Y75350000D03*
X206110000Y73050000D03*
D13*
X212410000Y75350000D03*
G04 #@! TD*
D14*
G04 #@! TO.C,H4*
X194150000Y76400000D03*
X194852944Y78097056D03*
X194852944Y74702944D03*
X196550000Y78800000D03*
D15*
X196550000Y76400000D03*
D14*
X196550000Y74000000D03*
X198247056Y78097056D03*
X198247056Y74702944D03*
X198950000Y76400000D03*
G04 #@! TD*
D16*
G04 #@! TO.C,J5*
X115800000Y50000000D03*
X153600000Y50000000D03*
G36*
G01*
X114450000Y41100001D02*
X114450000Y44299999D01*
G75*
G02*
X114700001Y44550000I250001J0D01*
G01*
X116899999Y44550000D01*
G75*
G02*
X117150000Y44299999I0J-250001D01*
G01*
X117150000Y41100001D01*
G75*
G02*
X116899999Y40850000I-250001J0D01*
G01*
X114700001Y40850000D01*
G75*
G02*
X114450000Y41100001I0J250001D01*
G01*
G37*
D17*
X120000000Y42700000D03*
X124200000Y42700000D03*
X128400000Y42700000D03*
X132600000Y42700000D03*
X136800000Y42700000D03*
X141000000Y42700000D03*
X145200000Y42700000D03*
X149400000Y42700000D03*
X153600000Y42700000D03*
X115800000Y37200000D03*
X120000000Y37200000D03*
X124200000Y37200000D03*
X128400000Y37200000D03*
X132600000Y37200000D03*
X136800000Y37200000D03*
X141000000Y37200000D03*
X145200000Y37200000D03*
X149400000Y37200000D03*
X153600000Y37200000D03*
G04 #@! TD*
G04 #@! TO.C,C2*
G36*
G01*
X143895000Y7395000D02*
X143895000Y8445000D01*
G75*
G02*
X143995000Y8545000I100000J0D01*
G01*
X144795000Y8545000D01*
G75*
G02*
X144895000Y8445000I0J-100000D01*
G01*
X144895000Y7395000D01*
G75*
G02*
X144795000Y7295000I-100000J0D01*
G01*
X143995000Y7295000D01*
G75*
G02*
X143895000Y7395000I0J100000D01*
G01*
G37*
G36*
G01*
X145895000Y7395000D02*
X145895000Y8445000D01*
G75*
G02*
X145995000Y8545000I100000J0D01*
G01*
X146795000Y8545000D01*
G75*
G02*
X146895000Y8445000I0J-100000D01*
G01*
X146895000Y7395000D01*
G75*
G02*
X146795000Y7295000I-100000J0D01*
G01*
X145995000Y7295000D01*
G75*
G02*
X145895000Y7395000I0J100000D01*
G01*
G37*
G04 #@! TD*
G04 #@! TO.C,C27*
G36*
G01*
X112575000Y-16704986D02*
X112575000Y-16024986D01*
G75*
G02*
X112660000Y-15939986I85000J0D01*
G01*
X113340000Y-15939986D01*
G75*
G02*
X113425000Y-16024986I0J-85000D01*
G01*
X113425000Y-16704986D01*
G75*
G02*
X113340000Y-16789986I-85000J0D01*
G01*
X112660000Y-16789986D01*
G75*
G02*
X112575000Y-16704986I0J85000D01*
G01*
G37*
G36*
G01*
X114155002Y-16704986D02*
X114155002Y-16024986D01*
G75*
G02*
X114240002Y-15939986I85000J0D01*
G01*
X114920002Y-15939986D01*
G75*
G02*
X115005002Y-16024986I0J-85000D01*
G01*
X115005002Y-16704986D01*
G75*
G02*
X114920002Y-16789986I-85000J0D01*
G01*
X114240002Y-16789986D01*
G75*
G02*
X114155002Y-16704986I0J85000D01*
G01*
G37*
G04 #@! TD*
G04 #@! TO.C,C14*
G36*
G01*
X163045000Y9645000D02*
X163045000Y10695000D01*
G75*
G02*
X163145000Y10795000I100000J0D01*
G01*
X163945000Y10795000D01*
G75*
G02*
X164045000Y10695000I0J-100000D01*
G01*
X164045000Y9645000D01*
G75*
G02*
X163945000Y9545000I-100000J0D01*
G01*
X163145000Y9545000D01*
G75*
G02*
X163045000Y9645000I0J100000D01*
G01*
G37*
G36*
G01*
X165045000Y9645000D02*
X165045000Y10695000D01*
G75*
G02*
X165145000Y10795000I100000J0D01*
G01*
X165945000Y10795000D01*
G75*
G02*
X166045000Y10695000I0J-100000D01*
G01*
X166045000Y9645000D01*
G75*
G02*
X165945000Y9545000I-100000J0D01*
G01*
X165145000Y9545000D01*
G75*
G02*
X165045000Y9645000I0J100000D01*
G01*
G37*
G04 #@! TD*
G04 #@! TO.C,C23*
G36*
G01*
X163045000Y-10605000D02*
X163045000Y-9555000D01*
G75*
G02*
X163145000Y-9455000I100000J0D01*
G01*
X163945000Y-9455000D01*
G75*
G02*
X164045000Y-9555000I0J-100000D01*
G01*
X164045000Y-10605000D01*
G75*
G02*
X163945000Y-10705000I-100000J0D01*
G01*
X163145000Y-10705000D01*
G75*
G02*
X163045000Y-10605000I0J100000D01*
G01*
G37*
G36*
G01*
X165045000Y-10605000D02*
X165045000Y-9555000D01*
G75*
G02*
X165145000Y-9455000I100000J0D01*
G01*
X165945000Y-9455000D01*
G75*
G02*
X166045000Y-9555000I0J-100000D01*
G01*
X166045000Y-10605000D01*
G75*
G02*
X165945000Y-10705000I-100000J0D01*
G01*
X165145000Y-10705000D01*
G75*
G02*
X165045000Y-10605000I0J100000D01*
G01*
G37*
G04 #@! TD*
G04 #@! TO.C,R3*
G36*
G01*
X153485000Y18010313D02*
X153485000Y18790313D01*
G75*
G02*
X153555000Y18860313I70000J0D01*
G01*
X154115000Y18860313D01*
G75*
G02*
X154185000Y18790313I0J-70000D01*
G01*
X154185000Y18010313D01*
G75*
G02*
X154115000Y17940313I-70000J0D01*
G01*
X153555000Y17940313D01*
G75*
G02*
X153485000Y18010313I0J70000D01*
G01*
G37*
G36*
G01*
X155085000Y18010313D02*
X155085000Y18790313D01*
G75*
G02*
X155155000Y18860313I70000J0D01*
G01*
X155715000Y18860313D01*
G75*
G02*
X155785000Y18790313I0J-70000D01*
G01*
X155785000Y18010313D01*
G75*
G02*
X155715000Y17940313I-70000J0D01*
G01*
X155155000Y17940313D01*
G75*
G02*
X155085000Y18010313I0J70000D01*
G01*
G37*
G04 #@! TD*
G04 #@! TO.C,R12*
G36*
G01*
X229835000Y86480313D02*
X229835000Y87260313D01*
G75*
G02*
X229905000Y87330313I70000J0D01*
G01*
X230465000Y87330313D01*
G75*
G02*
X230535000Y87260313I0J-70000D01*
G01*
X230535000Y86480313D01*
G75*
G02*
X230465000Y86410313I-70000J0D01*
G01*
X229905000Y86410313D01*
G75*
G02*
X229835000Y86480313I0J70000D01*
G01*
G37*
G36*
G01*
X231435000Y86480313D02*
X231435000Y87260313D01*
G75*
G02*
X231505000Y87330313I70000J0D01*
G01*
X232065000Y87330313D01*
G75*
G02*
X232135000Y87260313I0J-70000D01*
G01*
X232135000Y86480313D01*
G75*
G02*
X232065000Y86410313I-70000J0D01*
G01*
X231505000Y86410313D01*
G75*
G02*
X231435000Y86480313I0J70000D01*
G01*
G37*
G04 #@! TD*
G04 #@! TO.C,R8*
G36*
G01*
X153485000Y14112221D02*
X153485000Y14892221D01*
G75*
G02*
X153555000Y14962221I70000J0D01*
G01*
X154115000Y14962221D01*
G75*
G02*
X154185000Y14892221I0J-70000D01*
G01*
X154185000Y14112221D01*
G75*
G02*
X154115000Y14042221I-70000J0D01*
G01*
X153555000Y14042221D01*
G75*
G02*
X153485000Y14112221I0J70000D01*
G01*
G37*
G36*
G01*
X155085000Y14112221D02*
X155085000Y14892221D01*
G75*
G02*
X155155000Y14962221I70000J0D01*
G01*
X155715000Y14962221D01*
G75*
G02*
X155785000Y14892221I0J-70000D01*
G01*
X155785000Y14112221D01*
G75*
G02*
X155715000Y14042221I-70000J0D01*
G01*
X155155000Y14042221D01*
G75*
G02*
X155085000Y14112221I0J70000D01*
G01*
G37*
G04 #@! TD*
G04 #@! TO.C,C32*
G36*
G01*
X205010000Y-6610000D02*
X205010000Y-6270000D01*
G75*
G02*
X205150000Y-6130000I140000J0D01*
G01*
X205430000Y-6130000D01*
G75*
G02*
X205570000Y-6270000I0J-140000D01*
G01*
X205570000Y-6610000D01*
G75*
G02*
X205430000Y-6750000I-140000J0D01*
G01*
X205150000Y-6750000D01*
G75*
G02*
X205010000Y-6610000I0J140000D01*
G01*
G37*
G36*
G01*
X205970000Y-6610000D02*
X205970000Y-6270000D01*
G75*
G02*
X206110000Y-6130000I140000J0D01*
G01*
X206390000Y-6130000D01*
G75*
G02*
X206530000Y-6270000I0J-140000D01*
G01*
X206530000Y-6610000D01*
G75*
G02*
X206390000Y-6750000I-140000J0D01*
G01*
X206110000Y-6750000D01*
G75*
G02*
X205970000Y-6610000I0J140000D01*
G01*
G37*
G04 #@! TD*
G04 #@! TO.C,C5*
G36*
G01*
X143895000Y645000D02*
X143895000Y1695000D01*
G75*
G02*
X143995000Y1795000I100000J0D01*
G01*
X144795000Y1795000D01*
G75*
G02*
X144895000Y1695000I0J-100000D01*
G01*
X144895000Y645000D01*
G75*
G02*
X144795000Y545000I-100000J0D01*
G01*
X143995000Y545000D01*
G75*
G02*
X143895000Y645000I0J100000D01*
G01*
G37*
G36*
G01*
X145895000Y645000D02*
X145895000Y1695000D01*
G75*
G02*
X145995000Y1795000I100000J0D01*
G01*
X146795000Y1795000D01*
G75*
G02*
X146895000Y1695000I0J-100000D01*
G01*
X146895000Y645000D01*
G75*
G02*
X146795000Y545000I-100000J0D01*
G01*
X145995000Y545000D01*
G75*
G02*
X145895000Y645000I0J100000D01*
G01*
G37*
G04 #@! TD*
G04 #@! TO.C,R32*
G36*
G01*
X214685000Y97011267D02*
X214685000Y97791267D01*
G75*
G02*
X214755000Y97861267I70000J0D01*
G01*
X215315000Y97861267D01*
G75*
G02*
X215385000Y97791267I0J-70000D01*
G01*
X215385000Y97011267D01*
G75*
G02*
X215315000Y96941267I-70000J0D01*
G01*
X214755000Y96941267D01*
G75*
G02*
X214685000Y97011267I0J70000D01*
G01*
G37*
G36*
G01*
X216285000Y97011267D02*
X216285000Y97791267D01*
G75*
G02*
X216355000Y97861267I70000J0D01*
G01*
X216915000Y97861267D01*
G75*
G02*
X216985000Y97791267I0J-70000D01*
G01*
X216985000Y97011267D01*
G75*
G02*
X216915000Y96941267I-70000J0D01*
G01*
X216355000Y96941267D01*
G75*
G02*
X216285000Y97011267I0J70000D01*
G01*
G37*
G04 #@! TD*
G04 #@! TO.C,C17*
G36*
G01*
X163045000Y2895000D02*
X163045000Y3945000D01*
G75*
G02*
X163145000Y4045000I100000J0D01*
G01*
X163945000Y4045000D01*
G75*
G02*
X164045000Y3945000I0J-100000D01*
G01*
X164045000Y2895000D01*
G75*
G02*
X163945000Y2795000I-100000J0D01*
G01*
X163145000Y2795000D01*
G75*
G02*
X163045000Y2895000I0J100000D01*
G01*
G37*
G36*
G01*
X165045000Y2895000D02*
X165045000Y3945000D01*
G75*
G02*
X165145000Y4045000I100000J0D01*
G01*
X165945000Y4045000D01*
G75*
G02*
X166045000Y3945000I0J-100000D01*
G01*
X166045000Y2895000D01*
G75*
G02*
X165945000Y2795000I-100000J0D01*
G01*
X165145000Y2795000D01*
G75*
G02*
X165045000Y2895000I0J100000D01*
G01*
G37*
G04 #@! TD*
G04 #@! TO.C,C25*
G36*
G01*
X167045000Y-1594971D02*
X167045000Y-914971D01*
G75*
G02*
X167130000Y-829971I85000J0D01*
G01*
X167810000Y-829971D01*
G75*
G02*
X167895000Y-914971I0J-85000D01*
G01*
X167895000Y-1594971D01*
G75*
G02*
X167810000Y-1679971I-85000J0D01*
G01*
X167130000Y-1679971D01*
G75*
G02*
X167045000Y-1594971I0J85000D01*
G01*
G37*
G36*
G01*
X168625002Y-1594971D02*
X168625002Y-914971D01*
G75*
G02*
X168710002Y-829971I85000J0D01*
G01*
X169390002Y-829971D01*
G75*
G02*
X169475002Y-914971I0J-85000D01*
G01*
X169475002Y-1594971D01*
G75*
G02*
X169390002Y-1679971I-85000J0D01*
G01*
X168710002Y-1679971D01*
G75*
G02*
X168625002Y-1594971I0J85000D01*
G01*
G37*
G04 #@! TD*
D12*
G04 #@! TO.C,Q4*
X221260000Y77650000D03*
X221260000Y75350000D03*
X221260000Y73050000D03*
D13*
X227560000Y75350000D03*
G04 #@! TD*
G04 #@! TO.C,Q8*
G36*
G01*
X205110000Y42580000D02*
X205110000Y43280000D01*
G75*
G02*
X205360000Y43530000I250000J0D01*
G01*
X207060000Y43530000D01*
G75*
G02*
X207310000Y43280000I0J-250000D01*
G01*
X207310000Y42580000D01*
G75*
G02*
X207060000Y42330000I-250000J0D01*
G01*
X205360000Y42330000D01*
G75*
G02*
X205110000Y42580000I0J250000D01*
G01*
G37*
G36*
G01*
X209310000Y37999997D02*
X209310000Y43300003D01*
G75*
G02*
X209559997Y43550000I249997J0D01*
G01*
X215460003Y43550000D01*
G75*
G02*
X215710000Y43300003I0J-249997D01*
G01*
X215710000Y37999997D01*
G75*
G02*
X215460003Y37750000I-249997J0D01*
G01*
X209559997Y37750000D01*
G75*
G02*
X209310000Y37999997I0J249997D01*
G01*
G37*
G36*
G01*
X205110000Y38020000D02*
X205110000Y38720000D01*
G75*
G02*
X205360000Y38970000I250000J0D01*
G01*
X207060000Y38970000D01*
G75*
G02*
X207310000Y38720000I0J-250000D01*
G01*
X207310000Y38020000D01*
G75*
G02*
X207060000Y37770000I-250000J0D01*
G01*
X205360000Y37770000D01*
G75*
G02*
X205110000Y38020000I0J250000D01*
G01*
G37*
G04 #@! TD*
G04 #@! TO.C,D6*
G36*
G01*
X182465000Y9870000D02*
X182465000Y10170000D01*
G75*
G02*
X182615000Y10320000I150000J0D01*
G01*
X183790000Y10320000D01*
G75*
G02*
X183940000Y10170000I0J-150000D01*
G01*
X183940000Y9870000D01*
G75*
G02*
X183790000Y9720000I-150000J0D01*
G01*
X182615000Y9720000D01*
G75*
G02*
X182465000Y9870000I0J150000D01*
G01*
G37*
G36*
G01*
X184340000Y8920000D02*
X184340000Y9220000D01*
G75*
G02*
X184490000Y9370000I150000J0D01*
G01*
X185665000Y9370000D01*
G75*
G02*
X185815000Y9220000I0J-150000D01*
G01*
X185815000Y8920000D01*
G75*
G02*
X185665000Y8770000I-150000J0D01*
G01*
X184490000Y8770000D01*
G75*
G02*
X184340000Y8920000I0J150000D01*
G01*
G37*
G36*
G01*
X182465000Y7970000D02*
X182465000Y8270000D01*
G75*
G02*
X182615000Y8420000I150000J0D01*
G01*
X183790000Y8420000D01*
G75*
G02*
X183940000Y8270000I0J-150000D01*
G01*
X183940000Y7970000D01*
G75*
G02*
X183790000Y7820000I-150000J0D01*
G01*
X182615000Y7820000D01*
G75*
G02*
X182465000Y7970000I0J150000D01*
G01*
G37*
G04 #@! TD*
G04 #@! TO.C,C30*
G36*
G01*
X205010000Y-2670000D02*
X205010000Y-2330000D01*
G75*
G02*
X205150000Y-2190000I140000J0D01*
G01*
X205430000Y-2190000D01*
G75*
G02*
X205570000Y-2330000I0J-140000D01*
G01*
X205570000Y-2670000D01*
G75*
G02*
X205430000Y-2810000I-140000J0D01*
G01*
X205150000Y-2810000D01*
G75*
G02*
X205010000Y-2670000I0J140000D01*
G01*
G37*
G36*
G01*
X205970000Y-2670000D02*
X205970000Y-2330000D01*
G75*
G02*
X206110000Y-2190000I140000J0D01*
G01*
X206390000Y-2190000D01*
G75*
G02*
X206530000Y-2330000I0J-140000D01*
G01*
X206530000Y-2670000D01*
G75*
G02*
X206390000Y-2810000I-140000J0D01*
G01*
X206110000Y-2810000D01*
G75*
G02*
X205970000Y-2670000I0J140000D01*
G01*
G37*
G04 #@! TD*
D12*
G04 #@! TO.C,Q13*
X206110000Y102400000D03*
X206110000Y100100000D03*
X206110000Y97800000D03*
D13*
X212410000Y100100000D03*
G04 #@! TD*
G04 #@! TO.C,C22*
G36*
G01*
X163045000Y-8355000D02*
X163045000Y-7305000D01*
G75*
G02*
X163145000Y-7205000I100000J0D01*
G01*
X163945000Y-7205000D01*
G75*
G02*
X164045000Y-7305000I0J-100000D01*
G01*
X164045000Y-8355000D01*
G75*
G02*
X163945000Y-8455000I-100000J0D01*
G01*
X163145000Y-8455000D01*
G75*
G02*
X163045000Y-8355000I0J100000D01*
G01*
G37*
G36*
G01*
X165045000Y-8355000D02*
X165045000Y-7305000D01*
G75*
G02*
X165145000Y-7205000I100000J0D01*
G01*
X165945000Y-7205000D01*
G75*
G02*
X166045000Y-7305000I0J-100000D01*
G01*
X166045000Y-8355000D01*
G75*
G02*
X165945000Y-8455000I-100000J0D01*
G01*
X165145000Y-8455000D01*
G75*
G02*
X165045000Y-8355000I0J100000D01*
G01*
G37*
G04 #@! TD*
D18*
G04 #@! TO.C,G3*
X190601000Y65399000D03*
X193141000Y65399000D03*
X195681000Y65399000D03*
X198221000Y65399000D03*
X200761000Y65399000D03*
X190601000Y62859000D03*
X193141000Y62859000D03*
X195681000Y62859000D03*
X198221000Y62859000D03*
X200761000Y62859000D03*
X190601000Y60319000D03*
X193141000Y60319000D03*
X195681000Y60319000D03*
X198221000Y60319000D03*
X200761000Y60319000D03*
G04 #@! TD*
G04 #@! TO.C,R16*
G36*
G01*
X187085000Y7979359D02*
X187085000Y8759359D01*
G75*
G02*
X187155000Y8829359I70000J0D01*
G01*
X187715000Y8829359D01*
G75*
G02*
X187785000Y8759359I0J-70000D01*
G01*
X187785000Y7979359D01*
G75*
G02*
X187715000Y7909359I-70000J0D01*
G01*
X187155000Y7909359D01*
G75*
G02*
X187085000Y7979359I0J70000D01*
G01*
G37*
G36*
G01*
X188685000Y7979359D02*
X188685000Y8759359D01*
G75*
G02*
X188755000Y8829359I70000J0D01*
G01*
X189315000Y8829359D01*
G75*
G02*
X189385000Y8759359I0J-70000D01*
G01*
X189385000Y7979359D01*
G75*
G02*
X189315000Y7909359I-70000J0D01*
G01*
X188755000Y7909359D01*
G75*
G02*
X188685000Y7979359I0J70000D01*
G01*
G37*
G04 #@! TD*
G04 #@! TO.C,R25*
G36*
G01*
X216985000Y12273175D02*
X216985000Y13053175D01*
G75*
G02*
X217055000Y13123175I70000J0D01*
G01*
X217615000Y13123175D01*
G75*
G02*
X217685000Y13053175I0J-70000D01*
G01*
X217685000Y12273175D01*
G75*
G02*
X217615000Y12203175I-70000J0D01*
G01*
X217055000Y12203175D01*
G75*
G02*
X216985000Y12273175I0J70000D01*
G01*
G37*
G36*
G01*
X218585000Y12273175D02*
X218585000Y13053175D01*
G75*
G02*
X218655000Y13123175I70000J0D01*
G01*
X219215000Y13123175D01*
G75*
G02*
X219285000Y13053175I0J-70000D01*
G01*
X219285000Y12273175D01*
G75*
G02*
X219215000Y12203175I-70000J0D01*
G01*
X218655000Y12203175D01*
G75*
G02*
X218585000Y12273175I0J70000D01*
G01*
G37*
G04 #@! TD*
G04 #@! TO.C,C21*
G36*
G01*
X163045000Y-6105000D02*
X163045000Y-5055000D01*
G75*
G02*
X163145000Y-4955000I100000J0D01*
G01*
X163945000Y-4955000D01*
G75*
G02*
X164045000Y-5055000I0J-100000D01*
G01*
X164045000Y-6105000D01*
G75*
G02*
X163945000Y-6205000I-100000J0D01*
G01*
X163145000Y-6205000D01*
G75*
G02*
X163045000Y-6105000I0J100000D01*
G01*
G37*
G36*
G01*
X165045000Y-6105000D02*
X165045000Y-5055000D01*
G75*
G02*
X165145000Y-4955000I100000J0D01*
G01*
X165945000Y-4955000D01*
G75*
G02*
X166045000Y-5055000I0J-100000D01*
G01*
X166045000Y-6105000D01*
G75*
G02*
X165945000Y-6205000I-100000J0D01*
G01*
X165145000Y-6205000D01*
G75*
G02*
X165045000Y-6105000I0J100000D01*
G01*
G37*
G04 #@! TD*
D19*
G04 #@! TO.C,F2*
X134835000Y29645000D03*
G36*
G01*
X136179990Y28745000D02*
X135489990Y28745000D01*
G75*
G02*
X135259990Y28975000I0J230000D01*
G01*
X135259990Y30315000D01*
G75*
G02*
X135489990Y30545000I230000J0D01*
G01*
X136179990Y30545000D01*
G75*
G02*
X136409990Y30315000I0J-230000D01*
G01*
X136409990Y28975000D01*
G75*
G02*
X136179990Y28745000I-230000J0D01*
G01*
G37*
G36*
G01*
X139080010Y28745000D02*
X138390010Y28745000D01*
G75*
G02*
X138160010Y28975000I0J230000D01*
G01*
X138160010Y30315000D01*
G75*
G02*
X138390010Y30545000I230000J0D01*
G01*
X139080010Y30545000D01*
G75*
G02*
X139310010Y30315000I0J-230000D01*
G01*
X139310010Y28975000D01*
G75*
G02*
X139080010Y28745000I-230000J0D01*
G01*
G37*
X139735000Y29645000D03*
G04 #@! TD*
D20*
G04 #@! TO.C,BT1*
X118875089Y26504737D03*
X126374947Y26504737D03*
D21*
X114774995Y26504737D03*
D22*
X130775014Y26504737D03*
G04 #@! TD*
G04 #@! TO.C,R24*
G36*
G01*
X216985000Y14222221D02*
X216985000Y15002221D01*
G75*
G02*
X217055000Y15072221I70000J0D01*
G01*
X217615000Y15072221D01*
G75*
G02*
X217685000Y15002221I0J-70000D01*
G01*
X217685000Y14222221D01*
G75*
G02*
X217615000Y14152221I-70000J0D01*
G01*
X217055000Y14152221D01*
G75*
G02*
X216985000Y14222221I0J70000D01*
G01*
G37*
G36*
G01*
X218585000Y14222221D02*
X218585000Y15002221D01*
G75*
G02*
X218655000Y15072221I70000J0D01*
G01*
X219215000Y15072221D01*
G75*
G02*
X219285000Y15002221I0J-70000D01*
G01*
X219285000Y14222221D01*
G75*
G02*
X219215000Y14152221I-70000J0D01*
G01*
X218655000Y14152221D01*
G75*
G02*
X218585000Y14222221I0J70000D01*
G01*
G37*
G04 #@! TD*
G04 #@! TO.C,R10*
G36*
G01*
X229835000Y90378405D02*
X229835000Y91158405D01*
G75*
G02*
X229905000Y91228405I70000J0D01*
G01*
X230465000Y91228405D01*
G75*
G02*
X230535000Y91158405I0J-70000D01*
G01*
X230535000Y90378405D01*
G75*
G02*
X230465000Y90308405I-70000J0D01*
G01*
X229905000Y90308405D01*
G75*
G02*
X229835000Y90378405I0J70000D01*
G01*
G37*
G36*
G01*
X231435000Y90378405D02*
X231435000Y91158405D01*
G75*
G02*
X231505000Y91228405I70000J0D01*
G01*
X232065000Y91228405D01*
G75*
G02*
X232135000Y91158405I0J-70000D01*
G01*
X232135000Y90378405D01*
G75*
G02*
X232065000Y90308405I-70000J0D01*
G01*
X231505000Y90308405D01*
G75*
G02*
X231435000Y90378405I0J70000D01*
G01*
G37*
G04 #@! TD*
G04 #@! TO.C,C18*
G36*
G01*
X163045000Y645000D02*
X163045000Y1695000D01*
G75*
G02*
X163145000Y1795000I100000J0D01*
G01*
X163945000Y1795000D01*
G75*
G02*
X164045000Y1695000I0J-100000D01*
G01*
X164045000Y645000D01*
G75*
G02*
X163945000Y545000I-100000J0D01*
G01*
X163145000Y545000D01*
G75*
G02*
X163045000Y645000I0J100000D01*
G01*
G37*
G36*
G01*
X165045000Y645000D02*
X165045000Y1695000D01*
G75*
G02*
X165145000Y1795000I100000J0D01*
G01*
X165945000Y1795000D01*
G75*
G02*
X166045000Y1695000I0J-100000D01*
G01*
X166045000Y645000D01*
G75*
G02*
X165945000Y545000I-100000J0D01*
G01*
X165145000Y545000D01*
G75*
G02*
X165045000Y645000I0J100000D01*
G01*
G37*
G04 #@! TD*
D23*
G04 #@! TO.C,J6*
X194350000Y41350000D03*
D24*
X194350000Y38810000D03*
X194350000Y36270000D03*
X194350000Y33730000D03*
X194350000Y31190000D03*
X194350000Y28650000D03*
G04 #@! TD*
G04 #@! TO.C,D3*
G36*
G01*
X230045000Y99035000D02*
X230045000Y100055000D01*
G75*
G02*
X230135000Y100145000I90000J0D01*
G01*
X230855000Y100145000D01*
G75*
G02*
X230945000Y100055000I0J-90000D01*
G01*
X230945000Y99035000D01*
G75*
G02*
X230855000Y98945000I-90000J0D01*
G01*
X230135000Y98945000D01*
G75*
G02*
X230045000Y99035000I0J90000D01*
G01*
G37*
G36*
G01*
X233345000Y99035000D02*
X233345000Y100055000D01*
G75*
G02*
X233435000Y100145000I90000J0D01*
G01*
X234155000Y100145000D01*
G75*
G02*
X234245000Y100055000I0J-90000D01*
G01*
X234245000Y99035000D01*
G75*
G02*
X234155000Y98945000I-90000J0D01*
G01*
X233435000Y98945000D01*
G75*
G02*
X233345000Y99035000I0J90000D01*
G01*
G37*
G04 #@! TD*
G04 #@! TO.C,R17*
G36*
G01*
X216985000Y22018405D02*
X216985000Y22798405D01*
G75*
G02*
X217055000Y22868405I70000J0D01*
G01*
X217615000Y22868405D01*
G75*
G02*
X217685000Y22798405I0J-70000D01*
G01*
X217685000Y22018405D01*
G75*
G02*
X217615000Y21948405I-70000J0D01*
G01*
X217055000Y21948405D01*
G75*
G02*
X216985000Y22018405I0J70000D01*
G01*
G37*
G36*
G01*
X218585000Y22018405D02*
X218585000Y22798405D01*
G75*
G02*
X218655000Y22868405I70000J0D01*
G01*
X219215000Y22868405D01*
G75*
G02*
X219285000Y22798405I0J-70000D01*
G01*
X219285000Y22018405D01*
G75*
G02*
X219215000Y21948405I-70000J0D01*
G01*
X218655000Y21948405D01*
G75*
G02*
X218585000Y22018405I0J70000D01*
G01*
G37*
G04 #@! TD*
D12*
G04 #@! TO.C,Q1*
X221260000Y102400000D03*
X221260000Y100100000D03*
X221260000Y97800000D03*
D13*
X227560000Y100100000D03*
G04 #@! TD*
G04 #@! TO.C,C3*
G36*
G01*
X143895000Y5145000D02*
X143895000Y6195000D01*
G75*
G02*
X143995000Y6295000I100000J0D01*
G01*
X144795000Y6295000D01*
G75*
G02*
X144895000Y6195000I0J-100000D01*
G01*
X144895000Y5145000D01*
G75*
G02*
X144795000Y5045000I-100000J0D01*
G01*
X143995000Y5045000D01*
G75*
G02*
X143895000Y5145000I0J100000D01*
G01*
G37*
G36*
G01*
X145895000Y5145000D02*
X145895000Y6195000D01*
G75*
G02*
X145995000Y6295000I100000J0D01*
G01*
X146795000Y6295000D01*
G75*
G02*
X146895000Y6195000I0J-100000D01*
G01*
X146895000Y5145000D01*
G75*
G02*
X146795000Y5045000I-100000J0D01*
G01*
X145995000Y5045000D01*
G75*
G02*
X145895000Y5145000I0J100000D01*
G01*
G37*
G04 #@! TD*
G04 #@! TO.C,C28*
G36*
G01*
X205010000Y1270000D02*
X205010000Y1610000D01*
G75*
G02*
X205150000Y1750000I140000J0D01*
G01*
X205430000Y1750000D01*
G75*
G02*
X205570000Y1610000I0J-140000D01*
G01*
X205570000Y1270000D01*
G75*
G02*
X205430000Y1130000I-140000J0D01*
G01*
X205150000Y1130000D01*
G75*
G02*
X205010000Y1270000I0J140000D01*
G01*
G37*
G36*
G01*
X205970000Y1270000D02*
X205970000Y1610000D01*
G75*
G02*
X206110000Y1750000I140000J0D01*
G01*
X206390000Y1750000D01*
G75*
G02*
X206530000Y1610000I0J-140000D01*
G01*
X206530000Y1270000D01*
G75*
G02*
X206390000Y1130000I-140000J0D01*
G01*
X206110000Y1130000D01*
G75*
G02*
X205970000Y1270000I0J140000D01*
G01*
G37*
G04 #@! TD*
G04 #@! TO.C,R2*
G36*
G01*
X153485000Y19959359D02*
X153485000Y20739359D01*
G75*
G02*
X153555000Y20809359I70000J0D01*
G01*
X154115000Y20809359D01*
G75*
G02*
X154185000Y20739359I0J-70000D01*
G01*
X154185000Y19959359D01*
G75*
G02*
X154115000Y19889359I-70000J0D01*
G01*
X153555000Y19889359D01*
G75*
G02*
X153485000Y19959359I0J70000D01*
G01*
G37*
G36*
G01*
X155085000Y19959359D02*
X155085000Y20739359D01*
G75*
G02*
X155155000Y20809359I70000J0D01*
G01*
X155715000Y20809359D01*
G75*
G02*
X155785000Y20739359I0J-70000D01*
G01*
X155785000Y19959359D01*
G75*
G02*
X155715000Y19889359I-70000J0D01*
G01*
X155155000Y19889359D01*
G75*
G02*
X155085000Y19959359I0J70000D01*
G01*
G37*
G04 #@! TD*
D19*
G04 #@! TO.C,F1*
X134835000Y32765000D03*
G36*
G01*
X136179990Y31865000D02*
X135489990Y31865000D01*
G75*
G02*
X135259990Y32095000I0J230000D01*
G01*
X135259990Y33435000D01*
G75*
G02*
X135489990Y33665000I230000J0D01*
G01*
X136179990Y33665000D01*
G75*
G02*
X136409990Y33435000I0J-230000D01*
G01*
X136409990Y32095000D01*
G75*
G02*
X136179990Y31865000I-230000J0D01*
G01*
G37*
G36*
G01*
X139080010Y31865000D02*
X138390010Y31865000D01*
G75*
G02*
X138160010Y32095000I0J230000D01*
G01*
X138160010Y33435000D01*
G75*
G02*
X138390010Y33665000I230000J0D01*
G01*
X139080010Y33665000D01*
G75*
G02*
X139310010Y33435000I0J-230000D01*
G01*
X139310010Y32095000D01*
G75*
G02*
X139080010Y31865000I-230000J0D01*
G01*
G37*
X139735000Y32765000D03*
G04 #@! TD*
D25*
G04 #@! TO.C,M2*
X130515000Y17544997D03*
X130515000Y16594997D03*
X130515000Y15644999D03*
X121815000Y16644997D03*
X121815000Y17544997D03*
G04 #@! TD*
G04 #@! TO.C,R7*
G36*
G01*
X153485000Y16061267D02*
X153485000Y16841267D01*
G75*
G02*
X153555000Y16911267I70000J0D01*
G01*
X154115000Y16911267D01*
G75*
G02*
X154185000Y16841267I0J-70000D01*
G01*
X154185000Y16061267D01*
G75*
G02*
X154115000Y15991267I-70000J0D01*
G01*
X153555000Y15991267D01*
G75*
G02*
X153485000Y16061267I0J70000D01*
G01*
G37*
G36*
G01*
X155085000Y16061267D02*
X155085000Y16841267D01*
G75*
G02*
X155155000Y16911267I70000J0D01*
G01*
X155715000Y16911267D01*
G75*
G02*
X155785000Y16841267I0J-70000D01*
G01*
X155785000Y16061267D01*
G75*
G02*
X155715000Y15991267I-70000J0D01*
G01*
X155155000Y15991267D01*
G75*
G02*
X155085000Y16061267I0J70000D01*
G01*
G37*
G04 #@! TD*
G04 #@! TO.C,R18*
G36*
G01*
X216985000Y20069359D02*
X216985000Y20849359D01*
G75*
G02*
X217055000Y20919359I70000J0D01*
G01*
X217615000Y20919359D01*
G75*
G02*
X217685000Y20849359I0J-70000D01*
G01*
X217685000Y20069359D01*
G75*
G02*
X217615000Y19999359I-70000J0D01*
G01*
X217055000Y19999359D01*
G75*
G02*
X216985000Y20069359I0J70000D01*
G01*
G37*
G36*
G01*
X218585000Y20069359D02*
X218585000Y20849359D01*
G75*
G02*
X218655000Y20919359I70000J0D01*
G01*
X219215000Y20919359D01*
G75*
G02*
X219285000Y20849359I0J-70000D01*
G01*
X219285000Y20069359D01*
G75*
G02*
X219215000Y19999359I-70000J0D01*
G01*
X218655000Y19999359D01*
G75*
G02*
X218585000Y20069359I0J70000D01*
G01*
G37*
G04 #@! TD*
G04 #@! TO.C,C16*
G36*
G01*
X163045000Y5145000D02*
X163045000Y6195000D01*
G75*
G02*
X163145000Y6295000I100000J0D01*
G01*
X163945000Y6295000D01*
G75*
G02*
X164045000Y6195000I0J-100000D01*
G01*
X164045000Y5145000D01*
G75*
G02*
X163945000Y5045000I-100000J0D01*
G01*
X163145000Y5045000D01*
G75*
G02*
X163045000Y5145000I0J100000D01*
G01*
G37*
G36*
G01*
X165045000Y5145000D02*
X165045000Y6195000D01*
G75*
G02*
X165145000Y6295000I100000J0D01*
G01*
X165945000Y6295000D01*
G75*
G02*
X166045000Y6195000I0J-100000D01*
G01*
X166045000Y5145000D01*
G75*
G02*
X165945000Y5045000I-100000J0D01*
G01*
X165145000Y5045000D01*
G75*
G02*
X165045000Y5145000I0J100000D01*
G01*
G37*
G04 #@! TD*
G04 #@! TO.C,D2*
G36*
G01*
X230045000Y102155000D02*
X230045000Y103175000D01*
G75*
G02*
X230135000Y103265000I90000J0D01*
G01*
X230855000Y103265000D01*
G75*
G02*
X230945000Y103175000I0J-90000D01*
G01*
X230945000Y102155000D01*
G75*
G02*
X230855000Y102065000I-90000J0D01*
G01*
X230135000Y102065000D01*
G75*
G02*
X230045000Y102155000I0J90000D01*
G01*
G37*
G36*
G01*
X233345000Y102155000D02*
X233345000Y103175000D01*
G75*
G02*
X233435000Y103265000I90000J0D01*
G01*
X234155000Y103265000D01*
G75*
G02*
X234245000Y103175000I0J-90000D01*
G01*
X234245000Y102155000D01*
G75*
G02*
X234155000Y102065000I-90000J0D01*
G01*
X233435000Y102065000D01*
G75*
G02*
X233345000Y102155000I0J90000D01*
G01*
G37*
G04 #@! TD*
G04 #@! TO.C,R26*
G36*
G01*
X217255000Y34185000D02*
X217255000Y37035000D01*
G75*
G02*
X217505000Y37285000I250000J0D01*
G01*
X218230000Y37285000D01*
G75*
G02*
X218480000Y37035000I0J-250000D01*
G01*
X218480000Y34185000D01*
G75*
G02*
X218230000Y33935000I-250000J0D01*
G01*
X217505000Y33935000D01*
G75*
G02*
X217255000Y34185000I0J250000D01*
G01*
G37*
G36*
G01*
X223180000Y34185000D02*
X223180000Y37035000D01*
G75*
G02*
X223430000Y37285000I250000J0D01*
G01*
X224155000Y37285000D01*
G75*
G02*
X224405000Y37035000I0J-250000D01*
G01*
X224405000Y34185000D01*
G75*
G02*
X224155000Y33935000I-250000J0D01*
G01*
X223430000Y33935000D01*
G75*
G02*
X223180000Y34185000I0J250000D01*
G01*
G37*
G04 #@! TD*
G04 #@! TO.C,R13*
G36*
G01*
X229835000Y84531267D02*
X229835000Y85311267D01*
G75*
G02*
X229905000Y85381267I70000J0D01*
G01*
X230465000Y85381267D01*
G75*
G02*
X230535000Y85311267I0J-70000D01*
G01*
X230535000Y84531267D01*
G75*
G02*
X230465000Y84461267I-70000J0D01*
G01*
X229905000Y84461267D01*
G75*
G02*
X229835000Y84531267I0J70000D01*
G01*
G37*
G36*
G01*
X231435000Y84531267D02*
X231435000Y85311267D01*
G75*
G02*
X231505000Y85381267I70000J0D01*
G01*
X232065000Y85381267D01*
G75*
G02*
X232135000Y85311267I0J-70000D01*
G01*
X232135000Y84531267D01*
G75*
G02*
X232065000Y84461267I-70000J0D01*
G01*
X231505000Y84461267D01*
G75*
G02*
X231435000Y84531267I0J70000D01*
G01*
G37*
G04 #@! TD*
G04 #@! TO.C,C12*
G36*
G01*
X147895000Y-1594971D02*
X147895000Y-914971D01*
G75*
G02*
X147980000Y-829971I85000J0D01*
G01*
X148660000Y-829971D01*
G75*
G02*
X148745000Y-914971I0J-85000D01*
G01*
X148745000Y-1594971D01*
G75*
G02*
X148660000Y-1679971I-85000J0D01*
G01*
X147980000Y-1679971D01*
G75*
G02*
X147895000Y-1594971I0J85000D01*
G01*
G37*
G36*
G01*
X149475002Y-1594971D02*
X149475002Y-914971D01*
G75*
G02*
X149560002Y-829971I85000J0D01*
G01*
X150240002Y-829971D01*
G75*
G02*
X150325002Y-914971I0J-85000D01*
G01*
X150325002Y-1594971D01*
G75*
G02*
X150240002Y-1679971I-85000J0D01*
G01*
X149560002Y-1679971D01*
G75*
G02*
X149475002Y-1594971I0J85000D01*
G01*
G37*
G04 #@! TD*
G04 #@! TO.C,C31*
G36*
G01*
X205010000Y-4640000D02*
X205010000Y-4300000D01*
G75*
G02*
X205150000Y-4160000I140000J0D01*
G01*
X205430000Y-4160000D01*
G75*
G02*
X205570000Y-4300000I0J-140000D01*
G01*
X205570000Y-4640000D01*
G75*
G02*
X205430000Y-4780000I-140000J0D01*
G01*
X205150000Y-4780000D01*
G75*
G02*
X205010000Y-4640000I0J140000D01*
G01*
G37*
G36*
G01*
X205970000Y-4640000D02*
X205970000Y-4300000D01*
G75*
G02*
X206110000Y-4160000I140000J0D01*
G01*
X206390000Y-4160000D01*
G75*
G02*
X206530000Y-4300000I0J-140000D01*
G01*
X206530000Y-4640000D01*
G75*
G02*
X206390000Y-4780000I-140000J0D01*
G01*
X206110000Y-4780000D01*
G75*
G02*
X205970000Y-4640000I0J140000D01*
G01*
G37*
G04 #@! TD*
G04 #@! TO.C,Q6*
G36*
G01*
X182465000Y-3480000D02*
X182465000Y-3180000D01*
G75*
G02*
X182615000Y-3030000I150000J0D01*
G01*
X183790000Y-3030000D01*
G75*
G02*
X183940000Y-3180000I0J-150000D01*
G01*
X183940000Y-3480000D01*
G75*
G02*
X183790000Y-3630000I-150000J0D01*
G01*
X182615000Y-3630000D01*
G75*
G02*
X182465000Y-3480000I0J150000D01*
G01*
G37*
G36*
G01*
X184340000Y-4430000D02*
X184340000Y-4130000D01*
G75*
G02*
X184490000Y-3980000I150000J0D01*
G01*
X185665000Y-3980000D01*
G75*
G02*
X185815000Y-4130000I0J-150000D01*
G01*
X185815000Y-4430000D01*
G75*
G02*
X185665000Y-4580000I-150000J0D01*
G01*
X184490000Y-4580000D01*
G75*
G02*
X184340000Y-4430000I0J150000D01*
G01*
G37*
G36*
G01*
X182465000Y-5380000D02*
X182465000Y-5080000D01*
G75*
G02*
X182615000Y-4930000I150000J0D01*
G01*
X183790000Y-4930000D01*
G75*
G02*
X183940000Y-5080000I0J-150000D01*
G01*
X183940000Y-5380000D01*
G75*
G02*
X183790000Y-5530000I-150000J0D01*
G01*
X182615000Y-5530000D01*
G75*
G02*
X182465000Y-5380000I0J150000D01*
G01*
G37*
G04 #@! TD*
G04 #@! TO.C,C8*
G36*
G01*
X143895000Y-6105000D02*
X143895000Y-5055000D01*
G75*
G02*
X143995000Y-4955000I100000J0D01*
G01*
X144795000Y-4955000D01*
G75*
G02*
X144895000Y-5055000I0J-100000D01*
G01*
X144895000Y-6105000D01*
G75*
G02*
X144795000Y-6205000I-100000J0D01*
G01*
X143995000Y-6205000D01*
G75*
G02*
X143895000Y-6105000I0J100000D01*
G01*
G37*
G36*
G01*
X145895000Y-6105000D02*
X145895000Y-5055000D01*
G75*
G02*
X145995000Y-4955000I100000J0D01*
G01*
X146795000Y-4955000D01*
G75*
G02*
X146895000Y-5055000I0J-100000D01*
G01*
X146895000Y-6105000D01*
G75*
G02*
X146795000Y-6205000I-100000J0D01*
G01*
X145995000Y-6205000D01*
G75*
G02*
X145895000Y-6105000I0J100000D01*
G01*
G37*
G04 #@! TD*
G04 #@! TO.C,L2*
G36*
G01*
X207985000Y-8046250D02*
X207985000Y-7533750D01*
G75*
G02*
X208203750Y-7315000I218750J0D01*
G01*
X208641250Y-7315000D01*
G75*
G02*
X208860000Y-7533750I0J-218750D01*
G01*
X208860000Y-8046250D01*
G75*
G02*
X208641250Y-8265000I-218750J0D01*
G01*
X208203750Y-8265000D01*
G75*
G02*
X207985000Y-8046250I0J218750D01*
G01*
G37*
G36*
G01*
X209560000Y-8046250D02*
X209560000Y-7533750D01*
G75*
G02*
X209778750Y-7315000I218750J0D01*
G01*
X210216250Y-7315000D01*
G75*
G02*
X210435000Y-7533750I0J-218750D01*
G01*
X210435000Y-8046250D01*
G75*
G02*
X210216250Y-8265000I-218750J0D01*
G01*
X209778750Y-8265000D01*
G75*
G02*
X209560000Y-8046250I0J218750D01*
G01*
G37*
G04 #@! TD*
G04 #@! TO.C,U4*
G36*
G01*
X207980000Y955000D02*
X207980000Y1255000D01*
G75*
G02*
X208130000Y1405000I150000J0D01*
G01*
X209780000Y1405000D01*
G75*
G02*
X209930000Y1255000I0J-150000D01*
G01*
X209930000Y955000D01*
G75*
G02*
X209780000Y805000I-150000J0D01*
G01*
X208130000Y805000D01*
G75*
G02*
X207980000Y955000I0J150000D01*
G01*
G37*
G36*
G01*
X207980000Y-315000D02*
X207980000Y-15000D01*
G75*
G02*
X208130000Y135000I150000J0D01*
G01*
X209780000Y135000D01*
G75*
G02*
X209930000Y-15000I0J-150000D01*
G01*
X209930000Y-315000D01*
G75*
G02*
X209780000Y-465000I-150000J0D01*
G01*
X208130000Y-465000D01*
G75*
G02*
X207980000Y-315000I0J150000D01*
G01*
G37*
G36*
G01*
X207980000Y-1585000D02*
X207980000Y-1285000D01*
G75*
G02*
X208130000Y-1135000I150000J0D01*
G01*
X209780000Y-1135000D01*
G75*
G02*
X209930000Y-1285000I0J-150000D01*
G01*
X209930000Y-1585000D01*
G75*
G02*
X209780000Y-1735000I-150000J0D01*
G01*
X208130000Y-1735000D01*
G75*
G02*
X207980000Y-1585000I0J150000D01*
G01*
G37*
G36*
G01*
X207980000Y-2855000D02*
X207980000Y-2555000D01*
G75*
G02*
X208130000Y-2405000I150000J0D01*
G01*
X209780000Y-2405000D01*
G75*
G02*
X209930000Y-2555000I0J-150000D01*
G01*
X209930000Y-2855000D01*
G75*
G02*
X209780000Y-3005000I-150000J0D01*
G01*
X208130000Y-3005000D01*
G75*
G02*
X207980000Y-2855000I0J150000D01*
G01*
G37*
G36*
G01*
X212930000Y-2855000D02*
X212930000Y-2555000D01*
G75*
G02*
X213080000Y-2405000I150000J0D01*
G01*
X214730000Y-2405000D01*
G75*
G02*
X214880000Y-2555000I0J-150000D01*
G01*
X214880000Y-2855000D01*
G75*
G02*
X214730000Y-3005000I-150000J0D01*
G01*
X213080000Y-3005000D01*
G75*
G02*
X212930000Y-2855000I0J150000D01*
G01*
G37*
G36*
G01*
X212930000Y-1585000D02*
X212930000Y-1285000D01*
G75*
G02*
X213080000Y-1135000I150000J0D01*
G01*
X214730000Y-1135000D01*
G75*
G02*
X214880000Y-1285000I0J-150000D01*
G01*
X214880000Y-1585000D01*
G75*
G02*
X214730000Y-1735000I-150000J0D01*
G01*
X213080000Y-1735000D01*
G75*
G02*
X212930000Y-1585000I0J150000D01*
G01*
G37*
G36*
G01*
X212930000Y-315000D02*
X212930000Y-15000D01*
G75*
G02*
X213080000Y135000I150000J0D01*
G01*
X214730000Y135000D01*
G75*
G02*
X214880000Y-15000I0J-150000D01*
G01*
X214880000Y-315000D01*
G75*
G02*
X214730000Y-465000I-150000J0D01*
G01*
X213080000Y-465000D01*
G75*
G02*
X212930000Y-315000I0J150000D01*
G01*
G37*
G36*
G01*
X212930000Y955000D02*
X212930000Y1255000D01*
G75*
G02*
X213080000Y1405000I150000J0D01*
G01*
X214730000Y1405000D01*
G75*
G02*
X214880000Y1255000I0J-150000D01*
G01*
X214880000Y955000D01*
G75*
G02*
X214730000Y805000I-150000J0D01*
G01*
X213080000Y805000D01*
G75*
G02*
X212930000Y955000I0J150000D01*
G01*
G37*
G04 #@! TD*
G04 #@! TO.C,C6*
G36*
G01*
X143895000Y-1605000D02*
X143895000Y-555000D01*
G75*
G02*
X143995000Y-455000I100000J0D01*
G01*
X144795000Y-455000D01*
G75*
G02*
X144895000Y-555000I0J-100000D01*
G01*
X144895000Y-1605000D01*
G75*
G02*
X144795000Y-1705000I-100000J0D01*
G01*
X143995000Y-1705000D01*
G75*
G02*
X143895000Y-1605000I0J100000D01*
G01*
G37*
G36*
G01*
X145895000Y-1605000D02*
X145895000Y-555000D01*
G75*
G02*
X145995000Y-455000I100000J0D01*
G01*
X146795000Y-455000D01*
G75*
G02*
X146895000Y-555000I0J-100000D01*
G01*
X146895000Y-1605000D01*
G75*
G02*
X146795000Y-1705000I-100000J0D01*
G01*
X145995000Y-1705000D01*
G75*
G02*
X145895000Y-1605000I0J100000D01*
G01*
G37*
G04 #@! TD*
G04 #@! TO.C,R33*
G36*
G01*
X214685000Y95062221D02*
X214685000Y95842221D01*
G75*
G02*
X214755000Y95912221I70000J0D01*
G01*
X215315000Y95912221D01*
G75*
G02*
X215385000Y95842221I0J-70000D01*
G01*
X215385000Y95062221D01*
G75*
G02*
X215315000Y94992221I-70000J0D01*
G01*
X214755000Y94992221D01*
G75*
G02*
X214685000Y95062221I0J70000D01*
G01*
G37*
G36*
G01*
X216285000Y95062221D02*
X216285000Y95842221D01*
G75*
G02*
X216355000Y95912221I70000J0D01*
G01*
X216915000Y95912221D01*
G75*
G02*
X216985000Y95842221I0J-70000D01*
G01*
X216985000Y95062221D01*
G75*
G02*
X216915000Y94992221I-70000J0D01*
G01*
X216355000Y94992221D01*
G75*
G02*
X216285000Y95062221I0J70000D01*
G01*
G37*
G04 #@! TD*
G04 #@! TO.C,M4*
X172875000Y29225000D03*
X172875000Y28025000D03*
X172875000Y30425000D03*
X172875000Y31625000D03*
X158450000Y25165000D03*
X158450000Y24165000D03*
G04 #@! TD*
G04 #@! TO.C,D8*
G36*
G01*
X211985000Y-5450000D02*
X211985000Y-5150000D01*
G75*
G02*
X212135000Y-5000000I150000J0D01*
G01*
X213310000Y-5000000D01*
G75*
G02*
X213460000Y-5150000I0J-150000D01*
G01*
X213460000Y-5450000D01*
G75*
G02*
X213310000Y-5600000I-150000J0D01*
G01*
X212135000Y-5600000D01*
G75*
G02*
X211985000Y-5450000I0J150000D01*
G01*
G37*
G36*
G01*
X211985000Y-7350000D02*
X211985000Y-7050000D01*
G75*
G02*
X212135000Y-6900000I150000J0D01*
G01*
X213310000Y-6900000D01*
G75*
G02*
X213460000Y-7050000I0J-150000D01*
G01*
X213460000Y-7350000D01*
G75*
G02*
X213310000Y-7500000I-150000J0D01*
G01*
X212135000Y-7500000D01*
G75*
G02*
X211985000Y-7350000I0J150000D01*
G01*
G37*
G36*
G01*
X213860000Y-6400000D02*
X213860000Y-6100000D01*
G75*
G02*
X214010000Y-5950000I150000J0D01*
G01*
X215185000Y-5950000D01*
G75*
G02*
X215335000Y-6100000I0J-150000D01*
G01*
X215335000Y-6400000D01*
G75*
G02*
X215185000Y-6550000I-150000J0D01*
G01*
X214010000Y-6550000D01*
G75*
G02*
X213860000Y-6400000I0J150000D01*
G01*
G37*
G04 #@! TD*
D12*
G04 #@! TO.C,Q18*
X206110000Y61150000D03*
X206110000Y58850000D03*
X206110000Y56550000D03*
D13*
X212410000Y58850000D03*
G04 #@! TD*
G04 #@! TO.C,R27*
G36*
G01*
X217255000Y29295000D02*
X217255000Y32145000D01*
G75*
G02*
X217505000Y32395000I250000J0D01*
G01*
X218230000Y32395000D01*
G75*
G02*
X218480000Y32145000I0J-250000D01*
G01*
X218480000Y29295000D01*
G75*
G02*
X218230000Y29045000I-250000J0D01*
G01*
X217505000Y29045000D01*
G75*
G02*
X217255000Y29295000I0J250000D01*
G01*
G37*
G36*
G01*
X223180000Y29295000D02*
X223180000Y32145000D01*
G75*
G02*
X223430000Y32395000I250000J0D01*
G01*
X224155000Y32395000D01*
G75*
G02*
X224405000Y32145000I0J-250000D01*
G01*
X224405000Y29295000D01*
G75*
G02*
X224155000Y29045000I-250000J0D01*
G01*
X223430000Y29045000D01*
G75*
G02*
X223180000Y29295000I0J250000D01*
G01*
G37*
G04 #@! TD*
G04 #@! TO.C,R34*
G36*
G01*
X214685000Y93113175D02*
X214685000Y93893175D01*
G75*
G02*
X214755000Y93963175I70000J0D01*
G01*
X215315000Y93963175D01*
G75*
G02*
X215385000Y93893175I0J-70000D01*
G01*
X215385000Y93113175D01*
G75*
G02*
X215315000Y93043175I-70000J0D01*
G01*
X214755000Y93043175D01*
G75*
G02*
X214685000Y93113175I0J70000D01*
G01*
G37*
G36*
G01*
X216285000Y93113175D02*
X216285000Y93893175D01*
G75*
G02*
X216355000Y93963175I70000J0D01*
G01*
X216915000Y93963175D01*
G75*
G02*
X216985000Y93893175I0J-70000D01*
G01*
X216985000Y93113175D01*
G75*
G02*
X216915000Y93043175I-70000J0D01*
G01*
X216355000Y93043175D01*
G75*
G02*
X216285000Y93113175I0J70000D01*
G01*
G37*
G04 #@! TD*
G04 #@! TO.C,C20*
G36*
G01*
X163045000Y-3855000D02*
X163045000Y-2805000D01*
G75*
G02*
X163145000Y-2705000I100000J0D01*
G01*
X163945000Y-2705000D01*
G75*
G02*
X164045000Y-2805000I0J-100000D01*
G01*
X164045000Y-3855000D01*
G75*
G02*
X163945000Y-3955000I-100000J0D01*
G01*
X163145000Y-3955000D01*
G75*
G02*
X163045000Y-3855000I0J100000D01*
G01*
G37*
G36*
G01*
X165045000Y-3855000D02*
X165045000Y-2805000D01*
G75*
G02*
X165145000Y-2705000I100000J0D01*
G01*
X165945000Y-2705000D01*
G75*
G02*
X166045000Y-2805000I0J-100000D01*
G01*
X166045000Y-3855000D01*
G75*
G02*
X165945000Y-3955000I-100000J0D01*
G01*
X165145000Y-3955000D01*
G75*
G02*
X165045000Y-3855000I0J100000D01*
G01*
G37*
G04 #@! TD*
G04 #@! TO.C,C24*
G36*
G01*
X167045000Y355014D02*
X167045000Y1035014D01*
G75*
G02*
X167130000Y1120014I85000J0D01*
G01*
X167810000Y1120014D01*
G75*
G02*
X167895000Y1035014I0J-85000D01*
G01*
X167895000Y355014D01*
G75*
G02*
X167810000Y270014I-85000J0D01*
G01*
X167130000Y270014D01*
G75*
G02*
X167045000Y355014I0J85000D01*
G01*
G37*
G36*
G01*
X168625002Y355014D02*
X168625002Y1035014D01*
G75*
G02*
X168710002Y1120014I85000J0D01*
G01*
X169390002Y1120014D01*
G75*
G02*
X169475002Y1035014I0J-85000D01*
G01*
X169475002Y355014D01*
G75*
G02*
X169390002Y270014I-85000J0D01*
G01*
X168710002Y270014D01*
G75*
G02*
X168625002Y355014I0J85000D01*
G01*
G37*
G04 #@! TD*
D14*
G04 #@! TO.C,H1*
X194150000Y100250000D03*
X194852944Y101947056D03*
X194852944Y98552944D03*
X196550000Y102650000D03*
D15*
X196550000Y100250000D03*
D14*
X196550000Y97850000D03*
X198247056Y101947056D03*
X198247056Y98552944D03*
X198950000Y100250000D03*
G04 #@! TD*
D12*
G04 #@! TO.C,Q15*
X206110000Y85900000D03*
X206110000Y83600000D03*
X206110000Y81300000D03*
D13*
X212410000Y83600000D03*
G04 #@! TD*
G04 #@! TO.C,Q5*
G36*
G01*
X182465000Y970000D02*
X182465000Y1270000D01*
G75*
G02*
X182615000Y1420000I150000J0D01*
G01*
X183790000Y1420000D01*
G75*
G02*
X183940000Y1270000I0J-150000D01*
G01*
X183940000Y970000D01*
G75*
G02*
X183790000Y820000I-150000J0D01*
G01*
X182615000Y820000D01*
G75*
G02*
X182465000Y970000I0J150000D01*
G01*
G37*
G36*
G01*
X184340000Y20000D02*
X184340000Y320000D01*
G75*
G02*
X184490000Y470000I150000J0D01*
G01*
X185665000Y470000D01*
G75*
G02*
X185815000Y320000I0J-150000D01*
G01*
X185815000Y20000D01*
G75*
G02*
X185665000Y-130000I-150000J0D01*
G01*
X184490000Y-130000D01*
G75*
G02*
X184340000Y20000I0J150000D01*
G01*
G37*
G36*
G01*
X182465000Y-930000D02*
X182465000Y-630000D01*
G75*
G02*
X182615000Y-480000I150000J0D01*
G01*
X183790000Y-480000D01*
G75*
G02*
X183940000Y-630000I0J-150000D01*
G01*
X183940000Y-930000D01*
G75*
G02*
X183790000Y-1080000I-150000J0D01*
G01*
X182615000Y-1080000D01*
G75*
G02*
X182465000Y-930000I0J150000D01*
G01*
G37*
G04 #@! TD*
D10*
G04 #@! TO.C,U2*
X168320000Y8970000D03*
X168320000Y7970000D03*
X168320000Y6970000D03*
X168320000Y5970000D03*
X168320000Y4970000D03*
X168320000Y3970000D03*
X177920000Y3970000D03*
X177920000Y4970000D03*
X177920000Y5970000D03*
X177920000Y6970000D03*
X177920000Y7970000D03*
X177920000Y8970000D03*
D11*
X173120000Y6470000D03*
G04 #@! TD*
G04 #@! TO.C,Q9*
G36*
G01*
X205110000Y34530000D02*
X205110000Y35230000D01*
G75*
G02*
X205360000Y35480000I250000J0D01*
G01*
X207060000Y35480000D01*
G75*
G02*
X207310000Y35230000I0J-250000D01*
G01*
X207310000Y34530000D01*
G75*
G02*
X207060000Y34280000I-250000J0D01*
G01*
X205360000Y34280000D01*
G75*
G02*
X205110000Y34530000I0J250000D01*
G01*
G37*
G36*
G01*
X209310000Y29949997D02*
X209310000Y35250003D01*
G75*
G02*
X209559997Y35500000I249997J0D01*
G01*
X215460003Y35500000D01*
G75*
G02*
X215710000Y35250003I0J-249997D01*
G01*
X215710000Y29949997D01*
G75*
G02*
X215460003Y29700000I-249997J0D01*
G01*
X209559997Y29700000D01*
G75*
G02*
X209310000Y29949997I0J249997D01*
G01*
G37*
G36*
G01*
X205110000Y29970000D02*
X205110000Y30670000D01*
G75*
G02*
X205360000Y30920000I250000J0D01*
G01*
X207060000Y30920000D01*
G75*
G02*
X207310000Y30670000I0J-250000D01*
G01*
X207310000Y29970000D01*
G75*
G02*
X207060000Y29720000I-250000J0D01*
G01*
X205360000Y29720000D01*
G75*
G02*
X205110000Y29970000I0J250000D01*
G01*
G37*
G04 #@! TD*
G04 #@! TO.C,D5*
G36*
G01*
X230045000Y92795000D02*
X230045000Y93815000D01*
G75*
G02*
X230135000Y93905000I90000J0D01*
G01*
X230855000Y93905000D01*
G75*
G02*
X230945000Y93815000I0J-90000D01*
G01*
X230945000Y92795000D01*
G75*
G02*
X230855000Y92705000I-90000J0D01*
G01*
X230135000Y92705000D01*
G75*
G02*
X230045000Y92795000I0J90000D01*
G01*
G37*
G36*
G01*
X233345000Y92795000D02*
X233345000Y93815000D01*
G75*
G02*
X233435000Y93905000I90000J0D01*
G01*
X234155000Y93905000D01*
G75*
G02*
X234245000Y93815000I0J-90000D01*
G01*
X234245000Y92795000D01*
G75*
G02*
X234155000Y92705000I-90000J0D01*
G01*
X233435000Y92705000D01*
G75*
G02*
X233345000Y92795000I0J90000D01*
G01*
G37*
G04 #@! TD*
G04 #@! TO.C,C19*
G36*
G01*
X163045000Y-1605000D02*
X163045000Y-555000D01*
G75*
G02*
X163145000Y-455000I100000J0D01*
G01*
X163945000Y-455000D01*
G75*
G02*
X164045000Y-555000I0J-100000D01*
G01*
X164045000Y-1605000D01*
G75*
G02*
X163945000Y-1705000I-100000J0D01*
G01*
X163145000Y-1705000D01*
G75*
G02*
X163045000Y-1605000I0J100000D01*
G01*
G37*
G36*
G01*
X165045000Y-1605000D02*
X165045000Y-555000D01*
G75*
G02*
X165145000Y-455000I100000J0D01*
G01*
X165945000Y-455000D01*
G75*
G02*
X166045000Y-555000I0J-100000D01*
G01*
X166045000Y-1605000D01*
G75*
G02*
X165945000Y-1705000I-100000J0D01*
G01*
X165145000Y-1705000D01*
G75*
G02*
X165045000Y-1605000I0J100000D01*
G01*
G37*
G04 #@! TD*
D16*
G04 #@! TO.C,J2*
X115800000Y73300000D03*
X153600000Y73300000D03*
G36*
G01*
X114450000Y64400001D02*
X114450000Y67599999D01*
G75*
G02*
X114700001Y67850000I250001J0D01*
G01*
X116899999Y67850000D01*
G75*
G02*
X117150000Y67599999I0J-250001D01*
G01*
X117150000Y64400001D01*
G75*
G02*
X116899999Y64150000I-250001J0D01*
G01*
X114700001Y64150000D01*
G75*
G02*
X114450000Y64400001I0J250001D01*
G01*
G37*
D17*
X120000000Y66000000D03*
X124200000Y66000000D03*
X128400000Y66000000D03*
X132600000Y66000000D03*
X136800000Y66000000D03*
X141000000Y66000000D03*
X145200000Y66000000D03*
X149400000Y66000000D03*
X153600000Y66000000D03*
X115800000Y60500000D03*
X120000000Y60500000D03*
X124200000Y60500000D03*
X128400000Y60500000D03*
X132600000Y60500000D03*
X136800000Y60500000D03*
X141000000Y60500000D03*
X145200000Y60500000D03*
X149400000Y60500000D03*
X153600000Y60500000D03*
G04 #@! TD*
G04 #@! TO.C,C4*
G36*
G01*
X143895000Y2895000D02*
X143895000Y3945000D01*
G75*
G02*
X143995000Y4045000I100000J0D01*
G01*
X144795000Y4045000D01*
G75*
G02*
X144895000Y3945000I0J-100000D01*
G01*
X144895000Y2895000D01*
G75*
G02*
X144795000Y2795000I-100000J0D01*
G01*
X143995000Y2795000D01*
G75*
G02*
X143895000Y2895000I0J100000D01*
G01*
G37*
G36*
G01*
X145895000Y2895000D02*
X145895000Y3945000D01*
G75*
G02*
X145995000Y4045000I100000J0D01*
G01*
X146795000Y4045000D01*
G75*
G02*
X146895000Y3945000I0J-100000D01*
G01*
X146895000Y2895000D01*
G75*
G02*
X146795000Y2795000I-100000J0D01*
G01*
X145995000Y2795000D01*
G75*
G02*
X145895000Y2895000I0J100000D01*
G01*
G37*
G04 #@! TD*
D19*
G04 #@! TO.C,F3*
X134835000Y26525000D03*
G36*
G01*
X136179990Y25625000D02*
X135489990Y25625000D01*
G75*
G02*
X135259990Y25855000I0J230000D01*
G01*
X135259990Y27195000D01*
G75*
G02*
X135489990Y27425000I230000J0D01*
G01*
X136179990Y27425000D01*
G75*
G02*
X136409990Y27195000I0J-230000D01*
G01*
X136409990Y25855000D01*
G75*
G02*
X136179990Y25625000I-230000J0D01*
G01*
G37*
G36*
G01*
X139080010Y25625000D02*
X138390010Y25625000D01*
G75*
G02*
X138160010Y25855000I0J230000D01*
G01*
X138160010Y27195000D01*
G75*
G02*
X138390010Y27425000I230000J0D01*
G01*
X139080010Y27425000D01*
G75*
G02*
X139310010Y27195000I0J-230000D01*
G01*
X139310010Y25855000D01*
G75*
G02*
X139080010Y25625000I-230000J0D01*
G01*
G37*
X139735000Y26525000D03*
G04 #@! TD*
D14*
G04 #@! TO.C,H3*
X194150000Y84350000D03*
X194852944Y86047056D03*
X194852944Y82652944D03*
X196550000Y86750000D03*
D15*
X196550000Y84350000D03*
D14*
X196550000Y81950000D03*
X198247056Y86047056D03*
X198247056Y82652944D03*
X198950000Y84350000D03*
G04 #@! TD*
G04 #@! TO.C,R23*
G36*
G01*
X216985000Y16171267D02*
X216985000Y16951267D01*
G75*
G02*
X217055000Y17021267I70000J0D01*
G01*
X217615000Y17021267D01*
G75*
G02*
X217685000Y16951267I0J-70000D01*
G01*
X217685000Y16171267D01*
G75*
G02*
X217615000Y16101267I-70000J0D01*
G01*
X217055000Y16101267D01*
G75*
G02*
X216985000Y16171267I0J70000D01*
G01*
G37*
G36*
G01*
X218585000Y16171267D02*
X218585000Y16951267D01*
G75*
G02*
X218655000Y17021267I70000J0D01*
G01*
X219215000Y17021267D01*
G75*
G02*
X219285000Y16951267I0J-70000D01*
G01*
X219285000Y16171267D01*
G75*
G02*
X219215000Y16101267I-70000J0D01*
G01*
X218655000Y16101267D01*
G75*
G02*
X218585000Y16171267I0J70000D01*
G01*
G37*
G04 #@! TD*
D12*
G04 #@! TO.C,Q17*
X206110000Y69400000D03*
X206110000Y67100000D03*
X206110000Y64800000D03*
D13*
X212410000Y67100000D03*
G04 #@! TD*
G04 #@! TO.C,R4*
G36*
G01*
X112845000Y14875000D02*
X112845000Y17725000D01*
G75*
G02*
X113095000Y17975000I250000J0D01*
G01*
X113820000Y17975000D01*
G75*
G02*
X114070000Y17725000I0J-250000D01*
G01*
X114070000Y14875000D01*
G75*
G02*
X113820000Y14625000I-250000J0D01*
G01*
X113095000Y14625000D01*
G75*
G02*
X112845000Y14875000I0J250000D01*
G01*
G37*
G36*
G01*
X118770000Y14875000D02*
X118770000Y17725000D01*
G75*
G02*
X119020000Y17975000I250000J0D01*
G01*
X119745000Y17975000D01*
G75*
G02*
X119995000Y17725000I0J-250000D01*
G01*
X119995000Y14875000D01*
G75*
G02*
X119745000Y14625000I-250000J0D01*
G01*
X119020000Y14625000D01*
G75*
G02*
X118770000Y14875000I0J250000D01*
G01*
G37*
G04 #@! TD*
D12*
G04 #@! TO.C,Q14*
X206110000Y94150000D03*
X206110000Y91850000D03*
X206110000Y89550000D03*
D13*
X212410000Y91850000D03*
G04 #@! TD*
G04 #@! TO.C,C10*
G36*
G01*
X143895000Y-10605000D02*
X143895000Y-9555000D01*
G75*
G02*
X143995000Y-9455000I100000J0D01*
G01*
X144795000Y-9455000D01*
G75*
G02*
X144895000Y-9555000I0J-100000D01*
G01*
X144895000Y-10605000D01*
G75*
G02*
X144795000Y-10705000I-100000J0D01*
G01*
X143995000Y-10705000D01*
G75*
G02*
X143895000Y-10605000I0J100000D01*
G01*
G37*
G36*
G01*
X145895000Y-10605000D02*
X145895000Y-9555000D01*
G75*
G02*
X145995000Y-9455000I100000J0D01*
G01*
X146795000Y-9455000D01*
G75*
G02*
X146895000Y-9555000I0J-100000D01*
G01*
X146895000Y-10605000D01*
G75*
G02*
X146795000Y-10705000I-100000J0D01*
G01*
X145995000Y-10705000D01*
G75*
G02*
X145895000Y-10605000I0J100000D01*
G01*
G37*
G04 #@! TD*
D19*
G04 #@! TO.C,R6*
X193450391Y16248827D03*
G36*
G01*
X193905390Y15623827D02*
X193905390Y16873827D01*
G75*
G02*
X194005390Y16973827I100000J0D01*
G01*
X194805390Y16973827D01*
G75*
G02*
X194905390Y16873827I0J-100000D01*
G01*
X194905390Y15623827D01*
G75*
G02*
X194805390Y15523827I-100000J0D01*
G01*
X194005390Y15523827D01*
G75*
G02*
X193905390Y15623827I0J100000D01*
G01*
G37*
G36*
G01*
X195805412Y15623827D02*
X195805412Y16873827D01*
G75*
G02*
X195905412Y16973827I100000J0D01*
G01*
X196705412Y16973827D01*
G75*
G02*
X196805412Y16873827I0J-100000D01*
G01*
X196805412Y15623827D01*
G75*
G02*
X196705412Y15523827I-100000J0D01*
G01*
X195905412Y15523827D01*
G75*
G02*
X195805412Y15623827I0J100000D01*
G01*
G37*
X197260391Y16248827D03*
G04 #@! TD*
G04 #@! TO.C,Q7*
G36*
G01*
X205110000Y50630000D02*
X205110000Y51330000D01*
G75*
G02*
X205360000Y51580000I250000J0D01*
G01*
X207060000Y51580000D01*
G75*
G02*
X207310000Y51330000I0J-250000D01*
G01*
X207310000Y50630000D01*
G75*
G02*
X207060000Y50380000I-250000J0D01*
G01*
X205360000Y50380000D01*
G75*
G02*
X205110000Y50630000I0J250000D01*
G01*
G37*
G36*
G01*
X209310000Y46049997D02*
X209310000Y51350003D01*
G75*
G02*
X209559997Y51600000I249997J0D01*
G01*
X215460003Y51600000D01*
G75*
G02*
X215710000Y51350003I0J-249997D01*
G01*
X215710000Y46049997D01*
G75*
G02*
X215460003Y45800000I-249997J0D01*
G01*
X209559997Y45800000D01*
G75*
G02*
X209310000Y46049997I0J249997D01*
G01*
G37*
G36*
G01*
X205110000Y46070000D02*
X205110000Y46770000D01*
G75*
G02*
X205360000Y47020000I250000J0D01*
G01*
X207060000Y47020000D01*
G75*
G02*
X207310000Y46770000I0J-250000D01*
G01*
X207310000Y46070000D01*
G75*
G02*
X207060000Y45820000I-250000J0D01*
G01*
X205360000Y45820000D01*
G75*
G02*
X205110000Y46070000I0J250000D01*
G01*
G37*
G04 #@! TD*
G04 #@! TO.C,R5*
X193450391Y19099609D03*
G36*
G01*
X193905390Y18474609D02*
X193905390Y19724609D01*
G75*
G02*
X194005390Y19824609I100000J0D01*
G01*
X194805390Y19824609D01*
G75*
G02*
X194905390Y19724609I0J-100000D01*
G01*
X194905390Y18474609D01*
G75*
G02*
X194805390Y18374609I-100000J0D01*
G01*
X194005390Y18374609D01*
G75*
G02*
X193905390Y18474609I0J100000D01*
G01*
G37*
G36*
G01*
X195805412Y18474609D02*
X195805412Y19724609D01*
G75*
G02*
X195905412Y19824609I100000J0D01*
G01*
X196705412Y19824609D01*
G75*
G02*
X196805412Y19724609I0J-100000D01*
G01*
X196805412Y18474609D01*
G75*
G02*
X196705412Y18374609I-100000J0D01*
G01*
X195905412Y18374609D01*
G75*
G02*
X195805412Y18474609I0J100000D01*
G01*
G37*
X197260391Y19099609D03*
G04 #@! TD*
G04 #@! TO.C,C9*
G36*
G01*
X143895000Y-8355000D02*
X143895000Y-7305000D01*
G75*
G02*
X143995000Y-7205000I100000J0D01*
G01*
X144795000Y-7205000D01*
G75*
G02*
X144895000Y-7305000I0J-100000D01*
G01*
X144895000Y-8355000D01*
G75*
G02*
X144795000Y-8455000I-100000J0D01*
G01*
X143995000Y-8455000D01*
G75*
G02*
X143895000Y-8355000I0J100000D01*
G01*
G37*
G36*
G01*
X145895000Y-8355000D02*
X145895000Y-7305000D01*
G75*
G02*
X145995000Y-7205000I100000J0D01*
G01*
X146795000Y-7205000D01*
G75*
G02*
X146895000Y-7305000I0J-100000D01*
G01*
X146895000Y-8355000D01*
G75*
G02*
X146795000Y-8455000I-100000J0D01*
G01*
X145995000Y-8455000D01*
G75*
G02*
X145895000Y-8355000I0J100000D01*
G01*
G37*
G04 #@! TD*
G04 #@! TO.C,R15*
G36*
G01*
X187085000Y9928405D02*
X187085000Y10708405D01*
G75*
G02*
X187155000Y10778405I70000J0D01*
G01*
X187715000Y10778405D01*
G75*
G02*
X187785000Y10708405I0J-70000D01*
G01*
X187785000Y9928405D01*
G75*
G02*
X187715000Y9858405I-70000J0D01*
G01*
X187155000Y9858405D01*
G75*
G02*
X187085000Y9928405I0J70000D01*
G01*
G37*
G36*
G01*
X188685000Y9928405D02*
X188685000Y10708405D01*
G75*
G02*
X188755000Y10778405I70000J0D01*
G01*
X189315000Y10778405D01*
G75*
G02*
X189385000Y10708405I0J-70000D01*
G01*
X189385000Y9928405D01*
G75*
G02*
X189315000Y9858405I-70000J0D01*
G01*
X188755000Y9858405D01*
G75*
G02*
X188685000Y9928405I0J70000D01*
G01*
G37*
G04 #@! TD*
G04 #@! TO.C,R30*
G36*
G01*
X214685000Y100909359D02*
X214685000Y101689359D01*
G75*
G02*
X214755000Y101759359I70000J0D01*
G01*
X215315000Y101759359D01*
G75*
G02*
X215385000Y101689359I0J-70000D01*
G01*
X215385000Y100909359D01*
G75*
G02*
X215315000Y100839359I-70000J0D01*
G01*
X214755000Y100839359D01*
G75*
G02*
X214685000Y100909359I0J70000D01*
G01*
G37*
G36*
G01*
X216285000Y100909359D02*
X216285000Y101689359D01*
G75*
G02*
X216355000Y101759359I70000J0D01*
G01*
X216915000Y101759359D01*
G75*
G02*
X216985000Y101689359I0J-70000D01*
G01*
X216985000Y100909359D01*
G75*
G02*
X216915000Y100839359I-70000J0D01*
G01*
X216355000Y100839359D01*
G75*
G02*
X216285000Y100909359I0J70000D01*
G01*
G37*
G04 #@! TD*
G04 #@! TO.C,R9*
G36*
G01*
X147895000Y-5561595D02*
X147895000Y-4781595D01*
G75*
G02*
X147965000Y-4711595I70000J0D01*
G01*
X148525000Y-4711595D01*
G75*
G02*
X148595000Y-4781595I0J-70000D01*
G01*
X148595000Y-5561595D01*
G75*
G02*
X148525000Y-5631595I-70000J0D01*
G01*
X147965000Y-5631595D01*
G75*
G02*
X147895000Y-5561595I0J70000D01*
G01*
G37*
G36*
G01*
X149495000Y-5561595D02*
X149495000Y-4781595D01*
G75*
G02*
X149565000Y-4711595I70000J0D01*
G01*
X150125000Y-4711595D01*
G75*
G02*
X150195000Y-4781595I0J-70000D01*
G01*
X150195000Y-5561595D01*
G75*
G02*
X150125000Y-5631595I-70000J0D01*
G01*
X149565000Y-5631595D01*
G75*
G02*
X149495000Y-5561595I0J70000D01*
G01*
G37*
G04 #@! TD*
D16*
G04 #@! TO.C,J1*
X115800000Y96600000D03*
X153600000Y96600000D03*
G36*
G01*
X114450000Y87700001D02*
X114450000Y90899999D01*
G75*
G02*
X114700001Y91150000I250001J0D01*
G01*
X116899999Y91150000D01*
G75*
G02*
X117150000Y90899999I0J-250001D01*
G01*
X117150000Y87700001D01*
G75*
G02*
X116899999Y87450000I-250001J0D01*
G01*
X114700001Y87450000D01*
G75*
G02*
X114450000Y87700001I0J250001D01*
G01*
G37*
D17*
X120000000Y89300000D03*
X124200000Y89300000D03*
X128400000Y89300000D03*
X132600000Y89300000D03*
X136800000Y89300000D03*
X141000000Y89300000D03*
X145200000Y89300000D03*
X149400000Y89300000D03*
X153600000Y89300000D03*
X115800000Y83800000D03*
X120000000Y83800000D03*
X124200000Y83800000D03*
X128400000Y83800000D03*
X132600000Y83800000D03*
X136800000Y83800000D03*
X141000000Y83800000D03*
X145200000Y83800000D03*
X149400000Y83800000D03*
X153600000Y83800000D03*
G04 #@! TD*
G04 #@! TO.C,Q12*
G36*
G01*
X205110000Y10380000D02*
X205110000Y11080000D01*
G75*
G02*
X205360000Y11330000I250000J0D01*
G01*
X207060000Y11330000D01*
G75*
G02*
X207310000Y11080000I0J-250000D01*
G01*
X207310000Y10380000D01*
G75*
G02*
X207060000Y10130000I-250000J0D01*
G01*
X205360000Y10130000D01*
G75*
G02*
X205110000Y10380000I0J250000D01*
G01*
G37*
G36*
G01*
X209310000Y5799997D02*
X209310000Y11100003D01*
G75*
G02*
X209559997Y11350000I249997J0D01*
G01*
X215460003Y11350000D01*
G75*
G02*
X215710000Y11100003I0J-249997D01*
G01*
X215710000Y5799997D01*
G75*
G02*
X215460003Y5550000I-249997J0D01*
G01*
X209559997Y5550000D01*
G75*
G02*
X209310000Y5799997I0J249997D01*
G01*
G37*
G36*
G01*
X205110000Y5820000D02*
X205110000Y6520000D01*
G75*
G02*
X205360000Y6770000I250000J0D01*
G01*
X207060000Y6770000D01*
G75*
G02*
X207310000Y6520000I0J-250000D01*
G01*
X207310000Y5820000D01*
G75*
G02*
X207060000Y5570000I-250000J0D01*
G01*
X205360000Y5570000D01*
G75*
G02*
X205110000Y5820000I0J250000D01*
G01*
G37*
G04 #@! TD*
D19*
G04 #@! TO.C,F4*
X134835000Y23405000D03*
G36*
G01*
X136179990Y22505000D02*
X135489990Y22505000D01*
G75*
G02*
X135259990Y22735000I0J230000D01*
G01*
X135259990Y24075000D01*
G75*
G02*
X135489990Y24305000I230000J0D01*
G01*
X136179990Y24305000D01*
G75*
G02*
X136409990Y24075000I0J-230000D01*
G01*
X136409990Y22735000D01*
G75*
G02*
X136179990Y22505000I-230000J0D01*
G01*
G37*
G36*
G01*
X139080010Y22505000D02*
X138390010Y22505000D01*
G75*
G02*
X138160010Y22735000I0J230000D01*
G01*
X138160010Y24075000D01*
G75*
G02*
X138390010Y24305000I230000J0D01*
G01*
X139080010Y24305000D01*
G75*
G02*
X139310010Y24075000I0J-230000D01*
G01*
X139310010Y22735000D01*
G75*
G02*
X139080010Y22505000I-230000J0D01*
G01*
G37*
X139735000Y23405000D03*
G04 #@! TD*
D14*
G04 #@! TO.C,H2*
X194150000Y92300000D03*
X194852944Y93997056D03*
X194852944Y90602944D03*
X196550000Y94700000D03*
D15*
X196550000Y92300000D03*
D14*
X196550000Y89900000D03*
X198247056Y93997056D03*
X198247056Y90602944D03*
X198950000Y92300000D03*
G04 #@! TD*
G04 #@! TO.C,C13*
G36*
G01*
X147895000Y-3544956D02*
X147895000Y-2864956D01*
G75*
G02*
X147980000Y-2779956I85000J0D01*
G01*
X148660000Y-2779956D01*
G75*
G02*
X148745000Y-2864956I0J-85000D01*
G01*
X148745000Y-3544956D01*
G75*
G02*
X148660000Y-3629956I-85000J0D01*
G01*
X147980000Y-3629956D01*
G75*
G02*
X147895000Y-3544956I0J85000D01*
G01*
G37*
G36*
G01*
X149475002Y-3544956D02*
X149475002Y-2864956D01*
G75*
G02*
X149560002Y-2779956I85000J0D01*
G01*
X150240002Y-2779956D01*
G75*
G02*
X150325002Y-2864956I0J-85000D01*
G01*
X150325002Y-3544956D01*
G75*
G02*
X150240002Y-3629956I-85000J0D01*
G01*
X149560002Y-3629956D01*
G75*
G02*
X149475002Y-3544956I0J85000D01*
G01*
G37*
G04 #@! TD*
G04 #@! TO.C,R31*
G36*
G01*
X214685000Y98960313D02*
X214685000Y99740313D01*
G75*
G02*
X214755000Y99810313I70000J0D01*
G01*
X215315000Y99810313D01*
G75*
G02*
X215385000Y99740313I0J-70000D01*
G01*
X215385000Y98960313D01*
G75*
G02*
X215315000Y98890313I-70000J0D01*
G01*
X214755000Y98890313D01*
G75*
G02*
X214685000Y98960313I0J70000D01*
G01*
G37*
G36*
G01*
X216285000Y98960313D02*
X216285000Y99740313D01*
G75*
G02*
X216355000Y99810313I70000J0D01*
G01*
X216915000Y99810313D01*
G75*
G02*
X216985000Y99740313I0J-70000D01*
G01*
X216985000Y98960313D01*
G75*
G02*
X216915000Y98890313I-70000J0D01*
G01*
X216355000Y98890313D01*
G75*
G02*
X216285000Y98960313I0J70000D01*
G01*
G37*
G04 #@! TD*
D12*
G04 #@! TO.C,Q2*
X221260000Y94150000D03*
X221260000Y91850000D03*
X221260000Y89550000D03*
D13*
X227560000Y91850000D03*
G04 #@! TD*
D26*
G04 #@! TO.C,J9*
X144250000Y20605000D03*
X150030000Y20605000D03*
D27*
X143790000Y21670000D03*
X144590000Y21670000D03*
X145890000Y21670000D03*
X146890000Y21670000D03*
X147390000Y21670000D03*
X148390000Y21670000D03*
X149690000Y21670000D03*
X150490000Y21670000D03*
X150190000Y21670000D03*
X149390000Y21670000D03*
X148890000Y21670000D03*
X147890000Y21670000D03*
X146390000Y21670000D03*
X145390000Y21670000D03*
X144890000Y21670000D03*
X144090000Y21670000D03*
D28*
X142820000Y21105000D03*
D29*
X142820000Y16925000D03*
D28*
X151460000Y21105000D03*
D29*
X151460000Y16925000D03*
G04 #@! TD*
G04 #@! TO.C,C11*
G36*
G01*
X147895000Y355014D02*
X147895000Y1035014D01*
G75*
G02*
X147980000Y1120014I85000J0D01*
G01*
X148660000Y1120014D01*
G75*
G02*
X148745000Y1035014I0J-85000D01*
G01*
X148745000Y355014D01*
G75*
G02*
X148660000Y270014I-85000J0D01*
G01*
X147980000Y270014D01*
G75*
G02*
X147895000Y355014I0J85000D01*
G01*
G37*
G36*
G01*
X149475002Y355014D02*
X149475002Y1035014D01*
G75*
G02*
X149560002Y1120014I85000J0D01*
G01*
X150240002Y1120014D01*
G75*
G02*
X150325002Y1035014I0J-85000D01*
G01*
X150325002Y355014D01*
G75*
G02*
X150240002Y270014I-85000J0D01*
G01*
X149560002Y270014D01*
G75*
G02*
X149475002Y355014I0J85000D01*
G01*
G37*
G04 #@! TD*
D30*
G04 #@! TO.C,U3*
X115305500Y-1460500D03*
X138165500Y-1460500D03*
D31*
X121793000Y-3340500D03*
X131635500Y-3340500D03*
X131635500Y-4610500D03*
X131635500Y-5880500D03*
X131635500Y-7150500D03*
D19*
X120385500Y-14160500D03*
D31*
X121793000Y-7150500D03*
X121793000Y-5880500D03*
D19*
X122925500Y-14160500D03*
D31*
X121793000Y-4610500D03*
D19*
X125465500Y-14160500D03*
X128005500Y-14160500D03*
X130545500Y-14160500D03*
X133085500Y-14160500D03*
G04 #@! TD*
G04 #@! TO.C,D1*
G36*
G01*
X158287997Y20700000D02*
X158767997Y20700000D01*
G75*
G02*
X158827997Y20640000I0J-60000D01*
G01*
X158827997Y20160000D01*
G75*
G02*
X158767997Y20100000I-60000J0D01*
G01*
X158287997Y20100000D01*
G75*
G02*
X158227997Y20160000I0J60000D01*
G01*
X158227997Y20640000D01*
G75*
G02*
X158287997Y20700000I60000J0D01*
G01*
G37*
G36*
G01*
X160487997Y20700000D02*
X160967997Y20700000D01*
G75*
G02*
X161027997Y20640000I0J-60000D01*
G01*
X161027997Y20160000D01*
G75*
G02*
X160967997Y20100000I-60000J0D01*
G01*
X160487997Y20100000D01*
G75*
G02*
X160427997Y20160000I0J60000D01*
G01*
X160427997Y20640000D01*
G75*
G02*
X160487997Y20700000I60000J0D01*
G01*
G37*
G04 #@! TD*
G04 #@! TO.C,Q11*
G36*
G01*
X205110000Y18430000D02*
X205110000Y19130000D01*
G75*
G02*
X205360000Y19380000I250000J0D01*
G01*
X207060000Y19380000D01*
G75*
G02*
X207310000Y19130000I0J-250000D01*
G01*
X207310000Y18430000D01*
G75*
G02*
X207060000Y18180000I-250000J0D01*
G01*
X205360000Y18180000D01*
G75*
G02*
X205110000Y18430000I0J250000D01*
G01*
G37*
G36*
G01*
X209310000Y13849997D02*
X209310000Y19150003D01*
G75*
G02*
X209559997Y19400000I249997J0D01*
G01*
X215460003Y19400000D01*
G75*
G02*
X215710000Y19150003I0J-249997D01*
G01*
X215710000Y13849997D01*
G75*
G02*
X215460003Y13600000I-249997J0D01*
G01*
X209559997Y13600000D01*
G75*
G02*
X209310000Y13849997I0J249997D01*
G01*
G37*
G36*
G01*
X205110000Y13870000D02*
X205110000Y14570000D01*
G75*
G02*
X205360000Y14820000I250000J0D01*
G01*
X207060000Y14820000D01*
G75*
G02*
X207310000Y14570000I0J-250000D01*
G01*
X207310000Y13870000D01*
G75*
G02*
X207060000Y13620000I-250000J0D01*
G01*
X205360000Y13620000D01*
G75*
G02*
X205110000Y13870000I0J250000D01*
G01*
G37*
G04 #@! TD*
D12*
G04 #@! TO.C,Q3*
X221260000Y85900000D03*
X221260000Y83600000D03*
X221260000Y81300000D03*
D13*
X227560000Y83600000D03*
G04 #@! TD*
D16*
G04 #@! TO.C,J3*
X161050000Y59350000D03*
X169450000Y59350000D03*
G36*
G01*
X159700000Y50450001D02*
X159700000Y53649999D01*
G75*
G02*
X159950001Y53900000I250001J0D01*
G01*
X162149999Y53900000D01*
G75*
G02*
X162400000Y53649999I0J-250001D01*
G01*
X162400000Y50450001D01*
G75*
G02*
X162149999Y50200000I-250001J0D01*
G01*
X159950001Y50200000D01*
G75*
G02*
X159700000Y50450001I0J250001D01*
G01*
G37*
D17*
X165250000Y52050000D03*
X169450000Y52050000D03*
X161050000Y46550000D03*
X165250000Y46550000D03*
X169450000Y46550000D03*
G04 #@! TD*
D16*
G04 #@! TO.C,J4*
X176900000Y59350000D03*
X185300000Y59350000D03*
G36*
G01*
X175550000Y50450001D02*
X175550000Y53649999D01*
G75*
G02*
X175800001Y53900000I250001J0D01*
G01*
X177999999Y53900000D01*
G75*
G02*
X178250000Y53649999I0J-250001D01*
G01*
X178250000Y50450001D01*
G75*
G02*
X177999999Y50200000I-250001J0D01*
G01*
X175800001Y50200000D01*
G75*
G02*
X175550000Y50450001I0J250001D01*
G01*
G37*
D17*
X181100000Y52050000D03*
X185300000Y52050000D03*
X176900000Y46550000D03*
X181100000Y46550000D03*
X185300000Y46550000D03*
G04 #@! TD*
G04 #@! TO.C,Q10*
G36*
G01*
X205110000Y26480000D02*
X205110000Y27180000D01*
G75*
G02*
X205360000Y27430000I250000J0D01*
G01*
X207060000Y27430000D01*
G75*
G02*
X207310000Y27180000I0J-250000D01*
G01*
X207310000Y26480000D01*
G75*
G02*
X207060000Y26230000I-250000J0D01*
G01*
X205360000Y26230000D01*
G75*
G02*
X205110000Y26480000I0J250000D01*
G01*
G37*
G36*
G01*
X209310000Y21899997D02*
X209310000Y27200003D01*
G75*
G02*
X209559997Y27450000I249997J0D01*
G01*
X215460003Y27450000D01*
G75*
G02*
X215710000Y27200003I0J-249997D01*
G01*
X215710000Y21899997D01*
G75*
G02*
X215460003Y21650000I-249997J0D01*
G01*
X209559997Y21650000D01*
G75*
G02*
X209310000Y21899997I0J249997D01*
G01*
G37*
G36*
G01*
X205110000Y21920000D02*
X205110000Y22620000D01*
G75*
G02*
X205360000Y22870000I250000J0D01*
G01*
X207060000Y22870000D01*
G75*
G02*
X207310000Y22620000I0J-250000D01*
G01*
X207310000Y21920000D01*
G75*
G02*
X207060000Y21670000I-250000J0D01*
G01*
X205360000Y21670000D01*
G75*
G02*
X205110000Y21920000I0J250000D01*
G01*
G37*
G04 #@! TD*
G04 #@! TO.C,L1*
G36*
G01*
X207985000Y-5536250D02*
X207985000Y-5023750D01*
G75*
G02*
X208203750Y-4805000I218750J0D01*
G01*
X208641250Y-4805000D01*
G75*
G02*
X208860000Y-5023750I0J-218750D01*
G01*
X208860000Y-5536250D01*
G75*
G02*
X208641250Y-5755000I-218750J0D01*
G01*
X208203750Y-5755000D01*
G75*
G02*
X207985000Y-5536250I0J218750D01*
G01*
G37*
G36*
G01*
X209560000Y-5536250D02*
X209560000Y-5023750D01*
G75*
G02*
X209778750Y-4805000I218750J0D01*
G01*
X210216250Y-4805000D01*
G75*
G02*
X210435000Y-5023750I0J-218750D01*
G01*
X210435000Y-5536250D01*
G75*
G02*
X210216250Y-5755000I-218750J0D01*
G01*
X209778750Y-5755000D01*
G75*
G02*
X209560000Y-5536250I0J218750D01*
G01*
G37*
G04 #@! TD*
G04 #@! TO.C,J7*
G36*
G01*
X176400000Y16825000D02*
X176400000Y18175000D01*
G75*
G02*
X176650000Y18425000I250000J0D01*
G01*
X177850000Y18425000D01*
G75*
G02*
X178100000Y18175000I0J-250000D01*
G01*
X178100000Y16825000D01*
G75*
G02*
X177850000Y16575000I-250000J0D01*
G01*
X176650000Y16575000D01*
G75*
G02*
X176400000Y16825000I0J250000D01*
G01*
G37*
D32*
X179750000Y17500000D03*
X182250000Y17500000D03*
X184750000Y17500000D03*
X187250000Y17500000D03*
G04 #@! TD*
G04 #@! TO.C,R29*
G36*
G01*
X214685000Y102858405D02*
X214685000Y103638405D01*
G75*
G02*
X214755000Y103708405I70000J0D01*
G01*
X215315000Y103708405D01*
G75*
G02*
X215385000Y103638405I0J-70000D01*
G01*
X215385000Y102858405D01*
G75*
G02*
X215315000Y102788405I-70000J0D01*
G01*
X214755000Y102788405D01*
G75*
G02*
X214685000Y102858405I0J70000D01*
G01*
G37*
G36*
G01*
X216285000Y102858405D02*
X216285000Y103638405D01*
G75*
G02*
X216355000Y103708405I70000J0D01*
G01*
X216915000Y103708405D01*
G75*
G02*
X216985000Y103638405I0J-70000D01*
G01*
X216985000Y102858405D01*
G75*
G02*
X216915000Y102788405I-70000J0D01*
G01*
X216355000Y102788405D01*
G75*
G02*
X216285000Y102858405I0J70000D01*
G01*
G37*
G04 #@! TD*
G04 #@! TO.C,C1*
G36*
G01*
X143895000Y9645000D02*
X143895000Y10695000D01*
G75*
G02*
X143995000Y10795000I100000J0D01*
G01*
X144795000Y10795000D01*
G75*
G02*
X144895000Y10695000I0J-100000D01*
G01*
X144895000Y9645000D01*
G75*
G02*
X144795000Y9545000I-100000J0D01*
G01*
X143995000Y9545000D01*
G75*
G02*
X143895000Y9645000I0J100000D01*
G01*
G37*
G36*
G01*
X145895000Y9645000D02*
X145895000Y10695000D01*
G75*
G02*
X145995000Y10795000I100000J0D01*
G01*
X146795000Y10795000D01*
G75*
G02*
X146895000Y10695000I0J-100000D01*
G01*
X146895000Y9645000D01*
G75*
G02*
X146795000Y9545000I-100000J0D01*
G01*
X145995000Y9545000D01*
G75*
G02*
X145895000Y9645000I0J100000D01*
G01*
G37*
G04 #@! TD*
G04 #@! TO.C,R22*
G36*
G01*
X217255000Y39075000D02*
X217255000Y41925000D01*
G75*
G02*
X217505000Y42175000I250000J0D01*
G01*
X218230000Y42175000D01*
G75*
G02*
X218480000Y41925000I0J-250000D01*
G01*
X218480000Y39075000D01*
G75*
G02*
X218230000Y38825000I-250000J0D01*
G01*
X217505000Y38825000D01*
G75*
G02*
X217255000Y39075000I0J250000D01*
G01*
G37*
G36*
G01*
X223180000Y39075000D02*
X223180000Y41925000D01*
G75*
G02*
X223430000Y42175000I250000J0D01*
G01*
X224155000Y42175000D01*
G75*
G02*
X224405000Y41925000I0J-250000D01*
G01*
X224405000Y39075000D01*
G75*
G02*
X224155000Y38825000I-250000J0D01*
G01*
X223430000Y38825000D01*
G75*
G02*
X223180000Y39075000I0J250000D01*
G01*
G37*
G04 #@! TD*
G04 #@! TO.C,R14*
G36*
G01*
X167045000Y-5561595D02*
X167045000Y-4781595D01*
G75*
G02*
X167115000Y-4711595I70000J0D01*
G01*
X167675000Y-4711595D01*
G75*
G02*
X167745000Y-4781595I0J-70000D01*
G01*
X167745000Y-5561595D01*
G75*
G02*
X167675000Y-5631595I-70000J0D01*
G01*
X167115000Y-5631595D01*
G75*
G02*
X167045000Y-5561595I0J70000D01*
G01*
G37*
G36*
G01*
X168645000Y-5561595D02*
X168645000Y-4781595D01*
G75*
G02*
X168715000Y-4711595I70000J0D01*
G01*
X169275000Y-4711595D01*
G75*
G02*
X169345000Y-4781595I0J-70000D01*
G01*
X169345000Y-5561595D01*
G75*
G02*
X169275000Y-5631595I-70000J0D01*
G01*
X168715000Y-5631595D01*
G75*
G02*
X168645000Y-5561595I0J70000D01*
G01*
G37*
G04 #@! TD*
G04 #@! TO.C,R20*
G36*
G01*
X217255000Y48855000D02*
X217255000Y51705000D01*
G75*
G02*
X217505000Y51955000I250000J0D01*
G01*
X218230000Y51955000D01*
G75*
G02*
X218480000Y51705000I0J-250000D01*
G01*
X218480000Y48855000D01*
G75*
G02*
X218230000Y48605000I-250000J0D01*
G01*
X217505000Y48605000D01*
G75*
G02*
X217255000Y48855000I0J250000D01*
G01*
G37*
G36*
G01*
X223180000Y48855000D02*
X223180000Y51705000D01*
G75*
G02*
X223430000Y51955000I250000J0D01*
G01*
X224155000Y51955000D01*
G75*
G02*
X224405000Y51705000I0J-250000D01*
G01*
X224405000Y48855000D01*
G75*
G02*
X224155000Y48605000I-250000J0D01*
G01*
X223430000Y48605000D01*
G75*
G02*
X223180000Y48855000I0J250000D01*
G01*
G37*
G04 #@! TD*
G04 #@! TO.C,R1*
G36*
G01*
X153485000Y21908405D02*
X153485000Y22688405D01*
G75*
G02*
X153555000Y22758405I70000J0D01*
G01*
X154115000Y22758405D01*
G75*
G02*
X154185000Y22688405I0J-70000D01*
G01*
X154185000Y21908405D01*
G75*
G02*
X154115000Y21838405I-70000J0D01*
G01*
X153555000Y21838405D01*
G75*
G02*
X153485000Y21908405I0J70000D01*
G01*
G37*
G36*
G01*
X155085000Y21908405D02*
X155085000Y22688405D01*
G75*
G02*
X155155000Y22758405I70000J0D01*
G01*
X155715000Y22758405D01*
G75*
G02*
X155785000Y22688405I0J-70000D01*
G01*
X155785000Y21908405D01*
G75*
G02*
X155715000Y21838405I-70000J0D01*
G01*
X155155000Y21838405D01*
G75*
G02*
X155085000Y21908405I0J70000D01*
G01*
G37*
G04 #@! TD*
D25*
G04 #@! TO.C,M3*
X172875000Y40275000D03*
X172875000Y39075000D03*
X172875000Y41475000D03*
X172875000Y42675000D03*
X158450000Y36215000D03*
X158450000Y35215000D03*
G04 #@! TD*
G04 #@! TO.C,D7*
G36*
G01*
X182465000Y5420000D02*
X182465000Y5720000D01*
G75*
G02*
X182615000Y5870000I150000J0D01*
G01*
X183790000Y5870000D01*
G75*
G02*
X183940000Y5720000I0J-150000D01*
G01*
X183940000Y5420000D01*
G75*
G02*
X183790000Y5270000I-150000J0D01*
G01*
X182615000Y5270000D01*
G75*
G02*
X182465000Y5420000I0J150000D01*
G01*
G37*
G36*
G01*
X184340000Y4470000D02*
X184340000Y4770000D01*
G75*
G02*
X184490000Y4920000I150000J0D01*
G01*
X185665000Y4920000D01*
G75*
G02*
X185815000Y4770000I0J-150000D01*
G01*
X185815000Y4470000D01*
G75*
G02*
X185665000Y4320000I-150000J0D01*
G01*
X184490000Y4320000D01*
G75*
G02*
X184340000Y4470000I0J150000D01*
G01*
G37*
G36*
G01*
X182465000Y3520000D02*
X182465000Y3820000D01*
G75*
G02*
X182615000Y3970000I150000J0D01*
G01*
X183790000Y3970000D01*
G75*
G02*
X183940000Y3820000I0J-150000D01*
G01*
X183940000Y3520000D01*
G75*
G02*
X183790000Y3370000I-150000J0D01*
G01*
X182615000Y3370000D01*
G75*
G02*
X182465000Y3520000I0J150000D01*
G01*
G37*
G04 #@! TD*
G04 #@! TO.C,C15*
G36*
G01*
X163045000Y7395000D02*
X163045000Y8445000D01*
G75*
G02*
X163145000Y8545000I100000J0D01*
G01*
X163945000Y8545000D01*
G75*
G02*
X164045000Y8445000I0J-100000D01*
G01*
X164045000Y7395000D01*
G75*
G02*
X163945000Y7295000I-100000J0D01*
G01*
X163145000Y7295000D01*
G75*
G02*
X163045000Y7395000I0J100000D01*
G01*
G37*
G36*
G01*
X165045000Y7395000D02*
X165045000Y8445000D01*
G75*
G02*
X165145000Y8545000I100000J0D01*
G01*
X165945000Y8545000D01*
G75*
G02*
X166045000Y8445000I0J-100000D01*
G01*
X166045000Y7395000D01*
G75*
G02*
X165945000Y7295000I-100000J0D01*
G01*
X165145000Y7295000D01*
G75*
G02*
X165045000Y7395000I0J100000D01*
G01*
G37*
G04 #@! TD*
G04 #@! TO.C,R19*
G36*
G01*
X216985000Y18120313D02*
X216985000Y18900313D01*
G75*
G02*
X217055000Y18970313I70000J0D01*
G01*
X217615000Y18970313D01*
G75*
G02*
X217685000Y18900313I0J-70000D01*
G01*
X217685000Y18120313D01*
G75*
G02*
X217615000Y18050313I-70000J0D01*
G01*
X217055000Y18050313D01*
G75*
G02*
X216985000Y18120313I0J70000D01*
G01*
G37*
G36*
G01*
X218585000Y18120313D02*
X218585000Y18900313D01*
G75*
G02*
X218655000Y18970313I70000J0D01*
G01*
X219215000Y18970313D01*
G75*
G02*
X219285000Y18900313I0J-70000D01*
G01*
X219285000Y18120313D01*
G75*
G02*
X219215000Y18050313I-70000J0D01*
G01*
X218655000Y18050313D01*
G75*
G02*
X218585000Y18120313I0J70000D01*
G01*
G37*
G04 #@! TD*
G04 #@! TO.C,D4*
G36*
G01*
X230045000Y95915000D02*
X230045000Y96935000D01*
G75*
G02*
X230135000Y97025000I90000J0D01*
G01*
X230855000Y97025000D01*
G75*
G02*
X230945000Y96935000I0J-90000D01*
G01*
X230945000Y95915000D01*
G75*
G02*
X230855000Y95825000I-90000J0D01*
G01*
X230135000Y95825000D01*
G75*
G02*
X230045000Y95915000I0J90000D01*
G01*
G37*
G36*
G01*
X233345000Y95915000D02*
X233345000Y96935000D01*
G75*
G02*
X233435000Y97025000I90000J0D01*
G01*
X234155000Y97025000D01*
G75*
G02*
X234245000Y96935000I0J-90000D01*
G01*
X234245000Y95915000D01*
G75*
G02*
X234155000Y95825000I-90000J0D01*
G01*
X233435000Y95825000D01*
G75*
G02*
X233345000Y95915000I0J90000D01*
G01*
G37*
G04 #@! TD*
G04 #@! TO.C,R11*
G36*
G01*
X229835000Y88429359D02*
X229835000Y89209359D01*
G75*
G02*
X229905000Y89279359I70000J0D01*
G01*
X230465000Y89279359D01*
G75*
G02*
X230535000Y89209359I0J-70000D01*
G01*
X230535000Y88429359D01*
G75*
G02*
X230465000Y88359359I-70000J0D01*
G01*
X229905000Y88359359D01*
G75*
G02*
X229835000Y88429359I0J70000D01*
G01*
G37*
G36*
G01*
X231435000Y88429359D02*
X231435000Y89209359D01*
G75*
G02*
X231505000Y89279359I70000J0D01*
G01*
X232065000Y89279359D01*
G75*
G02*
X232135000Y89209359I0J-70000D01*
G01*
X232135000Y88429359D01*
G75*
G02*
X232065000Y88359359I-70000J0D01*
G01*
X231505000Y88359359D01*
G75*
G02*
X231435000Y88429359I0J70000D01*
G01*
G37*
G04 #@! TD*
G04 #@! TO.C,C26*
G36*
G01*
X167045000Y-3544956D02*
X167045000Y-2864956D01*
G75*
G02*
X167130000Y-2779956I85000J0D01*
G01*
X167810000Y-2779956D01*
G75*
G02*
X167895000Y-2864956I0J-85000D01*
G01*
X167895000Y-3544956D01*
G75*
G02*
X167810000Y-3629956I-85000J0D01*
G01*
X167130000Y-3629956D01*
G75*
G02*
X167045000Y-3544956I0J85000D01*
G01*
G37*
G36*
G01*
X168625002Y-3544956D02*
X168625002Y-2864956D01*
G75*
G02*
X168710002Y-2779956I85000J0D01*
G01*
X169390002Y-2779956D01*
G75*
G02*
X169475002Y-2864956I0J-85000D01*
G01*
X169475002Y-3544956D01*
G75*
G02*
X169390002Y-3629956I-85000J0D01*
G01*
X168710002Y-3629956D01*
G75*
G02*
X168625002Y-3544956I0J85000D01*
G01*
G37*
G04 #@! TD*
D20*
G04 #@! TO.C,M1*
X190774996Y41974998D03*
X190774996Y35575001D03*
X190774996Y33674998D03*
X190774996Y29374998D03*
D25*
X191224995Y26975001D03*
X191224995Y25975000D03*
D20*
X190774996Y23124998D03*
X175274999Y42425000D03*
X175274999Y40575001D03*
X175274999Y35624998D03*
X175274999Y23575000D03*
G04 #@! TD*
G04 #@! TO.C,R28*
G36*
G01*
X217255000Y24405000D02*
X217255000Y27255000D01*
G75*
G02*
X217505000Y27505000I250000J0D01*
G01*
X218230000Y27505000D01*
G75*
G02*
X218480000Y27255000I0J-250000D01*
G01*
X218480000Y24405000D01*
G75*
G02*
X218230000Y24155000I-250000J0D01*
G01*
X217505000Y24155000D01*
G75*
G02*
X217255000Y24405000I0J250000D01*
G01*
G37*
G36*
G01*
X223180000Y24405000D02*
X223180000Y27255000D01*
G75*
G02*
X223430000Y27505000I250000J0D01*
G01*
X224155000Y27505000D01*
G75*
G02*
X224405000Y27255000I0J-250000D01*
G01*
X224405000Y24405000D01*
G75*
G02*
X224155000Y24155000I-250000J0D01*
G01*
X223430000Y24155000D01*
G75*
G02*
X223180000Y24405000I0J250000D01*
G01*
G37*
G04 #@! TD*
D18*
G04 #@! TO.C,G4*
X190601000Y57167000D03*
X193141000Y57167000D03*
X195681000Y57167000D03*
X198221000Y57167000D03*
X200761000Y57167000D03*
X190601000Y54627000D03*
X193141000Y54627000D03*
X195681000Y54627000D03*
X198221000Y54627000D03*
X200761000Y54627000D03*
X190601000Y52087000D03*
X193141000Y52087000D03*
X195681000Y52087000D03*
X198221000Y52087000D03*
X200761000Y52087000D03*
G04 #@! TD*
G04 #@! TO.C,C7*
G36*
G01*
X143895000Y-3855000D02*
X143895000Y-2805000D01*
G75*
G02*
X143995000Y-2705000I100000J0D01*
G01*
X144795000Y-2705000D01*
G75*
G02*
X144895000Y-2805000I0J-100000D01*
G01*
X144895000Y-3855000D01*
G75*
G02*
X144795000Y-3955000I-100000J0D01*
G01*
X143995000Y-3955000D01*
G75*
G02*
X143895000Y-3855000I0J100000D01*
G01*
G37*
G36*
G01*
X145895000Y-3855000D02*
X145895000Y-2805000D01*
G75*
G02*
X145995000Y-2705000I100000J0D01*
G01*
X146795000Y-2705000D01*
G75*
G02*
X146895000Y-2805000I0J-100000D01*
G01*
X146895000Y-3855000D01*
G75*
G02*
X146795000Y-3955000I-100000J0D01*
G01*
X145995000Y-3955000D01*
G75*
G02*
X145895000Y-3855000I0J100000D01*
G01*
G37*
G04 #@! TD*
G04 #@! TO.C,C29*
G36*
G01*
X205010000Y-700000D02*
X205010000Y-360000D01*
G75*
G02*
X205150000Y-220000I140000J0D01*
G01*
X205430000Y-220000D01*
G75*
G02*
X205570000Y-360000I0J-140000D01*
G01*
X205570000Y-700000D01*
G75*
G02*
X205430000Y-840000I-140000J0D01*
G01*
X205150000Y-840000D01*
G75*
G02*
X205010000Y-700000I0J140000D01*
G01*
G37*
G36*
G01*
X205970000Y-700000D02*
X205970000Y-360000D01*
G75*
G02*
X206110000Y-220000I140000J0D01*
G01*
X206390000Y-220000D01*
G75*
G02*
X206530000Y-360000I0J-140000D01*
G01*
X206530000Y-700000D01*
G75*
G02*
X206390000Y-840000I-140000J0D01*
G01*
X206110000Y-840000D01*
G75*
G02*
X205970000Y-700000I0J140000D01*
G01*
G37*
G04 #@! TD*
D33*
G04 #@! TO.C,J8*
X195350000Y22600000D03*
D34*
X196150000Y24350000D03*
X196950000Y22600000D03*
X197750000Y24350000D03*
X198550000Y22600000D03*
D35*
X193300000Y23475000D03*
X200600000Y23475000D03*
G04 #@! TD*
G04 #@! TO.C,R21*
G36*
G01*
X217255000Y43965000D02*
X217255000Y46815000D01*
G75*
G02*
X217505000Y47065000I250000J0D01*
G01*
X218230000Y47065000D01*
G75*
G02*
X218480000Y46815000I0J-250000D01*
G01*
X218480000Y43965000D01*
G75*
G02*
X218230000Y43715000I-250000J0D01*
G01*
X217505000Y43715000D01*
G75*
G02*
X217255000Y43965000I0J250000D01*
G01*
G37*
G36*
G01*
X223180000Y43965000D02*
X223180000Y46815000D01*
G75*
G02*
X223430000Y47065000I250000J0D01*
G01*
X224155000Y47065000D01*
G75*
G02*
X224405000Y46815000I0J-250000D01*
G01*
X224405000Y43965000D01*
G75*
G02*
X224155000Y43715000I-250000J0D01*
G01*
X223430000Y43715000D01*
G75*
G02*
X223180000Y43965000I0J250000D01*
G01*
G37*
G04 #@! TD*
M02*
