M48
; DRILL file {KiCad 7.0.10-7.0.10~ubuntu22.04.1} date Fri Jan 12 03:55:47 2024
; FORMAT={2:4/ absolute / inch / suppress leading zeros}
; #@! TF.CreationDate,2024-01-12T03:55:47+00:00
; #@! TF.GenerationSoftware,Kicad,Pcbnew,7.0.10-7.0.10~ubuntu22.04.1
; #@! TF.FileFunction,MixedPlating,1,4
FMAT,2
INCH,TZ
; #@! TA.AperFunction,Plated,PTH,ComponentDrill
T1C0.0118
; #@! TA.AperFunction,Plated,PTH,ComponentDrill
T2C0.0118
; #@! TA.AperFunction,Plated,PTH,ViaDrill
T3C0.0157
; #@! TA.AperFunction,Plated,PTH,ComponentDrill
T4C0.0197
; #@! TA.AperFunction,Plated,PTH,ComponentDrill
T5C0.0236
; #@! TA.AperFunction,Plated,PTH,ComponentDrill
T6C0.0276
; #@! TA.AperFunction,Plated,PTH,ComponentDrill
T7C0.0320
; #@! TA.AperFunction,Plated,PTH,ComponentDrill
T8C0.0335
; #@! TA.AperFunction,Plated,PTH,ComponentDrill
T9C0.0394
; #@! TA.AperFunction,Plated,PTH,ComponentDrill
T10C0.0709
; #@! TA.AperFunction,Plated,PTH,ComponentDrill
T11C0.1200
; #@! TA.AperFunction,Plated,PTH,ComponentDrill
T12C0.1260
; #@! TA.AperFunction,NonPlated,NPTH,ComponentDrill
T13C0.0256
; #@! TA.AperFunction,NonPlated,NPTH,ComponentDrill
T14C0.0591
; #@! TA.AperFunction,NonPlated,NPTH,ComponentDrill
T15C0.1181
%
G90
G05
T1
X12598Y18494
X12805Y18839
X13100Y18376
X14498Y18406
T2
X13018Y30354
X13411Y30354
X14537Y24675
X15010Y24675
X15482Y24675
X15955Y24675
X16270Y2293
X16270Y1900
X17368Y30354
X17762Y30354
X18031Y14606
X18031Y14291
X18031Y13976
X18031Y13661
X18031Y13346
X18031Y13031
X18031Y12717
X18031Y12402
X18031Y12087
X18031Y11772
X18031Y11457
X18031Y11142
X18031Y10827
X18031Y10512
X18031Y9882
X18031Y9331
X18031Y9016
X18031Y8701
X18031Y8386
X18031Y8071
X18031Y7756
X18032Y16299
X18032Y10197
X18189Y4921
X18504Y4921
X18819Y4921
X18888Y24675
X19134Y4921
X19360Y24675
X19449Y4921
X19764Y4921
X19833Y24675
X20079Y4921
X20305Y24675
X20394Y4921
X20630Y18858
X20709Y4921
X21024Y4921
X21102Y18858
X21339Y4921
X21575Y18858
X21654Y4921
X22047Y18858
X22520Y18858
X22598Y4921
X22913Y4921
X22992Y18858
X23228Y4921
X23465Y18858
X23543Y4921
X23858Y4921
X23937Y18858
X24173Y4921
X24409Y18858
X24488Y4921
X24803Y4921
X24882Y18858
X25118Y4921
X25354Y18858
X25827Y18858
X26299Y18858
X26772Y18858
X26811Y4921
X27244Y18858
X27717Y18858
X27874Y4921
X28189Y18858
X28268Y4921
X28661Y18858
X29134Y18858
X29606Y18858
X30079Y18858
X30581Y28789
X30955Y28789
X30974Y32215
X31024Y18858
X31181Y17874
X31181Y17480
X31181Y13268
X31181Y12874
X31181Y12480
X31181Y12087
X31181Y11693
X31181Y11299
X31181Y10906
X31181Y10512
X31181Y9488
X31181Y9173
X31181Y7323
X31181Y6772
X31181Y4921
X31329Y32215
X31329Y28789
X34301Y15811
X34695Y15811
X35089Y15811
X35986Y15811
X36386Y15811
X37313Y26280
X37707Y26280
X38100Y26280
X38494Y26280
T3
X236Y29843
X315Y21654
X354Y25236
X394Y3268
X433Y32126
X472Y26575
X472Y23071
X472Y19488
X551Y16535
X630Y36142
X703Y13204
X984Y7874
X1063Y6693
X1065Y7469
X1102Y19528
X1102Y5512
X1220Y34646
X1960Y3102
X1969Y8583
X2047Y4961
X2205Y34646
X2275Y17084
X2283Y27323
X2283Y8307
X2313Y6677
X2480Y276
X2520Y3858
X2618Y30689
X2638Y14331
X2756Y16142
X2756Y4961
X2835Y8268
X2835Y5866
X2874Y32756
X2913Y472
X2992Y4331
X3130Y33169
X3189Y32480
X3268Y827
X3386Y16063
X3425Y16535
X3504Y3819
X3543Y2992
X3543Y2047
X3583Y8268
X3583Y5866
X3819Y4646
X4291Y4646
X4331Y5866
X4370Y8307
X4370Y5039
X4409Y1299
X4546Y10920
X4606Y30197
X4734Y16145
X4762Y16575
X4764Y25236
X4764Y10354
X4843Y4646
X4921Y2953
X5039Y11260
X5197Y8307
X5354Y2165
X5354Y1299
X5373Y37339
X5433Y15866
X5433Y4567
X5472Y5394
X5709Y38661
X5709Y9410
X5906Y8307
X6142Y4606
X6142Y2165
X6142Y1299
X6161Y6358
X6575Y9606
X6614Y28780
X6732Y17165
X6890Y1299
X6929Y2165
X7008Y31890
X7047Y34685
X7047Y26850
X7087Y29764
X7126Y6693
X7382Y22618
X7440Y19656
X7441Y25394
X7480Y4685
X7795Y19055
X7795Y17126
X7795Y16457
X7815Y22185
X7835Y25000
X7839Y10831
X7953Y1693
X8189Y27047
X8268Y30000
X8346Y29016
X8390Y387
X8622Y4173
X8645Y10819
X8701Y13543
X8701Y2598
X8740Y2188
X8819Y3031
X8976Y5079
X9016Y32165
X9055Y236
X9213Y14055
X9409Y1339
X9449Y591
X9567Y6693
X9646Y28465
X9646Y26654
X9685Y29606
X9722Y9064
X9764Y31378
X9921Y38740
X10197Y11772
X10217Y20000
X10236Y25531
X10236Y22756
X10236Y17756
X10236Y17205
X10276Y23701
X10295Y20942
X10295Y18185
X10295Y15392
X10295Y12673
X10315Y14488
X10433Y26161
X10709Y17744
X10866Y23228
X10866Y14921
X10906Y20433
X10906Y12165
X10945Y11102
X10963Y13643
X10967Y24624
X10967Y19112
X10967Y16356
X10987Y21887
X11142Y10748
X11147Y17736
X11457Y20000
X11496Y14449
X11535Y22756
X11575Y25531
X11575Y9724
X11614Y11594
X11791Y12116
X11831Y20561
X11890Y26339
X11969Y29016
X11969Y10000
X12126Y12677
X12126Y11358
X12165Y13346
X12205Y10709
X12362Y16772
X12441Y14291
X12520Y30984
X12520Y12874
X12913Y21772
X13031Y24291
X13189Y34921
X13271Y16751
X13307Y11850
X13358Y11026
X13583Y14213
X13858Y11811
X14016Y21772
X14213Y10669
X14331Y30866
X14414Y14259
X14683Y10669
X14764Y12520
X14803Y23661
X14882Y31496
X15039Y18858
X15039Y16929
X15157Y13504
X15204Y9866
X15236Y12717
X15512Y30827
X15591Y9528
X15630Y13307
X15709Y18898
X15913Y19228
X15945Y21220
X15984Y31929
X16365Y9035
X16378Y29528
X16378Y27205
X16417Y12402
X16417Y24724
X16417Y15827
X16417Y13976
X16417Y9449
X16521Y34887
X16535Y17441
X16535Y6811
X16575Y1457
X16589Y2683
X16614Y3780
X16634Y4173
X16811Y30866
X17126Y23150
X17203Y38618
X17224Y3720
X17303Y7598
X17461Y5169
X17539Y4296
X17539Y3922
X17638Y15118
X17638Y236
X17677Y17717
X17717Y6181
X17740Y9669
X17972Y3821
X18064Y23156
X18307Y2126
X18622Y30866
X18701Y1339
X18750Y4171
X19016Y20276
X19016Y276
X19252Y2441
X19449Y32126
X20039Y20315
X20039Y35276
X20068Y22207
X20157Y30827
X20157Y4567
X20157Y591
X20431Y2593
X20630Y32126
X20630Y29252
X20709Y1339
X20748Y25512
X20866Y394
X21535Y38661
X21614Y28150
X21637Y26690
X21850Y31575
X21890Y2402
X21929Y4646
X21969Y276
X22061Y27907
X22279Y3465
X22480Y35433
X22992Y32126
X23031Y21378
X23110Y28898
X23661Y3150
X23819Y29248
X23937Y21220
X24213Y31457
X24213Y24606
X24406Y3799
X24567Y28622
X24567Y22992
X24803Y25945
X25000Y27717
X25039Y4449
X25276Y32087
X25827Y4606
X26181Y34921
X26417Y29803
X26686Y27638
X26693Y25984
X26811Y354
X27165Y38740
X27205Y25315
X27323Y4567
X27756Y34606
X27905Y4221
X27913Y24055
X28661Y27520
X28858Y31969
X29449Y25866
X29961Y22598
X30118Y2402
X30354Y4567
X30516Y20079
X30551Y27205
X30551Y19154
X30551Y24055
X30709Y21614
X30748Y34606
X31024Y394
X31102Y23819
X31299Y25315
X31457Y18425
X31457Y17008
X31496Y13819
X31496Y10000
X31535Y8740
X31535Y7795
X31535Y3346
X31575Y7047
X31575Y6339
X31614Y20512
X31758Y30360
X32755Y32519
X32835Y8583
X32913Y354
X32953Y34606
X33031Y25866
X33110Y15486
X33155Y17562
X33189Y10748
X33307Y26299
X33307Y12835
X33346Y32500
X33346Y17008
X33396Y18150
X33425Y38858
X33425Y21654
X33701Y26693
X33819Y32441
X33898Y433
X34526Y34550
X34606Y26732
X34862Y15453
X35079Y11575
X35157Y26732
X35433Y8189
X35551Y13228
X35669Y26732
X36417Y394
X37047Y26811
X37047Y13189
X37835Y9488
X38071Y15354
X38150Y14094
X38248Y6417
X38386Y12638
X38504Y5827
X38661Y29409
X38858Y34094
X38937Y36024
X38976Y13386
X39134Y26772
X39134Y15433
T4
X433Y37992
X433Y1378
X710Y38660
X710Y37324
X710Y2046
X710Y710
X1378Y38937
X1378Y37047
X1378Y2323
X1378Y433
X2046Y38660
X2046Y37324
X2046Y2046
X2046Y710
X2323Y37992
X2323Y1378
X37047Y37992
X37047Y1378
X37324Y38660
X37324Y37324
X37324Y2046
X37324Y710
X37992Y38937
X37992Y37047
X37992Y2323
X37992Y433
X38660Y38660
X38660Y37324
X38660Y2046
X38660Y710
X38937Y37992
X38937Y1378
T6
X22638Y2165
X22638Y1535
X23327Y2480
X23327Y1850
X23327Y1220
T7
X7244Y7657
X7244Y5728
X7303Y8898
X8110Y7657
X8110Y5728
X8976Y7657
X8976Y5728
X9232Y8898
X17116Y2549
X17116Y1049
X23426Y27697
X23426Y26697
X23426Y25697
X23426Y24697
X23426Y23697
X23426Y22697
T8
X32677Y5118
X32677Y4134
X32677Y3150
X32677Y2165
X32677Y1181
T9
X9990Y8376
X9990Y7648
X9990Y5699
X9990Y955
X12598Y22638
X13740Y22638
X15551Y23669
X15551Y22669
X15551Y21669
X15551Y20669
X15551Y19669
X16093Y8199
X16093Y5679
X16093Y4931
X16093Y3238
X16093Y778
X16551Y23669
X16551Y22669
X16551Y21669
X16551Y20669
X16551Y19669
X17551Y23669
X17551Y22669
X17551Y21669
X17551Y20669
X17551Y19669
X18551Y23669
X18551Y22669
X18551Y21669
X18551Y20669
X18551Y19669
X19551Y23669
X19551Y22669
X19551Y21669
X19551Y20669
X19551Y19669
X20551Y23669
X20551Y22669
X20551Y21669
X20551Y20669
X20551Y19669
X24606Y2953
X24606Y984
X32756Y9449
X32756Y7598
X33642Y14921
X34642Y14921
X35642Y14921
X36642Y14921
X37642Y14921
X38642Y14921
T10
X3652Y31024
X3652Y29370
X3652Y27717
X3652Y26063
X3652Y24409
X3652Y22756
X3652Y21102
X3652Y19449
X3652Y17795
X3652Y15118
X3652Y13465
X3652Y11811
X3652Y10157
X4173Y35719
X4173Y33553
X5817Y31024
X5817Y29370
X5817Y27717
X5817Y26063
X5817Y24409
X5817Y22756
X5817Y21102
X5817Y19449
X5817Y17795
X5817Y15118
X5817Y13465
X5817Y11811
X5817Y10157
X5827Y35719
X5827Y33553
X7480Y35719
X7480Y33553
X9134Y35719
X9134Y33553
X10787Y35719
X10787Y33553
X12441Y35719
X12441Y33553
X14094Y35719
X14094Y33553
X15748Y35719
X15748Y33553
X17402Y35719
X17402Y33553
X19055Y35719
X19055Y33553
X23740Y35719
X23740Y33553
X25394Y35719
X25394Y33553
X27047Y35719
X27047Y33553
X28701Y35719
X28701Y33553
X30354Y35719
X30354Y33553
X32008Y35719
X32008Y33553
X33553Y31181
X33553Y29528
X33553Y27874
X33661Y35719
X33661Y33553
X35315Y35719
X35315Y33553
X35719Y31181
X35719Y29528
X35719Y27874
T11
X28426Y29697
X28426Y20697
T12
X1378Y37992
X1378Y1378
X37992Y37992
X37992Y1378
T13
X18547Y2600
X20823Y2600
T14
X36220Y11457
X36220Y8504
T15
X778Y31024
X778Y17795
X778Y15118
X778Y10157
X4173Y38593
X19055Y38593
X23740Y38593
X35315Y38593
X38593Y31181
X38593Y27874
T5
X17984Y3014G85X17984Y2581
G05
X17984Y1270G85X17984Y1033
G05
X21386Y3014G85X21386Y2581
G05
X21386Y1270G85X21386Y1033
G05
T6
X22726Y3287G85X23238Y3287
G05
X22726Y413G85X23238Y413
G05
M30
