G04 #@! TF.GenerationSoftware,KiCad,Pcbnew,7.0.9-7.0.9~ubuntu22.04.1*
G04 #@! TF.CreationDate,2023-11-30T16:43:42+00:00*
G04 #@! TF.ProjectId,uaefi,75616566-692e-46b6-9963-61645f706362,rev?*
G04 #@! TF.SameCoordinates,Original*
G04 #@! TF.FileFunction,Legend,Bot*
G04 #@! TF.FilePolarity,Positive*
%FSLAX46Y46*%
G04 Gerber Fmt 4.6, Leading zero omitted, Abs format (unit mm)*
G04 Created by KiCad (PCBNEW 7.0.9-7.0.9~ubuntu22.04.1) date 2023-11-30 16:43:42*
%MOMM*%
%LPD*%
G01*
G04 APERTURE LIST*
%ADD10C,0.150000*%
%ADD11C,0.127000*%
%ADD12C,0.170000*%
%ADD13C,0.200000*%
%ADD14C,0.120000*%
%ADD15C,0.150012*%
%ADD16C,0.203200*%
G04 APERTURE END LIST*
D10*
X34738094Y59295181D02*
X34738094Y60295181D01*
X34738094Y60295181D02*
X34357142Y60295181D01*
X34357142Y60295181D02*
X34261904Y60247562D01*
X34261904Y60247562D02*
X34214285Y60199943D01*
X34214285Y60199943D02*
X34166666Y60104705D01*
X34166666Y60104705D02*
X34166666Y59961848D01*
X34166666Y59961848D02*
X34214285Y59866610D01*
X34214285Y59866610D02*
X34261904Y59818991D01*
X34261904Y59818991D02*
X34357142Y59771372D01*
X34357142Y59771372D02*
X34738094Y59771372D01*
X33214285Y59295181D02*
X33785713Y59295181D01*
X33499999Y59295181D02*
X33499999Y60295181D01*
X33499999Y60295181D02*
X33595237Y60152324D01*
X33595237Y60152324D02*
X33690475Y60057086D01*
X33690475Y60057086D02*
X33785713Y60009467D01*
X31738094Y59295181D02*
X31738094Y60295181D01*
X31738094Y60295181D02*
X31357142Y60295181D01*
X31357142Y60295181D02*
X31261904Y60247562D01*
X31261904Y60247562D02*
X31214285Y60199943D01*
X31214285Y60199943D02*
X31166666Y60104705D01*
X31166666Y60104705D02*
X31166666Y59961848D01*
X31166666Y59961848D02*
X31214285Y59866610D01*
X31214285Y59866610D02*
X31261904Y59818991D01*
X31261904Y59818991D02*
X31357142Y59771372D01*
X31357142Y59771372D02*
X31738094Y59771372D01*
X30785713Y60199943D02*
X30738094Y60247562D01*
X30738094Y60247562D02*
X30642856Y60295181D01*
X30642856Y60295181D02*
X30404761Y60295181D01*
X30404761Y60295181D02*
X30309523Y60247562D01*
X30309523Y60247562D02*
X30261904Y60199943D01*
X30261904Y60199943D02*
X30214285Y60104705D01*
X30214285Y60104705D02*
X30214285Y60009467D01*
X30214285Y60009467D02*
X30261904Y59866610D01*
X30261904Y59866610D02*
X30833332Y59295181D01*
X30833332Y59295181D02*
X30214285Y59295181D01*
D11*
X20133999Y21053232D02*
X20387999Y21053232D01*
X20387999Y20654089D02*
X20387999Y21416089D01*
X20387999Y21416089D02*
X20025142Y21416089D01*
X19408285Y21162089D02*
X19408285Y20654089D01*
X19589713Y21452374D02*
X19771142Y20908089D01*
X19771142Y20908089D02*
X19299427Y20908089D01*
D10*
X63238094Y9295181D02*
X63238094Y10295181D01*
X63238094Y10295181D02*
X62857142Y10295181D01*
X62857142Y10295181D02*
X62761904Y10247562D01*
X62761904Y10247562D02*
X62714285Y10199943D01*
X62714285Y10199943D02*
X62666666Y10104705D01*
X62666666Y10104705D02*
X62666666Y9961848D01*
X62666666Y9961848D02*
X62714285Y9866610D01*
X62714285Y9866610D02*
X62761904Y9818991D01*
X62761904Y9818991D02*
X62857142Y9771372D01*
X62857142Y9771372D02*
X63238094Y9771372D01*
X61809523Y9961848D02*
X61809523Y9295181D01*
X62047618Y10342800D02*
X62285713Y9628515D01*
X62285713Y9628515D02*
X61666666Y9628515D01*
X44238094Y33295181D02*
X44238094Y34295181D01*
X44238094Y34295181D02*
X43857142Y34295181D01*
X43857142Y34295181D02*
X43761904Y34247562D01*
X43761904Y34247562D02*
X43714285Y34199943D01*
X43714285Y34199943D02*
X43666666Y34104705D01*
X43666666Y34104705D02*
X43666666Y33961848D01*
X43666666Y33961848D02*
X43714285Y33866610D01*
X43714285Y33866610D02*
X43761904Y33818991D01*
X43761904Y33818991D02*
X43857142Y33771372D01*
X43857142Y33771372D02*
X44238094Y33771372D01*
X42761904Y34295181D02*
X43238094Y34295181D01*
X43238094Y34295181D02*
X43285713Y33818991D01*
X43285713Y33818991D02*
X43238094Y33866610D01*
X43238094Y33866610D02*
X43142856Y33914229D01*
X43142856Y33914229D02*
X42904761Y33914229D01*
X42904761Y33914229D02*
X42809523Y33866610D01*
X42809523Y33866610D02*
X42761904Y33818991D01*
X42761904Y33818991D02*
X42714285Y33723753D01*
X42714285Y33723753D02*
X42714285Y33485658D01*
X42714285Y33485658D02*
X42761904Y33390420D01*
X42761904Y33390420D02*
X42809523Y33342800D01*
X42809523Y33342800D02*
X42904761Y33295181D01*
X42904761Y33295181D02*
X43142856Y33295181D01*
X43142856Y33295181D02*
X43238094Y33342800D01*
X43238094Y33342800D02*
X43285713Y33390420D01*
D11*
X22753999Y21053232D02*
X23007999Y21053232D01*
X23007999Y20654089D02*
X23007999Y21416089D01*
X23007999Y21416089D02*
X22645142Y21416089D01*
X22427427Y21416089D02*
X21955713Y21416089D01*
X21955713Y21416089D02*
X22209713Y21125803D01*
X22209713Y21125803D02*
X22100856Y21125803D01*
X22100856Y21125803D02*
X22028285Y21089517D01*
X22028285Y21089517D02*
X21991999Y21053232D01*
X21991999Y21053232D02*
X21955713Y20980660D01*
X21955713Y20980660D02*
X21955713Y20799232D01*
X21955713Y20799232D02*
X21991999Y20726660D01*
X21991999Y20726660D02*
X22028285Y20690374D01*
X22028285Y20690374D02*
X22100856Y20654089D01*
X22100856Y20654089D02*
X22318570Y20654089D01*
X22318570Y20654089D02*
X22391142Y20690374D01*
X22391142Y20690374D02*
X22427427Y20726660D01*
X81753999Y81553232D02*
X82007999Y81553232D01*
X82007999Y81154089D02*
X82007999Y81916089D01*
X82007999Y81916089D02*
X81645142Y81916089D01*
X80955713Y81154089D02*
X81391142Y81154089D01*
X81173427Y81154089D02*
X81173427Y81916089D01*
X81173427Y81916089D02*
X81245999Y81807232D01*
X81245999Y81807232D02*
X81318570Y81734660D01*
X81318570Y81734660D02*
X81391142Y81698374D01*
D10*
X63238094Y4295181D02*
X63238094Y5295181D01*
X63238094Y5295181D02*
X62857142Y5295181D01*
X62857142Y5295181D02*
X62761904Y5247562D01*
X62761904Y5247562D02*
X62714285Y5199943D01*
X62714285Y5199943D02*
X62666666Y5104705D01*
X62666666Y5104705D02*
X62666666Y4961848D01*
X62666666Y4961848D02*
X62714285Y4866610D01*
X62714285Y4866610D02*
X62761904Y4818991D01*
X62761904Y4818991D02*
X62857142Y4771372D01*
X62857142Y4771372D02*
X63238094Y4771372D01*
X62333332Y5295181D02*
X61714285Y5295181D01*
X61714285Y5295181D02*
X62047618Y4914229D01*
X62047618Y4914229D02*
X61904761Y4914229D01*
X61904761Y4914229D02*
X61809523Y4866610D01*
X61809523Y4866610D02*
X61761904Y4818991D01*
X61761904Y4818991D02*
X61714285Y4723753D01*
X61714285Y4723753D02*
X61714285Y4485658D01*
X61714285Y4485658D02*
X61761904Y4390420D01*
X61761904Y4390420D02*
X61809523Y4342800D01*
X61809523Y4342800D02*
X61904761Y4295181D01*
X61904761Y4295181D02*
X62190475Y4295181D01*
X62190475Y4295181D02*
X62285713Y4342800D01*
X62285713Y4342800D02*
X62333332Y4390420D01*
D11*
X16946768Y23032024D02*
X16946768Y23286024D01*
X17345911Y23286024D02*
X16583911Y23286024D01*
X16583911Y23286024D02*
X16583911Y22923167D01*
X16656483Y22669167D02*
X16620197Y22632881D01*
X16620197Y22632881D02*
X16583911Y22560309D01*
X16583911Y22560309D02*
X16583911Y22378881D01*
X16583911Y22378881D02*
X16620197Y22306309D01*
X16620197Y22306309D02*
X16656483Y22270024D01*
X16656483Y22270024D02*
X16729054Y22233738D01*
X16729054Y22233738D02*
X16801626Y22233738D01*
X16801626Y22233738D02*
X16910483Y22270024D01*
X16910483Y22270024D02*
X17345911Y22705452D01*
X17345911Y22705452D02*
X17345911Y22233738D01*
D10*
X44238094Y6295181D02*
X44238094Y7295181D01*
X44238094Y7295181D02*
X43857142Y7295181D01*
X43857142Y7295181D02*
X43761904Y7247562D01*
X43761904Y7247562D02*
X43714285Y7199943D01*
X43714285Y7199943D02*
X43666666Y7104705D01*
X43666666Y7104705D02*
X43666666Y6961848D01*
X43666666Y6961848D02*
X43714285Y6866610D01*
X43714285Y6866610D02*
X43761904Y6818991D01*
X43761904Y6818991D02*
X43857142Y6771372D01*
X43857142Y6771372D02*
X44238094Y6771372D01*
X42809523Y7295181D02*
X42999999Y7295181D01*
X42999999Y7295181D02*
X43095237Y7247562D01*
X43095237Y7247562D02*
X43142856Y7199943D01*
X43142856Y7199943D02*
X43238094Y7057086D01*
X43238094Y7057086D02*
X43285713Y6866610D01*
X43285713Y6866610D02*
X43285713Y6485658D01*
X43285713Y6485658D02*
X43238094Y6390420D01*
X43238094Y6390420D02*
X43190475Y6342800D01*
X43190475Y6342800D02*
X43095237Y6295181D01*
X43095237Y6295181D02*
X42904761Y6295181D01*
X42904761Y6295181D02*
X42809523Y6342800D01*
X42809523Y6342800D02*
X42761904Y6390420D01*
X42761904Y6390420D02*
X42714285Y6485658D01*
X42714285Y6485658D02*
X42714285Y6723753D01*
X42714285Y6723753D02*
X42761904Y6818991D01*
X42761904Y6818991D02*
X42809523Y6866610D01*
X42809523Y6866610D02*
X42904761Y6914229D01*
X42904761Y6914229D02*
X43095237Y6914229D01*
X43095237Y6914229D02*
X43190475Y6866610D01*
X43190475Y6866610D02*
X43238094Y6818991D01*
X43238094Y6818991D02*
X43285713Y6723753D01*
X55554819Y72300595D02*
X54554819Y72300595D01*
X54554819Y72300595D02*
X54554819Y72062500D01*
X54554819Y72062500D02*
X54602438Y71919643D01*
X54602438Y71919643D02*
X54697676Y71824405D01*
X54697676Y71824405D02*
X54792914Y71776786D01*
X54792914Y71776786D02*
X54983390Y71729167D01*
X54983390Y71729167D02*
X55126247Y71729167D01*
X55126247Y71729167D02*
X55316723Y71776786D01*
X55316723Y71776786D02*
X55411961Y71824405D01*
X55411961Y71824405D02*
X55507200Y71919643D01*
X55507200Y71919643D02*
X55554819Y72062500D01*
X55554819Y72062500D02*
X55554819Y72300595D01*
X54983390Y71157738D02*
X54935771Y71252976D01*
X54935771Y71252976D02*
X54888152Y71300595D01*
X54888152Y71300595D02*
X54792914Y71348214D01*
X54792914Y71348214D02*
X54745295Y71348214D01*
X54745295Y71348214D02*
X54650057Y71300595D01*
X54650057Y71300595D02*
X54602438Y71252976D01*
X54602438Y71252976D02*
X54554819Y71157738D01*
X54554819Y71157738D02*
X54554819Y70967262D01*
X54554819Y70967262D02*
X54602438Y70872024D01*
X54602438Y70872024D02*
X54650057Y70824405D01*
X54650057Y70824405D02*
X54745295Y70776786D01*
X54745295Y70776786D02*
X54792914Y70776786D01*
X54792914Y70776786D02*
X54888152Y70824405D01*
X54888152Y70824405D02*
X54935771Y70872024D01*
X54935771Y70872024D02*
X54983390Y70967262D01*
X54983390Y70967262D02*
X54983390Y71157738D01*
X54983390Y71157738D02*
X55031009Y71252976D01*
X55031009Y71252976D02*
X55078628Y71300595D01*
X55078628Y71300595D02*
X55173866Y71348214D01*
X55173866Y71348214D02*
X55364342Y71348214D01*
X55364342Y71348214D02*
X55459580Y71300595D01*
X55459580Y71300595D02*
X55507200Y71252976D01*
X55507200Y71252976D02*
X55554819Y71157738D01*
X55554819Y71157738D02*
X55554819Y70967262D01*
X55554819Y70967262D02*
X55507200Y70872024D01*
X55507200Y70872024D02*
X55459580Y70824405D01*
X55459580Y70824405D02*
X55364342Y70776786D01*
X55364342Y70776786D02*
X55173866Y70776786D01*
X55173866Y70776786D02*
X55078628Y70824405D01*
X55078628Y70824405D02*
X55031009Y70872024D01*
X55031009Y70872024D02*
X54983390Y70967262D01*
D12*
X21370508Y78605238D02*
X20550508Y78605238D01*
X20550508Y78605238D02*
X20550508Y78410000D01*
X20550508Y78410000D02*
X20589556Y78292857D01*
X20589556Y78292857D02*
X20667651Y78214762D01*
X20667651Y78214762D02*
X20745746Y78175715D01*
X20745746Y78175715D02*
X20901937Y78136667D01*
X20901937Y78136667D02*
X21019080Y78136667D01*
X21019080Y78136667D02*
X21175270Y78175715D01*
X21175270Y78175715D02*
X21253365Y78214762D01*
X21253365Y78214762D02*
X21331461Y78292857D01*
X21331461Y78292857D02*
X21370508Y78410000D01*
X21370508Y78410000D02*
X21370508Y78605238D01*
X20823841Y77433810D02*
X21370508Y77433810D01*
X20511461Y77629048D02*
X21097175Y77824286D01*
X21097175Y77824286D02*
X21097175Y77316667D01*
D10*
X97552714Y16989049D02*
X97409857Y16941430D01*
X97409857Y16941430D02*
X97362238Y16893811D01*
X97362238Y16893811D02*
X97314619Y16798573D01*
X97314619Y16798573D02*
X97314619Y16655716D01*
X97314619Y16655716D02*
X97362238Y16560478D01*
X97362238Y16560478D02*
X97409857Y16512858D01*
X97409857Y16512858D02*
X97505095Y16465239D01*
X97505095Y16465239D02*
X97886047Y16465239D01*
X97886047Y16465239D02*
X97886047Y17465239D01*
X97886047Y17465239D02*
X97552714Y17465239D01*
X97552714Y17465239D02*
X97457476Y17417620D01*
X97457476Y17417620D02*
X97409857Y17370001D01*
X97409857Y17370001D02*
X97362238Y17274763D01*
X97362238Y17274763D02*
X97362238Y17179525D01*
X97362238Y17179525D02*
X97409857Y17084287D01*
X97409857Y17084287D02*
X97457476Y17036668D01*
X97457476Y17036668D02*
X97552714Y16989049D01*
X97552714Y16989049D02*
X97886047Y16989049D01*
X97028904Y17465239D02*
X96457476Y17465239D01*
X96743190Y16465239D02*
X96743190Y17465239D01*
X95600333Y16465239D02*
X96171761Y16465239D01*
X95886047Y16465239D02*
X95886047Y17465239D01*
X95886047Y17465239D02*
X95981285Y17322382D01*
X95981285Y17322382D02*
X96076523Y17227144D01*
X96076523Y17227144D02*
X96171761Y17179525D01*
D12*
X5763014Y37540093D02*
X6153490Y37266760D01*
X5763014Y37071522D02*
X6583014Y37071522D01*
X6583014Y37071522D02*
X6583014Y37383903D01*
X6583014Y37383903D02*
X6543966Y37461998D01*
X6543966Y37461998D02*
X6504919Y37501045D01*
X6504919Y37501045D02*
X6426823Y37540093D01*
X6426823Y37540093D02*
X6309681Y37540093D01*
X6309681Y37540093D02*
X6231585Y37501045D01*
X6231585Y37501045D02*
X6192538Y37461998D01*
X6192538Y37461998D02*
X6153490Y37383903D01*
X6153490Y37383903D02*
X6153490Y37071522D01*
X6583014Y37813426D02*
X6583014Y38321045D01*
X6583014Y38321045D02*
X6270633Y38047712D01*
X6270633Y38047712D02*
X6270633Y38164855D01*
X6270633Y38164855D02*
X6231585Y38242950D01*
X6231585Y38242950D02*
X6192538Y38281998D01*
X6192538Y38281998D02*
X6114442Y38321045D01*
X6114442Y38321045D02*
X5919204Y38321045D01*
X5919204Y38321045D02*
X5841109Y38281998D01*
X5841109Y38281998D02*
X5802062Y38242950D01*
X5802062Y38242950D02*
X5763014Y38164855D01*
X5763014Y38164855D02*
X5763014Y37930569D01*
X5763014Y37930569D02*
X5802062Y37852474D01*
X5802062Y37852474D02*
X5841109Y37813426D01*
X5763014Y39101997D02*
X5763014Y38633426D01*
X5763014Y38867712D02*
X6583014Y38867712D01*
X6583014Y38867712D02*
X6465871Y38789616D01*
X6465871Y38789616D02*
X6387776Y38711521D01*
X6387776Y38711521D02*
X6348728Y38633426D01*
X96072582Y33932467D02*
X96111630Y33971515D01*
X96111630Y33971515D02*
X96150677Y34088658D01*
X96150677Y34088658D02*
X96150677Y34166753D01*
X96150677Y34166753D02*
X96111630Y34283896D01*
X96111630Y34283896D02*
X96033534Y34361991D01*
X96033534Y34361991D02*
X95955439Y34401039D01*
X95955439Y34401039D02*
X95799248Y34440087D01*
X95799248Y34440087D02*
X95682105Y34440087D01*
X95682105Y34440087D02*
X95525915Y34401039D01*
X95525915Y34401039D02*
X95447819Y34361991D01*
X95447819Y34361991D02*
X95369724Y34283896D01*
X95369724Y34283896D02*
X95330676Y34166753D01*
X95330676Y34166753D02*
X95330676Y34088658D01*
X95330676Y34088658D02*
X95369724Y33971515D01*
X95369724Y33971515D02*
X95408772Y33932467D01*
X95330676Y33659133D02*
X95330676Y33151514D01*
X95330676Y33151514D02*
X95643058Y33424847D01*
X95643058Y33424847D02*
X95643058Y33307704D01*
X95643058Y33307704D02*
X95682105Y33229609D01*
X95682105Y33229609D02*
X95721153Y33190561D01*
X95721153Y33190561D02*
X95799248Y33151514D01*
X95799248Y33151514D02*
X95994487Y33151514D01*
X95994487Y33151514D02*
X96072582Y33190561D01*
X96072582Y33190561D02*
X96111630Y33229609D01*
X96111630Y33229609D02*
X96150677Y33307704D01*
X96150677Y33307704D02*
X96150677Y33541990D01*
X96150677Y33541990D02*
X96111630Y33620086D01*
X96111630Y33620086D02*
X96072582Y33659133D01*
X95330676Y32878180D02*
X95330676Y32370561D01*
X95330676Y32370561D02*
X95643058Y32643894D01*
X95643058Y32643894D02*
X95643058Y32526751D01*
X95643058Y32526751D02*
X95682105Y32448656D01*
X95682105Y32448656D02*
X95721153Y32409608D01*
X95721153Y32409608D02*
X95799248Y32370561D01*
X95799248Y32370561D02*
X95994487Y32370561D01*
X95994487Y32370561D02*
X96072582Y32409608D01*
X96072582Y32409608D02*
X96111630Y32448656D01*
X96111630Y32448656D02*
X96150677Y32526751D01*
X96150677Y32526751D02*
X96150677Y32761037D01*
X96150677Y32761037D02*
X96111630Y32839133D01*
X96111630Y32839133D02*
X96072582Y32878180D01*
D10*
X60642857Y74202920D02*
X60690476Y74155300D01*
X60690476Y74155300D02*
X60833333Y74107681D01*
X60833333Y74107681D02*
X60928571Y74107681D01*
X60928571Y74107681D02*
X61071428Y74155300D01*
X61071428Y74155300D02*
X61166666Y74250539D01*
X61166666Y74250539D02*
X61214285Y74345777D01*
X61214285Y74345777D02*
X61261904Y74536253D01*
X61261904Y74536253D02*
X61261904Y74679110D01*
X61261904Y74679110D02*
X61214285Y74869586D01*
X61214285Y74869586D02*
X61166666Y74964824D01*
X61166666Y74964824D02*
X61071428Y75060062D01*
X61071428Y75060062D02*
X60928571Y75107681D01*
X60928571Y75107681D02*
X60833333Y75107681D01*
X60833333Y75107681D02*
X60690476Y75060062D01*
X60690476Y75060062D02*
X60642857Y75012443D01*
X60261904Y75012443D02*
X60214285Y75060062D01*
X60214285Y75060062D02*
X60119047Y75107681D01*
X60119047Y75107681D02*
X59880952Y75107681D01*
X59880952Y75107681D02*
X59785714Y75060062D01*
X59785714Y75060062D02*
X59738095Y75012443D01*
X59738095Y75012443D02*
X59690476Y74917205D01*
X59690476Y74917205D02*
X59690476Y74821967D01*
X59690476Y74821967D02*
X59738095Y74679110D01*
X59738095Y74679110D02*
X60309523Y74107681D01*
X60309523Y74107681D02*
X59690476Y74107681D01*
X59214285Y74107681D02*
X59023809Y74107681D01*
X59023809Y74107681D02*
X58928571Y74155300D01*
X58928571Y74155300D02*
X58880952Y74202920D01*
X58880952Y74202920D02*
X58785714Y74345777D01*
X58785714Y74345777D02*
X58738095Y74536253D01*
X58738095Y74536253D02*
X58738095Y74917205D01*
X58738095Y74917205D02*
X58785714Y75012443D01*
X58785714Y75012443D02*
X58833333Y75060062D01*
X58833333Y75060062D02*
X58928571Y75107681D01*
X58928571Y75107681D02*
X59119047Y75107681D01*
X59119047Y75107681D02*
X59214285Y75060062D01*
X59214285Y75060062D02*
X59261904Y75012443D01*
X59261904Y75012443D02*
X59309523Y74917205D01*
X59309523Y74917205D02*
X59309523Y74679110D01*
X59309523Y74679110D02*
X59261904Y74583872D01*
X59261904Y74583872D02*
X59214285Y74536253D01*
X59214285Y74536253D02*
X59119047Y74488634D01*
X59119047Y74488634D02*
X58928571Y74488634D01*
X58928571Y74488634D02*
X58833333Y74536253D01*
X58833333Y74536253D02*
X58785714Y74583872D01*
X58785714Y74583872D02*
X58738095Y74679110D01*
D12*
X8263014Y37540093D02*
X8653490Y37266760D01*
X8263014Y37071522D02*
X9083014Y37071522D01*
X9083014Y37071522D02*
X9083014Y37383903D01*
X9083014Y37383903D02*
X9043966Y37461998D01*
X9043966Y37461998D02*
X9004919Y37501045D01*
X9004919Y37501045D02*
X8926823Y37540093D01*
X8926823Y37540093D02*
X8809681Y37540093D01*
X8809681Y37540093D02*
X8731585Y37501045D01*
X8731585Y37501045D02*
X8692538Y37461998D01*
X8692538Y37461998D02*
X8653490Y37383903D01*
X8653490Y37383903D02*
X8653490Y37071522D01*
X9083014Y37813426D02*
X9083014Y38321045D01*
X9083014Y38321045D02*
X8770633Y38047712D01*
X8770633Y38047712D02*
X8770633Y38164855D01*
X8770633Y38164855D02*
X8731585Y38242950D01*
X8731585Y38242950D02*
X8692538Y38281998D01*
X8692538Y38281998D02*
X8614442Y38321045D01*
X8614442Y38321045D02*
X8419204Y38321045D01*
X8419204Y38321045D02*
X8341109Y38281998D01*
X8341109Y38281998D02*
X8302062Y38242950D01*
X8302062Y38242950D02*
X8263014Y38164855D01*
X8263014Y38164855D02*
X8263014Y37930569D01*
X8263014Y37930569D02*
X8302062Y37852474D01*
X8302062Y37852474D02*
X8341109Y37813426D01*
X8809681Y39023902D02*
X8263014Y39023902D01*
X9122062Y38828664D02*
X8536347Y38633426D01*
X8536347Y38633426D02*
X8536347Y39141045D01*
X37635089Y79161986D02*
X37361756Y78771510D01*
X37166518Y79161986D02*
X37166518Y78341986D01*
X37166518Y78341986D02*
X37478899Y78341986D01*
X37478899Y78341986D02*
X37556994Y78381034D01*
X37556994Y78381034D02*
X37596041Y78420081D01*
X37596041Y78420081D02*
X37635089Y78498177D01*
X37635089Y78498177D02*
X37635089Y78615319D01*
X37635089Y78615319D02*
X37596041Y78693415D01*
X37596041Y78693415D02*
X37556994Y78732462D01*
X37556994Y78732462D02*
X37478899Y78771510D01*
X37478899Y78771510D02*
X37166518Y78771510D01*
X38416041Y79161986D02*
X37947470Y79161986D01*
X38181756Y79161986D02*
X38181756Y78341986D01*
X38181756Y78341986D02*
X38103660Y78459129D01*
X38103660Y78459129D02*
X38025565Y78537224D01*
X38025565Y78537224D02*
X37947470Y78576272D01*
D10*
X22330357Y64640181D02*
X22663690Y65116372D01*
X22901785Y64640181D02*
X22901785Y65640181D01*
X22901785Y65640181D02*
X22520833Y65640181D01*
X22520833Y65640181D02*
X22425595Y65592562D01*
X22425595Y65592562D02*
X22377976Y65544943D01*
X22377976Y65544943D02*
X22330357Y65449705D01*
X22330357Y65449705D02*
X22330357Y65306848D01*
X22330357Y65306848D02*
X22377976Y65211610D01*
X22377976Y65211610D02*
X22425595Y65163991D01*
X22425595Y65163991D02*
X22520833Y65116372D01*
X22520833Y65116372D02*
X22901785Y65116372D01*
X21949404Y65544943D02*
X21901785Y65592562D01*
X21901785Y65592562D02*
X21806547Y65640181D01*
X21806547Y65640181D02*
X21568452Y65640181D01*
X21568452Y65640181D02*
X21473214Y65592562D01*
X21473214Y65592562D02*
X21425595Y65544943D01*
X21425595Y65544943D02*
X21377976Y65449705D01*
X21377976Y65449705D02*
X21377976Y65354467D01*
X21377976Y65354467D02*
X21425595Y65211610D01*
X21425595Y65211610D02*
X21997023Y64640181D01*
X21997023Y64640181D02*
X21377976Y64640181D01*
X20758928Y65640181D02*
X20663690Y65640181D01*
X20663690Y65640181D02*
X20568452Y65592562D01*
X20568452Y65592562D02*
X20520833Y65544943D01*
X20520833Y65544943D02*
X20473214Y65449705D01*
X20473214Y65449705D02*
X20425595Y65259229D01*
X20425595Y65259229D02*
X20425595Y65021134D01*
X20425595Y65021134D02*
X20473214Y64830658D01*
X20473214Y64830658D02*
X20520833Y64735420D01*
X20520833Y64735420D02*
X20568452Y64687800D01*
X20568452Y64687800D02*
X20663690Y64640181D01*
X20663690Y64640181D02*
X20758928Y64640181D01*
X20758928Y64640181D02*
X20854166Y64687800D01*
X20854166Y64687800D02*
X20901785Y64735420D01*
X20901785Y64735420D02*
X20949404Y64830658D01*
X20949404Y64830658D02*
X20997023Y65021134D01*
X20997023Y65021134D02*
X20997023Y65259229D01*
X20997023Y65259229D02*
X20949404Y65449705D01*
X20949404Y65449705D02*
X20901785Y65544943D01*
X20901785Y65544943D02*
X20854166Y65592562D01*
X20854166Y65592562D02*
X20758928Y65640181D01*
X22330357Y43640181D02*
X22663690Y44116372D01*
X22901785Y43640181D02*
X22901785Y44640181D01*
X22901785Y44640181D02*
X22520833Y44640181D01*
X22520833Y44640181D02*
X22425595Y44592562D01*
X22425595Y44592562D02*
X22377976Y44544943D01*
X22377976Y44544943D02*
X22330357Y44449705D01*
X22330357Y44449705D02*
X22330357Y44306848D01*
X22330357Y44306848D02*
X22377976Y44211610D01*
X22377976Y44211610D02*
X22425595Y44163991D01*
X22425595Y44163991D02*
X22520833Y44116372D01*
X22520833Y44116372D02*
X22901785Y44116372D01*
X21949404Y44544943D02*
X21901785Y44592562D01*
X21901785Y44592562D02*
X21806547Y44640181D01*
X21806547Y44640181D02*
X21568452Y44640181D01*
X21568452Y44640181D02*
X21473214Y44592562D01*
X21473214Y44592562D02*
X21425595Y44544943D01*
X21425595Y44544943D02*
X21377976Y44449705D01*
X21377976Y44449705D02*
X21377976Y44354467D01*
X21377976Y44354467D02*
X21425595Y44211610D01*
X21425595Y44211610D02*
X21997023Y43640181D01*
X21997023Y43640181D02*
X21377976Y43640181D01*
X20520833Y44640181D02*
X20711309Y44640181D01*
X20711309Y44640181D02*
X20806547Y44592562D01*
X20806547Y44592562D02*
X20854166Y44544943D01*
X20854166Y44544943D02*
X20949404Y44402086D01*
X20949404Y44402086D02*
X20997023Y44211610D01*
X20997023Y44211610D02*
X20997023Y43830658D01*
X20997023Y43830658D02*
X20949404Y43735420D01*
X20949404Y43735420D02*
X20901785Y43687800D01*
X20901785Y43687800D02*
X20806547Y43640181D01*
X20806547Y43640181D02*
X20616071Y43640181D01*
X20616071Y43640181D02*
X20520833Y43687800D01*
X20520833Y43687800D02*
X20473214Y43735420D01*
X20473214Y43735420D02*
X20425595Y43830658D01*
X20425595Y43830658D02*
X20425595Y44068753D01*
X20425595Y44068753D02*
X20473214Y44163991D01*
X20473214Y44163991D02*
X20520833Y44211610D01*
X20520833Y44211610D02*
X20616071Y44259229D01*
X20616071Y44259229D02*
X20806547Y44259229D01*
X20806547Y44259229D02*
X20901785Y44211610D01*
X20901785Y44211610D02*
X20949404Y44163991D01*
X20949404Y44163991D02*
X20997023Y44068753D01*
X8550057Y48571429D02*
X8502438Y48666667D01*
X8502438Y48666667D02*
X8407200Y48761905D01*
X8407200Y48761905D02*
X8264342Y48904762D01*
X8264342Y48904762D02*
X8216723Y49000000D01*
X8216723Y49000000D02*
X8216723Y49095238D01*
X8454819Y49047619D02*
X8407200Y49142857D01*
X8407200Y49142857D02*
X8311961Y49238095D01*
X8311961Y49238095D02*
X8121485Y49285714D01*
X8121485Y49285714D02*
X7788152Y49285714D01*
X7788152Y49285714D02*
X7597676Y49238095D01*
X7597676Y49238095D02*
X7502438Y49142857D01*
X7502438Y49142857D02*
X7454819Y49047619D01*
X7454819Y49047619D02*
X7454819Y48857143D01*
X7454819Y48857143D02*
X7502438Y48761905D01*
X7502438Y48761905D02*
X7597676Y48666667D01*
X7597676Y48666667D02*
X7788152Y48619048D01*
X7788152Y48619048D02*
X8121485Y48619048D01*
X8121485Y48619048D02*
X8311961Y48666667D01*
X8311961Y48666667D02*
X8407200Y48761905D01*
X8407200Y48761905D02*
X8454819Y48857143D01*
X8454819Y48857143D02*
X8454819Y49047619D01*
X8454819Y47666667D02*
X8454819Y48238095D01*
X8454819Y47952381D02*
X7454819Y47952381D01*
X7454819Y47952381D02*
X7597676Y48047619D01*
X7597676Y48047619D02*
X7692914Y48142857D01*
X7692914Y48142857D02*
X7740533Y48238095D01*
X7883390Y47095238D02*
X7835771Y47190476D01*
X7835771Y47190476D02*
X7788152Y47238095D01*
X7788152Y47238095D02*
X7692914Y47285714D01*
X7692914Y47285714D02*
X7645295Y47285714D01*
X7645295Y47285714D02*
X7550057Y47238095D01*
X7550057Y47238095D02*
X7502438Y47190476D01*
X7502438Y47190476D02*
X7454819Y47095238D01*
X7454819Y47095238D02*
X7454819Y46904762D01*
X7454819Y46904762D02*
X7502438Y46809524D01*
X7502438Y46809524D02*
X7550057Y46761905D01*
X7550057Y46761905D02*
X7645295Y46714286D01*
X7645295Y46714286D02*
X7692914Y46714286D01*
X7692914Y46714286D02*
X7788152Y46761905D01*
X7788152Y46761905D02*
X7835771Y46809524D01*
X7835771Y46809524D02*
X7883390Y46904762D01*
X7883390Y46904762D02*
X7883390Y47095238D01*
X7883390Y47095238D02*
X7931009Y47190476D01*
X7931009Y47190476D02*
X7978628Y47238095D01*
X7978628Y47238095D02*
X8073866Y47285714D01*
X8073866Y47285714D02*
X8264342Y47285714D01*
X8264342Y47285714D02*
X8359580Y47238095D01*
X8359580Y47238095D02*
X8407200Y47190476D01*
X8407200Y47190476D02*
X8454819Y47095238D01*
X8454819Y47095238D02*
X8454819Y46904762D01*
X8454819Y46904762D02*
X8407200Y46809524D01*
X8407200Y46809524D02*
X8359580Y46761905D01*
X8359580Y46761905D02*
X8264342Y46714286D01*
X8264342Y46714286D02*
X8073866Y46714286D01*
X8073866Y46714286D02*
X7978628Y46761905D01*
X7978628Y46761905D02*
X7931009Y46809524D01*
X7931009Y46809524D02*
X7883390Y46904762D01*
X8550057Y57571429D02*
X8502438Y57666667D01*
X8502438Y57666667D02*
X8407200Y57761905D01*
X8407200Y57761905D02*
X8264342Y57904762D01*
X8264342Y57904762D02*
X8216723Y58000000D01*
X8216723Y58000000D02*
X8216723Y58095238D01*
X8454819Y58047619D02*
X8407200Y58142857D01*
X8407200Y58142857D02*
X8311961Y58238095D01*
X8311961Y58238095D02*
X8121485Y58285714D01*
X8121485Y58285714D02*
X7788152Y58285714D01*
X7788152Y58285714D02*
X7597676Y58238095D01*
X7597676Y58238095D02*
X7502438Y58142857D01*
X7502438Y58142857D02*
X7454819Y58047619D01*
X7454819Y58047619D02*
X7454819Y57857143D01*
X7454819Y57857143D02*
X7502438Y57761905D01*
X7502438Y57761905D02*
X7597676Y57666667D01*
X7597676Y57666667D02*
X7788152Y57619048D01*
X7788152Y57619048D02*
X8121485Y57619048D01*
X8121485Y57619048D02*
X8311961Y57666667D01*
X8311961Y57666667D02*
X8407200Y57761905D01*
X8407200Y57761905D02*
X8454819Y57857143D01*
X8454819Y57857143D02*
X8454819Y58047619D01*
X8454819Y56666667D02*
X8454819Y57238095D01*
X8454819Y56952381D02*
X7454819Y56952381D01*
X7454819Y56952381D02*
X7597676Y57047619D01*
X7597676Y57047619D02*
X7692914Y57142857D01*
X7692914Y57142857D02*
X7740533Y57238095D01*
X7454819Y55761905D02*
X7454819Y56238095D01*
X7454819Y56238095D02*
X7931009Y56285714D01*
X7931009Y56285714D02*
X7883390Y56238095D01*
X7883390Y56238095D02*
X7835771Y56142857D01*
X7835771Y56142857D02*
X7835771Y55904762D01*
X7835771Y55904762D02*
X7883390Y55809524D01*
X7883390Y55809524D02*
X7931009Y55761905D01*
X7931009Y55761905D02*
X8026247Y55714286D01*
X8026247Y55714286D02*
X8264342Y55714286D01*
X8264342Y55714286D02*
X8359580Y55761905D01*
X8359580Y55761905D02*
X8407200Y55809524D01*
X8407200Y55809524D02*
X8454819Y55904762D01*
X8454819Y55904762D02*
X8454819Y56142857D01*
X8454819Y56142857D02*
X8407200Y56238095D01*
X8407200Y56238095D02*
X8359580Y56285714D01*
X22330357Y36640181D02*
X22663690Y37116372D01*
X22901785Y36640181D02*
X22901785Y37640181D01*
X22901785Y37640181D02*
X22520833Y37640181D01*
X22520833Y37640181D02*
X22425595Y37592562D01*
X22425595Y37592562D02*
X22377976Y37544943D01*
X22377976Y37544943D02*
X22330357Y37449705D01*
X22330357Y37449705D02*
X22330357Y37306848D01*
X22330357Y37306848D02*
X22377976Y37211610D01*
X22377976Y37211610D02*
X22425595Y37163991D01*
X22425595Y37163991D02*
X22520833Y37116372D01*
X22520833Y37116372D02*
X22901785Y37116372D01*
X21949404Y37544943D02*
X21901785Y37592562D01*
X21901785Y37592562D02*
X21806547Y37640181D01*
X21806547Y37640181D02*
X21568452Y37640181D01*
X21568452Y37640181D02*
X21473214Y37592562D01*
X21473214Y37592562D02*
X21425595Y37544943D01*
X21425595Y37544943D02*
X21377976Y37449705D01*
X21377976Y37449705D02*
X21377976Y37354467D01*
X21377976Y37354467D02*
X21425595Y37211610D01*
X21425595Y37211610D02*
X21997023Y36640181D01*
X21997023Y36640181D02*
X21377976Y36640181D01*
X21044642Y37640181D02*
X20377976Y37640181D01*
X20377976Y37640181D02*
X20806547Y36640181D01*
X22330357Y57640181D02*
X22663690Y58116372D01*
X22901785Y57640181D02*
X22901785Y58640181D01*
X22901785Y58640181D02*
X22520833Y58640181D01*
X22520833Y58640181D02*
X22425595Y58592562D01*
X22425595Y58592562D02*
X22377976Y58544943D01*
X22377976Y58544943D02*
X22330357Y58449705D01*
X22330357Y58449705D02*
X22330357Y58306848D01*
X22330357Y58306848D02*
X22377976Y58211610D01*
X22377976Y58211610D02*
X22425595Y58163991D01*
X22425595Y58163991D02*
X22520833Y58116372D01*
X22520833Y58116372D02*
X22901785Y58116372D01*
X21949404Y58544943D02*
X21901785Y58592562D01*
X21901785Y58592562D02*
X21806547Y58640181D01*
X21806547Y58640181D02*
X21568452Y58640181D01*
X21568452Y58640181D02*
X21473214Y58592562D01*
X21473214Y58592562D02*
X21425595Y58544943D01*
X21425595Y58544943D02*
X21377976Y58449705D01*
X21377976Y58449705D02*
X21377976Y58354467D01*
X21377976Y58354467D02*
X21425595Y58211610D01*
X21425595Y58211610D02*
X21997023Y57640181D01*
X21997023Y57640181D02*
X21377976Y57640181D01*
X20425595Y57640181D02*
X20997023Y57640181D01*
X20711309Y57640181D02*
X20711309Y58640181D01*
X20711309Y58640181D02*
X20806547Y58497324D01*
X20806547Y58497324D02*
X20901785Y58402086D01*
X20901785Y58402086D02*
X20997023Y58354467D01*
D12*
X19040092Y66236986D02*
X18766759Y65846510D01*
X18571521Y66236986D02*
X18571521Y65416986D01*
X18571521Y65416986D02*
X18883902Y65416986D01*
X18883902Y65416986D02*
X18961997Y65456034D01*
X18961997Y65456034D02*
X19001044Y65495081D01*
X19001044Y65495081D02*
X19040092Y65573177D01*
X19040092Y65573177D02*
X19040092Y65690319D01*
X19040092Y65690319D02*
X19001044Y65768415D01*
X19001044Y65768415D02*
X18961997Y65807462D01*
X18961997Y65807462D02*
X18883902Y65846510D01*
X18883902Y65846510D02*
X18571521Y65846510D01*
X19821044Y66236986D02*
X19352473Y66236986D01*
X19586759Y66236986D02*
X19586759Y65416986D01*
X19586759Y65416986D02*
X19508663Y65534129D01*
X19508663Y65534129D02*
X19430568Y65612224D01*
X19430568Y65612224D02*
X19352473Y65651272D01*
X20328663Y65416986D02*
X20406758Y65416986D01*
X20406758Y65416986D02*
X20484854Y65456034D01*
X20484854Y65456034D02*
X20523901Y65495081D01*
X20523901Y65495081D02*
X20562949Y65573177D01*
X20562949Y65573177D02*
X20601996Y65729367D01*
X20601996Y65729367D02*
X20601996Y65924605D01*
X20601996Y65924605D02*
X20562949Y66080796D01*
X20562949Y66080796D02*
X20523901Y66158891D01*
X20523901Y66158891D02*
X20484854Y66197938D01*
X20484854Y66197938D02*
X20406758Y66236986D01*
X20406758Y66236986D02*
X20328663Y66236986D01*
X20328663Y66236986D02*
X20250568Y66197938D01*
X20250568Y66197938D02*
X20211520Y66158891D01*
X20211520Y66158891D02*
X20172473Y66080796D01*
X20172473Y66080796D02*
X20133425Y65924605D01*
X20133425Y65924605D02*
X20133425Y65729367D01*
X20133425Y65729367D02*
X20172473Y65573177D01*
X20172473Y65573177D02*
X20211520Y65495081D01*
X20211520Y65495081D02*
X20250568Y65456034D01*
X20250568Y65456034D02*
X20328663Y65416986D01*
X21370508Y71105238D02*
X20550508Y71105238D01*
X20550508Y71105238D02*
X20550508Y70910000D01*
X20550508Y70910000D02*
X20589556Y70792857D01*
X20589556Y70792857D02*
X20667651Y70714762D01*
X20667651Y70714762D02*
X20745746Y70675715D01*
X20745746Y70675715D02*
X20901937Y70636667D01*
X20901937Y70636667D02*
X21019080Y70636667D01*
X21019080Y70636667D02*
X21175270Y70675715D01*
X21175270Y70675715D02*
X21253365Y70714762D01*
X21253365Y70714762D02*
X21331461Y70792857D01*
X21331461Y70792857D02*
X21370508Y70910000D01*
X21370508Y70910000D02*
X21370508Y71105238D01*
X20628603Y70324286D02*
X20589556Y70285238D01*
X20589556Y70285238D02*
X20550508Y70207143D01*
X20550508Y70207143D02*
X20550508Y70011905D01*
X20550508Y70011905D02*
X20589556Y69933810D01*
X20589556Y69933810D02*
X20628603Y69894762D01*
X20628603Y69894762D02*
X20706699Y69855715D01*
X20706699Y69855715D02*
X20784794Y69855715D01*
X20784794Y69855715D02*
X20901937Y69894762D01*
X20901937Y69894762D02*
X21370508Y70363334D01*
X21370508Y70363334D02*
X21370508Y69855715D01*
X85197681Y15606745D02*
X85197681Y16406745D01*
X85197681Y16406745D02*
X85007205Y16406745D01*
X85007205Y16406745D02*
X84892919Y16368650D01*
X84892919Y16368650D02*
X84816729Y16292460D01*
X84816729Y16292460D02*
X84778634Y16216269D01*
X84778634Y16216269D02*
X84740538Y16063888D01*
X84740538Y16063888D02*
X84740538Y15949602D01*
X84740538Y15949602D02*
X84778634Y15797221D01*
X84778634Y15797221D02*
X84816729Y15721031D01*
X84816729Y15721031D02*
X84892919Y15644840D01*
X84892919Y15644840D02*
X85007205Y15606745D01*
X85007205Y15606745D02*
X85197681Y15606745D01*
X83978634Y15606745D02*
X84435777Y15606745D01*
X84207205Y15606745D02*
X84207205Y16406745D01*
X84207205Y16406745D02*
X84283396Y16292460D01*
X84283396Y16292460D02*
X84359586Y16216269D01*
X84359586Y16216269D02*
X84435777Y16178174D01*
X27684907Y49238015D02*
X27958240Y49628491D01*
X28153478Y49238015D02*
X28153478Y50058015D01*
X28153478Y50058015D02*
X27841097Y50058015D01*
X27841097Y50058015D02*
X27763002Y50018967D01*
X27763002Y50018967D02*
X27723955Y49979920D01*
X27723955Y49979920D02*
X27684907Y49901824D01*
X27684907Y49901824D02*
X27684907Y49784682D01*
X27684907Y49784682D02*
X27723955Y49706586D01*
X27723955Y49706586D02*
X27763002Y49667539D01*
X27763002Y49667539D02*
X27841097Y49628491D01*
X27841097Y49628491D02*
X28153478Y49628491D01*
X26903955Y49238015D02*
X27372526Y49238015D01*
X27138240Y49238015D02*
X27138240Y50058015D01*
X27138240Y50058015D02*
X27216336Y49940872D01*
X27216336Y49940872D02*
X27294431Y49862777D01*
X27294431Y49862777D02*
X27372526Y49823729D01*
X26513479Y49238015D02*
X26357288Y49238015D01*
X26357288Y49238015D02*
X26279193Y49277062D01*
X26279193Y49277062D02*
X26240145Y49316110D01*
X26240145Y49316110D02*
X26162050Y49433253D01*
X26162050Y49433253D02*
X26123003Y49589443D01*
X26123003Y49589443D02*
X26123003Y49901824D01*
X26123003Y49901824D02*
X26162050Y49979920D01*
X26162050Y49979920D02*
X26201098Y50018967D01*
X26201098Y50018967D02*
X26279193Y50058015D01*
X26279193Y50058015D02*
X26435384Y50058015D01*
X26435384Y50058015D02*
X26513479Y50018967D01*
X26513479Y50018967D02*
X26552526Y49979920D01*
X26552526Y49979920D02*
X26591574Y49901824D01*
X26591574Y49901824D02*
X26591574Y49706586D01*
X26591574Y49706586D02*
X26552526Y49628491D01*
X26552526Y49628491D02*
X26513479Y49589443D01*
X26513479Y49589443D02*
X26435384Y49550396D01*
X26435384Y49550396D02*
X26279193Y49550396D01*
X26279193Y49550396D02*
X26201098Y49589443D01*
X26201098Y49589443D02*
X26162050Y49628491D01*
X26162050Y49628491D02*
X26123003Y49706586D01*
X31236985Y28459908D02*
X30846509Y28733241D01*
X31236985Y28928479D02*
X30416985Y28928479D01*
X30416985Y28928479D02*
X30416985Y28616098D01*
X30416985Y28616098D02*
X30456033Y28538003D01*
X30456033Y28538003D02*
X30495080Y28498956D01*
X30495080Y28498956D02*
X30573176Y28459908D01*
X30573176Y28459908D02*
X30690318Y28459908D01*
X30690318Y28459908D02*
X30768414Y28498956D01*
X30768414Y28498956D02*
X30807461Y28538003D01*
X30807461Y28538003D02*
X30846509Y28616098D01*
X30846509Y28616098D02*
X30846509Y28928479D01*
X30416985Y28186575D02*
X30416985Y27678956D01*
X30416985Y27678956D02*
X30729366Y27952289D01*
X30729366Y27952289D02*
X30729366Y27835146D01*
X30729366Y27835146D02*
X30768414Y27757051D01*
X30768414Y27757051D02*
X30807461Y27718003D01*
X30807461Y27718003D02*
X30885557Y27678956D01*
X30885557Y27678956D02*
X31080795Y27678956D01*
X31080795Y27678956D02*
X31158890Y27718003D01*
X31158890Y27718003D02*
X31197938Y27757051D01*
X31197938Y27757051D02*
X31236985Y27835146D01*
X31236985Y27835146D02*
X31236985Y28069432D01*
X31236985Y28069432D02*
X31197938Y28147527D01*
X31197938Y28147527D02*
X31158890Y28186575D01*
X30416985Y27405623D02*
X30416985Y26898004D01*
X30416985Y26898004D02*
X30729366Y27171337D01*
X30729366Y27171337D02*
X30729366Y27054194D01*
X30729366Y27054194D02*
X30768414Y26976099D01*
X30768414Y26976099D02*
X30807461Y26937051D01*
X30807461Y26937051D02*
X30885557Y26898004D01*
X30885557Y26898004D02*
X31080795Y26898004D01*
X31080795Y26898004D02*
X31158890Y26937051D01*
X31158890Y26937051D02*
X31197938Y26976099D01*
X31197938Y26976099D02*
X31236985Y27054194D01*
X31236985Y27054194D02*
X31236985Y27288480D01*
X31236985Y27288480D02*
X31197938Y27366575D01*
X31197938Y27366575D02*
X31158890Y27405623D01*
D10*
X4054819Y77738095D02*
X3054819Y77738095D01*
X3054819Y77738095D02*
X3054819Y77500000D01*
X3054819Y77500000D02*
X3102438Y77357143D01*
X3102438Y77357143D02*
X3197676Y77261905D01*
X3197676Y77261905D02*
X3292914Y77214286D01*
X3292914Y77214286D02*
X3483390Y77166667D01*
X3483390Y77166667D02*
X3626247Y77166667D01*
X3626247Y77166667D02*
X3816723Y77214286D01*
X3816723Y77214286D02*
X3911961Y77261905D01*
X3911961Y77261905D02*
X4007200Y77357143D01*
X4007200Y77357143D02*
X4054819Y77500000D01*
X4054819Y77500000D02*
X4054819Y77738095D01*
X3054819Y76309524D02*
X3054819Y76500000D01*
X3054819Y76500000D02*
X3102438Y76595238D01*
X3102438Y76595238D02*
X3150057Y76642857D01*
X3150057Y76642857D02*
X3292914Y76738095D01*
X3292914Y76738095D02*
X3483390Y76785714D01*
X3483390Y76785714D02*
X3864342Y76785714D01*
X3864342Y76785714D02*
X3959580Y76738095D01*
X3959580Y76738095D02*
X4007200Y76690476D01*
X4007200Y76690476D02*
X4054819Y76595238D01*
X4054819Y76595238D02*
X4054819Y76404762D01*
X4054819Y76404762D02*
X4007200Y76309524D01*
X4007200Y76309524D02*
X3959580Y76261905D01*
X3959580Y76261905D02*
X3864342Y76214286D01*
X3864342Y76214286D02*
X3626247Y76214286D01*
X3626247Y76214286D02*
X3531009Y76261905D01*
X3531009Y76261905D02*
X3483390Y76309524D01*
X3483390Y76309524D02*
X3435771Y76404762D01*
X3435771Y76404762D02*
X3435771Y76595238D01*
X3435771Y76595238D02*
X3483390Y76690476D01*
X3483390Y76690476D02*
X3531009Y76738095D01*
X3531009Y76738095D02*
X3626247Y76785714D01*
D12*
X27684907Y42238015D02*
X27958240Y42628491D01*
X28153478Y42238015D02*
X28153478Y43058015D01*
X28153478Y43058015D02*
X27841097Y43058015D01*
X27841097Y43058015D02*
X27763002Y43018967D01*
X27763002Y43018967D02*
X27723955Y42979920D01*
X27723955Y42979920D02*
X27684907Y42901824D01*
X27684907Y42901824D02*
X27684907Y42784682D01*
X27684907Y42784682D02*
X27723955Y42706586D01*
X27723955Y42706586D02*
X27763002Y42667539D01*
X27763002Y42667539D02*
X27841097Y42628491D01*
X27841097Y42628491D02*
X28153478Y42628491D01*
X27372526Y42979920D02*
X27333478Y43018967D01*
X27333478Y43018967D02*
X27255383Y43058015D01*
X27255383Y43058015D02*
X27060145Y43058015D01*
X27060145Y43058015D02*
X26982050Y43018967D01*
X26982050Y43018967D02*
X26943002Y42979920D01*
X26943002Y42979920D02*
X26903955Y42901824D01*
X26903955Y42901824D02*
X26903955Y42823729D01*
X26903955Y42823729D02*
X26943002Y42706586D01*
X26943002Y42706586D02*
X27411574Y42238015D01*
X27411574Y42238015D02*
X26903955Y42238015D01*
X26630622Y43058015D02*
X26123003Y43058015D01*
X26123003Y43058015D02*
X26396336Y42745634D01*
X26396336Y42745634D02*
X26279193Y42745634D01*
X26279193Y42745634D02*
X26201098Y42706586D01*
X26201098Y42706586D02*
X26162050Y42667539D01*
X26162050Y42667539D02*
X26123003Y42589443D01*
X26123003Y42589443D02*
X26123003Y42394205D01*
X26123003Y42394205D02*
X26162050Y42316110D01*
X26162050Y42316110D02*
X26201098Y42277062D01*
X26201098Y42277062D02*
X26279193Y42238015D01*
X26279193Y42238015D02*
X26513479Y42238015D01*
X26513479Y42238015D02*
X26591574Y42277062D01*
X26591574Y42277062D02*
X26630622Y42316110D01*
D10*
X2095238Y69549943D02*
X2190476Y69597562D01*
X2190476Y69597562D02*
X2285714Y69692800D01*
X2285714Y69692800D02*
X2428571Y69835658D01*
X2428571Y69835658D02*
X2523809Y69883277D01*
X2523809Y69883277D02*
X2619047Y69883277D01*
X2571428Y69645181D02*
X2666666Y69692800D01*
X2666666Y69692800D02*
X2761904Y69788039D01*
X2761904Y69788039D02*
X2809523Y69978515D01*
X2809523Y69978515D02*
X2809523Y70311848D01*
X2809523Y70311848D02*
X2761904Y70502324D01*
X2761904Y70502324D02*
X2666666Y70597562D01*
X2666666Y70597562D02*
X2571428Y70645181D01*
X2571428Y70645181D02*
X2380952Y70645181D01*
X2380952Y70645181D02*
X2285714Y70597562D01*
X2285714Y70597562D02*
X2190476Y70502324D01*
X2190476Y70502324D02*
X2142857Y70311848D01*
X2142857Y70311848D02*
X2142857Y69978515D01*
X2142857Y69978515D02*
X2190476Y69788039D01*
X2190476Y69788039D02*
X2285714Y69692800D01*
X2285714Y69692800D02*
X2380952Y69645181D01*
X2380952Y69645181D02*
X2571428Y69645181D01*
X1285714Y70645181D02*
X1476190Y70645181D01*
X1476190Y70645181D02*
X1571428Y70597562D01*
X1571428Y70597562D02*
X1619047Y70549943D01*
X1619047Y70549943D02*
X1714285Y70407086D01*
X1714285Y70407086D02*
X1761904Y70216610D01*
X1761904Y70216610D02*
X1761904Y69835658D01*
X1761904Y69835658D02*
X1714285Y69740420D01*
X1714285Y69740420D02*
X1666666Y69692800D01*
X1666666Y69692800D02*
X1571428Y69645181D01*
X1571428Y69645181D02*
X1380952Y69645181D01*
X1380952Y69645181D02*
X1285714Y69692800D01*
X1285714Y69692800D02*
X1238095Y69740420D01*
X1238095Y69740420D02*
X1190476Y69835658D01*
X1190476Y69835658D02*
X1190476Y70073753D01*
X1190476Y70073753D02*
X1238095Y70168991D01*
X1238095Y70168991D02*
X1285714Y70216610D01*
X1285714Y70216610D02*
X1380952Y70264229D01*
X1380952Y70264229D02*
X1571428Y70264229D01*
X1571428Y70264229D02*
X1666666Y70216610D01*
X1666666Y70216610D02*
X1714285Y70168991D01*
X1714285Y70168991D02*
X1761904Y70073753D01*
D12*
X49763014Y3918411D02*
X50153490Y3645078D01*
X49763014Y3449840D02*
X50583014Y3449840D01*
X50583014Y3449840D02*
X50583014Y3762221D01*
X50583014Y3762221D02*
X50543966Y3840316D01*
X50543966Y3840316D02*
X50504919Y3879363D01*
X50504919Y3879363D02*
X50426823Y3918411D01*
X50426823Y3918411D02*
X50309681Y3918411D01*
X50309681Y3918411D02*
X50231585Y3879363D01*
X50231585Y3879363D02*
X50192538Y3840316D01*
X50192538Y3840316D02*
X50153490Y3762221D01*
X50153490Y3762221D02*
X50153490Y3449840D01*
X50583014Y4191744D02*
X50583014Y4738411D01*
X50583014Y4738411D02*
X49763014Y4386982D01*
X27684907Y35238015D02*
X27958240Y35628491D01*
X28153478Y35238015D02*
X28153478Y36058015D01*
X28153478Y36058015D02*
X27841097Y36058015D01*
X27841097Y36058015D02*
X27763002Y36018967D01*
X27763002Y36018967D02*
X27723955Y35979920D01*
X27723955Y35979920D02*
X27684907Y35901824D01*
X27684907Y35901824D02*
X27684907Y35784682D01*
X27684907Y35784682D02*
X27723955Y35706586D01*
X27723955Y35706586D02*
X27763002Y35667539D01*
X27763002Y35667539D02*
X27841097Y35628491D01*
X27841097Y35628491D02*
X28153478Y35628491D01*
X27372526Y35979920D02*
X27333478Y36018967D01*
X27333478Y36018967D02*
X27255383Y36058015D01*
X27255383Y36058015D02*
X27060145Y36058015D01*
X27060145Y36058015D02*
X26982050Y36018967D01*
X26982050Y36018967D02*
X26943002Y35979920D01*
X26943002Y35979920D02*
X26903955Y35901824D01*
X26903955Y35901824D02*
X26903955Y35823729D01*
X26903955Y35823729D02*
X26943002Y35706586D01*
X26943002Y35706586D02*
X27411574Y35238015D01*
X27411574Y35238015D02*
X26903955Y35238015D01*
X26201098Y35784682D02*
X26201098Y35238015D01*
X26396336Y36097062D02*
X26591574Y35511348D01*
X26591574Y35511348D02*
X26083955Y35511348D01*
X4763014Y81340093D02*
X5153490Y81066760D01*
X4763014Y80871522D02*
X5583014Y80871522D01*
X5583014Y80871522D02*
X5583014Y81183903D01*
X5583014Y81183903D02*
X5543966Y81261998D01*
X5543966Y81261998D02*
X5504919Y81301045D01*
X5504919Y81301045D02*
X5426823Y81340093D01*
X5426823Y81340093D02*
X5309681Y81340093D01*
X5309681Y81340093D02*
X5231585Y81301045D01*
X5231585Y81301045D02*
X5192538Y81261998D01*
X5192538Y81261998D02*
X5153490Y81183903D01*
X5153490Y81183903D02*
X5153490Y80871522D01*
X4763014Y82121045D02*
X4763014Y81652474D01*
X4763014Y81886760D02*
X5583014Y81886760D01*
X5583014Y81886760D02*
X5465871Y81808664D01*
X5465871Y81808664D02*
X5387776Y81730569D01*
X5387776Y81730569D02*
X5348728Y81652474D01*
X5583014Y82823902D02*
X5583014Y82667712D01*
X5583014Y82667712D02*
X5543966Y82589616D01*
X5543966Y82589616D02*
X5504919Y82550569D01*
X5504919Y82550569D02*
X5387776Y82472474D01*
X5387776Y82472474D02*
X5231585Y82433426D01*
X5231585Y82433426D02*
X4919204Y82433426D01*
X4919204Y82433426D02*
X4841109Y82472474D01*
X4841109Y82472474D02*
X4802062Y82511521D01*
X4802062Y82511521D02*
X4763014Y82589616D01*
X4763014Y82589616D02*
X4763014Y82745807D01*
X4763014Y82745807D02*
X4802062Y82823902D01*
X4802062Y82823902D02*
X4841109Y82862950D01*
X4841109Y82862950D02*
X4919204Y82901997D01*
X4919204Y82901997D02*
X5114442Y82901997D01*
X5114442Y82901997D02*
X5192538Y82862950D01*
X5192538Y82862950D02*
X5231585Y82823902D01*
X5231585Y82823902D02*
X5270633Y82745807D01*
X5270633Y82745807D02*
X5270633Y82589616D01*
X5270633Y82589616D02*
X5231585Y82511521D01*
X5231585Y82511521D02*
X5192538Y82472474D01*
X5192538Y82472474D02*
X5114442Y82433426D01*
D10*
X29095238Y66449943D02*
X29190476Y66497562D01*
X29190476Y66497562D02*
X29285714Y66592800D01*
X29285714Y66592800D02*
X29428571Y66735658D01*
X29428571Y66735658D02*
X29523809Y66783277D01*
X29523809Y66783277D02*
X29619047Y66783277D01*
X29571428Y66545181D02*
X29666666Y66592800D01*
X29666666Y66592800D02*
X29761904Y66688039D01*
X29761904Y66688039D02*
X29809523Y66878515D01*
X29809523Y66878515D02*
X29809523Y67211848D01*
X29809523Y67211848D02*
X29761904Y67402324D01*
X29761904Y67402324D02*
X29666666Y67497562D01*
X29666666Y67497562D02*
X29571428Y67545181D01*
X29571428Y67545181D02*
X29380952Y67545181D01*
X29380952Y67545181D02*
X29285714Y67497562D01*
X29285714Y67497562D02*
X29190476Y67402324D01*
X29190476Y67402324D02*
X29142857Y67211848D01*
X29142857Y67211848D02*
X29142857Y66878515D01*
X29142857Y66878515D02*
X29190476Y66688039D01*
X29190476Y66688039D02*
X29285714Y66592800D01*
X29285714Y66592800D02*
X29380952Y66545181D01*
X29380952Y66545181D02*
X29571428Y66545181D01*
X28190476Y66545181D02*
X28761904Y66545181D01*
X28476190Y66545181D02*
X28476190Y67545181D01*
X28476190Y67545181D02*
X28571428Y67402324D01*
X28571428Y67402324D02*
X28666666Y67307086D01*
X28666666Y67307086D02*
X28761904Y67259467D01*
D12*
X37263014Y30540093D02*
X37653490Y30266760D01*
X37263014Y30071522D02*
X38083014Y30071522D01*
X38083014Y30071522D02*
X38083014Y30383903D01*
X38083014Y30383903D02*
X38043966Y30461998D01*
X38043966Y30461998D02*
X38004919Y30501045D01*
X38004919Y30501045D02*
X37926823Y30540093D01*
X37926823Y30540093D02*
X37809681Y30540093D01*
X37809681Y30540093D02*
X37731585Y30501045D01*
X37731585Y30501045D02*
X37692538Y30461998D01*
X37692538Y30461998D02*
X37653490Y30383903D01*
X37653490Y30383903D02*
X37653490Y30071522D01*
X38083014Y30813426D02*
X38083014Y31321045D01*
X38083014Y31321045D02*
X37770633Y31047712D01*
X37770633Y31047712D02*
X37770633Y31164855D01*
X37770633Y31164855D02*
X37731585Y31242950D01*
X37731585Y31242950D02*
X37692538Y31281998D01*
X37692538Y31281998D02*
X37614442Y31321045D01*
X37614442Y31321045D02*
X37419204Y31321045D01*
X37419204Y31321045D02*
X37341109Y31281998D01*
X37341109Y31281998D02*
X37302062Y31242950D01*
X37302062Y31242950D02*
X37263014Y31164855D01*
X37263014Y31164855D02*
X37263014Y30930569D01*
X37263014Y30930569D02*
X37302062Y30852474D01*
X37302062Y30852474D02*
X37341109Y30813426D01*
X38083014Y31828664D02*
X38083014Y31906759D01*
X38083014Y31906759D02*
X38043966Y31984855D01*
X38043966Y31984855D02*
X38004919Y32023902D01*
X38004919Y32023902D02*
X37926823Y32062950D01*
X37926823Y32062950D02*
X37770633Y32101997D01*
X37770633Y32101997D02*
X37575395Y32101997D01*
X37575395Y32101997D02*
X37419204Y32062950D01*
X37419204Y32062950D02*
X37341109Y32023902D01*
X37341109Y32023902D02*
X37302062Y31984855D01*
X37302062Y31984855D02*
X37263014Y31906759D01*
X37263014Y31906759D02*
X37263014Y31828664D01*
X37263014Y31828664D02*
X37302062Y31750569D01*
X37302062Y31750569D02*
X37341109Y31711521D01*
X37341109Y31711521D02*
X37419204Y31672474D01*
X37419204Y31672474D02*
X37575395Y31633426D01*
X37575395Y31633426D02*
X37770633Y31633426D01*
X37770633Y31633426D02*
X37926823Y31672474D01*
X37926823Y31672474D02*
X38004919Y31711521D01*
X38004919Y31711521D02*
X38043966Y31750569D01*
X38043966Y31750569D02*
X38083014Y31828664D01*
D10*
X22330357Y50640181D02*
X22663690Y51116372D01*
X22901785Y50640181D02*
X22901785Y51640181D01*
X22901785Y51640181D02*
X22520833Y51640181D01*
X22520833Y51640181D02*
X22425595Y51592562D01*
X22425595Y51592562D02*
X22377976Y51544943D01*
X22377976Y51544943D02*
X22330357Y51449705D01*
X22330357Y51449705D02*
X22330357Y51306848D01*
X22330357Y51306848D02*
X22377976Y51211610D01*
X22377976Y51211610D02*
X22425595Y51163991D01*
X22425595Y51163991D02*
X22520833Y51116372D01*
X22520833Y51116372D02*
X22901785Y51116372D01*
X21949404Y51544943D02*
X21901785Y51592562D01*
X21901785Y51592562D02*
X21806547Y51640181D01*
X21806547Y51640181D02*
X21568452Y51640181D01*
X21568452Y51640181D02*
X21473214Y51592562D01*
X21473214Y51592562D02*
X21425595Y51544943D01*
X21425595Y51544943D02*
X21377976Y51449705D01*
X21377976Y51449705D02*
X21377976Y51354467D01*
X21377976Y51354467D02*
X21425595Y51211610D01*
X21425595Y51211610D02*
X21997023Y50640181D01*
X21997023Y50640181D02*
X21377976Y50640181D01*
X20997023Y51544943D02*
X20949404Y51592562D01*
X20949404Y51592562D02*
X20854166Y51640181D01*
X20854166Y51640181D02*
X20616071Y51640181D01*
X20616071Y51640181D02*
X20520833Y51592562D01*
X20520833Y51592562D02*
X20473214Y51544943D01*
X20473214Y51544943D02*
X20425595Y51449705D01*
X20425595Y51449705D02*
X20425595Y51354467D01*
X20425595Y51354467D02*
X20473214Y51211610D01*
X20473214Y51211610D02*
X21044642Y50640181D01*
X21044642Y50640181D02*
X20425595Y50640181D01*
D12*
X27684907Y28238015D02*
X27958240Y28628491D01*
X28153478Y28238015D02*
X28153478Y29058015D01*
X28153478Y29058015D02*
X27841097Y29058015D01*
X27841097Y29058015D02*
X27763002Y29018967D01*
X27763002Y29018967D02*
X27723955Y28979920D01*
X27723955Y28979920D02*
X27684907Y28901824D01*
X27684907Y28901824D02*
X27684907Y28784682D01*
X27684907Y28784682D02*
X27723955Y28706586D01*
X27723955Y28706586D02*
X27763002Y28667539D01*
X27763002Y28667539D02*
X27841097Y28628491D01*
X27841097Y28628491D02*
X28153478Y28628491D01*
X27372526Y28979920D02*
X27333478Y29018967D01*
X27333478Y29018967D02*
X27255383Y29058015D01*
X27255383Y29058015D02*
X27060145Y29058015D01*
X27060145Y29058015D02*
X26982050Y29018967D01*
X26982050Y29018967D02*
X26943002Y28979920D01*
X26943002Y28979920D02*
X26903955Y28901824D01*
X26903955Y28901824D02*
X26903955Y28823729D01*
X26903955Y28823729D02*
X26943002Y28706586D01*
X26943002Y28706586D02*
X27411574Y28238015D01*
X27411574Y28238015D02*
X26903955Y28238015D01*
X26162050Y29058015D02*
X26552526Y29058015D01*
X26552526Y29058015D02*
X26591574Y28667539D01*
X26591574Y28667539D02*
X26552526Y28706586D01*
X26552526Y28706586D02*
X26474431Y28745634D01*
X26474431Y28745634D02*
X26279193Y28745634D01*
X26279193Y28745634D02*
X26201098Y28706586D01*
X26201098Y28706586D02*
X26162050Y28667539D01*
X26162050Y28667539D02*
X26123003Y28589443D01*
X26123003Y28589443D02*
X26123003Y28394205D01*
X26123003Y28394205D02*
X26162050Y28316110D01*
X26162050Y28316110D02*
X26201098Y28277062D01*
X26201098Y28277062D02*
X26279193Y28238015D01*
X26279193Y28238015D02*
X26474431Y28238015D01*
X26474431Y28238015D02*
X26552526Y28277062D01*
X26552526Y28277062D02*
X26591574Y28316110D01*
X27684907Y63238015D02*
X27958240Y63628491D01*
X28153478Y63238015D02*
X28153478Y64058015D01*
X28153478Y64058015D02*
X27841097Y64058015D01*
X27841097Y64058015D02*
X27763002Y64018967D01*
X27763002Y64018967D02*
X27723955Y63979920D01*
X27723955Y63979920D02*
X27684907Y63901824D01*
X27684907Y63901824D02*
X27684907Y63784682D01*
X27684907Y63784682D02*
X27723955Y63706586D01*
X27723955Y63706586D02*
X27763002Y63667539D01*
X27763002Y63667539D02*
X27841097Y63628491D01*
X27841097Y63628491D02*
X28153478Y63628491D01*
X26903955Y63238015D02*
X27372526Y63238015D01*
X27138240Y63238015D02*
X27138240Y64058015D01*
X27138240Y64058015D02*
X27216336Y63940872D01*
X27216336Y63940872D02*
X27294431Y63862777D01*
X27294431Y63862777D02*
X27372526Y63823729D01*
X26630622Y64058015D02*
X26083955Y64058015D01*
X26083955Y64058015D02*
X26435384Y63238015D01*
X52263014Y3918411D02*
X52653490Y3645078D01*
X52263014Y3449840D02*
X53083014Y3449840D01*
X53083014Y3449840D02*
X53083014Y3762221D01*
X53083014Y3762221D02*
X53043966Y3840316D01*
X53043966Y3840316D02*
X53004919Y3879363D01*
X53004919Y3879363D02*
X52926823Y3918411D01*
X52926823Y3918411D02*
X52809681Y3918411D01*
X52809681Y3918411D02*
X52731585Y3879363D01*
X52731585Y3879363D02*
X52692538Y3840316D01*
X52692538Y3840316D02*
X52653490Y3762221D01*
X52653490Y3762221D02*
X52653490Y3449840D01*
X52731585Y4386982D02*
X52770633Y4308887D01*
X52770633Y4308887D02*
X52809681Y4269840D01*
X52809681Y4269840D02*
X52887776Y4230792D01*
X52887776Y4230792D02*
X52926823Y4230792D01*
X52926823Y4230792D02*
X53004919Y4269840D01*
X53004919Y4269840D02*
X53043966Y4308887D01*
X53043966Y4308887D02*
X53083014Y4386982D01*
X53083014Y4386982D02*
X53083014Y4543173D01*
X53083014Y4543173D02*
X53043966Y4621268D01*
X53043966Y4621268D02*
X53004919Y4660316D01*
X53004919Y4660316D02*
X52926823Y4699363D01*
X52926823Y4699363D02*
X52887776Y4699363D01*
X52887776Y4699363D02*
X52809681Y4660316D01*
X52809681Y4660316D02*
X52770633Y4621268D01*
X52770633Y4621268D02*
X52731585Y4543173D01*
X52731585Y4543173D02*
X52731585Y4386982D01*
X52731585Y4386982D02*
X52692538Y4308887D01*
X52692538Y4308887D02*
X52653490Y4269840D01*
X52653490Y4269840D02*
X52575395Y4230792D01*
X52575395Y4230792D02*
X52419204Y4230792D01*
X52419204Y4230792D02*
X52341109Y4269840D01*
X52341109Y4269840D02*
X52302062Y4308887D01*
X52302062Y4308887D02*
X52263014Y4386982D01*
X52263014Y4386982D02*
X52263014Y4543173D01*
X52263014Y4543173D02*
X52302062Y4621268D01*
X52302062Y4621268D02*
X52341109Y4660316D01*
X52341109Y4660316D02*
X52419204Y4699363D01*
X52419204Y4699363D02*
X52575395Y4699363D01*
X52575395Y4699363D02*
X52653490Y4660316D01*
X52653490Y4660316D02*
X52692538Y4621268D01*
X52692538Y4621268D02*
X52731585Y4543173D01*
X16763014Y17540093D02*
X17153490Y17266760D01*
X16763014Y17071522D02*
X17583014Y17071522D01*
X17583014Y17071522D02*
X17583014Y17383903D01*
X17583014Y17383903D02*
X17543966Y17461998D01*
X17543966Y17461998D02*
X17504919Y17501045D01*
X17504919Y17501045D02*
X17426823Y17540093D01*
X17426823Y17540093D02*
X17309681Y17540093D01*
X17309681Y17540093D02*
X17231585Y17501045D01*
X17231585Y17501045D02*
X17192538Y17461998D01*
X17192538Y17461998D02*
X17153490Y17383903D01*
X17153490Y17383903D02*
X17153490Y17071522D01*
X17583014Y17813426D02*
X17583014Y18321045D01*
X17583014Y18321045D02*
X17270633Y18047712D01*
X17270633Y18047712D02*
X17270633Y18164855D01*
X17270633Y18164855D02*
X17231585Y18242950D01*
X17231585Y18242950D02*
X17192538Y18281998D01*
X17192538Y18281998D02*
X17114442Y18321045D01*
X17114442Y18321045D02*
X16919204Y18321045D01*
X16919204Y18321045D02*
X16841109Y18281998D01*
X16841109Y18281998D02*
X16802062Y18242950D01*
X16802062Y18242950D02*
X16763014Y18164855D01*
X16763014Y18164855D02*
X16763014Y17930569D01*
X16763014Y17930569D02*
X16802062Y17852474D01*
X16802062Y17852474D02*
X16841109Y17813426D01*
X7263014Y81340093D02*
X7653490Y81066760D01*
X7263014Y80871522D02*
X8083014Y80871522D01*
X8083014Y80871522D02*
X8083014Y81183903D01*
X8083014Y81183903D02*
X8043966Y81261998D01*
X8043966Y81261998D02*
X8004919Y81301045D01*
X8004919Y81301045D02*
X7926823Y81340093D01*
X7926823Y81340093D02*
X7809681Y81340093D01*
X7809681Y81340093D02*
X7731585Y81301045D01*
X7731585Y81301045D02*
X7692538Y81261998D01*
X7692538Y81261998D02*
X7653490Y81183903D01*
X7653490Y81183903D02*
X7653490Y80871522D01*
X7263014Y82121045D02*
X7263014Y81652474D01*
X7263014Y81886760D02*
X8083014Y81886760D01*
X8083014Y81886760D02*
X7965871Y81808664D01*
X7965871Y81808664D02*
X7887776Y81730569D01*
X7887776Y81730569D02*
X7848728Y81652474D01*
X8083014Y82862950D02*
X8083014Y82472474D01*
X8083014Y82472474D02*
X7692538Y82433426D01*
X7692538Y82433426D02*
X7731585Y82472474D01*
X7731585Y82472474D02*
X7770633Y82550569D01*
X7770633Y82550569D02*
X7770633Y82745807D01*
X7770633Y82745807D02*
X7731585Y82823902D01*
X7731585Y82823902D02*
X7692538Y82862950D01*
X7692538Y82862950D02*
X7614442Y82901997D01*
X7614442Y82901997D02*
X7419204Y82901997D01*
X7419204Y82901997D02*
X7341109Y82862950D01*
X7341109Y82862950D02*
X7302062Y82823902D01*
X7302062Y82823902D02*
X7263014Y82745807D01*
X7263014Y82745807D02*
X7263014Y82550569D01*
X7263014Y82550569D02*
X7302062Y82472474D01*
X7302062Y82472474D02*
X7341109Y82433426D01*
D10*
X29095238Y73949943D02*
X29190476Y73997562D01*
X29190476Y73997562D02*
X29285714Y74092800D01*
X29285714Y74092800D02*
X29428571Y74235658D01*
X29428571Y74235658D02*
X29523809Y74283277D01*
X29523809Y74283277D02*
X29619047Y74283277D01*
X29571428Y74045181D02*
X29666666Y74092800D01*
X29666666Y74092800D02*
X29761904Y74188039D01*
X29761904Y74188039D02*
X29809523Y74378515D01*
X29809523Y74378515D02*
X29809523Y74711848D01*
X29809523Y74711848D02*
X29761904Y74902324D01*
X29761904Y74902324D02*
X29666666Y74997562D01*
X29666666Y74997562D02*
X29571428Y75045181D01*
X29571428Y75045181D02*
X29380952Y75045181D01*
X29380952Y75045181D02*
X29285714Y74997562D01*
X29285714Y74997562D02*
X29190476Y74902324D01*
X29190476Y74902324D02*
X29142857Y74711848D01*
X29142857Y74711848D02*
X29142857Y74378515D01*
X29142857Y74378515D02*
X29190476Y74188039D01*
X29190476Y74188039D02*
X29285714Y74092800D01*
X29285714Y74092800D02*
X29380952Y74045181D01*
X29380952Y74045181D02*
X29571428Y74045181D01*
X28809523Y75045181D02*
X28190476Y75045181D01*
X28190476Y75045181D02*
X28523809Y74664229D01*
X28523809Y74664229D02*
X28380952Y74664229D01*
X28380952Y74664229D02*
X28285714Y74616610D01*
X28285714Y74616610D02*
X28238095Y74568991D01*
X28238095Y74568991D02*
X28190476Y74473753D01*
X28190476Y74473753D02*
X28190476Y74235658D01*
X28190476Y74235658D02*
X28238095Y74140420D01*
X28238095Y74140420D02*
X28285714Y74092800D01*
X28285714Y74092800D02*
X28380952Y74045181D01*
X28380952Y74045181D02*
X28666666Y74045181D01*
X28666666Y74045181D02*
X28761904Y74092800D01*
X28761904Y74092800D02*
X28809523Y74140420D01*
X2095238Y73049943D02*
X2190476Y73097562D01*
X2190476Y73097562D02*
X2285714Y73192800D01*
X2285714Y73192800D02*
X2428571Y73335658D01*
X2428571Y73335658D02*
X2523809Y73383277D01*
X2523809Y73383277D02*
X2619047Y73383277D01*
X2571428Y73145181D02*
X2666666Y73192800D01*
X2666666Y73192800D02*
X2761904Y73288039D01*
X2761904Y73288039D02*
X2809523Y73478515D01*
X2809523Y73478515D02*
X2809523Y73811848D01*
X2809523Y73811848D02*
X2761904Y74002324D01*
X2761904Y74002324D02*
X2666666Y74097562D01*
X2666666Y74097562D02*
X2571428Y74145181D01*
X2571428Y74145181D02*
X2380952Y74145181D01*
X2380952Y74145181D02*
X2285714Y74097562D01*
X2285714Y74097562D02*
X2190476Y74002324D01*
X2190476Y74002324D02*
X2142857Y73811848D01*
X2142857Y73811848D02*
X2142857Y73478515D01*
X2142857Y73478515D02*
X2190476Y73288039D01*
X2190476Y73288039D02*
X2285714Y73192800D01*
X2285714Y73192800D02*
X2380952Y73145181D01*
X2380952Y73145181D02*
X2571428Y73145181D01*
X1238095Y74145181D02*
X1714285Y74145181D01*
X1714285Y74145181D02*
X1761904Y73668991D01*
X1761904Y73668991D02*
X1714285Y73716610D01*
X1714285Y73716610D02*
X1619047Y73764229D01*
X1619047Y73764229D02*
X1380952Y73764229D01*
X1380952Y73764229D02*
X1285714Y73716610D01*
X1285714Y73716610D02*
X1238095Y73668991D01*
X1238095Y73668991D02*
X1190476Y73573753D01*
X1190476Y73573753D02*
X1190476Y73335658D01*
X1190476Y73335658D02*
X1238095Y73240420D01*
X1238095Y73240420D02*
X1285714Y73192800D01*
X1285714Y73192800D02*
X1380952Y73145181D01*
X1380952Y73145181D02*
X1619047Y73145181D01*
X1619047Y73145181D02*
X1714285Y73192800D01*
X1714285Y73192800D02*
X1761904Y73240420D01*
D12*
X32763014Y30540093D02*
X33153490Y30266760D01*
X32763014Y30071522D02*
X33583014Y30071522D01*
X33583014Y30071522D02*
X33583014Y30383903D01*
X33583014Y30383903D02*
X33543966Y30461998D01*
X33543966Y30461998D02*
X33504919Y30501045D01*
X33504919Y30501045D02*
X33426823Y30540093D01*
X33426823Y30540093D02*
X33309681Y30540093D01*
X33309681Y30540093D02*
X33231585Y30501045D01*
X33231585Y30501045D02*
X33192538Y30461998D01*
X33192538Y30461998D02*
X33153490Y30383903D01*
X33153490Y30383903D02*
X33153490Y30071522D01*
X33583014Y30813426D02*
X33583014Y31321045D01*
X33583014Y31321045D02*
X33270633Y31047712D01*
X33270633Y31047712D02*
X33270633Y31164855D01*
X33270633Y31164855D02*
X33231585Y31242950D01*
X33231585Y31242950D02*
X33192538Y31281998D01*
X33192538Y31281998D02*
X33114442Y31321045D01*
X33114442Y31321045D02*
X32919204Y31321045D01*
X32919204Y31321045D02*
X32841109Y31281998D01*
X32841109Y31281998D02*
X32802062Y31242950D01*
X32802062Y31242950D02*
X32763014Y31164855D01*
X32763014Y31164855D02*
X32763014Y30930569D01*
X32763014Y30930569D02*
X32802062Y30852474D01*
X32802062Y30852474D02*
X32841109Y30813426D01*
X33504919Y31633426D02*
X33543966Y31672474D01*
X33543966Y31672474D02*
X33583014Y31750569D01*
X33583014Y31750569D02*
X33583014Y31945807D01*
X33583014Y31945807D02*
X33543966Y32023902D01*
X33543966Y32023902D02*
X33504919Y32062950D01*
X33504919Y32062950D02*
X33426823Y32101997D01*
X33426823Y32101997D02*
X33348728Y32101997D01*
X33348728Y32101997D02*
X33231585Y32062950D01*
X33231585Y32062950D02*
X32763014Y31594378D01*
X32763014Y31594378D02*
X32763014Y32101997D01*
X3263014Y37540093D02*
X3653490Y37266760D01*
X3263014Y37071522D02*
X4083014Y37071522D01*
X4083014Y37071522D02*
X4083014Y37383903D01*
X4083014Y37383903D02*
X4043966Y37461998D01*
X4043966Y37461998D02*
X4004919Y37501045D01*
X4004919Y37501045D02*
X3926823Y37540093D01*
X3926823Y37540093D02*
X3809681Y37540093D01*
X3809681Y37540093D02*
X3731585Y37501045D01*
X3731585Y37501045D02*
X3692538Y37461998D01*
X3692538Y37461998D02*
X3653490Y37383903D01*
X3653490Y37383903D02*
X3653490Y37071522D01*
X4004919Y37852474D02*
X4043966Y37891522D01*
X4043966Y37891522D02*
X4083014Y37969617D01*
X4083014Y37969617D02*
X4083014Y38164855D01*
X4083014Y38164855D02*
X4043966Y38242950D01*
X4043966Y38242950D02*
X4004919Y38281998D01*
X4004919Y38281998D02*
X3926823Y38321045D01*
X3926823Y38321045D02*
X3848728Y38321045D01*
X3848728Y38321045D02*
X3731585Y38281998D01*
X3731585Y38281998D02*
X3263014Y37813426D01*
X3263014Y37813426D02*
X3263014Y38321045D01*
X3263014Y38711521D02*
X3263014Y38867712D01*
X3263014Y38867712D02*
X3302062Y38945807D01*
X3302062Y38945807D02*
X3341109Y38984855D01*
X3341109Y38984855D02*
X3458252Y39062950D01*
X3458252Y39062950D02*
X3614442Y39101997D01*
X3614442Y39101997D02*
X3926823Y39101997D01*
X3926823Y39101997D02*
X4004919Y39062950D01*
X4004919Y39062950D02*
X4043966Y39023902D01*
X4043966Y39023902D02*
X4083014Y38945807D01*
X4083014Y38945807D02*
X4083014Y38789616D01*
X4083014Y38789616D02*
X4043966Y38711521D01*
X4043966Y38711521D02*
X4004919Y38672474D01*
X4004919Y38672474D02*
X3926823Y38633426D01*
X3926823Y38633426D02*
X3731585Y38633426D01*
X3731585Y38633426D02*
X3653490Y38672474D01*
X3653490Y38672474D02*
X3614442Y38711521D01*
X3614442Y38711521D02*
X3575395Y38789616D01*
X3575395Y38789616D02*
X3575395Y38945807D01*
X3575395Y38945807D02*
X3614442Y39023902D01*
X3614442Y39023902D02*
X3653490Y39062950D01*
X3653490Y39062950D02*
X3731585Y39101997D01*
X27684907Y56238015D02*
X27958240Y56628491D01*
X28153478Y56238015D02*
X28153478Y57058015D01*
X28153478Y57058015D02*
X27841097Y57058015D01*
X27841097Y57058015D02*
X27763002Y57018967D01*
X27763002Y57018967D02*
X27723955Y56979920D01*
X27723955Y56979920D02*
X27684907Y56901824D01*
X27684907Y56901824D02*
X27684907Y56784682D01*
X27684907Y56784682D02*
X27723955Y56706586D01*
X27723955Y56706586D02*
X27763002Y56667539D01*
X27763002Y56667539D02*
X27841097Y56628491D01*
X27841097Y56628491D02*
X28153478Y56628491D01*
X26903955Y56238015D02*
X27372526Y56238015D01*
X27138240Y56238015D02*
X27138240Y57058015D01*
X27138240Y57058015D02*
X27216336Y56940872D01*
X27216336Y56940872D02*
X27294431Y56862777D01*
X27294431Y56862777D02*
X27372526Y56823729D01*
X26435384Y56706586D02*
X26513479Y56745634D01*
X26513479Y56745634D02*
X26552526Y56784682D01*
X26552526Y56784682D02*
X26591574Y56862777D01*
X26591574Y56862777D02*
X26591574Y56901824D01*
X26591574Y56901824D02*
X26552526Y56979920D01*
X26552526Y56979920D02*
X26513479Y57018967D01*
X26513479Y57018967D02*
X26435384Y57058015D01*
X26435384Y57058015D02*
X26279193Y57058015D01*
X26279193Y57058015D02*
X26201098Y57018967D01*
X26201098Y57018967D02*
X26162050Y56979920D01*
X26162050Y56979920D02*
X26123003Y56901824D01*
X26123003Y56901824D02*
X26123003Y56862777D01*
X26123003Y56862777D02*
X26162050Y56784682D01*
X26162050Y56784682D02*
X26201098Y56745634D01*
X26201098Y56745634D02*
X26279193Y56706586D01*
X26279193Y56706586D02*
X26435384Y56706586D01*
X26435384Y56706586D02*
X26513479Y56667539D01*
X26513479Y56667539D02*
X26552526Y56628491D01*
X26552526Y56628491D02*
X26591574Y56550396D01*
X26591574Y56550396D02*
X26591574Y56394205D01*
X26591574Y56394205D02*
X26552526Y56316110D01*
X26552526Y56316110D02*
X26513479Y56277062D01*
X26513479Y56277062D02*
X26435384Y56238015D01*
X26435384Y56238015D02*
X26279193Y56238015D01*
X26279193Y56238015D02*
X26201098Y56277062D01*
X26201098Y56277062D02*
X26162050Y56316110D01*
X26162050Y56316110D02*
X26123003Y56394205D01*
X26123003Y56394205D02*
X26123003Y56550396D01*
X26123003Y56550396D02*
X26162050Y56628491D01*
X26162050Y56628491D02*
X26201098Y56667539D01*
X26201098Y56667539D02*
X26279193Y56706586D01*
D10*
X22330357Y29640181D02*
X22663690Y30116372D01*
X22901785Y29640181D02*
X22901785Y30640181D01*
X22901785Y30640181D02*
X22520833Y30640181D01*
X22520833Y30640181D02*
X22425595Y30592562D01*
X22425595Y30592562D02*
X22377976Y30544943D01*
X22377976Y30544943D02*
X22330357Y30449705D01*
X22330357Y30449705D02*
X22330357Y30306848D01*
X22330357Y30306848D02*
X22377976Y30211610D01*
X22377976Y30211610D02*
X22425595Y30163991D01*
X22425595Y30163991D02*
X22520833Y30116372D01*
X22520833Y30116372D02*
X22901785Y30116372D01*
X21949404Y30544943D02*
X21901785Y30592562D01*
X21901785Y30592562D02*
X21806547Y30640181D01*
X21806547Y30640181D02*
X21568452Y30640181D01*
X21568452Y30640181D02*
X21473214Y30592562D01*
X21473214Y30592562D02*
X21425595Y30544943D01*
X21425595Y30544943D02*
X21377976Y30449705D01*
X21377976Y30449705D02*
X21377976Y30354467D01*
X21377976Y30354467D02*
X21425595Y30211610D01*
X21425595Y30211610D02*
X21997023Y29640181D01*
X21997023Y29640181D02*
X21377976Y29640181D01*
X20806547Y30211610D02*
X20901785Y30259229D01*
X20901785Y30259229D02*
X20949404Y30306848D01*
X20949404Y30306848D02*
X20997023Y30402086D01*
X20997023Y30402086D02*
X20997023Y30449705D01*
X20997023Y30449705D02*
X20949404Y30544943D01*
X20949404Y30544943D02*
X20901785Y30592562D01*
X20901785Y30592562D02*
X20806547Y30640181D01*
X20806547Y30640181D02*
X20616071Y30640181D01*
X20616071Y30640181D02*
X20520833Y30592562D01*
X20520833Y30592562D02*
X20473214Y30544943D01*
X20473214Y30544943D02*
X20425595Y30449705D01*
X20425595Y30449705D02*
X20425595Y30402086D01*
X20425595Y30402086D02*
X20473214Y30306848D01*
X20473214Y30306848D02*
X20520833Y30259229D01*
X20520833Y30259229D02*
X20616071Y30211610D01*
X20616071Y30211610D02*
X20806547Y30211610D01*
X20806547Y30211610D02*
X20901785Y30163991D01*
X20901785Y30163991D02*
X20949404Y30116372D01*
X20949404Y30116372D02*
X20997023Y30021134D01*
X20997023Y30021134D02*
X20997023Y29830658D01*
X20997023Y29830658D02*
X20949404Y29735420D01*
X20949404Y29735420D02*
X20901785Y29687800D01*
X20901785Y29687800D02*
X20806547Y29640181D01*
X20806547Y29640181D02*
X20616071Y29640181D01*
X20616071Y29640181D02*
X20520833Y29687800D01*
X20520833Y29687800D02*
X20473214Y29735420D01*
X20473214Y29735420D02*
X20425595Y29830658D01*
X20425595Y29830658D02*
X20425595Y30021134D01*
X20425595Y30021134D02*
X20473214Y30116372D01*
X20473214Y30116372D02*
X20520833Y30163991D01*
X20520833Y30163991D02*
X20616071Y30211610D01*
X39550057Y38071429D02*
X39502438Y38166667D01*
X39502438Y38166667D02*
X39407200Y38261905D01*
X39407200Y38261905D02*
X39264342Y38404762D01*
X39264342Y38404762D02*
X39216723Y38500000D01*
X39216723Y38500000D02*
X39216723Y38595238D01*
X39454819Y38547619D02*
X39407200Y38642857D01*
X39407200Y38642857D02*
X39311961Y38738095D01*
X39311961Y38738095D02*
X39121485Y38785714D01*
X39121485Y38785714D02*
X38788152Y38785714D01*
X38788152Y38785714D02*
X38597676Y38738095D01*
X38597676Y38738095D02*
X38502438Y38642857D01*
X38502438Y38642857D02*
X38454819Y38547619D01*
X38454819Y38547619D02*
X38454819Y38357143D01*
X38454819Y38357143D02*
X38502438Y38261905D01*
X38502438Y38261905D02*
X38597676Y38166667D01*
X38597676Y38166667D02*
X38788152Y38119048D01*
X38788152Y38119048D02*
X39121485Y38119048D01*
X39121485Y38119048D02*
X39311961Y38166667D01*
X39311961Y38166667D02*
X39407200Y38261905D01*
X39407200Y38261905D02*
X39454819Y38357143D01*
X39454819Y38357143D02*
X39454819Y38547619D01*
X39454819Y37166667D02*
X39454819Y37738095D01*
X39454819Y37452381D02*
X38454819Y37452381D01*
X38454819Y37452381D02*
X38597676Y37547619D01*
X38597676Y37547619D02*
X38692914Y37642857D01*
X38692914Y37642857D02*
X38740533Y37738095D01*
X38788152Y36309524D02*
X39454819Y36309524D01*
X38407200Y36547619D02*
X39121485Y36785714D01*
X39121485Y36785714D02*
X39121485Y36166667D01*
X6738094Y69645181D02*
X6738094Y70645181D01*
X6738094Y70645181D02*
X6499999Y70645181D01*
X6499999Y70645181D02*
X6357142Y70597562D01*
X6357142Y70597562D02*
X6261904Y70502324D01*
X6261904Y70502324D02*
X6214285Y70407086D01*
X6214285Y70407086D02*
X6166666Y70216610D01*
X6166666Y70216610D02*
X6166666Y70073753D01*
X6166666Y70073753D02*
X6214285Y69883277D01*
X6214285Y69883277D02*
X6261904Y69788039D01*
X6261904Y69788039D02*
X6357142Y69692800D01*
X6357142Y69692800D02*
X6499999Y69645181D01*
X6499999Y69645181D02*
X6738094Y69645181D01*
X5833332Y70645181D02*
X5166666Y70645181D01*
X5166666Y70645181D02*
X5595237Y69645181D01*
D12*
X18540092Y73736986D02*
X18266759Y73346510D01*
X18071521Y73736986D02*
X18071521Y72916986D01*
X18071521Y72916986D02*
X18383902Y72916986D01*
X18383902Y72916986D02*
X18461997Y72956034D01*
X18461997Y72956034D02*
X18501044Y72995081D01*
X18501044Y72995081D02*
X18540092Y73073177D01*
X18540092Y73073177D02*
X18540092Y73190319D01*
X18540092Y73190319D02*
X18501044Y73268415D01*
X18501044Y73268415D02*
X18461997Y73307462D01*
X18461997Y73307462D02*
X18383902Y73346510D01*
X18383902Y73346510D02*
X18071521Y73346510D01*
X19321044Y73736986D02*
X18852473Y73736986D01*
X19086759Y73736986D02*
X19086759Y72916986D01*
X19086759Y72916986D02*
X19008663Y73034129D01*
X19008663Y73034129D02*
X18930568Y73112224D01*
X18930568Y73112224D02*
X18852473Y73151272D01*
X19633425Y72995081D02*
X19672473Y72956034D01*
X19672473Y72956034D02*
X19750568Y72916986D01*
X19750568Y72916986D02*
X19945806Y72916986D01*
X19945806Y72916986D02*
X20023901Y72956034D01*
X20023901Y72956034D02*
X20062949Y72995081D01*
X20062949Y72995081D02*
X20101996Y73073177D01*
X20101996Y73073177D02*
X20101996Y73151272D01*
X20101996Y73151272D02*
X20062949Y73268415D01*
X20062949Y73268415D02*
X19594377Y73736986D01*
X19594377Y73736986D02*
X20101996Y73736986D01*
X16763014Y20540093D02*
X17153490Y20266760D01*
X16763014Y20071522D02*
X17583014Y20071522D01*
X17583014Y20071522D02*
X17583014Y20383903D01*
X17583014Y20383903D02*
X17543966Y20461998D01*
X17543966Y20461998D02*
X17504919Y20501045D01*
X17504919Y20501045D02*
X17426823Y20540093D01*
X17426823Y20540093D02*
X17309681Y20540093D01*
X17309681Y20540093D02*
X17231585Y20501045D01*
X17231585Y20501045D02*
X17192538Y20461998D01*
X17192538Y20461998D02*
X17153490Y20383903D01*
X17153490Y20383903D02*
X17153490Y20071522D01*
X17504919Y20852474D02*
X17543966Y20891522D01*
X17543966Y20891522D02*
X17583014Y20969617D01*
X17583014Y20969617D02*
X17583014Y21164855D01*
X17583014Y21164855D02*
X17543966Y21242950D01*
X17543966Y21242950D02*
X17504919Y21281998D01*
X17504919Y21281998D02*
X17426823Y21321045D01*
X17426823Y21321045D02*
X17348728Y21321045D01*
X17348728Y21321045D02*
X17231585Y21281998D01*
X17231585Y21281998D02*
X16763014Y20813426D01*
X16763014Y20813426D02*
X16763014Y21321045D01*
D10*
X8550057Y66571429D02*
X8502438Y66666667D01*
X8502438Y66666667D02*
X8407200Y66761905D01*
X8407200Y66761905D02*
X8264342Y66904762D01*
X8264342Y66904762D02*
X8216723Y67000000D01*
X8216723Y67000000D02*
X8216723Y67095238D01*
X8454819Y67047619D02*
X8407200Y67142857D01*
X8407200Y67142857D02*
X8311961Y67238095D01*
X8311961Y67238095D02*
X8121485Y67285714D01*
X8121485Y67285714D02*
X7788152Y67285714D01*
X7788152Y67285714D02*
X7597676Y67238095D01*
X7597676Y67238095D02*
X7502438Y67142857D01*
X7502438Y67142857D02*
X7454819Y67047619D01*
X7454819Y67047619D02*
X7454819Y66857143D01*
X7454819Y66857143D02*
X7502438Y66761905D01*
X7502438Y66761905D02*
X7597676Y66666667D01*
X7597676Y66666667D02*
X7788152Y66619048D01*
X7788152Y66619048D02*
X8121485Y66619048D01*
X8121485Y66619048D02*
X8311961Y66666667D01*
X8311961Y66666667D02*
X8407200Y66761905D01*
X8407200Y66761905D02*
X8454819Y66857143D01*
X8454819Y66857143D02*
X8454819Y67047619D01*
X8454819Y65666667D02*
X8454819Y66238095D01*
X8454819Y65952381D02*
X7454819Y65952381D01*
X7454819Y65952381D02*
X7597676Y66047619D01*
X7597676Y66047619D02*
X7692914Y66142857D01*
X7692914Y66142857D02*
X7740533Y66238095D01*
X7454819Y65333333D02*
X7454819Y64714286D01*
X7454819Y64714286D02*
X7835771Y65047619D01*
X7835771Y65047619D02*
X7835771Y64904762D01*
X7835771Y64904762D02*
X7883390Y64809524D01*
X7883390Y64809524D02*
X7931009Y64761905D01*
X7931009Y64761905D02*
X8026247Y64714286D01*
X8026247Y64714286D02*
X8264342Y64714286D01*
X8264342Y64714286D02*
X8359580Y64761905D01*
X8359580Y64761905D02*
X8407200Y64809524D01*
X8407200Y64809524D02*
X8454819Y64904762D01*
X8454819Y64904762D02*
X8454819Y65190476D01*
X8454819Y65190476D02*
X8407200Y65285714D01*
X8407200Y65285714D02*
X8359580Y65333333D01*
D13*
G04 #@! TO.C,M5*
X85425000Y67200000D02*
X99325000Y67200000D01*
X99325000Y67200000D02*
X99325000Y39700000D01*
X99325000Y39700000D02*
X85425000Y39700000D01*
X85425000Y39700000D02*
X85425000Y67200000D01*
D14*
G04 #@! TO.C,P1*
X32670000Y56170000D02*
X32670000Y58830000D01*
X32964462Y58830000D02*
X32670000Y58830000D01*
X32975627Y56170000D02*
X32670000Y56170000D01*
X35024373Y58830000D02*
X35330000Y58830000D01*
X35035538Y56170000D02*
X35330000Y56170000D01*
X35330000Y58830000D02*
X35330000Y56170000D01*
G04 #@! TO.C,P2*
X29670000Y56170000D02*
X29670000Y58830000D01*
X29964462Y58830000D02*
X29670000Y58830000D01*
X29975627Y56170000D02*
X29670000Y56170000D01*
X32024373Y58830000D02*
X32330000Y58830000D01*
X32035538Y56170000D02*
X32330000Y56170000D01*
X32330000Y58830000D02*
X32330000Y56170000D01*
G04 #@! TO.C,F4*
X20880000Y14600000D02*
X20880000Y19450000D01*
X18880000Y14600000D02*
X18880000Y19450000D01*
X20880000Y19450000D02*
G75*
G03*
X18880000Y19450000I-1000000J0D01*
G01*
X18880000Y14550000D02*
G75*
G03*
X20880000Y14550000I1000000J0D01*
G01*
G04 #@! TO.C,P4*
X61170000Y6170000D02*
X61170000Y8830000D01*
X61464462Y8830000D02*
X61170000Y8830000D01*
X61475627Y6170000D02*
X61170000Y6170000D01*
X63524373Y8830000D02*
X63830000Y8830000D01*
X63535538Y6170000D02*
X63830000Y6170000D01*
X63830000Y8830000D02*
X63830000Y6170000D01*
G04 #@! TO.C,P5*
X42170000Y30170000D02*
X42170000Y32830000D01*
X42464462Y32830000D02*
X42170000Y32830000D01*
X42475627Y30170000D02*
X42170000Y30170000D01*
X44524373Y32830000D02*
X44830000Y32830000D01*
X44535538Y30170000D02*
X44830000Y30170000D01*
X44830000Y32830000D02*
X44830000Y30170000D01*
D13*
G04 #@! TO.C,M3*
X51975000Y77375000D02*
X45575000Y77375000D01*
X42375000Y77375000D02*
X43675000Y77375000D01*
X42375000Y77375000D02*
X42375000Y62375000D01*
X51975000Y62975000D02*
X51975000Y77375000D01*
X42375000Y62375000D02*
X47475000Y62375000D01*
D14*
G04 #@! TO.C,F3*
X23500000Y14600000D02*
X23500000Y19450000D01*
X21500000Y14600000D02*
X21500000Y19450000D01*
X23500000Y19450000D02*
G75*
G03*
X21500000Y19450000I-1000000J0D01*
G01*
X21500000Y14550000D02*
G75*
G03*
X23500000Y14550000I1000000J0D01*
G01*
D13*
G04 #@! TO.C,M2*
X79675002Y81925000D02*
X79675002Y72825000D01*
X76574999Y81925000D02*
X77575001Y81925000D01*
X76574999Y81925000D02*
X76574999Y72825000D01*
G04 #@! TO.C,M1*
X24724999Y15324999D02*
X24724999Y18525002D01*
X24724999Y3224999D02*
X24724999Y13625001D01*
X24724999Y1324999D02*
X24724999Y1624999D01*
X24724999Y1324999D02*
X40124999Y1324999D01*
X26224999Y21924997D02*
X41524998Y21924999D01*
X41524996Y15225001D02*
X41524996Y20025001D01*
X41524996Y9024999D02*
X41524996Y11724999D01*
X41524996Y6325001D02*
X41524996Y7425004D01*
X41524996Y2774999D02*
X41525001Y4324999D01*
X41524998Y21625001D02*
X41524998Y21924999D01*
G04 #@! TO.C,M7*
X37572827Y54575001D02*
X37611674Y43400001D01*
X31875005Y54575001D02*
X37572827Y54575001D01*
X31875005Y54575001D02*
X31599999Y54299997D01*
X30775000Y54299997D02*
X31599999Y54299997D01*
X30775000Y54299997D02*
X30725000Y54243795D01*
X30725000Y54243795D02*
X30725000Y43400001D01*
X30718797Y43400001D02*
X37611674Y43400001D01*
D14*
G04 #@! TO.C,F1*
X82500000Y75100000D02*
X82500000Y79950000D01*
X80500000Y75100000D02*
X80500000Y79950000D01*
X82500000Y79950000D02*
G75*
G03*
X80500000Y79950000I-1000000J0D01*
G01*
X80500000Y75050000D02*
G75*
G03*
X82500000Y75050000I1000000J0D01*
G01*
G04 #@! TO.C,G3*
X38484000Y61136000D02*
X45596000Y61136000D01*
X45596000Y61136000D02*
X45596000Y48944000D01*
X45596000Y48944000D02*
X38484000Y48944000D01*
X38484000Y48944000D02*
X38484000Y61136000D01*
G04 #@! TO.C,P3*
X61170000Y1170000D02*
X61170000Y3830000D01*
X61464462Y3830000D02*
X61170000Y3830000D01*
X61475627Y1170000D02*
X61170000Y1170000D01*
X63524373Y3830000D02*
X63830000Y3830000D01*
X63535538Y1170000D02*
X63830000Y1170000D01*
X63830000Y3830000D02*
X63830000Y1170000D01*
D13*
G04 #@! TO.C,M6*
X79400010Y12300010D02*
X45600000Y12300010D01*
X79400010Y48100000D02*
X79400010Y12300010D01*
X79400010Y48100000D02*
X45600000Y48100000D01*
X45600000Y48100000D02*
X45600000Y12300010D01*
G04 #@! TO.C,M4*
X40925000Y77375000D02*
X34525000Y77375000D01*
X31325000Y77375000D02*
X32625000Y77375000D01*
X31325000Y77375000D02*
X31325000Y62375000D01*
X40925000Y62975000D02*
X40925000Y77375000D01*
X31325000Y62375000D02*
X36425000Y62375000D01*
D14*
G04 #@! TO.C,F2*
X23400000Y23778024D02*
X18550000Y23778024D01*
X23400000Y21778024D02*
X18550000Y21778024D01*
X18550000Y23778024D02*
G75*
G03*
X18550000Y21778024I0J-1000000D01*
G01*
X23450000Y21778024D02*
G75*
G03*
X23450000Y23778024I0J1000000D01*
G01*
G04 #@! TO.C,P6*
X42170000Y3170000D02*
X42170000Y5830000D01*
X42464462Y5830000D02*
X42170000Y5830000D01*
X42475627Y3170000D02*
X42170000Y3170000D01*
X44524373Y5830000D02*
X44830000Y5830000D01*
X44535538Y3170000D02*
X44830000Y3170000D01*
X44830000Y5830000D02*
X44830000Y3170000D01*
G04 #@! TO.C,G4*
X46104000Y61136000D02*
X53216000Y61136000D01*
X53216000Y61136000D02*
X53216000Y48944000D01*
X53216000Y48944000D02*
X46104000Y48944000D01*
X46104000Y48944000D02*
X46104000Y61136000D01*
G04 #@! TO.C,D8*
X59060000Y71562500D02*
X59060000Y72212500D01*
X59060000Y71562500D02*
X59060000Y70912500D01*
X55940000Y71562500D02*
X55940000Y73237500D01*
X55940000Y71562500D02*
X55940000Y70912500D01*
D13*
G04 #@! TO.C,C10*
X12625000Y14960000D02*
X11625000Y14960000D01*
D14*
G04 #@! TO.C,D4*
X18000000Y75750000D02*
X18000000Y79650000D01*
X20000000Y75750000D02*
X18000000Y75750000D01*
X20000000Y75750000D02*
X20000000Y79650000D01*
D12*
X19000000Y77450000D02*
X19000000Y77650000D01*
X18650000Y77650000D02*
X19350000Y77650000D01*
X19000000Y77650000D02*
X18650000Y78350000D01*
X19000000Y77650000D02*
X19350000Y78350000D01*
X18650000Y78350000D02*
X19350000Y78350000D01*
X19000000Y78350000D02*
X19000000Y78650000D01*
D15*
G04 #@! TO.C,BT1*
X84888000Y18280006D02*
X89768889Y18280006D01*
X84888000Y18280006D02*
X84888000Y21436032D01*
X94231110Y18280006D02*
X99112000Y18280006D01*
X99112000Y18280006D02*
X99112000Y21436032D01*
X94540000Y20572458D02*
X94540000Y22604458D01*
X84888000Y21436032D02*
X86088302Y21436032D01*
X98170600Y21436032D02*
X99112000Y21436032D01*
X93524000Y21588458D02*
X95556000Y21588458D01*
X94540000Y28319458D02*
X94540000Y29843458D01*
X89876081Y32371548D02*
G75*
G03*
X89702548Y18684629I2123901J-6871488D01*
G01*
X94175107Y18589026D02*
G75*
G03*
X94154049Y32417673I-2175073J6911027D01*
G01*
D16*
G04 #@! TO.C,R31*
X4629160Y37798944D02*
X4629149Y38198943D01*
X5374995Y37800000D02*
X5374985Y38200000D01*
D13*
G04 #@! TO.C,C7*
X6625000Y14960000D02*
X5625000Y14960000D01*
G04 #@! TO.C,C33*
X96650014Y34000000D02*
X97399999Y34000000D01*
D14*
G04 #@! TO.C,C29*
X57607836Y74202500D02*
X57392164Y74202500D01*
X57607836Y74922500D02*
X57392164Y74922500D01*
D16*
G04 #@! TO.C,R34*
X7129160Y37798944D02*
X7129149Y38198943D01*
X7874995Y37800000D02*
X7874985Y38200000D01*
G04 #@! TO.C,R1*
X37893941Y80295840D02*
X38293940Y80295851D01*
X37894997Y79550005D02*
X38294997Y79550015D01*
D13*
G04 #@! TO.C,C17*
X16100000Y9500000D02*
X17100000Y9500000D01*
D14*
G04 #@! TO.C,R20*
X23864564Y60765000D02*
X19510436Y60765000D01*
X23864564Y64185000D02*
X19510436Y64185000D01*
D13*
G04 #@! TO.C,C3*
X7625000Y18960000D02*
X8625000Y18960000D01*
G04 #@! TO.C,C23*
X19100000Y5500000D02*
X18100000Y5500000D01*
G04 #@! TO.C,C1*
X3625000Y18960000D02*
X4625000Y18960000D01*
D14*
G04 #@! TO.C,R26*
X23864564Y39765000D02*
X19510436Y39765000D01*
X23864564Y43185000D02*
X19510436Y43185000D01*
G04 #@! TO.C,Q18*
X6910000Y43900000D02*
X6910000Y49910000D01*
X90000Y46150000D02*
X90000Y49910000D01*
X90000Y49910000D02*
X1350000Y49910000D01*
X6910000Y49910000D02*
X5650000Y49910000D01*
D13*
G04 #@! TO.C,C14*
X10100000Y9500000D02*
X11100000Y9500000D01*
D14*
G04 #@! TO.C,Q15*
X6910000Y52900000D02*
X6910000Y58910000D01*
X90000Y55150000D02*
X90000Y58910000D01*
X90000Y58910000D02*
X1350000Y58910000D01*
X6910000Y58910000D02*
X5650000Y58910000D01*
D13*
G04 #@! TO.C,C19*
X11100000Y5500000D02*
X10100000Y5500000D01*
D14*
G04 #@! TO.C,R27*
X23864564Y32765000D02*
X19510436Y32765000D01*
X23864564Y36185000D02*
X19510436Y36185000D01*
G04 #@! TO.C,R21*
X23864564Y53765000D02*
X19510436Y53765000D01*
X23864564Y57185000D02*
X19510436Y57185000D01*
D13*
G04 #@! TO.C,C4*
X9625000Y18960000D02*
X10625000Y18960000D01*
D16*
G04 #@! TO.C,R10*
X19298944Y67370840D02*
X19698943Y67370851D01*
X19300000Y66625005D02*
X19700000Y66625015D01*
D14*
G04 #@! TO.C,D2*
X18000000Y68250000D02*
X18000000Y72150000D01*
X20000000Y68250000D02*
X18000000Y68250000D01*
X20000000Y68250000D02*
X20000000Y72150000D01*
D12*
X19000000Y69950000D02*
X19000000Y70150000D01*
X18650000Y70150000D02*
X19350000Y70150000D01*
X19000000Y70150000D02*
X18650000Y70850000D01*
X19000000Y70150000D02*
X19350000Y70850000D01*
X18650000Y70850000D02*
X19350000Y70850000D01*
X19000000Y70850000D02*
X19000000Y71150000D01*
D10*
G04 #@! TO.C,D1*
X86272003Y16574995D02*
X86272003Y16153995D01*
X86272003Y16574995D02*
X89200000Y16574995D01*
X86272003Y16254000D02*
X86400000Y16254000D01*
X86272003Y15846005D02*
X86272003Y15400000D01*
X86272003Y15746000D02*
X86399003Y15746000D01*
X86272003Y15400000D02*
X89200001Y15400000D01*
X86400000Y16550000D02*
X86399003Y16153995D01*
X86400000Y15846005D02*
X86400000Y15400000D01*
D12*
X87400000Y16000000D02*
X87600000Y16000000D01*
X87600000Y16350000D02*
X87600000Y15650000D01*
X87600000Y16000000D02*
X88300000Y16350000D01*
X87600000Y16000000D02*
X88300000Y15650000D01*
X88300000Y16350000D02*
X88300000Y15650000D01*
X88300000Y16000000D02*
X88600000Y16000000D01*
D16*
G04 #@! TO.C,R19*
X27426056Y48104160D02*
X27026057Y48104149D01*
X27425000Y48849995D02*
X27025000Y48849985D01*
G04 #@! TO.C,R33*
X32370840Y28201056D02*
X32370851Y27801057D01*
X31625005Y28200000D02*
X31625015Y27800000D01*
D13*
G04 #@! TO.C,C21*
X15100000Y5500000D02*
X14100000Y5500000D01*
D14*
G04 #@! TO.C,D6*
X6450000Y77650000D02*
X5525000Y77650000D01*
X7560000Y77000000D02*
X7560000Y77650000D01*
X7560000Y77000000D02*
X7560000Y76350000D01*
X4440000Y77000000D02*
X4440000Y78675000D01*
X4440000Y77000000D02*
X4440000Y76350000D01*
X7550000Y76250000D02*
X6550000Y76250000D01*
X5500000Y76250000D02*
X4440000Y76250000D01*
D16*
G04 #@! TO.C,R23*
X27426056Y41104160D02*
X27026057Y41104149D01*
X27425000Y41849995D02*
X27025000Y41849985D01*
D14*
G04 #@! TO.C,Q6*
X1350000Y72950000D02*
X1350000Y72025000D01*
X2000000Y74060000D02*
X1350000Y74060000D01*
X2000000Y74060000D02*
X2650000Y74060000D01*
X2000000Y70940000D02*
X325000Y70940000D01*
X2000000Y70940000D02*
X2650000Y70940000D01*
X2750000Y74050000D02*
X2750000Y73050000D01*
X2750000Y72000000D02*
X2750000Y70940000D01*
D16*
G04 #@! TO.C,R7*
X48629160Y4177262D02*
X48629149Y4577261D01*
X49374995Y4178318D02*
X49374985Y4578318D01*
G04 #@! TO.C,R24*
X27426056Y34104160D02*
X27026057Y34104149D01*
X27425000Y34849995D02*
X27025000Y34849985D01*
G04 #@! TO.C,R16*
X3629160Y81598944D02*
X3629149Y81998943D01*
X4374995Y81600000D02*
X4374985Y82000000D01*
D14*
G04 #@! TO.C,Q1*
X21900000Y66590000D02*
X27910000Y66590000D01*
X24150000Y73410000D02*
X27910000Y73410000D01*
X27910000Y73410000D02*
X27910000Y72150000D01*
X27910000Y66590000D02*
X27910000Y67850000D01*
D16*
G04 #@! TO.C,R30*
X36129160Y30798944D02*
X36129149Y31198943D01*
X36874995Y30800000D02*
X36874985Y31200000D01*
D14*
G04 #@! TO.C,R22*
X23864564Y46765000D02*
X19510436Y46765000D01*
X23864564Y50185000D02*
X19510436Y50185000D01*
D16*
G04 #@! TO.C,R25*
X27426056Y27104160D02*
X27026057Y27104149D01*
X27425000Y27849995D02*
X27025000Y27849985D01*
D13*
G04 #@! TO.C,C16*
X14100000Y9500000D02*
X15100000Y9500000D01*
D16*
G04 #@! TO.C,R17*
X27426056Y62104160D02*
X27026057Y62104149D01*
X27425000Y62849995D02*
X27025000Y62849985D01*
D13*
G04 #@! TO.C,C22*
X17100000Y5500000D02*
X16100000Y5500000D01*
D16*
G04 #@! TO.C,R8*
X51129160Y4177262D02*
X51129149Y4577261D01*
X51874995Y4178318D02*
X51874985Y4578318D01*
G04 #@! TO.C,R3*
X15629160Y17798944D02*
X15629149Y18198943D01*
X16374995Y17800000D02*
X16374985Y18200000D01*
G04 #@! TO.C,R15*
X6129160Y81598944D02*
X6129149Y81998943D01*
X6874995Y81600000D02*
X6874985Y82000000D01*
D14*
G04 #@! TO.C,Q3*
X21900000Y74090000D02*
X27910000Y74090000D01*
X24150000Y80910000D02*
X27910000Y80910000D01*
X27910000Y80910000D02*
X27910000Y79650000D01*
X27910000Y74090000D02*
X27910000Y75350000D01*
G04 #@! TO.C,Q5*
X1350000Y76450000D02*
X1350000Y75525000D01*
X2000000Y77560000D02*
X1350000Y77560000D01*
X2000000Y77560000D02*
X2650000Y77560000D01*
X2000000Y74440000D02*
X325000Y74440000D01*
X2000000Y74440000D02*
X2650000Y74440000D01*
X2750000Y77550000D02*
X2750000Y76550000D01*
X2750000Y75500000D02*
X2750000Y74440000D01*
D13*
G04 #@! TO.C,C5*
X11625000Y18960000D02*
X12625000Y18960000D01*
D16*
G04 #@! TO.C,R32*
X31629160Y30798944D02*
X31629149Y31198943D01*
X32374995Y30800000D02*
X32374985Y31200000D01*
G04 #@! TO.C,R29*
X2129160Y37798944D02*
X2129149Y38198943D01*
X2874995Y37800000D02*
X2874985Y38200000D01*
G04 #@! TO.C,R18*
X27426056Y55104160D02*
X27026057Y55104149D01*
X27425000Y55849995D02*
X27025000Y55849985D01*
D13*
G04 #@! TO.C,C15*
X12100000Y9500000D02*
X13100000Y9500000D01*
D14*
G04 #@! TO.C,R28*
X23864564Y25765000D02*
X19510436Y25765000D01*
X23864564Y29185000D02*
X19510436Y29185000D01*
D13*
G04 #@! TO.C,C8*
X8625000Y14960000D02*
X7625000Y14960000D01*
D14*
G04 #@! TO.C,Q14*
X37910000Y33400000D02*
X37910000Y39410000D01*
X31090000Y35650000D02*
X31090000Y39410000D01*
X31090000Y39410000D02*
X32350000Y39410000D01*
X37910000Y39410000D02*
X36650000Y39410000D01*
D13*
G04 #@! TO.C,C9*
X10625000Y14960000D02*
X9625000Y14960000D01*
G04 #@! TO.C,C6*
X4625000Y14960000D02*
X3625000Y14960000D01*
D14*
G04 #@! TO.C,D7*
X5350000Y72950000D02*
X5350000Y72025000D01*
X6000000Y74060000D02*
X5350000Y74060000D01*
X6000000Y74060000D02*
X6650000Y74060000D01*
X6000000Y70940000D02*
X4325000Y70940000D01*
X6000000Y70940000D02*
X6650000Y70940000D01*
X6750000Y74050000D02*
X6750000Y73050000D01*
X6750000Y72000000D02*
X6750000Y70940000D01*
D13*
G04 #@! TO.C,C2*
X5625000Y18960000D02*
X6625000Y18960000D01*
G04 #@! TO.C,C18*
X18100000Y9500000D02*
X19100000Y9500000D01*
D16*
G04 #@! TO.C,R12*
X18798944Y74870840D02*
X19198943Y74870851D01*
X18800000Y74125005D02*
X19200000Y74125015D01*
D13*
G04 #@! TO.C,C20*
X13100000Y5500000D02*
X12100000Y5500000D01*
D16*
G04 #@! TO.C,R2*
X15629160Y20798944D02*
X15629149Y21198943D01*
X16374995Y20800000D02*
X16374985Y21200000D01*
D14*
G04 #@! TO.C,Q13*
X6910000Y61900000D02*
X6910000Y67910000D01*
X90000Y64150000D02*
X90000Y67910000D01*
X90000Y67910000D02*
X1350000Y67910000D01*
X6910000Y67910000D02*
X5650000Y67910000D01*
G04 #@! TD*
M02*
