G04 #@! TF.GenerationSoftware,KiCad,Pcbnew,7.0.10-7.0.10~ubuntu22.04.1*
G04 #@! TF.CreationDate,2024-01-12T02:42:41+00:00*
G04 #@! TF.ProjectId,uaefi,75616566-692e-46b6-9963-61645f706362,rev?*
G04 #@! TF.SameCoordinates,Original*
G04 #@! TF.FileFunction,Soldermask,Top*
G04 #@! TF.FilePolarity,Negative*
%FSLAX46Y46*%
G04 Gerber Fmt 4.6, Leading zero omitted, Abs format (unit mm)*
G04 Created by KiCad (PCBNEW 7.0.10-7.0.10~ubuntu22.04.1) date 2024-01-12 02:42:41*
%MOMM*%
%LPD*%
G01*
G04 APERTURE LIST*
%ADD10C,0.120000*%
%ADD11C,3.000000*%
%ADD12O,2.700000X3.700000*%
%ADD13C,1.700000*%
%ADD14R,2.000000X1.500000*%
%ADD15R,2.000000X3.800000*%
%ADD16C,0.800000*%
%ADD17C,6.400000*%
%ADD18C,1.524000*%
%ADD19O,1.850000X1.700000*%
%ADD20R,1.500000X2.000000*%
%ADD21R,3.800000X2.000000*%
%ADD22C,0.600000*%
%ADD23R,1.100000X1.100000*%
%ADD24C,1.100000*%
%ADD25O,2.400000X1.100000*%
%ADD26C,1.500000*%
%ADD27O,0.250000X0.499999*%
%ADD28O,0.499999X0.250000*%
%ADD29C,0.599999*%
%ADD30O,3.700000X2.700000*%
%ADD31R,1.300000X1.000000*%
%ADD32R,2.000000X0.650000*%
%ADD33R,4.500000X8.100000*%
%ADD34C,0.650000*%
%ADD35R,0.300000X1.150000*%
%ADD36O,1.000000X2.100000*%
%ADD37O,1.000000X1.600000*%
%ADD38R,1.700000X1.700000*%
%ADD39O,1.700000X1.700000*%
%ADD40C,3.302000*%
%ADD41R,0.690000X1.350000*%
G04 APERTURE END LIST*
G04 #@! TO.C,U5*
D10*
X99150000Y7225000D02*
X86150000Y7225000D01*
X86150000Y14225000D01*
X99150000Y14225000D01*
X99150000Y7225000D01*
G36*
X99150000Y7225000D02*
G01*
X86150000Y7225000D01*
X86150000Y14225000D01*
X99150000Y14225000D01*
X99150000Y7225000D01*
G37*
G04 #@! TD*
G04 #@! TO.C,C24*
G36*
G01*
X7260000Y10215001D02*
X7940000Y10215001D01*
G75*
G02*
X8025000Y10130001I0J-85000D01*
G01*
X8025000Y9450001D01*
G75*
G02*
X7940000Y9365001I-85000J0D01*
G01*
X7260000Y9365001D01*
G75*
G02*
X7175000Y9450001I0J85000D01*
G01*
X7175000Y10130001D01*
G75*
G02*
X7260000Y10215001I85000J0D01*
G01*
G37*
G36*
G01*
X7260000Y8634999D02*
X7940000Y8634999D01*
G75*
G02*
X8025000Y8549999I0J-85000D01*
G01*
X8025000Y7869999D01*
G75*
G02*
X7940000Y7784999I-85000J0D01*
G01*
X7260000Y7784999D01*
G75*
G02*
X7175000Y7869999I0J85000D01*
G01*
X7175000Y8549999D01*
G75*
G02*
X7260000Y8634999I85000J0D01*
G01*
G37*
G04 #@! TD*
G04 #@! TO.C,Q10*
G36*
G01*
X28800000Y39570000D02*
X28800000Y38870000D01*
G75*
G02*
X28550000Y38620000I-250000J0D01*
G01*
X26850000Y38620000D01*
G75*
G02*
X26600000Y38870000I0J250000D01*
G01*
X26600000Y39570000D01*
G75*
G02*
X26850000Y39820000I250000J0D01*
G01*
X28550000Y39820000D01*
G75*
G02*
X28800000Y39570000I0J-250000D01*
G01*
G37*
G36*
G01*
X24600000Y44150003D02*
X24600000Y38849997D01*
G75*
G02*
X24350003Y38600000I-249997J0D01*
G01*
X18449997Y38600000D01*
G75*
G02*
X18200000Y38849997I0J249997D01*
G01*
X18200000Y44150003D01*
G75*
G02*
X18449997Y44400000I249997J0D01*
G01*
X24350003Y44400000D01*
G75*
G02*
X24600000Y44150003I0J-249997D01*
G01*
G37*
G36*
G01*
X28800000Y44130000D02*
X28800000Y43430000D01*
G75*
G02*
X28550000Y43180000I-250000J0D01*
G01*
X26850000Y43180000D01*
G75*
G02*
X26600000Y43430000I0J250000D01*
G01*
X26600000Y44130000D01*
G75*
G02*
X26850000Y44380000I250000J0D01*
G01*
X28550000Y44380000D01*
G75*
G02*
X28800000Y44130000I0J-250000D01*
G01*
G37*
G04 #@! TD*
D11*
G04 #@! TO.C,J10*
X60300000Y98025000D03*
X89700000Y98025000D03*
G36*
G01*
X58950000Y89125001D02*
X58950000Y92324999D01*
G75*
G02*
X59200001Y92575000I250001J0D01*
G01*
X61399999Y92575000D01*
G75*
G02*
X61650000Y92324999I0J-250001D01*
G01*
X61650000Y89125001D01*
G75*
G02*
X61399999Y88875000I-250001J0D01*
G01*
X59200001Y88875000D01*
G75*
G02*
X58950000Y89125001I0J250001D01*
G01*
G37*
D12*
X64500000Y90725000D03*
X68700000Y90725000D03*
X72900000Y90725000D03*
X77100000Y90725000D03*
X81300000Y90725000D03*
X85500000Y90725000D03*
X89700000Y90725000D03*
X60300000Y85225000D03*
X64500000Y85225000D03*
X68700000Y85225000D03*
X72900000Y85225000D03*
X77100000Y85225000D03*
X81300000Y85225000D03*
X85500000Y85225000D03*
X89700000Y85225000D03*
G04 #@! TD*
D13*
G04 #@! TO.C,P8*
X83200000Y19300000D03*
G04 #@! TD*
D11*
G04 #@! TO.C,J2*
X10600000Y98025000D03*
X48400000Y98025000D03*
G36*
G01*
X9250000Y89125001D02*
X9250000Y92324999D01*
G75*
G02*
X9500001Y92575000I250001J0D01*
G01*
X11699999Y92575000D01*
G75*
G02*
X11950000Y92324999I0J-250001D01*
G01*
X11950000Y89125001D01*
G75*
G02*
X11699999Y88875000I-250001J0D01*
G01*
X9500001Y88875000D01*
G75*
G02*
X9250000Y89125001I0J250001D01*
G01*
G37*
D12*
X14800000Y90725000D03*
X19000000Y90725000D03*
X23200000Y90725000D03*
X27400000Y90725000D03*
X31600000Y90725000D03*
X35800000Y90725000D03*
X40000000Y90725000D03*
X44200000Y90725000D03*
X48400000Y90725000D03*
X10600000Y85225000D03*
X14800000Y85225000D03*
X19000000Y85225000D03*
X23200000Y85225000D03*
X27400000Y85225000D03*
X31600000Y85225000D03*
X35800000Y85225000D03*
X40000000Y85225000D03*
X44200000Y85225000D03*
X48400000Y85225000D03*
G04 #@! TD*
G04 #@! TO.C,Q7*
G36*
G01*
X28800000Y60570000D02*
X28800000Y59870000D01*
G75*
G02*
X28550000Y59620000I-250000J0D01*
G01*
X26850000Y59620000D01*
G75*
G02*
X26600000Y59870000I0J250000D01*
G01*
X26600000Y60570000D01*
G75*
G02*
X26850000Y60820000I250000J0D01*
G01*
X28550000Y60820000D01*
G75*
G02*
X28800000Y60570000I0J-250000D01*
G01*
G37*
G36*
G01*
X24600000Y65150003D02*
X24600000Y59849997D01*
G75*
G02*
X24350003Y59600000I-249997J0D01*
G01*
X18449997Y59600000D01*
G75*
G02*
X18200000Y59849997I0J249997D01*
G01*
X18200000Y65150003D01*
G75*
G02*
X18449997Y65400000I249997J0D01*
G01*
X24350003Y65400000D01*
G75*
G02*
X24600000Y65150003I0J-249997D01*
G01*
G37*
G36*
G01*
X28800000Y65130000D02*
X28800000Y64430000D01*
G75*
G02*
X28550000Y64180000I-250000J0D01*
G01*
X26850000Y64180000D01*
G75*
G02*
X26600000Y64430000I0J250000D01*
G01*
X26600000Y65130000D01*
G75*
G02*
X26850000Y65380000I250000J0D01*
G01*
X28550000Y65380000D01*
G75*
G02*
X28800000Y65130000I0J-250000D01*
G01*
G37*
G04 #@! TD*
G04 #@! TO.C,Q8*
G36*
G01*
X28800000Y53570000D02*
X28800000Y52870000D01*
G75*
G02*
X28550000Y52620000I-250000J0D01*
G01*
X26850000Y52620000D01*
G75*
G02*
X26600000Y52870000I0J250000D01*
G01*
X26600000Y53570000D01*
G75*
G02*
X26850000Y53820000I250000J0D01*
G01*
X28550000Y53820000D01*
G75*
G02*
X28800000Y53570000I0J-250000D01*
G01*
G37*
G36*
G01*
X24600000Y58150003D02*
X24600000Y52849997D01*
G75*
G02*
X24350003Y52600000I-249997J0D01*
G01*
X18449997Y52600000D01*
G75*
G02*
X18200000Y52849997I0J249997D01*
G01*
X18200000Y58150003D01*
G75*
G02*
X18449997Y58400000I249997J0D01*
G01*
X24350003Y58400000D01*
G75*
G02*
X24600000Y58150003I0J-249997D01*
G01*
G37*
G36*
G01*
X28800000Y58130000D02*
X28800000Y57430000D01*
G75*
G02*
X28550000Y57180000I-250000J0D01*
G01*
X26850000Y57180000D01*
G75*
G02*
X26600000Y57430000I0J250000D01*
G01*
X26600000Y58130000D01*
G75*
G02*
X26850000Y58380000I250000J0D01*
G01*
X28550000Y58380000D01*
G75*
G02*
X28800000Y58130000I0J-250000D01*
G01*
G37*
G04 #@! TD*
D13*
G04 #@! TO.C,P1*
X32000000Y57500000D03*
G04 #@! TD*
G04 #@! TO.C,C26*
G36*
G01*
X23260000Y6715001D02*
X23940000Y6715001D01*
G75*
G02*
X24025000Y6630001I0J-85000D01*
G01*
X24025000Y5950001D01*
G75*
G02*
X23940000Y5865001I-85000J0D01*
G01*
X23260000Y5865001D01*
G75*
G02*
X23175000Y5950001I0J85000D01*
G01*
X23175000Y6630001D01*
G75*
G02*
X23260000Y6715001I85000J0D01*
G01*
G37*
G36*
G01*
X23260000Y5134999D02*
X23940000Y5134999D01*
G75*
G02*
X24025000Y5049999I0J-85000D01*
G01*
X24025000Y4369999D01*
G75*
G02*
X23940000Y4284999I-85000J0D01*
G01*
X23260000Y4284999D01*
G75*
G02*
X23175000Y4369999I0J85000D01*
G01*
X23175000Y5049999D01*
G75*
G02*
X23260000Y5134999I85000J0D01*
G01*
G37*
G04 #@! TD*
D14*
G04 #@! TO.C,Q2*
X22850000Y79800000D03*
X22850000Y77500000D03*
X22850000Y75200000D03*
D15*
X29150000Y77500000D03*
G04 #@! TD*
G04 #@! TO.C,R1*
G36*
G01*
X36082497Y80315000D02*
X36082497Y79535000D01*
G75*
G02*
X36012497Y79465000I-70000J0D01*
G01*
X35452497Y79465000D01*
G75*
G02*
X35382497Y79535000I0J70000D01*
G01*
X35382497Y80315000D01*
G75*
G02*
X35452497Y80385000I70000J0D01*
G01*
X36012497Y80385000D01*
G75*
G02*
X36082497Y80315000I0J-70000D01*
G01*
G37*
G36*
G01*
X34482497Y80315000D02*
X34482497Y79535000D01*
G75*
G02*
X34412497Y79465000I-70000J0D01*
G01*
X33852497Y79465000D01*
G75*
G02*
X33782497Y79535000I0J70000D01*
G01*
X33782497Y80315000D01*
G75*
G02*
X33852497Y80385000I70000J0D01*
G01*
X34412497Y80385000D01*
G75*
G02*
X34482497Y80315000I0J-70000D01*
G01*
G37*
G04 #@! TD*
D13*
G04 #@! TO.C,P2*
X34900000Y57500000D03*
G04 #@! TD*
G04 #@! TO.C,C13*
G36*
G01*
X16385000Y16175001D02*
X17065000Y16175001D01*
G75*
G02*
X17150000Y16090001I0J-85000D01*
G01*
X17150000Y15410001D01*
G75*
G02*
X17065000Y15325001I-85000J0D01*
G01*
X16385000Y15325001D01*
G75*
G02*
X16300000Y15410001I0J85000D01*
G01*
X16300000Y16090001D01*
G75*
G02*
X16385000Y16175001I85000J0D01*
G01*
G37*
G36*
G01*
X16385000Y14594999D02*
X17065000Y14594999D01*
G75*
G02*
X17150000Y14509999I0J-85000D01*
G01*
X17150000Y13829999D01*
G75*
G02*
X17065000Y13744999I-85000J0D01*
G01*
X16385000Y13744999D01*
G75*
G02*
X16300000Y13829999I0J85000D01*
G01*
X16300000Y14509999D01*
G75*
G02*
X16385000Y14594999I85000J0D01*
G01*
G37*
G04 #@! TD*
D16*
G04 #@! TO.C,H1*
X1100000Y96500000D03*
X1802944Y98197056D03*
X1802944Y94802944D03*
X3500000Y98900000D03*
D17*
X3500000Y96500000D03*
D16*
X3500000Y94100000D03*
X5197056Y98197056D03*
X5197056Y94802944D03*
X5900000Y96500000D03*
G04 #@! TD*
G04 #@! TO.C,H4*
X94100000Y96500000D03*
X94802944Y98197056D03*
X94802944Y94802944D03*
X96500000Y98900000D03*
D17*
X96500000Y96500000D03*
D16*
X96500000Y94100000D03*
X98197056Y98197056D03*
X98197056Y94802944D03*
X98900000Y96500000D03*
G04 #@! TD*
D18*
G04 #@! TO.C,F4*
X18400000Y19450000D03*
G36*
G01*
X17500000Y18105010D02*
X17500000Y18795010D01*
G75*
G02*
X17730000Y19025010I230000J0D01*
G01*
X19070000Y19025010D01*
G75*
G02*
X19300000Y18795010I0J-230000D01*
G01*
X19300000Y18105010D01*
G75*
G02*
X19070000Y17875010I-230000J0D01*
G01*
X17730000Y17875010D01*
G75*
G02*
X17500000Y18105010I0J230000D01*
G01*
G37*
G36*
G01*
X17500000Y15204990D02*
X17500000Y15894990D01*
G75*
G02*
X17730000Y16124990I230000J0D01*
G01*
X19070000Y16124990D01*
G75*
G02*
X19300000Y15894990I0J-230000D01*
G01*
X19300000Y15204990D01*
G75*
G02*
X19070000Y14974990I-230000J0D01*
G01*
X17730000Y14974990D01*
G75*
G02*
X17500000Y15204990I0J230000D01*
G01*
G37*
X18400000Y14550000D03*
G04 #@! TD*
G04 #@! TO.C,C11*
G36*
G01*
X1260000Y18515001D02*
X1940000Y18515001D01*
G75*
G02*
X2025000Y18430001I0J-85000D01*
G01*
X2025000Y17750001D01*
G75*
G02*
X1940000Y17665001I-85000J0D01*
G01*
X1260000Y17665001D01*
G75*
G02*
X1175000Y17750001I0J85000D01*
G01*
X1175000Y18430001D01*
G75*
G02*
X1260000Y18515001I85000J0D01*
G01*
G37*
G36*
G01*
X1260000Y16934999D02*
X1940000Y16934999D01*
G75*
G02*
X2025000Y16849999I0J-85000D01*
G01*
X2025000Y16169999D01*
G75*
G02*
X1940000Y16084999I-85000J0D01*
G01*
X1260000Y16084999D01*
G75*
G02*
X1175000Y16169999I0J85000D01*
G01*
X1175000Y16849999D01*
G75*
G02*
X1260000Y16934999I85000J0D01*
G01*
G37*
G04 #@! TD*
G04 #@! TO.C,J7*
G36*
G01*
X83675000Y2150000D02*
X82325000Y2150000D01*
G75*
G02*
X82075000Y2400000I0J250000D01*
G01*
X82075000Y3600000D01*
G75*
G02*
X82325000Y3850000I250000J0D01*
G01*
X83675000Y3850000D01*
G75*
G02*
X83925000Y3600000I0J-250000D01*
G01*
X83925000Y2400000D01*
G75*
G02*
X83675000Y2150000I-250000J0D01*
G01*
G37*
D19*
X83000000Y5500000D03*
X83000000Y8000000D03*
X83000000Y10500000D03*
X83000000Y13000000D03*
G04 #@! TD*
D20*
G04 #@! TO.C,Q16*
X32200000Y34350000D03*
X34500000Y34350000D03*
X36800000Y34350000D03*
D21*
X34500000Y40650000D03*
G04 #@! TD*
D13*
G04 #@! TO.C,P4*
X62500000Y7500000D03*
G04 #@! TD*
D16*
G04 #@! TO.C,H2*
X1100000Y3500000D03*
X1802944Y5197056D03*
X1802944Y1802944D03*
X3500000Y5900000D03*
D17*
X3500000Y3500000D03*
D16*
X3500000Y1100000D03*
X5197056Y5197056D03*
X5197056Y1802944D03*
X5900000Y3500000D03*
G04 #@! TD*
D22*
G04 #@! TO.C,M3*
X49175000Y62675000D03*
X47975000Y62675000D03*
X50375000Y62675000D03*
X51575000Y62675000D03*
X45115000Y77100000D03*
X44115000Y77100000D03*
G04 #@! TD*
D23*
G04 #@! TO.C,J8*
X59250000Y3100000D03*
D24*
X57500000Y3900000D03*
X59250000Y4700000D03*
X57500000Y5500000D03*
X59250000Y6300000D03*
D25*
X58375000Y1050000D03*
X58375000Y8350000D03*
G04 #@! TD*
D18*
G04 #@! TO.C,F3*
X20600000Y19450000D03*
G36*
G01*
X19700000Y18105010D02*
X19700000Y18795010D01*
G75*
G02*
X19930000Y19025010I230000J0D01*
G01*
X21270000Y19025010D01*
G75*
G02*
X21500000Y18795010I0J-230000D01*
G01*
X21500000Y18105010D01*
G75*
G02*
X21270000Y17875010I-230000J0D01*
G01*
X19930000Y17875010D01*
G75*
G02*
X19700000Y18105010I0J230000D01*
G01*
G37*
G36*
G01*
X19700000Y15204990D02*
X19700000Y15894990D01*
G75*
G02*
X19930000Y16124990I230000J0D01*
G01*
X21270000Y16124990D01*
G75*
G02*
X21500000Y15894990I0J-230000D01*
G01*
X21500000Y15204990D01*
G75*
G02*
X21270000Y14974990I-230000J0D01*
G01*
X19930000Y14974990D01*
G75*
G02*
X19700000Y15204990I0J230000D01*
G01*
G37*
X20600000Y14550000D03*
G04 #@! TD*
D22*
G04 #@! TO.C,M2*
X79574999Y73125000D03*
X78624999Y73125000D03*
X77675001Y73125000D03*
X78674999Y81825000D03*
X79574999Y81825000D03*
G04 #@! TD*
G04 #@! TO.C,C25*
G36*
G01*
X7940000Y4284999D02*
X7260000Y4284999D01*
G75*
G02*
X7175000Y4369999I0J85000D01*
G01*
X7175000Y5049999D01*
G75*
G02*
X7260000Y5134999I85000J0D01*
G01*
X7940000Y5134999D01*
G75*
G02*
X8025000Y5049999I0J-85000D01*
G01*
X8025000Y4369999D01*
G75*
G02*
X7940000Y4284999I-85000J0D01*
G01*
G37*
G36*
G01*
X7940000Y5865001D02*
X7260000Y5865001D01*
G75*
G02*
X7175000Y5950001I0J85000D01*
G01*
X7175000Y6630001D01*
G75*
G02*
X7260000Y6715001I85000J0D01*
G01*
X7940000Y6715001D01*
G75*
G02*
X8025000Y6630001I0J-85000D01*
G01*
X8025000Y5950001D01*
G75*
G02*
X7940000Y5865001I-85000J0D01*
G01*
G37*
G04 #@! TD*
D26*
G04 #@! TO.C,M1*
X40874995Y20824999D03*
X40874995Y14425002D03*
X40874995Y12524999D03*
X40874995Y8224999D03*
D22*
X41324994Y5825002D03*
X41324994Y4825001D03*
D26*
X40874995Y1974999D03*
X25374998Y21275001D03*
X25374998Y19425002D03*
X25374998Y14474999D03*
X25374998Y2425001D03*
G04 #@! TD*
G04 #@! TO.C,Q12*
G36*
G01*
X28800000Y25570000D02*
X28800000Y24870000D01*
G75*
G02*
X28550000Y24620000I-250000J0D01*
G01*
X26850000Y24620000D01*
G75*
G02*
X26600000Y24870000I0J250000D01*
G01*
X26600000Y25570000D01*
G75*
G02*
X26850000Y25820000I250000J0D01*
G01*
X28550000Y25820000D01*
G75*
G02*
X28800000Y25570000I0J-250000D01*
G01*
G37*
G36*
G01*
X24600000Y30150003D02*
X24600000Y24849997D01*
G75*
G02*
X24350003Y24600000I-249997J0D01*
G01*
X18449997Y24600000D01*
G75*
G02*
X18200000Y24849997I0J249997D01*
G01*
X18200000Y30150003D01*
G75*
G02*
X18449997Y30400000I249997J0D01*
G01*
X24350003Y30400000D01*
G75*
G02*
X24600000Y30150003I0J-249997D01*
G01*
G37*
G36*
G01*
X28800000Y30130000D02*
X28800000Y29430000D01*
G75*
G02*
X28550000Y29180000I-250000J0D01*
G01*
X26850000Y29180000D01*
G75*
G02*
X26600000Y29430000I0J250000D01*
G01*
X26600000Y30130000D01*
G75*
G02*
X26850000Y30380000I250000J0D01*
G01*
X28550000Y30380000D01*
G75*
G02*
X28800000Y30130000I0J-250000D01*
G01*
G37*
G04 #@! TD*
D27*
G04 #@! TO.C,M7*
X30900003Y43675005D03*
D28*
X30950001Y54024999D03*
X30950001Y53524998D03*
D29*
X31999999Y46975001D03*
X32524999Y47850003D03*
X33274997Y46674999D03*
X36824998Y46750002D03*
G04 #@! TD*
D14*
G04 #@! TO.C,Q4*
X22850000Y72300000D03*
X22850000Y70000000D03*
X22850000Y67700000D03*
D15*
X29150000Y70000000D03*
G04 #@! TD*
G04 #@! TO.C,R9*
G36*
G01*
X16335000Y19110000D02*
X17115000Y19110000D01*
G75*
G02*
X17185000Y19040000I0J-70000D01*
G01*
X17185000Y18480000D01*
G75*
G02*
X17115000Y18410000I-70000J0D01*
G01*
X16335000Y18410000D01*
G75*
G02*
X16265000Y18480000I0J70000D01*
G01*
X16265000Y19040000D01*
G75*
G02*
X16335000Y19110000I70000J0D01*
G01*
G37*
G36*
G01*
X16335000Y17510000D02*
X17115000Y17510000D01*
G75*
G02*
X17185000Y17440000I0J-70000D01*
G01*
X17185000Y16880000D01*
G75*
G02*
X17115000Y16810000I-70000J0D01*
G01*
X16335000Y16810000D01*
G75*
G02*
X16265000Y16880000I0J70000D01*
G01*
X16265000Y17440000D01*
G75*
G02*
X16335000Y17510000I70000J0D01*
G01*
G37*
G04 #@! TD*
D11*
G04 #@! TO.C,J5*
X1975000Y45200000D03*
X1975000Y78800000D03*
G36*
G01*
X10874999Y43850000D02*
X7675001Y43850000D01*
G75*
G02*
X7425000Y44100001I0J250001D01*
G01*
X7425000Y46299999D01*
G75*
G02*
X7675001Y46550000I250001J0D01*
G01*
X10874999Y46550000D01*
G75*
G02*
X11125000Y46299999I0J-250001D01*
G01*
X11125000Y44100001D01*
G75*
G02*
X10874999Y43850000I-250001J0D01*
G01*
G37*
D30*
X9275000Y49400000D03*
X9275000Y53600000D03*
X9275000Y57800000D03*
X9275000Y62000000D03*
X9275000Y66200000D03*
X9275000Y70400000D03*
X9275000Y74600000D03*
X9275000Y78800000D03*
X14775000Y45200000D03*
X14775000Y49400000D03*
X14775000Y53600000D03*
X14775000Y57800000D03*
X14775000Y62000000D03*
X14775000Y66200000D03*
X14775000Y70400000D03*
X14775000Y74600000D03*
X14775000Y78800000D03*
G04 #@! TD*
G04 #@! TO.C,Q9*
G36*
G01*
X28800000Y46570000D02*
X28800000Y45870000D01*
G75*
G02*
X28550000Y45620000I-250000J0D01*
G01*
X26850000Y45620000D01*
G75*
G02*
X26600000Y45870000I0J250000D01*
G01*
X26600000Y46570000D01*
G75*
G02*
X26850000Y46820000I250000J0D01*
G01*
X28550000Y46820000D01*
G75*
G02*
X28800000Y46570000I0J-250000D01*
G01*
G37*
G36*
G01*
X24600000Y51150003D02*
X24600000Y45849997D01*
G75*
G02*
X24350003Y45600000I-249997J0D01*
G01*
X18449997Y45600000D01*
G75*
G02*
X18200000Y45849997I0J249997D01*
G01*
X18200000Y51150003D01*
G75*
G02*
X18449997Y51400000I249997J0D01*
G01*
X24350003Y51400000D01*
G75*
G02*
X24600000Y51150003I0J-249997D01*
G01*
G37*
G36*
G01*
X28800000Y51130000D02*
X28800000Y50430000D01*
G75*
G02*
X28550000Y50180000I-250000J0D01*
G01*
X26850000Y50180000D01*
G75*
G02*
X26600000Y50430000I0J250000D01*
G01*
X26600000Y51130000D01*
G75*
G02*
X26850000Y51380000I250000J0D01*
G01*
X28550000Y51380000D01*
G75*
G02*
X28800000Y51130000I0J-250000D01*
G01*
G37*
G04 #@! TD*
D31*
G04 #@! TO.C,U5*
X99000000Y14800000D03*
X99000000Y16300000D03*
X99000000Y17800000D03*
X99000000Y19300000D03*
X99000000Y20800000D03*
X99000000Y22300000D03*
X99000000Y23800000D03*
X99000000Y25300000D03*
X99000000Y26800000D03*
X99000000Y28300000D03*
X99000000Y29800000D03*
X99000000Y31300000D03*
X99000000Y32800000D03*
X86300000Y32800000D03*
X86300000Y31300000D03*
X86300000Y29800000D03*
X86300000Y28300000D03*
X86300000Y26800000D03*
X86300000Y25300000D03*
X86300000Y23800000D03*
X86300000Y22300000D03*
X86300000Y20800000D03*
X86300000Y19300000D03*
X86300000Y17800000D03*
X86300000Y16300000D03*
X86300000Y14800000D03*
G04 #@! TD*
D11*
G04 #@! TO.C,J3*
X98025000Y79200000D03*
X98025000Y70800000D03*
G36*
G01*
X89125001Y80550000D02*
X92324999Y80550000D01*
G75*
G02*
X92575000Y80299999I0J-250001D01*
G01*
X92575000Y78100001D01*
G75*
G02*
X92324999Y77850000I-250001J0D01*
G01*
X89125001Y77850000D01*
G75*
G02*
X88875000Y78100001I0J250001D01*
G01*
X88875000Y80299999D01*
G75*
G02*
X89125001Y80550000I250001J0D01*
G01*
G37*
D30*
X90725000Y75000000D03*
X90725000Y70800000D03*
X85225000Y79200000D03*
X85225000Y75000000D03*
X85225000Y70800000D03*
G04 #@! TD*
G04 #@! TO.C,R13*
G36*
G01*
X18350000Y72110000D02*
X18350000Y72890000D01*
G75*
G02*
X18420000Y72960000I70000J0D01*
G01*
X18980000Y72960000D01*
G75*
G02*
X19050000Y72890000I0J-70000D01*
G01*
X19050000Y72110000D01*
G75*
G02*
X18980000Y72040000I-70000J0D01*
G01*
X18420000Y72040000D01*
G75*
G02*
X18350000Y72110000I0J70000D01*
G01*
G37*
G36*
G01*
X19950000Y72110000D02*
X19950000Y72890000D01*
G75*
G02*
X20020000Y72960000I70000J0D01*
G01*
X20580000Y72960000D01*
G75*
G02*
X20650000Y72890000I0J-70000D01*
G01*
X20650000Y72110000D01*
G75*
G02*
X20580000Y72040000I-70000J0D01*
G01*
X20020000Y72040000D01*
G75*
G02*
X19950000Y72110000I0J70000D01*
G01*
G37*
G04 #@! TD*
D18*
G04 #@! TO.C,F1*
X22800000Y19450000D03*
G36*
G01*
X21900000Y18105010D02*
X21900000Y18795010D01*
G75*
G02*
X22130000Y19025010I230000J0D01*
G01*
X23470000Y19025010D01*
G75*
G02*
X23700000Y18795010I0J-230000D01*
G01*
X23700000Y18105010D01*
G75*
G02*
X23470000Y17875010I-230000J0D01*
G01*
X22130000Y17875010D01*
G75*
G02*
X21900000Y18105010I0J230000D01*
G01*
G37*
G36*
G01*
X21900000Y15204990D02*
X21900000Y15894990D01*
G75*
G02*
X22130000Y16124990I230000J0D01*
G01*
X23470000Y16124990D01*
G75*
G02*
X23700000Y15894990I0J-230000D01*
G01*
X23700000Y15204990D01*
G75*
G02*
X23470000Y14974990I-230000J0D01*
G01*
X22130000Y14974990D01*
G75*
G02*
X21900000Y15204990I0J230000D01*
G01*
G37*
X22800000Y14550000D03*
G04 #@! TD*
D13*
G04 #@! TO.C,G3*
X39500000Y49960000D03*
X39500000Y52500000D03*
X39500000Y55040000D03*
X39500000Y57580000D03*
X39500000Y60120000D03*
X42040000Y49960000D03*
X42040000Y52500000D03*
X42040000Y55040000D03*
X42040000Y57580000D03*
X42040000Y60120000D03*
X44580000Y49960000D03*
X44580000Y52500000D03*
X44580000Y55040000D03*
X44580000Y57580000D03*
X44580000Y60120000D03*
G04 #@! TD*
G04 #@! TO.C,P3*
X62500000Y2500000D03*
G04 #@! TD*
D18*
G04 #@! TO.C,R4*
X43474609Y6474609D03*
G36*
G01*
X42849609Y6019610D02*
X44099609Y6019610D01*
G75*
G02*
X44199609Y5919610I0J-100000D01*
G01*
X44199609Y5119610D01*
G75*
G02*
X44099609Y5019610I-100000J0D01*
G01*
X42849609Y5019610D01*
G75*
G02*
X42749609Y5119610I0J100000D01*
G01*
X42749609Y5919610D01*
G75*
G02*
X42849609Y6019610I100000J0D01*
G01*
G37*
G36*
G01*
X42849609Y4119588D02*
X44099609Y4119588D01*
G75*
G02*
X44199609Y4019588I0J-100000D01*
G01*
X44199609Y3219588D01*
G75*
G02*
X44099609Y3119588I-100000J0D01*
G01*
X42849609Y3119588D01*
G75*
G02*
X42749609Y3219588I0J100000D01*
G01*
X42749609Y4019588D01*
G75*
G02*
X42849609Y4119588I100000J0D01*
G01*
G37*
X43474609Y2664609D03*
G04 #@! TD*
G04 #@! TO.C,R11*
G36*
G01*
X18350000Y79610000D02*
X18350000Y80390000D01*
G75*
G02*
X18420000Y80460000I70000J0D01*
G01*
X18980000Y80460000D01*
G75*
G02*
X19050000Y80390000I0J-70000D01*
G01*
X19050000Y79610000D01*
G75*
G02*
X18980000Y79540000I-70000J0D01*
G01*
X18420000Y79540000D01*
G75*
G02*
X18350000Y79610000I0J70000D01*
G01*
G37*
G36*
G01*
X19950000Y79610000D02*
X19950000Y80390000D01*
G75*
G02*
X20020000Y80460000I70000J0D01*
G01*
X20580000Y80460000D01*
G75*
G02*
X20650000Y80390000I0J-70000D01*
G01*
X20650000Y79610000D01*
G75*
G02*
X20580000Y79540000I-70000J0D01*
G01*
X20020000Y79540000D01*
G75*
G02*
X19950000Y79610000I0J70000D01*
G01*
G37*
G04 #@! TD*
G04 #@! TO.C,D3*
G36*
G01*
X19510000Y74400000D02*
X18490000Y74400000D01*
G75*
G02*
X18400000Y74490000I0J90000D01*
G01*
X18400000Y75210000D01*
G75*
G02*
X18490000Y75300000I90000J0D01*
G01*
X19510000Y75300000D01*
G75*
G02*
X19600000Y75210000I0J-90000D01*
G01*
X19600000Y74490000D01*
G75*
G02*
X19510000Y74400000I-90000J0D01*
G01*
G37*
G36*
G01*
X19510000Y77700000D02*
X18490000Y77700000D01*
G75*
G02*
X18400000Y77790000I0J90000D01*
G01*
X18400000Y78510000D01*
G75*
G02*
X18490000Y78600000I90000J0D01*
G01*
X19510000Y78600000D01*
G75*
G02*
X19600000Y78510000I0J-90000D01*
G01*
X19600000Y77790000D01*
G75*
G02*
X19510000Y77700000I-90000J0D01*
G01*
G37*
G04 #@! TD*
D32*
G04 #@! TO.C,U1*
X4200000Y20000000D03*
X4200000Y19000000D03*
X4200000Y18000000D03*
X4200000Y17000000D03*
X4200000Y16000000D03*
X4200000Y15000000D03*
X13800000Y15000000D03*
X13800000Y16000000D03*
X13800000Y17000000D03*
X13800000Y18000000D03*
X13800000Y19000000D03*
X13800000Y20000000D03*
D33*
X9000000Y17500000D03*
G04 #@! TD*
D32*
G04 #@! TO.C,U2*
X10825000Y10540000D03*
X10825000Y9540000D03*
X10825000Y8540000D03*
X10825000Y7540000D03*
X10825000Y6540000D03*
X10825000Y5540000D03*
X20425000Y5540000D03*
X20425000Y6540000D03*
X20425000Y7540000D03*
X20425000Y8540000D03*
X20425000Y9540000D03*
X20425000Y10540000D03*
D33*
X15625000Y8040000D03*
G04 #@! TD*
D11*
G04 #@! TO.C,J4*
X1975000Y25800000D03*
X1975000Y38400000D03*
G36*
G01*
X10874999Y24450000D02*
X7675001Y24450000D01*
G75*
G02*
X7425000Y24700001I0J250001D01*
G01*
X7425000Y26899999D01*
G75*
G02*
X7675001Y27150000I250001J0D01*
G01*
X10874999Y27150000D01*
G75*
G02*
X11125000Y26899999I0J-250001D01*
G01*
X11125000Y24700001D01*
G75*
G02*
X10874999Y24450000I-250001J0D01*
G01*
G37*
D30*
X9275000Y30000000D03*
X9275000Y34200000D03*
X9275000Y38400000D03*
X14775000Y25800000D03*
X14775000Y30000000D03*
X14775000Y34200000D03*
X14775000Y38400000D03*
G04 #@! TD*
D13*
G04 #@! TO.C,P7*
X83200000Y24000000D03*
G04 #@! TD*
G04 #@! TO.C,Q11*
G36*
G01*
X28800000Y32570000D02*
X28800000Y31870000D01*
G75*
G02*
X28550000Y31620000I-250000J0D01*
G01*
X26850000Y31620000D01*
G75*
G02*
X26600000Y31870000I0J250000D01*
G01*
X26600000Y32570000D01*
G75*
G02*
X26850000Y32820000I250000J0D01*
G01*
X28550000Y32820000D01*
G75*
G02*
X28800000Y32570000I0J-250000D01*
G01*
G37*
G36*
G01*
X24600000Y37150003D02*
X24600000Y31849997D01*
G75*
G02*
X24350003Y31600000I-249997J0D01*
G01*
X18449997Y31600000D01*
G75*
G02*
X18200000Y31849997I0J249997D01*
G01*
X18200000Y37150003D01*
G75*
G02*
X18449997Y37400000I249997J0D01*
G01*
X24350003Y37400000D01*
G75*
G02*
X24600000Y37150003I0J-249997D01*
G01*
G37*
G36*
G01*
X28800000Y37130000D02*
X28800000Y36430000D01*
G75*
G02*
X28550000Y36180000I-250000J0D01*
G01*
X26850000Y36180000D01*
G75*
G02*
X26600000Y36430000I0J250000D01*
G01*
X26600000Y37130000D01*
G75*
G02*
X26850000Y37380000I250000J0D01*
G01*
X28550000Y37380000D01*
G75*
G02*
X28800000Y37130000I0J-250000D01*
G01*
G37*
G04 #@! TD*
D34*
G04 #@! TO.C,J9*
X47110000Y6605000D03*
X52890000Y6605000D03*
D35*
X46650000Y7670000D03*
X47450000Y7670000D03*
X48750000Y7670000D03*
X49750000Y7670000D03*
X50250000Y7670000D03*
X51250000Y7670000D03*
X52550000Y7670000D03*
X53350000Y7670000D03*
X53050000Y7670000D03*
X52250000Y7670000D03*
X51750000Y7670000D03*
X50750000Y7670000D03*
X49250000Y7670000D03*
X48250000Y7670000D03*
X47750000Y7670000D03*
X46950000Y7670000D03*
D36*
X45680000Y7105000D03*
D37*
X45680000Y2925000D03*
D36*
X54320000Y7105000D03*
D37*
X54320000Y2925000D03*
G04 #@! TD*
D16*
G04 #@! TO.C,H3*
X94100000Y3500000D03*
X94802944Y5197056D03*
X94802944Y1802944D03*
X96500000Y5900000D03*
D17*
X96500000Y3500000D03*
D16*
X96500000Y1100000D03*
X98197056Y5197056D03*
X98197056Y1802944D03*
X98900000Y3500000D03*
G04 #@! TD*
D22*
G04 #@! TO.C,M4*
X38125000Y62675000D03*
X36925000Y62675000D03*
X39325000Y62675000D03*
X40525000Y62675000D03*
X34065000Y77100000D03*
X33065000Y77100000D03*
G04 #@! TD*
D18*
G04 #@! TO.C,F2*
X18550000Y22600000D03*
G36*
G01*
X19894990Y21700000D02*
X19204990Y21700000D01*
G75*
G02*
X18974990Y21930000I0J230000D01*
G01*
X18974990Y23270000D01*
G75*
G02*
X19204990Y23500000I230000J0D01*
G01*
X19894990Y23500000D01*
G75*
G02*
X20124990Y23270000I0J-230000D01*
G01*
X20124990Y21930000D01*
G75*
G02*
X19894990Y21700000I-230000J0D01*
G01*
G37*
G36*
G01*
X22795010Y21700000D02*
X22105010Y21700000D01*
G75*
G02*
X21875010Y21930000I0J230000D01*
G01*
X21875010Y23270000D01*
G75*
G02*
X22105010Y23500000I230000J0D01*
G01*
X22795010Y23500000D01*
G75*
G02*
X23025010Y23270000I0J-230000D01*
G01*
X23025010Y21930000D01*
G75*
G02*
X22795010Y21700000I-230000J0D01*
G01*
G37*
X23450000Y22600000D03*
G04 #@! TD*
G04 #@! TO.C,D5*
G36*
G01*
X19510000Y66900000D02*
X18490000Y66900000D01*
G75*
G02*
X18400000Y66990000I0J90000D01*
G01*
X18400000Y67710000D01*
G75*
G02*
X18490000Y67800000I90000J0D01*
G01*
X19510000Y67800000D01*
G75*
G02*
X19600000Y67710000I0J-90000D01*
G01*
X19600000Y66990000D01*
G75*
G02*
X19510000Y66900000I-90000J0D01*
G01*
G37*
G36*
G01*
X19510000Y70200000D02*
X18490000Y70200000D01*
G75*
G02*
X18400000Y70290000I0J90000D01*
G01*
X18400000Y71010000D01*
G75*
G02*
X18490000Y71100000I90000J0D01*
G01*
X19510000Y71100000D01*
G75*
G02*
X19600000Y71010000I0J-90000D01*
G01*
X19600000Y70290000D01*
G75*
G02*
X19510000Y70200000I-90000J0D01*
G01*
G37*
G04 #@! TD*
D38*
G04 #@! TO.C,J6*
X98150000Y37900000D03*
D39*
X95610000Y37900000D03*
X93070000Y37900000D03*
X90530000Y37900000D03*
X87990000Y37900000D03*
X85450000Y37900000D03*
G04 #@! TD*
G04 #@! TO.C,R14*
G36*
G01*
X23210000Y9650000D02*
X23990000Y9650000D01*
G75*
G02*
X24060000Y9580000I0J-70000D01*
G01*
X24060000Y9020000D01*
G75*
G02*
X23990000Y8950000I-70000J0D01*
G01*
X23210000Y8950000D01*
G75*
G02*
X23140000Y9020000I0J70000D01*
G01*
X23140000Y9580000D01*
G75*
G02*
X23210000Y9650000I70000J0D01*
G01*
G37*
G36*
G01*
X23210000Y8050000D02*
X23990000Y8050000D01*
G75*
G02*
X24060000Y7980000I0J-70000D01*
G01*
X24060000Y7420000D01*
G75*
G02*
X23990000Y7350000I-70000J0D01*
G01*
X23210000Y7350000D01*
G75*
G02*
X23140000Y7420000I0J70000D01*
G01*
X23140000Y7980000D01*
G75*
G02*
X23210000Y8050000I70000J0D01*
G01*
G37*
G04 #@! TD*
D20*
G04 #@! TO.C,Q17*
X32200000Y25350000D03*
X34500000Y25350000D03*
X36800000Y25350000D03*
D21*
X34500000Y31650000D03*
G04 #@! TD*
D40*
G04 #@! TO.C,U3*
X72203250Y75430000D03*
X72203250Y52570000D03*
D41*
X70323250Y68942500D03*
X70323250Y59100000D03*
X69053250Y59100000D03*
X67783250Y59100000D03*
X66513250Y59100000D03*
D18*
X59503250Y70350000D03*
D41*
X66513250Y68942500D03*
X67783250Y68942500D03*
D18*
X59503250Y67810000D03*
D41*
X69053250Y68942500D03*
D18*
X59503250Y65270000D03*
X59503250Y62730000D03*
X59503250Y60190000D03*
X59503250Y57650000D03*
G04 #@! TD*
G04 #@! TO.C,C12*
G36*
G01*
X1940000Y12584999D02*
X1260000Y12584999D01*
G75*
G02*
X1175000Y12669999I0J85000D01*
G01*
X1175000Y13349999D01*
G75*
G02*
X1260000Y13434999I85000J0D01*
G01*
X1940000Y13434999D01*
G75*
G02*
X2025000Y13349999I0J-85000D01*
G01*
X2025000Y12669999D01*
G75*
G02*
X1940000Y12584999I-85000J0D01*
G01*
G37*
G36*
G01*
X1940000Y14165001D02*
X1260000Y14165001D01*
G75*
G02*
X1175000Y14250001I0J85000D01*
G01*
X1175000Y14930001D01*
G75*
G02*
X1260000Y15015001I85000J0D01*
G01*
X1940000Y15015001D01*
G75*
G02*
X2025000Y14930001I0J-85000D01*
G01*
X2025000Y14250001D01*
G75*
G02*
X1940000Y14165001I-85000J0D01*
G01*
G37*
G04 #@! TD*
D13*
G04 #@! TO.C,G4*
X47120000Y49960000D03*
X47120000Y52500000D03*
X47120000Y55040000D03*
X47120000Y57580000D03*
X47120000Y60120000D03*
X49660000Y49960000D03*
X49660000Y52500000D03*
X49660000Y55040000D03*
X49660000Y57580000D03*
X49660000Y60120000D03*
X52200000Y49960000D03*
X52200000Y52500000D03*
X52200000Y55040000D03*
X52200000Y57580000D03*
X52200000Y60120000D03*
G04 #@! TD*
D26*
G04 #@! TO.C,BT1*
X92000000Y21600142D03*
X92000000Y29100000D03*
G04 #@! TD*
M02*
