M48
; DRILL file {KiCad 7.0.9-7.0.9~ubuntu22.04.1} date Sat Dec  2 09:09:58 2023
; FORMAT={2:4/ absolute / inch / suppress leading zeros}
; #@! TF.CreationDate,2023-12-02T09:09:58+00:00
; #@! TF.GenerationSoftware,Kicad,Pcbnew,7.0.9-7.0.9~ubuntu22.04.1
; #@! TF.FileFunction,MixedPlating,1,2
FMAT,2
INCH,TZ
; #@! TA.AperFunction,Plated,PTH,ComponentDrill
T1C0.0118
; #@! TA.AperFunction,Plated,PTH,ComponentDrill
T2C0.0118
; #@! TA.AperFunction,Plated,PTH,ComponentDrill
T3C0.0197
; #@! TA.AperFunction,Plated,PTH,ComponentDrill
T4C0.0236
; #@! TA.AperFunction,Plated,PTH,ComponentDrill
T5C0.0276
; #@! TA.AperFunction,Plated,PTH,ComponentDrill
T6C0.0320
; #@! TA.AperFunction,Plated,PTH,ComponentDrill
T7C0.0335
; #@! TA.AperFunction,Plated,PTH,ComponentDrill
T8C0.0394
; #@! TA.AperFunction,Plated,PTH,ComponentDrill
T9C0.0709
; #@! TA.AperFunction,Plated,PTH,ComponentDrill
T10C0.1200
; #@! TA.AperFunction,Plated,PTH,ComponentDrill
T11C0.1260
; #@! TA.AperFunction,NonPlated,NPTH,ComponentDrill
T12C0.0256
; #@! TA.AperFunction,NonPlated,NPTH,ComponentDrill
T13C0.0591
; #@! TA.AperFunction,NonPlated,NPTH,ComponentDrill
T14C0.1181
%
G90
G05
T1
X12598Y18494
X12805Y18839
X13100Y18376
X14498Y18406
T2
X13018Y30354
X13411Y30354
X14537Y24675
X15010Y24675
X15482Y24675
X15955Y24675
X16270Y2293
X16270Y1900
X17368Y30354
X17762Y30354
X18031Y14606
X18031Y14291
X18031Y13976
X18031Y13661
X18031Y13346
X18031Y13031
X18031Y12717
X18031Y12402
X18031Y12087
X18031Y11772
X18031Y11457
X18031Y11142
X18031Y10827
X18031Y10512
X18031Y9882
X18031Y9331
X18031Y9016
X18031Y8701
X18031Y8386
X18031Y8071
X18031Y7756
X18032Y16299
X18032Y10197
X18189Y4921
X18504Y4921
X18819Y4921
X18888Y24675
X19134Y4921
X19360Y24675
X19449Y4921
X19764Y4921
X19833Y24675
X20079Y4921
X20305Y24675
X20394Y4921
X20630Y18858
X20709Y4921
X21024Y4921
X21102Y18858
X21339Y4921
X21575Y18858
X21654Y4921
X22047Y18858
X22520Y18858
X22598Y4921
X22913Y4921
X22992Y18858
X23228Y4921
X23465Y18858
X23543Y4921
X23858Y4921
X23937Y18858
X24173Y4921
X24409Y18858
X24488Y4921
X24803Y4921
X24882Y18858
X25118Y4921
X25354Y18858
X25827Y18858
X26299Y18858
X26772Y18858
X26811Y4921
X27244Y18858
X27717Y18858
X27874Y4921
X28189Y18858
X28268Y4921
X28661Y18858
X29134Y18858
X29606Y18858
X30079Y18858
X30384Y28750
X30758Y28750
X30778Y32175
X31024Y18858
X31132Y32175
X31132Y28750
X31181Y17874
X31181Y17480
X31181Y13268
X31181Y12874
X31181Y12480
X31181Y12087
X31181Y11693
X31181Y11299
X31181Y10906
X31181Y10512
X31181Y9488
X31181Y9173
X31181Y7323
X31181Y6772
X31181Y4921
X34301Y15811
X34695Y15811
X35089Y15811
X35986Y15811
X36386Y15811
X37313Y26280
X37707Y26280
X38100Y26280
X38494Y26280
T3
X433Y37992
X433Y1378
X710Y38660
X710Y37324
X710Y2046
X710Y710
X1378Y38937
X1378Y37047
X1378Y2323
X1378Y433
X2046Y38660
X2046Y37324
X2046Y2046
X2046Y710
X2323Y37992
X2323Y1378
X37047Y37992
X37047Y1378
X37324Y38660
X37324Y37324
X37324Y2046
X37324Y710
X37992Y38937
X37992Y37047
X37992Y2323
X37992Y433
X38660Y38660
X38660Y37324
X38660Y2046
X38660Y710
X38937Y37992
X38937Y1378
T5
X22638Y2165
X22638Y1535
X23327Y2480
X23327Y1850
X23327Y1220
T6
X7303Y8968
X7827Y7657
X7827Y5728
X8858Y7657
X8858Y5728
X9232Y8968
X23417Y27185
X23417Y26185
X23417Y25185
X23417Y24185
X23417Y23185
X23417Y22185
X32087Y31476
X32087Y29547
T7
X32677Y5118
X32677Y4134
X32677Y3150
X32677Y2165
X32677Y1181
T8
X9990Y8376
X9990Y7648
X9990Y5699
X9990Y955
X12205Y22638
X13386Y22638
X15551Y23669
X15551Y22669
X15551Y21669
X15551Y20669
X15551Y19669
X16093Y8199
X16093Y5679
X16093Y4931
X16093Y3238
X16093Y778
X16220Y12402
X16551Y23669
X16551Y22669
X16551Y21669
X16551Y20669
X16551Y19669
X17126Y1772
X17551Y23669
X17551Y22669
X17551Y21669
X17551Y20669
X17551Y19669
X18551Y23669
X18551Y22669
X18551Y21669
X18551Y20669
X18551Y19669
X19551Y23669
X19551Y22669
X19551Y21669
X19551Y20669
X19551Y19669
X20551Y23669
X20551Y22669
X20551Y21669
X20551Y20669
X20551Y19669
X24606Y2953
X24606Y984
X33642Y14961
X34642Y14961
X35642Y14961
X36642Y14961
X37642Y14961
X38642Y14961
T9
X3652Y31024
X3652Y29370
X3652Y27717
X3652Y26063
X3652Y24409
X3652Y22756
X3652Y21102
X3652Y19449
X3652Y17795
X3652Y15118
X3652Y13465
X3652Y11811
X3652Y10157
X4173Y35719
X4173Y33553
X5817Y31024
X5817Y29370
X5817Y27717
X5817Y26063
X5817Y24409
X5817Y22756
X5817Y21102
X5817Y19449
X5817Y17795
X5817Y15118
X5817Y13465
X5817Y11811
X5817Y10157
X5827Y35719
X5827Y33553
X7480Y35719
X7480Y33553
X9134Y35719
X9134Y33553
X10787Y35719
X10787Y33553
X12441Y35719
X12441Y33553
X14094Y35719
X14094Y33553
X15748Y35719
X15748Y33553
X17402Y35719
X17402Y33553
X19055Y35719
X19055Y33553
X23740Y35719
X23740Y33553
X25394Y35719
X25394Y33553
X27047Y35719
X27047Y33553
X28701Y35719
X28701Y33553
X30354Y35719
X30354Y33553
X32008Y35719
X32008Y33553
X33553Y31181
X33553Y29528
X33553Y27874
X33661Y35719
X33661Y33553
X35315Y35719
X35315Y33553
X35719Y31181
X35719Y29528
X35719Y27874
T10
X28417Y29185
X28417Y20185
T11
X1378Y37992
X1378Y1378
X37992Y37992
X37992Y1378
T12
X18547Y2600
X20823Y2600
T13
X36220Y11457
X36220Y8504
T14
X778Y31024
X778Y17795
X778Y15118
X778Y10157
X4173Y38593
X19055Y38593
X23740Y38593
X35315Y38593
X38593Y31181
X38593Y27874
T4
X17984Y3014G85X17984Y2581
G05
X17984Y1270G85X17984Y1033
G05
X21386Y3014G85X21386Y2581
G05
X21386Y1270G85X21386Y1033
G05
T5
X22726Y3287G85X23238Y3287
G05
X22726Y413G85X23238Y413
G05
T0
M30
