G04 #@! TF.GenerationSoftware,KiCad,Pcbnew,7.0.9-7.0.9~ubuntu22.04.1*
G04 #@! TF.CreationDate,2023-12-02T09:09:58+00:00*
G04 #@! TF.ProjectId,uaefi,75616566-692e-46b6-9963-61645f706362,rev?*
G04 #@! TF.SameCoordinates,Original*
G04 #@! TF.FileFunction,Legend,Bot*
G04 #@! TF.FilePolarity,Positive*
%FSLAX46Y46*%
G04 Gerber Fmt 4.6, Leading zero omitted, Abs format (unit mm)*
G04 Created by KiCad (PCBNEW 7.0.9-7.0.9~ubuntu22.04.1) date 2023-12-02 09:09:58*
%MOMM*%
%LPD*%
G01*
G04 APERTURE LIST*
%ADD10C,0.450000*%
%ADD11C,0.250000*%
%ADD12C,0.150000*%
%ADD13C,0.127000*%
%ADD14C,0.170000*%
%ADD15C,0.200000*%
%ADD16C,0.120000*%
%ADD17C,0.150012*%
%ADD18C,0.203200*%
G04 APERTURE END LIST*
D10*
X1285712Y84206972D02*
X857140Y84064115D01*
X857140Y84064115D02*
X714283Y83921258D01*
X714283Y83921258D02*
X571426Y83635543D01*
X571426Y83635543D02*
X571426Y83206972D01*
X571426Y83206972D02*
X714283Y82921258D01*
X714283Y82921258D02*
X857140Y82778400D01*
X857140Y82778400D02*
X1142855Y82635543D01*
X1142855Y82635543D02*
X2285712Y82635543D01*
X2285712Y82635543D02*
X2285712Y85635543D01*
X2285712Y85635543D02*
X1285712Y85635543D01*
X1285712Y85635543D02*
X999998Y85492686D01*
X999998Y85492686D02*
X857140Y85349829D01*
X857140Y85349829D02*
X714283Y85064115D01*
X714283Y85064115D02*
X714283Y84778400D01*
X714283Y84778400D02*
X857140Y84492686D01*
X857140Y84492686D02*
X999998Y84349829D01*
X999998Y84349829D02*
X1285712Y84206972D01*
X1285712Y84206972D02*
X2285712Y84206972D01*
D11*
X81044857Y66321429D02*
X81044857Y65607143D01*
X81473428Y66464286D02*
X79973428Y65964286D01*
X79973428Y65964286D02*
X81473428Y65464286D01*
X81473428Y64750001D02*
X81402000Y64892858D01*
X81402000Y64892858D02*
X81259142Y64964287D01*
X81259142Y64964287D02*
X79973428Y64964287D01*
X80473428Y64321430D02*
X81473428Y64035715D01*
X81473428Y64035715D02*
X80759142Y63750001D01*
X80759142Y63750001D02*
X81473428Y63464287D01*
X81473428Y63464287D02*
X80473428Y63178573D01*
X81473428Y61964286D02*
X80687714Y61964286D01*
X80687714Y61964286D02*
X80544857Y62035715D01*
X80544857Y62035715D02*
X80473428Y62178572D01*
X80473428Y62178572D02*
X80473428Y62464286D01*
X80473428Y62464286D02*
X80544857Y62607144D01*
X81402000Y61964286D02*
X81473428Y62107144D01*
X81473428Y62107144D02*
X81473428Y62464286D01*
X81473428Y62464286D02*
X81402000Y62607144D01*
X81402000Y62607144D02*
X81259142Y62678572D01*
X81259142Y62678572D02*
X81116285Y62678572D01*
X81116285Y62678572D02*
X80973428Y62607144D01*
X80973428Y62607144D02*
X80902000Y62464286D01*
X80902000Y62464286D02*
X80902000Y62107144D01*
X80902000Y62107144D02*
X80830571Y61964286D01*
X80473428Y61392858D02*
X81473428Y61035715D01*
X80473428Y60678572D02*
X81473428Y61035715D01*
X81473428Y61035715D02*
X81830571Y61178572D01*
X81830571Y61178572D02*
X81902000Y61250001D01*
X81902000Y61250001D02*
X81973428Y61392858D01*
X81402000Y60178572D02*
X81473428Y60035715D01*
X81473428Y60035715D02*
X81473428Y59750001D01*
X81473428Y59750001D02*
X81402000Y59607144D01*
X81402000Y59607144D02*
X81259142Y59535715D01*
X81259142Y59535715D02*
X81187714Y59535715D01*
X81187714Y59535715D02*
X81044857Y59607144D01*
X81044857Y59607144D02*
X80973428Y59750001D01*
X80973428Y59750001D02*
X80973428Y59964286D01*
X80973428Y59964286D02*
X80902000Y60107144D01*
X80902000Y60107144D02*
X80759142Y60178572D01*
X80759142Y60178572D02*
X80687714Y60178572D01*
X80687714Y60178572D02*
X80544857Y60107144D01*
X80544857Y60107144D02*
X80473428Y59964286D01*
X80473428Y59964286D02*
X80473428Y59750001D01*
X80473428Y59750001D02*
X80544857Y59607144D01*
X81473428Y57535715D02*
X81402000Y57678572D01*
X81402000Y57678572D02*
X81259142Y57750001D01*
X81259142Y57750001D02*
X79973428Y57750001D01*
X81473428Y56750001D02*
X81402000Y56892858D01*
X81402000Y56892858D02*
X81330571Y56964287D01*
X81330571Y56964287D02*
X81187714Y57035715D01*
X81187714Y57035715D02*
X80759142Y57035715D01*
X80759142Y57035715D02*
X80616285Y56964287D01*
X80616285Y56964287D02*
X80544857Y56892858D01*
X80544857Y56892858D02*
X80473428Y56750001D01*
X80473428Y56750001D02*
X80473428Y56535715D01*
X80473428Y56535715D02*
X80544857Y56392858D01*
X80544857Y56392858D02*
X80616285Y56321429D01*
X80616285Y56321429D02*
X80759142Y56250001D01*
X80759142Y56250001D02*
X81187714Y56250001D01*
X81187714Y56250001D02*
X81330571Y56321429D01*
X81330571Y56321429D02*
X81402000Y56392858D01*
X81402000Y56392858D02*
X81473428Y56535715D01*
X81473428Y56535715D02*
X81473428Y56750001D01*
X81473428Y55392858D02*
X81402000Y55535715D01*
X81402000Y55535715D02*
X81330571Y55607144D01*
X81330571Y55607144D02*
X81187714Y55678572D01*
X81187714Y55678572D02*
X80759142Y55678572D01*
X80759142Y55678572D02*
X80616285Y55607144D01*
X80616285Y55607144D02*
X80544857Y55535715D01*
X80544857Y55535715D02*
X80473428Y55392858D01*
X80473428Y55392858D02*
X80473428Y55178572D01*
X80473428Y55178572D02*
X80544857Y55035715D01*
X80544857Y55035715D02*
X80616285Y54964286D01*
X80616285Y54964286D02*
X80759142Y54892858D01*
X80759142Y54892858D02*
X81187714Y54892858D01*
X81187714Y54892858D02*
X81330571Y54964286D01*
X81330571Y54964286D02*
X81402000Y55035715D01*
X81402000Y55035715D02*
X81473428Y55178572D01*
X81473428Y55178572D02*
X81473428Y55392858D01*
X81473428Y54250001D02*
X79973428Y54250001D01*
X80902000Y54107143D02*
X81473428Y53678572D01*
X80473428Y53678572D02*
X81044857Y54250001D01*
X81473428Y53035715D02*
X80473428Y53035715D01*
X79973428Y53035715D02*
X80044857Y53107143D01*
X80044857Y53107143D02*
X80116285Y53035715D01*
X80116285Y53035715D02*
X80044857Y52964286D01*
X80044857Y52964286D02*
X79973428Y53035715D01*
X79973428Y53035715D02*
X80116285Y53035715D01*
X80473428Y52321429D02*
X81473428Y52321429D01*
X80616285Y52321429D02*
X80544857Y52250000D01*
X80544857Y52250000D02*
X80473428Y52107143D01*
X80473428Y52107143D02*
X80473428Y51892857D01*
X80473428Y51892857D02*
X80544857Y51750000D01*
X80544857Y51750000D02*
X80687714Y51678571D01*
X80687714Y51678571D02*
X81473428Y51678571D01*
X80473428Y50321428D02*
X81687714Y50321428D01*
X81687714Y50321428D02*
X81830571Y50392857D01*
X81830571Y50392857D02*
X81902000Y50464286D01*
X81902000Y50464286D02*
X81973428Y50607143D01*
X81973428Y50607143D02*
X81973428Y50821428D01*
X81973428Y50821428D02*
X81902000Y50964286D01*
X81402000Y50321428D02*
X81473428Y50464286D01*
X81473428Y50464286D02*
X81473428Y50750000D01*
X81473428Y50750000D02*
X81402000Y50892857D01*
X81402000Y50892857D02*
X81330571Y50964286D01*
X81330571Y50964286D02*
X81187714Y51035714D01*
X81187714Y51035714D02*
X80759142Y51035714D01*
X80759142Y51035714D02*
X80616285Y50964286D01*
X80616285Y50964286D02*
X80544857Y50892857D01*
X80544857Y50892857D02*
X80473428Y50750000D01*
X80473428Y50750000D02*
X80473428Y50464286D01*
X80473428Y50464286D02*
X80544857Y50321428D01*
X80473428Y48678571D02*
X80473428Y48107143D01*
X81473428Y48464286D02*
X80187714Y48464286D01*
X80187714Y48464286D02*
X80044857Y48392857D01*
X80044857Y48392857D02*
X79973428Y48250000D01*
X79973428Y48250000D02*
X79973428Y48107143D01*
X81473428Y47392857D02*
X81402000Y47535714D01*
X81402000Y47535714D02*
X81330571Y47607143D01*
X81330571Y47607143D02*
X81187714Y47678571D01*
X81187714Y47678571D02*
X80759142Y47678571D01*
X80759142Y47678571D02*
X80616285Y47607143D01*
X80616285Y47607143D02*
X80544857Y47535714D01*
X80544857Y47535714D02*
X80473428Y47392857D01*
X80473428Y47392857D02*
X80473428Y47178571D01*
X80473428Y47178571D02*
X80544857Y47035714D01*
X80544857Y47035714D02*
X80616285Y46964285D01*
X80616285Y46964285D02*
X80759142Y46892857D01*
X80759142Y46892857D02*
X81187714Y46892857D01*
X81187714Y46892857D02*
X81330571Y46964285D01*
X81330571Y46964285D02*
X81402000Y47035714D01*
X81402000Y47035714D02*
X81473428Y47178571D01*
X81473428Y47178571D02*
X81473428Y47392857D01*
X81473428Y46250000D02*
X80473428Y46250000D01*
X80759142Y46250000D02*
X80616285Y46178571D01*
X80616285Y46178571D02*
X80544857Y46107142D01*
X80544857Y46107142D02*
X80473428Y45964285D01*
X80473428Y45964285D02*
X80473428Y45821428D01*
X81330571Y43321429D02*
X81402000Y43392857D01*
X81402000Y43392857D02*
X81473428Y43607143D01*
X81473428Y43607143D02*
X81473428Y43750000D01*
X81473428Y43750000D02*
X81402000Y43964286D01*
X81402000Y43964286D02*
X81259142Y44107143D01*
X81259142Y44107143D02*
X81116285Y44178572D01*
X81116285Y44178572D02*
X80830571Y44250000D01*
X80830571Y44250000D02*
X80616285Y44250000D01*
X80616285Y44250000D02*
X80330571Y44178572D01*
X80330571Y44178572D02*
X80187714Y44107143D01*
X80187714Y44107143D02*
X80044857Y43964286D01*
X80044857Y43964286D02*
X79973428Y43750000D01*
X79973428Y43750000D02*
X79973428Y43607143D01*
X79973428Y43607143D02*
X80044857Y43392857D01*
X80044857Y43392857D02*
X80116285Y43321429D01*
X79902000Y41607143D02*
X81830571Y42892857D01*
X81330571Y40250000D02*
X81402000Y40321428D01*
X81402000Y40321428D02*
X81473428Y40535714D01*
X81473428Y40535714D02*
X81473428Y40678571D01*
X81473428Y40678571D02*
X81402000Y40892857D01*
X81402000Y40892857D02*
X81259142Y41035714D01*
X81259142Y41035714D02*
X81116285Y41107143D01*
X81116285Y41107143D02*
X80830571Y41178571D01*
X80830571Y41178571D02*
X80616285Y41178571D01*
X80616285Y41178571D02*
X80330571Y41107143D01*
X80330571Y41107143D02*
X80187714Y41035714D01*
X80187714Y41035714D02*
X80044857Y40892857D01*
X80044857Y40892857D02*
X79973428Y40678571D01*
X79973428Y40678571D02*
X79973428Y40535714D01*
X79973428Y40535714D02*
X80044857Y40321428D01*
X80044857Y40321428D02*
X80116285Y40250000D01*
X80902000Y39607143D02*
X80902000Y38464285D01*
X81473428Y39035714D02*
X80330571Y39035714D01*
X80902000Y37750000D02*
X80902000Y36607142D01*
X81473428Y37178571D02*
X80330571Y37178571D01*
X79902000Y34821428D02*
X81830571Y36107142D01*
X81473428Y34321428D02*
X79973428Y34321428D01*
X79973428Y34321428D02*
X79973428Y33749999D01*
X79973428Y33749999D02*
X80044857Y33607142D01*
X80044857Y33607142D02*
X80116285Y33535713D01*
X80116285Y33535713D02*
X80259142Y33464285D01*
X80259142Y33464285D02*
X80473428Y33464285D01*
X80473428Y33464285D02*
X80616285Y33535713D01*
X80616285Y33535713D02*
X80687714Y33607142D01*
X80687714Y33607142D02*
X80759142Y33749999D01*
X80759142Y33749999D02*
X80759142Y34321428D01*
X81473428Y32821428D02*
X79973428Y32821428D01*
X80687714Y32821428D02*
X80687714Y31964285D01*
X81473428Y31964285D02*
X79973428Y31964285D01*
X81473428Y31249999D02*
X79973428Y31249999D01*
X79973428Y31249999D02*
X79973428Y30678570D01*
X79973428Y30678570D02*
X80044857Y30535713D01*
X80044857Y30535713D02*
X80116285Y30464284D01*
X80116285Y30464284D02*
X80259142Y30392856D01*
X80259142Y30392856D02*
X80473428Y30392856D01*
X80473428Y30392856D02*
X80616285Y30464284D01*
X80616285Y30464284D02*
X80687714Y30535713D01*
X80687714Y30535713D02*
X80759142Y30678570D01*
X80759142Y30678570D02*
X80759142Y31249999D01*
X79902000Y28678570D02*
X81830571Y29964284D01*
X79973428Y27749998D02*
X81044857Y27749998D01*
X81044857Y27749998D02*
X81259142Y27821427D01*
X81259142Y27821427D02*
X81402000Y27964284D01*
X81402000Y27964284D02*
X81473428Y28178570D01*
X81473428Y28178570D02*
X81473428Y28321427D01*
X81473428Y26392855D02*
X80687714Y26392855D01*
X80687714Y26392855D02*
X80544857Y26464284D01*
X80544857Y26464284D02*
X80473428Y26607141D01*
X80473428Y26607141D02*
X80473428Y26892855D01*
X80473428Y26892855D02*
X80544857Y27035713D01*
X81402000Y26392855D02*
X81473428Y26535713D01*
X81473428Y26535713D02*
X81473428Y26892855D01*
X81473428Y26892855D02*
X81402000Y27035713D01*
X81402000Y27035713D02*
X81259142Y27107141D01*
X81259142Y27107141D02*
X81116285Y27107141D01*
X81116285Y27107141D02*
X80973428Y27035713D01*
X80973428Y27035713D02*
X80902000Y26892855D01*
X80902000Y26892855D02*
X80902000Y26535713D01*
X80902000Y26535713D02*
X80830571Y26392855D01*
X80473428Y25821427D02*
X81473428Y25464284D01*
X81473428Y25464284D02*
X80473428Y25107141D01*
X81473428Y23892855D02*
X80687714Y23892855D01*
X80687714Y23892855D02*
X80544857Y23964284D01*
X80544857Y23964284D02*
X80473428Y24107141D01*
X80473428Y24107141D02*
X80473428Y24392855D01*
X80473428Y24392855D02*
X80544857Y24535713D01*
X81402000Y23892855D02*
X81473428Y24035713D01*
X81473428Y24035713D02*
X81473428Y24392855D01*
X81473428Y24392855D02*
X81402000Y24535713D01*
X81402000Y24535713D02*
X81259142Y24607141D01*
X81259142Y24607141D02*
X81116285Y24607141D01*
X81116285Y24607141D02*
X80973428Y24535713D01*
X80973428Y24535713D02*
X80902000Y24392855D01*
X80902000Y24392855D02*
X80902000Y24035713D01*
X80902000Y24035713D02*
X80830571Y23892855D01*
X81473428Y21392855D02*
X79973428Y21392855D01*
X81402000Y21392855D02*
X81473428Y21535713D01*
X81473428Y21535713D02*
X81473428Y21821427D01*
X81473428Y21821427D02*
X81402000Y21964284D01*
X81402000Y21964284D02*
X81330571Y22035713D01*
X81330571Y22035713D02*
X81187714Y22107141D01*
X81187714Y22107141D02*
X80759142Y22107141D01*
X80759142Y22107141D02*
X80616285Y22035713D01*
X80616285Y22035713D02*
X80544857Y21964284D01*
X80544857Y21964284D02*
X80473428Y21821427D01*
X80473428Y21821427D02*
X80473428Y21535713D01*
X80473428Y21535713D02*
X80544857Y21392855D01*
X81402000Y20107141D02*
X81473428Y20249998D01*
X81473428Y20249998D02*
X81473428Y20535712D01*
X81473428Y20535712D02*
X81402000Y20678570D01*
X81402000Y20678570D02*
X81259142Y20749998D01*
X81259142Y20749998D02*
X80687714Y20749998D01*
X80687714Y20749998D02*
X80544857Y20678570D01*
X80544857Y20678570D02*
X80473428Y20535712D01*
X80473428Y20535712D02*
X80473428Y20249998D01*
X80473428Y20249998D02*
X80544857Y20107141D01*
X80544857Y20107141D02*
X80687714Y20035712D01*
X80687714Y20035712D02*
X80830571Y20035712D01*
X80830571Y20035712D02*
X80973428Y20749998D01*
X80473428Y19535713D02*
X81473428Y19178570D01*
X81473428Y19178570D02*
X80473428Y18821427D01*
X81402000Y17678570D02*
X81473428Y17821427D01*
X81473428Y17821427D02*
X81473428Y18107141D01*
X81473428Y18107141D02*
X81402000Y18249999D01*
X81402000Y18249999D02*
X81259142Y18321427D01*
X81259142Y18321427D02*
X80687714Y18321427D01*
X80687714Y18321427D02*
X80544857Y18249999D01*
X80544857Y18249999D02*
X80473428Y18107141D01*
X80473428Y18107141D02*
X80473428Y17821427D01*
X80473428Y17821427D02*
X80544857Y17678570D01*
X80544857Y17678570D02*
X80687714Y17607141D01*
X80687714Y17607141D02*
X80830571Y17607141D01*
X80830571Y17607141D02*
X80973428Y18321427D01*
X81473428Y16749999D02*
X81402000Y16892856D01*
X81402000Y16892856D02*
X81259142Y16964285D01*
X81259142Y16964285D02*
X79973428Y16964285D01*
X81473428Y15964285D02*
X81402000Y16107142D01*
X81402000Y16107142D02*
X81330571Y16178571D01*
X81330571Y16178571D02*
X81187714Y16249999D01*
X81187714Y16249999D02*
X80759142Y16249999D01*
X80759142Y16249999D02*
X80616285Y16178571D01*
X80616285Y16178571D02*
X80544857Y16107142D01*
X80544857Y16107142D02*
X80473428Y15964285D01*
X80473428Y15964285D02*
X80473428Y15749999D01*
X80473428Y15749999D02*
X80544857Y15607142D01*
X80544857Y15607142D02*
X80616285Y15535713D01*
X80616285Y15535713D02*
X80759142Y15464285D01*
X80759142Y15464285D02*
X81187714Y15464285D01*
X81187714Y15464285D02*
X81330571Y15535713D01*
X81330571Y15535713D02*
X81402000Y15607142D01*
X81402000Y15607142D02*
X81473428Y15749999D01*
X81473428Y15749999D02*
X81473428Y15964285D01*
X80473428Y14821428D02*
X81973428Y14821428D01*
X80544857Y14821428D02*
X80473428Y14678570D01*
X80473428Y14678570D02*
X80473428Y14392856D01*
X80473428Y14392856D02*
X80544857Y14249999D01*
X80544857Y14249999D02*
X80616285Y14178570D01*
X80616285Y14178570D02*
X80759142Y14107142D01*
X80759142Y14107142D02*
X81187714Y14107142D01*
X81187714Y14107142D02*
X81330571Y14178570D01*
X81330571Y14178570D02*
X81402000Y14249999D01*
X81402000Y14249999D02*
X81473428Y14392856D01*
X81473428Y14392856D02*
X81473428Y14678570D01*
X81473428Y14678570D02*
X81402000Y14821428D01*
X81402000Y12892856D02*
X81473428Y13035713D01*
X81473428Y13035713D02*
X81473428Y13321427D01*
X81473428Y13321427D02*
X81402000Y13464285D01*
X81402000Y13464285D02*
X81259142Y13535713D01*
X81259142Y13535713D02*
X80687714Y13535713D01*
X80687714Y13535713D02*
X80544857Y13464285D01*
X80544857Y13464285D02*
X80473428Y13321427D01*
X80473428Y13321427D02*
X80473428Y13035713D01*
X80473428Y13035713D02*
X80544857Y12892856D01*
X80544857Y12892856D02*
X80687714Y12821427D01*
X80687714Y12821427D02*
X80830571Y12821427D01*
X80830571Y12821427D02*
X80973428Y13535713D01*
X81473428Y12178571D02*
X80473428Y12178571D01*
X80759142Y12178571D02*
X80616285Y12107142D01*
X80616285Y12107142D02*
X80544857Y12035713D01*
X80544857Y12035713D02*
X80473428Y11892856D01*
X80473428Y11892856D02*
X80473428Y11749999D01*
X81402000Y11321428D02*
X81473428Y11178571D01*
X81473428Y11178571D02*
X81473428Y10892857D01*
X81473428Y10892857D02*
X81402000Y10750000D01*
X81402000Y10750000D02*
X81259142Y10678571D01*
X81259142Y10678571D02*
X81187714Y10678571D01*
X81187714Y10678571D02*
X81044857Y10750000D01*
X81044857Y10750000D02*
X80973428Y10892857D01*
X80973428Y10892857D02*
X80973428Y11107142D01*
X80973428Y11107142D02*
X80902000Y11250000D01*
X80902000Y11250000D02*
X80759142Y11321428D01*
X80759142Y11321428D02*
X80687714Y11321428D01*
X80687714Y11321428D02*
X80544857Y11250000D01*
X80544857Y11250000D02*
X80473428Y11107142D01*
X80473428Y11107142D02*
X80473428Y10892857D01*
X80473428Y10892857D02*
X80544857Y10750000D01*
X83888428Y55214289D02*
X82388428Y55214289D01*
X83888428Y54571431D02*
X83102714Y54571431D01*
X83102714Y54571431D02*
X82959857Y54642860D01*
X82959857Y54642860D02*
X82888428Y54785717D01*
X82888428Y54785717D02*
X82888428Y55000003D01*
X82888428Y55000003D02*
X82959857Y55142860D01*
X82959857Y55142860D02*
X83031285Y55214289D01*
X82888428Y54071431D02*
X82888428Y53500003D01*
X82388428Y53857146D02*
X83674142Y53857146D01*
X83674142Y53857146D02*
X83817000Y53785717D01*
X83817000Y53785717D02*
X83888428Y53642860D01*
X83888428Y53642860D02*
X83888428Y53500003D01*
X82888428Y53214288D02*
X82888428Y52642860D01*
X82388428Y53000003D02*
X83674142Y53000003D01*
X83674142Y53000003D02*
X83817000Y52928574D01*
X83817000Y52928574D02*
X83888428Y52785717D01*
X83888428Y52785717D02*
X83888428Y52642860D01*
X82888428Y52142860D02*
X84388428Y52142860D01*
X82959857Y52142860D02*
X82888428Y52000002D01*
X82888428Y52000002D02*
X82888428Y51714288D01*
X82888428Y51714288D02*
X82959857Y51571431D01*
X82959857Y51571431D02*
X83031285Y51500002D01*
X83031285Y51500002D02*
X83174142Y51428574D01*
X83174142Y51428574D02*
X83602714Y51428574D01*
X83602714Y51428574D02*
X83745571Y51500002D01*
X83745571Y51500002D02*
X83817000Y51571431D01*
X83817000Y51571431D02*
X83888428Y51714288D01*
X83888428Y51714288D02*
X83888428Y52000002D01*
X83888428Y52000002D02*
X83817000Y52142860D01*
X83817000Y50857145D02*
X83888428Y50714288D01*
X83888428Y50714288D02*
X83888428Y50428574D01*
X83888428Y50428574D02*
X83817000Y50285717D01*
X83817000Y50285717D02*
X83674142Y50214288D01*
X83674142Y50214288D02*
X83602714Y50214288D01*
X83602714Y50214288D02*
X83459857Y50285717D01*
X83459857Y50285717D02*
X83388428Y50428574D01*
X83388428Y50428574D02*
X83388428Y50642859D01*
X83388428Y50642859D02*
X83317000Y50785717D01*
X83317000Y50785717D02*
X83174142Y50857145D01*
X83174142Y50857145D02*
X83102714Y50857145D01*
X83102714Y50857145D02*
X82959857Y50785717D01*
X82959857Y50785717D02*
X82888428Y50642859D01*
X82888428Y50642859D02*
X82888428Y50428574D01*
X82888428Y50428574D02*
X82959857Y50285717D01*
X83745571Y49571431D02*
X83817000Y49500002D01*
X83817000Y49500002D02*
X83888428Y49571431D01*
X83888428Y49571431D02*
X83817000Y49642859D01*
X83817000Y49642859D02*
X83745571Y49571431D01*
X83745571Y49571431D02*
X83888428Y49571431D01*
X82959857Y49571431D02*
X83031285Y49500002D01*
X83031285Y49500002D02*
X83102714Y49571431D01*
X83102714Y49571431D02*
X83031285Y49642859D01*
X83031285Y49642859D02*
X82959857Y49571431D01*
X82959857Y49571431D02*
X83102714Y49571431D01*
X82317000Y47785716D02*
X84245571Y49071430D01*
X82317000Y46214287D02*
X84245571Y47500001D01*
X83888428Y45714287D02*
X82888428Y45714287D01*
X83174142Y45714287D02*
X83031285Y45642858D01*
X83031285Y45642858D02*
X82959857Y45571429D01*
X82959857Y45571429D02*
X82888428Y45428572D01*
X82888428Y45428572D02*
X82888428Y45285715D01*
X82888428Y44142858D02*
X83888428Y44142858D01*
X82888428Y44785716D02*
X83674142Y44785716D01*
X83674142Y44785716D02*
X83817000Y44714287D01*
X83817000Y44714287D02*
X83888428Y44571430D01*
X83888428Y44571430D02*
X83888428Y44357144D01*
X83888428Y44357144D02*
X83817000Y44214287D01*
X83817000Y44214287D02*
X83745571Y44142858D01*
X83817000Y43500001D02*
X83888428Y43357144D01*
X83888428Y43357144D02*
X83888428Y43071430D01*
X83888428Y43071430D02*
X83817000Y42928573D01*
X83817000Y42928573D02*
X83674142Y42857144D01*
X83674142Y42857144D02*
X83602714Y42857144D01*
X83602714Y42857144D02*
X83459857Y42928573D01*
X83459857Y42928573D02*
X83388428Y43071430D01*
X83388428Y43071430D02*
X83388428Y43285715D01*
X83388428Y43285715D02*
X83317000Y43428573D01*
X83317000Y43428573D02*
X83174142Y43500001D01*
X83174142Y43500001D02*
X83102714Y43500001D01*
X83102714Y43500001D02*
X82959857Y43428573D01*
X82959857Y43428573D02*
X82888428Y43285715D01*
X82888428Y43285715D02*
X82888428Y43071430D01*
X82888428Y43071430D02*
X82959857Y42928573D01*
X83817000Y41642858D02*
X83888428Y41785715D01*
X83888428Y41785715D02*
X83888428Y42071429D01*
X83888428Y42071429D02*
X83817000Y42214287D01*
X83817000Y42214287D02*
X83674142Y42285715D01*
X83674142Y42285715D02*
X83102714Y42285715D01*
X83102714Y42285715D02*
X82959857Y42214287D01*
X82959857Y42214287D02*
X82888428Y42071429D01*
X82888428Y42071429D02*
X82888428Y41785715D01*
X82888428Y41785715D02*
X82959857Y41642858D01*
X82959857Y41642858D02*
X83102714Y41571429D01*
X83102714Y41571429D02*
X83245571Y41571429D01*
X83245571Y41571429D02*
X83388428Y42285715D01*
X82888428Y41142858D02*
X82888428Y40571430D01*
X83888428Y40928573D02*
X82602714Y40928573D01*
X82602714Y40928573D02*
X82459857Y40857144D01*
X82459857Y40857144D02*
X82388428Y40714287D01*
X82388428Y40714287D02*
X82388428Y40571430D01*
X83888428Y40071430D02*
X82888428Y40071430D01*
X82388428Y40071430D02*
X82459857Y40142858D01*
X82459857Y40142858D02*
X82531285Y40071430D01*
X82531285Y40071430D02*
X82459857Y40000001D01*
X82459857Y40000001D02*
X82388428Y40071430D01*
X82388428Y40071430D02*
X82531285Y40071430D01*
X83745571Y39357144D02*
X83817000Y39285715D01*
X83817000Y39285715D02*
X83888428Y39357144D01*
X83888428Y39357144D02*
X83817000Y39428572D01*
X83817000Y39428572D02*
X83745571Y39357144D01*
X83745571Y39357144D02*
X83888428Y39357144D01*
X83817000Y38000000D02*
X83888428Y38142858D01*
X83888428Y38142858D02*
X83888428Y38428572D01*
X83888428Y38428572D02*
X83817000Y38571429D01*
X83817000Y38571429D02*
X83745571Y38642858D01*
X83745571Y38642858D02*
X83602714Y38714286D01*
X83602714Y38714286D02*
X83174142Y38714286D01*
X83174142Y38714286D02*
X83031285Y38642858D01*
X83031285Y38642858D02*
X82959857Y38571429D01*
X82959857Y38571429D02*
X82888428Y38428572D01*
X82888428Y38428572D02*
X82888428Y38142858D01*
X82888428Y38142858D02*
X82959857Y38000000D01*
X83888428Y37142858D02*
X83817000Y37285715D01*
X83817000Y37285715D02*
X83745571Y37357144D01*
X83745571Y37357144D02*
X83602714Y37428572D01*
X83602714Y37428572D02*
X83174142Y37428572D01*
X83174142Y37428572D02*
X83031285Y37357144D01*
X83031285Y37357144D02*
X82959857Y37285715D01*
X82959857Y37285715D02*
X82888428Y37142858D01*
X82888428Y37142858D02*
X82888428Y36928572D01*
X82888428Y36928572D02*
X82959857Y36785715D01*
X82959857Y36785715D02*
X83031285Y36714286D01*
X83031285Y36714286D02*
X83174142Y36642858D01*
X83174142Y36642858D02*
X83602714Y36642858D01*
X83602714Y36642858D02*
X83745571Y36714286D01*
X83745571Y36714286D02*
X83817000Y36785715D01*
X83817000Y36785715D02*
X83888428Y36928572D01*
X83888428Y36928572D02*
X83888428Y37142858D01*
X83888428Y36000001D02*
X82888428Y36000001D01*
X83031285Y36000001D02*
X82959857Y35928572D01*
X82959857Y35928572D02*
X82888428Y35785715D01*
X82888428Y35785715D02*
X82888428Y35571429D01*
X82888428Y35571429D02*
X82959857Y35428572D01*
X82959857Y35428572D02*
X83102714Y35357143D01*
X83102714Y35357143D02*
X83888428Y35357143D01*
X83102714Y35357143D02*
X82959857Y35285715D01*
X82959857Y35285715D02*
X82888428Y35142858D01*
X82888428Y35142858D02*
X82888428Y34928572D01*
X82888428Y34928572D02*
X82959857Y34785715D01*
X82959857Y34785715D02*
X83102714Y34714286D01*
X83102714Y34714286D02*
X83888428Y34714286D01*
X82317000Y32928572D02*
X84245571Y34214286D01*
X83817000Y32500000D02*
X83888428Y32357143D01*
X83888428Y32357143D02*
X83888428Y32071429D01*
X83888428Y32071429D02*
X83817000Y31928572D01*
X83817000Y31928572D02*
X83674142Y31857143D01*
X83674142Y31857143D02*
X83602714Y31857143D01*
X83602714Y31857143D02*
X83459857Y31928572D01*
X83459857Y31928572D02*
X83388428Y32071429D01*
X83388428Y32071429D02*
X83388428Y32285714D01*
X83388428Y32285714D02*
X83317000Y32428572D01*
X83317000Y32428572D02*
X83174142Y32500000D01*
X83174142Y32500000D02*
X83102714Y32500000D01*
X83102714Y32500000D02*
X82959857Y32428572D01*
X82959857Y32428572D02*
X82888428Y32285714D01*
X82888428Y32285714D02*
X82888428Y32071429D01*
X82888428Y32071429D02*
X82959857Y31928572D01*
X82317000Y30142857D02*
X84245571Y31428571D01*
X83888428Y29642857D02*
X82888428Y29642857D01*
X83031285Y29642857D02*
X82959857Y29571428D01*
X82959857Y29571428D02*
X82888428Y29428571D01*
X82888428Y29428571D02*
X82888428Y29214285D01*
X82888428Y29214285D02*
X82959857Y29071428D01*
X82959857Y29071428D02*
X83102714Y28999999D01*
X83102714Y28999999D02*
X83888428Y28999999D01*
X83102714Y28999999D02*
X82959857Y28928571D01*
X82959857Y28928571D02*
X82888428Y28785714D01*
X82888428Y28785714D02*
X82888428Y28571428D01*
X82888428Y28571428D02*
X82959857Y28428571D01*
X82959857Y28428571D02*
X83102714Y28357142D01*
X83102714Y28357142D02*
X83888428Y28357142D01*
X83888428Y27642857D02*
X82888428Y27642857D01*
X82388428Y27642857D02*
X82459857Y27714285D01*
X82459857Y27714285D02*
X82531285Y27642857D01*
X82531285Y27642857D02*
X82459857Y27571428D01*
X82459857Y27571428D02*
X82388428Y27642857D01*
X82388428Y27642857D02*
X82531285Y27642857D01*
X83817000Y26999999D02*
X83888428Y26857142D01*
X83888428Y26857142D02*
X83888428Y26571428D01*
X83888428Y26571428D02*
X83817000Y26428571D01*
X83817000Y26428571D02*
X83674142Y26357142D01*
X83674142Y26357142D02*
X83602714Y26357142D01*
X83602714Y26357142D02*
X83459857Y26428571D01*
X83459857Y26428571D02*
X83388428Y26571428D01*
X83388428Y26571428D02*
X83388428Y26785713D01*
X83388428Y26785713D02*
X83317000Y26928571D01*
X83317000Y26928571D02*
X83174142Y26999999D01*
X83174142Y26999999D02*
X83102714Y26999999D01*
X83102714Y26999999D02*
X82959857Y26928571D01*
X82959857Y26928571D02*
X82888428Y26785713D01*
X82888428Y26785713D02*
X82888428Y26571428D01*
X82888428Y26571428D02*
X82959857Y26428571D01*
X83817000Y25785713D02*
X83888428Y25642856D01*
X83888428Y25642856D02*
X83888428Y25357142D01*
X83888428Y25357142D02*
X83817000Y25214285D01*
X83817000Y25214285D02*
X83674142Y25142856D01*
X83674142Y25142856D02*
X83602714Y25142856D01*
X83602714Y25142856D02*
X83459857Y25214285D01*
X83459857Y25214285D02*
X83388428Y25357142D01*
X83388428Y25357142D02*
X83388428Y25571427D01*
X83388428Y25571427D02*
X83317000Y25714285D01*
X83317000Y25714285D02*
X83174142Y25785713D01*
X83174142Y25785713D02*
X83102714Y25785713D01*
X83102714Y25785713D02*
X82959857Y25714285D01*
X82959857Y25714285D02*
X82888428Y25571427D01*
X82888428Y25571427D02*
X82888428Y25357142D01*
X82888428Y25357142D02*
X82959857Y25214285D01*
X83888428Y24499999D02*
X82888428Y24499999D01*
X82388428Y24499999D02*
X82459857Y24571427D01*
X82459857Y24571427D02*
X82531285Y24499999D01*
X82531285Y24499999D02*
X82459857Y24428570D01*
X82459857Y24428570D02*
X82388428Y24499999D01*
X82388428Y24499999D02*
X82531285Y24499999D01*
X83888428Y23571427D02*
X83817000Y23714284D01*
X83817000Y23714284D02*
X83745571Y23785713D01*
X83745571Y23785713D02*
X83602714Y23857141D01*
X83602714Y23857141D02*
X83174142Y23857141D01*
X83174142Y23857141D02*
X83031285Y23785713D01*
X83031285Y23785713D02*
X82959857Y23714284D01*
X82959857Y23714284D02*
X82888428Y23571427D01*
X82888428Y23571427D02*
X82888428Y23357141D01*
X82888428Y23357141D02*
X82959857Y23214284D01*
X82959857Y23214284D02*
X83031285Y23142855D01*
X83031285Y23142855D02*
X83174142Y23071427D01*
X83174142Y23071427D02*
X83602714Y23071427D01*
X83602714Y23071427D02*
X83745571Y23142855D01*
X83745571Y23142855D02*
X83817000Y23214284D01*
X83817000Y23214284D02*
X83888428Y23357141D01*
X83888428Y23357141D02*
X83888428Y23571427D01*
X82888428Y22428570D02*
X83888428Y22428570D01*
X83031285Y22428570D02*
X82959857Y22357141D01*
X82959857Y22357141D02*
X82888428Y22214284D01*
X82888428Y22214284D02*
X82888428Y21999998D01*
X82888428Y21999998D02*
X82959857Y21857141D01*
X82959857Y21857141D02*
X83102714Y21785712D01*
X83102714Y21785712D02*
X83888428Y21785712D01*
D10*
X2214283Y19992686D02*
X785712Y19992686D01*
X2499997Y19135543D02*
X1499997Y22135543D01*
X1499997Y22135543D02*
X499997Y19135543D01*
X99142855Y84206972D02*
X98142855Y84206972D01*
X97714283Y82635543D02*
X99142855Y82635543D01*
X99142855Y82635543D02*
X99142855Y85635543D01*
X99142855Y85635543D02*
X97714283Y85635543D01*
X4571426Y89921258D02*
X4714283Y89778400D01*
X4714283Y89778400D02*
X5142855Y89635543D01*
X5142855Y89635543D02*
X5428569Y89635543D01*
X5428569Y89635543D02*
X5857140Y89778400D01*
X5857140Y89778400D02*
X6142855Y90064115D01*
X6142855Y90064115D02*
X6285712Y90349829D01*
X6285712Y90349829D02*
X6428569Y90921258D01*
X6428569Y90921258D02*
X6428569Y91349829D01*
X6428569Y91349829D02*
X6285712Y91921258D01*
X6285712Y91921258D02*
X6142855Y92206972D01*
X6142855Y92206972D02*
X5857140Y92492686D01*
X5857140Y92492686D02*
X5428569Y92635543D01*
X5428569Y92635543D02*
X5142855Y92635543D01*
X5142855Y92635543D02*
X4714283Y92492686D01*
X4714283Y92492686D02*
X4571426Y92349829D01*
X56285712Y90135543D02*
X56285712Y93135543D01*
X56285712Y93135543D02*
X55571426Y93135543D01*
X55571426Y93135543D02*
X55142855Y92992686D01*
X55142855Y92992686D02*
X54857140Y92706972D01*
X54857140Y92706972D02*
X54714283Y92421258D01*
X54714283Y92421258D02*
X54571426Y91849829D01*
X54571426Y91849829D02*
X54571426Y91421258D01*
X54571426Y91421258D02*
X54714283Y90849829D01*
X54714283Y90849829D02*
X54857140Y90564115D01*
X54857140Y90564115D02*
X55142855Y90278400D01*
X55142855Y90278400D02*
X55571426Y90135543D01*
X55571426Y90135543D02*
X56285712Y90135543D01*
D12*
X34738094Y59295181D02*
X34738094Y60295181D01*
X34738094Y60295181D02*
X34357142Y60295181D01*
X34357142Y60295181D02*
X34261904Y60247562D01*
X34261904Y60247562D02*
X34214285Y60199943D01*
X34214285Y60199943D02*
X34166666Y60104705D01*
X34166666Y60104705D02*
X34166666Y59961848D01*
X34166666Y59961848D02*
X34214285Y59866610D01*
X34214285Y59866610D02*
X34261904Y59818991D01*
X34261904Y59818991D02*
X34357142Y59771372D01*
X34357142Y59771372D02*
X34738094Y59771372D01*
X33214285Y59295181D02*
X33785713Y59295181D01*
X33499999Y59295181D02*
X33499999Y60295181D01*
X33499999Y60295181D02*
X33595237Y60152324D01*
X33595237Y60152324D02*
X33690475Y60057086D01*
X33690475Y60057086D02*
X33785713Y60009467D01*
X31738094Y59295181D02*
X31738094Y60295181D01*
X31738094Y60295181D02*
X31357142Y60295181D01*
X31357142Y60295181D02*
X31261904Y60247562D01*
X31261904Y60247562D02*
X31214285Y60199943D01*
X31214285Y60199943D02*
X31166666Y60104705D01*
X31166666Y60104705D02*
X31166666Y59961848D01*
X31166666Y59961848D02*
X31214285Y59866610D01*
X31214285Y59866610D02*
X31261904Y59818991D01*
X31261904Y59818991D02*
X31357142Y59771372D01*
X31357142Y59771372D02*
X31738094Y59771372D01*
X30785713Y60199943D02*
X30738094Y60247562D01*
X30738094Y60247562D02*
X30642856Y60295181D01*
X30642856Y60295181D02*
X30404761Y60295181D01*
X30404761Y60295181D02*
X30309523Y60247562D01*
X30309523Y60247562D02*
X30261904Y60199943D01*
X30261904Y60199943D02*
X30214285Y60104705D01*
X30214285Y60104705D02*
X30214285Y60009467D01*
X30214285Y60009467D02*
X30261904Y59866610D01*
X30261904Y59866610D02*
X30833332Y59295181D01*
X30833332Y59295181D02*
X30214285Y59295181D01*
D13*
X20133999Y21053232D02*
X20387999Y21053232D01*
X20387999Y20654089D02*
X20387999Y21416089D01*
X20387999Y21416089D02*
X20025142Y21416089D01*
X19408285Y21162089D02*
X19408285Y20654089D01*
X19589713Y21452374D02*
X19771142Y20908089D01*
X19771142Y20908089D02*
X19299427Y20908089D01*
D12*
X63238094Y9295181D02*
X63238094Y10295181D01*
X63238094Y10295181D02*
X62857142Y10295181D01*
X62857142Y10295181D02*
X62761904Y10247562D01*
X62761904Y10247562D02*
X62714285Y10199943D01*
X62714285Y10199943D02*
X62666666Y10104705D01*
X62666666Y10104705D02*
X62666666Y9961848D01*
X62666666Y9961848D02*
X62714285Y9866610D01*
X62714285Y9866610D02*
X62761904Y9818991D01*
X62761904Y9818991D02*
X62857142Y9771372D01*
X62857142Y9771372D02*
X63238094Y9771372D01*
X61809523Y9961848D02*
X61809523Y9295181D01*
X62047618Y10342800D02*
X62285713Y9628515D01*
X62285713Y9628515D02*
X61666666Y9628515D01*
X41938094Y33295181D02*
X41938094Y34295181D01*
X41938094Y34295181D02*
X41557142Y34295181D01*
X41557142Y34295181D02*
X41461904Y34247562D01*
X41461904Y34247562D02*
X41414285Y34199943D01*
X41414285Y34199943D02*
X41366666Y34104705D01*
X41366666Y34104705D02*
X41366666Y33961848D01*
X41366666Y33961848D02*
X41414285Y33866610D01*
X41414285Y33866610D02*
X41461904Y33818991D01*
X41461904Y33818991D02*
X41557142Y33771372D01*
X41557142Y33771372D02*
X41938094Y33771372D01*
X40461904Y34295181D02*
X40938094Y34295181D01*
X40938094Y34295181D02*
X40985713Y33818991D01*
X40985713Y33818991D02*
X40938094Y33866610D01*
X40938094Y33866610D02*
X40842856Y33914229D01*
X40842856Y33914229D02*
X40604761Y33914229D01*
X40604761Y33914229D02*
X40509523Y33866610D01*
X40509523Y33866610D02*
X40461904Y33818991D01*
X40461904Y33818991D02*
X40414285Y33723753D01*
X40414285Y33723753D02*
X40414285Y33485658D01*
X40414285Y33485658D02*
X40461904Y33390420D01*
X40461904Y33390420D02*
X40509523Y33342800D01*
X40509523Y33342800D02*
X40604761Y33295181D01*
X40604761Y33295181D02*
X40842856Y33295181D01*
X40842856Y33295181D02*
X40938094Y33342800D01*
X40938094Y33342800D02*
X40985713Y33390420D01*
D13*
X22753999Y21053232D02*
X23007999Y21053232D01*
X23007999Y20654089D02*
X23007999Y21416089D01*
X23007999Y21416089D02*
X22645142Y21416089D01*
X22427427Y21416089D02*
X21955713Y21416089D01*
X21955713Y21416089D02*
X22209713Y21125803D01*
X22209713Y21125803D02*
X22100856Y21125803D01*
X22100856Y21125803D02*
X22028285Y21089517D01*
X22028285Y21089517D02*
X21991999Y21053232D01*
X21991999Y21053232D02*
X21955713Y20980660D01*
X21955713Y20980660D02*
X21955713Y20799232D01*
X21955713Y20799232D02*
X21991999Y20726660D01*
X21991999Y20726660D02*
X22028285Y20690374D01*
X22028285Y20690374D02*
X22100856Y20654089D01*
X22100856Y20654089D02*
X22318570Y20654089D01*
X22318570Y20654089D02*
X22391142Y20690374D01*
X22391142Y20690374D02*
X22427427Y20726660D01*
X81753999Y81553232D02*
X82007999Y81553232D01*
X82007999Y81154089D02*
X82007999Y81916089D01*
X82007999Y81916089D02*
X81645142Y81916089D01*
X80955713Y81154089D02*
X81391142Y81154089D01*
X81173427Y81154089D02*
X81173427Y81916089D01*
X81173427Y81916089D02*
X81245999Y81807232D01*
X81245999Y81807232D02*
X81318570Y81734660D01*
X81318570Y81734660D02*
X81391142Y81698374D01*
D12*
X63238094Y4295181D02*
X63238094Y5295181D01*
X63238094Y5295181D02*
X62857142Y5295181D01*
X62857142Y5295181D02*
X62761904Y5247562D01*
X62761904Y5247562D02*
X62714285Y5199943D01*
X62714285Y5199943D02*
X62666666Y5104705D01*
X62666666Y5104705D02*
X62666666Y4961848D01*
X62666666Y4961848D02*
X62714285Y4866610D01*
X62714285Y4866610D02*
X62761904Y4818991D01*
X62761904Y4818991D02*
X62857142Y4771372D01*
X62857142Y4771372D02*
X63238094Y4771372D01*
X62333332Y5295181D02*
X61714285Y5295181D01*
X61714285Y5295181D02*
X62047618Y4914229D01*
X62047618Y4914229D02*
X61904761Y4914229D01*
X61904761Y4914229D02*
X61809523Y4866610D01*
X61809523Y4866610D02*
X61761904Y4818991D01*
X61761904Y4818991D02*
X61714285Y4723753D01*
X61714285Y4723753D02*
X61714285Y4485658D01*
X61714285Y4485658D02*
X61761904Y4390420D01*
X61761904Y4390420D02*
X61809523Y4342800D01*
X61809523Y4342800D02*
X61904761Y4295181D01*
X61904761Y4295181D02*
X62190475Y4295181D01*
X62190475Y4295181D02*
X62285713Y4342800D01*
X62285713Y4342800D02*
X62333332Y4390420D01*
D13*
X16946768Y23032024D02*
X16946768Y23286024D01*
X17345911Y23286024D02*
X16583911Y23286024D01*
X16583911Y23286024D02*
X16583911Y22923167D01*
X16656483Y22669167D02*
X16620197Y22632881D01*
X16620197Y22632881D02*
X16583911Y22560309D01*
X16583911Y22560309D02*
X16583911Y22378881D01*
X16583911Y22378881D02*
X16620197Y22306309D01*
X16620197Y22306309D02*
X16656483Y22270024D01*
X16656483Y22270024D02*
X16729054Y22233738D01*
X16729054Y22233738D02*
X16801626Y22233738D01*
X16801626Y22233738D02*
X16910483Y22270024D01*
X16910483Y22270024D02*
X17345911Y22705452D01*
X17345911Y22705452D02*
X17345911Y22233738D01*
D12*
X44238094Y6295181D02*
X44238094Y7295181D01*
X44238094Y7295181D02*
X43857142Y7295181D01*
X43857142Y7295181D02*
X43761904Y7247562D01*
X43761904Y7247562D02*
X43714285Y7199943D01*
X43714285Y7199943D02*
X43666666Y7104705D01*
X43666666Y7104705D02*
X43666666Y6961848D01*
X43666666Y6961848D02*
X43714285Y6866610D01*
X43714285Y6866610D02*
X43761904Y6818991D01*
X43761904Y6818991D02*
X43857142Y6771372D01*
X43857142Y6771372D02*
X44238094Y6771372D01*
X42809523Y7295181D02*
X42999999Y7295181D01*
X42999999Y7295181D02*
X43095237Y7247562D01*
X43095237Y7247562D02*
X43142856Y7199943D01*
X43142856Y7199943D02*
X43238094Y7057086D01*
X43238094Y7057086D02*
X43285713Y6866610D01*
X43285713Y6866610D02*
X43285713Y6485658D01*
X43285713Y6485658D02*
X43238094Y6390420D01*
X43238094Y6390420D02*
X43190475Y6342800D01*
X43190475Y6342800D02*
X43095237Y6295181D01*
X43095237Y6295181D02*
X42904761Y6295181D01*
X42904761Y6295181D02*
X42809523Y6342800D01*
X42809523Y6342800D02*
X42761904Y6390420D01*
X42761904Y6390420D02*
X42714285Y6485658D01*
X42714285Y6485658D02*
X42714285Y6723753D01*
X42714285Y6723753D02*
X42761904Y6818991D01*
X42761904Y6818991D02*
X42809523Y6866610D01*
X42809523Y6866610D02*
X42904761Y6914229D01*
X42904761Y6914229D02*
X43095237Y6914229D01*
X43095237Y6914229D02*
X43190475Y6866610D01*
X43190475Y6866610D02*
X43238094Y6818991D01*
X43238094Y6818991D02*
X43285713Y6723753D01*
X54934819Y73538095D02*
X53934819Y73538095D01*
X53934819Y73538095D02*
X53934819Y73300000D01*
X53934819Y73300000D02*
X53982438Y73157143D01*
X53982438Y73157143D02*
X54077676Y73061905D01*
X54077676Y73061905D02*
X54172914Y73014286D01*
X54172914Y73014286D02*
X54363390Y72966667D01*
X54363390Y72966667D02*
X54506247Y72966667D01*
X54506247Y72966667D02*
X54696723Y73014286D01*
X54696723Y73014286D02*
X54791961Y73061905D01*
X54791961Y73061905D02*
X54887200Y73157143D01*
X54887200Y73157143D02*
X54934819Y73300000D01*
X54934819Y73300000D02*
X54934819Y73538095D01*
X54363390Y72395238D02*
X54315771Y72490476D01*
X54315771Y72490476D02*
X54268152Y72538095D01*
X54268152Y72538095D02*
X54172914Y72585714D01*
X54172914Y72585714D02*
X54125295Y72585714D01*
X54125295Y72585714D02*
X54030057Y72538095D01*
X54030057Y72538095D02*
X53982438Y72490476D01*
X53982438Y72490476D02*
X53934819Y72395238D01*
X53934819Y72395238D02*
X53934819Y72204762D01*
X53934819Y72204762D02*
X53982438Y72109524D01*
X53982438Y72109524D02*
X54030057Y72061905D01*
X54030057Y72061905D02*
X54125295Y72014286D01*
X54125295Y72014286D02*
X54172914Y72014286D01*
X54172914Y72014286D02*
X54268152Y72061905D01*
X54268152Y72061905D02*
X54315771Y72109524D01*
X54315771Y72109524D02*
X54363390Y72204762D01*
X54363390Y72204762D02*
X54363390Y72395238D01*
X54363390Y72395238D02*
X54411009Y72490476D01*
X54411009Y72490476D02*
X54458628Y72538095D01*
X54458628Y72538095D02*
X54553866Y72585714D01*
X54553866Y72585714D02*
X54744342Y72585714D01*
X54744342Y72585714D02*
X54839580Y72538095D01*
X54839580Y72538095D02*
X54887200Y72490476D01*
X54887200Y72490476D02*
X54934819Y72395238D01*
X54934819Y72395238D02*
X54934819Y72204762D01*
X54934819Y72204762D02*
X54887200Y72109524D01*
X54887200Y72109524D02*
X54839580Y72061905D01*
X54839580Y72061905D02*
X54744342Y72014286D01*
X54744342Y72014286D02*
X54553866Y72014286D01*
X54553866Y72014286D02*
X54458628Y72061905D01*
X54458628Y72061905D02*
X54411009Y72109524D01*
X54411009Y72109524D02*
X54363390Y72204762D01*
D14*
X21370508Y78605238D02*
X20550508Y78605238D01*
X20550508Y78605238D02*
X20550508Y78410000D01*
X20550508Y78410000D02*
X20589556Y78292857D01*
X20589556Y78292857D02*
X20667651Y78214762D01*
X20667651Y78214762D02*
X20745746Y78175715D01*
X20745746Y78175715D02*
X20901937Y78136667D01*
X20901937Y78136667D02*
X21019080Y78136667D01*
X21019080Y78136667D02*
X21175270Y78175715D01*
X21175270Y78175715D02*
X21253365Y78214762D01*
X21253365Y78214762D02*
X21331461Y78292857D01*
X21331461Y78292857D02*
X21370508Y78410000D01*
X21370508Y78410000D02*
X21370508Y78605238D01*
X20823841Y77433810D02*
X21370508Y77433810D01*
X20511461Y77629048D02*
X21097175Y77824286D01*
X21097175Y77824286D02*
X21097175Y77316667D01*
D12*
X97552714Y16989049D02*
X97409857Y16941430D01*
X97409857Y16941430D02*
X97362238Y16893811D01*
X97362238Y16893811D02*
X97314619Y16798573D01*
X97314619Y16798573D02*
X97314619Y16655716D01*
X97314619Y16655716D02*
X97362238Y16560478D01*
X97362238Y16560478D02*
X97409857Y16512858D01*
X97409857Y16512858D02*
X97505095Y16465239D01*
X97505095Y16465239D02*
X97886047Y16465239D01*
X97886047Y16465239D02*
X97886047Y17465239D01*
X97886047Y17465239D02*
X97552714Y17465239D01*
X97552714Y17465239D02*
X97457476Y17417620D01*
X97457476Y17417620D02*
X97409857Y17370001D01*
X97409857Y17370001D02*
X97362238Y17274763D01*
X97362238Y17274763D02*
X97362238Y17179525D01*
X97362238Y17179525D02*
X97409857Y17084287D01*
X97409857Y17084287D02*
X97457476Y17036668D01*
X97457476Y17036668D02*
X97552714Y16989049D01*
X97552714Y16989049D02*
X97886047Y16989049D01*
X97028904Y17465239D02*
X96457476Y17465239D01*
X96743190Y16465239D02*
X96743190Y17465239D01*
X95600333Y16465239D02*
X96171761Y16465239D01*
X95886047Y16465239D02*
X95886047Y17465239D01*
X95886047Y17465239D02*
X95981285Y17322382D01*
X95981285Y17322382D02*
X96076523Y17227144D01*
X96076523Y17227144D02*
X96171761Y17179525D01*
D14*
X4163014Y41340093D02*
X4553490Y41066760D01*
X4163014Y40871522D02*
X4983014Y40871522D01*
X4983014Y40871522D02*
X4983014Y41183903D01*
X4983014Y41183903D02*
X4943966Y41261998D01*
X4943966Y41261998D02*
X4904919Y41301045D01*
X4904919Y41301045D02*
X4826823Y41340093D01*
X4826823Y41340093D02*
X4709681Y41340093D01*
X4709681Y41340093D02*
X4631585Y41301045D01*
X4631585Y41301045D02*
X4592538Y41261998D01*
X4592538Y41261998D02*
X4553490Y41183903D01*
X4553490Y41183903D02*
X4553490Y40871522D01*
X4983014Y41613426D02*
X4983014Y42121045D01*
X4983014Y42121045D02*
X4670633Y41847712D01*
X4670633Y41847712D02*
X4670633Y41964855D01*
X4670633Y41964855D02*
X4631585Y42042950D01*
X4631585Y42042950D02*
X4592538Y42081998D01*
X4592538Y42081998D02*
X4514442Y42121045D01*
X4514442Y42121045D02*
X4319204Y42121045D01*
X4319204Y42121045D02*
X4241109Y42081998D01*
X4241109Y42081998D02*
X4202062Y42042950D01*
X4202062Y42042950D02*
X4163014Y41964855D01*
X4163014Y41964855D02*
X4163014Y41730569D01*
X4163014Y41730569D02*
X4202062Y41652474D01*
X4202062Y41652474D02*
X4241109Y41613426D01*
X4163014Y42901997D02*
X4163014Y42433426D01*
X4163014Y42667712D02*
X4983014Y42667712D01*
X4983014Y42667712D02*
X4865871Y42589616D01*
X4865871Y42589616D02*
X4787776Y42511521D01*
X4787776Y42511521D02*
X4748728Y42433426D01*
X96072582Y33932467D02*
X96111630Y33971515D01*
X96111630Y33971515D02*
X96150677Y34088658D01*
X96150677Y34088658D02*
X96150677Y34166753D01*
X96150677Y34166753D02*
X96111630Y34283896D01*
X96111630Y34283896D02*
X96033534Y34361991D01*
X96033534Y34361991D02*
X95955439Y34401039D01*
X95955439Y34401039D02*
X95799248Y34440087D01*
X95799248Y34440087D02*
X95682105Y34440087D01*
X95682105Y34440087D02*
X95525915Y34401039D01*
X95525915Y34401039D02*
X95447819Y34361991D01*
X95447819Y34361991D02*
X95369724Y34283896D01*
X95369724Y34283896D02*
X95330676Y34166753D01*
X95330676Y34166753D02*
X95330676Y34088658D01*
X95330676Y34088658D02*
X95369724Y33971515D01*
X95369724Y33971515D02*
X95408772Y33932467D01*
X95330676Y33659133D02*
X95330676Y33151514D01*
X95330676Y33151514D02*
X95643058Y33424847D01*
X95643058Y33424847D02*
X95643058Y33307704D01*
X95643058Y33307704D02*
X95682105Y33229609D01*
X95682105Y33229609D02*
X95721153Y33190561D01*
X95721153Y33190561D02*
X95799248Y33151514D01*
X95799248Y33151514D02*
X95994487Y33151514D01*
X95994487Y33151514D02*
X96072582Y33190561D01*
X96072582Y33190561D02*
X96111630Y33229609D01*
X96111630Y33229609D02*
X96150677Y33307704D01*
X96150677Y33307704D02*
X96150677Y33541990D01*
X96150677Y33541990D02*
X96111630Y33620086D01*
X96111630Y33620086D02*
X96072582Y33659133D01*
X95330676Y32878180D02*
X95330676Y32370561D01*
X95330676Y32370561D02*
X95643058Y32643894D01*
X95643058Y32643894D02*
X95643058Y32526751D01*
X95643058Y32526751D02*
X95682105Y32448656D01*
X95682105Y32448656D02*
X95721153Y32409608D01*
X95721153Y32409608D02*
X95799248Y32370561D01*
X95799248Y32370561D02*
X95994487Y32370561D01*
X95994487Y32370561D02*
X96072582Y32409608D01*
X96072582Y32409608D02*
X96111630Y32448656D01*
X96111630Y32448656D02*
X96150677Y32526751D01*
X96150677Y32526751D02*
X96150677Y32761037D01*
X96150677Y32761037D02*
X96111630Y32839133D01*
X96111630Y32839133D02*
X96072582Y32878180D01*
D12*
X60022857Y75440420D02*
X60070476Y75392800D01*
X60070476Y75392800D02*
X60213333Y75345181D01*
X60213333Y75345181D02*
X60308571Y75345181D01*
X60308571Y75345181D02*
X60451428Y75392800D01*
X60451428Y75392800D02*
X60546666Y75488039D01*
X60546666Y75488039D02*
X60594285Y75583277D01*
X60594285Y75583277D02*
X60641904Y75773753D01*
X60641904Y75773753D02*
X60641904Y75916610D01*
X60641904Y75916610D02*
X60594285Y76107086D01*
X60594285Y76107086D02*
X60546666Y76202324D01*
X60546666Y76202324D02*
X60451428Y76297562D01*
X60451428Y76297562D02*
X60308571Y76345181D01*
X60308571Y76345181D02*
X60213333Y76345181D01*
X60213333Y76345181D02*
X60070476Y76297562D01*
X60070476Y76297562D02*
X60022857Y76249943D01*
X59641904Y76249943D02*
X59594285Y76297562D01*
X59594285Y76297562D02*
X59499047Y76345181D01*
X59499047Y76345181D02*
X59260952Y76345181D01*
X59260952Y76345181D02*
X59165714Y76297562D01*
X59165714Y76297562D02*
X59118095Y76249943D01*
X59118095Y76249943D02*
X59070476Y76154705D01*
X59070476Y76154705D02*
X59070476Y76059467D01*
X59070476Y76059467D02*
X59118095Y75916610D01*
X59118095Y75916610D02*
X59689523Y75345181D01*
X59689523Y75345181D02*
X59070476Y75345181D01*
X58594285Y75345181D02*
X58403809Y75345181D01*
X58403809Y75345181D02*
X58308571Y75392800D01*
X58308571Y75392800D02*
X58260952Y75440420D01*
X58260952Y75440420D02*
X58165714Y75583277D01*
X58165714Y75583277D02*
X58118095Y75773753D01*
X58118095Y75773753D02*
X58118095Y76154705D01*
X58118095Y76154705D02*
X58165714Y76249943D01*
X58165714Y76249943D02*
X58213333Y76297562D01*
X58213333Y76297562D02*
X58308571Y76345181D01*
X58308571Y76345181D02*
X58499047Y76345181D01*
X58499047Y76345181D02*
X58594285Y76297562D01*
X58594285Y76297562D02*
X58641904Y76249943D01*
X58641904Y76249943D02*
X58689523Y76154705D01*
X58689523Y76154705D02*
X58689523Y75916610D01*
X58689523Y75916610D02*
X58641904Y75821372D01*
X58641904Y75821372D02*
X58594285Y75773753D01*
X58594285Y75773753D02*
X58499047Y75726134D01*
X58499047Y75726134D02*
X58308571Y75726134D01*
X58308571Y75726134D02*
X58213333Y75773753D01*
X58213333Y75773753D02*
X58165714Y75821372D01*
X58165714Y75821372D02*
X58118095Y75916610D01*
D14*
X6663014Y41340093D02*
X7053490Y41066760D01*
X6663014Y40871522D02*
X7483014Y40871522D01*
X7483014Y40871522D02*
X7483014Y41183903D01*
X7483014Y41183903D02*
X7443966Y41261998D01*
X7443966Y41261998D02*
X7404919Y41301045D01*
X7404919Y41301045D02*
X7326823Y41340093D01*
X7326823Y41340093D02*
X7209681Y41340093D01*
X7209681Y41340093D02*
X7131585Y41301045D01*
X7131585Y41301045D02*
X7092538Y41261998D01*
X7092538Y41261998D02*
X7053490Y41183903D01*
X7053490Y41183903D02*
X7053490Y40871522D01*
X7483014Y41613426D02*
X7483014Y42121045D01*
X7483014Y42121045D02*
X7170633Y41847712D01*
X7170633Y41847712D02*
X7170633Y41964855D01*
X7170633Y41964855D02*
X7131585Y42042950D01*
X7131585Y42042950D02*
X7092538Y42081998D01*
X7092538Y42081998D02*
X7014442Y42121045D01*
X7014442Y42121045D02*
X6819204Y42121045D01*
X6819204Y42121045D02*
X6741109Y42081998D01*
X6741109Y42081998D02*
X6702062Y42042950D01*
X6702062Y42042950D02*
X6663014Y41964855D01*
X6663014Y41964855D02*
X6663014Y41730569D01*
X6663014Y41730569D02*
X6702062Y41652474D01*
X6702062Y41652474D02*
X6741109Y41613426D01*
X7209681Y42823902D02*
X6663014Y42823902D01*
X7522062Y42628664D02*
X6936347Y42433426D01*
X6936347Y42433426D02*
X6936347Y42941045D01*
X37635089Y79161986D02*
X37361756Y78771510D01*
X37166518Y79161986D02*
X37166518Y78341986D01*
X37166518Y78341986D02*
X37478899Y78341986D01*
X37478899Y78341986D02*
X37556994Y78381034D01*
X37556994Y78381034D02*
X37596041Y78420081D01*
X37596041Y78420081D02*
X37635089Y78498177D01*
X37635089Y78498177D02*
X37635089Y78615319D01*
X37635089Y78615319D02*
X37596041Y78693415D01*
X37596041Y78693415D02*
X37556994Y78732462D01*
X37556994Y78732462D02*
X37478899Y78771510D01*
X37478899Y78771510D02*
X37166518Y78771510D01*
X38416041Y79161986D02*
X37947470Y79161986D01*
X38181756Y79161986D02*
X38181756Y78341986D01*
X38181756Y78341986D02*
X38103660Y78459129D01*
X38103660Y78459129D02*
X38025565Y78537224D01*
X38025565Y78537224D02*
X37947470Y78576272D01*
D12*
X22330357Y64640181D02*
X22663690Y65116372D01*
X22901785Y64640181D02*
X22901785Y65640181D01*
X22901785Y65640181D02*
X22520833Y65640181D01*
X22520833Y65640181D02*
X22425595Y65592562D01*
X22425595Y65592562D02*
X22377976Y65544943D01*
X22377976Y65544943D02*
X22330357Y65449705D01*
X22330357Y65449705D02*
X22330357Y65306848D01*
X22330357Y65306848D02*
X22377976Y65211610D01*
X22377976Y65211610D02*
X22425595Y65163991D01*
X22425595Y65163991D02*
X22520833Y65116372D01*
X22520833Y65116372D02*
X22901785Y65116372D01*
X21949404Y65544943D02*
X21901785Y65592562D01*
X21901785Y65592562D02*
X21806547Y65640181D01*
X21806547Y65640181D02*
X21568452Y65640181D01*
X21568452Y65640181D02*
X21473214Y65592562D01*
X21473214Y65592562D02*
X21425595Y65544943D01*
X21425595Y65544943D02*
X21377976Y65449705D01*
X21377976Y65449705D02*
X21377976Y65354467D01*
X21377976Y65354467D02*
X21425595Y65211610D01*
X21425595Y65211610D02*
X21997023Y64640181D01*
X21997023Y64640181D02*
X21377976Y64640181D01*
X20758928Y65640181D02*
X20663690Y65640181D01*
X20663690Y65640181D02*
X20568452Y65592562D01*
X20568452Y65592562D02*
X20520833Y65544943D01*
X20520833Y65544943D02*
X20473214Y65449705D01*
X20473214Y65449705D02*
X20425595Y65259229D01*
X20425595Y65259229D02*
X20425595Y65021134D01*
X20425595Y65021134D02*
X20473214Y64830658D01*
X20473214Y64830658D02*
X20520833Y64735420D01*
X20520833Y64735420D02*
X20568452Y64687800D01*
X20568452Y64687800D02*
X20663690Y64640181D01*
X20663690Y64640181D02*
X20758928Y64640181D01*
X20758928Y64640181D02*
X20854166Y64687800D01*
X20854166Y64687800D02*
X20901785Y64735420D01*
X20901785Y64735420D02*
X20949404Y64830658D01*
X20949404Y64830658D02*
X20997023Y65021134D01*
X20997023Y65021134D02*
X20997023Y65259229D01*
X20997023Y65259229D02*
X20949404Y65449705D01*
X20949404Y65449705D02*
X20901785Y65544943D01*
X20901785Y65544943D02*
X20854166Y65592562D01*
X20854166Y65592562D02*
X20758928Y65640181D01*
X22330357Y43640181D02*
X22663690Y44116372D01*
X22901785Y43640181D02*
X22901785Y44640181D01*
X22901785Y44640181D02*
X22520833Y44640181D01*
X22520833Y44640181D02*
X22425595Y44592562D01*
X22425595Y44592562D02*
X22377976Y44544943D01*
X22377976Y44544943D02*
X22330357Y44449705D01*
X22330357Y44449705D02*
X22330357Y44306848D01*
X22330357Y44306848D02*
X22377976Y44211610D01*
X22377976Y44211610D02*
X22425595Y44163991D01*
X22425595Y44163991D02*
X22520833Y44116372D01*
X22520833Y44116372D02*
X22901785Y44116372D01*
X21949404Y44544943D02*
X21901785Y44592562D01*
X21901785Y44592562D02*
X21806547Y44640181D01*
X21806547Y44640181D02*
X21568452Y44640181D01*
X21568452Y44640181D02*
X21473214Y44592562D01*
X21473214Y44592562D02*
X21425595Y44544943D01*
X21425595Y44544943D02*
X21377976Y44449705D01*
X21377976Y44449705D02*
X21377976Y44354467D01*
X21377976Y44354467D02*
X21425595Y44211610D01*
X21425595Y44211610D02*
X21997023Y43640181D01*
X21997023Y43640181D02*
X21377976Y43640181D01*
X20520833Y44640181D02*
X20711309Y44640181D01*
X20711309Y44640181D02*
X20806547Y44592562D01*
X20806547Y44592562D02*
X20854166Y44544943D01*
X20854166Y44544943D02*
X20949404Y44402086D01*
X20949404Y44402086D02*
X20997023Y44211610D01*
X20997023Y44211610D02*
X20997023Y43830658D01*
X20997023Y43830658D02*
X20949404Y43735420D01*
X20949404Y43735420D02*
X20901785Y43687800D01*
X20901785Y43687800D02*
X20806547Y43640181D01*
X20806547Y43640181D02*
X20616071Y43640181D01*
X20616071Y43640181D02*
X20520833Y43687800D01*
X20520833Y43687800D02*
X20473214Y43735420D01*
X20473214Y43735420D02*
X20425595Y43830658D01*
X20425595Y43830658D02*
X20425595Y44068753D01*
X20425595Y44068753D02*
X20473214Y44163991D01*
X20473214Y44163991D02*
X20520833Y44211610D01*
X20520833Y44211610D02*
X20616071Y44259229D01*
X20616071Y44259229D02*
X20806547Y44259229D01*
X20806547Y44259229D02*
X20901785Y44211610D01*
X20901785Y44211610D02*
X20949404Y44163991D01*
X20949404Y44163991D02*
X20997023Y44068753D01*
X8550057Y51671429D02*
X8502438Y51766667D01*
X8502438Y51766667D02*
X8407200Y51861905D01*
X8407200Y51861905D02*
X8264342Y52004762D01*
X8264342Y52004762D02*
X8216723Y52100000D01*
X8216723Y52100000D02*
X8216723Y52195238D01*
X8454819Y52147619D02*
X8407200Y52242857D01*
X8407200Y52242857D02*
X8311961Y52338095D01*
X8311961Y52338095D02*
X8121485Y52385714D01*
X8121485Y52385714D02*
X7788152Y52385714D01*
X7788152Y52385714D02*
X7597676Y52338095D01*
X7597676Y52338095D02*
X7502438Y52242857D01*
X7502438Y52242857D02*
X7454819Y52147619D01*
X7454819Y52147619D02*
X7454819Y51957143D01*
X7454819Y51957143D02*
X7502438Y51861905D01*
X7502438Y51861905D02*
X7597676Y51766667D01*
X7597676Y51766667D02*
X7788152Y51719048D01*
X7788152Y51719048D02*
X8121485Y51719048D01*
X8121485Y51719048D02*
X8311961Y51766667D01*
X8311961Y51766667D02*
X8407200Y51861905D01*
X8407200Y51861905D02*
X8454819Y51957143D01*
X8454819Y51957143D02*
X8454819Y52147619D01*
X8454819Y50766667D02*
X8454819Y51338095D01*
X8454819Y51052381D02*
X7454819Y51052381D01*
X7454819Y51052381D02*
X7597676Y51147619D01*
X7597676Y51147619D02*
X7692914Y51242857D01*
X7692914Y51242857D02*
X7740533Y51338095D01*
X7883390Y50195238D02*
X7835771Y50290476D01*
X7835771Y50290476D02*
X7788152Y50338095D01*
X7788152Y50338095D02*
X7692914Y50385714D01*
X7692914Y50385714D02*
X7645295Y50385714D01*
X7645295Y50385714D02*
X7550057Y50338095D01*
X7550057Y50338095D02*
X7502438Y50290476D01*
X7502438Y50290476D02*
X7454819Y50195238D01*
X7454819Y50195238D02*
X7454819Y50004762D01*
X7454819Y50004762D02*
X7502438Y49909524D01*
X7502438Y49909524D02*
X7550057Y49861905D01*
X7550057Y49861905D02*
X7645295Y49814286D01*
X7645295Y49814286D02*
X7692914Y49814286D01*
X7692914Y49814286D02*
X7788152Y49861905D01*
X7788152Y49861905D02*
X7835771Y49909524D01*
X7835771Y49909524D02*
X7883390Y50004762D01*
X7883390Y50004762D02*
X7883390Y50195238D01*
X7883390Y50195238D02*
X7931009Y50290476D01*
X7931009Y50290476D02*
X7978628Y50338095D01*
X7978628Y50338095D02*
X8073866Y50385714D01*
X8073866Y50385714D02*
X8264342Y50385714D01*
X8264342Y50385714D02*
X8359580Y50338095D01*
X8359580Y50338095D02*
X8407200Y50290476D01*
X8407200Y50290476D02*
X8454819Y50195238D01*
X8454819Y50195238D02*
X8454819Y50004762D01*
X8454819Y50004762D02*
X8407200Y49909524D01*
X8407200Y49909524D02*
X8359580Y49861905D01*
X8359580Y49861905D02*
X8264342Y49814286D01*
X8264342Y49814286D02*
X8073866Y49814286D01*
X8073866Y49814286D02*
X7978628Y49861905D01*
X7978628Y49861905D02*
X7931009Y49909524D01*
X7931009Y49909524D02*
X7883390Y50004762D01*
X8550057Y60671429D02*
X8502438Y60766667D01*
X8502438Y60766667D02*
X8407200Y60861905D01*
X8407200Y60861905D02*
X8264342Y61004762D01*
X8264342Y61004762D02*
X8216723Y61100000D01*
X8216723Y61100000D02*
X8216723Y61195238D01*
X8454819Y61147619D02*
X8407200Y61242857D01*
X8407200Y61242857D02*
X8311961Y61338095D01*
X8311961Y61338095D02*
X8121485Y61385714D01*
X8121485Y61385714D02*
X7788152Y61385714D01*
X7788152Y61385714D02*
X7597676Y61338095D01*
X7597676Y61338095D02*
X7502438Y61242857D01*
X7502438Y61242857D02*
X7454819Y61147619D01*
X7454819Y61147619D02*
X7454819Y60957143D01*
X7454819Y60957143D02*
X7502438Y60861905D01*
X7502438Y60861905D02*
X7597676Y60766667D01*
X7597676Y60766667D02*
X7788152Y60719048D01*
X7788152Y60719048D02*
X8121485Y60719048D01*
X8121485Y60719048D02*
X8311961Y60766667D01*
X8311961Y60766667D02*
X8407200Y60861905D01*
X8407200Y60861905D02*
X8454819Y60957143D01*
X8454819Y60957143D02*
X8454819Y61147619D01*
X8454819Y59766667D02*
X8454819Y60338095D01*
X8454819Y60052381D02*
X7454819Y60052381D01*
X7454819Y60052381D02*
X7597676Y60147619D01*
X7597676Y60147619D02*
X7692914Y60242857D01*
X7692914Y60242857D02*
X7740533Y60338095D01*
X7454819Y58861905D02*
X7454819Y59338095D01*
X7454819Y59338095D02*
X7931009Y59385714D01*
X7931009Y59385714D02*
X7883390Y59338095D01*
X7883390Y59338095D02*
X7835771Y59242857D01*
X7835771Y59242857D02*
X7835771Y59004762D01*
X7835771Y59004762D02*
X7883390Y58909524D01*
X7883390Y58909524D02*
X7931009Y58861905D01*
X7931009Y58861905D02*
X8026247Y58814286D01*
X8026247Y58814286D02*
X8264342Y58814286D01*
X8264342Y58814286D02*
X8359580Y58861905D01*
X8359580Y58861905D02*
X8407200Y58909524D01*
X8407200Y58909524D02*
X8454819Y59004762D01*
X8454819Y59004762D02*
X8454819Y59242857D01*
X8454819Y59242857D02*
X8407200Y59338095D01*
X8407200Y59338095D02*
X8359580Y59385714D01*
X22330357Y36640181D02*
X22663690Y37116372D01*
X22901785Y36640181D02*
X22901785Y37640181D01*
X22901785Y37640181D02*
X22520833Y37640181D01*
X22520833Y37640181D02*
X22425595Y37592562D01*
X22425595Y37592562D02*
X22377976Y37544943D01*
X22377976Y37544943D02*
X22330357Y37449705D01*
X22330357Y37449705D02*
X22330357Y37306848D01*
X22330357Y37306848D02*
X22377976Y37211610D01*
X22377976Y37211610D02*
X22425595Y37163991D01*
X22425595Y37163991D02*
X22520833Y37116372D01*
X22520833Y37116372D02*
X22901785Y37116372D01*
X21949404Y37544943D02*
X21901785Y37592562D01*
X21901785Y37592562D02*
X21806547Y37640181D01*
X21806547Y37640181D02*
X21568452Y37640181D01*
X21568452Y37640181D02*
X21473214Y37592562D01*
X21473214Y37592562D02*
X21425595Y37544943D01*
X21425595Y37544943D02*
X21377976Y37449705D01*
X21377976Y37449705D02*
X21377976Y37354467D01*
X21377976Y37354467D02*
X21425595Y37211610D01*
X21425595Y37211610D02*
X21997023Y36640181D01*
X21997023Y36640181D02*
X21377976Y36640181D01*
X21044642Y37640181D02*
X20377976Y37640181D01*
X20377976Y37640181D02*
X20806547Y36640181D01*
X22330357Y57640181D02*
X22663690Y58116372D01*
X22901785Y57640181D02*
X22901785Y58640181D01*
X22901785Y58640181D02*
X22520833Y58640181D01*
X22520833Y58640181D02*
X22425595Y58592562D01*
X22425595Y58592562D02*
X22377976Y58544943D01*
X22377976Y58544943D02*
X22330357Y58449705D01*
X22330357Y58449705D02*
X22330357Y58306848D01*
X22330357Y58306848D02*
X22377976Y58211610D01*
X22377976Y58211610D02*
X22425595Y58163991D01*
X22425595Y58163991D02*
X22520833Y58116372D01*
X22520833Y58116372D02*
X22901785Y58116372D01*
X21949404Y58544943D02*
X21901785Y58592562D01*
X21901785Y58592562D02*
X21806547Y58640181D01*
X21806547Y58640181D02*
X21568452Y58640181D01*
X21568452Y58640181D02*
X21473214Y58592562D01*
X21473214Y58592562D02*
X21425595Y58544943D01*
X21425595Y58544943D02*
X21377976Y58449705D01*
X21377976Y58449705D02*
X21377976Y58354467D01*
X21377976Y58354467D02*
X21425595Y58211610D01*
X21425595Y58211610D02*
X21997023Y57640181D01*
X21997023Y57640181D02*
X21377976Y57640181D01*
X20425595Y57640181D02*
X20997023Y57640181D01*
X20711309Y57640181D02*
X20711309Y58640181D01*
X20711309Y58640181D02*
X20806547Y58497324D01*
X20806547Y58497324D02*
X20901785Y58402086D01*
X20901785Y58402086D02*
X20997023Y58354467D01*
D14*
X19040092Y66236986D02*
X18766759Y65846510D01*
X18571521Y66236986D02*
X18571521Y65416986D01*
X18571521Y65416986D02*
X18883902Y65416986D01*
X18883902Y65416986D02*
X18961997Y65456034D01*
X18961997Y65456034D02*
X19001044Y65495081D01*
X19001044Y65495081D02*
X19040092Y65573177D01*
X19040092Y65573177D02*
X19040092Y65690319D01*
X19040092Y65690319D02*
X19001044Y65768415D01*
X19001044Y65768415D02*
X18961997Y65807462D01*
X18961997Y65807462D02*
X18883902Y65846510D01*
X18883902Y65846510D02*
X18571521Y65846510D01*
X19821044Y66236986D02*
X19352473Y66236986D01*
X19586759Y66236986D02*
X19586759Y65416986D01*
X19586759Y65416986D02*
X19508663Y65534129D01*
X19508663Y65534129D02*
X19430568Y65612224D01*
X19430568Y65612224D02*
X19352473Y65651272D01*
X20328663Y65416986D02*
X20406758Y65416986D01*
X20406758Y65416986D02*
X20484854Y65456034D01*
X20484854Y65456034D02*
X20523901Y65495081D01*
X20523901Y65495081D02*
X20562949Y65573177D01*
X20562949Y65573177D02*
X20601996Y65729367D01*
X20601996Y65729367D02*
X20601996Y65924605D01*
X20601996Y65924605D02*
X20562949Y66080796D01*
X20562949Y66080796D02*
X20523901Y66158891D01*
X20523901Y66158891D02*
X20484854Y66197938D01*
X20484854Y66197938D02*
X20406758Y66236986D01*
X20406758Y66236986D02*
X20328663Y66236986D01*
X20328663Y66236986D02*
X20250568Y66197938D01*
X20250568Y66197938D02*
X20211520Y66158891D01*
X20211520Y66158891D02*
X20172473Y66080796D01*
X20172473Y66080796D02*
X20133425Y65924605D01*
X20133425Y65924605D02*
X20133425Y65729367D01*
X20133425Y65729367D02*
X20172473Y65573177D01*
X20172473Y65573177D02*
X20211520Y65495081D01*
X20211520Y65495081D02*
X20250568Y65456034D01*
X20250568Y65456034D02*
X20328663Y65416986D01*
X21370508Y71105238D02*
X20550508Y71105238D01*
X20550508Y71105238D02*
X20550508Y70910000D01*
X20550508Y70910000D02*
X20589556Y70792857D01*
X20589556Y70792857D02*
X20667651Y70714762D01*
X20667651Y70714762D02*
X20745746Y70675715D01*
X20745746Y70675715D02*
X20901937Y70636667D01*
X20901937Y70636667D02*
X21019080Y70636667D01*
X21019080Y70636667D02*
X21175270Y70675715D01*
X21175270Y70675715D02*
X21253365Y70714762D01*
X21253365Y70714762D02*
X21331461Y70792857D01*
X21331461Y70792857D02*
X21370508Y70910000D01*
X21370508Y70910000D02*
X21370508Y71105238D01*
X20628603Y70324286D02*
X20589556Y70285238D01*
X20589556Y70285238D02*
X20550508Y70207143D01*
X20550508Y70207143D02*
X20550508Y70011905D01*
X20550508Y70011905D02*
X20589556Y69933810D01*
X20589556Y69933810D02*
X20628603Y69894762D01*
X20628603Y69894762D02*
X20706699Y69855715D01*
X20706699Y69855715D02*
X20784794Y69855715D01*
X20784794Y69855715D02*
X20901937Y69894762D01*
X20901937Y69894762D02*
X21370508Y70363334D01*
X21370508Y70363334D02*
X21370508Y69855715D01*
X85197681Y15606745D02*
X85197681Y16406745D01*
X85197681Y16406745D02*
X85007205Y16406745D01*
X85007205Y16406745D02*
X84892919Y16368650D01*
X84892919Y16368650D02*
X84816729Y16292460D01*
X84816729Y16292460D02*
X84778634Y16216269D01*
X84778634Y16216269D02*
X84740538Y16063888D01*
X84740538Y16063888D02*
X84740538Y15949602D01*
X84740538Y15949602D02*
X84778634Y15797221D01*
X84778634Y15797221D02*
X84816729Y15721031D01*
X84816729Y15721031D02*
X84892919Y15644840D01*
X84892919Y15644840D02*
X85007205Y15606745D01*
X85007205Y15606745D02*
X85197681Y15606745D01*
X83978634Y15606745D02*
X84435777Y15606745D01*
X84207205Y15606745D02*
X84207205Y16406745D01*
X84207205Y16406745D02*
X84283396Y16292460D01*
X84283396Y16292460D02*
X84359586Y16216269D01*
X84359586Y16216269D02*
X84435777Y16178174D01*
X27684907Y49238015D02*
X27958240Y49628491D01*
X28153478Y49238015D02*
X28153478Y50058015D01*
X28153478Y50058015D02*
X27841097Y50058015D01*
X27841097Y50058015D02*
X27763002Y50018967D01*
X27763002Y50018967D02*
X27723955Y49979920D01*
X27723955Y49979920D02*
X27684907Y49901824D01*
X27684907Y49901824D02*
X27684907Y49784682D01*
X27684907Y49784682D02*
X27723955Y49706586D01*
X27723955Y49706586D02*
X27763002Y49667539D01*
X27763002Y49667539D02*
X27841097Y49628491D01*
X27841097Y49628491D02*
X28153478Y49628491D01*
X26903955Y49238015D02*
X27372526Y49238015D01*
X27138240Y49238015D02*
X27138240Y50058015D01*
X27138240Y50058015D02*
X27216336Y49940872D01*
X27216336Y49940872D02*
X27294431Y49862777D01*
X27294431Y49862777D02*
X27372526Y49823729D01*
X26513479Y49238015D02*
X26357288Y49238015D01*
X26357288Y49238015D02*
X26279193Y49277062D01*
X26279193Y49277062D02*
X26240145Y49316110D01*
X26240145Y49316110D02*
X26162050Y49433253D01*
X26162050Y49433253D02*
X26123003Y49589443D01*
X26123003Y49589443D02*
X26123003Y49901824D01*
X26123003Y49901824D02*
X26162050Y49979920D01*
X26162050Y49979920D02*
X26201098Y50018967D01*
X26201098Y50018967D02*
X26279193Y50058015D01*
X26279193Y50058015D02*
X26435384Y50058015D01*
X26435384Y50058015D02*
X26513479Y50018967D01*
X26513479Y50018967D02*
X26552526Y49979920D01*
X26552526Y49979920D02*
X26591574Y49901824D01*
X26591574Y49901824D02*
X26591574Y49706586D01*
X26591574Y49706586D02*
X26552526Y49628491D01*
X26552526Y49628491D02*
X26513479Y49589443D01*
X26513479Y49589443D02*
X26435384Y49550396D01*
X26435384Y49550396D02*
X26279193Y49550396D01*
X26279193Y49550396D02*
X26201098Y49589443D01*
X26201098Y49589443D02*
X26162050Y49628491D01*
X26162050Y49628491D02*
X26123003Y49706586D01*
X31236985Y28459908D02*
X30846509Y28733241D01*
X31236985Y28928479D02*
X30416985Y28928479D01*
X30416985Y28928479D02*
X30416985Y28616098D01*
X30416985Y28616098D02*
X30456033Y28538003D01*
X30456033Y28538003D02*
X30495080Y28498956D01*
X30495080Y28498956D02*
X30573176Y28459908D01*
X30573176Y28459908D02*
X30690318Y28459908D01*
X30690318Y28459908D02*
X30768414Y28498956D01*
X30768414Y28498956D02*
X30807461Y28538003D01*
X30807461Y28538003D02*
X30846509Y28616098D01*
X30846509Y28616098D02*
X30846509Y28928479D01*
X30416985Y28186575D02*
X30416985Y27678956D01*
X30416985Y27678956D02*
X30729366Y27952289D01*
X30729366Y27952289D02*
X30729366Y27835146D01*
X30729366Y27835146D02*
X30768414Y27757051D01*
X30768414Y27757051D02*
X30807461Y27718003D01*
X30807461Y27718003D02*
X30885557Y27678956D01*
X30885557Y27678956D02*
X31080795Y27678956D01*
X31080795Y27678956D02*
X31158890Y27718003D01*
X31158890Y27718003D02*
X31197938Y27757051D01*
X31197938Y27757051D02*
X31236985Y27835146D01*
X31236985Y27835146D02*
X31236985Y28069432D01*
X31236985Y28069432D02*
X31197938Y28147527D01*
X31197938Y28147527D02*
X31158890Y28186575D01*
X30416985Y27405623D02*
X30416985Y26898004D01*
X30416985Y26898004D02*
X30729366Y27171337D01*
X30729366Y27171337D02*
X30729366Y27054194D01*
X30729366Y27054194D02*
X30768414Y26976099D01*
X30768414Y26976099D02*
X30807461Y26937051D01*
X30807461Y26937051D02*
X30885557Y26898004D01*
X30885557Y26898004D02*
X31080795Y26898004D01*
X31080795Y26898004D02*
X31158890Y26937051D01*
X31158890Y26937051D02*
X31197938Y26976099D01*
X31197938Y26976099D02*
X31236985Y27054194D01*
X31236985Y27054194D02*
X31236985Y27288480D01*
X31236985Y27288480D02*
X31197938Y27366575D01*
X31197938Y27366575D02*
X31158890Y27405623D01*
D12*
X8938094Y80445181D02*
X8938094Y81445181D01*
X8938094Y81445181D02*
X8699999Y81445181D01*
X8699999Y81445181D02*
X8557142Y81397562D01*
X8557142Y81397562D02*
X8461904Y81302324D01*
X8461904Y81302324D02*
X8414285Y81207086D01*
X8414285Y81207086D02*
X8366666Y81016610D01*
X8366666Y81016610D02*
X8366666Y80873753D01*
X8366666Y80873753D02*
X8414285Y80683277D01*
X8414285Y80683277D02*
X8461904Y80588039D01*
X8461904Y80588039D02*
X8557142Y80492800D01*
X8557142Y80492800D02*
X8699999Y80445181D01*
X8699999Y80445181D02*
X8938094Y80445181D01*
X7509523Y81445181D02*
X7699999Y81445181D01*
X7699999Y81445181D02*
X7795237Y81397562D01*
X7795237Y81397562D02*
X7842856Y81349943D01*
X7842856Y81349943D02*
X7938094Y81207086D01*
X7938094Y81207086D02*
X7985713Y81016610D01*
X7985713Y81016610D02*
X7985713Y80635658D01*
X7985713Y80635658D02*
X7938094Y80540420D01*
X7938094Y80540420D02*
X7890475Y80492800D01*
X7890475Y80492800D02*
X7795237Y80445181D01*
X7795237Y80445181D02*
X7604761Y80445181D01*
X7604761Y80445181D02*
X7509523Y80492800D01*
X7509523Y80492800D02*
X7461904Y80540420D01*
X7461904Y80540420D02*
X7414285Y80635658D01*
X7414285Y80635658D02*
X7414285Y80873753D01*
X7414285Y80873753D02*
X7461904Y80968991D01*
X7461904Y80968991D02*
X7509523Y81016610D01*
X7509523Y81016610D02*
X7604761Y81064229D01*
X7604761Y81064229D02*
X7795237Y81064229D01*
X7795237Y81064229D02*
X7890475Y81016610D01*
X7890475Y81016610D02*
X7938094Y80968991D01*
X7938094Y80968991D02*
X7985713Y80873753D01*
D14*
X27684907Y42238015D02*
X27958240Y42628491D01*
X28153478Y42238015D02*
X28153478Y43058015D01*
X28153478Y43058015D02*
X27841097Y43058015D01*
X27841097Y43058015D02*
X27763002Y43018967D01*
X27763002Y43018967D02*
X27723955Y42979920D01*
X27723955Y42979920D02*
X27684907Y42901824D01*
X27684907Y42901824D02*
X27684907Y42784682D01*
X27684907Y42784682D02*
X27723955Y42706586D01*
X27723955Y42706586D02*
X27763002Y42667539D01*
X27763002Y42667539D02*
X27841097Y42628491D01*
X27841097Y42628491D02*
X28153478Y42628491D01*
X27372526Y42979920D02*
X27333478Y43018967D01*
X27333478Y43018967D02*
X27255383Y43058015D01*
X27255383Y43058015D02*
X27060145Y43058015D01*
X27060145Y43058015D02*
X26982050Y43018967D01*
X26982050Y43018967D02*
X26943002Y42979920D01*
X26943002Y42979920D02*
X26903955Y42901824D01*
X26903955Y42901824D02*
X26903955Y42823729D01*
X26903955Y42823729D02*
X26943002Y42706586D01*
X26943002Y42706586D02*
X27411574Y42238015D01*
X27411574Y42238015D02*
X26903955Y42238015D01*
X26630622Y43058015D02*
X26123003Y43058015D01*
X26123003Y43058015D02*
X26396336Y42745634D01*
X26396336Y42745634D02*
X26279193Y42745634D01*
X26279193Y42745634D02*
X26201098Y42706586D01*
X26201098Y42706586D02*
X26162050Y42667539D01*
X26162050Y42667539D02*
X26123003Y42589443D01*
X26123003Y42589443D02*
X26123003Y42394205D01*
X26123003Y42394205D02*
X26162050Y42316110D01*
X26162050Y42316110D02*
X26201098Y42277062D01*
X26201098Y42277062D02*
X26279193Y42238015D01*
X26279193Y42238015D02*
X26513479Y42238015D01*
X26513479Y42238015D02*
X26591574Y42277062D01*
X26591574Y42277062D02*
X26630622Y42316110D01*
D12*
X2095238Y72649943D02*
X2190476Y72697562D01*
X2190476Y72697562D02*
X2285714Y72792800D01*
X2285714Y72792800D02*
X2428571Y72935658D01*
X2428571Y72935658D02*
X2523809Y72983277D01*
X2523809Y72983277D02*
X2619047Y72983277D01*
X2571428Y72745181D02*
X2666666Y72792800D01*
X2666666Y72792800D02*
X2761904Y72888039D01*
X2761904Y72888039D02*
X2809523Y73078515D01*
X2809523Y73078515D02*
X2809523Y73411848D01*
X2809523Y73411848D02*
X2761904Y73602324D01*
X2761904Y73602324D02*
X2666666Y73697562D01*
X2666666Y73697562D02*
X2571428Y73745181D01*
X2571428Y73745181D02*
X2380952Y73745181D01*
X2380952Y73745181D02*
X2285714Y73697562D01*
X2285714Y73697562D02*
X2190476Y73602324D01*
X2190476Y73602324D02*
X2142857Y73411848D01*
X2142857Y73411848D02*
X2142857Y73078515D01*
X2142857Y73078515D02*
X2190476Y72888039D01*
X2190476Y72888039D02*
X2285714Y72792800D01*
X2285714Y72792800D02*
X2380952Y72745181D01*
X2380952Y72745181D02*
X2571428Y72745181D01*
X1285714Y73745181D02*
X1476190Y73745181D01*
X1476190Y73745181D02*
X1571428Y73697562D01*
X1571428Y73697562D02*
X1619047Y73649943D01*
X1619047Y73649943D02*
X1714285Y73507086D01*
X1714285Y73507086D02*
X1761904Y73316610D01*
X1761904Y73316610D02*
X1761904Y72935658D01*
X1761904Y72935658D02*
X1714285Y72840420D01*
X1714285Y72840420D02*
X1666666Y72792800D01*
X1666666Y72792800D02*
X1571428Y72745181D01*
X1571428Y72745181D02*
X1380952Y72745181D01*
X1380952Y72745181D02*
X1285714Y72792800D01*
X1285714Y72792800D02*
X1238095Y72840420D01*
X1238095Y72840420D02*
X1190476Y72935658D01*
X1190476Y72935658D02*
X1190476Y73173753D01*
X1190476Y73173753D02*
X1238095Y73268991D01*
X1238095Y73268991D02*
X1285714Y73316610D01*
X1285714Y73316610D02*
X1380952Y73364229D01*
X1380952Y73364229D02*
X1571428Y73364229D01*
X1571428Y73364229D02*
X1666666Y73316610D01*
X1666666Y73316610D02*
X1714285Y73268991D01*
X1714285Y73268991D02*
X1761904Y73173753D01*
D14*
X49763014Y3918411D02*
X50153490Y3645078D01*
X49763014Y3449840D02*
X50583014Y3449840D01*
X50583014Y3449840D02*
X50583014Y3762221D01*
X50583014Y3762221D02*
X50543966Y3840316D01*
X50543966Y3840316D02*
X50504919Y3879363D01*
X50504919Y3879363D02*
X50426823Y3918411D01*
X50426823Y3918411D02*
X50309681Y3918411D01*
X50309681Y3918411D02*
X50231585Y3879363D01*
X50231585Y3879363D02*
X50192538Y3840316D01*
X50192538Y3840316D02*
X50153490Y3762221D01*
X50153490Y3762221D02*
X50153490Y3449840D01*
X50583014Y4191744D02*
X50583014Y4738411D01*
X50583014Y4738411D02*
X49763014Y4386982D01*
X27684907Y35238015D02*
X27958240Y35628491D01*
X28153478Y35238015D02*
X28153478Y36058015D01*
X28153478Y36058015D02*
X27841097Y36058015D01*
X27841097Y36058015D02*
X27763002Y36018967D01*
X27763002Y36018967D02*
X27723955Y35979920D01*
X27723955Y35979920D02*
X27684907Y35901824D01*
X27684907Y35901824D02*
X27684907Y35784682D01*
X27684907Y35784682D02*
X27723955Y35706586D01*
X27723955Y35706586D02*
X27763002Y35667539D01*
X27763002Y35667539D02*
X27841097Y35628491D01*
X27841097Y35628491D02*
X28153478Y35628491D01*
X27372526Y35979920D02*
X27333478Y36018967D01*
X27333478Y36018967D02*
X27255383Y36058015D01*
X27255383Y36058015D02*
X27060145Y36058015D01*
X27060145Y36058015D02*
X26982050Y36018967D01*
X26982050Y36018967D02*
X26943002Y35979920D01*
X26943002Y35979920D02*
X26903955Y35901824D01*
X26903955Y35901824D02*
X26903955Y35823729D01*
X26903955Y35823729D02*
X26943002Y35706586D01*
X26943002Y35706586D02*
X27411574Y35238015D01*
X27411574Y35238015D02*
X26903955Y35238015D01*
X26201098Y35784682D02*
X26201098Y35238015D01*
X26396336Y36097062D02*
X26591574Y35511348D01*
X26591574Y35511348D02*
X26083955Y35511348D01*
X4963014Y86740093D02*
X5353490Y86466760D01*
X4963014Y86271522D02*
X5783014Y86271522D01*
X5783014Y86271522D02*
X5783014Y86583903D01*
X5783014Y86583903D02*
X5743966Y86661998D01*
X5743966Y86661998D02*
X5704919Y86701045D01*
X5704919Y86701045D02*
X5626823Y86740093D01*
X5626823Y86740093D02*
X5509681Y86740093D01*
X5509681Y86740093D02*
X5431585Y86701045D01*
X5431585Y86701045D02*
X5392538Y86661998D01*
X5392538Y86661998D02*
X5353490Y86583903D01*
X5353490Y86583903D02*
X5353490Y86271522D01*
X4963014Y87521045D02*
X4963014Y87052474D01*
X4963014Y87286760D02*
X5783014Y87286760D01*
X5783014Y87286760D02*
X5665871Y87208664D01*
X5665871Y87208664D02*
X5587776Y87130569D01*
X5587776Y87130569D02*
X5548728Y87052474D01*
X5783014Y88223902D02*
X5783014Y88067712D01*
X5783014Y88067712D02*
X5743966Y87989616D01*
X5743966Y87989616D02*
X5704919Y87950569D01*
X5704919Y87950569D02*
X5587776Y87872474D01*
X5587776Y87872474D02*
X5431585Y87833426D01*
X5431585Y87833426D02*
X5119204Y87833426D01*
X5119204Y87833426D02*
X5041109Y87872474D01*
X5041109Y87872474D02*
X5002062Y87911521D01*
X5002062Y87911521D02*
X4963014Y87989616D01*
X4963014Y87989616D02*
X4963014Y88145807D01*
X4963014Y88145807D02*
X5002062Y88223902D01*
X5002062Y88223902D02*
X5041109Y88262950D01*
X5041109Y88262950D02*
X5119204Y88301997D01*
X5119204Y88301997D02*
X5314442Y88301997D01*
X5314442Y88301997D02*
X5392538Y88262950D01*
X5392538Y88262950D02*
X5431585Y88223902D01*
X5431585Y88223902D02*
X5470633Y88145807D01*
X5470633Y88145807D02*
X5470633Y87989616D01*
X5470633Y87989616D02*
X5431585Y87911521D01*
X5431585Y87911521D02*
X5392538Y87872474D01*
X5392538Y87872474D02*
X5314442Y87833426D01*
D12*
X29095238Y66449943D02*
X29190476Y66497562D01*
X29190476Y66497562D02*
X29285714Y66592800D01*
X29285714Y66592800D02*
X29428571Y66735658D01*
X29428571Y66735658D02*
X29523809Y66783277D01*
X29523809Y66783277D02*
X29619047Y66783277D01*
X29571428Y66545181D02*
X29666666Y66592800D01*
X29666666Y66592800D02*
X29761904Y66688039D01*
X29761904Y66688039D02*
X29809523Y66878515D01*
X29809523Y66878515D02*
X29809523Y67211848D01*
X29809523Y67211848D02*
X29761904Y67402324D01*
X29761904Y67402324D02*
X29666666Y67497562D01*
X29666666Y67497562D02*
X29571428Y67545181D01*
X29571428Y67545181D02*
X29380952Y67545181D01*
X29380952Y67545181D02*
X29285714Y67497562D01*
X29285714Y67497562D02*
X29190476Y67402324D01*
X29190476Y67402324D02*
X29142857Y67211848D01*
X29142857Y67211848D02*
X29142857Y66878515D01*
X29142857Y66878515D02*
X29190476Y66688039D01*
X29190476Y66688039D02*
X29285714Y66592800D01*
X29285714Y66592800D02*
X29380952Y66545181D01*
X29380952Y66545181D02*
X29571428Y66545181D01*
X28190476Y66545181D02*
X28761904Y66545181D01*
X28476190Y66545181D02*
X28476190Y67545181D01*
X28476190Y67545181D02*
X28571428Y67402324D01*
X28571428Y67402324D02*
X28666666Y67307086D01*
X28666666Y67307086D02*
X28761904Y67259467D01*
D14*
X37263014Y30540093D02*
X37653490Y30266760D01*
X37263014Y30071522D02*
X38083014Y30071522D01*
X38083014Y30071522D02*
X38083014Y30383903D01*
X38083014Y30383903D02*
X38043966Y30461998D01*
X38043966Y30461998D02*
X38004919Y30501045D01*
X38004919Y30501045D02*
X37926823Y30540093D01*
X37926823Y30540093D02*
X37809681Y30540093D01*
X37809681Y30540093D02*
X37731585Y30501045D01*
X37731585Y30501045D02*
X37692538Y30461998D01*
X37692538Y30461998D02*
X37653490Y30383903D01*
X37653490Y30383903D02*
X37653490Y30071522D01*
X38083014Y30813426D02*
X38083014Y31321045D01*
X38083014Y31321045D02*
X37770633Y31047712D01*
X37770633Y31047712D02*
X37770633Y31164855D01*
X37770633Y31164855D02*
X37731585Y31242950D01*
X37731585Y31242950D02*
X37692538Y31281998D01*
X37692538Y31281998D02*
X37614442Y31321045D01*
X37614442Y31321045D02*
X37419204Y31321045D01*
X37419204Y31321045D02*
X37341109Y31281998D01*
X37341109Y31281998D02*
X37302062Y31242950D01*
X37302062Y31242950D02*
X37263014Y31164855D01*
X37263014Y31164855D02*
X37263014Y30930569D01*
X37263014Y30930569D02*
X37302062Y30852474D01*
X37302062Y30852474D02*
X37341109Y30813426D01*
X38083014Y31828664D02*
X38083014Y31906759D01*
X38083014Y31906759D02*
X38043966Y31984855D01*
X38043966Y31984855D02*
X38004919Y32023902D01*
X38004919Y32023902D02*
X37926823Y32062950D01*
X37926823Y32062950D02*
X37770633Y32101997D01*
X37770633Y32101997D02*
X37575395Y32101997D01*
X37575395Y32101997D02*
X37419204Y32062950D01*
X37419204Y32062950D02*
X37341109Y32023902D01*
X37341109Y32023902D02*
X37302062Y31984855D01*
X37302062Y31984855D02*
X37263014Y31906759D01*
X37263014Y31906759D02*
X37263014Y31828664D01*
X37263014Y31828664D02*
X37302062Y31750569D01*
X37302062Y31750569D02*
X37341109Y31711521D01*
X37341109Y31711521D02*
X37419204Y31672474D01*
X37419204Y31672474D02*
X37575395Y31633426D01*
X37575395Y31633426D02*
X37770633Y31633426D01*
X37770633Y31633426D02*
X37926823Y31672474D01*
X37926823Y31672474D02*
X38004919Y31711521D01*
X38004919Y31711521D02*
X38043966Y31750569D01*
X38043966Y31750569D02*
X38083014Y31828664D01*
D12*
X22330357Y50640181D02*
X22663690Y51116372D01*
X22901785Y50640181D02*
X22901785Y51640181D01*
X22901785Y51640181D02*
X22520833Y51640181D01*
X22520833Y51640181D02*
X22425595Y51592562D01*
X22425595Y51592562D02*
X22377976Y51544943D01*
X22377976Y51544943D02*
X22330357Y51449705D01*
X22330357Y51449705D02*
X22330357Y51306848D01*
X22330357Y51306848D02*
X22377976Y51211610D01*
X22377976Y51211610D02*
X22425595Y51163991D01*
X22425595Y51163991D02*
X22520833Y51116372D01*
X22520833Y51116372D02*
X22901785Y51116372D01*
X21949404Y51544943D02*
X21901785Y51592562D01*
X21901785Y51592562D02*
X21806547Y51640181D01*
X21806547Y51640181D02*
X21568452Y51640181D01*
X21568452Y51640181D02*
X21473214Y51592562D01*
X21473214Y51592562D02*
X21425595Y51544943D01*
X21425595Y51544943D02*
X21377976Y51449705D01*
X21377976Y51449705D02*
X21377976Y51354467D01*
X21377976Y51354467D02*
X21425595Y51211610D01*
X21425595Y51211610D02*
X21997023Y50640181D01*
X21997023Y50640181D02*
X21377976Y50640181D01*
X20997023Y51544943D02*
X20949404Y51592562D01*
X20949404Y51592562D02*
X20854166Y51640181D01*
X20854166Y51640181D02*
X20616071Y51640181D01*
X20616071Y51640181D02*
X20520833Y51592562D01*
X20520833Y51592562D02*
X20473214Y51544943D01*
X20473214Y51544943D02*
X20425595Y51449705D01*
X20425595Y51449705D02*
X20425595Y51354467D01*
X20425595Y51354467D02*
X20473214Y51211610D01*
X20473214Y51211610D02*
X21044642Y50640181D01*
X21044642Y50640181D02*
X20425595Y50640181D01*
D14*
X27684907Y28238015D02*
X27958240Y28628491D01*
X28153478Y28238015D02*
X28153478Y29058015D01*
X28153478Y29058015D02*
X27841097Y29058015D01*
X27841097Y29058015D02*
X27763002Y29018967D01*
X27763002Y29018967D02*
X27723955Y28979920D01*
X27723955Y28979920D02*
X27684907Y28901824D01*
X27684907Y28901824D02*
X27684907Y28784682D01*
X27684907Y28784682D02*
X27723955Y28706586D01*
X27723955Y28706586D02*
X27763002Y28667539D01*
X27763002Y28667539D02*
X27841097Y28628491D01*
X27841097Y28628491D02*
X28153478Y28628491D01*
X27372526Y28979920D02*
X27333478Y29018967D01*
X27333478Y29018967D02*
X27255383Y29058015D01*
X27255383Y29058015D02*
X27060145Y29058015D01*
X27060145Y29058015D02*
X26982050Y29018967D01*
X26982050Y29018967D02*
X26943002Y28979920D01*
X26943002Y28979920D02*
X26903955Y28901824D01*
X26903955Y28901824D02*
X26903955Y28823729D01*
X26903955Y28823729D02*
X26943002Y28706586D01*
X26943002Y28706586D02*
X27411574Y28238015D01*
X27411574Y28238015D02*
X26903955Y28238015D01*
X26162050Y29058015D02*
X26552526Y29058015D01*
X26552526Y29058015D02*
X26591574Y28667539D01*
X26591574Y28667539D02*
X26552526Y28706586D01*
X26552526Y28706586D02*
X26474431Y28745634D01*
X26474431Y28745634D02*
X26279193Y28745634D01*
X26279193Y28745634D02*
X26201098Y28706586D01*
X26201098Y28706586D02*
X26162050Y28667539D01*
X26162050Y28667539D02*
X26123003Y28589443D01*
X26123003Y28589443D02*
X26123003Y28394205D01*
X26123003Y28394205D02*
X26162050Y28316110D01*
X26162050Y28316110D02*
X26201098Y28277062D01*
X26201098Y28277062D02*
X26279193Y28238015D01*
X26279193Y28238015D02*
X26474431Y28238015D01*
X26474431Y28238015D02*
X26552526Y28277062D01*
X26552526Y28277062D02*
X26591574Y28316110D01*
X27684907Y63238015D02*
X27958240Y63628491D01*
X28153478Y63238015D02*
X28153478Y64058015D01*
X28153478Y64058015D02*
X27841097Y64058015D01*
X27841097Y64058015D02*
X27763002Y64018967D01*
X27763002Y64018967D02*
X27723955Y63979920D01*
X27723955Y63979920D02*
X27684907Y63901824D01*
X27684907Y63901824D02*
X27684907Y63784682D01*
X27684907Y63784682D02*
X27723955Y63706586D01*
X27723955Y63706586D02*
X27763002Y63667539D01*
X27763002Y63667539D02*
X27841097Y63628491D01*
X27841097Y63628491D02*
X28153478Y63628491D01*
X26903955Y63238015D02*
X27372526Y63238015D01*
X27138240Y63238015D02*
X27138240Y64058015D01*
X27138240Y64058015D02*
X27216336Y63940872D01*
X27216336Y63940872D02*
X27294431Y63862777D01*
X27294431Y63862777D02*
X27372526Y63823729D01*
X26630622Y64058015D02*
X26083955Y64058015D01*
X26083955Y64058015D02*
X26435384Y63238015D01*
X52263014Y3918411D02*
X52653490Y3645078D01*
X52263014Y3449840D02*
X53083014Y3449840D01*
X53083014Y3449840D02*
X53083014Y3762221D01*
X53083014Y3762221D02*
X53043966Y3840316D01*
X53043966Y3840316D02*
X53004919Y3879363D01*
X53004919Y3879363D02*
X52926823Y3918411D01*
X52926823Y3918411D02*
X52809681Y3918411D01*
X52809681Y3918411D02*
X52731585Y3879363D01*
X52731585Y3879363D02*
X52692538Y3840316D01*
X52692538Y3840316D02*
X52653490Y3762221D01*
X52653490Y3762221D02*
X52653490Y3449840D01*
X52731585Y4386982D02*
X52770633Y4308887D01*
X52770633Y4308887D02*
X52809681Y4269840D01*
X52809681Y4269840D02*
X52887776Y4230792D01*
X52887776Y4230792D02*
X52926823Y4230792D01*
X52926823Y4230792D02*
X53004919Y4269840D01*
X53004919Y4269840D02*
X53043966Y4308887D01*
X53043966Y4308887D02*
X53083014Y4386982D01*
X53083014Y4386982D02*
X53083014Y4543173D01*
X53083014Y4543173D02*
X53043966Y4621268D01*
X53043966Y4621268D02*
X53004919Y4660316D01*
X53004919Y4660316D02*
X52926823Y4699363D01*
X52926823Y4699363D02*
X52887776Y4699363D01*
X52887776Y4699363D02*
X52809681Y4660316D01*
X52809681Y4660316D02*
X52770633Y4621268D01*
X52770633Y4621268D02*
X52731585Y4543173D01*
X52731585Y4543173D02*
X52731585Y4386982D01*
X52731585Y4386982D02*
X52692538Y4308887D01*
X52692538Y4308887D02*
X52653490Y4269840D01*
X52653490Y4269840D02*
X52575395Y4230792D01*
X52575395Y4230792D02*
X52419204Y4230792D01*
X52419204Y4230792D02*
X52341109Y4269840D01*
X52341109Y4269840D02*
X52302062Y4308887D01*
X52302062Y4308887D02*
X52263014Y4386982D01*
X52263014Y4386982D02*
X52263014Y4543173D01*
X52263014Y4543173D02*
X52302062Y4621268D01*
X52302062Y4621268D02*
X52341109Y4660316D01*
X52341109Y4660316D02*
X52419204Y4699363D01*
X52419204Y4699363D02*
X52575395Y4699363D01*
X52575395Y4699363D02*
X52653490Y4660316D01*
X52653490Y4660316D02*
X52692538Y4621268D01*
X52692538Y4621268D02*
X52731585Y4543173D01*
X16763014Y17540093D02*
X17153490Y17266760D01*
X16763014Y17071522D02*
X17583014Y17071522D01*
X17583014Y17071522D02*
X17583014Y17383903D01*
X17583014Y17383903D02*
X17543966Y17461998D01*
X17543966Y17461998D02*
X17504919Y17501045D01*
X17504919Y17501045D02*
X17426823Y17540093D01*
X17426823Y17540093D02*
X17309681Y17540093D01*
X17309681Y17540093D02*
X17231585Y17501045D01*
X17231585Y17501045D02*
X17192538Y17461998D01*
X17192538Y17461998D02*
X17153490Y17383903D01*
X17153490Y17383903D02*
X17153490Y17071522D01*
X17583014Y17813426D02*
X17583014Y18321045D01*
X17583014Y18321045D02*
X17270633Y18047712D01*
X17270633Y18047712D02*
X17270633Y18164855D01*
X17270633Y18164855D02*
X17231585Y18242950D01*
X17231585Y18242950D02*
X17192538Y18281998D01*
X17192538Y18281998D02*
X17114442Y18321045D01*
X17114442Y18321045D02*
X16919204Y18321045D01*
X16919204Y18321045D02*
X16841109Y18281998D01*
X16841109Y18281998D02*
X16802062Y18242950D01*
X16802062Y18242950D02*
X16763014Y18164855D01*
X16763014Y18164855D02*
X16763014Y17930569D01*
X16763014Y17930569D02*
X16802062Y17852474D01*
X16802062Y17852474D02*
X16841109Y17813426D01*
X7463014Y86740093D02*
X7853490Y86466760D01*
X7463014Y86271522D02*
X8283014Y86271522D01*
X8283014Y86271522D02*
X8283014Y86583903D01*
X8283014Y86583903D02*
X8243966Y86661998D01*
X8243966Y86661998D02*
X8204919Y86701045D01*
X8204919Y86701045D02*
X8126823Y86740093D01*
X8126823Y86740093D02*
X8009681Y86740093D01*
X8009681Y86740093D02*
X7931585Y86701045D01*
X7931585Y86701045D02*
X7892538Y86661998D01*
X7892538Y86661998D02*
X7853490Y86583903D01*
X7853490Y86583903D02*
X7853490Y86271522D01*
X7463014Y87521045D02*
X7463014Y87052474D01*
X7463014Y87286760D02*
X8283014Y87286760D01*
X8283014Y87286760D02*
X8165871Y87208664D01*
X8165871Y87208664D02*
X8087776Y87130569D01*
X8087776Y87130569D02*
X8048728Y87052474D01*
X8283014Y88262950D02*
X8283014Y87872474D01*
X8283014Y87872474D02*
X7892538Y87833426D01*
X7892538Y87833426D02*
X7931585Y87872474D01*
X7931585Y87872474D02*
X7970633Y87950569D01*
X7970633Y87950569D02*
X7970633Y88145807D01*
X7970633Y88145807D02*
X7931585Y88223902D01*
X7931585Y88223902D02*
X7892538Y88262950D01*
X7892538Y88262950D02*
X7814442Y88301997D01*
X7814442Y88301997D02*
X7619204Y88301997D01*
X7619204Y88301997D02*
X7541109Y88262950D01*
X7541109Y88262950D02*
X7502062Y88223902D01*
X7502062Y88223902D02*
X7463014Y88145807D01*
X7463014Y88145807D02*
X7463014Y87950569D01*
X7463014Y87950569D02*
X7502062Y87872474D01*
X7502062Y87872474D02*
X7541109Y87833426D01*
D12*
X29095238Y73949943D02*
X29190476Y73997562D01*
X29190476Y73997562D02*
X29285714Y74092800D01*
X29285714Y74092800D02*
X29428571Y74235658D01*
X29428571Y74235658D02*
X29523809Y74283277D01*
X29523809Y74283277D02*
X29619047Y74283277D01*
X29571428Y74045181D02*
X29666666Y74092800D01*
X29666666Y74092800D02*
X29761904Y74188039D01*
X29761904Y74188039D02*
X29809523Y74378515D01*
X29809523Y74378515D02*
X29809523Y74711848D01*
X29809523Y74711848D02*
X29761904Y74902324D01*
X29761904Y74902324D02*
X29666666Y74997562D01*
X29666666Y74997562D02*
X29571428Y75045181D01*
X29571428Y75045181D02*
X29380952Y75045181D01*
X29380952Y75045181D02*
X29285714Y74997562D01*
X29285714Y74997562D02*
X29190476Y74902324D01*
X29190476Y74902324D02*
X29142857Y74711848D01*
X29142857Y74711848D02*
X29142857Y74378515D01*
X29142857Y74378515D02*
X29190476Y74188039D01*
X29190476Y74188039D02*
X29285714Y74092800D01*
X29285714Y74092800D02*
X29380952Y74045181D01*
X29380952Y74045181D02*
X29571428Y74045181D01*
X28809523Y75045181D02*
X28190476Y75045181D01*
X28190476Y75045181D02*
X28523809Y74664229D01*
X28523809Y74664229D02*
X28380952Y74664229D01*
X28380952Y74664229D02*
X28285714Y74616610D01*
X28285714Y74616610D02*
X28238095Y74568991D01*
X28238095Y74568991D02*
X28190476Y74473753D01*
X28190476Y74473753D02*
X28190476Y74235658D01*
X28190476Y74235658D02*
X28238095Y74140420D01*
X28238095Y74140420D02*
X28285714Y74092800D01*
X28285714Y74092800D02*
X28380952Y74045181D01*
X28380952Y74045181D02*
X28666666Y74045181D01*
X28666666Y74045181D02*
X28761904Y74092800D01*
X28761904Y74092800D02*
X28809523Y74140420D01*
X8295238Y82249943D02*
X8390476Y82297562D01*
X8390476Y82297562D02*
X8485714Y82392800D01*
X8485714Y82392800D02*
X8628571Y82535658D01*
X8628571Y82535658D02*
X8723809Y82583277D01*
X8723809Y82583277D02*
X8819047Y82583277D01*
X8771428Y82345181D02*
X8866666Y82392800D01*
X8866666Y82392800D02*
X8961904Y82488039D01*
X8961904Y82488039D02*
X9009523Y82678515D01*
X9009523Y82678515D02*
X9009523Y83011848D01*
X9009523Y83011848D02*
X8961904Y83202324D01*
X8961904Y83202324D02*
X8866666Y83297562D01*
X8866666Y83297562D02*
X8771428Y83345181D01*
X8771428Y83345181D02*
X8580952Y83345181D01*
X8580952Y83345181D02*
X8485714Y83297562D01*
X8485714Y83297562D02*
X8390476Y83202324D01*
X8390476Y83202324D02*
X8342857Y83011848D01*
X8342857Y83011848D02*
X8342857Y82678515D01*
X8342857Y82678515D02*
X8390476Y82488039D01*
X8390476Y82488039D02*
X8485714Y82392800D01*
X8485714Y82392800D02*
X8580952Y82345181D01*
X8580952Y82345181D02*
X8771428Y82345181D01*
X7438095Y83345181D02*
X7914285Y83345181D01*
X7914285Y83345181D02*
X7961904Y82868991D01*
X7961904Y82868991D02*
X7914285Y82916610D01*
X7914285Y82916610D02*
X7819047Y82964229D01*
X7819047Y82964229D02*
X7580952Y82964229D01*
X7580952Y82964229D02*
X7485714Y82916610D01*
X7485714Y82916610D02*
X7438095Y82868991D01*
X7438095Y82868991D02*
X7390476Y82773753D01*
X7390476Y82773753D02*
X7390476Y82535658D01*
X7390476Y82535658D02*
X7438095Y82440420D01*
X7438095Y82440420D02*
X7485714Y82392800D01*
X7485714Y82392800D02*
X7580952Y82345181D01*
X7580952Y82345181D02*
X7819047Y82345181D01*
X7819047Y82345181D02*
X7914285Y82392800D01*
X7914285Y82392800D02*
X7961904Y82440420D01*
D14*
X32763014Y30540093D02*
X33153490Y30266760D01*
X32763014Y30071522D02*
X33583014Y30071522D01*
X33583014Y30071522D02*
X33583014Y30383903D01*
X33583014Y30383903D02*
X33543966Y30461998D01*
X33543966Y30461998D02*
X33504919Y30501045D01*
X33504919Y30501045D02*
X33426823Y30540093D01*
X33426823Y30540093D02*
X33309681Y30540093D01*
X33309681Y30540093D02*
X33231585Y30501045D01*
X33231585Y30501045D02*
X33192538Y30461998D01*
X33192538Y30461998D02*
X33153490Y30383903D01*
X33153490Y30383903D02*
X33153490Y30071522D01*
X33583014Y30813426D02*
X33583014Y31321045D01*
X33583014Y31321045D02*
X33270633Y31047712D01*
X33270633Y31047712D02*
X33270633Y31164855D01*
X33270633Y31164855D02*
X33231585Y31242950D01*
X33231585Y31242950D02*
X33192538Y31281998D01*
X33192538Y31281998D02*
X33114442Y31321045D01*
X33114442Y31321045D02*
X32919204Y31321045D01*
X32919204Y31321045D02*
X32841109Y31281998D01*
X32841109Y31281998D02*
X32802062Y31242950D01*
X32802062Y31242950D02*
X32763014Y31164855D01*
X32763014Y31164855D02*
X32763014Y30930569D01*
X32763014Y30930569D02*
X32802062Y30852474D01*
X32802062Y30852474D02*
X32841109Y30813426D01*
X33504919Y31633426D02*
X33543966Y31672474D01*
X33543966Y31672474D02*
X33583014Y31750569D01*
X33583014Y31750569D02*
X33583014Y31945807D01*
X33583014Y31945807D02*
X33543966Y32023902D01*
X33543966Y32023902D02*
X33504919Y32062950D01*
X33504919Y32062950D02*
X33426823Y32101997D01*
X33426823Y32101997D02*
X33348728Y32101997D01*
X33348728Y32101997D02*
X33231585Y32062950D01*
X33231585Y32062950D02*
X32763014Y31594378D01*
X32763014Y31594378D02*
X32763014Y32101997D01*
X1663014Y41340093D02*
X2053490Y41066760D01*
X1663014Y40871522D02*
X2483014Y40871522D01*
X2483014Y40871522D02*
X2483014Y41183903D01*
X2483014Y41183903D02*
X2443966Y41261998D01*
X2443966Y41261998D02*
X2404919Y41301045D01*
X2404919Y41301045D02*
X2326823Y41340093D01*
X2326823Y41340093D02*
X2209681Y41340093D01*
X2209681Y41340093D02*
X2131585Y41301045D01*
X2131585Y41301045D02*
X2092538Y41261998D01*
X2092538Y41261998D02*
X2053490Y41183903D01*
X2053490Y41183903D02*
X2053490Y40871522D01*
X2404919Y41652474D02*
X2443966Y41691522D01*
X2443966Y41691522D02*
X2483014Y41769617D01*
X2483014Y41769617D02*
X2483014Y41964855D01*
X2483014Y41964855D02*
X2443966Y42042950D01*
X2443966Y42042950D02*
X2404919Y42081998D01*
X2404919Y42081998D02*
X2326823Y42121045D01*
X2326823Y42121045D02*
X2248728Y42121045D01*
X2248728Y42121045D02*
X2131585Y42081998D01*
X2131585Y42081998D02*
X1663014Y41613426D01*
X1663014Y41613426D02*
X1663014Y42121045D01*
X1663014Y42511521D02*
X1663014Y42667712D01*
X1663014Y42667712D02*
X1702062Y42745807D01*
X1702062Y42745807D02*
X1741109Y42784855D01*
X1741109Y42784855D02*
X1858252Y42862950D01*
X1858252Y42862950D02*
X2014442Y42901997D01*
X2014442Y42901997D02*
X2326823Y42901997D01*
X2326823Y42901997D02*
X2404919Y42862950D01*
X2404919Y42862950D02*
X2443966Y42823902D01*
X2443966Y42823902D02*
X2483014Y42745807D01*
X2483014Y42745807D02*
X2483014Y42589616D01*
X2483014Y42589616D02*
X2443966Y42511521D01*
X2443966Y42511521D02*
X2404919Y42472474D01*
X2404919Y42472474D02*
X2326823Y42433426D01*
X2326823Y42433426D02*
X2131585Y42433426D01*
X2131585Y42433426D02*
X2053490Y42472474D01*
X2053490Y42472474D02*
X2014442Y42511521D01*
X2014442Y42511521D02*
X1975395Y42589616D01*
X1975395Y42589616D02*
X1975395Y42745807D01*
X1975395Y42745807D02*
X2014442Y42823902D01*
X2014442Y42823902D02*
X2053490Y42862950D01*
X2053490Y42862950D02*
X2131585Y42901997D01*
X27684907Y56238015D02*
X27958240Y56628491D01*
X28153478Y56238015D02*
X28153478Y57058015D01*
X28153478Y57058015D02*
X27841097Y57058015D01*
X27841097Y57058015D02*
X27763002Y57018967D01*
X27763002Y57018967D02*
X27723955Y56979920D01*
X27723955Y56979920D02*
X27684907Y56901824D01*
X27684907Y56901824D02*
X27684907Y56784682D01*
X27684907Y56784682D02*
X27723955Y56706586D01*
X27723955Y56706586D02*
X27763002Y56667539D01*
X27763002Y56667539D02*
X27841097Y56628491D01*
X27841097Y56628491D02*
X28153478Y56628491D01*
X26903955Y56238015D02*
X27372526Y56238015D01*
X27138240Y56238015D02*
X27138240Y57058015D01*
X27138240Y57058015D02*
X27216336Y56940872D01*
X27216336Y56940872D02*
X27294431Y56862777D01*
X27294431Y56862777D02*
X27372526Y56823729D01*
X26435384Y56706586D02*
X26513479Y56745634D01*
X26513479Y56745634D02*
X26552526Y56784682D01*
X26552526Y56784682D02*
X26591574Y56862777D01*
X26591574Y56862777D02*
X26591574Y56901824D01*
X26591574Y56901824D02*
X26552526Y56979920D01*
X26552526Y56979920D02*
X26513479Y57018967D01*
X26513479Y57018967D02*
X26435384Y57058015D01*
X26435384Y57058015D02*
X26279193Y57058015D01*
X26279193Y57058015D02*
X26201098Y57018967D01*
X26201098Y57018967D02*
X26162050Y56979920D01*
X26162050Y56979920D02*
X26123003Y56901824D01*
X26123003Y56901824D02*
X26123003Y56862777D01*
X26123003Y56862777D02*
X26162050Y56784682D01*
X26162050Y56784682D02*
X26201098Y56745634D01*
X26201098Y56745634D02*
X26279193Y56706586D01*
X26279193Y56706586D02*
X26435384Y56706586D01*
X26435384Y56706586D02*
X26513479Y56667539D01*
X26513479Y56667539D02*
X26552526Y56628491D01*
X26552526Y56628491D02*
X26591574Y56550396D01*
X26591574Y56550396D02*
X26591574Y56394205D01*
X26591574Y56394205D02*
X26552526Y56316110D01*
X26552526Y56316110D02*
X26513479Y56277062D01*
X26513479Y56277062D02*
X26435384Y56238015D01*
X26435384Y56238015D02*
X26279193Y56238015D01*
X26279193Y56238015D02*
X26201098Y56277062D01*
X26201098Y56277062D02*
X26162050Y56316110D01*
X26162050Y56316110D02*
X26123003Y56394205D01*
X26123003Y56394205D02*
X26123003Y56550396D01*
X26123003Y56550396D02*
X26162050Y56628491D01*
X26162050Y56628491D02*
X26201098Y56667539D01*
X26201098Y56667539D02*
X26279193Y56706586D01*
D12*
X22330357Y29640181D02*
X22663690Y30116372D01*
X22901785Y29640181D02*
X22901785Y30640181D01*
X22901785Y30640181D02*
X22520833Y30640181D01*
X22520833Y30640181D02*
X22425595Y30592562D01*
X22425595Y30592562D02*
X22377976Y30544943D01*
X22377976Y30544943D02*
X22330357Y30449705D01*
X22330357Y30449705D02*
X22330357Y30306848D01*
X22330357Y30306848D02*
X22377976Y30211610D01*
X22377976Y30211610D02*
X22425595Y30163991D01*
X22425595Y30163991D02*
X22520833Y30116372D01*
X22520833Y30116372D02*
X22901785Y30116372D01*
X21949404Y30544943D02*
X21901785Y30592562D01*
X21901785Y30592562D02*
X21806547Y30640181D01*
X21806547Y30640181D02*
X21568452Y30640181D01*
X21568452Y30640181D02*
X21473214Y30592562D01*
X21473214Y30592562D02*
X21425595Y30544943D01*
X21425595Y30544943D02*
X21377976Y30449705D01*
X21377976Y30449705D02*
X21377976Y30354467D01*
X21377976Y30354467D02*
X21425595Y30211610D01*
X21425595Y30211610D02*
X21997023Y29640181D01*
X21997023Y29640181D02*
X21377976Y29640181D01*
X20806547Y30211610D02*
X20901785Y30259229D01*
X20901785Y30259229D02*
X20949404Y30306848D01*
X20949404Y30306848D02*
X20997023Y30402086D01*
X20997023Y30402086D02*
X20997023Y30449705D01*
X20997023Y30449705D02*
X20949404Y30544943D01*
X20949404Y30544943D02*
X20901785Y30592562D01*
X20901785Y30592562D02*
X20806547Y30640181D01*
X20806547Y30640181D02*
X20616071Y30640181D01*
X20616071Y30640181D02*
X20520833Y30592562D01*
X20520833Y30592562D02*
X20473214Y30544943D01*
X20473214Y30544943D02*
X20425595Y30449705D01*
X20425595Y30449705D02*
X20425595Y30402086D01*
X20425595Y30402086D02*
X20473214Y30306848D01*
X20473214Y30306848D02*
X20520833Y30259229D01*
X20520833Y30259229D02*
X20616071Y30211610D01*
X20616071Y30211610D02*
X20806547Y30211610D01*
X20806547Y30211610D02*
X20901785Y30163991D01*
X20901785Y30163991D02*
X20949404Y30116372D01*
X20949404Y30116372D02*
X20997023Y30021134D01*
X20997023Y30021134D02*
X20997023Y29830658D01*
X20997023Y29830658D02*
X20949404Y29735420D01*
X20949404Y29735420D02*
X20901785Y29687800D01*
X20901785Y29687800D02*
X20806547Y29640181D01*
X20806547Y29640181D02*
X20616071Y29640181D01*
X20616071Y29640181D02*
X20520833Y29687800D01*
X20520833Y29687800D02*
X20473214Y29735420D01*
X20473214Y29735420D02*
X20425595Y29830658D01*
X20425595Y29830658D02*
X20425595Y30021134D01*
X20425595Y30021134D02*
X20473214Y30116372D01*
X20473214Y30116372D02*
X20520833Y30163991D01*
X20520833Y30163991D02*
X20616071Y30211610D01*
X39550057Y38071429D02*
X39502438Y38166667D01*
X39502438Y38166667D02*
X39407200Y38261905D01*
X39407200Y38261905D02*
X39264342Y38404762D01*
X39264342Y38404762D02*
X39216723Y38500000D01*
X39216723Y38500000D02*
X39216723Y38595238D01*
X39454819Y38547619D02*
X39407200Y38642857D01*
X39407200Y38642857D02*
X39311961Y38738095D01*
X39311961Y38738095D02*
X39121485Y38785714D01*
X39121485Y38785714D02*
X38788152Y38785714D01*
X38788152Y38785714D02*
X38597676Y38738095D01*
X38597676Y38738095D02*
X38502438Y38642857D01*
X38502438Y38642857D02*
X38454819Y38547619D01*
X38454819Y38547619D02*
X38454819Y38357143D01*
X38454819Y38357143D02*
X38502438Y38261905D01*
X38502438Y38261905D02*
X38597676Y38166667D01*
X38597676Y38166667D02*
X38788152Y38119048D01*
X38788152Y38119048D02*
X39121485Y38119048D01*
X39121485Y38119048D02*
X39311961Y38166667D01*
X39311961Y38166667D02*
X39407200Y38261905D01*
X39407200Y38261905D02*
X39454819Y38357143D01*
X39454819Y38357143D02*
X39454819Y38547619D01*
X39454819Y37166667D02*
X39454819Y37738095D01*
X39454819Y37452381D02*
X38454819Y37452381D01*
X38454819Y37452381D02*
X38597676Y37547619D01*
X38597676Y37547619D02*
X38692914Y37642857D01*
X38692914Y37642857D02*
X38740533Y37738095D01*
X38788152Y36309524D02*
X39454819Y36309524D01*
X38407200Y36547619D02*
X39121485Y36785714D01*
X39121485Y36785714D02*
X39121485Y36166667D01*
X6738094Y72745181D02*
X6738094Y73745181D01*
X6738094Y73745181D02*
X6499999Y73745181D01*
X6499999Y73745181D02*
X6357142Y73697562D01*
X6357142Y73697562D02*
X6261904Y73602324D01*
X6261904Y73602324D02*
X6214285Y73507086D01*
X6214285Y73507086D02*
X6166666Y73316610D01*
X6166666Y73316610D02*
X6166666Y73173753D01*
X6166666Y73173753D02*
X6214285Y72983277D01*
X6214285Y72983277D02*
X6261904Y72888039D01*
X6261904Y72888039D02*
X6357142Y72792800D01*
X6357142Y72792800D02*
X6499999Y72745181D01*
X6499999Y72745181D02*
X6738094Y72745181D01*
X5833332Y73745181D02*
X5166666Y73745181D01*
X5166666Y73745181D02*
X5595237Y72745181D01*
D14*
X18540092Y73736986D02*
X18266759Y73346510D01*
X18071521Y73736986D02*
X18071521Y72916986D01*
X18071521Y72916986D02*
X18383902Y72916986D01*
X18383902Y72916986D02*
X18461997Y72956034D01*
X18461997Y72956034D02*
X18501044Y72995081D01*
X18501044Y72995081D02*
X18540092Y73073177D01*
X18540092Y73073177D02*
X18540092Y73190319D01*
X18540092Y73190319D02*
X18501044Y73268415D01*
X18501044Y73268415D02*
X18461997Y73307462D01*
X18461997Y73307462D02*
X18383902Y73346510D01*
X18383902Y73346510D02*
X18071521Y73346510D01*
X19321044Y73736986D02*
X18852473Y73736986D01*
X19086759Y73736986D02*
X19086759Y72916986D01*
X19086759Y72916986D02*
X19008663Y73034129D01*
X19008663Y73034129D02*
X18930568Y73112224D01*
X18930568Y73112224D02*
X18852473Y73151272D01*
X19633425Y72995081D02*
X19672473Y72956034D01*
X19672473Y72956034D02*
X19750568Y72916986D01*
X19750568Y72916986D02*
X19945806Y72916986D01*
X19945806Y72916986D02*
X20023901Y72956034D01*
X20023901Y72956034D02*
X20062949Y72995081D01*
X20062949Y72995081D02*
X20101996Y73073177D01*
X20101996Y73073177D02*
X20101996Y73151272D01*
X20101996Y73151272D02*
X20062949Y73268415D01*
X20062949Y73268415D02*
X19594377Y73736986D01*
X19594377Y73736986D02*
X20101996Y73736986D01*
X16763014Y20540093D02*
X17153490Y20266760D01*
X16763014Y20071522D02*
X17583014Y20071522D01*
X17583014Y20071522D02*
X17583014Y20383903D01*
X17583014Y20383903D02*
X17543966Y20461998D01*
X17543966Y20461998D02*
X17504919Y20501045D01*
X17504919Y20501045D02*
X17426823Y20540093D01*
X17426823Y20540093D02*
X17309681Y20540093D01*
X17309681Y20540093D02*
X17231585Y20501045D01*
X17231585Y20501045D02*
X17192538Y20461998D01*
X17192538Y20461998D02*
X17153490Y20383903D01*
X17153490Y20383903D02*
X17153490Y20071522D01*
X17504919Y20852474D02*
X17543966Y20891522D01*
X17543966Y20891522D02*
X17583014Y20969617D01*
X17583014Y20969617D02*
X17583014Y21164855D01*
X17583014Y21164855D02*
X17543966Y21242950D01*
X17543966Y21242950D02*
X17504919Y21281998D01*
X17504919Y21281998D02*
X17426823Y21321045D01*
X17426823Y21321045D02*
X17348728Y21321045D01*
X17348728Y21321045D02*
X17231585Y21281998D01*
X17231585Y21281998D02*
X16763014Y20813426D01*
X16763014Y20813426D02*
X16763014Y21321045D01*
D12*
X8550057Y69671429D02*
X8502438Y69766667D01*
X8502438Y69766667D02*
X8407200Y69861905D01*
X8407200Y69861905D02*
X8264342Y70004762D01*
X8264342Y70004762D02*
X8216723Y70100000D01*
X8216723Y70100000D02*
X8216723Y70195238D01*
X8454819Y70147619D02*
X8407200Y70242857D01*
X8407200Y70242857D02*
X8311961Y70338095D01*
X8311961Y70338095D02*
X8121485Y70385714D01*
X8121485Y70385714D02*
X7788152Y70385714D01*
X7788152Y70385714D02*
X7597676Y70338095D01*
X7597676Y70338095D02*
X7502438Y70242857D01*
X7502438Y70242857D02*
X7454819Y70147619D01*
X7454819Y70147619D02*
X7454819Y69957143D01*
X7454819Y69957143D02*
X7502438Y69861905D01*
X7502438Y69861905D02*
X7597676Y69766667D01*
X7597676Y69766667D02*
X7788152Y69719048D01*
X7788152Y69719048D02*
X8121485Y69719048D01*
X8121485Y69719048D02*
X8311961Y69766667D01*
X8311961Y69766667D02*
X8407200Y69861905D01*
X8407200Y69861905D02*
X8454819Y69957143D01*
X8454819Y69957143D02*
X8454819Y70147619D01*
X8454819Y68766667D02*
X8454819Y69338095D01*
X8454819Y69052381D02*
X7454819Y69052381D01*
X7454819Y69052381D02*
X7597676Y69147619D01*
X7597676Y69147619D02*
X7692914Y69242857D01*
X7692914Y69242857D02*
X7740533Y69338095D01*
X7454819Y68433333D02*
X7454819Y67814286D01*
X7454819Y67814286D02*
X7835771Y68147619D01*
X7835771Y68147619D02*
X7835771Y68004762D01*
X7835771Y68004762D02*
X7883390Y67909524D01*
X7883390Y67909524D02*
X7931009Y67861905D01*
X7931009Y67861905D02*
X8026247Y67814286D01*
X8026247Y67814286D02*
X8264342Y67814286D01*
X8264342Y67814286D02*
X8359580Y67861905D01*
X8359580Y67861905D02*
X8407200Y67909524D01*
X8407200Y67909524D02*
X8454819Y68004762D01*
X8454819Y68004762D02*
X8454819Y68290476D01*
X8454819Y68290476D02*
X8407200Y68385714D01*
X8407200Y68385714D02*
X8359580Y68433333D01*
D15*
G04 #@! TO.C,M5*
X85425000Y67200000D02*
X99325000Y67200000D01*
X99325000Y67200000D02*
X99325000Y39700000D01*
X99325000Y39700000D02*
X85425000Y39700000D01*
X85425000Y39700000D02*
X85425000Y67200000D01*
D16*
G04 #@! TO.C,P1*
X32670000Y56170000D02*
X32670000Y58830000D01*
X32964462Y58830000D02*
X32670000Y58830000D01*
X32975627Y56170000D02*
X32670000Y56170000D01*
X35024373Y58830000D02*
X35330000Y58830000D01*
X35035538Y56170000D02*
X35330000Y56170000D01*
X35330000Y58830000D02*
X35330000Y56170000D01*
G04 #@! TO.C,P2*
X29670000Y56170000D02*
X29670000Y58830000D01*
X29964462Y58830000D02*
X29670000Y58830000D01*
X29975627Y56170000D02*
X29670000Y56170000D01*
X32024373Y58830000D02*
X32330000Y58830000D01*
X32035538Y56170000D02*
X32330000Y56170000D01*
X32330000Y58830000D02*
X32330000Y56170000D01*
G04 #@! TO.C,F4*
X20880000Y14600000D02*
X20880000Y19450000D01*
X18880000Y14600000D02*
X18880000Y19450000D01*
X20880000Y19450000D02*
G75*
G03*
X18880000Y19450000I-1000000J0D01*
G01*
X18880000Y14550000D02*
G75*
G03*
X20880000Y14550000I1000000J0D01*
G01*
G04 #@! TO.C,P4*
X61170000Y6170000D02*
X61170000Y8830000D01*
X61464462Y8830000D02*
X61170000Y8830000D01*
X61475627Y6170000D02*
X61170000Y6170000D01*
X63524373Y8830000D02*
X63830000Y8830000D01*
X63535538Y6170000D02*
X63830000Y6170000D01*
X63830000Y8830000D02*
X63830000Y6170000D01*
G04 #@! TO.C,P5*
X39870000Y30170000D02*
X39870000Y32830000D01*
X40164462Y32830000D02*
X39870000Y32830000D01*
X40175627Y30170000D02*
X39870000Y30170000D01*
X42224373Y32830000D02*
X42530000Y32830000D01*
X42235538Y30170000D02*
X42530000Y30170000D01*
X42530000Y32830000D02*
X42530000Y30170000D01*
D15*
G04 #@! TO.C,M3*
X51975000Y77375000D02*
X45575000Y77375000D01*
X42375000Y77375000D02*
X43675000Y77375000D01*
X42375000Y77375000D02*
X42375000Y62375000D01*
X51975000Y62975000D02*
X51975000Y77375000D01*
X42375000Y62375000D02*
X47475000Y62375000D01*
D16*
G04 #@! TO.C,F3*
X23500000Y14600000D02*
X23500000Y19450000D01*
X21500000Y14600000D02*
X21500000Y19450000D01*
X23500000Y19450000D02*
G75*
G03*
X21500000Y19450000I-1000000J0D01*
G01*
X21500000Y14550000D02*
G75*
G03*
X23500000Y14550000I1000000J0D01*
G01*
D15*
G04 #@! TO.C,M2*
X79675002Y81925000D02*
X79675002Y72825000D01*
X76574999Y81925000D02*
X77575001Y81925000D01*
X76574999Y81925000D02*
X76574999Y72825000D01*
G04 #@! TO.C,M1*
X24724999Y15324999D02*
X24724999Y18525002D01*
X24724999Y3224999D02*
X24724999Y13625001D01*
X24724999Y1324999D02*
X24724999Y1624999D01*
X24724999Y1324999D02*
X40124999Y1324999D01*
X26224999Y21924997D02*
X41524998Y21924999D01*
X41524996Y15225001D02*
X41524996Y20025001D01*
X41524996Y9024999D02*
X41524996Y11724999D01*
X41524996Y6325001D02*
X41524996Y7425004D01*
X41524996Y2774999D02*
X41525001Y4324999D01*
X41524998Y21625001D02*
X41524998Y21924999D01*
G04 #@! TO.C,M7*
X37572827Y54575001D02*
X37611674Y43400001D01*
X31875005Y54575001D02*
X37572827Y54575001D01*
X31875005Y54575001D02*
X31599999Y54299997D01*
X30775000Y54299997D02*
X31599999Y54299997D01*
X30775000Y54299997D02*
X30725000Y54243795D01*
X30725000Y54243795D02*
X30725000Y43400001D01*
X30718797Y43400001D02*
X37611674Y43400001D01*
D16*
G04 #@! TO.C,F1*
X82500000Y75100000D02*
X82500000Y79950000D01*
X80500000Y75100000D02*
X80500000Y79950000D01*
X82500000Y79950000D02*
G75*
G03*
X80500000Y79950000I-1000000J0D01*
G01*
X80500000Y75050000D02*
G75*
G03*
X82500000Y75050000I1000000J0D01*
G01*
G04 #@! TO.C,G3*
X38484000Y61136000D02*
X45596000Y61136000D01*
X45596000Y61136000D02*
X45596000Y48944000D01*
X45596000Y48944000D02*
X38484000Y48944000D01*
X38484000Y48944000D02*
X38484000Y61136000D01*
G04 #@! TO.C,P3*
X61170000Y1170000D02*
X61170000Y3830000D01*
X61464462Y3830000D02*
X61170000Y3830000D01*
X61475627Y1170000D02*
X61170000Y1170000D01*
X63524373Y3830000D02*
X63830000Y3830000D01*
X63535538Y1170000D02*
X63830000Y1170000D01*
X63830000Y3830000D02*
X63830000Y1170000D01*
D15*
G04 #@! TO.C,M6*
X79400010Y12300010D02*
X45600000Y12300010D01*
X79400010Y48100000D02*
X79400010Y12300010D01*
X79400010Y48100000D02*
X45600000Y48100000D01*
X45600000Y48100000D02*
X45600000Y12300010D01*
G04 #@! TO.C,M4*
X40925000Y77375000D02*
X34525000Y77375000D01*
X31325000Y77375000D02*
X32625000Y77375000D01*
X31325000Y77375000D02*
X31325000Y62375000D01*
X40925000Y62975000D02*
X40925000Y77375000D01*
X31325000Y62375000D02*
X36425000Y62375000D01*
D16*
G04 #@! TO.C,F2*
X23400000Y23778024D02*
X18550000Y23778024D01*
X23400000Y21778024D02*
X18550000Y21778024D01*
X18550000Y23778024D02*
G75*
G03*
X18550000Y21778024I0J-1000000D01*
G01*
X23450000Y21778024D02*
G75*
G03*
X23450000Y23778024I0J1000000D01*
G01*
G04 #@! TO.C,P6*
X42170000Y3170000D02*
X42170000Y5830000D01*
X42464462Y5830000D02*
X42170000Y5830000D01*
X42475627Y3170000D02*
X42170000Y3170000D01*
X44524373Y5830000D02*
X44830000Y5830000D01*
X44535538Y3170000D02*
X44830000Y3170000D01*
X44830000Y5830000D02*
X44830000Y3170000D01*
G04 #@! TO.C,G4*
X46104000Y61136000D02*
X53216000Y61136000D01*
X53216000Y61136000D02*
X53216000Y48944000D01*
X53216000Y48944000D02*
X46104000Y48944000D01*
X46104000Y48944000D02*
X46104000Y61136000D01*
G04 #@! TO.C,D8*
X58440000Y72800000D02*
X58440000Y73450000D01*
X58440000Y72800000D02*
X58440000Y72150000D01*
X55320000Y72800000D02*
X55320000Y74475000D01*
X55320000Y72800000D02*
X55320000Y72150000D01*
D15*
G04 #@! TO.C,C10*
X12625000Y14960000D02*
X11625000Y14960000D01*
D16*
G04 #@! TO.C,D4*
X18000000Y75750000D02*
X18000000Y79650000D01*
X20000000Y75750000D02*
X18000000Y75750000D01*
X20000000Y75750000D02*
X20000000Y79650000D01*
D14*
X19000000Y77450000D02*
X19000000Y77650000D01*
X18650000Y77650000D02*
X19350000Y77650000D01*
X19000000Y77650000D02*
X18650000Y78350000D01*
X19000000Y77650000D02*
X19350000Y78350000D01*
X18650000Y78350000D02*
X19350000Y78350000D01*
X19000000Y78350000D02*
X19000000Y78650000D01*
D17*
G04 #@! TO.C,BT1*
X84888000Y18280006D02*
X89768889Y18280006D01*
X84888000Y18280006D02*
X84888000Y21436032D01*
X94231110Y18280006D02*
X99112000Y18280006D01*
X99112000Y18280006D02*
X99112000Y21436032D01*
X94540000Y20572458D02*
X94540000Y22604458D01*
X84888000Y21436032D02*
X86088302Y21436032D01*
X98170600Y21436032D02*
X99112000Y21436032D01*
X93524000Y21588458D02*
X95556000Y21588458D01*
X94540000Y28319458D02*
X94540000Y29843458D01*
X89876081Y32371548D02*
G75*
G03*
X89702548Y18684629I2123901J-6871488D01*
G01*
X94175107Y18589026D02*
G75*
G03*
X94154049Y32417673I-2175073J6911027D01*
G01*
D18*
G04 #@! TO.C,R31*
X3029160Y41598944D02*
X3029149Y41998943D01*
X3774995Y41600000D02*
X3774985Y42000000D01*
D15*
G04 #@! TO.C,C7*
X6625000Y14960000D02*
X5625000Y14960000D01*
G04 #@! TO.C,C33*
X96650014Y34000000D02*
X97399999Y34000000D01*
D16*
G04 #@! TO.C,C29*
X56987836Y75440000D02*
X56772164Y75440000D01*
X56987836Y76160000D02*
X56772164Y76160000D01*
D18*
G04 #@! TO.C,R34*
X5529160Y41598944D02*
X5529149Y41998943D01*
X6274995Y41600000D02*
X6274985Y42000000D01*
G04 #@! TO.C,R1*
X37893941Y80295840D02*
X38293940Y80295851D01*
X37894997Y79550005D02*
X38294997Y79550015D01*
D15*
G04 #@! TO.C,C17*
X16100000Y9500000D02*
X17100000Y9500000D01*
D16*
G04 #@! TO.C,R20*
X23864564Y60765000D02*
X19510436Y60765000D01*
X23864564Y64185000D02*
X19510436Y64185000D01*
D15*
G04 #@! TO.C,C3*
X7625000Y18960000D02*
X8625000Y18960000D01*
G04 #@! TO.C,C23*
X19100000Y5500000D02*
X18100000Y5500000D01*
G04 #@! TO.C,C1*
X3625000Y18960000D02*
X4625000Y18960000D01*
D16*
G04 #@! TO.C,R26*
X23864564Y39765000D02*
X19510436Y39765000D01*
X23864564Y43185000D02*
X19510436Y43185000D01*
G04 #@! TO.C,Q18*
X6910000Y47000000D02*
X6910000Y53010000D01*
X90000Y49250000D02*
X90000Y53010000D01*
X90000Y53010000D02*
X1350000Y53010000D01*
X6910000Y53010000D02*
X5650000Y53010000D01*
D15*
G04 #@! TO.C,C14*
X10100000Y9500000D02*
X11100000Y9500000D01*
D16*
G04 #@! TO.C,Q15*
X6910000Y56000000D02*
X6910000Y62010000D01*
X90000Y58250000D02*
X90000Y62010000D01*
X90000Y62010000D02*
X1350000Y62010000D01*
X6910000Y62010000D02*
X5650000Y62010000D01*
D15*
G04 #@! TO.C,C19*
X11100000Y5500000D02*
X10100000Y5500000D01*
D16*
G04 #@! TO.C,R27*
X23864564Y32765000D02*
X19510436Y32765000D01*
X23864564Y36185000D02*
X19510436Y36185000D01*
G04 #@! TO.C,R21*
X23864564Y53765000D02*
X19510436Y53765000D01*
X23864564Y57185000D02*
X19510436Y57185000D01*
D15*
G04 #@! TO.C,C4*
X9625000Y18960000D02*
X10625000Y18960000D01*
D18*
G04 #@! TO.C,R10*
X19298944Y67370840D02*
X19698943Y67370851D01*
X19300000Y66625005D02*
X19700000Y66625015D01*
D16*
G04 #@! TO.C,D2*
X18000000Y68250000D02*
X18000000Y72150000D01*
X20000000Y68250000D02*
X18000000Y68250000D01*
X20000000Y68250000D02*
X20000000Y72150000D01*
D14*
X19000000Y69950000D02*
X19000000Y70150000D01*
X18650000Y70150000D02*
X19350000Y70150000D01*
X19000000Y70150000D02*
X18650000Y70850000D01*
X19000000Y70150000D02*
X19350000Y70850000D01*
X18650000Y70850000D02*
X19350000Y70850000D01*
X19000000Y70850000D02*
X19000000Y71150000D01*
D12*
G04 #@! TO.C,D1*
X86272003Y16574995D02*
X86272003Y16153995D01*
X86272003Y16574995D02*
X89200000Y16574995D01*
X86272003Y16254000D02*
X86400000Y16254000D01*
X86272003Y15846005D02*
X86272003Y15400000D01*
X86272003Y15746000D02*
X86399003Y15746000D01*
X86272003Y15400000D02*
X89200001Y15400000D01*
X86400000Y16550000D02*
X86399003Y16153995D01*
X86400000Y15846005D02*
X86400000Y15400000D01*
D14*
X87400000Y16000000D02*
X87600000Y16000000D01*
X87600000Y16350000D02*
X87600000Y15650000D01*
X87600000Y16000000D02*
X88300000Y16350000D01*
X87600000Y16000000D02*
X88300000Y15650000D01*
X88300000Y16350000D02*
X88300000Y15650000D01*
X88300000Y16000000D02*
X88600000Y16000000D01*
D18*
G04 #@! TO.C,R19*
X27426056Y48104160D02*
X27026057Y48104149D01*
X27425000Y48849995D02*
X27025000Y48849985D01*
G04 #@! TO.C,R33*
X32370840Y28201056D02*
X32370851Y27801057D01*
X31625005Y28200000D02*
X31625015Y27800000D01*
D15*
G04 #@! TO.C,C21*
X15100000Y5500000D02*
X14100000Y5500000D01*
D16*
G04 #@! TO.C,D6*
X5950000Y80150000D02*
X5025000Y80150000D01*
X7060000Y79500000D02*
X7060000Y80150000D01*
X7060000Y79500000D02*
X7060000Y78850000D01*
X3940000Y79500000D02*
X3940000Y81175000D01*
X3940000Y79500000D02*
X3940000Y78850000D01*
X7050000Y78750000D02*
X6050000Y78750000D01*
X5000000Y78750000D02*
X3940000Y78750000D01*
D18*
G04 #@! TO.C,R23*
X27426056Y41104160D02*
X27026057Y41104149D01*
X27425000Y41849995D02*
X27025000Y41849985D01*
D16*
G04 #@! TO.C,Q6*
X1350000Y76050000D02*
X1350000Y75125000D01*
X2000000Y77160000D02*
X1350000Y77160000D01*
X2000000Y77160000D02*
X2650000Y77160000D01*
X2000000Y74040000D02*
X325000Y74040000D01*
X2000000Y74040000D02*
X2650000Y74040000D01*
X2750000Y77150000D02*
X2750000Y76150000D01*
X2750000Y75100000D02*
X2750000Y74040000D01*
D18*
G04 #@! TO.C,R7*
X48629160Y4177262D02*
X48629149Y4577261D01*
X49374995Y4178318D02*
X49374985Y4578318D01*
G04 #@! TO.C,R24*
X27426056Y34104160D02*
X27026057Y34104149D01*
X27425000Y34849995D02*
X27025000Y34849985D01*
G04 #@! TO.C,R16*
X3829160Y86998944D02*
X3829149Y87398943D01*
X4574995Y87000000D02*
X4574985Y87400000D01*
D16*
G04 #@! TO.C,Q1*
X21900000Y66590000D02*
X27910000Y66590000D01*
X24150000Y73410000D02*
X27910000Y73410000D01*
X27910000Y73410000D02*
X27910000Y72150000D01*
X27910000Y66590000D02*
X27910000Y67850000D01*
D18*
G04 #@! TO.C,R30*
X36129160Y30798944D02*
X36129149Y31198943D01*
X36874995Y30800000D02*
X36874985Y31200000D01*
D16*
G04 #@! TO.C,R22*
X23864564Y46765000D02*
X19510436Y46765000D01*
X23864564Y50185000D02*
X19510436Y50185000D01*
D18*
G04 #@! TO.C,R25*
X27426056Y27104160D02*
X27026057Y27104149D01*
X27425000Y27849995D02*
X27025000Y27849985D01*
D15*
G04 #@! TO.C,C16*
X14100000Y9500000D02*
X15100000Y9500000D01*
D18*
G04 #@! TO.C,R17*
X27426056Y62104160D02*
X27026057Y62104149D01*
X27425000Y62849995D02*
X27025000Y62849985D01*
D15*
G04 #@! TO.C,C22*
X17100000Y5500000D02*
X16100000Y5500000D01*
D18*
G04 #@! TO.C,R8*
X51129160Y4177262D02*
X51129149Y4577261D01*
X51874995Y4178318D02*
X51874985Y4578318D01*
G04 #@! TO.C,R3*
X15629160Y17798944D02*
X15629149Y18198943D01*
X16374995Y17800000D02*
X16374985Y18200000D01*
G04 #@! TO.C,R15*
X6329160Y86998944D02*
X6329149Y87398943D01*
X7074995Y87000000D02*
X7074985Y87400000D01*
D16*
G04 #@! TO.C,Q3*
X21900000Y74090000D02*
X27910000Y74090000D01*
X24150000Y80910000D02*
X27910000Y80910000D01*
X27910000Y80910000D02*
X27910000Y79650000D01*
X27910000Y74090000D02*
X27910000Y75350000D01*
G04 #@! TO.C,Q5*
X5950000Y84250000D02*
X5025000Y84250000D01*
X7060000Y83600000D02*
X7060000Y84250000D01*
X7060000Y83600000D02*
X7060000Y82950000D01*
X3940000Y83600000D02*
X3940000Y85275000D01*
X3940000Y83600000D02*
X3940000Y82950000D01*
X7050000Y82850000D02*
X6050000Y82850000D01*
X5000000Y82850000D02*
X3940000Y82850000D01*
D15*
G04 #@! TO.C,C5*
X11625000Y18960000D02*
X12625000Y18960000D01*
D18*
G04 #@! TO.C,R32*
X31629160Y30798944D02*
X31629149Y31198943D01*
X32374995Y30800000D02*
X32374985Y31200000D01*
G04 #@! TO.C,R29*
X529160Y41598944D02*
X529149Y41998943D01*
X1274995Y41600000D02*
X1274985Y42000000D01*
G04 #@! TO.C,R18*
X27426056Y55104160D02*
X27026057Y55104149D01*
X27425000Y55849995D02*
X27025000Y55849985D01*
D15*
G04 #@! TO.C,C15*
X12100000Y9500000D02*
X13100000Y9500000D01*
D16*
G04 #@! TO.C,R28*
X23864564Y25765000D02*
X19510436Y25765000D01*
X23864564Y29185000D02*
X19510436Y29185000D01*
D15*
G04 #@! TO.C,C8*
X8625000Y14960000D02*
X7625000Y14960000D01*
D16*
G04 #@! TO.C,Q14*
X37910000Y33400000D02*
X37910000Y39410000D01*
X31090000Y35650000D02*
X31090000Y39410000D01*
X31090000Y39410000D02*
X32350000Y39410000D01*
X37910000Y39410000D02*
X36650000Y39410000D01*
D15*
G04 #@! TO.C,C9*
X10625000Y14960000D02*
X9625000Y14960000D01*
G04 #@! TO.C,C6*
X4625000Y14960000D02*
X3625000Y14960000D01*
D16*
G04 #@! TO.C,D7*
X5350000Y76050000D02*
X5350000Y75125000D01*
X6000000Y77160000D02*
X5350000Y77160000D01*
X6000000Y77160000D02*
X6650000Y77160000D01*
X6000000Y74040000D02*
X4325000Y74040000D01*
X6000000Y74040000D02*
X6650000Y74040000D01*
X6750000Y77150000D02*
X6750000Y76150000D01*
X6750000Y75100000D02*
X6750000Y74040000D01*
D15*
G04 #@! TO.C,C2*
X5625000Y18960000D02*
X6625000Y18960000D01*
G04 #@! TO.C,C18*
X18100000Y9500000D02*
X19100000Y9500000D01*
D18*
G04 #@! TO.C,R12*
X18798944Y74870840D02*
X19198943Y74870851D01*
X18800000Y74125005D02*
X19200000Y74125015D01*
D15*
G04 #@! TO.C,C20*
X13100000Y5500000D02*
X12100000Y5500000D01*
D18*
G04 #@! TO.C,R2*
X15629160Y20798944D02*
X15629149Y21198943D01*
X16374995Y20800000D02*
X16374985Y21200000D01*
D16*
G04 #@! TO.C,Q13*
X6910000Y65000000D02*
X6910000Y71010000D01*
X90000Y67250000D02*
X90000Y71010000D01*
X90000Y71010000D02*
X1350000Y71010000D01*
X6910000Y71010000D02*
X5650000Y71010000D01*
G04 #@! TD*
M02*
