G04 #@! TF.GenerationSoftware,KiCad,Pcbnew,7.0.9-7.0.9~ubuntu22.04.1*
G04 #@! TF.CreationDate,2023-11-30T19:58:23+00:00*
G04 #@! TF.ProjectId,uaefi,75616566-692e-46b6-9963-61645f706362,rev?*
G04 #@! TF.SameCoordinates,Original*
G04 #@! TF.FileFunction,Legend,Top*
G04 #@! TF.FilePolarity,Positive*
%FSLAX46Y46*%
G04 Gerber Fmt 4.6, Leading zero omitted, Abs format (unit mm)*
G04 Created by KiCad (PCBNEW 7.0.9-7.0.9~ubuntu22.04.1) date 2023-11-30 19:58:23*
%MOMM*%
%LPD*%
G01*
G04 APERTURE LIST*
%ADD10C,0.150000*%
%ADD11C,0.170000*%
%ADD12C,0.127000*%
%ADD13C,0.304800*%
%ADD14C,0.200000*%
%ADD15C,0.120000*%
%ADD16C,0.203200*%
%ADD17C,0.631031*%
%ADD18C,0.002540*%
%ADD19C,0.381000*%
G04 APERTURE END LIST*
D10*
X26628571Y41119943D02*
X26533333Y41167562D01*
X26533333Y41167562D02*
X26438095Y41262800D01*
X26438095Y41262800D02*
X26295238Y41405658D01*
X26295238Y41405658D02*
X26200000Y41453277D01*
X26200000Y41453277D02*
X26104762Y41453277D01*
X26152381Y41215181D02*
X26057143Y41262800D01*
X26057143Y41262800D02*
X25961905Y41358039D01*
X25961905Y41358039D02*
X25914286Y41548515D01*
X25914286Y41548515D02*
X25914286Y41881848D01*
X25914286Y41881848D02*
X25961905Y42072324D01*
X25961905Y42072324D02*
X26057143Y42167562D01*
X26057143Y42167562D02*
X26152381Y42215181D01*
X26152381Y42215181D02*
X26342857Y42215181D01*
X26342857Y42215181D02*
X26438095Y42167562D01*
X26438095Y42167562D02*
X26533333Y42072324D01*
X26533333Y42072324D02*
X26580952Y41881848D01*
X26580952Y41881848D02*
X26580952Y41548515D01*
X26580952Y41548515D02*
X26533333Y41358039D01*
X26533333Y41358039D02*
X26438095Y41262800D01*
X26438095Y41262800D02*
X26342857Y41215181D01*
X26342857Y41215181D02*
X26152381Y41215181D01*
X27533333Y41215181D02*
X26961905Y41215181D01*
X27247619Y41215181D02*
X27247619Y42215181D01*
X27247619Y42215181D02*
X27152381Y42072324D01*
X27152381Y42072324D02*
X27057143Y41977086D01*
X27057143Y41977086D02*
X26961905Y41929467D01*
X28152381Y42215181D02*
X28247619Y42215181D01*
X28247619Y42215181D02*
X28342857Y42167562D01*
X28342857Y42167562D02*
X28390476Y42119943D01*
X28390476Y42119943D02*
X28438095Y42024705D01*
X28438095Y42024705D02*
X28485714Y41834229D01*
X28485714Y41834229D02*
X28485714Y41596134D01*
X28485714Y41596134D02*
X28438095Y41405658D01*
X28438095Y41405658D02*
X28390476Y41310420D01*
X28390476Y41310420D02*
X28342857Y41262800D01*
X28342857Y41262800D02*
X28247619Y41215181D01*
X28247619Y41215181D02*
X28152381Y41215181D01*
X28152381Y41215181D02*
X28057143Y41262800D01*
X28057143Y41262800D02*
X28009524Y41310420D01*
X28009524Y41310420D02*
X27961905Y41405658D01*
X27961905Y41405658D02*
X27914286Y41596134D01*
X27914286Y41596134D02*
X27914286Y41834229D01*
X27914286Y41834229D02*
X27961905Y42024705D01*
X27961905Y42024705D02*
X28009524Y42119943D01*
X28009524Y42119943D02*
X28057143Y42167562D01*
X28057143Y42167562D02*
X28152381Y42215181D01*
D11*
X56577113Y65477500D02*
X56616161Y65438452D01*
X56616161Y65438452D02*
X56655208Y65321309D01*
X56655208Y65321309D02*
X56655208Y65243214D01*
X56655208Y65243214D02*
X56616161Y65126071D01*
X56616161Y65126071D02*
X56538065Y65047975D01*
X56538065Y65047975D02*
X56459970Y65008928D01*
X56459970Y65008928D02*
X56303779Y64969880D01*
X56303779Y64969880D02*
X56186636Y64969880D01*
X56186636Y64969880D02*
X56030446Y65008928D01*
X56030446Y65008928D02*
X55952350Y65047975D01*
X55952350Y65047975D02*
X55874255Y65126071D01*
X55874255Y65126071D02*
X55835207Y65243214D01*
X55835207Y65243214D02*
X55835207Y65321309D01*
X55835207Y65321309D02*
X55874255Y65438452D01*
X55874255Y65438452D02*
X55913303Y65477500D01*
X55913303Y65789881D02*
X55874255Y65828929D01*
X55874255Y65828929D02*
X55835207Y65907024D01*
X55835207Y65907024D02*
X55835207Y66102262D01*
X55835207Y66102262D02*
X55874255Y66180358D01*
X55874255Y66180358D02*
X55913303Y66219405D01*
X55913303Y66219405D02*
X55991398Y66258453D01*
X55991398Y66258453D02*
X56069493Y66258453D01*
X56069493Y66258453D02*
X56186636Y66219405D01*
X56186636Y66219405D02*
X56655208Y65750833D01*
X56655208Y65750833D02*
X56655208Y66258453D01*
X55835207Y66531786D02*
X55835207Y67078454D01*
X55835207Y67078454D02*
X56655208Y66727025D01*
D10*
X55359580Y79644643D02*
X55407200Y79597024D01*
X55407200Y79597024D02*
X55454819Y79454167D01*
X55454819Y79454167D02*
X55454819Y79358929D01*
X55454819Y79358929D02*
X55407200Y79216072D01*
X55407200Y79216072D02*
X55311961Y79120834D01*
X55311961Y79120834D02*
X55216723Y79073215D01*
X55216723Y79073215D02*
X55026247Y79025596D01*
X55026247Y79025596D02*
X54883390Y79025596D01*
X54883390Y79025596D02*
X54692914Y79073215D01*
X54692914Y79073215D02*
X54597676Y79120834D01*
X54597676Y79120834D02*
X54502438Y79216072D01*
X54502438Y79216072D02*
X54454819Y79358929D01*
X54454819Y79358929D02*
X54454819Y79454167D01*
X54454819Y79454167D02*
X54502438Y79597024D01*
X54502438Y79597024D02*
X54550057Y79644643D01*
X54454819Y79977977D02*
X54454819Y80597024D01*
X54454819Y80597024D02*
X54835771Y80263691D01*
X54835771Y80263691D02*
X54835771Y80406548D01*
X54835771Y80406548D02*
X54883390Y80501786D01*
X54883390Y80501786D02*
X54931009Y80549405D01*
X54931009Y80549405D02*
X55026247Y80597024D01*
X55026247Y80597024D02*
X55264342Y80597024D01*
X55264342Y80597024D02*
X55359580Y80549405D01*
X55359580Y80549405D02*
X55407200Y80501786D01*
X55407200Y80501786D02*
X55454819Y80406548D01*
X55454819Y80406548D02*
X55454819Y80120834D01*
X55454819Y80120834D02*
X55407200Y80025596D01*
X55407200Y80025596D02*
X55359580Y79977977D01*
X54454819Y81216072D02*
X54454819Y81311310D01*
X54454819Y81311310D02*
X54502438Y81406548D01*
X54502438Y81406548D02*
X54550057Y81454167D01*
X54550057Y81454167D02*
X54645295Y81501786D01*
X54645295Y81501786D02*
X54835771Y81549405D01*
X54835771Y81549405D02*
X55073866Y81549405D01*
X55073866Y81549405D02*
X55264342Y81501786D01*
X55264342Y81501786D02*
X55359580Y81454167D01*
X55359580Y81454167D02*
X55407200Y81406548D01*
X55407200Y81406548D02*
X55454819Y81311310D01*
X55454819Y81311310D02*
X55454819Y81216072D01*
X55454819Y81216072D02*
X55407200Y81120834D01*
X55407200Y81120834D02*
X55359580Y81073215D01*
X55359580Y81073215D02*
X55264342Y81025596D01*
X55264342Y81025596D02*
X55073866Y80977977D01*
X55073866Y80977977D02*
X54835771Y80977977D01*
X54835771Y80977977D02*
X54645295Y81025596D01*
X54645295Y81025596D02*
X54550057Y81073215D01*
X54550057Y81073215D02*
X54502438Y81120834D01*
X54502438Y81120834D02*
X54454819Y81216072D01*
X27166666Y106370181D02*
X27166666Y105655896D01*
X27166666Y105655896D02*
X27119047Y105513039D01*
X27119047Y105513039D02*
X27023809Y105417800D01*
X27023809Y105417800D02*
X26880952Y105370181D01*
X26880952Y105370181D02*
X26785714Y105370181D01*
X27595238Y106274943D02*
X27642857Y106322562D01*
X27642857Y106322562D02*
X27738095Y106370181D01*
X27738095Y106370181D02*
X27976190Y106370181D01*
X27976190Y106370181D02*
X28071428Y106322562D01*
X28071428Y106322562D02*
X28119047Y106274943D01*
X28119047Y106274943D02*
X28166666Y106179705D01*
X28166666Y106179705D02*
X28166666Y106084467D01*
X28166666Y106084467D02*
X28119047Y105941610D01*
X28119047Y105941610D02*
X27547619Y105370181D01*
X27547619Y105370181D02*
X28166666Y105370181D01*
X27104761Y62119943D02*
X27009523Y62167562D01*
X27009523Y62167562D02*
X26914285Y62262800D01*
X26914285Y62262800D02*
X26771428Y62405658D01*
X26771428Y62405658D02*
X26676190Y62453277D01*
X26676190Y62453277D02*
X26580952Y62453277D01*
X26628571Y62215181D02*
X26533333Y62262800D01*
X26533333Y62262800D02*
X26438095Y62358039D01*
X26438095Y62358039D02*
X26390476Y62548515D01*
X26390476Y62548515D02*
X26390476Y62881848D01*
X26390476Y62881848D02*
X26438095Y63072324D01*
X26438095Y63072324D02*
X26533333Y63167562D01*
X26533333Y63167562D02*
X26628571Y63215181D01*
X26628571Y63215181D02*
X26819047Y63215181D01*
X26819047Y63215181D02*
X26914285Y63167562D01*
X26914285Y63167562D02*
X27009523Y63072324D01*
X27009523Y63072324D02*
X27057142Y62881848D01*
X27057142Y62881848D02*
X27057142Y62548515D01*
X27057142Y62548515D02*
X27009523Y62358039D01*
X27009523Y62358039D02*
X26914285Y62262800D01*
X26914285Y62262800D02*
X26819047Y62215181D01*
X26819047Y62215181D02*
X26628571Y62215181D01*
X27390476Y63215181D02*
X28057142Y63215181D01*
X28057142Y63215181D02*
X27628571Y62215181D01*
X27104761Y55119943D02*
X27009523Y55167562D01*
X27009523Y55167562D02*
X26914285Y55262800D01*
X26914285Y55262800D02*
X26771428Y55405658D01*
X26771428Y55405658D02*
X26676190Y55453277D01*
X26676190Y55453277D02*
X26580952Y55453277D01*
X26628571Y55215181D02*
X26533333Y55262800D01*
X26533333Y55262800D02*
X26438095Y55358039D01*
X26438095Y55358039D02*
X26390476Y55548515D01*
X26390476Y55548515D02*
X26390476Y55881848D01*
X26390476Y55881848D02*
X26438095Y56072324D01*
X26438095Y56072324D02*
X26533333Y56167562D01*
X26533333Y56167562D02*
X26628571Y56215181D01*
X26628571Y56215181D02*
X26819047Y56215181D01*
X26819047Y56215181D02*
X26914285Y56167562D01*
X26914285Y56167562D02*
X27009523Y56072324D01*
X27009523Y56072324D02*
X27057142Y55881848D01*
X27057142Y55881848D02*
X27057142Y55548515D01*
X27057142Y55548515D02*
X27009523Y55358039D01*
X27009523Y55358039D02*
X26914285Y55262800D01*
X26914285Y55262800D02*
X26819047Y55215181D01*
X26819047Y55215181D02*
X26628571Y55215181D01*
X27628571Y55786610D02*
X27533333Y55834229D01*
X27533333Y55834229D02*
X27485714Y55881848D01*
X27485714Y55881848D02*
X27438095Y55977086D01*
X27438095Y55977086D02*
X27438095Y56024705D01*
X27438095Y56024705D02*
X27485714Y56119943D01*
X27485714Y56119943D02*
X27533333Y56167562D01*
X27533333Y56167562D02*
X27628571Y56215181D01*
X27628571Y56215181D02*
X27819047Y56215181D01*
X27819047Y56215181D02*
X27914285Y56167562D01*
X27914285Y56167562D02*
X27961904Y56119943D01*
X27961904Y56119943D02*
X28009523Y56024705D01*
X28009523Y56024705D02*
X28009523Y55977086D01*
X28009523Y55977086D02*
X27961904Y55881848D01*
X27961904Y55881848D02*
X27914285Y55834229D01*
X27914285Y55834229D02*
X27819047Y55786610D01*
X27819047Y55786610D02*
X27628571Y55786610D01*
X27628571Y55786610D02*
X27533333Y55738991D01*
X27533333Y55738991D02*
X27485714Y55691372D01*
X27485714Y55691372D02*
X27438095Y55596134D01*
X27438095Y55596134D02*
X27438095Y55405658D01*
X27438095Y55405658D02*
X27485714Y55310420D01*
X27485714Y55310420D02*
X27533333Y55262800D01*
X27533333Y55262800D02*
X27628571Y55215181D01*
X27628571Y55215181D02*
X27819047Y55215181D01*
X27819047Y55215181D02*
X27914285Y55262800D01*
X27914285Y55262800D02*
X27961904Y55310420D01*
X27961904Y55310420D02*
X28009523Y55405658D01*
X28009523Y55405658D02*
X28009523Y55596134D01*
X28009523Y55596134D02*
X27961904Y55691372D01*
X27961904Y55691372D02*
X27914285Y55738991D01*
X27914285Y55738991D02*
X27819047Y55786610D01*
X33261905Y59295181D02*
X33261905Y60295181D01*
X33261905Y60295181D02*
X33642857Y60295181D01*
X33642857Y60295181D02*
X33738095Y60247562D01*
X33738095Y60247562D02*
X33785714Y60199943D01*
X33785714Y60199943D02*
X33833333Y60104705D01*
X33833333Y60104705D02*
X33833333Y59961848D01*
X33833333Y59961848D02*
X33785714Y59866610D01*
X33785714Y59866610D02*
X33738095Y59818991D01*
X33738095Y59818991D02*
X33642857Y59771372D01*
X33642857Y59771372D02*
X33261905Y59771372D01*
X34785714Y59295181D02*
X34214286Y59295181D01*
X34500000Y59295181D02*
X34500000Y60295181D01*
X34500000Y60295181D02*
X34404762Y60152324D01*
X34404762Y60152324D02*
X34309524Y60057086D01*
X34309524Y60057086D02*
X34214286Y60009467D01*
X28904761Y79949943D02*
X28809523Y79997562D01*
X28809523Y79997562D02*
X28714285Y80092800D01*
X28714285Y80092800D02*
X28571428Y80235658D01*
X28571428Y80235658D02*
X28476190Y80283277D01*
X28476190Y80283277D02*
X28380952Y80283277D01*
X28428571Y80045181D02*
X28333333Y80092800D01*
X28333333Y80092800D02*
X28238095Y80188039D01*
X28238095Y80188039D02*
X28190476Y80378515D01*
X28190476Y80378515D02*
X28190476Y80711848D01*
X28190476Y80711848D02*
X28238095Y80902324D01*
X28238095Y80902324D02*
X28333333Y80997562D01*
X28333333Y80997562D02*
X28428571Y81045181D01*
X28428571Y81045181D02*
X28619047Y81045181D01*
X28619047Y81045181D02*
X28714285Y80997562D01*
X28714285Y80997562D02*
X28809523Y80902324D01*
X28809523Y80902324D02*
X28857142Y80711848D01*
X28857142Y80711848D02*
X28857142Y80378515D01*
X28857142Y80378515D02*
X28809523Y80188039D01*
X28809523Y80188039D02*
X28714285Y80092800D01*
X28714285Y80092800D02*
X28619047Y80045181D01*
X28619047Y80045181D02*
X28428571Y80045181D01*
X29238095Y80949943D02*
X29285714Y80997562D01*
X29285714Y80997562D02*
X29380952Y81045181D01*
X29380952Y81045181D02*
X29619047Y81045181D01*
X29619047Y81045181D02*
X29714285Y80997562D01*
X29714285Y80997562D02*
X29761904Y80949943D01*
X29761904Y80949943D02*
X29809523Y80854705D01*
X29809523Y80854705D02*
X29809523Y80759467D01*
X29809523Y80759467D02*
X29761904Y80616610D01*
X29761904Y80616610D02*
X29190476Y80045181D01*
X29190476Y80045181D02*
X29809523Y80045181D01*
X72166666Y106370181D02*
X72166666Y105655896D01*
X72166666Y105655896D02*
X72119047Y105513039D01*
X72119047Y105513039D02*
X72023809Y105417800D01*
X72023809Y105417800D02*
X71880952Y105370181D01*
X71880952Y105370181D02*
X71785714Y105370181D01*
X73166666Y105370181D02*
X72595238Y105370181D01*
X72880952Y105370181D02*
X72880952Y106370181D01*
X72880952Y106370181D02*
X72785714Y106227324D01*
X72785714Y106227324D02*
X72690476Y106132086D01*
X72690476Y106132086D02*
X72595238Y106084467D01*
X30261905Y59295181D02*
X30261905Y60295181D01*
X30261905Y60295181D02*
X30642857Y60295181D01*
X30642857Y60295181D02*
X30738095Y60247562D01*
X30738095Y60247562D02*
X30785714Y60199943D01*
X30785714Y60199943D02*
X30833333Y60104705D01*
X30833333Y60104705D02*
X30833333Y59961848D01*
X30833333Y59961848D02*
X30785714Y59866610D01*
X30785714Y59866610D02*
X30738095Y59818991D01*
X30738095Y59818991D02*
X30642857Y59771372D01*
X30642857Y59771372D02*
X30261905Y59771372D01*
X31214286Y60199943D02*
X31261905Y60247562D01*
X31261905Y60247562D02*
X31357143Y60295181D01*
X31357143Y60295181D02*
X31595238Y60295181D01*
X31595238Y60295181D02*
X31690476Y60247562D01*
X31690476Y60247562D02*
X31738095Y60199943D01*
X31738095Y60199943D02*
X31785714Y60104705D01*
X31785714Y60104705D02*
X31785714Y60009467D01*
X31785714Y60009467D02*
X31738095Y59866610D01*
X31738095Y59866610D02*
X31166667Y59295181D01*
X31166667Y59295181D02*
X31785714Y59295181D01*
X60354819Y71800596D02*
X61164342Y71800596D01*
X61164342Y71800596D02*
X61259580Y71848215D01*
X61259580Y71848215D02*
X61307200Y71895834D01*
X61307200Y71895834D02*
X61354819Y71991072D01*
X61354819Y71991072D02*
X61354819Y72181548D01*
X61354819Y72181548D02*
X61307200Y72276786D01*
X61307200Y72276786D02*
X61259580Y72324405D01*
X61259580Y72324405D02*
X61164342Y72372024D01*
X61164342Y72372024D02*
X60354819Y72372024D01*
X60688152Y73276786D02*
X61354819Y73276786D01*
X60307200Y73038691D02*
X61021485Y72800596D01*
X61021485Y72800596D02*
X61021485Y73419643D01*
X53859580Y76857143D02*
X53907200Y76809524D01*
X53907200Y76809524D02*
X53954819Y76666667D01*
X53954819Y76666667D02*
X53954819Y76571429D01*
X53954819Y76571429D02*
X53907200Y76428572D01*
X53907200Y76428572D02*
X53811961Y76333334D01*
X53811961Y76333334D02*
X53716723Y76285715D01*
X53716723Y76285715D02*
X53526247Y76238096D01*
X53526247Y76238096D02*
X53383390Y76238096D01*
X53383390Y76238096D02*
X53192914Y76285715D01*
X53192914Y76285715D02*
X53097676Y76333334D01*
X53097676Y76333334D02*
X53002438Y76428572D01*
X53002438Y76428572D02*
X52954819Y76571429D01*
X52954819Y76571429D02*
X52954819Y76666667D01*
X52954819Y76666667D02*
X53002438Y76809524D01*
X53002438Y76809524D02*
X53050057Y76857143D01*
X52954819Y77190477D02*
X52954819Y77809524D01*
X52954819Y77809524D02*
X53335771Y77476191D01*
X53335771Y77476191D02*
X53335771Y77619048D01*
X53335771Y77619048D02*
X53383390Y77714286D01*
X53383390Y77714286D02*
X53431009Y77761905D01*
X53431009Y77761905D02*
X53526247Y77809524D01*
X53526247Y77809524D02*
X53764342Y77809524D01*
X53764342Y77809524D02*
X53859580Y77761905D01*
X53859580Y77761905D02*
X53907200Y77714286D01*
X53907200Y77714286D02*
X53954819Y77619048D01*
X53954819Y77619048D02*
X53954819Y77333334D01*
X53954819Y77333334D02*
X53907200Y77238096D01*
X53907200Y77238096D02*
X53859580Y77190477D01*
X53954819Y78761905D02*
X53954819Y78190477D01*
X53954819Y78476191D02*
X52954819Y78476191D01*
X52954819Y78476191D02*
X53097676Y78380953D01*
X53097676Y78380953D02*
X53192914Y78285715D01*
X53192914Y78285715D02*
X53240533Y78190477D01*
D12*
X19626000Y21053232D02*
X19372000Y21053232D01*
X19372000Y20654089D02*
X19372000Y21416089D01*
X19372000Y21416089D02*
X19734857Y21416089D01*
X20351715Y21162089D02*
X20351715Y20654089D01*
X20170286Y21452374D02*
X19988857Y20908089D01*
X19988857Y20908089D02*
X20460572Y20908089D01*
D10*
X82666666Y17045181D02*
X82666666Y16330896D01*
X82666666Y16330896D02*
X82619047Y16188039D01*
X82619047Y16188039D02*
X82523809Y16092800D01*
X82523809Y16092800D02*
X82380952Y16045181D01*
X82380952Y16045181D02*
X82285714Y16045181D01*
X83047619Y17045181D02*
X83714285Y17045181D01*
X83714285Y17045181D02*
X83285714Y16045181D01*
X30550057Y36928572D02*
X30502438Y36833334D01*
X30502438Y36833334D02*
X30407200Y36738096D01*
X30407200Y36738096D02*
X30264342Y36595239D01*
X30264342Y36595239D02*
X30216723Y36500001D01*
X30216723Y36500001D02*
X30216723Y36404763D01*
X30454819Y36452382D02*
X30407200Y36357144D01*
X30407200Y36357144D02*
X30311961Y36261906D01*
X30311961Y36261906D02*
X30121485Y36214287D01*
X30121485Y36214287D02*
X29788152Y36214287D01*
X29788152Y36214287D02*
X29597676Y36261906D01*
X29597676Y36261906D02*
X29502438Y36357144D01*
X29502438Y36357144D02*
X29454819Y36452382D01*
X29454819Y36452382D02*
X29454819Y36642858D01*
X29454819Y36642858D02*
X29502438Y36738096D01*
X29502438Y36738096D02*
X29597676Y36833334D01*
X29597676Y36833334D02*
X29788152Y36880953D01*
X29788152Y36880953D02*
X30121485Y36880953D01*
X30121485Y36880953D02*
X30311961Y36833334D01*
X30311961Y36833334D02*
X30407200Y36738096D01*
X30407200Y36738096D02*
X30454819Y36642858D01*
X30454819Y36642858D02*
X30454819Y36452382D01*
X30454819Y37833334D02*
X30454819Y37261906D01*
X30454819Y37547620D02*
X29454819Y37547620D01*
X29454819Y37547620D02*
X29597676Y37452382D01*
X29597676Y37452382D02*
X29692914Y37357144D01*
X29692914Y37357144D02*
X29740533Y37261906D01*
X29454819Y38690477D02*
X29454819Y38500001D01*
X29454819Y38500001D02*
X29502438Y38404763D01*
X29502438Y38404763D02*
X29550057Y38357144D01*
X29550057Y38357144D02*
X29692914Y38261906D01*
X29692914Y38261906D02*
X29883390Y38214287D01*
X29883390Y38214287D02*
X30264342Y38214287D01*
X30264342Y38214287D02*
X30359580Y38261906D01*
X30359580Y38261906D02*
X30407200Y38309525D01*
X30407200Y38309525D02*
X30454819Y38404763D01*
X30454819Y38404763D02*
X30454819Y38595239D01*
X30454819Y38595239D02*
X30407200Y38690477D01*
X30407200Y38690477D02*
X30359580Y38738096D01*
X30359580Y38738096D02*
X30264342Y38785715D01*
X30264342Y38785715D02*
X30026247Y38785715D01*
X30026247Y38785715D02*
X29931009Y38738096D01*
X29931009Y38738096D02*
X29883390Y38690477D01*
X29883390Y38690477D02*
X29835771Y38595239D01*
X29835771Y38595239D02*
X29835771Y38404763D01*
X29835771Y38404763D02*
X29883390Y38309525D01*
X29883390Y38309525D02*
X29931009Y38261906D01*
X29931009Y38261906D02*
X30026247Y38214287D01*
X61761905Y9295181D02*
X61761905Y10295181D01*
X61761905Y10295181D02*
X62142857Y10295181D01*
X62142857Y10295181D02*
X62238095Y10247562D01*
X62238095Y10247562D02*
X62285714Y10199943D01*
X62285714Y10199943D02*
X62333333Y10104705D01*
X62333333Y10104705D02*
X62333333Y9961848D01*
X62333333Y9961848D02*
X62285714Y9866610D01*
X62285714Y9866610D02*
X62238095Y9818991D01*
X62238095Y9818991D02*
X62142857Y9771372D01*
X62142857Y9771372D02*
X61761905Y9771372D01*
X63190476Y9961848D02*
X63190476Y9295181D01*
X62952381Y10342800D02*
X62714286Y9628515D01*
X62714286Y9628515D02*
X63333333Y9628515D01*
X42761905Y33295181D02*
X42761905Y34295181D01*
X42761905Y34295181D02*
X43142857Y34295181D01*
X43142857Y34295181D02*
X43238095Y34247562D01*
X43238095Y34247562D02*
X43285714Y34199943D01*
X43285714Y34199943D02*
X43333333Y34104705D01*
X43333333Y34104705D02*
X43333333Y33961848D01*
X43333333Y33961848D02*
X43285714Y33866610D01*
X43285714Y33866610D02*
X43238095Y33818991D01*
X43238095Y33818991D02*
X43142857Y33771372D01*
X43142857Y33771372D02*
X42761905Y33771372D01*
X44238095Y34295181D02*
X43761905Y34295181D01*
X43761905Y34295181D02*
X43714286Y33818991D01*
X43714286Y33818991D02*
X43761905Y33866610D01*
X43761905Y33866610D02*
X43857143Y33914229D01*
X43857143Y33914229D02*
X44095238Y33914229D01*
X44095238Y33914229D02*
X44190476Y33866610D01*
X44190476Y33866610D02*
X44238095Y33818991D01*
X44238095Y33818991D02*
X44285714Y33723753D01*
X44285714Y33723753D02*
X44285714Y33485658D01*
X44285714Y33485658D02*
X44238095Y33390420D01*
X44238095Y33390420D02*
X44190476Y33342800D01*
X44190476Y33342800D02*
X44095238Y33295181D01*
X44095238Y33295181D02*
X43857143Y33295181D01*
X43857143Y33295181D02*
X43761905Y33342800D01*
X43761905Y33342800D02*
X43714286Y33390420D01*
X55004819Y4366667D02*
X55719104Y4366667D01*
X55719104Y4366667D02*
X55861961Y4319048D01*
X55861961Y4319048D02*
X55957200Y4223810D01*
X55957200Y4223810D02*
X56004819Y4080953D01*
X56004819Y4080953D02*
X56004819Y3985715D01*
X55433390Y4985715D02*
X55385771Y4890477D01*
X55385771Y4890477D02*
X55338152Y4842858D01*
X55338152Y4842858D02*
X55242914Y4795239D01*
X55242914Y4795239D02*
X55195295Y4795239D01*
X55195295Y4795239D02*
X55100057Y4842858D01*
X55100057Y4842858D02*
X55052438Y4890477D01*
X55052438Y4890477D02*
X55004819Y4985715D01*
X55004819Y4985715D02*
X55004819Y5176191D01*
X55004819Y5176191D02*
X55052438Y5271429D01*
X55052438Y5271429D02*
X55100057Y5319048D01*
X55100057Y5319048D02*
X55195295Y5366667D01*
X55195295Y5366667D02*
X55242914Y5366667D01*
X55242914Y5366667D02*
X55338152Y5319048D01*
X55338152Y5319048D02*
X55385771Y5271429D01*
X55385771Y5271429D02*
X55433390Y5176191D01*
X55433390Y5176191D02*
X55433390Y4985715D01*
X55433390Y4985715D02*
X55481009Y4890477D01*
X55481009Y4890477D02*
X55528628Y4842858D01*
X55528628Y4842858D02*
X55623866Y4795239D01*
X55623866Y4795239D02*
X55814342Y4795239D01*
X55814342Y4795239D02*
X55909580Y4842858D01*
X55909580Y4842858D02*
X55957200Y4890477D01*
X55957200Y4890477D02*
X56004819Y4985715D01*
X56004819Y4985715D02*
X56004819Y5176191D01*
X56004819Y5176191D02*
X55957200Y5271429D01*
X55957200Y5271429D02*
X55909580Y5319048D01*
X55909580Y5319048D02*
X55814342Y5366667D01*
X55814342Y5366667D02*
X55623866Y5366667D01*
X55623866Y5366667D02*
X55528628Y5319048D01*
X55528628Y5319048D02*
X55481009Y5271429D01*
X55481009Y5271429D02*
X55433390Y5176191D01*
D12*
X22246000Y21053232D02*
X21992000Y21053232D01*
X21992000Y20654089D02*
X21992000Y21416089D01*
X21992000Y21416089D02*
X22354857Y21416089D01*
X22572572Y21416089D02*
X23044286Y21416089D01*
X23044286Y21416089D02*
X22790286Y21125803D01*
X22790286Y21125803D02*
X22899143Y21125803D01*
X22899143Y21125803D02*
X22971715Y21089517D01*
X22971715Y21089517D02*
X23008000Y21053232D01*
X23008000Y21053232D02*
X23044286Y20980660D01*
X23044286Y20980660D02*
X23044286Y20799232D01*
X23044286Y20799232D02*
X23008000Y20726660D01*
X23008000Y20726660D02*
X22971715Y20690374D01*
X22971715Y20690374D02*
X22899143Y20654089D01*
X22899143Y20654089D02*
X22681429Y20654089D01*
X22681429Y20654089D02*
X22608857Y20690374D01*
X22608857Y20690374D02*
X22572572Y20726660D01*
D10*
X36928330Y82090181D02*
X36594997Y82566372D01*
X36356902Y82090181D02*
X36356902Y83090181D01*
X36356902Y83090181D02*
X36737854Y83090181D01*
X36737854Y83090181D02*
X36833092Y83042562D01*
X36833092Y83042562D02*
X36880711Y82994943D01*
X36880711Y82994943D02*
X36928330Y82899705D01*
X36928330Y82899705D02*
X36928330Y82756848D01*
X36928330Y82756848D02*
X36880711Y82661610D01*
X36880711Y82661610D02*
X36833092Y82613991D01*
X36833092Y82613991D02*
X36737854Y82566372D01*
X36737854Y82566372D02*
X36356902Y82566372D01*
X37785473Y82756848D02*
X37785473Y82090181D01*
X37547378Y83137800D02*
X37309283Y82423515D01*
X37309283Y82423515D02*
X37928330Y82423515D01*
X26628571Y27119943D02*
X26533333Y27167562D01*
X26533333Y27167562D02*
X26438095Y27262800D01*
X26438095Y27262800D02*
X26295238Y27405658D01*
X26295238Y27405658D02*
X26200000Y27453277D01*
X26200000Y27453277D02*
X26104762Y27453277D01*
X26152381Y27215181D02*
X26057143Y27262800D01*
X26057143Y27262800D02*
X25961905Y27358039D01*
X25961905Y27358039D02*
X25914286Y27548515D01*
X25914286Y27548515D02*
X25914286Y27881848D01*
X25914286Y27881848D02*
X25961905Y28072324D01*
X25961905Y28072324D02*
X26057143Y28167562D01*
X26057143Y28167562D02*
X26152381Y28215181D01*
X26152381Y28215181D02*
X26342857Y28215181D01*
X26342857Y28215181D02*
X26438095Y28167562D01*
X26438095Y28167562D02*
X26533333Y28072324D01*
X26533333Y28072324D02*
X26580952Y27881848D01*
X26580952Y27881848D02*
X26580952Y27548515D01*
X26580952Y27548515D02*
X26533333Y27358039D01*
X26533333Y27358039D02*
X26438095Y27262800D01*
X26438095Y27262800D02*
X26342857Y27215181D01*
X26342857Y27215181D02*
X26152381Y27215181D01*
X27533333Y27215181D02*
X26961905Y27215181D01*
X27247619Y27215181D02*
X27247619Y28215181D01*
X27247619Y28215181D02*
X27152381Y28072324D01*
X27152381Y28072324D02*
X27057143Y27977086D01*
X27057143Y27977086D02*
X26961905Y27929467D01*
X27914286Y28119943D02*
X27961905Y28167562D01*
X27961905Y28167562D02*
X28057143Y28215181D01*
X28057143Y28215181D02*
X28295238Y28215181D01*
X28295238Y28215181D02*
X28390476Y28167562D01*
X28390476Y28167562D02*
X28438095Y28119943D01*
X28438095Y28119943D02*
X28485714Y28024705D01*
X28485714Y28024705D02*
X28485714Y27929467D01*
X28485714Y27929467D02*
X28438095Y27786610D01*
X28438095Y27786610D02*
X27866667Y27215181D01*
X27866667Y27215181D02*
X28485714Y27215181D01*
X28904761Y72449943D02*
X28809523Y72497562D01*
X28809523Y72497562D02*
X28714285Y72592800D01*
X28714285Y72592800D02*
X28571428Y72735658D01*
X28571428Y72735658D02*
X28476190Y72783277D01*
X28476190Y72783277D02*
X28380952Y72783277D01*
X28428571Y72545181D02*
X28333333Y72592800D01*
X28333333Y72592800D02*
X28238095Y72688039D01*
X28238095Y72688039D02*
X28190476Y72878515D01*
X28190476Y72878515D02*
X28190476Y73211848D01*
X28190476Y73211848D02*
X28238095Y73402324D01*
X28238095Y73402324D02*
X28333333Y73497562D01*
X28333333Y73497562D02*
X28428571Y73545181D01*
X28428571Y73545181D02*
X28619047Y73545181D01*
X28619047Y73545181D02*
X28714285Y73497562D01*
X28714285Y73497562D02*
X28809523Y73402324D01*
X28809523Y73402324D02*
X28857142Y73211848D01*
X28857142Y73211848D02*
X28857142Y72878515D01*
X28857142Y72878515D02*
X28809523Y72688039D01*
X28809523Y72688039D02*
X28714285Y72592800D01*
X28714285Y72592800D02*
X28619047Y72545181D01*
X28619047Y72545181D02*
X28428571Y72545181D01*
X29714285Y73211848D02*
X29714285Y72545181D01*
X29476190Y73592800D02*
X29238095Y72878515D01*
X29238095Y72878515D02*
X29857142Y72878515D01*
X53859580Y69357143D02*
X53907200Y69309524D01*
X53907200Y69309524D02*
X53954819Y69166667D01*
X53954819Y69166667D02*
X53954819Y69071429D01*
X53954819Y69071429D02*
X53907200Y68928572D01*
X53907200Y68928572D02*
X53811961Y68833334D01*
X53811961Y68833334D02*
X53716723Y68785715D01*
X53716723Y68785715D02*
X53526247Y68738096D01*
X53526247Y68738096D02*
X53383390Y68738096D01*
X53383390Y68738096D02*
X53192914Y68785715D01*
X53192914Y68785715D02*
X53097676Y68833334D01*
X53097676Y68833334D02*
X53002438Y68928572D01*
X53002438Y68928572D02*
X52954819Y69071429D01*
X52954819Y69071429D02*
X52954819Y69166667D01*
X52954819Y69166667D02*
X53002438Y69309524D01*
X53002438Y69309524D02*
X53050057Y69357143D01*
X52954819Y69690477D02*
X52954819Y70309524D01*
X52954819Y70309524D02*
X53335771Y69976191D01*
X53335771Y69976191D02*
X53335771Y70119048D01*
X53335771Y70119048D02*
X53383390Y70214286D01*
X53383390Y70214286D02*
X53431009Y70261905D01*
X53431009Y70261905D02*
X53526247Y70309524D01*
X53526247Y70309524D02*
X53764342Y70309524D01*
X53764342Y70309524D02*
X53859580Y70261905D01*
X53859580Y70261905D02*
X53907200Y70214286D01*
X53907200Y70214286D02*
X53954819Y70119048D01*
X53954819Y70119048D02*
X53954819Y69833334D01*
X53954819Y69833334D02*
X53907200Y69738096D01*
X53907200Y69738096D02*
X53859580Y69690477D01*
X53050057Y70690477D02*
X53002438Y70738096D01*
X53002438Y70738096D02*
X52954819Y70833334D01*
X52954819Y70833334D02*
X52954819Y71071429D01*
X52954819Y71071429D02*
X53002438Y71166667D01*
X53002438Y71166667D02*
X53050057Y71214286D01*
X53050057Y71214286D02*
X53145295Y71261905D01*
X53145295Y71261905D02*
X53240533Y71261905D01*
X53240533Y71261905D02*
X53383390Y71214286D01*
X53383390Y71214286D02*
X53954819Y70642858D01*
X53954819Y70642858D02*
X53954819Y71261905D01*
X-6370181Y60166667D02*
X-5655896Y60166667D01*
X-5655896Y60166667D02*
X-5513039Y60119048D01*
X-5513039Y60119048D02*
X-5417800Y60023810D01*
X-5417800Y60023810D02*
X-5370181Y59880953D01*
X-5370181Y59880953D02*
X-5370181Y59785715D01*
X-6370181Y61119048D02*
X-6370181Y60642858D01*
X-6370181Y60642858D02*
X-5893991Y60595239D01*
X-5893991Y60595239D02*
X-5941610Y60642858D01*
X-5941610Y60642858D02*
X-5989229Y60738096D01*
X-5989229Y60738096D02*
X-5989229Y60976191D01*
X-5989229Y60976191D02*
X-5941610Y61071429D01*
X-5941610Y61071429D02*
X-5893991Y61119048D01*
X-5893991Y61119048D02*
X-5798753Y61166667D01*
X-5798753Y61166667D02*
X-5560658Y61166667D01*
X-5560658Y61166667D02*
X-5465420Y61119048D01*
X-5465420Y61119048D02*
X-5417800Y61071429D01*
X-5417800Y61071429D02*
X-5370181Y60976191D01*
X-5370181Y60976191D02*
X-5370181Y60738096D01*
X-5370181Y60738096D02*
X-5417800Y60642858D01*
X-5417800Y60642858D02*
X-5465420Y60595239D01*
X27104761Y48119943D02*
X27009523Y48167562D01*
X27009523Y48167562D02*
X26914285Y48262800D01*
X26914285Y48262800D02*
X26771428Y48405658D01*
X26771428Y48405658D02*
X26676190Y48453277D01*
X26676190Y48453277D02*
X26580952Y48453277D01*
X26628571Y48215181D02*
X26533333Y48262800D01*
X26533333Y48262800D02*
X26438095Y48358039D01*
X26438095Y48358039D02*
X26390476Y48548515D01*
X26390476Y48548515D02*
X26390476Y48881848D01*
X26390476Y48881848D02*
X26438095Y49072324D01*
X26438095Y49072324D02*
X26533333Y49167562D01*
X26533333Y49167562D02*
X26628571Y49215181D01*
X26628571Y49215181D02*
X26819047Y49215181D01*
X26819047Y49215181D02*
X26914285Y49167562D01*
X26914285Y49167562D02*
X27009523Y49072324D01*
X27009523Y49072324D02*
X27057142Y48881848D01*
X27057142Y48881848D02*
X27057142Y48548515D01*
X27057142Y48548515D02*
X27009523Y48358039D01*
X27009523Y48358039D02*
X26914285Y48262800D01*
X26914285Y48262800D02*
X26819047Y48215181D01*
X26819047Y48215181D02*
X26628571Y48215181D01*
X27533333Y48215181D02*
X27723809Y48215181D01*
X27723809Y48215181D02*
X27819047Y48262800D01*
X27819047Y48262800D02*
X27866666Y48310420D01*
X27866666Y48310420D02*
X27961904Y48453277D01*
X27961904Y48453277D02*
X28009523Y48643753D01*
X28009523Y48643753D02*
X28009523Y49024705D01*
X28009523Y49024705D02*
X27961904Y49119943D01*
X27961904Y49119943D02*
X27914285Y49167562D01*
X27914285Y49167562D02*
X27819047Y49215181D01*
X27819047Y49215181D02*
X27628571Y49215181D01*
X27628571Y49215181D02*
X27533333Y49167562D01*
X27533333Y49167562D02*
X27485714Y49119943D01*
X27485714Y49119943D02*
X27438095Y49024705D01*
X27438095Y49024705D02*
X27438095Y48786610D01*
X27438095Y48786610D02*
X27485714Y48691372D01*
X27485714Y48691372D02*
X27533333Y48643753D01*
X27533333Y48643753D02*
X27628571Y48596134D01*
X27628571Y48596134D02*
X27819047Y48596134D01*
X27819047Y48596134D02*
X27914285Y48643753D01*
X27914285Y48643753D02*
X27961904Y48691372D01*
X27961904Y48691372D02*
X28009523Y48786610D01*
X98466176Y35884313D02*
X98466176Y35317125D01*
X98466176Y35317125D02*
X98499540Y35250397D01*
X98499540Y35250397D02*
X98532904Y35217033D01*
X98532904Y35217033D02*
X98599632Y35183670D01*
X98599632Y35183670D02*
X98733088Y35183670D01*
X98733088Y35183670D02*
X98799816Y35217033D01*
X98799816Y35217033D02*
X98833180Y35250397D01*
X98833180Y35250397D02*
X98866544Y35317125D01*
X98866544Y35317125D02*
X98866544Y35884313D01*
X99533823Y35884313D02*
X99200183Y35884313D01*
X99200183Y35884313D02*
X99166819Y35550673D01*
X99166819Y35550673D02*
X99200183Y35584037D01*
X99200183Y35584037D02*
X99266911Y35617401D01*
X99266911Y35617401D02*
X99433731Y35617401D01*
X99433731Y35617401D02*
X99500459Y35584037D01*
X99500459Y35584037D02*
X99533823Y35550673D01*
X99533823Y35550673D02*
X99567187Y35483945D01*
X99567187Y35483945D02*
X99567187Y35317125D01*
X99567187Y35317125D02*
X99533823Y35250397D01*
X99533823Y35250397D02*
X99500459Y35217033D01*
X99500459Y35217033D02*
X99433731Y35183670D01*
X99433731Y35183670D02*
X99266911Y35183670D01*
X99266911Y35183670D02*
X99200183Y35217033D01*
X99200183Y35217033D02*
X99166819Y35250397D01*
X58954819Y80620834D02*
X58954819Y80144644D01*
X58954819Y80144644D02*
X57954819Y80144644D01*
X58050057Y80906549D02*
X58002438Y80954168D01*
X58002438Y80954168D02*
X57954819Y81049406D01*
X57954819Y81049406D02*
X57954819Y81287501D01*
X57954819Y81287501D02*
X58002438Y81382739D01*
X58002438Y81382739D02*
X58050057Y81430358D01*
X58050057Y81430358D02*
X58145295Y81477977D01*
X58145295Y81477977D02*
X58240533Y81477977D01*
X58240533Y81477977D02*
X58383390Y81430358D01*
X58383390Y81430358D02*
X58954819Y80858930D01*
X58954819Y80858930D02*
X58954819Y81477977D01*
X105279819Y74666667D02*
X105994104Y74666667D01*
X105994104Y74666667D02*
X106136961Y74619048D01*
X106136961Y74619048D02*
X106232200Y74523810D01*
X106232200Y74523810D02*
X106279819Y74380953D01*
X106279819Y74380953D02*
X106279819Y74285715D01*
X105279819Y75047620D02*
X105279819Y75666667D01*
X105279819Y75666667D02*
X105660771Y75333334D01*
X105660771Y75333334D02*
X105660771Y75476191D01*
X105660771Y75476191D02*
X105708390Y75571429D01*
X105708390Y75571429D02*
X105756009Y75619048D01*
X105756009Y75619048D02*
X105851247Y75666667D01*
X105851247Y75666667D02*
X106089342Y75666667D01*
X106089342Y75666667D02*
X106184580Y75619048D01*
X106184580Y75619048D02*
X106232200Y75571429D01*
X106232200Y75571429D02*
X106279819Y75476191D01*
X106279819Y75476191D02*
X106279819Y75190477D01*
X106279819Y75190477D02*
X106232200Y75095239D01*
X106232200Y75095239D02*
X106184580Y75047620D01*
D11*
X19040092Y73263015D02*
X18766759Y73653491D01*
X18571521Y73263015D02*
X18571521Y74083015D01*
X18571521Y74083015D02*
X18883902Y74083015D01*
X18883902Y74083015D02*
X18961997Y74043967D01*
X18961997Y74043967D02*
X19001044Y74004920D01*
X19001044Y74004920D02*
X19040092Y73926824D01*
X19040092Y73926824D02*
X19040092Y73809682D01*
X19040092Y73809682D02*
X19001044Y73731586D01*
X19001044Y73731586D02*
X18961997Y73692539D01*
X18961997Y73692539D02*
X18883902Y73653491D01*
X18883902Y73653491D02*
X18571521Y73653491D01*
X19821044Y73263015D02*
X19352473Y73263015D01*
X19586759Y73263015D02*
X19586759Y74083015D01*
X19586759Y74083015D02*
X19508663Y73965872D01*
X19508663Y73965872D02*
X19430568Y73887777D01*
X19430568Y73887777D02*
X19352473Y73848729D01*
X20094377Y74083015D02*
X20601996Y74083015D01*
X20601996Y74083015D02*
X20328663Y73770634D01*
X20328663Y73770634D02*
X20445806Y73770634D01*
X20445806Y73770634D02*
X20523901Y73731586D01*
X20523901Y73731586D02*
X20562949Y73692539D01*
X20562949Y73692539D02*
X20601996Y73614443D01*
X20601996Y73614443D02*
X20601996Y73419205D01*
X20601996Y73419205D02*
X20562949Y73341110D01*
X20562949Y73341110D02*
X20523901Y73302062D01*
X20523901Y73302062D02*
X20445806Y73263015D01*
X20445806Y73263015D02*
X20211520Y73263015D01*
X20211520Y73263015D02*
X20133425Y73302062D01*
X20133425Y73302062D02*
X20094377Y73341110D01*
D12*
X81246000Y81553232D02*
X80992000Y81553232D01*
X80992000Y81154089D02*
X80992000Y81916089D01*
X80992000Y81916089D02*
X81354857Y81916089D01*
X82044286Y81154089D02*
X81608857Y81154089D01*
X81826572Y81154089D02*
X81826572Y81916089D01*
X81826572Y81916089D02*
X81754000Y81807232D01*
X81754000Y81807232D02*
X81681429Y81734660D01*
X81681429Y81734660D02*
X81608857Y81698374D01*
D10*
X61761905Y4295181D02*
X61761905Y5295181D01*
X61761905Y5295181D02*
X62142857Y5295181D01*
X62142857Y5295181D02*
X62238095Y5247562D01*
X62238095Y5247562D02*
X62285714Y5199943D01*
X62285714Y5199943D02*
X62333333Y5104705D01*
X62333333Y5104705D02*
X62333333Y4961848D01*
X62333333Y4961848D02*
X62285714Y4866610D01*
X62285714Y4866610D02*
X62238095Y4818991D01*
X62238095Y4818991D02*
X62142857Y4771372D01*
X62142857Y4771372D02*
X61761905Y4771372D01*
X62666667Y5295181D02*
X63285714Y5295181D01*
X63285714Y5295181D02*
X62952381Y4914229D01*
X62952381Y4914229D02*
X63095238Y4914229D01*
X63095238Y4914229D02*
X63190476Y4866610D01*
X63190476Y4866610D02*
X63238095Y4818991D01*
X63238095Y4818991D02*
X63285714Y4723753D01*
X63285714Y4723753D02*
X63285714Y4485658D01*
X63285714Y4485658D02*
X63238095Y4390420D01*
X63238095Y4390420D02*
X63190476Y4342800D01*
X63190476Y4342800D02*
X63095238Y4295181D01*
X63095238Y4295181D02*
X62809524Y4295181D01*
X62809524Y4295181D02*
X62714286Y4342800D01*
X62714286Y4342800D02*
X62666667Y4390420D01*
D11*
X19040092Y80763015D02*
X18766759Y81153491D01*
X18571521Y80763015D02*
X18571521Y81583015D01*
X18571521Y81583015D02*
X18883902Y81583015D01*
X18883902Y81583015D02*
X18961997Y81543967D01*
X18961997Y81543967D02*
X19001044Y81504920D01*
X19001044Y81504920D02*
X19040092Y81426824D01*
X19040092Y81426824D02*
X19040092Y81309682D01*
X19040092Y81309682D02*
X19001044Y81231586D01*
X19001044Y81231586D02*
X18961997Y81192539D01*
X18961997Y81192539D02*
X18883902Y81153491D01*
X18883902Y81153491D02*
X18571521Y81153491D01*
X19821044Y80763015D02*
X19352473Y80763015D01*
X19586759Y80763015D02*
X19586759Y81583015D01*
X19586759Y81583015D02*
X19508663Y81465872D01*
X19508663Y81465872D02*
X19430568Y81387777D01*
X19430568Y81387777D02*
X19352473Y81348729D01*
X20601996Y80763015D02*
X20133425Y80763015D01*
X20367711Y80763015D02*
X20367711Y81583015D01*
X20367711Y81583015D02*
X20289615Y81465872D01*
X20289615Y81465872D02*
X20211520Y81387777D01*
X20211520Y81387777D02*
X20133425Y81348729D01*
X17370508Y75894763D02*
X16550508Y75894763D01*
X16550508Y75894763D02*
X16550508Y76090001D01*
X16550508Y76090001D02*
X16589556Y76207144D01*
X16589556Y76207144D02*
X16667651Y76285239D01*
X16667651Y76285239D02*
X16745746Y76324286D01*
X16745746Y76324286D02*
X16901937Y76363334D01*
X16901937Y76363334D02*
X17019080Y76363334D01*
X17019080Y76363334D02*
X17175270Y76324286D01*
X17175270Y76324286D02*
X17253365Y76285239D01*
X17253365Y76285239D02*
X17331461Y76207144D01*
X17331461Y76207144D02*
X17370508Y76090001D01*
X17370508Y76090001D02*
X17370508Y75894763D01*
X16550508Y76636667D02*
X16550508Y77144286D01*
X16550508Y77144286D02*
X16862889Y76870953D01*
X16862889Y76870953D02*
X16862889Y76988096D01*
X16862889Y76988096D02*
X16901937Y77066191D01*
X16901937Y77066191D02*
X16940984Y77105239D01*
X16940984Y77105239D02*
X17019080Y77144286D01*
X17019080Y77144286D02*
X17214318Y77144286D01*
X17214318Y77144286D02*
X17292413Y77105239D01*
X17292413Y77105239D02*
X17331461Y77066191D01*
X17331461Y77066191D02*
X17370508Y76988096D01*
X17370508Y76988096D02*
X17370508Y76753810D01*
X17370508Y76753810D02*
X17331461Y76675715D01*
X17331461Y76675715D02*
X17292413Y76636667D01*
D10*
X4530213Y22168198D02*
X4530213Y21358675D01*
X4530213Y21358675D02*
X4577832Y21263437D01*
X4577832Y21263437D02*
X4625451Y21215817D01*
X4625451Y21215817D02*
X4720689Y21168198D01*
X4720689Y21168198D02*
X4911165Y21168198D01*
X4911165Y21168198D02*
X5006403Y21215817D01*
X5006403Y21215817D02*
X5054022Y21263437D01*
X5054022Y21263437D02*
X5101641Y21358675D01*
X5101641Y21358675D02*
X5101641Y22168198D01*
X6101641Y21168198D02*
X5530213Y21168198D01*
X5815927Y21168198D02*
X5815927Y22168198D01*
X5815927Y22168198D02*
X5720689Y22025341D01*
X5720689Y22025341D02*
X5625451Y21930103D01*
X5625451Y21930103D02*
X5530213Y21882484D01*
X11421439Y12782141D02*
X11421439Y11972618D01*
X11421439Y11972618D02*
X11469058Y11877380D01*
X11469058Y11877380D02*
X11516677Y11829760D01*
X11516677Y11829760D02*
X11611915Y11782141D01*
X11611915Y11782141D02*
X11802391Y11782141D01*
X11802391Y11782141D02*
X11897629Y11829760D01*
X11897629Y11829760D02*
X11945248Y11877380D01*
X11945248Y11877380D02*
X11992867Y11972618D01*
X11992867Y11972618D02*
X11992867Y12782141D01*
X12421439Y12686903D02*
X12469058Y12734522D01*
X12469058Y12734522D02*
X12564296Y12782141D01*
X12564296Y12782141D02*
X12802391Y12782141D01*
X12802391Y12782141D02*
X12897629Y12734522D01*
X12897629Y12734522D02*
X12945248Y12686903D01*
X12945248Y12686903D02*
X12992867Y12591665D01*
X12992867Y12591665D02*
X12992867Y12496427D01*
X12992867Y12496427D02*
X12945248Y12353570D01*
X12945248Y12353570D02*
X12373820Y11782141D01*
X12373820Y11782141D02*
X12992867Y11782141D01*
X60359580Y79644643D02*
X60407200Y79597024D01*
X60407200Y79597024D02*
X60454819Y79454167D01*
X60454819Y79454167D02*
X60454819Y79358929D01*
X60454819Y79358929D02*
X60407200Y79216072D01*
X60407200Y79216072D02*
X60311961Y79120834D01*
X60311961Y79120834D02*
X60216723Y79073215D01*
X60216723Y79073215D02*
X60026247Y79025596D01*
X60026247Y79025596D02*
X59883390Y79025596D01*
X59883390Y79025596D02*
X59692914Y79073215D01*
X59692914Y79073215D02*
X59597676Y79120834D01*
X59597676Y79120834D02*
X59502438Y79216072D01*
X59502438Y79216072D02*
X59454819Y79358929D01*
X59454819Y79358929D02*
X59454819Y79454167D01*
X59454819Y79454167D02*
X59502438Y79597024D01*
X59502438Y79597024D02*
X59550057Y79644643D01*
X59550057Y80025596D02*
X59502438Y80073215D01*
X59502438Y80073215D02*
X59454819Y80168453D01*
X59454819Y80168453D02*
X59454819Y80406548D01*
X59454819Y80406548D02*
X59502438Y80501786D01*
X59502438Y80501786D02*
X59550057Y80549405D01*
X59550057Y80549405D02*
X59645295Y80597024D01*
X59645295Y80597024D02*
X59740533Y80597024D01*
X59740533Y80597024D02*
X59883390Y80549405D01*
X59883390Y80549405D02*
X60454819Y79977977D01*
X60454819Y79977977D02*
X60454819Y80597024D01*
X59883390Y81168453D02*
X59835771Y81073215D01*
X59835771Y81073215D02*
X59788152Y81025596D01*
X59788152Y81025596D02*
X59692914Y80977977D01*
X59692914Y80977977D02*
X59645295Y80977977D01*
X59645295Y80977977D02*
X59550057Y81025596D01*
X59550057Y81025596D02*
X59502438Y81073215D01*
X59502438Y81073215D02*
X59454819Y81168453D01*
X59454819Y81168453D02*
X59454819Y81358929D01*
X59454819Y81358929D02*
X59502438Y81454167D01*
X59502438Y81454167D02*
X59550057Y81501786D01*
X59550057Y81501786D02*
X59645295Y81549405D01*
X59645295Y81549405D02*
X59692914Y81549405D01*
X59692914Y81549405D02*
X59788152Y81501786D01*
X59788152Y81501786D02*
X59835771Y81454167D01*
X59835771Y81454167D02*
X59883390Y81358929D01*
X59883390Y81358929D02*
X59883390Y81168453D01*
X59883390Y81168453D02*
X59931009Y81073215D01*
X59931009Y81073215D02*
X59978628Y81025596D01*
X59978628Y81025596D02*
X60073866Y80977977D01*
X60073866Y80977977D02*
X60264342Y80977977D01*
X60264342Y80977977D02*
X60359580Y81025596D01*
X60359580Y81025596D02*
X60407200Y81073215D01*
X60407200Y81073215D02*
X60454819Y81168453D01*
X60454819Y81168453D02*
X60454819Y81358929D01*
X60454819Y81358929D02*
X60407200Y81454167D01*
X60407200Y81454167D02*
X60359580Y81501786D01*
X60359580Y81501786D02*
X60264342Y81549405D01*
X60264342Y81549405D02*
X60073866Y81549405D01*
X60073866Y81549405D02*
X59978628Y81501786D01*
X59978628Y81501786D02*
X59931009Y81454167D01*
X59931009Y81454167D02*
X59883390Y81358929D01*
X-6370181Y29666667D02*
X-5655896Y29666667D01*
X-5655896Y29666667D02*
X-5513039Y29619048D01*
X-5513039Y29619048D02*
X-5417800Y29523810D01*
X-5417800Y29523810D02*
X-5370181Y29380953D01*
X-5370181Y29380953D02*
X-5370181Y29285715D01*
X-6036848Y30571429D02*
X-5370181Y30571429D01*
X-6417800Y30333334D02*
X-5703515Y30095239D01*
X-5703515Y30095239D02*
X-5703515Y30714286D01*
X56954819Y80620834D02*
X56954819Y80144644D01*
X56954819Y80144644D02*
X55954819Y80144644D01*
X56954819Y81477977D02*
X56954819Y80906549D01*
X56954819Y81192263D02*
X55954819Y81192263D01*
X55954819Y81192263D02*
X56097676Y81097025D01*
X56097676Y81097025D02*
X56192914Y81001787D01*
X56192914Y81001787D02*
X56240533Y80906549D01*
X26628571Y34119943D02*
X26533333Y34167562D01*
X26533333Y34167562D02*
X26438095Y34262800D01*
X26438095Y34262800D02*
X26295238Y34405658D01*
X26295238Y34405658D02*
X26200000Y34453277D01*
X26200000Y34453277D02*
X26104762Y34453277D01*
X26152381Y34215181D02*
X26057143Y34262800D01*
X26057143Y34262800D02*
X25961905Y34358039D01*
X25961905Y34358039D02*
X25914286Y34548515D01*
X25914286Y34548515D02*
X25914286Y34881848D01*
X25914286Y34881848D02*
X25961905Y35072324D01*
X25961905Y35072324D02*
X26057143Y35167562D01*
X26057143Y35167562D02*
X26152381Y35215181D01*
X26152381Y35215181D02*
X26342857Y35215181D01*
X26342857Y35215181D02*
X26438095Y35167562D01*
X26438095Y35167562D02*
X26533333Y35072324D01*
X26533333Y35072324D02*
X26580952Y34881848D01*
X26580952Y34881848D02*
X26580952Y34548515D01*
X26580952Y34548515D02*
X26533333Y34358039D01*
X26533333Y34358039D02*
X26438095Y34262800D01*
X26438095Y34262800D02*
X26342857Y34215181D01*
X26342857Y34215181D02*
X26152381Y34215181D01*
X27533333Y34215181D02*
X26961905Y34215181D01*
X27247619Y34215181D02*
X27247619Y35215181D01*
X27247619Y35215181D02*
X27152381Y35072324D01*
X27152381Y35072324D02*
X27057143Y34977086D01*
X27057143Y34977086D02*
X26961905Y34929467D01*
X28485714Y34215181D02*
X27914286Y34215181D01*
X28200000Y34215181D02*
X28200000Y35215181D01*
X28200000Y35215181D02*
X28104762Y35072324D01*
X28104762Y35072324D02*
X28009524Y34977086D01*
X28009524Y34977086D02*
X27914286Y34929467D01*
X49666666Y10260181D02*
X49666666Y9545896D01*
X49666666Y9545896D02*
X49619047Y9403039D01*
X49619047Y9403039D02*
X49523809Y9307800D01*
X49523809Y9307800D02*
X49380952Y9260181D01*
X49380952Y9260181D02*
X49285714Y9260181D01*
X50190476Y9260181D02*
X50380952Y9260181D01*
X50380952Y9260181D02*
X50476190Y9307800D01*
X50476190Y9307800D02*
X50523809Y9355420D01*
X50523809Y9355420D02*
X50619047Y9498277D01*
X50619047Y9498277D02*
X50666666Y9688753D01*
X50666666Y9688753D02*
X50666666Y10069705D01*
X50666666Y10069705D02*
X50619047Y10164943D01*
X50619047Y10164943D02*
X50571428Y10212562D01*
X50571428Y10212562D02*
X50476190Y10260181D01*
X50476190Y10260181D02*
X50285714Y10260181D01*
X50285714Y10260181D02*
X50190476Y10212562D01*
X50190476Y10212562D02*
X50142857Y10164943D01*
X50142857Y10164943D02*
X50095238Y10069705D01*
X50095238Y10069705D02*
X50095238Y9831610D01*
X50095238Y9831610D02*
X50142857Y9736372D01*
X50142857Y9736372D02*
X50190476Y9688753D01*
X50190476Y9688753D02*
X50285714Y9641134D01*
X50285714Y9641134D02*
X50476190Y9641134D01*
X50476190Y9641134D02*
X50571428Y9688753D01*
X50571428Y9688753D02*
X50619047Y9736372D01*
X50619047Y9736372D02*
X50666666Y9831610D01*
D12*
X16946768Y22524025D02*
X16946768Y22270025D01*
X17345911Y22270025D02*
X16583911Y22270025D01*
X16583911Y22270025D02*
X16583911Y22632882D01*
X16656483Y22886882D02*
X16620197Y22923168D01*
X16620197Y22923168D02*
X16583911Y22995739D01*
X16583911Y22995739D02*
X16583911Y23177168D01*
X16583911Y23177168D02*
X16620197Y23249739D01*
X16620197Y23249739D02*
X16656483Y23286025D01*
X16656483Y23286025D02*
X16729054Y23322311D01*
X16729054Y23322311D02*
X16801626Y23322311D01*
X16801626Y23322311D02*
X16910483Y23286025D01*
X16910483Y23286025D02*
X17345911Y22850597D01*
X17345911Y22850597D02*
X17345911Y23322311D01*
D11*
X17370508Y68394763D02*
X16550508Y68394763D01*
X16550508Y68394763D02*
X16550508Y68590001D01*
X16550508Y68590001D02*
X16589556Y68707144D01*
X16589556Y68707144D02*
X16667651Y68785239D01*
X16667651Y68785239D02*
X16745746Y68824286D01*
X16745746Y68824286D02*
X16901937Y68863334D01*
X16901937Y68863334D02*
X17019080Y68863334D01*
X17019080Y68863334D02*
X17175270Y68824286D01*
X17175270Y68824286D02*
X17253365Y68785239D01*
X17253365Y68785239D02*
X17331461Y68707144D01*
X17331461Y68707144D02*
X17370508Y68590001D01*
X17370508Y68590001D02*
X17370508Y68394763D01*
X16550508Y69605239D02*
X16550508Y69214763D01*
X16550508Y69214763D02*
X16940984Y69175715D01*
X16940984Y69175715D02*
X16901937Y69214763D01*
X16901937Y69214763D02*
X16862889Y69292858D01*
X16862889Y69292858D02*
X16862889Y69488096D01*
X16862889Y69488096D02*
X16901937Y69566191D01*
X16901937Y69566191D02*
X16940984Y69605239D01*
X16940984Y69605239D02*
X17019080Y69644286D01*
X17019080Y69644286D02*
X17214318Y69644286D01*
X17214318Y69644286D02*
X17292413Y69605239D01*
X17292413Y69605239D02*
X17331461Y69566191D01*
X17331461Y69566191D02*
X17370508Y69488096D01*
X17370508Y69488096D02*
X17370508Y69292858D01*
X17370508Y69292858D02*
X17331461Y69214763D01*
X17331461Y69214763D02*
X17292413Y69175715D01*
D10*
X83666666Y40045181D02*
X83666666Y39330896D01*
X83666666Y39330896D02*
X83619047Y39188039D01*
X83619047Y39188039D02*
X83523809Y39092800D01*
X83523809Y39092800D02*
X83380952Y39045181D01*
X83380952Y39045181D02*
X83285714Y39045181D01*
X84571428Y40045181D02*
X84380952Y40045181D01*
X84380952Y40045181D02*
X84285714Y39997562D01*
X84285714Y39997562D02*
X84238095Y39949943D01*
X84238095Y39949943D02*
X84142857Y39807086D01*
X84142857Y39807086D02*
X84095238Y39616610D01*
X84095238Y39616610D02*
X84095238Y39235658D01*
X84095238Y39235658D02*
X84142857Y39140420D01*
X84142857Y39140420D02*
X84190476Y39092800D01*
X84190476Y39092800D02*
X84285714Y39045181D01*
X84285714Y39045181D02*
X84476190Y39045181D01*
X84476190Y39045181D02*
X84571428Y39092800D01*
X84571428Y39092800D02*
X84619047Y39140420D01*
X84619047Y39140420D02*
X84666666Y39235658D01*
X84666666Y39235658D02*
X84666666Y39473753D01*
X84666666Y39473753D02*
X84619047Y39568991D01*
X84619047Y39568991D02*
X84571428Y39616610D01*
X84571428Y39616610D02*
X84476190Y39664229D01*
X84476190Y39664229D02*
X84285714Y39664229D01*
X84285714Y39664229D02*
X84190476Y39616610D01*
X84190476Y39616610D02*
X84142857Y39568991D01*
X84142857Y39568991D02*
X84095238Y39473753D01*
X42761905Y6295181D02*
X42761905Y7295181D01*
X42761905Y7295181D02*
X43142857Y7295181D01*
X43142857Y7295181D02*
X43238095Y7247562D01*
X43238095Y7247562D02*
X43285714Y7199943D01*
X43285714Y7199943D02*
X43333333Y7104705D01*
X43333333Y7104705D02*
X43333333Y6961848D01*
X43333333Y6961848D02*
X43285714Y6866610D01*
X43285714Y6866610D02*
X43238095Y6818991D01*
X43238095Y6818991D02*
X43142857Y6771372D01*
X43142857Y6771372D02*
X42761905Y6771372D01*
X44190476Y7295181D02*
X44000000Y7295181D01*
X44000000Y7295181D02*
X43904762Y7247562D01*
X43904762Y7247562D02*
X43857143Y7199943D01*
X43857143Y7199943D02*
X43761905Y7057086D01*
X43761905Y7057086D02*
X43714286Y6866610D01*
X43714286Y6866610D02*
X43714286Y6485658D01*
X43714286Y6485658D02*
X43761905Y6390420D01*
X43761905Y6390420D02*
X43809524Y6342800D01*
X43809524Y6342800D02*
X43904762Y6295181D01*
X43904762Y6295181D02*
X44095238Y6295181D01*
X44095238Y6295181D02*
X44190476Y6342800D01*
X44190476Y6342800D02*
X44238095Y6390420D01*
X44238095Y6390420D02*
X44285714Y6485658D01*
X44285714Y6485658D02*
X44285714Y6723753D01*
X44285714Y6723753D02*
X44238095Y6818991D01*
X44238095Y6818991D02*
X44190476Y6866610D01*
X44190476Y6866610D02*
X44095238Y6914229D01*
X44095238Y6914229D02*
X43904762Y6914229D01*
X43904762Y6914229D02*
X43809524Y6866610D01*
X43809524Y6866610D02*
X43761905Y6818991D01*
X43761905Y6818991D02*
X43714286Y6723753D01*
D11*
X56758781Y60920329D02*
X56368305Y60646996D01*
X56758781Y60451758D02*
X55938781Y60451758D01*
X55938781Y60451758D02*
X55938781Y60764139D01*
X55938781Y60764139D02*
X55977829Y60842234D01*
X55977829Y60842234D02*
X56016876Y60881281D01*
X56016876Y60881281D02*
X56094972Y60920329D01*
X56094972Y60920329D02*
X56212114Y60920329D01*
X56212114Y60920329D02*
X56290210Y60881281D01*
X56290210Y60881281D02*
X56329257Y60842234D01*
X56329257Y60842234D02*
X56368305Y60764139D01*
X56368305Y60764139D02*
X56368305Y60451758D01*
X55938781Y61662234D02*
X55938781Y61271758D01*
X55938781Y61271758D02*
X56329257Y61232710D01*
X56329257Y61232710D02*
X56290210Y61271758D01*
X56290210Y61271758D02*
X56251162Y61349853D01*
X56251162Y61349853D02*
X56251162Y61545091D01*
X56251162Y61545091D02*
X56290210Y61623186D01*
X56290210Y61623186D02*
X56329257Y61662234D01*
X56329257Y61662234D02*
X56407353Y61701281D01*
X56407353Y61701281D02*
X56602591Y61701281D01*
X56602591Y61701281D02*
X56680686Y61662234D01*
X56680686Y61662234D02*
X56719734Y61623186D01*
X56719734Y61623186D02*
X56758781Y61545091D01*
X56758781Y61545091D02*
X56758781Y61349853D01*
X56758781Y61349853D02*
X56719734Y61271758D01*
X56719734Y61271758D02*
X56680686Y61232710D01*
X80890808Y72275652D02*
X80500332Y72002319D01*
X80890808Y71807081D02*
X80070808Y71807081D01*
X80070808Y71807081D02*
X80070808Y72119462D01*
X80070808Y72119462D02*
X80109856Y72197557D01*
X80109856Y72197557D02*
X80148903Y72236604D01*
X80148903Y72236604D02*
X80226999Y72275652D01*
X80226999Y72275652D02*
X80344141Y72275652D01*
X80344141Y72275652D02*
X80422237Y72236604D01*
X80422237Y72236604D02*
X80461284Y72197557D01*
X80461284Y72197557D02*
X80500332Y72119462D01*
X80500332Y72119462D02*
X80500332Y71807081D01*
X80070808Y72978509D02*
X80070808Y72822319D01*
X80070808Y72822319D02*
X80109856Y72744223D01*
X80109856Y72744223D02*
X80148903Y72705176D01*
X80148903Y72705176D02*
X80266046Y72627081D01*
X80266046Y72627081D02*
X80422237Y72588033D01*
X80422237Y72588033D02*
X80734618Y72588033D01*
X80734618Y72588033D02*
X80812713Y72627081D01*
X80812713Y72627081D02*
X80851761Y72666128D01*
X80851761Y72666128D02*
X80890808Y72744223D01*
X80890808Y72744223D02*
X80890808Y72900414D01*
X80890808Y72900414D02*
X80851761Y72978509D01*
X80851761Y72978509D02*
X80812713Y73017557D01*
X80812713Y73017557D02*
X80734618Y73056604D01*
X80734618Y73056604D02*
X80539380Y73056604D01*
X80539380Y73056604D02*
X80461284Y73017557D01*
X80461284Y73017557D02*
X80422237Y72978509D01*
X80422237Y72978509D02*
X80383189Y72900414D01*
X80383189Y72900414D02*
X80383189Y72744223D01*
X80383189Y72744223D02*
X80422237Y72666128D01*
X80422237Y72666128D02*
X80461284Y72627081D01*
X80461284Y72627081D02*
X80539380Y72588033D01*
D10*
X30550057Y27928572D02*
X30502438Y27833334D01*
X30502438Y27833334D02*
X30407200Y27738096D01*
X30407200Y27738096D02*
X30264342Y27595239D01*
X30264342Y27595239D02*
X30216723Y27500001D01*
X30216723Y27500001D02*
X30216723Y27404763D01*
X30454819Y27452382D02*
X30407200Y27357144D01*
X30407200Y27357144D02*
X30311961Y27261906D01*
X30311961Y27261906D02*
X30121485Y27214287D01*
X30121485Y27214287D02*
X29788152Y27214287D01*
X29788152Y27214287D02*
X29597676Y27261906D01*
X29597676Y27261906D02*
X29502438Y27357144D01*
X29502438Y27357144D02*
X29454819Y27452382D01*
X29454819Y27452382D02*
X29454819Y27642858D01*
X29454819Y27642858D02*
X29502438Y27738096D01*
X29502438Y27738096D02*
X29597676Y27833334D01*
X29597676Y27833334D02*
X29788152Y27880953D01*
X29788152Y27880953D02*
X30121485Y27880953D01*
X30121485Y27880953D02*
X30311961Y27833334D01*
X30311961Y27833334D02*
X30407200Y27738096D01*
X30407200Y27738096D02*
X30454819Y27642858D01*
X30454819Y27642858D02*
X30454819Y27452382D01*
X30454819Y28833334D02*
X30454819Y28261906D01*
X30454819Y28547620D02*
X29454819Y28547620D01*
X29454819Y28547620D02*
X29597676Y28452382D01*
X29597676Y28452382D02*
X29692914Y28357144D01*
X29692914Y28357144D02*
X29740533Y28261906D01*
X29454819Y29166668D02*
X29454819Y29833334D01*
X29454819Y29833334D02*
X30454819Y29404763D01*
D13*
X69862411Y55673898D02*
X71096125Y55673898D01*
X71096125Y55673898D02*
X71241268Y55746469D01*
X71241268Y55746469D02*
X71313840Y55819040D01*
X71313840Y55819040D02*
X71386411Y55964183D01*
X71386411Y55964183D02*
X71386411Y56254469D01*
X71386411Y56254469D02*
X71313840Y56399612D01*
X71313840Y56399612D02*
X71241268Y56472183D01*
X71241268Y56472183D02*
X71096125Y56544755D01*
X71096125Y56544755D02*
X69862411Y56544755D01*
X69862411Y57125326D02*
X69862411Y58068754D01*
X69862411Y58068754D02*
X70442982Y57560754D01*
X70442982Y57560754D02*
X70442982Y57778469D01*
X70442982Y57778469D02*
X70515554Y57923611D01*
X70515554Y57923611D02*
X70588125Y57996183D01*
X70588125Y57996183D02*
X70733268Y58068754D01*
X70733268Y58068754D02*
X71096125Y58068754D01*
X71096125Y58068754D02*
X71241268Y57996183D01*
X71241268Y57996183D02*
X71313840Y57923611D01*
X71313840Y57923611D02*
X71386411Y57778469D01*
X71386411Y57778469D02*
X71386411Y57343040D01*
X71386411Y57343040D02*
X71313840Y57197897D01*
X71313840Y57197897D02*
X71241268Y57125326D01*
X60902431Y50954000D02*
X59378431Y50954000D01*
X59378431Y50954000D02*
X60467002Y51462000D01*
X60467002Y51462000D02*
X59378431Y51970000D01*
X59378431Y51970000D02*
X60902431Y51970000D01*
X60902431Y52695714D02*
X59378431Y52695714D01*
X59378431Y52695714D02*
X59378431Y53276285D01*
X59378431Y53276285D02*
X59451002Y53421428D01*
X59451002Y53421428D02*
X59523574Y53493999D01*
X59523574Y53493999D02*
X59668717Y53566571D01*
X59668717Y53566571D02*
X59886431Y53566571D01*
X59886431Y53566571D02*
X60031574Y53493999D01*
X60031574Y53493999D02*
X60104145Y53421428D01*
X60104145Y53421428D02*
X60176717Y53276285D01*
X60176717Y53276285D02*
X60176717Y52695714D01*
X59378431Y54074571D02*
X60902431Y55090571D01*
X59378431Y55090571D02*
X60902431Y54074571D01*
X59886431Y56324285D02*
X60902431Y56324285D01*
X59305860Y55961428D02*
X60394431Y55598571D01*
X60394431Y55598571D02*
X60394431Y56542000D01*
X59305860Y58211143D02*
X61265288Y56904857D01*
X60902431Y58719143D02*
X59378431Y58719143D01*
X59378431Y58719143D02*
X60467002Y59227143D01*
X60467002Y59227143D02*
X59378431Y59735143D01*
X59378431Y59735143D02*
X60902431Y59735143D01*
X60902431Y60460857D02*
X59378431Y60460857D01*
X59378431Y60460857D02*
X59378431Y61041428D01*
X59378431Y61041428D02*
X59451002Y61186571D01*
X59451002Y61186571D02*
X59523574Y61259142D01*
X59523574Y61259142D02*
X59668717Y61331714D01*
X59668717Y61331714D02*
X59886431Y61331714D01*
X59886431Y61331714D02*
X60031574Y61259142D01*
X60031574Y61259142D02*
X60104145Y61186571D01*
X60104145Y61186571D02*
X60176717Y61041428D01*
X60176717Y61041428D02*
X60176717Y60460857D01*
X59378431Y61839714D02*
X60902431Y62855714D01*
X59378431Y62855714D02*
X60902431Y61839714D01*
X60902431Y63436286D02*
X59378431Y63436286D01*
X60104145Y63436286D02*
X60104145Y64307143D01*
X60902431Y64307143D02*
X59378431Y64307143D01*
X59378431Y65685999D02*
X59378431Y65395714D01*
X59378431Y65395714D02*
X59451002Y65250571D01*
X59451002Y65250571D02*
X59523574Y65177999D01*
X59523574Y65177999D02*
X59741288Y65032857D01*
X59741288Y65032857D02*
X60031574Y64960285D01*
X60031574Y64960285D02*
X60612145Y64960285D01*
X60612145Y64960285D02*
X60757288Y65032857D01*
X60757288Y65032857D02*
X60829860Y65105428D01*
X60829860Y65105428D02*
X60902431Y65250571D01*
X60902431Y65250571D02*
X60902431Y65540857D01*
X60902431Y65540857D02*
X60829860Y65685999D01*
X60829860Y65685999D02*
X60757288Y65758571D01*
X60757288Y65758571D02*
X60612145Y65831142D01*
X60612145Y65831142D02*
X60249288Y65831142D01*
X60249288Y65831142D02*
X60104145Y65758571D01*
X60104145Y65758571D02*
X60031574Y65685999D01*
X60031574Y65685999D02*
X59959002Y65540857D01*
X59959002Y65540857D02*
X59959002Y65250571D01*
X59959002Y65250571D02*
X60031574Y65105428D01*
X60031574Y65105428D02*
X60104145Y65032857D01*
X60104145Y65032857D02*
X60249288Y64960285D01*
X59886431Y67137428D02*
X60902431Y67137428D01*
X59305860Y66774571D02*
X60394431Y66411714D01*
X60394431Y66411714D02*
X60394431Y67355143D01*
X59378431Y68226000D02*
X59378431Y68371143D01*
X59378431Y68371143D02*
X59451002Y68516286D01*
X59451002Y68516286D02*
X59523574Y68588857D01*
X59523574Y68588857D02*
X59668717Y68661429D01*
X59668717Y68661429D02*
X59959002Y68734000D01*
X59959002Y68734000D02*
X60321860Y68734000D01*
X60321860Y68734000D02*
X60612145Y68661429D01*
X60612145Y68661429D02*
X60757288Y68588857D01*
X60757288Y68588857D02*
X60829860Y68516286D01*
X60829860Y68516286D02*
X60902431Y68371143D01*
X60902431Y68371143D02*
X60902431Y68226000D01*
X60902431Y68226000D02*
X60829860Y68080857D01*
X60829860Y68080857D02*
X60757288Y68008286D01*
X60757288Y68008286D02*
X60612145Y67935715D01*
X60612145Y67935715D02*
X60321860Y67863143D01*
X60321860Y67863143D02*
X59959002Y67863143D01*
X59959002Y67863143D02*
X59668717Y67935715D01*
X59668717Y67935715D02*
X59523574Y68008286D01*
X59523574Y68008286D02*
X59451002Y68080857D01*
X59451002Y68080857D02*
X59378431Y68226000D01*
X59378431Y69677429D02*
X59378431Y69822572D01*
X59378431Y69822572D02*
X59451002Y69967715D01*
X59451002Y69967715D02*
X59523574Y70040286D01*
X59523574Y70040286D02*
X59668717Y70112858D01*
X59668717Y70112858D02*
X59959002Y70185429D01*
X59959002Y70185429D02*
X60321860Y70185429D01*
X60321860Y70185429D02*
X60612145Y70112858D01*
X60612145Y70112858D02*
X60757288Y70040286D01*
X60757288Y70040286D02*
X60829860Y69967715D01*
X60829860Y69967715D02*
X60902431Y69822572D01*
X60902431Y69822572D02*
X60902431Y69677429D01*
X60902431Y69677429D02*
X60829860Y69532286D01*
X60829860Y69532286D02*
X60757288Y69459715D01*
X60757288Y69459715D02*
X60612145Y69387144D01*
X60612145Y69387144D02*
X60321860Y69314572D01*
X60321860Y69314572D02*
X59959002Y69314572D01*
X59959002Y69314572D02*
X59668717Y69387144D01*
X59668717Y69387144D02*
X59523574Y69459715D01*
X59523574Y69459715D02*
X59451002Y69532286D01*
X59451002Y69532286D02*
X59378431Y69677429D01*
X61047574Y70475715D02*
X61047574Y71636858D01*
X60902431Y71999716D02*
X59378431Y71999716D01*
X59378431Y71999716D02*
X60467002Y72507716D01*
X60467002Y72507716D02*
X59378431Y73015716D01*
X59378431Y73015716D02*
X60902431Y73015716D01*
X60467002Y73668858D02*
X60467002Y74394572D01*
X60902431Y73523715D02*
X59378431Y74031715D01*
X59378431Y74031715D02*
X60902431Y74539715D01*
X60902431Y75047716D02*
X59378431Y75047716D01*
X59378431Y75047716D02*
X59378431Y75628287D01*
X59378431Y75628287D02*
X59451002Y75773430D01*
X59451002Y75773430D02*
X59523574Y75846001D01*
X59523574Y75846001D02*
X59668717Y75918573D01*
X59668717Y75918573D02*
X59886431Y75918573D01*
X59886431Y75918573D02*
X60031574Y75846001D01*
X60031574Y75846001D02*
X60104145Y75773430D01*
X60104145Y75773430D02*
X60176717Y75628287D01*
X60176717Y75628287D02*
X60176717Y75047716D01*
D14*
G04 #@! TO.C,C24*
X7949986Y9000000D02*
X7200001Y9000000D01*
D15*
G04 #@! TO.C,Q10*
X25970000Y38050000D02*
X25970000Y38320000D01*
X25970000Y38320000D02*
X28800000Y38320000D01*
X25970000Y44680000D02*
X27070000Y44680000D01*
X25970000Y44950000D02*
X25970000Y44680000D01*
X19550000Y38050000D02*
X25970000Y38050000D01*
X19550000Y44950000D02*
X25970000Y44950000D01*
D14*
G04 #@! TO.C,C27*
X55349986Y66000000D02*
X54600001Y66000000D01*
D15*
G04 #@! TO.C,C30*
X54640000Y77679664D02*
X54640000Y77895336D01*
X55360000Y77679664D02*
X55360000Y77895336D01*
D14*
G04 #@! TO.C,M5*
X85425000Y67200000D02*
X99325000Y67200000D01*
X99325000Y67200000D02*
X99325000Y39700000D01*
X99325000Y39700000D02*
X85425000Y39700000D01*
X85425000Y39700000D02*
X85425000Y67200000D01*
D15*
G04 #@! TO.C,J2*
X5790000Y104735000D02*
X27500000Y104735000D01*
X5790000Y91715000D02*
X5790000Y104735000D01*
X6000000Y91025000D02*
X6600000Y90725000D01*
X6000000Y90425000D02*
X6000000Y91025000D01*
X6600000Y91715000D02*
X5790000Y91715000D01*
X6600000Y90725000D02*
X6000000Y90425000D01*
X8300000Y88615000D02*
X8300000Y87335000D01*
X8900000Y88615000D02*
X8900000Y87335000D01*
X10210000Y91725000D02*
X11190000Y91725000D01*
X12500000Y88615000D02*
X12500000Y87335000D01*
X13100000Y88615000D02*
X13100000Y87335000D01*
X14410000Y91725000D02*
X15390000Y91725000D01*
X16700000Y88615000D02*
X16700000Y87335000D01*
X17300000Y88615000D02*
X17300000Y87335000D01*
X18610000Y91725000D02*
X19590000Y91725000D01*
X20900000Y88615000D02*
X20900000Y87335000D01*
X21500000Y88615000D02*
X21500000Y87335000D01*
X22810000Y91725000D02*
X23790000Y91725000D01*
X25100000Y88615000D02*
X25100000Y87335000D01*
X25700000Y88615000D02*
X25700000Y87335000D01*
X27010000Y91725000D02*
X27990000Y91725000D01*
X29300000Y88615000D02*
X29300000Y87335000D01*
X29900000Y88615000D02*
X29900000Y87335000D01*
X31210000Y91725000D02*
X32190000Y91725000D01*
X33500000Y88615000D02*
X33500000Y87335000D01*
X34100000Y88615000D02*
X34100000Y87335000D01*
X35410000Y91725000D02*
X36390000Y91725000D01*
X37700000Y88615000D02*
X37700000Y87335000D01*
X38300000Y88615000D02*
X38300000Y87335000D01*
X39610000Y91725000D02*
X40590000Y91725000D01*
X41900000Y88615000D02*
X41900000Y87335000D01*
X42500000Y88615000D02*
X42500000Y87335000D01*
X43810000Y91725000D02*
X44790000Y91725000D01*
X46100000Y88615000D02*
X46100000Y87335000D01*
X46700000Y88615000D02*
X46700000Y87335000D01*
X48400000Y91715000D02*
X49210000Y91715000D01*
X49210000Y104735000D02*
X27500000Y104735000D01*
X49210000Y91715000D02*
X49210000Y104735000D01*
G04 #@! TO.C,Q7*
X25970000Y59050000D02*
X25970000Y59320000D01*
X25970000Y59320000D02*
X28800000Y59320000D01*
X25970000Y65680000D02*
X27070000Y65680000D01*
X25970000Y65950000D02*
X25970000Y65680000D01*
X19550000Y59050000D02*
X25970000Y59050000D01*
X19550000Y65950000D02*
X25970000Y65950000D01*
G04 #@! TO.C,Q8*
X25970000Y52050000D02*
X25970000Y52320000D01*
X25970000Y52320000D02*
X28800000Y52320000D01*
X25970000Y58680000D02*
X27070000Y58680000D01*
X25970000Y58950000D02*
X25970000Y58680000D01*
X19550000Y52050000D02*
X25970000Y52050000D01*
X19550000Y58950000D02*
X25970000Y58950000D01*
G04 #@! TO.C,P1*
X32670000Y58830000D02*
X32670000Y56170000D01*
X32964462Y56170000D02*
X32670000Y56170000D01*
X32975627Y58830000D02*
X32670000Y58830000D01*
X35024373Y56170000D02*
X35330000Y56170000D01*
X35035538Y58830000D02*
X35330000Y58830000D01*
X35330000Y56170000D02*
X35330000Y58830000D01*
D14*
G04 #@! TO.C,C26*
X23949986Y5500000D02*
X23200001Y5500000D01*
D15*
G04 #@! TO.C,Q2*
X21900000Y80910000D02*
X27910000Y80910000D01*
X24150000Y74090000D02*
X27910000Y74090000D01*
X27910000Y80910000D02*
X27910000Y79650000D01*
X27910000Y74090000D02*
X27910000Y75350000D01*
G04 #@! TO.C,J1*
X50790000Y104735000D02*
X72500000Y104735000D01*
X50790000Y91715000D02*
X50790000Y104735000D01*
X51000000Y91025000D02*
X51600000Y90725000D01*
X51000000Y90425000D02*
X51000000Y91025000D01*
X51600000Y91715000D02*
X50790000Y91715000D01*
X51600000Y90725000D02*
X51000000Y90425000D01*
X53300000Y88615000D02*
X53300000Y87335000D01*
X53900000Y88615000D02*
X53900000Y87335000D01*
X55210000Y91725000D02*
X56190000Y91725000D01*
X57500000Y88615000D02*
X57500000Y87335000D01*
X58100000Y88615000D02*
X58100000Y87335000D01*
X59410000Y91725000D02*
X60390000Y91725000D01*
X61700000Y88615000D02*
X61700000Y87335000D01*
X62300000Y88615000D02*
X62300000Y87335000D01*
X63610000Y91725000D02*
X64590000Y91725000D01*
X65900000Y88615000D02*
X65900000Y87335000D01*
X66500000Y88615000D02*
X66500000Y87335000D01*
X67810000Y91725000D02*
X68790000Y91725000D01*
X70100000Y88615000D02*
X70100000Y87335000D01*
X70700000Y88615000D02*
X70700000Y87335000D01*
X72010000Y91725000D02*
X72990000Y91725000D01*
X74300000Y88615000D02*
X74300000Y87335000D01*
X74900000Y88615000D02*
X74900000Y87335000D01*
X76210000Y91725000D02*
X77190000Y91725000D01*
X78500000Y88615000D02*
X78500000Y87335000D01*
X79100000Y88615000D02*
X79100000Y87335000D01*
X80410000Y91725000D02*
X81390000Y91725000D01*
X82700000Y88615000D02*
X82700000Y87335000D01*
X83300000Y88615000D02*
X83300000Y87335000D01*
X84610000Y91725000D02*
X85590000Y91725000D01*
X86900000Y88615000D02*
X86900000Y87335000D01*
X87500000Y88615000D02*
X87500000Y87335000D01*
X88810000Y91725000D02*
X89790000Y91725000D01*
X91100000Y88615000D02*
X91100000Y87335000D01*
X91700000Y88615000D02*
X91700000Y87335000D01*
X93400000Y91715000D02*
X94210000Y91715000D01*
X94210000Y104735000D02*
X72500000Y104735000D01*
X94210000Y91715000D02*
X94210000Y104735000D01*
G04 #@! TO.C,G2*
G36*
X66010349Y9381113D02*
G01*
X66014459Y9358282D01*
X66014491Y9354766D01*
X66025084Y9291715D01*
X66054528Y9215182D01*
X66099318Y9130255D01*
X66155949Y9042022D01*
X66220918Y8955570D01*
X66290718Y8875987D01*
X66361846Y8808360D01*
X66421876Y8763342D01*
X66484754Y8710584D01*
X66546728Y8636253D01*
X66602810Y8547551D01*
X66648011Y8451679D01*
X66659493Y8420280D01*
X66677417Y8364046D01*
X66686021Y8322988D01*
X66686357Y8285133D01*
X66679480Y8238511D01*
X66676763Y8224112D01*
X66651669Y8132584D01*
X66614556Y8047632D01*
X66569694Y7978020D01*
X66542590Y7948831D01*
X66508428Y7919964D01*
X66466829Y7887684D01*
X66424758Y7857019D01*
X66389179Y7832994D01*
X66367059Y7820635D01*
X66364002Y7819961D01*
X66347034Y7825448D01*
X66312336Y7838636D01*
X66285964Y7849165D01*
X66215044Y7882246D01*
X66155096Y7921541D01*
X66097477Y7973664D01*
X66040364Y8037132D01*
X65946842Y8152862D01*
X65874820Y8254212D01*
X65822444Y8344096D01*
X65787859Y8425427D01*
X65782522Y8442233D01*
X65770944Y8482522D01*
X65763299Y8516287D01*
X65759423Y8549854D01*
X65759155Y8589547D01*
X65762333Y8641691D01*
X65768794Y8712612D01*
X65774191Y8766935D01*
X65784966Y8859657D01*
X65798729Y8956661D01*
X65813860Y9047567D01*
X65828736Y9121993D01*
X65831592Y9134214D01*
X65848636Y9201630D01*
X65863245Y9247962D01*
X65878966Y9280564D01*
X65899346Y9306792D01*
X65927932Y9334000D01*
X65927948Y9334014D01*
X65970596Y9369818D01*
X65996896Y9385238D01*
X66010349Y9381113D01*
G37*
G36*
X72808609Y2234842D02*
G01*
X73151431Y2234667D01*
X73491164Y2234404D01*
X73826570Y2234054D01*
X74156414Y2233616D01*
X74479458Y2233091D01*
X74794467Y2232478D01*
X75100203Y2231778D01*
X75395431Y2230990D01*
X75678912Y2230114D01*
X75949412Y2229151D01*
X76205693Y2228101D01*
X76446518Y2226962D01*
X76670652Y2225737D01*
X76876857Y2224423D01*
X77063897Y2223022D01*
X77230536Y2221534D01*
X77375536Y2219958D01*
X77497661Y2218294D01*
X77595675Y2216543D01*
X77668341Y2214704D01*
X77714423Y2212778D01*
X77732683Y2210764D01*
X77732695Y2210757D01*
X77778847Y2170342D01*
X77806678Y2111267D01*
X77813575Y2056938D01*
X77807256Y2014424D01*
X77784380Y1976380D01*
X77764170Y1954500D01*
X77714765Y1905095D01*
X66868907Y1905095D01*
X66819502Y1954500D01*
X66785783Y1995002D01*
X66771654Y2033688D01*
X66770097Y2056938D01*
X66781597Y2126165D01*
X66813925Y2181502D01*
X66850977Y2210757D01*
X66869147Y2212772D01*
X66915142Y2214698D01*
X66987726Y2216537D01*
X67085661Y2218289D01*
X67207712Y2219953D01*
X67352642Y2221529D01*
X67519213Y2223018D01*
X67706191Y2224419D01*
X67912337Y2225733D01*
X68136416Y2226959D01*
X68377190Y2228097D01*
X68633424Y2229148D01*
X68903880Y2230111D01*
X69187323Y2230987D01*
X69482515Y2231775D01*
X69788220Y2232476D01*
X70103201Y2233089D01*
X70426222Y2233615D01*
X70756046Y2234053D01*
X71091437Y2234403D01*
X71431158Y2234666D01*
X71773972Y2234841D01*
X72118643Y2234929D01*
X72463934Y2234929D01*
X72808609Y2234842D01*
G37*
G36*
X66196736Y9741181D02*
G01*
X66209663Y9715558D01*
X66229357Y9668579D01*
X66237099Y9649874D01*
X66268761Y9585234D01*
X66309492Y9517148D01*
X66339371Y9474989D01*
X66361174Y9448132D01*
X66382370Y9425664D01*
X66406972Y9405130D01*
X66438995Y9384076D01*
X66482452Y9360046D01*
X66541358Y9330585D01*
X66619725Y9293238D01*
X66691575Y9259563D01*
X66793145Y9211500D01*
X66871802Y9172713D01*
X66931350Y9141042D01*
X66975595Y9114330D01*
X67008341Y9090416D01*
X67033393Y9067144D01*
X67036414Y9063910D01*
X67128755Y8952773D01*
X67202394Y8841568D01*
X67255461Y8733924D01*
X67286088Y8633473D01*
X67293209Y8564939D01*
X67279411Y8402951D01*
X67238382Y8249942D01*
X67170673Y8107613D01*
X67121175Y8033030D01*
X67080555Y7987588D01*
X67022097Y7934273D01*
X66952792Y7878323D01*
X66879631Y7824976D01*
X66809604Y7779470D01*
X66749702Y7747044D01*
X66727332Y7737914D01*
X66662220Y7719011D01*
X66606438Y7709400D01*
X66566985Y7710052D01*
X66556099Y7714163D01*
X66555774Y7727677D01*
X66575048Y7756056D01*
X66614937Y7800585D01*
X66662558Y7848882D01*
X66722026Y7909667D01*
X66765913Y7960733D01*
X66800824Y8011131D01*
X66833365Y8069911D01*
X66852979Y8109786D01*
X66884675Y8178694D01*
X66905114Y8232290D01*
X66917181Y8280651D01*
X66923763Y8333852D01*
X66925822Y8364077D01*
X66925285Y8470560D01*
X66912435Y8572872D01*
X66888787Y8663565D01*
X66855858Y8735195D01*
X66847806Y8747258D01*
X66808095Y8789141D01*
X66753784Y8829636D01*
X66727227Y8845027D01*
X66671599Y8877472D01*
X66604028Y8921943D01*
X66530601Y8973878D01*
X66457408Y9028713D01*
X66390537Y9081887D01*
X66336076Y9128836D01*
X66300113Y9164998D01*
X66299864Y9165295D01*
X66221244Y9279548D01*
X66165795Y9405367D01*
X66135707Y9536927D01*
X66130738Y9615068D01*
X66132980Y9669898D01*
X66141176Y9704598D01*
X66157527Y9727855D01*
X66159889Y9730061D01*
X66175714Y9744418D01*
X66186708Y9749463D01*
X66196736Y9741181D01*
G37*
G36*
X72218470Y5806339D02*
G01*
X72293421Y5778124D01*
X72350013Y5734187D01*
X72384108Y5676859D01*
X72385658Y5672034D01*
X72387853Y5648091D01*
X72388289Y5599973D01*
X72387066Y5532508D01*
X72384285Y5450524D01*
X72380048Y5358848D01*
X72378529Y5330558D01*
X72374485Y5257066D01*
X72371339Y5193283D01*
X72369364Y5135985D01*
X72368833Y5081948D01*
X72370016Y5027946D01*
X72373188Y4970756D01*
X72378621Y4907153D01*
X72386586Y4833913D01*
X72397357Y4747811D01*
X72411206Y4645623D01*
X72428405Y4524124D01*
X72449226Y4380089D01*
X72472126Y4222772D01*
X72487608Y4114630D01*
X72502655Y4006180D01*
X72516394Y3903965D01*
X72527952Y3814532D01*
X72536456Y3744424D01*
X72538999Y3721456D01*
X72548750Y3635795D01*
X72559997Y3551904D01*
X72573702Y3464093D01*
X72590827Y3366670D01*
X72612337Y3253943D01*
X72639193Y3120222D01*
X72647947Y3077538D01*
X72664908Y2991395D01*
X72679462Y2910334D01*
X72690583Y2840656D01*
X72697243Y2788664D01*
X72698701Y2766187D01*
X72687921Y2684197D01*
X72655471Y2621368D01*
X72601187Y2577565D01*
X72524905Y2552649D01*
X72437145Y2546261D01*
X72379168Y2548633D01*
X72325845Y2553582D01*
X72295833Y2558563D01*
X72227244Y2585457D01*
X72173056Y2627460D01*
X72155694Y2650006D01*
X72148267Y2673605D01*
X72138410Y2722746D01*
X72126568Y2794050D01*
X72113186Y2884139D01*
X72098710Y2989635D01*
X72083586Y3107161D01*
X72068259Y3233337D01*
X72053175Y3364787D01*
X72038779Y3498131D01*
X72025517Y3629993D01*
X72023145Y3654780D01*
X72014430Y3736546D01*
X72001972Y3839509D01*
X71986762Y3956192D01*
X71969791Y4079119D01*
X71952051Y4200814D01*
X71942238Y4265078D01*
X71908386Y4486554D01*
X71879961Y4681525D01*
X71856790Y4852003D01*
X71838700Y5000000D01*
X71825518Y5127529D01*
X71817070Y5236601D01*
X71813184Y5329228D01*
X71813687Y5407422D01*
X71818405Y5473196D01*
X71827165Y5528562D01*
X71831824Y5548483D01*
X71868876Y5651773D01*
X71920356Y5729898D01*
X71986452Y5783029D01*
X72067353Y5811335D01*
X72129295Y5816500D01*
X72218470Y5806339D01*
G37*
G36*
X73233065Y5814646D02*
G01*
X73306982Y5797784D01*
X73370856Y5764479D01*
X73418485Y5714946D01*
X73428589Y5697137D01*
X73437617Y5676089D01*
X73443655Y5652906D01*
X73446848Y5622701D01*
X73447346Y5580585D01*
X73445297Y5521670D01*
X73440848Y5441066D01*
X73437825Y5391988D01*
X73432272Y5294211D01*
X73428890Y5206518D01*
X73427986Y5124343D01*
X73429864Y5043119D01*
X73434827Y4958278D01*
X73443180Y4865255D01*
X73455228Y4759482D01*
X73471275Y4636393D01*
X73491625Y4491420D01*
X73503164Y4411674D01*
X73520384Y4291905D01*
X73536972Y4173690D01*
X73552233Y4062201D01*
X73565470Y3962614D01*
X73575988Y3880101D01*
X73583090Y3819838D01*
X73584272Y3808642D01*
X73594413Y3717058D01*
X73606489Y3624998D01*
X73621359Y3527242D01*
X73639885Y3418568D01*
X73662927Y3293756D01*
X73691345Y3147585D01*
X73702157Y3093231D01*
X73719876Y3001789D01*
X73735369Y2916549D01*
X73747729Y2842934D01*
X73756050Y2786367D01*
X73759426Y2752272D01*
X73759456Y2750271D01*
X73745958Y2683956D01*
X73709272Y2623362D01*
X73655109Y2577279D01*
X73642691Y2570581D01*
X73598561Y2557286D01*
X73536659Y2548882D01*
X73467969Y2546044D01*
X73403471Y2549448D01*
X73374388Y2554090D01*
X73316866Y2572345D01*
X73263311Y2599211D01*
X73224105Y2629084D01*
X73215127Y2640061D01*
X73203212Y2669903D01*
X73191120Y2719288D01*
X73181053Y2778794D01*
X73179104Y2794205D01*
X73172921Y2846564D01*
X73164069Y2921046D01*
X73153351Y3010921D01*
X73141568Y3109459D01*
X73129525Y3209929D01*
X73128299Y3220141D01*
X73115991Y3324685D01*
X73103783Y3432023D01*
X73092544Y3534264D01*
X73083139Y3623518D01*
X73076436Y3691894D01*
X73076390Y3692395D01*
X73070053Y3751660D01*
X73059934Y3833941D01*
X73046803Y3933552D01*
X73031430Y4044806D01*
X73014582Y4162015D01*
X72997029Y4279492D01*
X72996815Y4280896D01*
X72963496Y4502094D01*
X72935273Y4696793D01*
X72912092Y4867098D01*
X72893902Y5015113D01*
X72880649Y5142941D01*
X72872282Y5252687D01*
X72868748Y5346454D01*
X72869994Y5426346D01*
X72875969Y5494467D01*
X72886619Y5552921D01*
X72901892Y5603813D01*
X72921735Y5649245D01*
X72946097Y5691322D01*
X72961092Y5713361D01*
X73013121Y5764423D01*
X73079930Y5798181D01*
X73155313Y5814850D01*
X73233065Y5814646D01*
G37*
G36*
X77333614Y4652974D02*
G01*
X77429289Y4614091D01*
X77511733Y4549451D01*
X77580797Y4459189D01*
X77636330Y4343438D01*
X77659025Y4275882D01*
X77673089Y4214554D01*
X77687012Y4127286D01*
X77700477Y4017200D01*
X77713166Y3887418D01*
X77724763Y3741062D01*
X77734949Y3581252D01*
X77740529Y3474431D01*
X77745683Y3367875D01*
X77751078Y3258014D01*
X77756316Y3152847D01*
X77760997Y3060374D01*
X77764724Y2988594D01*
X77764854Y2986148D01*
X77767769Y2914050D01*
X77768704Y2849516D01*
X77767659Y2799811D01*
X77764832Y2772938D01*
X77742410Y2725081D01*
X77703029Y2675368D01*
X77655897Y2634592D01*
X77637275Y2623376D01*
X77559310Y2595132D01*
X77476122Y2585319D01*
X77394254Y2592801D01*
X77320249Y2616439D01*
X77260650Y2655096D01*
X77228677Y2694406D01*
X77223952Y2710084D01*
X77220043Y2740479D01*
X77216895Y2787646D01*
X77214449Y2853638D01*
X77212648Y2940510D01*
X77211436Y3050317D01*
X77210753Y3185113D01*
X77210543Y3343653D01*
X77210428Y3497516D01*
X77210008Y3625412D01*
X77209170Y3730435D01*
X77207803Y3815677D01*
X77205794Y3884234D01*
X77203032Y3939200D01*
X77199405Y3983667D01*
X77194800Y4020730D01*
X77189105Y4053483D01*
X77183964Y4077463D01*
X77158182Y4173698D01*
X77130426Y4243168D01*
X77099364Y4288162D01*
X77063669Y4310970D01*
X77046216Y4314561D01*
X76985132Y4307365D01*
X76916325Y4277511D01*
X76844238Y4228734D01*
X76773312Y4164772D01*
X76707987Y4089361D01*
X76652705Y4006236D01*
X76631519Y3965699D01*
X76593203Y3873209D01*
X76565092Y3776026D01*
X76547014Y3670618D01*
X76538798Y3553455D01*
X76540273Y3421006D01*
X76551268Y3269741D01*
X76571613Y3096129D01*
X76584893Y3002177D01*
X76601450Y2885723D01*
X76612729Y2794217D01*
X76618856Y2724053D01*
X76619959Y2671626D01*
X76616163Y2633328D01*
X76607597Y2605554D01*
X76599364Y2591197D01*
X76550854Y2546325D01*
X76483483Y2519527D01*
X76402023Y2511964D01*
X76318836Y2522970D01*
X76244551Y2550246D01*
X76192271Y2589980D01*
X76174010Y2609812D01*
X76158100Y2631539D01*
X76144027Y2657733D01*
X76131281Y2690969D01*
X76119347Y2733820D01*
X76107715Y2788858D01*
X76095871Y2858659D01*
X76083303Y2945794D01*
X76069500Y3052839D01*
X76053948Y3182365D01*
X76036136Y3336948D01*
X76026319Y3423573D01*
X76005843Y3606027D01*
X75988675Y3761709D01*
X75974623Y3892696D01*
X75963496Y4001067D01*
X75955101Y4088900D01*
X75949246Y4158273D01*
X75945738Y4211263D01*
X75944387Y4249948D01*
X75944999Y4276408D01*
X75946381Y4288161D01*
X75975435Y4380768D01*
X76024196Y4454509D01*
X76089568Y4507226D01*
X76168452Y4536764D01*
X76257751Y4540964D01*
X76299731Y4534188D01*
X76363935Y4512206D01*
X76413104Y4475976D01*
X76450870Y4421168D01*
X76480862Y4343454D01*
X76491302Y4305741D01*
X76507230Y4243401D01*
X76579532Y4328898D01*
X76695462Y4447854D01*
X76820406Y4542141D01*
X76952254Y4610656D01*
X77088892Y4652295D01*
X77224859Y4665964D01*
X77333614Y4652974D01*
G37*
G36*
X70637604Y4733126D02*
G01*
X70823200Y4702774D01*
X70993639Y4647626D01*
X71148924Y4567680D01*
X71261344Y4486611D01*
X71346068Y4404060D01*
X71402409Y4318913D01*
X71431033Y4229388D01*
X71432606Y4133706D01*
X71418958Y4065622D01*
X71404690Y4029236D01*
X71380851Y3993542D01*
X71344673Y3956335D01*
X71293391Y3915410D01*
X71224239Y3868564D01*
X71134451Y3813590D01*
X71021259Y3748285D01*
X71019602Y3747347D01*
X70913275Y3687414D01*
X70829327Y3640070D01*
X70765144Y3603071D01*
X70718109Y3574177D01*
X70685610Y3551145D01*
X70665032Y3531733D01*
X70653759Y3513700D01*
X70649179Y3494804D01*
X70648675Y3472802D01*
X70649633Y3445453D01*
X70649845Y3430288D01*
X70654657Y3340576D01*
X70667981Y3252807D01*
X70688151Y3172391D01*
X70713498Y3104736D01*
X70742355Y3055251D01*
X70773057Y3029347D01*
X70773474Y3029184D01*
X70805470Y3024496D01*
X70844162Y3033915D01*
X70891627Y3058889D01*
X70949945Y3100864D01*
X71021192Y3161286D01*
X71107449Y3241603D01*
X71178689Y3311247D01*
X71268973Y3399847D01*
X71342355Y3469296D01*
X71401702Y3521747D01*
X71449881Y3559352D01*
X71489758Y3584265D01*
X71524199Y3598638D01*
X71556071Y3604624D01*
X71570037Y3605155D01*
X71630913Y3595849D01*
X71684220Y3571177D01*
X71721839Y3535841D01*
X71733808Y3510309D01*
X71733372Y3464973D01*
X71716508Y3411775D01*
X71687808Y3364786D01*
X71638092Y3304021D01*
X71570255Y3232227D01*
X71487189Y3152148D01*
X71391788Y3066531D01*
X71286945Y2978122D01*
X71175554Y2889667D01*
X71129365Y2854552D01*
X71016354Y2770226D01*
X70923406Y2702326D01*
X70847699Y2649366D01*
X70786409Y2609862D01*
X70736715Y2582328D01*
X70695794Y2565278D01*
X70660822Y2557227D01*
X70628978Y2556691D01*
X70597438Y2562182D01*
X70581854Y2566442D01*
X70489191Y2606404D01*
X70409789Y2668521D01*
X70341972Y2754584D01*
X70284068Y2866385D01*
X70270495Y2899723D01*
X70242369Y2985165D01*
X70217595Y3084379D01*
X70198402Y3186202D01*
X70187017Y3279474D01*
X70184857Y3328647D01*
X70184857Y3397020D01*
X70125031Y3395766D01*
X70068209Y3405972D01*
X70029188Y3438867D01*
X70008534Y3493739D01*
X70005348Y3546335D01*
X70011704Y3608644D01*
X70029975Y3651916D01*
X70065834Y3685499D01*
X70103193Y3707589D01*
X70168428Y3742196D01*
X70177453Y3851706D01*
X70188878Y3947846D01*
X70635314Y3947846D01*
X70636030Y3933340D01*
X70640989Y3925534D01*
X70654405Y3925505D01*
X70680497Y3934335D01*
X70723478Y3953100D01*
X70787566Y3982882D01*
X70806052Y3991553D01*
X70872054Y4023294D01*
X70929481Y4052360D01*
X70972604Y4075748D01*
X70995692Y4090458D01*
X70996843Y4091496D01*
X71005859Y4119097D01*
X70996023Y4158775D01*
X70970949Y4204170D01*
X70934249Y4248920D01*
X70889537Y4286666D01*
X70883878Y4290376D01*
X70825677Y4320831D01*
X70780776Y4327574D01*
X70744846Y4309996D01*
X70713558Y4267490D01*
X70712941Y4266365D01*
X70693880Y4220978D01*
X70674080Y4157134D01*
X70656080Y4085252D01*
X70642420Y4015752D01*
X70635638Y3959052D01*
X70635314Y3947846D01*
X70188878Y3947846D01*
X70202135Y4059411D01*
X70239934Y4241607D01*
X70291024Y4398807D01*
X70355580Y4531523D01*
X70433778Y4640267D01*
X70454708Y4662972D01*
X70532150Y4742927D01*
X70637604Y4733126D01*
G37*
G36*
X74604231Y4733154D02*
G01*
X74789833Y4702836D01*
X74960200Y4647785D01*
X75115398Y4567973D01*
X75228277Y4486611D01*
X75313002Y4404060D01*
X75369342Y4318913D01*
X75397966Y4229388D01*
X75399540Y4133706D01*
X75385892Y4065622D01*
X75371312Y4028629D01*
X75346869Y3992351D01*
X75309773Y3954554D01*
X75257235Y3913006D01*
X75186466Y3865475D01*
X75094677Y3809728D01*
X74993883Y3751867D01*
X74886418Y3691424D01*
X74801408Y3643499D01*
X74736246Y3605894D01*
X74688324Y3576412D01*
X74655036Y3552857D01*
X74633774Y3533032D01*
X74621933Y3514740D01*
X74616904Y3495784D01*
X74616081Y3473967D01*
X74616857Y3447092D01*
X74617031Y3434289D01*
X74622241Y3339421D01*
X74636312Y3249509D01*
X74657648Y3168950D01*
X74684654Y3102141D01*
X74715734Y3053476D01*
X74749292Y3027352D01*
X74765927Y3024110D01*
X74805416Y3032701D01*
X74856226Y3058918D01*
X74919812Y3103859D01*
X74997632Y3168621D01*
X75091141Y3254301D01*
X75161687Y3322380D01*
X75248759Y3407280D01*
X75318497Y3473654D01*
X75373991Y3523650D01*
X75418335Y3559412D01*
X75454621Y3583090D01*
X75485940Y3596828D01*
X75515384Y3602774D01*
X75546045Y3603075D01*
X75563956Y3601669D01*
X75616583Y3592819D01*
X75652113Y3575376D01*
X75674535Y3553676D01*
X75698062Y3514022D01*
X75702795Y3469466D01*
X75687699Y3418003D01*
X75651736Y3357627D01*
X75593867Y3286332D01*
X75513057Y3202113D01*
X75472307Y3162673D01*
X75420419Y3115887D01*
X75352116Y3058128D01*
X75271713Y2992697D01*
X75183523Y2922892D01*
X75091859Y2852012D01*
X75001036Y2783357D01*
X74915365Y2720225D01*
X74839161Y2665916D01*
X74776738Y2623729D01*
X74733267Y2597420D01*
X74676666Y2569212D01*
X74634599Y2555313D01*
X74597356Y2554003D01*
X74555227Y2563565D01*
X74550384Y2565049D01*
X74454814Y2609712D01*
X74370657Y2679826D01*
X74298834Y2773744D01*
X74240264Y2889814D01*
X74195869Y3026388D01*
X74166569Y3181816D01*
X74157653Y3268882D01*
X74148001Y3396740D01*
X74090070Y3395626D01*
X74034639Y3406225D01*
X73996377Y3439920D01*
X73975968Y3495871D01*
X73972576Y3539820D01*
X73984048Y3610149D01*
X74019734Y3666873D01*
X74081541Y3712994D01*
X74083145Y3713877D01*
X74111656Y3731229D01*
X74128285Y3749792D01*
X74137332Y3778269D01*
X74143099Y3825359D01*
X74144202Y3837390D01*
X74157238Y3946284D01*
X74602248Y3946284D01*
X74603215Y3932551D01*
X74608911Y3925549D01*
X74623531Y3926407D01*
X74651270Y3936253D01*
X74696322Y3956213D01*
X74762882Y3987417D01*
X74772986Y3992194D01*
X74838540Y4023109D01*
X74895389Y4049763D01*
X74937945Y4069545D01*
X74960617Y4079847D01*
X74961888Y4080385D01*
X74976270Y4092278D01*
X74977248Y4114669D01*
X74964264Y4153355D01*
X74952252Y4180866D01*
X74912324Y4242497D01*
X74858185Y4290163D01*
X74797466Y4318070D01*
X74765349Y4322864D01*
X74731843Y4321568D01*
X74710219Y4310645D01*
X74691362Y4283369D01*
X74678937Y4259099D01*
X74658817Y4208523D01*
X74638447Y4141387D01*
X74620471Y4068467D01*
X74607528Y4000542D01*
X74602263Y3948388D01*
X74602248Y3946284D01*
X74157238Y3946284D01*
X74168138Y4037340D01*
X74201856Y4211523D01*
X74245963Y4361743D01*
X74301066Y4489808D01*
X74367770Y4597524D01*
X74420435Y4660461D01*
X74498471Y4742984D01*
X74604231Y4733154D01*
G37*
G36*
X67116745Y7620897D02*
G01*
X67154431Y7598239D01*
X67155766Y7597109D01*
X67174901Y7577923D01*
X67187195Y7555462D01*
X67194824Y7522287D01*
X67199966Y7470960D01*
X67202123Y7438779D01*
X67204686Y7376745D01*
X67204630Y7321968D01*
X67202032Y7283869D01*
X67200754Y7277037D01*
X67184080Y7248197D01*
X67150815Y7212992D01*
X67122456Y7189730D01*
X67084614Y7159719D01*
X67060639Y7131783D01*
X67044205Y7095815D01*
X67028988Y7041711D01*
X67028439Y7039520D01*
X67015775Y6984377D01*
X67000440Y6910773D01*
X66984498Y6828917D01*
X66971861Y6759625D01*
X66958420Y6679232D01*
X66950549Y6618919D01*
X66947818Y6570331D01*
X66949799Y6525110D01*
X66956064Y6474901D01*
X66956951Y6469008D01*
X66963896Y6407680D01*
X66969447Y6328794D01*
X66972928Y6243846D01*
X66973769Y6184443D01*
X66975074Y6094021D01*
X66978709Y5991702D01*
X66984329Y5881437D01*
X66991584Y5767175D01*
X67000128Y5652867D01*
X67009613Y5542462D01*
X67019690Y5439910D01*
X67030013Y5349162D01*
X67040234Y5274168D01*
X67050005Y5218876D01*
X67058979Y5187238D01*
X67061965Y5182381D01*
X67082617Y5178563D01*
X67127727Y5181398D01*
X67193658Y5190096D01*
X67276773Y5203870D01*
X67373437Y5221931D01*
X67480013Y5243491D01*
X67592866Y5267763D01*
X67708359Y5293957D01*
X67822855Y5321286D01*
X67932720Y5348961D01*
X68034315Y5376195D01*
X68124007Y5402198D01*
X68198157Y5426182D01*
X68215921Y5432532D01*
X68332168Y5475240D01*
X68327481Y5575551D01*
X68323289Y5634587D01*
X68315283Y5711391D01*
X68303195Y5807929D01*
X68286759Y5926165D01*
X68265706Y6068064D01*
X68239770Y6235591D01*
X68224851Y6329806D01*
X68198711Y6502562D01*
X68178234Y6656670D01*
X68163624Y6790076D01*
X68155085Y6900726D01*
X68152822Y6986568D01*
X68155074Y7030719D01*
X68179221Y7126824D01*
X68230549Y7213474D01*
X68308544Y7290018D01*
X68412088Y7355496D01*
X68485554Y7380586D01*
X68572895Y7391167D01*
X68662823Y7387240D01*
X68744047Y7368805D01*
X68775360Y7355463D01*
X68831369Y7323875D01*
X68874256Y7291331D01*
X68906083Y7253269D01*
X68928908Y7205127D01*
X68944792Y7142344D01*
X68955794Y7060357D01*
X68963976Y6954605D01*
X68965163Y6935140D01*
X68973385Y6802815D01*
X68982223Y6673184D01*
X68992141Y6540363D01*
X69003605Y6398469D01*
X69017078Y6241617D01*
X69033026Y6063926D01*
X69039629Y5991908D01*
X69070752Y5654065D01*
X69118717Y5654065D01*
X69170468Y5640519D01*
X69220618Y5603630D01*
X69265250Y5549028D01*
X69300444Y5482340D01*
X69322280Y5409192D01*
X69327534Y5354240D01*
X69321343Y5296297D01*
X69304621Y5227222D01*
X69280143Y5153819D01*
X69250685Y5082888D01*
X69219020Y5021230D01*
X69187926Y4975647D01*
X69164588Y4954920D01*
X69152878Y4939817D01*
X69145169Y4908378D01*
X69141569Y4859452D01*
X69142187Y4791890D01*
X69147131Y4704541D01*
X69156508Y4596255D01*
X69170428Y4465882D01*
X69188999Y4312272D01*
X69212328Y4134274D01*
X69240525Y3930738D01*
X69273697Y3700515D01*
X69298493Y3532555D01*
X69324547Y3355819D01*
X69346073Y3205254D01*
X69363235Y3078354D01*
X69376199Y2972609D01*
X69385130Y2885511D01*
X69390195Y2814553D01*
X69391559Y2757225D01*
X69389388Y2711021D01*
X69383848Y2673431D01*
X69375104Y2641948D01*
X69363321Y2614063D01*
X69359647Y2606837D01*
X69310463Y2543930D01*
X69237508Y2495744D01*
X69142736Y2463479D01*
X69117800Y2458390D01*
X69064627Y2448998D01*
X69028667Y2445104D01*
X68998473Y2447408D01*
X68962594Y2456607D01*
X68918484Y2470561D01*
X68832689Y2505188D01*
X68768723Y2549122D01*
X68719661Y2607445D01*
X68709364Y2624099D01*
X68687883Y2663088D01*
X68671215Y2700740D01*
X68658218Y2742329D01*
X68647747Y2793126D01*
X68638658Y2858403D01*
X68629806Y2943434D01*
X68622580Y3023974D01*
X68607371Y3193882D01*
X68590586Y3370904D01*
X68572715Y3550511D01*
X68554250Y3728175D01*
X68535682Y3899369D01*
X68517500Y4059566D01*
X68500197Y4204237D01*
X68484261Y4328855D01*
X68470589Y4426205D01*
X68463418Y4478133D01*
X68454549Y4548284D01*
X68445305Y4625974D01*
X68439605Y4676520D01*
X68431513Y4747041D01*
X68424771Y4793368D01*
X68417926Y4820230D01*
X68409526Y4832359D01*
X68398120Y4834486D01*
X68391456Y4833407D01*
X68363640Y4827878D01*
X68316069Y4818628D01*
X68257538Y4807362D01*
X68237717Y4803570D01*
X67965416Y4748879D01*
X67671201Y4684748D01*
X67394437Y4620479D01*
X67081534Y4545844D01*
X67086897Y4493290D01*
X67098524Y4391949D01*
X67112790Y4287255D01*
X67128649Y4185432D01*
X67145058Y4092702D01*
X67160972Y4015289D01*
X67175346Y3959417D01*
X67177781Y3951855D01*
X67197429Y3880449D01*
X67202721Y3819501D01*
X67200353Y3786845D01*
X67199456Y3727461D01*
X67207619Y3640685D01*
X67224819Y3526732D01*
X67228848Y3503493D01*
X67248481Y3392304D01*
X67263933Y3306306D01*
X67276110Y3242078D01*
X67285920Y3196198D01*
X67294271Y3165245D01*
X67302070Y3145798D01*
X67310224Y3134434D01*
X67319640Y3127733D01*
X67329764Y3122942D01*
X67368143Y3090796D01*
X67389155Y3041081D01*
X67392715Y2979595D01*
X67378740Y2912133D01*
X67347145Y2844491D01*
X67334106Y2824875D01*
X67271136Y2751792D01*
X67194869Y2686205D01*
X67111835Y2632172D01*
X67028562Y2593748D01*
X66951578Y2574988D01*
X66929937Y2573800D01*
X66853569Y2585627D01*
X66772504Y2618083D01*
X66696578Y2666629D01*
X66661372Y2697741D01*
X66608283Y2762257D01*
X66565278Y2840996D01*
X66531357Y2937130D01*
X66505524Y3053833D01*
X66486780Y3194276D01*
X66479674Y3275469D01*
X66472475Y3367898D01*
X66463573Y3477095D01*
X66453980Y3590896D01*
X66444709Y3697132D01*
X66442527Y3721456D01*
X66433713Y3820853D01*
X66423604Y3937773D01*
X66413176Y4060766D01*
X66403402Y4178384D01*
X66398605Y4237303D01*
X66389969Y4338482D01*
X66382276Y4414079D01*
X66374993Y4467534D01*
X66367588Y4502292D01*
X66359529Y4521792D01*
X66353680Y4527921D01*
X66302687Y4565123D01*
X66264764Y4606020D01*
X66231452Y4660655D01*
X66216491Y4690761D01*
X66191911Y4745928D01*
X66179229Y4788062D01*
X66175897Y4829350D01*
X66178491Y4872612D01*
X66194002Y4948200D01*
X66223773Y5014849D01*
X66263812Y5065583D01*
X66303669Y5091265D01*
X66314776Y5094588D01*
X66323789Y5097280D01*
X66330489Y5102109D01*
X66334654Y5111840D01*
X66336065Y5129240D01*
X66334500Y5157075D01*
X66329739Y5198111D01*
X66321561Y5255114D01*
X66309747Y5330851D01*
X66294074Y5428087D01*
X66274323Y5549589D01*
X66260159Y5636922D01*
X66242363Y5747912D01*
X66226190Y5850747D01*
X66212214Y5941619D01*
X66201009Y6016719D01*
X66193150Y6072238D01*
X66189211Y6104367D01*
X66188861Y6109720D01*
X66183040Y6148056D01*
X66166850Y6207676D01*
X66142203Y6283525D01*
X66111009Y6370546D01*
X66075180Y6463685D01*
X66036627Y6557886D01*
X65997260Y6648093D01*
X65958991Y6729250D01*
X65942156Y6762390D01*
X65901271Y6839731D01*
X65869740Y6896126D01*
X65843876Y6936601D01*
X65819995Y6966184D01*
X65794413Y6989900D01*
X65763444Y7012778D01*
X65753726Y7019432D01*
X65708842Y7051398D01*
X65682589Y7076402D01*
X65668833Y7102691D01*
X65661439Y7138510D01*
X65660580Y7144628D01*
X65655575Y7196695D01*
X65652178Y7261788D01*
X65651218Y7312615D01*
X65655898Y7383219D01*
X65671968Y7430769D01*
X65702475Y7460048D01*
X65750466Y7475840D01*
X65755757Y7476765D01*
X65785966Y7481059D01*
X65840146Y7488023D01*
X65914662Y7497235D01*
X66005881Y7508274D01*
X66110166Y7520719D01*
X66223884Y7534148D01*
X66343399Y7548141D01*
X66465076Y7562274D01*
X66585282Y7576129D01*
X66700380Y7589282D01*
X66806737Y7601312D01*
X66900717Y7611800D01*
X66978686Y7620322D01*
X67037009Y7626457D01*
X67072051Y7629785D01*
X67079969Y7630267D01*
X67116745Y7620897D01*
G37*
G36*
X65938549Y10613076D02*
G01*
X65946342Y10610149D01*
X65974415Y10589470D01*
X65990014Y10549577D01*
X65991655Y10541127D01*
X66000992Y10489423D01*
X66010725Y10459629D01*
X66027401Y10448314D01*
X66057566Y10452049D01*
X66107765Y10467406D01*
X66123044Y10472287D01*
X66309636Y10521676D01*
X66516024Y10558249D01*
X66720765Y10579756D01*
X66754146Y10581100D01*
X66815249Y10582380D01*
X66902735Y10583596D01*
X67015266Y10584750D01*
X67151500Y10585840D01*
X67310101Y10586866D01*
X67489727Y10587830D01*
X67689040Y10588729D01*
X67906700Y10589566D01*
X68141369Y10590339D01*
X68391706Y10591049D01*
X68656374Y10591695D01*
X68934031Y10592278D01*
X69223340Y10592798D01*
X69522960Y10593254D01*
X69831553Y10593647D01*
X70147780Y10593976D01*
X70470300Y10594243D01*
X70797775Y10594445D01*
X71128865Y10594585D01*
X71462232Y10594661D01*
X71796535Y10594673D01*
X72130436Y10594623D01*
X72462596Y10594509D01*
X72791674Y10594331D01*
X73116332Y10594090D01*
X73435231Y10593786D01*
X73747031Y10593418D01*
X74050393Y10592987D01*
X74343977Y10592493D01*
X74626445Y10591935D01*
X74896456Y10591314D01*
X75152673Y10590630D01*
X75393755Y10589882D01*
X75618364Y10589071D01*
X75825159Y10588196D01*
X76012802Y10587258D01*
X76179954Y10586257D01*
X76325274Y10585192D01*
X76447425Y10584064D01*
X76545066Y10582873D01*
X76616858Y10581618D01*
X76661463Y10580300D01*
X76671374Y10579756D01*
X76877691Y10558355D01*
X77069436Y10523919D01*
X77259104Y10473996D01*
X77337834Y10448925D01*
X77592403Y10349229D01*
X77832407Y10225242D01*
X78056532Y10078539D01*
X78263461Y9910697D01*
X78451877Y9723290D01*
X78620465Y9517895D01*
X78767907Y9296088D01*
X78892888Y9059445D01*
X78994091Y8809540D01*
X79070200Y8547950D01*
X79113302Y8323544D01*
X79116170Y8301635D01*
X79118790Y8275377D01*
X79121175Y8243466D01*
X79123334Y8204594D01*
X79125278Y8157458D01*
X79127020Y8100753D01*
X79128569Y8033172D01*
X79129936Y7953411D01*
X79131133Y7860164D01*
X79132170Y7752127D01*
X79133058Y7627994D01*
X79133808Y7486459D01*
X79134432Y7326218D01*
X79134939Y7145965D01*
X79135342Y6944396D01*
X79135650Y6720204D01*
X79135875Y6472085D01*
X79136028Y6198733D01*
X79136120Y5898844D01*
X79136160Y5593725D01*
X79136101Y5218883D01*
X79135873Y4872874D01*
X79135475Y4555471D01*
X79134904Y4266447D01*
X79134161Y4005573D01*
X79133244Y3772622D01*
X79132150Y3567367D01*
X79130880Y3389579D01*
X79129432Y3239031D01*
X79127804Y3115496D01*
X79125995Y3018746D01*
X79124004Y2948553D01*
X79121829Y2904689D01*
X79120755Y2893196D01*
X79072256Y2620354D01*
X78997671Y2358191D01*
X78898315Y2108135D01*
X78775509Y1871610D01*
X78630569Y1650043D01*
X78464815Y1444860D01*
X78279564Y1257487D01*
X78076134Y1089350D01*
X77855845Y941875D01*
X77620013Y816488D01*
X77369957Y714616D01*
X77106995Y637684D01*
X77017735Y618038D01*
X76927997Y602164D01*
X76828333Y588181D01*
X76732838Y577908D01*
X76675411Y573869D01*
X76644762Y573101D01*
X76586538Y572359D01*
X76502059Y571643D01*
X76392647Y570955D01*
X76259622Y570295D01*
X76104305Y569663D01*
X75928017Y569059D01*
X75732077Y568485D01*
X75517808Y567940D01*
X75286530Y567424D01*
X75039563Y566940D01*
X74778228Y566485D01*
X74503846Y566062D01*
X74217738Y565671D01*
X73921224Y565312D01*
X73615625Y564985D01*
X73302262Y564690D01*
X72982455Y564430D01*
X72657525Y564202D01*
X72328794Y564010D01*
X71997581Y563851D01*
X71665207Y563728D01*
X71332994Y563640D01*
X71002261Y563588D01*
X70674330Y563572D01*
X70350520Y563593D01*
X70032154Y563651D01*
X69720552Y563747D01*
X69417034Y563880D01*
X69122921Y564053D01*
X68839534Y564264D01*
X68568193Y564514D01*
X68310220Y564804D01*
X68066934Y565134D01*
X67839658Y565505D01*
X67629710Y565916D01*
X67438413Y566369D01*
X67267087Y566864D01*
X67117052Y567402D01*
X66989630Y567982D01*
X66886140Y568605D01*
X66807904Y569271D01*
X66756243Y569982D01*
X66733770Y570647D01*
X66460499Y601204D01*
X66196340Y658476D01*
X65942729Y741151D01*
X65701103Y847914D01*
X65472898Y977450D01*
X65259552Y1128446D01*
X65062501Y1299588D01*
X64883183Y1489560D01*
X64723033Y1697051D01*
X64583489Y1920744D01*
X64465987Y2159327D01*
X64371964Y2411485D01*
X64302858Y2675903D01*
X64277317Y2817345D01*
X64274267Y2852115D01*
X64271424Y2914110D01*
X64268789Y3001496D01*
X64266361Y3112436D01*
X64264139Y3245095D01*
X64262122Y3397639D01*
X64260311Y3568231D01*
X64258704Y3755036D01*
X64257302Y3956219D01*
X64256103Y4169943D01*
X64255609Y4281261D01*
X64577181Y4281261D01*
X64577305Y4076006D01*
X64577679Y3891646D01*
X64578333Y3726819D01*
X64579298Y3580163D01*
X64580606Y3450319D01*
X64582290Y3335924D01*
X64584379Y3235618D01*
X64586906Y3148039D01*
X64589902Y3071827D01*
X64593399Y3005618D01*
X64597427Y2948054D01*
X64602020Y2897772D01*
X64607207Y2853411D01*
X64613021Y2813611D01*
X64619493Y2777009D01*
X64626655Y2742244D01*
X64634538Y2707956D01*
X64643173Y2672784D01*
X64649033Y2649482D01*
X64725466Y2403831D01*
X64826608Y2171587D01*
X64950819Y1954153D01*
X65096459Y1752933D01*
X65261889Y1569331D01*
X65445466Y1404749D01*
X65645552Y1260593D01*
X65860506Y1138266D01*
X66088688Y1039171D01*
X66328457Y964713D01*
X66578174Y916295D01*
X66688861Y903772D01*
X66716027Y902652D01*
X66770936Y901582D01*
X66852271Y900560D01*
X66958714Y899589D01*
X67088946Y898666D01*
X67241650Y897794D01*
X67415508Y896971D01*
X67609202Y896198D01*
X67821414Y895475D01*
X68050826Y894802D01*
X68296119Y894179D01*
X68555977Y893607D01*
X68829080Y893086D01*
X69114111Y892615D01*
X69409752Y892195D01*
X69714685Y891826D01*
X70027592Y891508D01*
X70347155Y891241D01*
X70672055Y891026D01*
X71000976Y890862D01*
X71332599Y890749D01*
X71665605Y890689D01*
X71998678Y890680D01*
X72330499Y890723D01*
X72659750Y890818D01*
X72985112Y890966D01*
X73305269Y891166D01*
X73618902Y891418D01*
X73924693Y891723D01*
X74221324Y892081D01*
X74507477Y892492D01*
X74781834Y892956D01*
X75043077Y893472D01*
X75289889Y894043D01*
X75520950Y894666D01*
X75734944Y895343D01*
X75930552Y896074D01*
X76106456Y896859D01*
X76261338Y897697D01*
X76393881Y898590D01*
X76502766Y899537D01*
X76586674Y900538D01*
X76644289Y901594D01*
X76674293Y902704D01*
X76675372Y902788D01*
X76935900Y938612D01*
X77186104Y1001338D01*
X77424980Y1090517D01*
X77651520Y1205698D01*
X77864718Y1346432D01*
X78063567Y1512270D01*
X78085079Y1532557D01*
X78266157Y1724546D01*
X78421566Y1930127D01*
X78551171Y2149015D01*
X78654835Y2380923D01*
X78732424Y2625565D01*
X78783801Y2882654D01*
X78802339Y3047023D01*
X78804386Y3087958D01*
X78806224Y3157432D01*
X78807850Y3254920D01*
X78809263Y3379901D01*
X78810460Y3531851D01*
X78811441Y3710247D01*
X78812203Y3914566D01*
X78812744Y4144286D01*
X78813062Y4398883D01*
X78813156Y4677835D01*
X78813023Y4980617D01*
X78812662Y5306709D01*
X78812071Y5655585D01*
X78811949Y5716215D01*
X78811315Y6035574D01*
X78810751Y6327264D01*
X78810214Y6592677D01*
X78809659Y6833204D01*
X78809041Y7050238D01*
X78808317Y7245172D01*
X78807442Y7419397D01*
X78806371Y7574305D01*
X78805061Y7711289D01*
X78803468Y7831741D01*
X78801546Y7937052D01*
X78799252Y8028615D01*
X78796541Y8107823D01*
X78793369Y8176066D01*
X78789692Y8234738D01*
X78785465Y8285231D01*
X78780644Y8328936D01*
X78775185Y8367246D01*
X78769044Y8401553D01*
X78762176Y8433249D01*
X78754537Y8463726D01*
X78746083Y8494376D01*
X78736769Y8526592D01*
X78726551Y8561766D01*
X78720766Y8582040D01*
X78640798Y8813098D01*
X78534410Y9036991D01*
X78404043Y9249954D01*
X78252139Y9448222D01*
X78081140Y9628031D01*
X77989233Y9709845D01*
X77789351Y9860867D01*
X77577138Y9987859D01*
X77350280Y10091909D01*
X77106459Y10174103D01*
X76887402Y10226939D01*
X76874707Y10229288D01*
X76859969Y10231493D01*
X76842256Y10233559D01*
X76820640Y10235493D01*
X76794192Y10237299D01*
X76761981Y10238983D01*
X76723079Y10240551D01*
X76676555Y10242008D01*
X76621481Y10243360D01*
X76556926Y10244612D01*
X76481962Y10245771D01*
X76395659Y10246841D01*
X76297087Y10247828D01*
X76185317Y10248738D01*
X76059420Y10249577D01*
X75918465Y10250349D01*
X75761524Y10251061D01*
X75587668Y10251718D01*
X75395965Y10252325D01*
X75185488Y10252889D01*
X74955306Y10253414D01*
X74704491Y10253907D01*
X74432112Y10254373D01*
X74137240Y10254817D01*
X73818946Y10255245D01*
X73476301Y10255663D01*
X73108373Y10256076D01*
X72714236Y10256490D01*
X72292958Y10256910D01*
X71843610Y10257342D01*
X71812317Y10257372D01*
X71309091Y10257814D01*
X70834494Y10258158D01*
X70388092Y10258404D01*
X69969454Y10258550D01*
X69578146Y10258596D01*
X69213736Y10258540D01*
X68875791Y10258383D01*
X68563877Y10258121D01*
X68277562Y10257756D01*
X68016413Y10257286D01*
X67779998Y10256709D01*
X67567884Y10256025D01*
X67379637Y10255234D01*
X67214824Y10254333D01*
X67073014Y10253323D01*
X66953774Y10252202D01*
X66856669Y10250969D01*
X66781268Y10249623D01*
X66727138Y10248164D01*
X66693846Y10246590D01*
X66689109Y10246213D01*
X66474027Y10217334D01*
X66266002Y10168994D01*
X66156167Y10135312D01*
X66100692Y10116479D01*
X66067289Y10102293D01*
X66050362Y10088505D01*
X66044315Y10070864D01*
X66043552Y10049755D01*
X66040225Y10015540D01*
X66031245Y9961498D01*
X66018110Y9895970D01*
X66007103Y9847119D01*
X65990558Y9783365D01*
X65970904Y9721836D01*
X65945711Y9656503D01*
X65912549Y9581334D01*
X65868986Y9490299D01*
X65838464Y9428790D01*
X65762185Y9272472D01*
X65698441Y9133514D01*
X65647885Y9013510D01*
X65611168Y8914053D01*
X65588941Y8836734D01*
X65583212Y8804898D01*
X65583884Y8719638D01*
X65603410Y8617962D01*
X65639893Y8503801D01*
X65691437Y8381087D01*
X65756146Y8253752D01*
X65832124Y8125726D01*
X65917474Y8000942D01*
X66010301Y7883332D01*
X66048809Y7839497D01*
X66089815Y7792027D01*
X66111555Y7760397D01*
X66116273Y7740904D01*
X66112560Y7734148D01*
X66097282Y7722461D01*
X66078310Y7719206D01*
X66049181Y7725341D01*
X66003433Y7741821D01*
X65969771Y7755266D01*
X65878453Y7802755D01*
X65779955Y7872378D01*
X65678807Y7959671D01*
X65579542Y8060171D01*
X65486689Y8169415D01*
X65404781Y8282937D01*
X65360281Y8355628D01*
X65330853Y8414412D01*
X65299177Y8488607D01*
X65270516Y8565551D01*
X65260825Y8595056D01*
X65240213Y8663716D01*
X65227791Y8716022D01*
X65222164Y8763052D01*
X65221935Y8815889D01*
X65225205Y8877786D01*
X65229153Y8932377D01*
X65234443Y8976141D01*
X65243154Y9015733D01*
X65257360Y9057810D01*
X65279140Y9109027D01*
X65310569Y9176039D01*
X65332411Y9221399D01*
X65375453Y9307713D01*
X65427919Y9408646D01*
X65484323Y9513875D01*
X65539174Y9613076D01*
X65561510Y9652341D01*
X65604730Y9727616D01*
X65643834Y9795937D01*
X65676131Y9852589D01*
X65698932Y9892853D01*
X65708915Y9910819D01*
X65709227Y9922484D01*
X65690000Y9917499D01*
X65654089Y9897742D01*
X65604350Y9865085D01*
X65543637Y9821405D01*
X65474805Y9768577D01*
X65400709Y9708475D01*
X65400225Y9708071D01*
X65222967Y9541986D01*
X65062821Y9354455D01*
X64922095Y9149040D01*
X64803096Y8929306D01*
X64708134Y8698816D01*
X64670882Y8582356D01*
X64660200Y8546027D01*
X64650432Y8513110D01*
X64641538Y8482228D01*
X64633472Y8452006D01*
X64626192Y8421068D01*
X64619654Y8388040D01*
X64613815Y8351544D01*
X64608632Y8310207D01*
X64604062Y8262651D01*
X64600061Y8207502D01*
X64596586Y8143384D01*
X64593593Y8068922D01*
X64591040Y7982739D01*
X64588883Y7883460D01*
X64587078Y7769710D01*
X64585583Y7640112D01*
X64584355Y7493293D01*
X64583349Y7327874D01*
X64582523Y7142483D01*
X64581833Y6935741D01*
X64581236Y6706275D01*
X64580689Y6452708D01*
X64580148Y6173665D01*
X64579571Y5867770D01*
X64579184Y5668596D01*
X64578538Y5338451D01*
X64577983Y5036005D01*
X64577551Y4759900D01*
X64577273Y4508772D01*
X64577181Y4281261D01*
X64255609Y4281261D01*
X64255107Y4394375D01*
X64254313Y4627677D01*
X64253721Y4868016D01*
X64253331Y5113555D01*
X64253141Y5362459D01*
X64253152Y5612893D01*
X64253362Y5863020D01*
X64253772Y6111007D01*
X64254380Y6355016D01*
X64255186Y6593214D01*
X64256190Y6823764D01*
X64257391Y7044831D01*
X64258788Y7254579D01*
X64260381Y7451174D01*
X64262169Y7632779D01*
X64264152Y7797559D01*
X64266329Y7943679D01*
X64268700Y8069304D01*
X64271265Y8172598D01*
X64274021Y8251725D01*
X64276970Y8304850D01*
X64278957Y8324351D01*
X64332936Y8592312D01*
X64413212Y8851016D01*
X64518448Y9098619D01*
X64647305Y9333279D01*
X64798446Y9553152D01*
X64970533Y9756396D01*
X65162229Y9941167D01*
X65372194Y10105623D01*
X65599093Y10247920D01*
X65721580Y10311698D01*
X65790727Y10346190D01*
X65837761Y10374122D01*
X65866895Y10401241D01*
X65882343Y10433295D01*
X65888319Y10476032D01*
X65889037Y10535200D01*
X65888999Y10540078D01*
X65889683Y10589471D01*
X65895458Y10614790D01*
X65910391Y10621002D01*
X65938549Y10613076D01*
G37*
G04 #@! TO.C,P2*
X29670000Y58830000D02*
X29670000Y56170000D01*
X29964462Y56170000D02*
X29670000Y56170000D01*
X29975627Y58830000D02*
X29670000Y58830000D01*
X32024373Y56170000D02*
X32330000Y56170000D01*
X32035538Y58830000D02*
X32330000Y58830000D01*
X32330000Y56170000D02*
X32330000Y58830000D01*
G04 #@! TO.C,U4*
X60060000Y72562500D02*
X60060000Y76012500D01*
X60060000Y72562500D02*
X60060000Y70612500D01*
X54940000Y72562500D02*
X54940000Y74512500D01*
X54940000Y72562500D02*
X54940000Y70612500D01*
D14*
G04 #@! TO.C,C13*
X17474986Y14960000D02*
X16725001Y14960000D01*
D15*
G04 #@! TO.C,C31*
X53140000Y74892164D02*
X53140000Y75107836D01*
X53860000Y74892164D02*
X53860000Y75107836D01*
G04 #@! TO.C,F4*
X20880000Y19400000D02*
X20880000Y14550000D01*
X18880000Y19400000D02*
X18880000Y14550000D01*
X20880000Y19450000D02*
G75*
G03*
X18880000Y19450000I-1000000J0D01*
G01*
X18880000Y14550000D02*
G75*
G03*
X20880000Y14550000I1000000J0D01*
G01*
D14*
G04 #@! TO.C,C11*
X1474986Y18460000D02*
X725001Y18460000D01*
D15*
G04 #@! TO.C,J7*
X82800000Y140000D02*
X85210000Y140000D01*
X85210000Y140000D02*
X85210000Y2550000D01*
X79790000Y440000D02*
X84910000Y440000D01*
X84910000Y440000D02*
X84910000Y14560000D01*
X84910000Y14560000D02*
X83910000Y15560000D01*
X79790000Y15560000D02*
X79790000Y440000D01*
X83910000Y15560000D02*
X79790000Y15560000D01*
G04 #@! TO.C,Q16*
X31090000Y33400000D02*
X31090000Y39410000D01*
X37910000Y35650000D02*
X37910000Y39410000D01*
X31090000Y39410000D02*
X32350000Y39410000D01*
X37910000Y39410000D02*
X36650000Y39410000D01*
G04 #@! TO.C,P4*
X61170000Y8830000D02*
X61170000Y6170000D01*
X61464462Y6170000D02*
X61170000Y6170000D01*
X61475627Y8830000D02*
X61170000Y8830000D01*
X63524373Y6170000D02*
X63830000Y6170000D01*
X63535538Y8830000D02*
X63830000Y8830000D01*
X63830000Y6170000D02*
X63830000Y8830000D01*
G04 #@! TO.C,P5*
X42170000Y32830000D02*
X42170000Y30170000D01*
X42464462Y30170000D02*
X42170000Y30170000D01*
X42475627Y32830000D02*
X42170000Y32830000D01*
X44524373Y30170000D02*
X44830000Y30170000D01*
X44535538Y32830000D02*
X44830000Y32830000D01*
X44830000Y30170000D02*
X44830000Y32830000D01*
D14*
G04 #@! TO.C,M3*
X51975000Y77375000D02*
X45575000Y77375000D01*
X42375000Y77375000D02*
X43675000Y77375000D01*
X42375000Y77375000D02*
X42375000Y62375000D01*
X51975000Y62975000D02*
X51975000Y77375000D01*
X42375000Y62375000D02*
X47475000Y62375000D01*
D10*
G04 #@! TO.C,J8*
X56350000Y800000D02*
X56350000Y8600000D01*
X56950000Y800000D02*
X56350000Y800000D01*
X59850000Y800000D02*
X60450000Y800000D01*
X60450000Y800000D02*
X60450000Y8600000D01*
X60750000Y2600000D02*
X60750000Y3600000D01*
X56350000Y8600000D02*
X56950000Y8600000D01*
X60450000Y8600000D02*
X59850000Y8600000D01*
D15*
G04 #@! TO.C,F3*
X23500000Y19400000D02*
X23500000Y14550000D01*
X21500000Y19400000D02*
X21500000Y14550000D01*
X23500000Y19450000D02*
G75*
G03*
X21500000Y19450000I-1000000J0D01*
G01*
X21500000Y14550000D02*
G75*
G03*
X23500000Y14550000I1000000J0D01*
G01*
D14*
G04 #@! TO.C,M2*
X79675002Y81925000D02*
X79675002Y72825000D01*
X76574999Y81925000D02*
X77575001Y81925000D01*
X76574999Y81925000D02*
X76574999Y72825000D01*
G04 #@! TO.C,C25*
X7250014Y5500000D02*
X7999999Y5500000D01*
D15*
G04 #@! TO.C,R4*
X34917933Y81635000D02*
X39272061Y81635000D01*
X34917933Y78215000D02*
X39272061Y78215000D01*
D14*
G04 #@! TO.C,M1*
X24724999Y15324999D02*
X24724999Y18525002D01*
X24724999Y3224999D02*
X24724999Y13625001D01*
X24724999Y1324999D02*
X24724999Y1624999D01*
X24724999Y1324999D02*
X40124999Y1324999D01*
X26224999Y21924997D02*
X41524998Y21924999D01*
X41524996Y15225001D02*
X41524996Y20025001D01*
X41524996Y9024999D02*
X41524996Y11724999D01*
X41524996Y6325001D02*
X41524996Y7425004D01*
X41524996Y2774999D02*
X41525001Y4324999D01*
X41524998Y21625001D02*
X41524998Y21924999D01*
D15*
G04 #@! TO.C,Q12*
X25970000Y24050000D02*
X25970000Y24320000D01*
X25970000Y24320000D02*
X28800000Y24320000D01*
X25970000Y30680000D02*
X27070000Y30680000D01*
X25970000Y30950000D02*
X25970000Y30680000D01*
X19550000Y24050000D02*
X25970000Y24050000D01*
X19550000Y30950000D02*
X25970000Y30950000D01*
D14*
G04 #@! TO.C,M7*
X37572479Y54575001D02*
X37611326Y43400001D01*
X31874998Y54575001D02*
X37572479Y54575001D01*
X31874998Y54575001D02*
X31599994Y54299997D01*
X30725000Y54299997D02*
X31599994Y54299997D01*
X30725000Y54299997D02*
X30724997Y54299995D01*
X30724997Y54299995D02*
X30724997Y43400001D01*
X30724997Y43400001D02*
X37611326Y43400001D01*
D15*
G04 #@! TO.C,Q4*
X21900000Y73410000D02*
X27910000Y73410000D01*
X24150000Y66590000D02*
X27910000Y66590000D01*
X27910000Y73410000D02*
X27910000Y72150000D01*
X27910000Y66590000D02*
X27910000Y67850000D01*
D16*
G04 #@! TO.C,R9*
X16754160Y18161056D02*
X16754149Y17761057D01*
X17499995Y18160000D02*
X17499985Y17760000D01*
D15*
G04 #@! TO.C,C32*
X53860000Y72607836D02*
X53860000Y72392164D01*
X53140000Y72607836D02*
X53140000Y72392164D01*
G04 #@! TO.C,J5*
X-4735000Y38790000D02*
X-4735000Y60500000D01*
X8285000Y38790000D02*
X-4735000Y38790000D01*
X8975000Y39000000D02*
X9275000Y39600000D01*
X9575000Y39000000D02*
X8975000Y39000000D01*
X8285000Y39600000D02*
X8285000Y38790000D01*
X9275000Y39600000D02*
X9575000Y39000000D01*
X11385000Y41300000D02*
X12665000Y41300000D01*
X11385000Y41900000D02*
X12665000Y41900000D01*
X8275000Y43210000D02*
X8275000Y44190000D01*
X11385000Y45500000D02*
X12665000Y45500000D01*
X11385000Y46100000D02*
X12665000Y46100000D01*
X8275000Y47410000D02*
X8275000Y48390000D01*
X11385000Y49700000D02*
X12665000Y49700000D01*
X11385000Y50300000D02*
X12665000Y50300000D01*
X8275000Y51610000D02*
X8275000Y52590000D01*
X11385000Y53900000D02*
X12665000Y53900000D01*
X11385000Y54500000D02*
X12665000Y54500000D01*
X8275000Y55810000D02*
X8275000Y56790000D01*
X11385000Y58100000D02*
X12665000Y58100000D01*
X11385000Y58700000D02*
X12665000Y58700000D01*
X8275000Y60010000D02*
X8275000Y60990000D01*
X11385000Y62300000D02*
X12665000Y62300000D01*
X11385000Y62900000D02*
X12665000Y62900000D01*
X8275000Y64210000D02*
X8275000Y65190000D01*
X11385000Y66500000D02*
X12665000Y66500000D01*
X11385000Y67100000D02*
X12665000Y67100000D01*
X8275000Y68410000D02*
X8275000Y69390000D01*
X11385000Y70700000D02*
X12665000Y70700000D01*
X11385000Y71300000D02*
X12665000Y71300000D01*
X8275000Y72610000D02*
X8275000Y73590000D01*
X11385000Y74900000D02*
X12665000Y74900000D01*
X11385000Y75500000D02*
X12665000Y75500000D01*
X8275000Y76810000D02*
X8275000Y77790000D01*
X11385000Y79100000D02*
X12665000Y79100000D01*
X11385000Y79700000D02*
X12665000Y79700000D01*
X8285000Y81400000D02*
X8285000Y82210000D01*
X-4735000Y82210000D02*
X-4735000Y60500000D01*
X8285000Y82210000D02*
X-4735000Y82210000D01*
G04 #@! TO.C,Q9*
X25970000Y45050000D02*
X25970000Y45320000D01*
X25970000Y45320000D02*
X28800000Y45320000D01*
X25970000Y51680000D02*
X27070000Y51680000D01*
X25970000Y51950000D02*
X25970000Y51680000D01*
X19550000Y45050000D02*
X25970000Y45050000D01*
X19550000Y51950000D02*
X25970000Y51950000D01*
D14*
G04 #@! TO.C,U5*
X99000000Y7500000D02*
X86300000Y7500000D01*
X99000000Y14180000D02*
X99000000Y7500000D01*
X99000000Y33820000D02*
X99000000Y34750000D01*
X99000000Y34750000D02*
X86300000Y34750000D01*
D17*
X96419281Y18974468D02*
X96419281Y18974468D01*
X96419281Y18974468D02*
X96414773Y18796175D01*
X96419281Y23665531D02*
X96419281Y18974468D01*
X96419281Y23665531D02*
X96419281Y23665531D01*
X96414773Y18796175D02*
X96401393Y18620221D01*
X96414773Y23843825D02*
X96419281Y23665531D01*
X96401393Y18620221D02*
X96379360Y18446826D01*
X96401393Y24019778D02*
X96414773Y23843825D01*
X96379360Y18446826D02*
X96348890Y18276207D01*
X96379360Y24193173D02*
X96401393Y24019778D01*
X96348890Y18276207D02*
X96310202Y18108581D01*
X96348890Y24363792D02*
X96379360Y24193173D01*
X96310202Y18108581D02*
X96263514Y17944167D01*
X96310202Y24531418D02*
X96348890Y24363792D01*
X96263514Y17944167D02*
X96209043Y17783182D01*
X96263514Y24695832D02*
X96310202Y24531418D01*
X96209043Y17783182D02*
X96147006Y17625844D01*
X96209043Y24856817D02*
X96263514Y24695832D01*
X96147006Y17625844D02*
X96077622Y17472370D01*
X96147006Y25014156D02*
X96209043Y24856817D01*
X96077622Y17472370D02*
X96001108Y17322978D01*
X96077622Y25167629D02*
X96147006Y25014156D01*
X96001108Y17322978D02*
X95917682Y17177886D01*
X96001108Y25317021D02*
X96077622Y25167629D01*
X95917682Y17177886D02*
X95827562Y17037311D01*
X95917682Y25462113D02*
X96001108Y25317021D01*
X95827562Y17037311D02*
X95730964Y16901472D01*
X95827562Y25602688D02*
X95917682Y25462113D01*
X95730964Y16901472D02*
X95628108Y16770586D01*
X95730964Y25738527D02*
X95827562Y25602688D01*
X95628108Y16770586D02*
X95519210Y16644870D01*
X95628108Y25869413D02*
X95730964Y25738527D01*
X95519210Y16644870D02*
X95404488Y16524543D01*
X95519210Y25995129D02*
X95628108Y25869413D01*
X95404488Y16524543D02*
X95284161Y16409821D01*
X95404488Y26115456D02*
X95519210Y25995129D01*
X95284161Y16409821D02*
X95158445Y16300923D01*
X95284161Y26230178D02*
X95404488Y26115456D01*
X95158445Y16300923D02*
X95027559Y16198067D01*
X95158445Y26339076D02*
X95284161Y26230178D01*
X95027559Y16198067D02*
X94891720Y16101469D01*
X95027559Y26441932D02*
X95158445Y26339076D01*
X94891720Y16101469D02*
X94751145Y16011349D01*
X94891720Y26538529D02*
X95027559Y26441932D01*
X94751145Y16011349D02*
X94606053Y15927923D01*
X94751145Y26628650D02*
X94891720Y26538529D01*
X94606053Y15927923D02*
X94456661Y15851409D01*
X94606053Y26712076D02*
X94751145Y26628650D01*
X94550000Y19438812D02*
X90918594Y23094031D01*
X94456661Y15851409D02*
X94303187Y15782025D01*
X94456661Y26788590D02*
X94606053Y26712076D01*
X94303187Y15782025D02*
X94145849Y15719988D01*
X94303187Y26857974D02*
X94456661Y26788590D01*
X94145849Y15719988D02*
X93984864Y15665517D01*
X94145849Y26920011D02*
X94303187Y26857974D01*
X93984864Y15665517D02*
X93820450Y15618829D01*
X93984864Y26974482D02*
X94145849Y26920011D01*
X93820450Y15618829D02*
X93652824Y15580141D01*
X93820450Y27021170D02*
X93984864Y26974482D01*
X93652824Y15580141D02*
X93482205Y15549671D01*
X93652824Y27059858D02*
X93820450Y27021170D01*
X93482205Y15549671D02*
X93308810Y15527638D01*
X93482205Y27090327D02*
X93652824Y27059858D01*
X93308810Y15527638D02*
X93132856Y15514258D01*
X93308810Y27112361D02*
X93482205Y27090327D01*
X93132856Y15514258D02*
X92954563Y15509750D01*
X93132856Y27125741D02*
X93308810Y27112361D01*
X92954563Y15509750D02*
X92954563Y15509750D01*
X92954563Y15509750D02*
X92954563Y15509750D01*
X92954563Y15509750D02*
X92264000Y15509750D01*
X92954563Y27130249D02*
X93132856Y27125741D01*
X92954563Y27130249D02*
X92954563Y27130249D01*
X92668813Y17640969D02*
X92668813Y17640969D01*
X92668813Y17640969D02*
X90918594Y19665031D01*
X92668813Y25213343D02*
X92668813Y17640969D01*
X92668813Y25213343D02*
X92668813Y25213343D01*
X92264000Y15509750D02*
X92264000Y15509750D01*
X92264000Y15509750D02*
X92085706Y15514258D01*
X92264000Y27130249D02*
X92954563Y27130249D01*
X92264000Y27130249D02*
X92264000Y27130249D01*
X92085706Y15514258D02*
X91909753Y15527638D01*
X92085706Y27125741D02*
X92264000Y27130249D01*
X91909753Y15527638D02*
X91736357Y15549671D01*
X91909753Y27112361D02*
X92085706Y27125741D01*
X91736357Y15549671D02*
X91565738Y15580141D01*
X91736357Y27090327D02*
X91909753Y27112361D01*
X91565738Y15580141D02*
X91398113Y15618829D01*
X91565738Y27059858D02*
X91736357Y27090327D01*
X91398113Y15618829D02*
X91233699Y15665517D01*
X91398113Y27021170D02*
X91565738Y27059858D01*
X91233699Y15665517D02*
X91072713Y15719988D01*
X91233699Y26974482D02*
X91398113Y27021170D01*
X91072713Y15719988D02*
X90915375Y15782025D01*
X91072713Y26920011D02*
X91233699Y26974482D01*
X90918594Y19665031D02*
X94550000Y23225000D01*
X90918594Y19665031D02*
X90918594Y19665031D01*
X90918594Y23094031D02*
X92668813Y25213343D01*
X90918594Y23094031D02*
X90918594Y23094031D01*
X90915375Y15782025D02*
X90761901Y15851409D01*
X90915375Y26857974D02*
X91072713Y26920011D01*
X90761901Y15851409D02*
X90612509Y15927923D01*
X90761901Y26788590D02*
X90915375Y26857974D01*
X90612509Y15927923D02*
X90467417Y16011349D01*
X90612509Y26712076D02*
X90761901Y26788590D01*
X90467417Y16011349D02*
X90326843Y16101469D01*
X90467417Y26628650D02*
X90612509Y26712076D01*
X90326843Y16101469D02*
X90191003Y16198067D01*
X90326843Y26538529D02*
X90467417Y26628650D01*
X90191003Y16198067D02*
X90060117Y16300923D01*
X90191003Y26441932D02*
X90326843Y26538529D01*
X90060117Y16300923D02*
X89934401Y16409821D01*
X90060117Y26339076D02*
X90191003Y26441932D01*
X89934401Y16409821D02*
X89814074Y16524543D01*
X89934401Y26230178D02*
X90060117Y26339076D01*
X89814074Y16524543D02*
X89699352Y16644870D01*
X89814074Y26115456D02*
X89934401Y26230178D01*
X89699352Y16644870D02*
X89590454Y16770586D01*
X89699352Y25995129D02*
X89814074Y26115456D01*
X89590454Y16770586D02*
X89487598Y16901472D01*
X89590454Y25869413D02*
X89699352Y25995129D01*
X89487598Y16901472D02*
X89391001Y17037311D01*
X89487598Y25738527D02*
X89590454Y25869413D01*
X89391001Y17037311D02*
X89300880Y17177886D01*
X89391001Y25602688D02*
X89487598Y25738527D01*
X89300880Y17177886D02*
X89217454Y17322978D01*
X89300880Y25462113D02*
X89391001Y25602688D01*
X89217454Y17322978D02*
X89140940Y17472370D01*
X89217454Y25317021D02*
X89300880Y25462113D01*
X89140940Y17472370D02*
X89071556Y17625844D01*
X89140940Y25167629D02*
X89217454Y25317021D01*
X89071556Y17625844D02*
X89009519Y17783182D01*
X89071556Y25014156D02*
X89140940Y25167629D01*
X89009519Y17783182D02*
X88955048Y17944167D01*
X89009519Y24856817D02*
X89071556Y25014156D01*
X88955048Y17944167D02*
X88908360Y18108581D01*
X88955048Y24695832D02*
X89009519Y24856817D01*
X88908360Y18108581D02*
X88869672Y18276207D01*
X88908360Y24531418D02*
X88955048Y24695832D01*
X88869672Y18276207D02*
X88839203Y18446826D01*
X88869672Y24363792D02*
X88908360Y24531418D01*
X88839203Y18446826D02*
X88817169Y18620221D01*
X88839203Y24193173D02*
X88869672Y24363792D01*
X88817169Y18620221D02*
X88803789Y18796175D01*
X88817169Y24019778D02*
X88839203Y24193173D01*
X88803789Y18796175D02*
X88799281Y18974468D01*
X88803789Y23843825D02*
X88817169Y24019778D01*
X88799281Y18974468D02*
X88799281Y18974468D01*
X88799281Y18974468D02*
X88799281Y23665531D01*
X88799281Y23665531D02*
X88803789Y23843825D01*
X88799281Y23665531D02*
X88799281Y23665531D01*
D14*
X86300000Y7500000D02*
X86300000Y14180000D01*
X86300000Y34750000D02*
X86300000Y33820000D01*
X100750000Y14825000D02*
G75*
G03*
X100750000Y14825000I-100000J0D01*
G01*
D15*
G04 #@! TO.C,L2*
X59010000Y78450279D02*
X59010000Y78124721D01*
X57990000Y78450279D02*
X57990000Y78124721D01*
G04 #@! TO.C,J3*
X104735000Y82010000D02*
X104735000Y75000000D01*
X91715000Y82010000D02*
X104735000Y82010000D01*
X91025000Y81800000D02*
X90725000Y81200000D01*
X90425000Y81800000D02*
X91025000Y81800000D01*
X91715000Y81200000D02*
X91715000Y82010000D01*
X90725000Y81200000D02*
X90425000Y81800000D01*
X88615000Y79500000D02*
X87335000Y79500000D01*
X88615000Y78900000D02*
X87335000Y78900000D01*
X91725000Y77590000D02*
X91725000Y76610000D01*
X88615000Y75300000D02*
X87335000Y75300000D01*
X88615000Y74700000D02*
X87335000Y74700000D01*
X91725000Y73390000D02*
X91725000Y72410000D01*
X88615000Y71100000D02*
X87335000Y71100000D01*
X88615000Y70500000D02*
X87335000Y70500000D01*
X91715000Y68800000D02*
X91715000Y67990000D01*
X104735000Y67990000D02*
X104735000Y75000000D01*
X91715000Y67990000D02*
X104735000Y67990000D01*
D16*
G04 #@! TO.C,R13*
X19298944Y72129160D02*
X19698943Y72129149D01*
X19300000Y72874995D02*
X19700000Y72874985D01*
D15*
G04 #@! TO.C,F1*
X82500000Y79900000D02*
X82500000Y75050000D01*
X80500000Y79900000D02*
X80500000Y75050000D01*
X82500000Y79950000D02*
G75*
G03*
X80500000Y79950000I-1000000J0D01*
G01*
X80500000Y75050000D02*
G75*
G03*
X82500000Y75050000I1000000J0D01*
G01*
G04 #@! TO.C,G3*
X38484000Y48944000D02*
X45596000Y48944000D01*
X45596000Y48944000D02*
X45596000Y61136000D01*
X45596000Y61136000D02*
X38484000Y61136000D01*
X38484000Y61136000D02*
X38484000Y48944000D01*
G04 #@! TO.C,P3*
X61170000Y3830000D02*
X61170000Y1170000D01*
X61464462Y1170000D02*
X61170000Y1170000D01*
X61475627Y3830000D02*
X61170000Y3830000D01*
X63524373Y1170000D02*
X63830000Y1170000D01*
X63535538Y3830000D02*
X63830000Y3830000D01*
X63830000Y1170000D02*
X63830000Y3830000D01*
D16*
G04 #@! TO.C,R11*
X19298944Y79629160D02*
X19698943Y79629149D01*
X19300000Y80374995D02*
X19700000Y80374985D01*
D15*
G04 #@! TO.C,D3*
X18000000Y74250000D02*
X20000000Y74250000D01*
X18000000Y74250000D02*
X18000000Y78150000D01*
X20000000Y74250000D02*
X20000000Y78150000D01*
D11*
X19000000Y75950000D02*
X19000000Y76150000D01*
X19000000Y76150000D02*
X18650000Y76850000D01*
X19000000Y76150000D02*
X19350000Y76850000D01*
X19350000Y76150000D02*
X18650000Y76150000D01*
X19000000Y76850000D02*
X19000000Y77150000D01*
X19350000Y76850000D02*
X18650000Y76850000D01*
D10*
G04 #@! TO.C,U1*
X3200000Y20850000D02*
X6600000Y20850000D01*
X5100000Y14500000D02*
X5100000Y14150000D01*
X5100000Y14150000D02*
X6650000Y14150000D01*
X12900000Y20850000D02*
X11350000Y20850000D01*
X12900000Y20500000D02*
X12900000Y20850000D01*
X12900000Y14500000D02*
X12900000Y14150000D01*
X12900000Y14150000D02*
X11350000Y14150000D01*
G04 #@! TO.C,U2*
X9825000Y11390000D02*
X13225000Y11390000D01*
X11725000Y5040000D02*
X11725000Y4690000D01*
X11725000Y4690000D02*
X13275000Y4690000D01*
X19525000Y11390000D02*
X17975000Y11390000D01*
X19525000Y11040000D02*
X19525000Y11390000D01*
X19525000Y5040000D02*
X19525000Y4690000D01*
X19525000Y4690000D02*
X17975000Y4690000D01*
D15*
G04 #@! TO.C,C28*
X59640000Y77679664D02*
X59640000Y77895336D01*
X60360000Y77679664D02*
X60360000Y77895336D01*
G04 #@! TO.C,J4*
X-4735000Y22990000D02*
X-4735000Y30000000D01*
X8285000Y22990000D02*
X-4735000Y22990000D01*
X8975000Y23200000D02*
X9275000Y23800000D01*
X9575000Y23200000D02*
X8975000Y23200000D01*
X8285000Y23800000D02*
X8285000Y22990000D01*
X9275000Y23800000D02*
X9575000Y23200000D01*
X11385000Y25500000D02*
X12665000Y25500000D01*
X11385000Y26100000D02*
X12665000Y26100000D01*
X8275000Y27410000D02*
X8275000Y28390000D01*
X11385000Y29700000D02*
X12665000Y29700000D01*
X11385000Y30300000D02*
X12665000Y30300000D01*
X8275000Y31610000D02*
X8275000Y32590000D01*
X11385000Y33900000D02*
X12665000Y33900000D01*
X11385000Y34500000D02*
X12665000Y34500000D01*
X8285000Y36200000D02*
X8285000Y37010000D01*
X-4735000Y37010000D02*
X-4735000Y30000000D01*
X8285000Y37010000D02*
X-4735000Y37010000D01*
D14*
G04 #@! TO.C,M6*
X79400010Y12300010D02*
X45600000Y12300010D01*
X79400010Y48100000D02*
X79400010Y12300010D01*
X79400010Y48100000D02*
X45600010Y48100000D01*
X45600000Y48100000D02*
X45600000Y12300010D01*
D15*
G04 #@! TO.C,L1*
X57010000Y78450279D02*
X57010000Y78124721D01*
X55990000Y78450279D02*
X55990000Y78124721D01*
G04 #@! TO.C,Q11*
X25970000Y31050000D02*
X25970000Y31320000D01*
X25970000Y31320000D02*
X28800000Y31320000D01*
X25970000Y37680000D02*
X27070000Y37680000D01*
X25970000Y37950000D02*
X25970000Y37680000D01*
X19550000Y31050000D02*
X25970000Y31050000D01*
X19550000Y37950000D02*
X25970000Y37950000D01*
G04 #@! TO.C,J9*
X45420000Y5850000D02*
X45420000Y3930000D01*
X45420000Y215000D02*
X45420000Y1920000D01*
X54580000Y3930000D02*
X54580000Y5850000D01*
X54580000Y1920000D02*
X54580000Y215000D01*
X54580000Y215000D02*
X45420000Y215000D01*
D14*
G04 #@! TO.C,M4*
X40925000Y77375000D02*
X34525000Y77375000D01*
X31325000Y77375000D02*
X32625000Y77375000D01*
X31325000Y77375000D02*
X31325000Y62375000D01*
X40925000Y62975000D02*
X40925000Y77375000D01*
X31325000Y62375000D02*
X36425000Y62375000D01*
G04 #@! TO.C,G1*
D18*
X89378460Y6840100D02*
X89680720Y6824860D01*
X89909320Y6789300D01*
X90117600Y6723260D01*
X90353820Y6616580D01*
X90440180Y6573400D01*
X90976120Y6235580D01*
X91479040Y5788540D01*
X91887980Y5283080D01*
X91956560Y5171320D01*
X92147060Y4853820D01*
X91639060Y4853820D01*
X91326640Y4841120D01*
X91148840Y4795400D01*
X91085340Y4729360D01*
X91100580Y4620140D01*
X91171700Y4602360D01*
X91263140Y4559180D01*
X91265680Y4406780D01*
X91258060Y4368680D01*
X91222500Y4185800D01*
X91169160Y3886080D01*
X91100580Y3517780D01*
X91062480Y3296800D01*
X90983740Y2895480D01*
X90915160Y2633860D01*
X90846580Y2484000D01*
X90770380Y2423040D01*
X90760220Y2420500D01*
X90747520Y2415420D01*
X90615440Y2359540D01*
X90623060Y2301120D01*
X90762760Y2255400D01*
X91019300Y2232540D01*
X91115820Y2230000D01*
X91387600Y2242700D01*
X91570480Y2275720D01*
X91623820Y2313820D01*
X91555240Y2390020D01*
X91496820Y2400180D01*
X91435860Y2405260D01*
X91397760Y2435740D01*
X91387600Y2517020D01*
X91402840Y2677040D01*
X91446020Y2938660D01*
X91522220Y3327280D01*
X91573020Y3581280D01*
X91677160Y4063880D01*
X91773680Y4394080D01*
X91854960Y4564260D01*
X91885440Y4587120D01*
X92032760Y4681100D01*
X92063240Y4716660D01*
X92126740Y4724280D01*
X92200400Y4592200D01*
X92274060Y4350900D01*
X92335020Y4033400D01*
X92352800Y3896240D01*
X92350260Y3200280D01*
X92195320Y2509400D01*
X91895600Y1856620D01*
X91466340Y1280040D01*
X91313940Y1122560D01*
X90800860Y706000D01*
X90275080Y429140D01*
X89688340Y274200D01*
X89127000Y225940D01*
X88532640Y231020D01*
X88072900Y299600D01*
X87943360Y335160D01*
X87265180Y637420D01*
X86678440Y1081920D01*
X86180600Y1668660D01*
X85891040Y2153800D01*
X85812891Y2313820D01*
X86079000Y2313820D01*
X86134880Y2275720D01*
X86350780Y2247780D01*
X86721620Y2232540D01*
X87046740Y2230000D01*
X88067820Y2230000D01*
X88067820Y2313820D01*
X88408180Y2313820D01*
X88484380Y2270640D01*
X88685040Y2240160D01*
X88916180Y2230000D01*
X89185420Y2242700D01*
X89368300Y2275720D01*
X89424180Y2313820D01*
X89353060Y2387480D01*
X89287020Y2400180D01*
X89205740Y2425580D01*
X89180340Y2532260D01*
X89203200Y2758320D01*
X89208280Y2791340D01*
X89254000Y3052960D01*
X89297180Y3251080D01*
X89312420Y3299340D01*
X89408940Y3370460D01*
X89584200Y3411100D01*
X89774700Y3411100D01*
X89906780Y3373000D01*
X89932180Y3329820D01*
X89972820Y3240920D01*
X90066800Y3258700D01*
X90165860Y3362840D01*
X90209040Y3479680D01*
X90229360Y3693040D01*
X90178560Y3754000D01*
X90082040Y3685420D01*
X89932180Y3616840D01*
X89708660Y3586360D01*
X89690880Y3583820D01*
X89401320Y3583820D01*
X89459740Y4025780D01*
X89500380Y4287400D01*
X89541020Y4477900D01*
X89558800Y4533780D01*
X89660400Y4569340D01*
X89878840Y4594740D01*
X90071880Y4599820D01*
X90341120Y4592200D01*
X90473200Y4561720D01*
X90501140Y4500760D01*
X90493520Y4475360D01*
X90503680Y4363600D01*
X90559560Y4345820D01*
X90651000Y4422020D01*
X90709420Y4597280D01*
X90711960Y4599820D01*
X90747520Y4853820D01*
X89789940Y4853820D01*
X89365760Y4851280D01*
X89083820Y4838580D01*
X88918720Y4813180D01*
X88845060Y4772540D01*
X88829820Y4726820D01*
X88898400Y4615060D01*
X88956820Y4599820D01*
X89015240Y4604900D01*
X89053340Y4597280D01*
X89068580Y4554100D01*
X89060960Y4449960D01*
X89025400Y4254380D01*
X88964440Y3947040D01*
X88873000Y3500000D01*
X88791720Y3103760D01*
X88725680Y2771020D01*
X88679960Y2537340D01*
X88662180Y2433200D01*
X88662180Y2430660D01*
X88591060Y2402720D01*
X88535180Y2400180D01*
X88461520Y2372240D01*
X88420880Y2354460D01*
X88408180Y2313820D01*
X88067820Y2313820D01*
X88067820Y2484000D01*
X88029720Y2687200D01*
X87940820Y2738000D01*
X87829060Y2674500D01*
X87813820Y2618620D01*
X87740160Y2550040D01*
X87554740Y2481460D01*
X87321060Y2428120D01*
X87095000Y2400180D01*
X86937520Y2412880D01*
X86909580Y2430660D01*
X86894340Y2532260D01*
X86901960Y2750700D01*
X86922280Y2946280D01*
X86980700Y3416180D01*
X87313440Y3416180D01*
X87521720Y3395860D01*
X87638560Y3342520D01*
X87646180Y3324740D01*
X87679200Y3240920D01*
X87755400Y3276480D01*
X87844300Y3395860D01*
X87907800Y3568580D01*
X87907800Y3571120D01*
X87925580Y3764160D01*
X87869700Y3837820D01*
X87846840Y3837820D01*
X87740160Y3789560D01*
X87730000Y3754000D01*
X87653800Y3700660D01*
X87468380Y3670180D01*
X87404880Y3670180D01*
X87082300Y3670180D01*
X87166120Y4135000D01*
X87249940Y4602360D01*
X87752860Y4599820D01*
X88034800Y4594740D01*
X88179580Y4566800D01*
X88215140Y4508380D01*
X88207520Y4472820D01*
X88217680Y4363600D01*
X88273560Y4345820D01*
X88365000Y4422020D01*
X88423420Y4597280D01*
X88425960Y4599820D01*
X88461520Y4853820D01*
X87503940Y4853820D01*
X87079760Y4851280D01*
X86797820Y4838580D01*
X86632720Y4813180D01*
X86559060Y4772540D01*
X86543820Y4726820D01*
X86612400Y4617600D01*
X86675900Y4599820D01*
X86772420Y4543940D01*
X86767340Y4452500D01*
X86734320Y4312800D01*
X86675900Y4046100D01*
X86604780Y3695580D01*
X86536200Y3352680D01*
X86434600Y2875160D01*
X86343160Y2560200D01*
X86266960Y2412880D01*
X86241560Y2400180D01*
X86101860Y2341760D01*
X86079000Y2313820D01*
X85812891Y2313820D01*
X85784360Y2372240D01*
X85715780Y2570360D01*
X85677680Y2791340D01*
X85659900Y3080900D01*
X85654820Y3489840D01*
X85654820Y3543180D01*
X85659900Y3967360D01*
X85675140Y4272160D01*
X85713240Y4503300D01*
X85779280Y4711580D01*
X85883420Y4942720D01*
X85898660Y4968120D01*
X86231400Y5496440D01*
X86683520Y5994280D01*
X87201680Y6405760D01*
X87524260Y6593720D01*
X87763020Y6702940D01*
X87968760Y6776600D01*
X88194820Y6817240D01*
X88484380Y6837560D01*
X88890780Y6842640D01*
X88959360Y6842640D01*
X89378460Y6840100D01*
G36*
X89378460Y6840100D02*
G01*
X89680720Y6824860D01*
X89909320Y6789300D01*
X90117600Y6723260D01*
X90353820Y6616580D01*
X90440180Y6573400D01*
X90976120Y6235580D01*
X91479040Y5788540D01*
X91887980Y5283080D01*
X91956560Y5171320D01*
X92147060Y4853820D01*
X91639060Y4853820D01*
X91326640Y4841120D01*
X91148840Y4795400D01*
X91085340Y4729360D01*
X91100580Y4620140D01*
X91171700Y4602360D01*
X91263140Y4559180D01*
X91265680Y4406780D01*
X91258060Y4368680D01*
X91222500Y4185800D01*
X91169160Y3886080D01*
X91100580Y3517780D01*
X91062480Y3296800D01*
X90983740Y2895480D01*
X90915160Y2633860D01*
X90846580Y2484000D01*
X90770380Y2423040D01*
X90760220Y2420500D01*
X90747520Y2415420D01*
X90615440Y2359540D01*
X90623060Y2301120D01*
X90762760Y2255400D01*
X91019300Y2232540D01*
X91115820Y2230000D01*
X91387600Y2242700D01*
X91570480Y2275720D01*
X91623820Y2313820D01*
X91555240Y2390020D01*
X91496820Y2400180D01*
X91435860Y2405260D01*
X91397760Y2435740D01*
X91387600Y2517020D01*
X91402840Y2677040D01*
X91446020Y2938660D01*
X91522220Y3327280D01*
X91573020Y3581280D01*
X91677160Y4063880D01*
X91773680Y4394080D01*
X91854960Y4564260D01*
X91885440Y4587120D01*
X92032760Y4681100D01*
X92063240Y4716660D01*
X92126740Y4724280D01*
X92200400Y4592200D01*
X92274060Y4350900D01*
X92335020Y4033400D01*
X92352800Y3896240D01*
X92350260Y3200280D01*
X92195320Y2509400D01*
X91895600Y1856620D01*
X91466340Y1280040D01*
X91313940Y1122560D01*
X90800860Y706000D01*
X90275080Y429140D01*
X89688340Y274200D01*
X89127000Y225940D01*
X88532640Y231020D01*
X88072900Y299600D01*
X87943360Y335160D01*
X87265180Y637420D01*
X86678440Y1081920D01*
X86180600Y1668660D01*
X85891040Y2153800D01*
X85812891Y2313820D01*
X86079000Y2313820D01*
X86134880Y2275720D01*
X86350780Y2247780D01*
X86721620Y2232540D01*
X87046740Y2230000D01*
X88067820Y2230000D01*
X88067820Y2313820D01*
X88408180Y2313820D01*
X88484380Y2270640D01*
X88685040Y2240160D01*
X88916180Y2230000D01*
X89185420Y2242700D01*
X89368300Y2275720D01*
X89424180Y2313820D01*
X89353060Y2387480D01*
X89287020Y2400180D01*
X89205740Y2425580D01*
X89180340Y2532260D01*
X89203200Y2758320D01*
X89208280Y2791340D01*
X89254000Y3052960D01*
X89297180Y3251080D01*
X89312420Y3299340D01*
X89408940Y3370460D01*
X89584200Y3411100D01*
X89774700Y3411100D01*
X89906780Y3373000D01*
X89932180Y3329820D01*
X89972820Y3240920D01*
X90066800Y3258700D01*
X90165860Y3362840D01*
X90209040Y3479680D01*
X90229360Y3693040D01*
X90178560Y3754000D01*
X90082040Y3685420D01*
X89932180Y3616840D01*
X89708660Y3586360D01*
X89690880Y3583820D01*
X89401320Y3583820D01*
X89459740Y4025780D01*
X89500380Y4287400D01*
X89541020Y4477900D01*
X89558800Y4533780D01*
X89660400Y4569340D01*
X89878840Y4594740D01*
X90071880Y4599820D01*
X90341120Y4592200D01*
X90473200Y4561720D01*
X90501140Y4500760D01*
X90493520Y4475360D01*
X90503680Y4363600D01*
X90559560Y4345820D01*
X90651000Y4422020D01*
X90709420Y4597280D01*
X90711960Y4599820D01*
X90747520Y4853820D01*
X89789940Y4853820D01*
X89365760Y4851280D01*
X89083820Y4838580D01*
X88918720Y4813180D01*
X88845060Y4772540D01*
X88829820Y4726820D01*
X88898400Y4615060D01*
X88956820Y4599820D01*
X89015240Y4604900D01*
X89053340Y4597280D01*
X89068580Y4554100D01*
X89060960Y4449960D01*
X89025400Y4254380D01*
X88964440Y3947040D01*
X88873000Y3500000D01*
X88791720Y3103760D01*
X88725680Y2771020D01*
X88679960Y2537340D01*
X88662180Y2433200D01*
X88662180Y2430660D01*
X88591060Y2402720D01*
X88535180Y2400180D01*
X88461520Y2372240D01*
X88420880Y2354460D01*
X88408180Y2313820D01*
X88067820Y2313820D01*
X88067820Y2484000D01*
X88029720Y2687200D01*
X87940820Y2738000D01*
X87829060Y2674500D01*
X87813820Y2618620D01*
X87740160Y2550040D01*
X87554740Y2481460D01*
X87321060Y2428120D01*
X87095000Y2400180D01*
X86937520Y2412880D01*
X86909580Y2430660D01*
X86894340Y2532260D01*
X86901960Y2750700D01*
X86922280Y2946280D01*
X86980700Y3416180D01*
X87313440Y3416180D01*
X87521720Y3395860D01*
X87638560Y3342520D01*
X87646180Y3324740D01*
X87679200Y3240920D01*
X87755400Y3276480D01*
X87844300Y3395860D01*
X87907800Y3568580D01*
X87907800Y3571120D01*
X87925580Y3764160D01*
X87869700Y3837820D01*
X87846840Y3837820D01*
X87740160Y3789560D01*
X87730000Y3754000D01*
X87653800Y3700660D01*
X87468380Y3670180D01*
X87404880Y3670180D01*
X87082300Y3670180D01*
X87166120Y4135000D01*
X87249940Y4602360D01*
X87752860Y4599820D01*
X88034800Y4594740D01*
X88179580Y4566800D01*
X88215140Y4508380D01*
X88207520Y4472820D01*
X88217680Y4363600D01*
X88273560Y4345820D01*
X88365000Y4422020D01*
X88423420Y4597280D01*
X88425960Y4599820D01*
X88461520Y4853820D01*
X87503940Y4853820D01*
X87079760Y4851280D01*
X86797820Y4838580D01*
X86632720Y4813180D01*
X86559060Y4772540D01*
X86543820Y4726820D01*
X86612400Y4617600D01*
X86675900Y4599820D01*
X86772420Y4543940D01*
X86767340Y4452500D01*
X86734320Y4312800D01*
X86675900Y4046100D01*
X86604780Y3695580D01*
X86536200Y3352680D01*
X86434600Y2875160D01*
X86343160Y2560200D01*
X86266960Y2412880D01*
X86241560Y2400180D01*
X86101860Y2341760D01*
X86079000Y2313820D01*
X85812891Y2313820D01*
X85784360Y2372240D01*
X85715780Y2570360D01*
X85677680Y2791340D01*
X85659900Y3080900D01*
X85654820Y3489840D01*
X85654820Y3543180D01*
X85659900Y3967360D01*
X85675140Y4272160D01*
X85713240Y4503300D01*
X85779280Y4711580D01*
X85883420Y4942720D01*
X85898660Y4968120D01*
X86231400Y5496440D01*
X86683520Y5994280D01*
X87201680Y6405760D01*
X87524260Y6593720D01*
X87763020Y6702940D01*
X87968760Y6776600D01*
X88194820Y6817240D01*
X88484380Y6837560D01*
X88890780Y6842640D01*
X88959360Y6842640D01*
X89378460Y6840100D01*
G37*
D15*
G04 #@! TO.C,F2*
X18600000Y23778024D02*
X23450000Y23778024D01*
X18600000Y21778024D02*
X23450000Y21778024D01*
X18550000Y23778024D02*
G75*
G03*
X18550000Y21778024I0J-1000000D01*
G01*
X23450000Y21778024D02*
G75*
G03*
X23450000Y23778024I0J1000000D01*
G01*
G04 #@! TO.C,D5*
X18000000Y66750000D02*
X20000000Y66750000D01*
X18000000Y66750000D02*
X18000000Y70650000D01*
X20000000Y66750000D02*
X20000000Y70650000D01*
D11*
X19000000Y68450000D02*
X19000000Y68650000D01*
X19000000Y68650000D02*
X18650000Y69350000D01*
X19000000Y68650000D02*
X19350000Y69350000D01*
X19350000Y68650000D02*
X18650000Y68650000D01*
X19000000Y69350000D02*
X19000000Y69650000D01*
X19350000Y69350000D02*
X18650000Y69350000D01*
D15*
G04 #@! TO.C,J6*
X99490000Y38830000D02*
X99490000Y37500000D01*
X98160000Y38830000D02*
X99490000Y38830000D01*
X96890000Y38830000D02*
X84130000Y38830000D01*
X96890000Y38830000D02*
X96890000Y36170000D01*
X84130000Y38830000D02*
X84130000Y36170000D01*
X96890000Y36170000D02*
X84130000Y36170000D01*
G04 #@! TO.C,P6*
X42170000Y5830000D02*
X42170000Y3170000D01*
X42464462Y3170000D02*
X42170000Y3170000D01*
X42475627Y5830000D02*
X42170000Y5830000D01*
X44524373Y3170000D02*
X44830000Y3170000D01*
X44535538Y5830000D02*
X44830000Y5830000D01*
X44830000Y3170000D02*
X44830000Y5830000D01*
D16*
G04 #@! TO.C,R5*
X54629160Y61201056D02*
X54629149Y60801057D01*
X55374995Y61200000D02*
X55374985Y60800000D01*
G04 #@! TO.C,R6*
X80129160Y70201056D02*
X80129149Y69801057D01*
X80874995Y70200000D02*
X80874985Y69800000D01*
G04 #@! TO.C,R14*
X23229160Y8701056D02*
X23229149Y8301057D01*
X23974995Y8700000D02*
X23974985Y8300000D01*
D15*
G04 #@! TO.C,Q17*
X31090000Y24400000D02*
X31090000Y30410000D01*
X37910000Y26650000D02*
X37910000Y30410000D01*
X31090000Y30410000D02*
X32350000Y30410000D01*
X37910000Y30410000D02*
X36650000Y30410000D01*
D19*
G04 #@! TO.C,U3*
X73143250Y75565000D02*
X78858250Y66675000D01*
X62983250Y67945000D02*
X68063250Y75565000D01*
D10*
X69993250Y67426500D02*
X63643250Y67426500D01*
X63643250Y67426500D02*
X63643250Y59806500D01*
X69358250Y64569000D02*
X69993250Y64569000D01*
X69993250Y62664000D02*
X69358250Y62664000D01*
X69358250Y62664000D02*
X69358250Y64569000D01*
D19*
X82668250Y61595000D02*
X82668250Y59055000D01*
X79493250Y61595000D02*
X82668250Y61595000D01*
D10*
X69993250Y59806500D02*
X69993250Y67426500D01*
X63643250Y59806500D02*
X69993250Y59806500D01*
D19*
X82668250Y59055000D02*
X78223250Y59055000D01*
X78223250Y59055000D02*
X73143250Y51435000D01*
X62983250Y59055000D02*
X68063250Y51435000D01*
X73143250Y74930000D02*
G75*
G03*
X73143250Y74930000I-2540000J0D01*
G01*
X79493250Y63500000D02*
G75*
G03*
X79493250Y63500000I-8890000J0D01*
G01*
X73143250Y52070000D02*
G75*
G03*
X73143250Y52070000I-2540000J0D01*
G01*
D14*
G04 #@! TO.C,C12*
X775014Y14960000D02*
X1524999Y14960000D01*
D15*
G04 #@! TO.C,G4*
X46104000Y48944000D02*
X53216000Y48944000D01*
X53216000Y48944000D02*
X53216000Y61136000D01*
X53216000Y61136000D02*
X46104000Y61136000D01*
X46104000Y61136000D02*
X46104000Y48944000D01*
G04 #@! TD*
M02*
