G04 #@! TF.GenerationSoftware,KiCad,Pcbnew,7.0.9-7.0.9~ubuntu22.04.1*
G04 #@! TF.CreationDate,2023-12-02T21:46:25+00:00*
G04 #@! TF.ProjectId,uaefi,75616566-692e-46b6-9963-61645f706362,rev?*
G04 #@! TF.SameCoordinates,Original*
G04 #@! TF.FileFunction,Legend,Top*
G04 #@! TF.FilePolarity,Positive*
%FSLAX46Y46*%
G04 Gerber Fmt 4.6, Leading zero omitted, Abs format (unit mm)*
G04 Created by KiCad (PCBNEW 7.0.9-7.0.9~ubuntu22.04.1) date 2023-12-02 21:46:25*
%MOMM*%
%LPD*%
G01*
G04 APERTURE LIST*
%ADD10C,0.150000*%
%ADD11C,0.450000*%
%ADD12C,0.200000*%
%ADD13C,0.250000*%
%ADD14C,0.304800*%
%ADD15C,0.170000*%
%ADD16C,0.127000*%
%ADD17C,0.120000*%
%ADD18C,0.203200*%
%ADD19C,0.631031*%
%ADD20C,0.002540*%
%ADD21C,0.381000*%
G04 APERTURE END LIST*
D10*
X46500000Y53800000D02*
X52900000Y53800000D01*
X46500000Y51200000D02*
X52900000Y51200000D01*
X73000000Y72000000D02*
X72800000Y71000000D01*
X38800000Y58800000D02*
X45200000Y58800000D01*
X73000000Y72000000D02*
X73600000Y71200000D01*
X74000000Y68000000D02*
X73000000Y72000000D01*
X46500000Y56200000D02*
X52900000Y56200000D01*
X38800000Y53800000D02*
X45200000Y53800000D01*
X46500000Y58800000D02*
X52900000Y58800000D01*
X74000000Y57000000D02*
X74700000Y57700000D01*
X38800000Y56200000D02*
X45200000Y56200000D01*
X74000000Y57000000D02*
X74000000Y58000000D01*
X76000000Y62000000D02*
X74000000Y57000000D01*
X36514286Y56245181D02*
X36514286Y57245181D01*
X36514286Y56768991D02*
X37085714Y56768991D01*
X37085714Y56245181D02*
X37085714Y57245181D01*
D11*
X1714285Y84206972D02*
X2142857Y84064115D01*
X2142857Y84064115D02*
X2285714Y83921258D01*
X2285714Y83921258D02*
X2428571Y83635543D01*
X2428571Y83635543D02*
X2428571Y83206972D01*
X2428571Y83206972D02*
X2285714Y82921258D01*
X2285714Y82921258D02*
X2142857Y82778400D01*
X2142857Y82778400D02*
X1857142Y82635543D01*
X1857142Y82635543D02*
X714285Y82635543D01*
X714285Y82635543D02*
X714285Y85635543D01*
X714285Y85635543D02*
X1714285Y85635543D01*
X1714285Y85635543D02*
X2000000Y85492686D01*
X2000000Y85492686D02*
X2142857Y85349829D01*
X2142857Y85349829D02*
X2285714Y85064115D01*
X2285714Y85064115D02*
X2285714Y84778400D01*
X2285714Y84778400D02*
X2142857Y84492686D01*
X2142857Y84492686D02*
X2000000Y84349829D01*
X2000000Y84349829D02*
X1714285Y84206972D01*
X1714285Y84206972D02*
X714285Y84206972D01*
D10*
X17638095Y26345181D02*
X17161905Y26345181D01*
X17161905Y26345181D02*
X17114286Y25868991D01*
X17114286Y25868991D02*
X17161905Y25916610D01*
X17161905Y25916610D02*
X17257143Y25964229D01*
X17257143Y25964229D02*
X17495238Y25964229D01*
X17495238Y25964229D02*
X17590476Y25916610D01*
X17590476Y25916610D02*
X17638095Y25868991D01*
X17638095Y25868991D02*
X17685714Y25773753D01*
X17685714Y25773753D02*
X17685714Y25535658D01*
X17685714Y25535658D02*
X17638095Y25440420D01*
X17638095Y25440420D02*
X17590476Y25392800D01*
X17590476Y25392800D02*
X17495238Y25345181D01*
X17495238Y25345181D02*
X17257143Y25345181D01*
X17257143Y25345181D02*
X17161905Y25392800D01*
X17161905Y25392800D02*
X17114286Y25440420D01*
X14609523Y80645181D02*
X14038095Y80645181D01*
X14323809Y80645181D02*
X14323809Y81645181D01*
X14323809Y81645181D02*
X14228571Y81502324D01*
X14228571Y81502324D02*
X14133333Y81407086D01*
X14133333Y81407086D02*
X14038095Y81359467D01*
X15180952Y81216610D02*
X15085714Y81264229D01*
X15085714Y81264229D02*
X15038095Y81311848D01*
X15038095Y81311848D02*
X14990476Y81407086D01*
X14990476Y81407086D02*
X14990476Y81454705D01*
X14990476Y81454705D02*
X15038095Y81549943D01*
X15038095Y81549943D02*
X15085714Y81597562D01*
X15085714Y81597562D02*
X15180952Y81645181D01*
X15180952Y81645181D02*
X15371428Y81645181D01*
X15371428Y81645181D02*
X15466666Y81597562D01*
X15466666Y81597562D02*
X15514285Y81549943D01*
X15514285Y81549943D02*
X15561904Y81454705D01*
X15561904Y81454705D02*
X15561904Y81407086D01*
X15561904Y81407086D02*
X15514285Y81311848D01*
X15514285Y81311848D02*
X15466666Y81264229D01*
X15466666Y81264229D02*
X15371428Y81216610D01*
X15371428Y81216610D02*
X15180952Y81216610D01*
X15180952Y81216610D02*
X15085714Y81168991D01*
X15085714Y81168991D02*
X15038095Y81121372D01*
X15038095Y81121372D02*
X14990476Y81026134D01*
X14990476Y81026134D02*
X14990476Y80835658D01*
X14990476Y80835658D02*
X15038095Y80740420D01*
X15038095Y80740420D02*
X15085714Y80692800D01*
X15085714Y80692800D02*
X15180952Y80645181D01*
X15180952Y80645181D02*
X15371428Y80645181D01*
X15371428Y80645181D02*
X15466666Y80692800D01*
X15466666Y80692800D02*
X15514285Y80740420D01*
X15514285Y80740420D02*
X15561904Y80835658D01*
X15561904Y80835658D02*
X15561904Y81026134D01*
X15561904Y81026134D02*
X15514285Y81121372D01*
X15514285Y81121372D02*
X15466666Y81168991D01*
X15466666Y81168991D02*
X15371428Y81216610D01*
X60585714Y93045181D02*
X60014286Y93045181D01*
X60300000Y93045181D02*
X60300000Y94045181D01*
X60300000Y94045181D02*
X60204762Y93902324D01*
X60204762Y93902324D02*
X60109524Y93807086D01*
X60109524Y93807086D02*
X60014286Y93759467D01*
D12*
X81234349Y13603280D02*
X81101016Y13674709D01*
X81101016Y13674709D02*
X80901016Y13674709D01*
X80901016Y13674709D02*
X80701016Y13603280D01*
X80701016Y13603280D02*
X80567683Y13460423D01*
X80567683Y13460423D02*
X80501016Y13317566D01*
X80501016Y13317566D02*
X80434349Y13031852D01*
X80434349Y13031852D02*
X80434349Y12817566D01*
X80434349Y12817566D02*
X80501016Y12531852D01*
X80501016Y12531852D02*
X80567683Y12388995D01*
X80567683Y12388995D02*
X80701016Y12246137D01*
X80701016Y12246137D02*
X80901016Y12174709D01*
X80901016Y12174709D02*
X81034349Y12174709D01*
X81034349Y12174709D02*
X81234349Y12246137D01*
X81234349Y12246137D02*
X81301016Y12317566D01*
X81301016Y12317566D02*
X81301016Y12817566D01*
X81301016Y12817566D02*
X81034349Y12817566D01*
X81234349Y11188280D02*
X81101016Y11259709D01*
X81101016Y11259709D02*
X80901016Y11259709D01*
X80901016Y11259709D02*
X80701016Y11188280D01*
X80701016Y11188280D02*
X80567683Y11045423D01*
X80567683Y11045423D02*
X80501016Y10902566D01*
X80501016Y10902566D02*
X80434349Y10616852D01*
X80434349Y10616852D02*
X80434349Y10402566D01*
X80434349Y10402566D02*
X80501016Y10116852D01*
X80501016Y10116852D02*
X80567683Y9973995D01*
X80567683Y9973995D02*
X80701016Y9831137D01*
X80701016Y9831137D02*
X80901016Y9759709D01*
X80901016Y9759709D02*
X81034349Y9759709D01*
X81034349Y9759709D02*
X81234349Y9831137D01*
X81234349Y9831137D02*
X81301016Y9902566D01*
X81301016Y9902566D02*
X81301016Y10402566D01*
X81301016Y10402566D02*
X81034349Y10402566D01*
X80501016Y7916137D02*
X81567683Y7916137D01*
X81034349Y7344709D02*
X81034349Y8487566D01*
X80501016Y5501137D02*
X81567683Y5501137D01*
X80301016Y4014709D02*
X80767683Y2514709D01*
X80767683Y2514709D02*
X81234349Y4014709D01*
D10*
X80036779Y27670181D02*
X80036779Y26860658D01*
X80036779Y26860658D02*
X80084398Y26765420D01*
X80084398Y26765420D02*
X80132017Y26717800D01*
X80132017Y26717800D02*
X80227255Y26670181D01*
X80227255Y26670181D02*
X80417731Y26670181D01*
X80417731Y26670181D02*
X80512969Y26717800D01*
X80512969Y26717800D02*
X80560588Y26765420D01*
X80560588Y26765420D02*
X80608207Y26860658D01*
X80608207Y26860658D02*
X80608207Y27670181D01*
X81036779Y26955896D02*
X81512969Y26955896D01*
X80941541Y26670181D02*
X81274874Y27670181D01*
X81274874Y27670181D02*
X81608207Y26670181D01*
X82512969Y26670181D02*
X82179636Y27146372D01*
X81941541Y26670181D02*
X81941541Y27670181D01*
X81941541Y27670181D02*
X82322493Y27670181D01*
X82322493Y27670181D02*
X82417731Y27622562D01*
X82417731Y27622562D02*
X82465350Y27574943D01*
X82465350Y27574943D02*
X82512969Y27479705D01*
X82512969Y27479705D02*
X82512969Y27336848D01*
X82512969Y27336848D02*
X82465350Y27241610D01*
X82465350Y27241610D02*
X82417731Y27193991D01*
X82417731Y27193991D02*
X82322493Y27146372D01*
X82322493Y27146372D02*
X81941541Y27146372D01*
X82798684Y27670181D02*
X83370112Y27670181D01*
X83084398Y26670181D02*
X83084398Y27670181D01*
X83655827Y27574943D02*
X83703446Y27622562D01*
X83703446Y27622562D02*
X83798684Y27670181D01*
X83798684Y27670181D02*
X84036779Y27670181D01*
X84036779Y27670181D02*
X84132017Y27622562D01*
X84132017Y27622562D02*
X84179636Y27574943D01*
X84179636Y27574943D02*
X84227255Y27479705D01*
X84227255Y27479705D02*
X84227255Y27384467D01*
X84227255Y27384467D02*
X84179636Y27241610D01*
X84179636Y27241610D02*
X83608208Y26670181D01*
X83608208Y26670181D02*
X84227255Y26670181D01*
X80608207Y23450181D02*
X80274874Y23926372D01*
X80036779Y23450181D02*
X80036779Y24450181D01*
X80036779Y24450181D02*
X80417731Y24450181D01*
X80417731Y24450181D02*
X80512969Y24402562D01*
X80512969Y24402562D02*
X80560588Y24354943D01*
X80560588Y24354943D02*
X80608207Y24259705D01*
X80608207Y24259705D02*
X80608207Y24116848D01*
X80608207Y24116848D02*
X80560588Y24021610D01*
X80560588Y24021610D02*
X80512969Y23973991D01*
X80512969Y23973991D02*
X80417731Y23926372D01*
X80417731Y23926372D02*
X80036779Y23926372D01*
X80941541Y24450181D02*
X81608207Y23450181D01*
X81608207Y24450181D02*
X80941541Y23450181D01*
X79893922Y19620181D02*
X80465350Y19620181D01*
X80179636Y18620181D02*
X80179636Y19620181D01*
X80703446Y19620181D02*
X81370112Y18620181D01*
X81370112Y19620181D02*
X80703446Y18620181D01*
D11*
X785714Y19992686D02*
X2214286Y19992686D01*
X500000Y19135543D02*
X1500000Y22135543D01*
X1500000Y22135543D02*
X2500000Y19135543D01*
D10*
X89509523Y82145181D02*
X88938095Y82145181D01*
X89223809Y82145181D02*
X89223809Y83145181D01*
X89223809Y83145181D02*
X89128571Y83002324D01*
X89128571Y83002324D02*
X89033333Y82907086D01*
X89033333Y82907086D02*
X88938095Y82859467D01*
X90366666Y83145181D02*
X90176190Y83145181D01*
X90176190Y83145181D02*
X90080952Y83097562D01*
X90080952Y83097562D02*
X90033333Y83049943D01*
X90033333Y83049943D02*
X89938095Y82907086D01*
X89938095Y82907086D02*
X89890476Y82716610D01*
X89890476Y82716610D02*
X89890476Y82335658D01*
X89890476Y82335658D02*
X89938095Y82240420D01*
X89938095Y82240420D02*
X89985714Y82192800D01*
X89985714Y82192800D02*
X90080952Y82145181D01*
X90080952Y82145181D02*
X90271428Y82145181D01*
X90271428Y82145181D02*
X90366666Y82192800D01*
X90366666Y82192800D02*
X90414285Y82240420D01*
X90414285Y82240420D02*
X90461904Y82335658D01*
X90461904Y82335658D02*
X90461904Y82573753D01*
X90461904Y82573753D02*
X90414285Y82668991D01*
X90414285Y82668991D02*
X90366666Y82716610D01*
X90366666Y82716610D02*
X90271428Y82764229D01*
X90271428Y82764229D02*
X90080952Y82764229D01*
X90080952Y82764229D02*
X89985714Y82716610D01*
X89985714Y82716610D02*
X89938095Y82668991D01*
X89938095Y82668991D02*
X89890476Y82573753D01*
X6690476Y38611848D02*
X6690476Y37945181D01*
X6452381Y38992800D02*
X6214286Y38278515D01*
X6214286Y38278515D02*
X6833333Y38278515D01*
X36052381Y55945181D02*
X36671428Y55945181D01*
X36671428Y55945181D02*
X36338095Y55564229D01*
X36338095Y55564229D02*
X36480952Y55564229D01*
X36480952Y55564229D02*
X36576190Y55516610D01*
X36576190Y55516610D02*
X36623809Y55468991D01*
X36623809Y55468991D02*
X36671428Y55373753D01*
X36671428Y55373753D02*
X36671428Y55135658D01*
X36671428Y55135658D02*
X36623809Y55040420D01*
X36623809Y55040420D02*
X36576190Y54992800D01*
X36576190Y54992800D02*
X36480952Y54945181D01*
X36480952Y54945181D02*
X36195238Y54945181D01*
X36195238Y54945181D02*
X36100000Y54992800D01*
X36100000Y54992800D02*
X36052381Y55040420D01*
X37100000Y55040420D02*
X37147619Y54992800D01*
X37147619Y54992800D02*
X37100000Y54945181D01*
X37100000Y54945181D02*
X37052381Y54992800D01*
X37052381Y54992800D02*
X37100000Y55040420D01*
X37100000Y55040420D02*
X37100000Y54945181D01*
X37480952Y55945181D02*
X38099999Y55945181D01*
X38099999Y55945181D02*
X37766666Y55564229D01*
X37766666Y55564229D02*
X37909523Y55564229D01*
X37909523Y55564229D02*
X38004761Y55516610D01*
X38004761Y55516610D02*
X38052380Y55468991D01*
X38052380Y55468991D02*
X38099999Y55373753D01*
X38099999Y55373753D02*
X38099999Y55135658D01*
X38099999Y55135658D02*
X38052380Y55040420D01*
X38052380Y55040420D02*
X38004761Y54992800D01*
X38004761Y54992800D02*
X37909523Y54945181D01*
X37909523Y54945181D02*
X37623809Y54945181D01*
X37623809Y54945181D02*
X37528571Y54992800D01*
X37528571Y54992800D02*
X37480952Y55040420D01*
X38138095Y58045181D02*
X37661905Y58045181D01*
X37661905Y58045181D02*
X37614286Y57568991D01*
X37614286Y57568991D02*
X37661905Y57616610D01*
X37661905Y57616610D02*
X37757143Y57664229D01*
X37757143Y57664229D02*
X37995238Y57664229D01*
X37995238Y57664229D02*
X38090476Y57616610D01*
X38090476Y57616610D02*
X38138095Y57568991D01*
X38138095Y57568991D02*
X38185714Y57473753D01*
X38185714Y57473753D02*
X38185714Y57235658D01*
X38185714Y57235658D02*
X38138095Y57140420D01*
X38138095Y57140420D02*
X38090476Y57092800D01*
X38090476Y57092800D02*
X37995238Y57045181D01*
X37995238Y57045181D02*
X37757143Y57045181D01*
X37757143Y57045181D02*
X37661905Y57092800D01*
X37661905Y57092800D02*
X37614286Y57140420D01*
X92966667Y71345181D02*
X93585714Y71345181D01*
X93585714Y71345181D02*
X93252381Y70964229D01*
X93252381Y70964229D02*
X93395238Y70964229D01*
X93395238Y70964229D02*
X93490476Y70916610D01*
X93490476Y70916610D02*
X93538095Y70868991D01*
X93538095Y70868991D02*
X93585714Y70773753D01*
X93585714Y70773753D02*
X93585714Y70535658D01*
X93585714Y70535658D02*
X93538095Y70440420D01*
X93538095Y70440420D02*
X93490476Y70392800D01*
X93490476Y70392800D02*
X93395238Y70345181D01*
X93395238Y70345181D02*
X93109524Y70345181D01*
X93109524Y70345181D02*
X93014286Y70392800D01*
X93014286Y70392800D02*
X92966667Y70440420D01*
X17620284Y44500562D02*
X17048856Y44500562D01*
X17334570Y44500562D02*
X17334570Y45500562D01*
X17334570Y45500562D02*
X17239332Y45357705D01*
X17239332Y45357705D02*
X17144094Y45262467D01*
X17144094Y45262467D02*
X17048856Y45214848D01*
X18239332Y45500562D02*
X18334570Y45500562D01*
X18334570Y45500562D02*
X18429808Y45452943D01*
X18429808Y45452943D02*
X18477427Y45405324D01*
X18477427Y45405324D02*
X18525046Y45310086D01*
X18525046Y45310086D02*
X18572665Y45119610D01*
X18572665Y45119610D02*
X18572665Y44881515D01*
X18572665Y44881515D02*
X18525046Y44691039D01*
X18525046Y44691039D02*
X18477427Y44595801D01*
X18477427Y44595801D02*
X18429808Y44548181D01*
X18429808Y44548181D02*
X18334570Y44500562D01*
X18334570Y44500562D02*
X18239332Y44500562D01*
X18239332Y44500562D02*
X18144094Y44548181D01*
X18144094Y44548181D02*
X18096475Y44595801D01*
X18096475Y44595801D02*
X18048856Y44691039D01*
X18048856Y44691039D02*
X18001237Y44881515D01*
X18001237Y44881515D02*
X18001237Y45119610D01*
X18001237Y45119610D02*
X18048856Y45310086D01*
X18048856Y45310086D02*
X18096475Y45405324D01*
X18096475Y45405324D02*
X18144094Y45452943D01*
X18144094Y45452943D02*
X18239332Y45500562D01*
X47738095Y82649943D02*
X47785714Y82697562D01*
X47785714Y82697562D02*
X47880952Y82745181D01*
X47880952Y82745181D02*
X48119047Y82745181D01*
X48119047Y82745181D02*
X48214285Y82697562D01*
X48214285Y82697562D02*
X48261904Y82649943D01*
X48261904Y82649943D02*
X48309523Y82554705D01*
X48309523Y82554705D02*
X48309523Y82459467D01*
X48309523Y82459467D02*
X48261904Y82316610D01*
X48261904Y82316610D02*
X47690476Y81745181D01*
X47690476Y81745181D02*
X48309523Y81745181D01*
X48928571Y82745181D02*
X49023809Y82745181D01*
X49023809Y82745181D02*
X49119047Y82697562D01*
X49119047Y82697562D02*
X49166666Y82649943D01*
X49166666Y82649943D02*
X49214285Y82554705D01*
X49214285Y82554705D02*
X49261904Y82364229D01*
X49261904Y82364229D02*
X49261904Y82126134D01*
X49261904Y82126134D02*
X49214285Y81935658D01*
X49214285Y81935658D02*
X49166666Y81840420D01*
X49166666Y81840420D02*
X49119047Y81792800D01*
X49119047Y81792800D02*
X49023809Y81745181D01*
X49023809Y81745181D02*
X48928571Y81745181D01*
X48928571Y81745181D02*
X48833333Y81792800D01*
X48833333Y81792800D02*
X48785714Y81840420D01*
X48785714Y81840420D02*
X48738095Y81935658D01*
X48738095Y81935658D02*
X48690476Y82126134D01*
X48690476Y82126134D02*
X48690476Y82364229D01*
X48690476Y82364229D02*
X48738095Y82554705D01*
X48738095Y82554705D02*
X48785714Y82649943D01*
X48785714Y82649943D02*
X48833333Y82697562D01*
X48833333Y82697562D02*
X48928571Y82745181D01*
X10409523Y81945181D02*
X9838095Y81945181D01*
X10123809Y81945181D02*
X10123809Y82945181D01*
X10123809Y82945181D02*
X10028571Y82802324D01*
X10028571Y82802324D02*
X9933333Y82707086D01*
X9933333Y82707086D02*
X9838095Y82659467D01*
X11361904Y81945181D02*
X10790476Y81945181D01*
X11076190Y81945181D02*
X11076190Y82945181D01*
X11076190Y82945181D02*
X10980952Y82802324D01*
X10980952Y82802324D02*
X10885714Y82707086D01*
X10885714Y82707086D02*
X10790476Y82659467D01*
X6785714Y25245181D02*
X6214286Y25245181D01*
X6500000Y25245181D02*
X6500000Y26245181D01*
X6500000Y26245181D02*
X6404762Y26102324D01*
X6404762Y26102324D02*
X6309524Y26007086D01*
X6309524Y26007086D02*
X6214286Y25959467D01*
X6985714Y44645181D02*
X6414286Y44645181D01*
X6700000Y44645181D02*
X6700000Y45645181D01*
X6700000Y45645181D02*
X6604762Y45502324D01*
X6604762Y45502324D02*
X6509524Y45407086D01*
X6509524Y45407086D02*
X6414286Y45359467D01*
X37009523Y59645181D02*
X36438095Y59645181D01*
X36723809Y59645181D02*
X36723809Y60645181D01*
X36723809Y60645181D02*
X36628571Y60502324D01*
X36628571Y60502324D02*
X36533333Y60407086D01*
X36533333Y60407086D02*
X36438095Y60359467D01*
X37390476Y60549943D02*
X37438095Y60597562D01*
X37438095Y60597562D02*
X37533333Y60645181D01*
X37533333Y60645181D02*
X37771428Y60645181D01*
X37771428Y60645181D02*
X37866666Y60597562D01*
X37866666Y60597562D02*
X37914285Y60549943D01*
X37914285Y60549943D02*
X37961904Y60454705D01*
X37961904Y60454705D02*
X37961904Y60359467D01*
X37961904Y60359467D02*
X37914285Y60216610D01*
X37914285Y60216610D02*
X37342857Y59645181D01*
X37342857Y59645181D02*
X37961904Y59645181D01*
D12*
X80107768Y34926179D02*
X80314911Y34854751D01*
X80314911Y34854751D02*
X80660149Y34854751D01*
X80660149Y34854751D02*
X80798244Y34926179D01*
X80798244Y34926179D02*
X80867292Y34997608D01*
X80867292Y34997608D02*
X80936339Y35140465D01*
X80936339Y35140465D02*
X80936339Y35283322D01*
X80936339Y35283322D02*
X80867292Y35426179D01*
X80867292Y35426179D02*
X80798244Y35497608D01*
X80798244Y35497608D02*
X80660149Y35569037D01*
X80660149Y35569037D02*
X80383958Y35640465D01*
X80383958Y35640465D02*
X80245863Y35711894D01*
X80245863Y35711894D02*
X80176816Y35783322D01*
X80176816Y35783322D02*
X80107768Y35926179D01*
X80107768Y35926179D02*
X80107768Y36069037D01*
X80107768Y36069037D02*
X80176816Y36211894D01*
X80176816Y36211894D02*
X80245863Y36283322D01*
X80245863Y36283322D02*
X80383958Y36354751D01*
X80383958Y36354751D02*
X80729197Y36354751D01*
X80729197Y36354751D02*
X80936339Y36283322D01*
X81419672Y36354751D02*
X81764910Y34854751D01*
X81764910Y34854751D02*
X82041101Y35926179D01*
X82041101Y35926179D02*
X82317291Y34854751D01*
X82317291Y34854751D02*
X82662530Y36354751D01*
X83214911Y34854751D02*
X83214911Y36354751D01*
X83214911Y36354751D02*
X83560149Y36354751D01*
X83560149Y36354751D02*
X83767292Y36283322D01*
X83767292Y36283322D02*
X83905387Y36140465D01*
X83905387Y36140465D02*
X83974434Y35997608D01*
X83974434Y35997608D02*
X84043482Y35711894D01*
X84043482Y35711894D02*
X84043482Y35497608D01*
X84043482Y35497608D02*
X83974434Y35211894D01*
X83974434Y35211894D02*
X83905387Y35069037D01*
X83905387Y35069037D02*
X83767292Y34926179D01*
X83767292Y34926179D02*
X83560149Y34854751D01*
X83560149Y34854751D02*
X83214911Y34854751D01*
X84664911Y34997608D02*
X84733958Y34926179D01*
X84733958Y34926179D02*
X84664911Y34854751D01*
X84664911Y34854751D02*
X84595863Y34926179D01*
X84595863Y34926179D02*
X84664911Y34997608D01*
X84664911Y34997608D02*
X84664911Y34854751D01*
X84664911Y35783322D02*
X84733958Y35711894D01*
X84733958Y35711894D02*
X84664911Y35640465D01*
X84664911Y35640465D02*
X84595863Y35711894D01*
X84595863Y35711894D02*
X84664911Y35783322D01*
X84664911Y35783322D02*
X84664911Y35640465D01*
X88393482Y34854751D02*
X87910149Y35569037D01*
X87564911Y34854751D02*
X87564911Y36354751D01*
X87564911Y36354751D02*
X88117292Y36354751D01*
X88117292Y36354751D02*
X88255387Y36283322D01*
X88255387Y36283322D02*
X88324434Y36211894D01*
X88324434Y36211894D02*
X88393482Y36069037D01*
X88393482Y36069037D02*
X88393482Y35854751D01*
X88393482Y35854751D02*
X88324434Y35711894D01*
X88324434Y35711894D02*
X88255387Y35640465D01*
X88255387Y35640465D02*
X88117292Y35569037D01*
X88117292Y35569037D02*
X87564911Y35569037D01*
X90119673Y34854751D02*
X90119673Y36354751D01*
X90119673Y36354751D02*
X90464911Y36354751D01*
X90464911Y36354751D02*
X90672054Y36283322D01*
X90672054Y36283322D02*
X90810149Y36140465D01*
X90810149Y36140465D02*
X90879196Y35997608D01*
X90879196Y35997608D02*
X90948244Y35711894D01*
X90948244Y35711894D02*
X90948244Y35497608D01*
X90948244Y35497608D02*
X90879196Y35211894D01*
X90879196Y35211894D02*
X90810149Y35069037D01*
X90810149Y35069037D02*
X90672054Y34926179D01*
X90672054Y34926179D02*
X90464911Y34854751D01*
X90464911Y34854751D02*
X90119673Y34854751D01*
X93433958Y36283322D02*
X93295863Y36354751D01*
X93295863Y36354751D02*
X93088720Y36354751D01*
X93088720Y36354751D02*
X92881577Y36283322D01*
X92881577Y36283322D02*
X92743482Y36140465D01*
X92743482Y36140465D02*
X92674435Y35997608D01*
X92674435Y35997608D02*
X92605387Y35711894D01*
X92605387Y35711894D02*
X92605387Y35497608D01*
X92605387Y35497608D02*
X92674435Y35211894D01*
X92674435Y35211894D02*
X92743482Y35069037D01*
X92743482Y35069037D02*
X92881577Y34926179D01*
X92881577Y34926179D02*
X93088720Y34854751D01*
X93088720Y34854751D02*
X93226816Y34854751D01*
X93226816Y34854751D02*
X93433958Y34926179D01*
X93433958Y34926179D02*
X93503006Y34997608D01*
X93503006Y34997608D02*
X93503006Y35497608D01*
X93503006Y35497608D02*
X93226816Y35497608D01*
X96057768Y34997608D02*
X95988720Y34926179D01*
X95988720Y34926179D02*
X95781578Y34854751D01*
X95781578Y34854751D02*
X95643482Y34854751D01*
X95643482Y34854751D02*
X95436339Y34926179D01*
X95436339Y34926179D02*
X95298244Y35069037D01*
X95298244Y35069037D02*
X95229197Y35211894D01*
X95229197Y35211894D02*
X95160149Y35497608D01*
X95160149Y35497608D02*
X95160149Y35711894D01*
X95160149Y35711894D02*
X95229197Y35997608D01*
X95229197Y35997608D02*
X95298244Y36140465D01*
X95298244Y36140465D02*
X95436339Y36283322D01*
X95436339Y36283322D02*
X95643482Y36354751D01*
X95643482Y36354751D02*
X95781578Y36354751D01*
X95781578Y36354751D02*
X95988720Y36283322D01*
X95988720Y36283322D02*
X96057768Y36211894D01*
X97576816Y36354751D02*
X98060149Y34854751D01*
X98060149Y34854751D02*
X98543482Y36354751D01*
D10*
X82790476Y79411848D02*
X82790476Y78745181D01*
X82552381Y79792800D02*
X82314286Y79078515D01*
X82314286Y79078515D02*
X82933333Y79078515D01*
X43561904Y51697562D02*
X43466666Y51745181D01*
X43466666Y51745181D02*
X43323809Y51745181D01*
X43323809Y51745181D02*
X43180952Y51697562D01*
X43180952Y51697562D02*
X43085714Y51602324D01*
X43085714Y51602324D02*
X43038095Y51507086D01*
X43038095Y51507086D02*
X42990476Y51316610D01*
X42990476Y51316610D02*
X42990476Y51173753D01*
X42990476Y51173753D02*
X43038095Y50983277D01*
X43038095Y50983277D02*
X43085714Y50888039D01*
X43085714Y50888039D02*
X43180952Y50792800D01*
X43180952Y50792800D02*
X43323809Y50745181D01*
X43323809Y50745181D02*
X43419047Y50745181D01*
X43419047Y50745181D02*
X43561904Y50792800D01*
X43561904Y50792800D02*
X43609523Y50840420D01*
X43609523Y50840420D02*
X43609523Y51173753D01*
X43609523Y51173753D02*
X43419047Y51173753D01*
D12*
X80864911Y17293972D02*
X80864911Y16079686D01*
X80864911Y16079686D02*
X80931578Y15936829D01*
X80931578Y15936829D02*
X80998244Y15865400D01*
X80998244Y15865400D02*
X81131578Y15793972D01*
X81131578Y15793972D02*
X81398244Y15793972D01*
X81398244Y15793972D02*
X81531578Y15865400D01*
X81531578Y15865400D02*
X81598244Y15936829D01*
X81598244Y15936829D02*
X81664911Y16079686D01*
X81664911Y16079686D02*
X81664911Y17293972D01*
X82264911Y15865400D02*
X82464911Y15793972D01*
X82464911Y15793972D02*
X82798245Y15793972D01*
X82798245Y15793972D02*
X82931578Y15865400D01*
X82931578Y15865400D02*
X82998245Y15936829D01*
X82998245Y15936829D02*
X83064911Y16079686D01*
X83064911Y16079686D02*
X83064911Y16222543D01*
X83064911Y16222543D02*
X82998245Y16365400D01*
X82998245Y16365400D02*
X82931578Y16436829D01*
X82931578Y16436829D02*
X82798245Y16508258D01*
X82798245Y16508258D02*
X82531578Y16579686D01*
X82531578Y16579686D02*
X82398245Y16651115D01*
X82398245Y16651115D02*
X82331578Y16722543D01*
X82331578Y16722543D02*
X82264911Y16865400D01*
X82264911Y16865400D02*
X82264911Y17008258D01*
X82264911Y17008258D02*
X82331578Y17151115D01*
X82331578Y17151115D02*
X82398245Y17222543D01*
X82398245Y17222543D02*
X82531578Y17293972D01*
X82531578Y17293972D02*
X82864911Y17293972D01*
X82864911Y17293972D02*
X83064911Y17222543D01*
X84131578Y16579686D02*
X84331578Y16508258D01*
X84331578Y16508258D02*
X84398244Y16436829D01*
X84398244Y16436829D02*
X84464911Y16293972D01*
X84464911Y16293972D02*
X84464911Y16079686D01*
X84464911Y16079686D02*
X84398244Y15936829D01*
X84398244Y15936829D02*
X84331578Y15865400D01*
X84331578Y15865400D02*
X84198244Y15793972D01*
X84198244Y15793972D02*
X83664911Y15793972D01*
X83664911Y15793972D02*
X83664911Y17293972D01*
X83664911Y17293972D02*
X84131578Y17293972D01*
X84131578Y17293972D02*
X84264911Y17222543D01*
X84264911Y17222543D02*
X84331578Y17151115D01*
X84331578Y17151115D02*
X84398244Y17008258D01*
X84398244Y17008258D02*
X84398244Y16865400D01*
X84398244Y16865400D02*
X84331578Y16722543D01*
X84331578Y16722543D02*
X84264911Y16651115D01*
X84264911Y16651115D02*
X84131578Y16579686D01*
X84131578Y16579686D02*
X83664911Y16579686D01*
D10*
X30309523Y56245181D02*
X29833333Y56245181D01*
X29833333Y56245181D02*
X29833333Y57245181D01*
X40961904Y51697562D02*
X40866666Y51745181D01*
X40866666Y51745181D02*
X40723809Y51745181D01*
X40723809Y51745181D02*
X40580952Y51697562D01*
X40580952Y51697562D02*
X40485714Y51602324D01*
X40485714Y51602324D02*
X40438095Y51507086D01*
X40438095Y51507086D02*
X40390476Y51316610D01*
X40390476Y51316610D02*
X40390476Y51173753D01*
X40390476Y51173753D02*
X40438095Y50983277D01*
X40438095Y50983277D02*
X40485714Y50888039D01*
X40485714Y50888039D02*
X40580952Y50792800D01*
X40580952Y50792800D02*
X40723809Y50745181D01*
X40723809Y50745181D02*
X40819047Y50745181D01*
X40819047Y50745181D02*
X40961904Y50792800D01*
X40961904Y50792800D02*
X41009523Y50840420D01*
X41009523Y50840420D02*
X41009523Y51173753D01*
X41009523Y51173753D02*
X40819047Y51173753D01*
D13*
X44180928Y12564284D02*
X42680928Y12564284D01*
X44180928Y13207141D02*
X43395214Y13207141D01*
X43395214Y13207141D02*
X43252357Y13135713D01*
X43252357Y13135713D02*
X43180928Y12992856D01*
X43180928Y12992856D02*
X43180928Y12778570D01*
X43180928Y12778570D02*
X43252357Y12635713D01*
X43252357Y12635713D02*
X43323785Y12564284D01*
X43180928Y13707142D02*
X43180928Y14278570D01*
X42680928Y13921427D02*
X43966642Y13921427D01*
X43966642Y13921427D02*
X44109500Y13992856D01*
X44109500Y13992856D02*
X44180928Y14135713D01*
X44180928Y14135713D02*
X44180928Y14278570D01*
X43180928Y14564285D02*
X43180928Y15135713D01*
X42680928Y14778570D02*
X43966642Y14778570D01*
X43966642Y14778570D02*
X44109500Y14849999D01*
X44109500Y14849999D02*
X44180928Y14992856D01*
X44180928Y14992856D02*
X44180928Y15135713D01*
X43180928Y15635713D02*
X44680928Y15635713D01*
X43252357Y15635713D02*
X43180928Y15778570D01*
X43180928Y15778570D02*
X43180928Y16064285D01*
X43180928Y16064285D02*
X43252357Y16207142D01*
X43252357Y16207142D02*
X43323785Y16278570D01*
X43323785Y16278570D02*
X43466642Y16349999D01*
X43466642Y16349999D02*
X43895214Y16349999D01*
X43895214Y16349999D02*
X44038071Y16278570D01*
X44038071Y16278570D02*
X44109500Y16207142D01*
X44109500Y16207142D02*
X44180928Y16064285D01*
X44180928Y16064285D02*
X44180928Y15778570D01*
X44180928Y15778570D02*
X44109500Y15635713D01*
X44109500Y16921428D02*
X44180928Y17064285D01*
X44180928Y17064285D02*
X44180928Y17349999D01*
X44180928Y17349999D02*
X44109500Y17492856D01*
X44109500Y17492856D02*
X43966642Y17564285D01*
X43966642Y17564285D02*
X43895214Y17564285D01*
X43895214Y17564285D02*
X43752357Y17492856D01*
X43752357Y17492856D02*
X43680928Y17349999D01*
X43680928Y17349999D02*
X43680928Y17135713D01*
X43680928Y17135713D02*
X43609500Y16992856D01*
X43609500Y16992856D02*
X43466642Y16921428D01*
X43466642Y16921428D02*
X43395214Y16921428D01*
X43395214Y16921428D02*
X43252357Y16992856D01*
X43252357Y16992856D02*
X43180928Y17135713D01*
X43180928Y17135713D02*
X43180928Y17349999D01*
X43180928Y17349999D02*
X43252357Y17492856D01*
X44038071Y18207142D02*
X44109500Y18278571D01*
X44109500Y18278571D02*
X44180928Y18207142D01*
X44180928Y18207142D02*
X44109500Y18135714D01*
X44109500Y18135714D02*
X44038071Y18207142D01*
X44038071Y18207142D02*
X44180928Y18207142D01*
X43252357Y18207142D02*
X43323785Y18278571D01*
X43323785Y18278571D02*
X43395214Y18207142D01*
X43395214Y18207142D02*
X43323785Y18135714D01*
X43323785Y18135714D02*
X43252357Y18207142D01*
X43252357Y18207142D02*
X43395214Y18207142D01*
X42609500Y19992857D02*
X44538071Y18707143D01*
X42609500Y21564286D02*
X44538071Y20278572D01*
X44180928Y22064286D02*
X43180928Y22064286D01*
X43466642Y22064286D02*
X43323785Y22135715D01*
X43323785Y22135715D02*
X43252357Y22207143D01*
X43252357Y22207143D02*
X43180928Y22350001D01*
X43180928Y22350001D02*
X43180928Y22492858D01*
X43180928Y23635714D02*
X44180928Y23635714D01*
X43180928Y22992857D02*
X43966642Y22992857D01*
X43966642Y22992857D02*
X44109500Y23064286D01*
X44109500Y23064286D02*
X44180928Y23207143D01*
X44180928Y23207143D02*
X44180928Y23421429D01*
X44180928Y23421429D02*
X44109500Y23564286D01*
X44109500Y23564286D02*
X44038071Y23635714D01*
X44109500Y24278572D02*
X44180928Y24421429D01*
X44180928Y24421429D02*
X44180928Y24707143D01*
X44180928Y24707143D02*
X44109500Y24850000D01*
X44109500Y24850000D02*
X43966642Y24921429D01*
X43966642Y24921429D02*
X43895214Y24921429D01*
X43895214Y24921429D02*
X43752357Y24850000D01*
X43752357Y24850000D02*
X43680928Y24707143D01*
X43680928Y24707143D02*
X43680928Y24492857D01*
X43680928Y24492857D02*
X43609500Y24350000D01*
X43609500Y24350000D02*
X43466642Y24278572D01*
X43466642Y24278572D02*
X43395214Y24278572D01*
X43395214Y24278572D02*
X43252357Y24350000D01*
X43252357Y24350000D02*
X43180928Y24492857D01*
X43180928Y24492857D02*
X43180928Y24707143D01*
X43180928Y24707143D02*
X43252357Y24850000D01*
X44109500Y26135715D02*
X44180928Y25992858D01*
X44180928Y25992858D02*
X44180928Y25707143D01*
X44180928Y25707143D02*
X44109500Y25564286D01*
X44109500Y25564286D02*
X43966642Y25492858D01*
X43966642Y25492858D02*
X43395214Y25492858D01*
X43395214Y25492858D02*
X43252357Y25564286D01*
X43252357Y25564286D02*
X43180928Y25707143D01*
X43180928Y25707143D02*
X43180928Y25992858D01*
X43180928Y25992858D02*
X43252357Y26135715D01*
X43252357Y26135715D02*
X43395214Y26207143D01*
X43395214Y26207143D02*
X43538071Y26207143D01*
X43538071Y26207143D02*
X43680928Y25492858D01*
X43180928Y26635715D02*
X43180928Y27207143D01*
X44180928Y26850000D02*
X42895214Y26850000D01*
X42895214Y26850000D02*
X42752357Y26921429D01*
X42752357Y26921429D02*
X42680928Y27064286D01*
X42680928Y27064286D02*
X42680928Y27207143D01*
X44180928Y27707143D02*
X43180928Y27707143D01*
X42680928Y27707143D02*
X42752357Y27635715D01*
X42752357Y27635715D02*
X42823785Y27707143D01*
X42823785Y27707143D02*
X42752357Y27778572D01*
X42752357Y27778572D02*
X42680928Y27707143D01*
X42680928Y27707143D02*
X42823785Y27707143D01*
X44038071Y28421429D02*
X44109500Y28492858D01*
X44109500Y28492858D02*
X44180928Y28421429D01*
X44180928Y28421429D02*
X44109500Y28350001D01*
X44109500Y28350001D02*
X44038071Y28421429D01*
X44038071Y28421429D02*
X44180928Y28421429D01*
X44109500Y29778572D02*
X44180928Y29635715D01*
X44180928Y29635715D02*
X44180928Y29350001D01*
X44180928Y29350001D02*
X44109500Y29207144D01*
X44109500Y29207144D02*
X44038071Y29135715D01*
X44038071Y29135715D02*
X43895214Y29064287D01*
X43895214Y29064287D02*
X43466642Y29064287D01*
X43466642Y29064287D02*
X43323785Y29135715D01*
X43323785Y29135715D02*
X43252357Y29207144D01*
X43252357Y29207144D02*
X43180928Y29350001D01*
X43180928Y29350001D02*
X43180928Y29635715D01*
X43180928Y29635715D02*
X43252357Y29778572D01*
X44180928Y30635715D02*
X44109500Y30492858D01*
X44109500Y30492858D02*
X44038071Y30421429D01*
X44038071Y30421429D02*
X43895214Y30350001D01*
X43895214Y30350001D02*
X43466642Y30350001D01*
X43466642Y30350001D02*
X43323785Y30421429D01*
X43323785Y30421429D02*
X43252357Y30492858D01*
X43252357Y30492858D02*
X43180928Y30635715D01*
X43180928Y30635715D02*
X43180928Y30850001D01*
X43180928Y30850001D02*
X43252357Y30992858D01*
X43252357Y30992858D02*
X43323785Y31064286D01*
X43323785Y31064286D02*
X43466642Y31135715D01*
X43466642Y31135715D02*
X43895214Y31135715D01*
X43895214Y31135715D02*
X44038071Y31064286D01*
X44038071Y31064286D02*
X44109500Y30992858D01*
X44109500Y30992858D02*
X44180928Y30850001D01*
X44180928Y30850001D02*
X44180928Y30635715D01*
X44180928Y31778572D02*
X43180928Y31778572D01*
X43323785Y31778572D02*
X43252357Y31850001D01*
X43252357Y31850001D02*
X43180928Y31992858D01*
X43180928Y31992858D02*
X43180928Y32207144D01*
X43180928Y32207144D02*
X43252357Y32350001D01*
X43252357Y32350001D02*
X43395214Y32421429D01*
X43395214Y32421429D02*
X44180928Y32421429D01*
X43395214Y32421429D02*
X43252357Y32492858D01*
X43252357Y32492858D02*
X43180928Y32635715D01*
X43180928Y32635715D02*
X43180928Y32850001D01*
X43180928Y32850001D02*
X43252357Y32992858D01*
X43252357Y32992858D02*
X43395214Y33064287D01*
X43395214Y33064287D02*
X44180928Y33064287D01*
X42609500Y34850001D02*
X44538071Y33564287D01*
X44109500Y35278573D02*
X44180928Y35421430D01*
X44180928Y35421430D02*
X44180928Y35707144D01*
X44180928Y35707144D02*
X44109500Y35850001D01*
X44109500Y35850001D02*
X43966642Y35921430D01*
X43966642Y35921430D02*
X43895214Y35921430D01*
X43895214Y35921430D02*
X43752357Y35850001D01*
X43752357Y35850001D02*
X43680928Y35707144D01*
X43680928Y35707144D02*
X43680928Y35492858D01*
X43680928Y35492858D02*
X43609500Y35350001D01*
X43609500Y35350001D02*
X43466642Y35278573D01*
X43466642Y35278573D02*
X43395214Y35278573D01*
X43395214Y35278573D02*
X43252357Y35350001D01*
X43252357Y35350001D02*
X43180928Y35492858D01*
X43180928Y35492858D02*
X43180928Y35707144D01*
X43180928Y35707144D02*
X43252357Y35850001D01*
X42609500Y37635716D02*
X44538071Y36350002D01*
X43180928Y38778573D02*
X44180928Y38778573D01*
X43180928Y38135716D02*
X43966642Y38135716D01*
X43966642Y38135716D02*
X44109500Y38207145D01*
X44109500Y38207145D02*
X44180928Y38350002D01*
X44180928Y38350002D02*
X44180928Y38564288D01*
X44180928Y38564288D02*
X44109500Y38707145D01*
X44109500Y38707145D02*
X44038071Y38778573D01*
X44180928Y40135716D02*
X43395214Y40135716D01*
X43395214Y40135716D02*
X43252357Y40064288D01*
X43252357Y40064288D02*
X43180928Y39921431D01*
X43180928Y39921431D02*
X43180928Y39635716D01*
X43180928Y39635716D02*
X43252357Y39492859D01*
X44109500Y40135716D02*
X44180928Y39992859D01*
X44180928Y39992859D02*
X44180928Y39635716D01*
X44180928Y39635716D02*
X44109500Y39492859D01*
X44109500Y39492859D02*
X43966642Y39421431D01*
X43966642Y39421431D02*
X43823785Y39421431D01*
X43823785Y39421431D02*
X43680928Y39492859D01*
X43680928Y39492859D02*
X43609500Y39635716D01*
X43609500Y39635716D02*
X43609500Y39992859D01*
X43609500Y39992859D02*
X43538071Y40135716D01*
X44109500Y41421431D02*
X44180928Y41278574D01*
X44180928Y41278574D02*
X44180928Y40992859D01*
X44180928Y40992859D02*
X44109500Y40850002D01*
X44109500Y40850002D02*
X43966642Y40778574D01*
X43966642Y40778574D02*
X43395214Y40778574D01*
X43395214Y40778574D02*
X43252357Y40850002D01*
X43252357Y40850002D02*
X43180928Y40992859D01*
X43180928Y40992859D02*
X43180928Y41278574D01*
X43180928Y41278574D02*
X43252357Y41421431D01*
X43252357Y41421431D02*
X43395214Y41492859D01*
X43395214Y41492859D02*
X43538071Y41492859D01*
X43538071Y41492859D02*
X43680928Y40778574D01*
X43180928Y41921431D02*
X43180928Y42492859D01*
X44180928Y42135716D02*
X42895214Y42135716D01*
X42895214Y42135716D02*
X42752357Y42207145D01*
X42752357Y42207145D02*
X42680928Y42350002D01*
X42680928Y42350002D02*
X42680928Y42492859D01*
X43180928Y43635716D02*
X44180928Y43635716D01*
X43180928Y42992859D02*
X43966642Y42992859D01*
X43966642Y42992859D02*
X44109500Y43064288D01*
X44109500Y43064288D02*
X44180928Y43207145D01*
X44180928Y43207145D02*
X44180928Y43421431D01*
X44180928Y43421431D02*
X44109500Y43564288D01*
X44109500Y43564288D02*
X44038071Y43635716D01*
D10*
X32280952Y55040420D02*
X32233333Y54992800D01*
X32233333Y54992800D02*
X32090476Y54945181D01*
X32090476Y54945181D02*
X31995238Y54945181D01*
X31995238Y54945181D02*
X31852381Y54992800D01*
X31852381Y54992800D02*
X31757143Y55088039D01*
X31757143Y55088039D02*
X31709524Y55183277D01*
X31709524Y55183277D02*
X31661905Y55373753D01*
X31661905Y55373753D02*
X31661905Y55516610D01*
X31661905Y55516610D02*
X31709524Y55707086D01*
X31709524Y55707086D02*
X31757143Y55802324D01*
X31757143Y55802324D02*
X31852381Y55897562D01*
X31852381Y55897562D02*
X31995238Y55945181D01*
X31995238Y55945181D02*
X32090476Y55945181D01*
X32090476Y55945181D02*
X32233333Y55897562D01*
X32233333Y55897562D02*
X32280952Y55849943D01*
X32661905Y55230896D02*
X33138095Y55230896D01*
X32566667Y54945181D02*
X32900000Y55945181D01*
X32900000Y55945181D02*
X33233333Y54945181D01*
X33566667Y54945181D02*
X33566667Y55945181D01*
X33566667Y55945181D02*
X34138095Y54945181D01*
X34138095Y54945181D02*
X34138095Y55945181D01*
X34566667Y55849943D02*
X34614286Y55897562D01*
X34614286Y55897562D02*
X34709524Y55945181D01*
X34709524Y55945181D02*
X34947619Y55945181D01*
X34947619Y55945181D02*
X35042857Y55897562D01*
X35042857Y55897562D02*
X35090476Y55849943D01*
X35090476Y55849943D02*
X35138095Y55754705D01*
X35138095Y55754705D02*
X35138095Y55659467D01*
X35138095Y55659467D02*
X35090476Y55516610D01*
X35090476Y55516610D02*
X34519048Y54945181D01*
X34519048Y54945181D02*
X35138095Y54945181D01*
X89604762Y93616610D02*
X89509524Y93664229D01*
X89509524Y93664229D02*
X89461905Y93711848D01*
X89461905Y93711848D02*
X89414286Y93807086D01*
X89414286Y93807086D02*
X89414286Y93854705D01*
X89414286Y93854705D02*
X89461905Y93949943D01*
X89461905Y93949943D02*
X89509524Y93997562D01*
X89509524Y93997562D02*
X89604762Y94045181D01*
X89604762Y94045181D02*
X89795238Y94045181D01*
X89795238Y94045181D02*
X89890476Y93997562D01*
X89890476Y93997562D02*
X89938095Y93949943D01*
X89938095Y93949943D02*
X89985714Y93854705D01*
X89985714Y93854705D02*
X89985714Y93807086D01*
X89985714Y93807086D02*
X89938095Y93711848D01*
X89938095Y93711848D02*
X89890476Y93664229D01*
X89890476Y93664229D02*
X89795238Y93616610D01*
X89795238Y93616610D02*
X89604762Y93616610D01*
X89604762Y93616610D02*
X89509524Y93568991D01*
X89509524Y93568991D02*
X89461905Y93521372D01*
X89461905Y93521372D02*
X89414286Y93426134D01*
X89414286Y93426134D02*
X89414286Y93235658D01*
X89414286Y93235658D02*
X89461905Y93140420D01*
X89461905Y93140420D02*
X89509524Y93092800D01*
X89509524Y93092800D02*
X89604762Y93045181D01*
X89604762Y93045181D02*
X89795238Y93045181D01*
X89795238Y93045181D02*
X89890476Y93092800D01*
X89890476Y93092800D02*
X89938095Y93140420D01*
X89938095Y93140420D02*
X89985714Y93235658D01*
X89985714Y93235658D02*
X89985714Y93426134D01*
X89985714Y93426134D02*
X89938095Y93521372D01*
X89938095Y93521372D02*
X89890476Y93568991D01*
X89890476Y93568991D02*
X89795238Y93616610D01*
X82690476Y71445181D02*
X82500000Y71445181D01*
X82500000Y71445181D02*
X82404762Y71397562D01*
X82404762Y71397562D02*
X82357143Y71349943D01*
X82357143Y71349943D02*
X82261905Y71207086D01*
X82261905Y71207086D02*
X82214286Y71016610D01*
X82214286Y71016610D02*
X82214286Y70635658D01*
X82214286Y70635658D02*
X82261905Y70540420D01*
X82261905Y70540420D02*
X82309524Y70492800D01*
X82309524Y70492800D02*
X82404762Y70445181D01*
X82404762Y70445181D02*
X82595238Y70445181D01*
X82595238Y70445181D02*
X82690476Y70492800D01*
X82690476Y70492800D02*
X82738095Y70540420D01*
X82738095Y70540420D02*
X82785714Y70635658D01*
X82785714Y70635658D02*
X82785714Y70873753D01*
X82785714Y70873753D02*
X82738095Y70968991D01*
X82738095Y70968991D02*
X82690476Y71016610D01*
X82690476Y71016610D02*
X82595238Y71064229D01*
X82595238Y71064229D02*
X82404762Y71064229D01*
X82404762Y71064229D02*
X82309524Y71016610D01*
X82309524Y71016610D02*
X82261905Y70968991D01*
X82261905Y70968991D02*
X82214286Y70873753D01*
D14*
X74594572Y69188459D02*
X74594572Y67954745D01*
X74594572Y67954745D02*
X74667143Y67809602D01*
X74667143Y67809602D02*
X74739715Y67737030D01*
X74739715Y67737030D02*
X74884857Y67664459D01*
X74884857Y67664459D02*
X75175143Y67664459D01*
X75175143Y67664459D02*
X75320286Y67737030D01*
X75320286Y67737030D02*
X75392857Y67809602D01*
X75392857Y67809602D02*
X75465429Y67954745D01*
X75465429Y67954745D02*
X75465429Y69188459D01*
X76118571Y67737030D02*
X76263714Y67664459D01*
X76263714Y67664459D02*
X76554000Y67664459D01*
X76554000Y67664459D02*
X76699143Y67737030D01*
X76699143Y67737030D02*
X76771714Y67882173D01*
X76771714Y67882173D02*
X76771714Y67954745D01*
X76771714Y67954745D02*
X76699143Y68099888D01*
X76699143Y68099888D02*
X76554000Y68172459D01*
X76554000Y68172459D02*
X76336286Y68172459D01*
X76336286Y68172459D02*
X76191143Y68245030D01*
X76191143Y68245030D02*
X76118571Y68390173D01*
X76118571Y68390173D02*
X76118571Y68462745D01*
X76118571Y68462745D02*
X76191143Y68607888D01*
X76191143Y68607888D02*
X76336286Y68680459D01*
X76336286Y68680459D02*
X76554000Y68680459D01*
X76554000Y68680459D02*
X76699143Y68607888D01*
X78005428Y67737030D02*
X77860285Y67664459D01*
X77860285Y67664459D02*
X77570000Y67664459D01*
X77570000Y67664459D02*
X77424857Y67737030D01*
X77424857Y67737030D02*
X77352285Y67882173D01*
X77352285Y67882173D02*
X77352285Y68462745D01*
X77352285Y68462745D02*
X77424857Y68607888D01*
X77424857Y68607888D02*
X77570000Y68680459D01*
X77570000Y68680459D02*
X77860285Y68680459D01*
X77860285Y68680459D02*
X78005428Y68607888D01*
X78005428Y68607888D02*
X78078000Y68462745D01*
X78078000Y68462745D02*
X78078000Y68317602D01*
X78078000Y68317602D02*
X77352285Y68172459D01*
X72816572Y66226819D02*
X72816572Y64702819D01*
X72816572Y66154248D02*
X72961715Y66226819D01*
X72961715Y66226819D02*
X73252000Y66226819D01*
X73252000Y66226819D02*
X73397143Y66154248D01*
X73397143Y66154248D02*
X73469715Y66081676D01*
X73469715Y66081676D02*
X73542286Y65936533D01*
X73542286Y65936533D02*
X73542286Y65501105D01*
X73542286Y65501105D02*
X73469715Y65355962D01*
X73469715Y65355962D02*
X73397143Y65283390D01*
X73397143Y65283390D02*
X73252000Y65210819D01*
X73252000Y65210819D02*
X72961715Y65210819D01*
X72961715Y65210819D02*
X72816572Y65283390D01*
X74413143Y65210819D02*
X74268000Y65283390D01*
X74268000Y65283390D02*
X74195429Y65428533D01*
X74195429Y65428533D02*
X74195429Y66734819D01*
X75646858Y65210819D02*
X75646858Y66009105D01*
X75646858Y66009105D02*
X75574286Y66154248D01*
X75574286Y66154248D02*
X75429143Y66226819D01*
X75429143Y66226819D02*
X75138858Y66226819D01*
X75138858Y66226819D02*
X74993715Y66154248D01*
X75646858Y65283390D02*
X75501715Y65210819D01*
X75501715Y65210819D02*
X75138858Y65210819D01*
X75138858Y65210819D02*
X74993715Y65283390D01*
X74993715Y65283390D02*
X74921143Y65428533D01*
X74921143Y65428533D02*
X74921143Y65573676D01*
X74921143Y65573676D02*
X74993715Y65718819D01*
X74993715Y65718819D02*
X75138858Y65791390D01*
X75138858Y65791390D02*
X75501715Y65791390D01*
X75501715Y65791390D02*
X75646858Y65863962D01*
X76300000Y65283390D02*
X76445143Y65210819D01*
X76445143Y65210819D02*
X76735429Y65210819D01*
X76735429Y65210819D02*
X76880572Y65283390D01*
X76880572Y65283390D02*
X76953143Y65428533D01*
X76953143Y65428533D02*
X76953143Y65501105D01*
X76953143Y65501105D02*
X76880572Y65646248D01*
X76880572Y65646248D02*
X76735429Y65718819D01*
X76735429Y65718819D02*
X76517715Y65718819D01*
X76517715Y65718819D02*
X76372572Y65791390D01*
X76372572Y65791390D02*
X76300000Y65936533D01*
X76300000Y65936533D02*
X76300000Y66009105D01*
X76300000Y66009105D02*
X76372572Y66154248D01*
X76372572Y66154248D02*
X76517715Y66226819D01*
X76517715Y66226819D02*
X76735429Y66226819D01*
X76735429Y66226819D02*
X76880572Y66154248D01*
X77388571Y66226819D02*
X77969143Y66226819D01*
X77606286Y66734819D02*
X77606286Y65428533D01*
X77606286Y65428533D02*
X77678857Y65283390D01*
X77678857Y65283390D02*
X77824000Y65210819D01*
X77824000Y65210819D02*
X77969143Y65210819D01*
X78477143Y65210819D02*
X78477143Y66226819D01*
X78477143Y66734819D02*
X78404571Y66662248D01*
X78404571Y66662248D02*
X78477143Y66589676D01*
X78477143Y66589676D02*
X78549714Y66662248D01*
X78549714Y66662248D02*
X78477143Y66734819D01*
X78477143Y66734819D02*
X78477143Y66589676D01*
X79856000Y65283390D02*
X79710857Y65210819D01*
X79710857Y65210819D02*
X79420571Y65210819D01*
X79420571Y65210819D02*
X79275428Y65283390D01*
X79275428Y65283390D02*
X79202857Y65355962D01*
X79202857Y65355962D02*
X79130285Y65501105D01*
X79130285Y65501105D02*
X79130285Y65936533D01*
X79130285Y65936533D02*
X79202857Y66081676D01*
X79202857Y66081676D02*
X79275428Y66154248D01*
X79275428Y66154248D02*
X79420571Y66226819D01*
X79420571Y66226819D02*
X79710857Y66226819D01*
X79710857Y66226819D02*
X79856000Y66154248D01*
X71982000Y63773179D02*
X72272286Y62757179D01*
X72272286Y62757179D02*
X72562571Y63482893D01*
X72562571Y63482893D02*
X72852857Y62757179D01*
X72852857Y62757179D02*
X73143143Y63773179D01*
X74376857Y62757179D02*
X74376857Y63555465D01*
X74376857Y63555465D02*
X74304285Y63700608D01*
X74304285Y63700608D02*
X74159142Y63773179D01*
X74159142Y63773179D02*
X73868857Y63773179D01*
X73868857Y63773179D02*
X73723714Y63700608D01*
X74376857Y62829750D02*
X74231714Y62757179D01*
X74231714Y62757179D02*
X73868857Y62757179D01*
X73868857Y62757179D02*
X73723714Y62829750D01*
X73723714Y62829750D02*
X73651142Y62974893D01*
X73651142Y62974893D02*
X73651142Y63120036D01*
X73651142Y63120036D02*
X73723714Y63265179D01*
X73723714Y63265179D02*
X73868857Y63337750D01*
X73868857Y63337750D02*
X74231714Y63337750D01*
X74231714Y63337750D02*
X74376857Y63410322D01*
X75029999Y62829750D02*
X75175142Y62757179D01*
X75175142Y62757179D02*
X75465428Y62757179D01*
X75465428Y62757179D02*
X75610571Y62829750D01*
X75610571Y62829750D02*
X75683142Y62974893D01*
X75683142Y62974893D02*
X75683142Y63047465D01*
X75683142Y63047465D02*
X75610571Y63192608D01*
X75610571Y63192608D02*
X75465428Y63265179D01*
X75465428Y63265179D02*
X75247714Y63265179D01*
X75247714Y63265179D02*
X75102571Y63337750D01*
X75102571Y63337750D02*
X75029999Y63482893D01*
X75029999Y63482893D02*
X75029999Y63555465D01*
X75029999Y63555465D02*
X75102571Y63700608D01*
X75102571Y63700608D02*
X75247714Y63773179D01*
X75247714Y63773179D02*
X75465428Y63773179D01*
X75465428Y63773179D02*
X75610571Y63700608D01*
X76336285Y62757179D02*
X76336285Y64281179D01*
X76989428Y62757179D02*
X76989428Y63555465D01*
X76989428Y63555465D02*
X76916856Y63700608D01*
X76916856Y63700608D02*
X76771713Y63773179D01*
X76771713Y63773179D02*
X76553999Y63773179D01*
X76553999Y63773179D02*
X76408856Y63700608D01*
X76408856Y63700608D02*
X76336285Y63628036D01*
X78295713Y62829750D02*
X78150570Y62757179D01*
X78150570Y62757179D02*
X77860285Y62757179D01*
X77860285Y62757179D02*
X77715142Y62829750D01*
X77715142Y62829750D02*
X77642570Y62974893D01*
X77642570Y62974893D02*
X77642570Y63555465D01*
X77642570Y63555465D02*
X77715142Y63700608D01*
X77715142Y63700608D02*
X77860285Y63773179D01*
X77860285Y63773179D02*
X78150570Y63773179D01*
X78150570Y63773179D02*
X78295713Y63700608D01*
X78295713Y63700608D02*
X78368285Y63555465D01*
X78368285Y63555465D02*
X78368285Y63410322D01*
X78368285Y63410322D02*
X77642570Y63265179D01*
X79021428Y62757179D02*
X79021428Y63773179D01*
X79021428Y63482893D02*
X79093999Y63628036D01*
X79093999Y63628036D02*
X79166571Y63700608D01*
X79166571Y63700608D02*
X79311713Y63773179D01*
X79311713Y63773179D02*
X79456856Y63773179D01*
X79892285Y62829750D02*
X80037428Y62757179D01*
X80037428Y62757179D02*
X80327714Y62757179D01*
X80327714Y62757179D02*
X80472857Y62829750D01*
X80472857Y62829750D02*
X80545428Y62974893D01*
X80545428Y62974893D02*
X80545428Y63047465D01*
X80545428Y63047465D02*
X80472857Y63192608D01*
X80472857Y63192608D02*
X80327714Y63265179D01*
X80327714Y63265179D02*
X80110000Y63265179D01*
X80110000Y63265179D02*
X79964857Y63337750D01*
X79964857Y63337750D02*
X79892285Y63482893D01*
X79892285Y63482893D02*
X79892285Y63555465D01*
X79892285Y63555465D02*
X79964857Y63700608D01*
X79964857Y63700608D02*
X80110000Y63773179D01*
X80110000Y63773179D02*
X80327714Y63773179D01*
X80327714Y63773179D02*
X80472857Y63700608D01*
D10*
X10885714Y92945181D02*
X10314286Y92945181D01*
X10600000Y92945181D02*
X10600000Y93945181D01*
X10600000Y93945181D02*
X10504762Y93802324D01*
X10504762Y93802324D02*
X10409524Y93707086D01*
X10409524Y93707086D02*
X10314286Y93659467D01*
X6609524Y78345181D02*
X6800000Y78345181D01*
X6800000Y78345181D02*
X6895238Y78392800D01*
X6895238Y78392800D02*
X6942857Y78440420D01*
X6942857Y78440420D02*
X7038095Y78583277D01*
X7038095Y78583277D02*
X7085714Y78773753D01*
X7085714Y78773753D02*
X7085714Y79154705D01*
X7085714Y79154705D02*
X7038095Y79249943D01*
X7038095Y79249943D02*
X6990476Y79297562D01*
X6990476Y79297562D02*
X6895238Y79345181D01*
X6895238Y79345181D02*
X6704762Y79345181D01*
X6704762Y79345181D02*
X6609524Y79297562D01*
X6609524Y79297562D02*
X6561905Y79249943D01*
X6561905Y79249943D02*
X6514286Y79154705D01*
X6514286Y79154705D02*
X6514286Y78916610D01*
X6514286Y78916610D02*
X6561905Y78821372D01*
X6561905Y78821372D02*
X6609524Y78773753D01*
X6609524Y78773753D02*
X6704762Y78726134D01*
X6704762Y78726134D02*
X6895238Y78726134D01*
X6895238Y78726134D02*
X6990476Y78773753D01*
X6990476Y78773753D02*
X7038095Y78821372D01*
X7038095Y78821372D02*
X7085714Y78916610D01*
D13*
X8928571Y2319072D02*
X8928571Y1104786D01*
X8928571Y1104786D02*
X9000000Y961929D01*
X9000000Y961929D02*
X9071429Y890500D01*
X9071429Y890500D02*
X9214286Y819072D01*
X9214286Y819072D02*
X9500000Y819072D01*
X9500000Y819072D02*
X9642857Y890500D01*
X9642857Y890500D02*
X9714286Y961929D01*
X9714286Y961929D02*
X9785714Y1104786D01*
X9785714Y1104786D02*
X9785714Y2319072D01*
X10428572Y1247643D02*
X11142858Y1247643D01*
X10285715Y819072D02*
X10785715Y2319072D01*
X10785715Y2319072D02*
X11285715Y819072D01*
X11785714Y1604786D02*
X12285714Y1604786D01*
X12500000Y819072D02*
X11785714Y819072D01*
X11785714Y819072D02*
X11785714Y2319072D01*
X11785714Y2319072D02*
X12500000Y2319072D01*
X13642857Y1604786D02*
X13142857Y1604786D01*
X13142857Y819072D02*
X13142857Y2319072D01*
X13142857Y2319072D02*
X13857143Y2319072D01*
X14428571Y819072D02*
X14428571Y2319072D01*
X16285714Y819072D02*
X16285714Y1819072D01*
X16285714Y1533358D02*
X16357143Y1676215D01*
X16357143Y1676215D02*
X16428572Y1747643D01*
X16428572Y1747643D02*
X16571429Y1819072D01*
X16571429Y1819072D02*
X16714286Y1819072D01*
X17785714Y890500D02*
X17642857Y819072D01*
X17642857Y819072D02*
X17357143Y819072D01*
X17357143Y819072D02*
X17214285Y890500D01*
X17214285Y890500D02*
X17142857Y1033358D01*
X17142857Y1033358D02*
X17142857Y1604786D01*
X17142857Y1604786D02*
X17214285Y1747643D01*
X17214285Y1747643D02*
X17357143Y1819072D01*
X17357143Y1819072D02*
X17642857Y1819072D01*
X17642857Y1819072D02*
X17785714Y1747643D01*
X17785714Y1747643D02*
X17857143Y1604786D01*
X17857143Y1604786D02*
X17857143Y1461929D01*
X17857143Y1461929D02*
X17142857Y1319072D01*
X18357142Y1819072D02*
X18714285Y819072D01*
X18714285Y819072D02*
X19071428Y1819072D01*
X19642856Y961929D02*
X19714285Y890500D01*
X19714285Y890500D02*
X19642856Y819072D01*
X19642856Y819072D02*
X19571428Y890500D01*
X19571428Y890500D02*
X19642856Y961929D01*
X19642856Y961929D02*
X19642856Y819072D01*
X21428571Y1247643D02*
X22142857Y1247643D01*
X21285714Y819072D02*
X21785714Y2319072D01*
X21785714Y2319072D02*
X22285714Y819072D01*
D11*
X97857142Y84206972D02*
X98857142Y84206972D01*
X99285714Y82635543D02*
X97857142Y82635543D01*
X97857142Y82635543D02*
X97857142Y85635543D01*
X97857142Y85635543D02*
X99285714Y85635543D01*
D10*
X48209523Y93245181D02*
X47638095Y93245181D01*
X47923809Y93245181D02*
X47923809Y94245181D01*
X47923809Y94245181D02*
X47828571Y94102324D01*
X47828571Y94102324D02*
X47733333Y94007086D01*
X47733333Y94007086D02*
X47638095Y93959467D01*
X48828571Y94245181D02*
X48923809Y94245181D01*
X48923809Y94245181D02*
X49019047Y94197562D01*
X49019047Y94197562D02*
X49066666Y94149943D01*
X49066666Y94149943D02*
X49114285Y94054705D01*
X49114285Y94054705D02*
X49161904Y93864229D01*
X49161904Y93864229D02*
X49161904Y93626134D01*
X49161904Y93626134D02*
X49114285Y93435658D01*
X49114285Y93435658D02*
X49066666Y93340420D01*
X49066666Y93340420D02*
X49019047Y93292800D01*
X49019047Y93292800D02*
X48923809Y93245181D01*
X48923809Y93245181D02*
X48828571Y93245181D01*
X48828571Y93245181D02*
X48733333Y93292800D01*
X48733333Y93292800D02*
X48685714Y93340420D01*
X48685714Y93340420D02*
X48638095Y93435658D01*
X48638095Y93435658D02*
X48590476Y93626134D01*
X48590476Y93626134D02*
X48590476Y93864229D01*
X48590476Y93864229D02*
X48638095Y94054705D01*
X48638095Y94054705D02*
X48685714Y94149943D01*
X48685714Y94149943D02*
X48733333Y94197562D01*
X48733333Y94197562D02*
X48828571Y94245181D01*
X93585714Y78745181D02*
X93014286Y78745181D01*
X93300000Y78745181D02*
X93300000Y79745181D01*
X93300000Y79745181D02*
X93204762Y79602324D01*
X93204762Y79602324D02*
X93109524Y79507086D01*
X93109524Y79507086D02*
X93014286Y79459467D01*
D12*
X79738720Y38393972D02*
X80083958Y36893972D01*
X80083958Y36893972D02*
X80360149Y37965400D01*
X80360149Y37965400D02*
X80636339Y36893972D01*
X80636339Y36893972D02*
X80981578Y38393972D01*
X82017292Y37679686D02*
X82224435Y37608258D01*
X82224435Y37608258D02*
X82293482Y37536829D01*
X82293482Y37536829D02*
X82362530Y37393972D01*
X82362530Y37393972D02*
X82362530Y37179686D01*
X82362530Y37179686D02*
X82293482Y37036829D01*
X82293482Y37036829D02*
X82224435Y36965400D01*
X82224435Y36965400D02*
X82086340Y36893972D01*
X82086340Y36893972D02*
X81533959Y36893972D01*
X81533959Y36893972D02*
X81533959Y38393972D01*
X81533959Y38393972D02*
X82017292Y38393972D01*
X82017292Y38393972D02*
X82155387Y38322543D01*
X82155387Y38322543D02*
X82224435Y38251115D01*
X82224435Y38251115D02*
X82293482Y38108258D01*
X82293482Y38108258D02*
X82293482Y37965400D01*
X82293482Y37965400D02*
X82224435Y37822543D01*
X82224435Y37822543D02*
X82155387Y37751115D01*
X82155387Y37751115D02*
X82017292Y37679686D01*
X82017292Y37679686D02*
X81533959Y37679686D01*
X83260149Y38393972D02*
X83536340Y38393972D01*
X83536340Y38393972D02*
X83674435Y38322543D01*
X83674435Y38322543D02*
X83812530Y38179686D01*
X83812530Y38179686D02*
X83881578Y37893972D01*
X83881578Y37893972D02*
X83881578Y37393972D01*
X83881578Y37393972D02*
X83812530Y37108258D01*
X83812530Y37108258D02*
X83674435Y36965400D01*
X83674435Y36965400D02*
X83536340Y36893972D01*
X83536340Y36893972D02*
X83260149Y36893972D01*
X83260149Y36893972D02*
X83122054Y36965400D01*
X83122054Y36965400D02*
X82983959Y37108258D01*
X82983959Y37108258D02*
X82914911Y37393972D01*
X82914911Y37393972D02*
X82914911Y37893972D01*
X82914911Y37893972D02*
X82983959Y38179686D01*
X82983959Y38179686D02*
X83122054Y38322543D01*
X83122054Y38322543D02*
X83260149Y38393972D01*
D10*
X60109524Y81945181D02*
X60300000Y81945181D01*
X60300000Y81945181D02*
X60395238Y81992800D01*
X60395238Y81992800D02*
X60442857Y82040420D01*
X60442857Y82040420D02*
X60538095Y82183277D01*
X60538095Y82183277D02*
X60585714Y82373753D01*
X60585714Y82373753D02*
X60585714Y82754705D01*
X60585714Y82754705D02*
X60538095Y82849943D01*
X60538095Y82849943D02*
X60490476Y82897562D01*
X60490476Y82897562D02*
X60395238Y82945181D01*
X60395238Y82945181D02*
X60204762Y82945181D01*
X60204762Y82945181D02*
X60109524Y82897562D01*
X60109524Y82897562D02*
X60061905Y82849943D01*
X60061905Y82849943D02*
X60014286Y82754705D01*
X60014286Y82754705D02*
X60014286Y82516610D01*
X60014286Y82516610D02*
X60061905Y82421372D01*
X60061905Y82421372D02*
X60109524Y82373753D01*
X60109524Y82373753D02*
X60204762Y82326134D01*
X60204762Y82326134D02*
X60395238Y82326134D01*
X60395238Y82326134D02*
X60490476Y82373753D01*
X60490476Y82373753D02*
X60538095Y82421372D01*
X60538095Y82421372D02*
X60585714Y82516610D01*
X17304762Y38516610D02*
X17209524Y38564229D01*
X17209524Y38564229D02*
X17161905Y38611848D01*
X17161905Y38611848D02*
X17114286Y38707086D01*
X17114286Y38707086D02*
X17114286Y38754705D01*
X17114286Y38754705D02*
X17161905Y38849943D01*
X17161905Y38849943D02*
X17209524Y38897562D01*
X17209524Y38897562D02*
X17304762Y38945181D01*
X17304762Y38945181D02*
X17495238Y38945181D01*
X17495238Y38945181D02*
X17590476Y38897562D01*
X17590476Y38897562D02*
X17638095Y38849943D01*
X17638095Y38849943D02*
X17685714Y38754705D01*
X17685714Y38754705D02*
X17685714Y38707086D01*
X17685714Y38707086D02*
X17638095Y38611848D01*
X17638095Y38611848D02*
X17590476Y38564229D01*
X17590476Y38564229D02*
X17495238Y38516610D01*
X17495238Y38516610D02*
X17304762Y38516610D01*
X17304762Y38516610D02*
X17209524Y38468991D01*
X17209524Y38468991D02*
X17161905Y38421372D01*
X17161905Y38421372D02*
X17114286Y38326134D01*
X17114286Y38326134D02*
X17114286Y38135658D01*
X17114286Y38135658D02*
X17161905Y38040420D01*
X17161905Y38040420D02*
X17209524Y37992800D01*
X17209524Y37992800D02*
X17304762Y37945181D01*
X17304762Y37945181D02*
X17495238Y37945181D01*
X17495238Y37945181D02*
X17590476Y37992800D01*
X17590476Y37992800D02*
X17638095Y38040420D01*
X17638095Y38040420D02*
X17685714Y38135658D01*
X17685714Y38135658D02*
X17685714Y38326134D01*
X17685714Y38326134D02*
X17638095Y38421372D01*
X17638095Y38421372D02*
X17590476Y38468991D01*
X17590476Y38468991D02*
X17495238Y38516610D01*
D11*
X6428571Y89921258D02*
X6285714Y89778400D01*
X6285714Y89778400D02*
X5857142Y89635543D01*
X5857142Y89635543D02*
X5571428Y89635543D01*
X5571428Y89635543D02*
X5142857Y89778400D01*
X5142857Y89778400D02*
X4857142Y90064115D01*
X4857142Y90064115D02*
X4714285Y90349829D01*
X4714285Y90349829D02*
X4571428Y90921258D01*
X4571428Y90921258D02*
X4571428Y91349829D01*
X4571428Y91349829D02*
X4714285Y91921258D01*
X4714285Y91921258D02*
X4857142Y92206972D01*
X4857142Y92206972D02*
X5142857Y92492686D01*
X5142857Y92492686D02*
X5571428Y92635543D01*
X5571428Y92635543D02*
X5857142Y92635543D01*
X5857142Y92635543D02*
X6285714Y92492686D01*
X6285714Y92492686D02*
X6428571Y92349829D01*
X54714285Y90135543D02*
X54714285Y93135543D01*
X54714285Y93135543D02*
X55428571Y93135543D01*
X55428571Y93135543D02*
X55857142Y92992686D01*
X55857142Y92992686D02*
X56142857Y92706972D01*
X56142857Y92706972D02*
X56285714Y92421258D01*
X56285714Y92421258D02*
X56428571Y91849829D01*
X56428571Y91849829D02*
X56428571Y91421258D01*
X56428571Y91421258D02*
X56285714Y90849829D01*
X56285714Y90849829D02*
X56142857Y90564115D01*
X56142857Y90564115D02*
X55857142Y90278400D01*
X55857142Y90278400D02*
X55428571Y90135543D01*
X55428571Y90135543D02*
X54714285Y90135543D01*
D10*
X26628571Y41119943D02*
X26533333Y41167562D01*
X26533333Y41167562D02*
X26438095Y41262800D01*
X26438095Y41262800D02*
X26295238Y41405658D01*
X26295238Y41405658D02*
X26200000Y41453277D01*
X26200000Y41453277D02*
X26104762Y41453277D01*
X26152381Y41215181D02*
X26057143Y41262800D01*
X26057143Y41262800D02*
X25961905Y41358039D01*
X25961905Y41358039D02*
X25914286Y41548515D01*
X25914286Y41548515D02*
X25914286Y41881848D01*
X25914286Y41881848D02*
X25961905Y42072324D01*
X25961905Y42072324D02*
X26057143Y42167562D01*
X26057143Y42167562D02*
X26152381Y42215181D01*
X26152381Y42215181D02*
X26342857Y42215181D01*
X26342857Y42215181D02*
X26438095Y42167562D01*
X26438095Y42167562D02*
X26533333Y42072324D01*
X26533333Y42072324D02*
X26580952Y41881848D01*
X26580952Y41881848D02*
X26580952Y41548515D01*
X26580952Y41548515D02*
X26533333Y41358039D01*
X26533333Y41358039D02*
X26438095Y41262800D01*
X26438095Y41262800D02*
X26342857Y41215181D01*
X26342857Y41215181D02*
X26152381Y41215181D01*
X27533333Y41215181D02*
X26961905Y41215181D01*
X27247619Y41215181D02*
X27247619Y42215181D01*
X27247619Y42215181D02*
X27152381Y42072324D01*
X27152381Y42072324D02*
X27057143Y41977086D01*
X27057143Y41977086D02*
X26961905Y41929467D01*
X28152381Y42215181D02*
X28247619Y42215181D01*
X28247619Y42215181D02*
X28342857Y42167562D01*
X28342857Y42167562D02*
X28390476Y42119943D01*
X28390476Y42119943D02*
X28438095Y42024705D01*
X28438095Y42024705D02*
X28485714Y41834229D01*
X28485714Y41834229D02*
X28485714Y41596134D01*
X28485714Y41596134D02*
X28438095Y41405658D01*
X28438095Y41405658D02*
X28390476Y41310420D01*
X28390476Y41310420D02*
X28342857Y41262800D01*
X28342857Y41262800D02*
X28247619Y41215181D01*
X28247619Y41215181D02*
X28152381Y41215181D01*
X28152381Y41215181D02*
X28057143Y41262800D01*
X28057143Y41262800D02*
X28009524Y41310420D01*
X28009524Y41310420D02*
X27961905Y41405658D01*
X27961905Y41405658D02*
X27914286Y41596134D01*
X27914286Y41596134D02*
X27914286Y41834229D01*
X27914286Y41834229D02*
X27961905Y42024705D01*
X27961905Y42024705D02*
X28009524Y42119943D01*
X28009524Y42119943D02*
X28057143Y42167562D01*
X28057143Y42167562D02*
X28152381Y42215181D01*
X56390476Y89645181D02*
X56390476Y88930896D01*
X56390476Y88930896D02*
X56342857Y88788039D01*
X56342857Y88788039D02*
X56247619Y88692800D01*
X56247619Y88692800D02*
X56104762Y88645181D01*
X56104762Y88645181D02*
X56009524Y88645181D01*
X57390476Y88645181D02*
X56819048Y88645181D01*
X57104762Y88645181D02*
X57104762Y89645181D01*
X57104762Y89645181D02*
X57009524Y89502324D01*
X57009524Y89502324D02*
X56914286Y89407086D01*
X56914286Y89407086D02*
X56819048Y89359467D01*
X58009524Y89645181D02*
X58104762Y89645181D01*
X58104762Y89645181D02*
X58200000Y89597562D01*
X58200000Y89597562D02*
X58247619Y89549943D01*
X58247619Y89549943D02*
X58295238Y89454705D01*
X58295238Y89454705D02*
X58342857Y89264229D01*
X58342857Y89264229D02*
X58342857Y89026134D01*
X58342857Y89026134D02*
X58295238Y88835658D01*
X58295238Y88835658D02*
X58247619Y88740420D01*
X58247619Y88740420D02*
X58200000Y88692800D01*
X58200000Y88692800D02*
X58104762Y88645181D01*
X58104762Y88645181D02*
X58009524Y88645181D01*
X58009524Y88645181D02*
X57914286Y88692800D01*
X57914286Y88692800D02*
X57866667Y88740420D01*
X57866667Y88740420D02*
X57819048Y88835658D01*
X57819048Y88835658D02*
X57771429Y89026134D01*
X57771429Y89026134D02*
X57771429Y89264229D01*
X57771429Y89264229D02*
X57819048Y89454705D01*
X57819048Y89454705D02*
X57866667Y89549943D01*
X57866667Y89549943D02*
X57914286Y89597562D01*
X57914286Y89597562D02*
X58009524Y89645181D01*
X82461905Y21095181D02*
X82461905Y22095181D01*
X82461905Y22095181D02*
X82842857Y22095181D01*
X82842857Y22095181D02*
X82938095Y22047562D01*
X82938095Y22047562D02*
X82985714Y21999943D01*
X82985714Y21999943D02*
X83033333Y21904705D01*
X83033333Y21904705D02*
X83033333Y21761848D01*
X83033333Y21761848D02*
X82985714Y21666610D01*
X82985714Y21666610D02*
X82938095Y21618991D01*
X82938095Y21618991D02*
X82842857Y21571372D01*
X82842857Y21571372D02*
X82461905Y21571372D01*
X83604762Y21666610D02*
X83509524Y21714229D01*
X83509524Y21714229D02*
X83461905Y21761848D01*
X83461905Y21761848D02*
X83414286Y21857086D01*
X83414286Y21857086D02*
X83414286Y21904705D01*
X83414286Y21904705D02*
X83461905Y21999943D01*
X83461905Y21999943D02*
X83509524Y22047562D01*
X83509524Y22047562D02*
X83604762Y22095181D01*
X83604762Y22095181D02*
X83795238Y22095181D01*
X83795238Y22095181D02*
X83890476Y22047562D01*
X83890476Y22047562D02*
X83938095Y21999943D01*
X83938095Y21999943D02*
X83985714Y21904705D01*
X83985714Y21904705D02*
X83985714Y21857086D01*
X83985714Y21857086D02*
X83938095Y21761848D01*
X83938095Y21761848D02*
X83890476Y21714229D01*
X83890476Y21714229D02*
X83795238Y21666610D01*
X83795238Y21666610D02*
X83604762Y21666610D01*
X83604762Y21666610D02*
X83509524Y21618991D01*
X83509524Y21618991D02*
X83461905Y21571372D01*
X83461905Y21571372D02*
X83414286Y21476134D01*
X83414286Y21476134D02*
X83414286Y21285658D01*
X83414286Y21285658D02*
X83461905Y21190420D01*
X83461905Y21190420D02*
X83509524Y21142800D01*
X83509524Y21142800D02*
X83604762Y21095181D01*
X83604762Y21095181D02*
X83795238Y21095181D01*
X83795238Y21095181D02*
X83890476Y21142800D01*
X83890476Y21142800D02*
X83938095Y21190420D01*
X83938095Y21190420D02*
X83985714Y21285658D01*
X83985714Y21285658D02*
X83985714Y21476134D01*
X83985714Y21476134D02*
X83938095Y21571372D01*
X83938095Y21571372D02*
X83890476Y21618991D01*
X83890476Y21618991D02*
X83795238Y21666610D01*
X7666666Y89745181D02*
X7666666Y89030896D01*
X7666666Y89030896D02*
X7619047Y88888039D01*
X7619047Y88888039D02*
X7523809Y88792800D01*
X7523809Y88792800D02*
X7380952Y88745181D01*
X7380952Y88745181D02*
X7285714Y88745181D01*
X8095238Y89649943D02*
X8142857Y89697562D01*
X8142857Y89697562D02*
X8238095Y89745181D01*
X8238095Y89745181D02*
X8476190Y89745181D01*
X8476190Y89745181D02*
X8571428Y89697562D01*
X8571428Y89697562D02*
X8619047Y89649943D01*
X8619047Y89649943D02*
X8666666Y89554705D01*
X8666666Y89554705D02*
X8666666Y89459467D01*
X8666666Y89459467D02*
X8619047Y89316610D01*
X8619047Y89316610D02*
X8047619Y88745181D01*
X8047619Y88745181D02*
X8666666Y88745181D01*
X27104761Y62119943D02*
X27009523Y62167562D01*
X27009523Y62167562D02*
X26914285Y62262800D01*
X26914285Y62262800D02*
X26771428Y62405658D01*
X26771428Y62405658D02*
X26676190Y62453277D01*
X26676190Y62453277D02*
X26580952Y62453277D01*
X26628571Y62215181D02*
X26533333Y62262800D01*
X26533333Y62262800D02*
X26438095Y62358039D01*
X26438095Y62358039D02*
X26390476Y62548515D01*
X26390476Y62548515D02*
X26390476Y62881848D01*
X26390476Y62881848D02*
X26438095Y63072324D01*
X26438095Y63072324D02*
X26533333Y63167562D01*
X26533333Y63167562D02*
X26628571Y63215181D01*
X26628571Y63215181D02*
X26819047Y63215181D01*
X26819047Y63215181D02*
X26914285Y63167562D01*
X26914285Y63167562D02*
X27009523Y63072324D01*
X27009523Y63072324D02*
X27057142Y62881848D01*
X27057142Y62881848D02*
X27057142Y62548515D01*
X27057142Y62548515D02*
X27009523Y62358039D01*
X27009523Y62358039D02*
X26914285Y62262800D01*
X26914285Y62262800D02*
X26819047Y62215181D01*
X26819047Y62215181D02*
X26628571Y62215181D01*
X27390476Y63215181D02*
X28057142Y63215181D01*
X28057142Y63215181D02*
X27628571Y62215181D01*
X27104761Y55119943D02*
X27009523Y55167562D01*
X27009523Y55167562D02*
X26914285Y55262800D01*
X26914285Y55262800D02*
X26771428Y55405658D01*
X26771428Y55405658D02*
X26676190Y55453277D01*
X26676190Y55453277D02*
X26580952Y55453277D01*
X26628571Y55215181D02*
X26533333Y55262800D01*
X26533333Y55262800D02*
X26438095Y55358039D01*
X26438095Y55358039D02*
X26390476Y55548515D01*
X26390476Y55548515D02*
X26390476Y55881848D01*
X26390476Y55881848D02*
X26438095Y56072324D01*
X26438095Y56072324D02*
X26533333Y56167562D01*
X26533333Y56167562D02*
X26628571Y56215181D01*
X26628571Y56215181D02*
X26819047Y56215181D01*
X26819047Y56215181D02*
X26914285Y56167562D01*
X26914285Y56167562D02*
X27009523Y56072324D01*
X27009523Y56072324D02*
X27057142Y55881848D01*
X27057142Y55881848D02*
X27057142Y55548515D01*
X27057142Y55548515D02*
X27009523Y55358039D01*
X27009523Y55358039D02*
X26914285Y55262800D01*
X26914285Y55262800D02*
X26819047Y55215181D01*
X26819047Y55215181D02*
X26628571Y55215181D01*
X27628571Y55786610D02*
X27533333Y55834229D01*
X27533333Y55834229D02*
X27485714Y55881848D01*
X27485714Y55881848D02*
X27438095Y55977086D01*
X27438095Y55977086D02*
X27438095Y56024705D01*
X27438095Y56024705D02*
X27485714Y56119943D01*
X27485714Y56119943D02*
X27533333Y56167562D01*
X27533333Y56167562D02*
X27628571Y56215181D01*
X27628571Y56215181D02*
X27819047Y56215181D01*
X27819047Y56215181D02*
X27914285Y56167562D01*
X27914285Y56167562D02*
X27961904Y56119943D01*
X27961904Y56119943D02*
X28009523Y56024705D01*
X28009523Y56024705D02*
X28009523Y55977086D01*
X28009523Y55977086D02*
X27961904Y55881848D01*
X27961904Y55881848D02*
X27914285Y55834229D01*
X27914285Y55834229D02*
X27819047Y55786610D01*
X27819047Y55786610D02*
X27628571Y55786610D01*
X27628571Y55786610D02*
X27533333Y55738991D01*
X27533333Y55738991D02*
X27485714Y55691372D01*
X27485714Y55691372D02*
X27438095Y55596134D01*
X27438095Y55596134D02*
X27438095Y55405658D01*
X27438095Y55405658D02*
X27485714Y55310420D01*
X27485714Y55310420D02*
X27533333Y55262800D01*
X27533333Y55262800D02*
X27628571Y55215181D01*
X27628571Y55215181D02*
X27819047Y55215181D01*
X27819047Y55215181D02*
X27914285Y55262800D01*
X27914285Y55262800D02*
X27961904Y55310420D01*
X27961904Y55310420D02*
X28009523Y55405658D01*
X28009523Y55405658D02*
X28009523Y55596134D01*
X28009523Y55596134D02*
X27961904Y55691372D01*
X27961904Y55691372D02*
X27914285Y55738991D01*
X27914285Y55738991D02*
X27819047Y55786610D01*
X31261905Y59295181D02*
X31261905Y60295181D01*
X31261905Y60295181D02*
X31642857Y60295181D01*
X31642857Y60295181D02*
X31738095Y60247562D01*
X31738095Y60247562D02*
X31785714Y60199943D01*
X31785714Y60199943D02*
X31833333Y60104705D01*
X31833333Y60104705D02*
X31833333Y59961848D01*
X31833333Y59961848D02*
X31785714Y59866610D01*
X31785714Y59866610D02*
X31738095Y59818991D01*
X31738095Y59818991D02*
X31642857Y59771372D01*
X31642857Y59771372D02*
X31261905Y59771372D01*
X32785714Y59295181D02*
X32214286Y59295181D01*
X32500000Y59295181D02*
X32500000Y60295181D01*
X32500000Y60295181D02*
X32404762Y60152324D01*
X32404762Y60152324D02*
X32309524Y60057086D01*
X32309524Y60057086D02*
X32214286Y60009467D01*
X28904761Y79949943D02*
X28809523Y79997562D01*
X28809523Y79997562D02*
X28714285Y80092800D01*
X28714285Y80092800D02*
X28571428Y80235658D01*
X28571428Y80235658D02*
X28476190Y80283277D01*
X28476190Y80283277D02*
X28380952Y80283277D01*
X28428571Y80045181D02*
X28333333Y80092800D01*
X28333333Y80092800D02*
X28238095Y80188039D01*
X28238095Y80188039D02*
X28190476Y80378515D01*
X28190476Y80378515D02*
X28190476Y80711848D01*
X28190476Y80711848D02*
X28238095Y80902324D01*
X28238095Y80902324D02*
X28333333Y80997562D01*
X28333333Y80997562D02*
X28428571Y81045181D01*
X28428571Y81045181D02*
X28619047Y81045181D01*
X28619047Y81045181D02*
X28714285Y80997562D01*
X28714285Y80997562D02*
X28809523Y80902324D01*
X28809523Y80902324D02*
X28857142Y80711848D01*
X28857142Y80711848D02*
X28857142Y80378515D01*
X28857142Y80378515D02*
X28809523Y80188039D01*
X28809523Y80188039D02*
X28714285Y80092800D01*
X28714285Y80092800D02*
X28619047Y80045181D01*
X28619047Y80045181D02*
X28428571Y80045181D01*
X29238095Y80949943D02*
X29285714Y80997562D01*
X29285714Y80997562D02*
X29380952Y81045181D01*
X29380952Y81045181D02*
X29619047Y81045181D01*
X29619047Y81045181D02*
X29714285Y80997562D01*
X29714285Y80997562D02*
X29761904Y80949943D01*
X29761904Y80949943D02*
X29809523Y80854705D01*
X29809523Y80854705D02*
X29809523Y80759467D01*
X29809523Y80759467D02*
X29761904Y80616610D01*
X29761904Y80616610D02*
X29190476Y80045181D01*
X29190476Y80045181D02*
X29809523Y80045181D01*
D15*
X35392404Y79161986D02*
X35665737Y78771510D01*
X35860975Y79161986D02*
X35860975Y78341986D01*
X35860975Y78341986D02*
X35548594Y78341986D01*
X35548594Y78341986D02*
X35470499Y78381034D01*
X35470499Y78381034D02*
X35431452Y78420081D01*
X35431452Y78420081D02*
X35392404Y78498177D01*
X35392404Y78498177D02*
X35392404Y78615319D01*
X35392404Y78615319D02*
X35431452Y78693415D01*
X35431452Y78693415D02*
X35470499Y78732462D01*
X35470499Y78732462D02*
X35548594Y78771510D01*
X35548594Y78771510D02*
X35860975Y78771510D01*
X34611452Y79161986D02*
X35080023Y79161986D01*
X34845737Y79161986D02*
X34845737Y78341986D01*
X34845737Y78341986D02*
X34923833Y78459129D01*
X34923833Y78459129D02*
X35001928Y78537224D01*
X35001928Y78537224D02*
X35080023Y78576272D01*
D10*
X34161905Y59295181D02*
X34161905Y60295181D01*
X34161905Y60295181D02*
X34542857Y60295181D01*
X34542857Y60295181D02*
X34638095Y60247562D01*
X34638095Y60247562D02*
X34685714Y60199943D01*
X34685714Y60199943D02*
X34733333Y60104705D01*
X34733333Y60104705D02*
X34733333Y59961848D01*
X34733333Y59961848D02*
X34685714Y59866610D01*
X34685714Y59866610D02*
X34638095Y59818991D01*
X34638095Y59818991D02*
X34542857Y59771372D01*
X34542857Y59771372D02*
X34161905Y59771372D01*
X35114286Y60199943D02*
X35161905Y60247562D01*
X35161905Y60247562D02*
X35257143Y60295181D01*
X35257143Y60295181D02*
X35495238Y60295181D01*
X35495238Y60295181D02*
X35590476Y60247562D01*
X35590476Y60247562D02*
X35638095Y60199943D01*
X35638095Y60199943D02*
X35685714Y60104705D01*
X35685714Y60104705D02*
X35685714Y60009467D01*
X35685714Y60009467D02*
X35638095Y59866610D01*
X35638095Y59866610D02*
X35066667Y59295181D01*
X35066667Y59295181D02*
X35685714Y59295181D01*
D16*
X18146000Y21053232D02*
X17892000Y21053232D01*
X17892000Y20654089D02*
X17892000Y21416089D01*
X17892000Y21416089D02*
X18254857Y21416089D01*
X18871715Y21162089D02*
X18871715Y20654089D01*
X18690286Y21452374D02*
X18508857Y20908089D01*
X18508857Y20908089D02*
X18980572Y20908089D01*
D10*
X78171512Y11637131D02*
X78171512Y10922846D01*
X78171512Y10922846D02*
X78123893Y10779989D01*
X78123893Y10779989D02*
X78028655Y10684750D01*
X78028655Y10684750D02*
X77885798Y10637131D01*
X77885798Y10637131D02*
X77790560Y10637131D01*
X78552465Y11637131D02*
X79219131Y11637131D01*
X79219131Y11637131D02*
X78790560Y10637131D01*
X37628571Y39649943D02*
X37533333Y39697562D01*
X37533333Y39697562D02*
X37438095Y39792800D01*
X37438095Y39792800D02*
X37295238Y39935658D01*
X37295238Y39935658D02*
X37200000Y39983277D01*
X37200000Y39983277D02*
X37104762Y39983277D01*
X37152381Y39745181D02*
X37057143Y39792800D01*
X37057143Y39792800D02*
X36961905Y39888039D01*
X36961905Y39888039D02*
X36914286Y40078515D01*
X36914286Y40078515D02*
X36914286Y40411848D01*
X36914286Y40411848D02*
X36961905Y40602324D01*
X36961905Y40602324D02*
X37057143Y40697562D01*
X37057143Y40697562D02*
X37152381Y40745181D01*
X37152381Y40745181D02*
X37342857Y40745181D01*
X37342857Y40745181D02*
X37438095Y40697562D01*
X37438095Y40697562D02*
X37533333Y40602324D01*
X37533333Y40602324D02*
X37580952Y40411848D01*
X37580952Y40411848D02*
X37580952Y40078515D01*
X37580952Y40078515D02*
X37533333Y39888039D01*
X37533333Y39888039D02*
X37438095Y39792800D01*
X37438095Y39792800D02*
X37342857Y39745181D01*
X37342857Y39745181D02*
X37152381Y39745181D01*
X38533333Y39745181D02*
X37961905Y39745181D01*
X38247619Y39745181D02*
X38247619Y40745181D01*
X38247619Y40745181D02*
X38152381Y40602324D01*
X38152381Y40602324D02*
X38057143Y40507086D01*
X38057143Y40507086D02*
X37961905Y40459467D01*
X39390476Y40745181D02*
X39200000Y40745181D01*
X39200000Y40745181D02*
X39104762Y40697562D01*
X39104762Y40697562D02*
X39057143Y40649943D01*
X39057143Y40649943D02*
X38961905Y40507086D01*
X38961905Y40507086D02*
X38914286Y40316610D01*
X38914286Y40316610D02*
X38914286Y39935658D01*
X38914286Y39935658D02*
X38961905Y39840420D01*
X38961905Y39840420D02*
X39009524Y39792800D01*
X39009524Y39792800D02*
X39104762Y39745181D01*
X39104762Y39745181D02*
X39295238Y39745181D01*
X39295238Y39745181D02*
X39390476Y39792800D01*
X39390476Y39792800D02*
X39438095Y39840420D01*
X39438095Y39840420D02*
X39485714Y39935658D01*
X39485714Y39935658D02*
X39485714Y40173753D01*
X39485714Y40173753D02*
X39438095Y40268991D01*
X39438095Y40268991D02*
X39390476Y40316610D01*
X39390476Y40316610D02*
X39295238Y40364229D01*
X39295238Y40364229D02*
X39104762Y40364229D01*
X39104762Y40364229D02*
X39009524Y40316610D01*
X39009524Y40316610D02*
X38961905Y40268991D01*
X38961905Y40268991D02*
X38914286Y40173753D01*
X61761905Y9295181D02*
X61761905Y10295181D01*
X61761905Y10295181D02*
X62142857Y10295181D01*
X62142857Y10295181D02*
X62238095Y10247562D01*
X62238095Y10247562D02*
X62285714Y10199943D01*
X62285714Y10199943D02*
X62333333Y10104705D01*
X62333333Y10104705D02*
X62333333Y9961848D01*
X62333333Y9961848D02*
X62285714Y9866610D01*
X62285714Y9866610D02*
X62238095Y9818991D01*
X62238095Y9818991D02*
X62142857Y9771372D01*
X62142857Y9771372D02*
X61761905Y9771372D01*
X63190476Y9961848D02*
X63190476Y9295181D01*
X62952381Y10342800D02*
X62714286Y9628515D01*
X62714286Y9628515D02*
X63333333Y9628515D01*
X42761905Y3695181D02*
X42761905Y4695181D01*
X42761905Y4695181D02*
X43142857Y4695181D01*
X43142857Y4695181D02*
X43238095Y4647562D01*
X43238095Y4647562D02*
X43285714Y4599943D01*
X43285714Y4599943D02*
X43333333Y4504705D01*
X43333333Y4504705D02*
X43333333Y4361848D01*
X43333333Y4361848D02*
X43285714Y4266610D01*
X43285714Y4266610D02*
X43238095Y4218991D01*
X43238095Y4218991D02*
X43142857Y4171372D01*
X43142857Y4171372D02*
X42761905Y4171372D01*
X44238095Y4695181D02*
X43761905Y4695181D01*
X43761905Y4695181D02*
X43714286Y4218991D01*
X43714286Y4218991D02*
X43761905Y4266610D01*
X43761905Y4266610D02*
X43857143Y4314229D01*
X43857143Y4314229D02*
X44095238Y4314229D01*
X44095238Y4314229D02*
X44190476Y4266610D01*
X44190476Y4266610D02*
X44238095Y4218991D01*
X44238095Y4218991D02*
X44285714Y4123753D01*
X44285714Y4123753D02*
X44285714Y3885658D01*
X44285714Y3885658D02*
X44238095Y3790420D01*
X44238095Y3790420D02*
X44190476Y3742800D01*
X44190476Y3742800D02*
X44095238Y3695181D01*
X44095238Y3695181D02*
X43857143Y3695181D01*
X43857143Y3695181D02*
X43761905Y3742800D01*
X43761905Y3742800D02*
X43714286Y3790420D01*
X55004819Y4366667D02*
X55719104Y4366667D01*
X55719104Y4366667D02*
X55861961Y4319048D01*
X55861961Y4319048D02*
X55957200Y4223810D01*
X55957200Y4223810D02*
X56004819Y4080953D01*
X56004819Y4080953D02*
X56004819Y3985715D01*
X55433390Y4985715D02*
X55385771Y4890477D01*
X55385771Y4890477D02*
X55338152Y4842858D01*
X55338152Y4842858D02*
X55242914Y4795239D01*
X55242914Y4795239D02*
X55195295Y4795239D01*
X55195295Y4795239D02*
X55100057Y4842858D01*
X55100057Y4842858D02*
X55052438Y4890477D01*
X55052438Y4890477D02*
X55004819Y4985715D01*
X55004819Y4985715D02*
X55004819Y5176191D01*
X55004819Y5176191D02*
X55052438Y5271429D01*
X55052438Y5271429D02*
X55100057Y5319048D01*
X55100057Y5319048D02*
X55195295Y5366667D01*
X55195295Y5366667D02*
X55242914Y5366667D01*
X55242914Y5366667D02*
X55338152Y5319048D01*
X55338152Y5319048D02*
X55385771Y5271429D01*
X55385771Y5271429D02*
X55433390Y5176191D01*
X55433390Y5176191D02*
X55433390Y4985715D01*
X55433390Y4985715D02*
X55481009Y4890477D01*
X55481009Y4890477D02*
X55528628Y4842858D01*
X55528628Y4842858D02*
X55623866Y4795239D01*
X55623866Y4795239D02*
X55814342Y4795239D01*
X55814342Y4795239D02*
X55909580Y4842858D01*
X55909580Y4842858D02*
X55957200Y4890477D01*
X55957200Y4890477D02*
X56004819Y4985715D01*
X56004819Y4985715D02*
X56004819Y5176191D01*
X56004819Y5176191D02*
X55957200Y5271429D01*
X55957200Y5271429D02*
X55909580Y5319048D01*
X55909580Y5319048D02*
X55814342Y5366667D01*
X55814342Y5366667D02*
X55623866Y5366667D01*
X55623866Y5366667D02*
X55528628Y5319048D01*
X55528628Y5319048D02*
X55481009Y5271429D01*
X55481009Y5271429D02*
X55433390Y5176191D01*
D16*
X20346000Y21053232D02*
X20092000Y21053232D01*
X20092000Y20654089D02*
X20092000Y21416089D01*
X20092000Y21416089D02*
X20454857Y21416089D01*
X20672572Y21416089D02*
X21144286Y21416089D01*
X21144286Y21416089D02*
X20890286Y21125803D01*
X20890286Y21125803D02*
X20999143Y21125803D01*
X20999143Y21125803D02*
X21071715Y21089517D01*
X21071715Y21089517D02*
X21108000Y21053232D01*
X21108000Y21053232D02*
X21144286Y20980660D01*
X21144286Y20980660D02*
X21144286Y20799232D01*
X21144286Y20799232D02*
X21108000Y20726660D01*
X21108000Y20726660D02*
X21071715Y20690374D01*
X21071715Y20690374D02*
X20999143Y20654089D01*
X20999143Y20654089D02*
X20781429Y20654089D01*
X20781429Y20654089D02*
X20708857Y20690374D01*
X20708857Y20690374D02*
X20672572Y20726660D01*
D10*
X26628571Y27119943D02*
X26533333Y27167562D01*
X26533333Y27167562D02*
X26438095Y27262800D01*
X26438095Y27262800D02*
X26295238Y27405658D01*
X26295238Y27405658D02*
X26200000Y27453277D01*
X26200000Y27453277D02*
X26104762Y27453277D01*
X26152381Y27215181D02*
X26057143Y27262800D01*
X26057143Y27262800D02*
X25961905Y27358039D01*
X25961905Y27358039D02*
X25914286Y27548515D01*
X25914286Y27548515D02*
X25914286Y27881848D01*
X25914286Y27881848D02*
X25961905Y28072324D01*
X25961905Y28072324D02*
X26057143Y28167562D01*
X26057143Y28167562D02*
X26152381Y28215181D01*
X26152381Y28215181D02*
X26342857Y28215181D01*
X26342857Y28215181D02*
X26438095Y28167562D01*
X26438095Y28167562D02*
X26533333Y28072324D01*
X26533333Y28072324D02*
X26580952Y27881848D01*
X26580952Y27881848D02*
X26580952Y27548515D01*
X26580952Y27548515D02*
X26533333Y27358039D01*
X26533333Y27358039D02*
X26438095Y27262800D01*
X26438095Y27262800D02*
X26342857Y27215181D01*
X26342857Y27215181D02*
X26152381Y27215181D01*
X27533333Y27215181D02*
X26961905Y27215181D01*
X27247619Y27215181D02*
X27247619Y28215181D01*
X27247619Y28215181D02*
X27152381Y28072324D01*
X27152381Y28072324D02*
X27057143Y27977086D01*
X27057143Y27977086D02*
X26961905Y27929467D01*
X27914286Y28119943D02*
X27961905Y28167562D01*
X27961905Y28167562D02*
X28057143Y28215181D01*
X28057143Y28215181D02*
X28295238Y28215181D01*
X28295238Y28215181D02*
X28390476Y28167562D01*
X28390476Y28167562D02*
X28438095Y28119943D01*
X28438095Y28119943D02*
X28485714Y28024705D01*
X28485714Y28024705D02*
X28485714Y27929467D01*
X28485714Y27929467D02*
X28438095Y27786610D01*
X28438095Y27786610D02*
X27866667Y27215181D01*
X27866667Y27215181D02*
X28485714Y27215181D01*
X28904761Y72449943D02*
X28809523Y72497562D01*
X28809523Y72497562D02*
X28714285Y72592800D01*
X28714285Y72592800D02*
X28571428Y72735658D01*
X28571428Y72735658D02*
X28476190Y72783277D01*
X28476190Y72783277D02*
X28380952Y72783277D01*
X28428571Y72545181D02*
X28333333Y72592800D01*
X28333333Y72592800D02*
X28238095Y72688039D01*
X28238095Y72688039D02*
X28190476Y72878515D01*
X28190476Y72878515D02*
X28190476Y73211848D01*
X28190476Y73211848D02*
X28238095Y73402324D01*
X28238095Y73402324D02*
X28333333Y73497562D01*
X28333333Y73497562D02*
X28428571Y73545181D01*
X28428571Y73545181D02*
X28619047Y73545181D01*
X28619047Y73545181D02*
X28714285Y73497562D01*
X28714285Y73497562D02*
X28809523Y73402324D01*
X28809523Y73402324D02*
X28857142Y73211848D01*
X28857142Y73211848D02*
X28857142Y72878515D01*
X28857142Y72878515D02*
X28809523Y72688039D01*
X28809523Y72688039D02*
X28714285Y72592800D01*
X28714285Y72592800D02*
X28619047Y72545181D01*
X28619047Y72545181D02*
X28428571Y72545181D01*
X29714285Y73211848D02*
X29714285Y72545181D01*
X29476190Y73592800D02*
X29238095Y72878515D01*
X29238095Y72878515D02*
X29857142Y72878515D01*
X10166666Y43145181D02*
X10166666Y42430896D01*
X10166666Y42430896D02*
X10119047Y42288039D01*
X10119047Y42288039D02*
X10023809Y42192800D01*
X10023809Y42192800D02*
X9880952Y42145181D01*
X9880952Y42145181D02*
X9785714Y42145181D01*
X11119047Y43145181D02*
X10642857Y43145181D01*
X10642857Y43145181D02*
X10595238Y42668991D01*
X10595238Y42668991D02*
X10642857Y42716610D01*
X10642857Y42716610D02*
X10738095Y42764229D01*
X10738095Y42764229D02*
X10976190Y42764229D01*
X10976190Y42764229D02*
X11071428Y42716610D01*
X11071428Y42716610D02*
X11119047Y42668991D01*
X11119047Y42668991D02*
X11166666Y42573753D01*
X11166666Y42573753D02*
X11166666Y42335658D01*
X11166666Y42335658D02*
X11119047Y42240420D01*
X11119047Y42240420D02*
X11071428Y42192800D01*
X11071428Y42192800D02*
X10976190Y42145181D01*
X10976190Y42145181D02*
X10738095Y42145181D01*
X10738095Y42145181D02*
X10642857Y42192800D01*
X10642857Y42192800D02*
X10595238Y42240420D01*
X27104761Y48119943D02*
X27009523Y48167562D01*
X27009523Y48167562D02*
X26914285Y48262800D01*
X26914285Y48262800D02*
X26771428Y48405658D01*
X26771428Y48405658D02*
X26676190Y48453277D01*
X26676190Y48453277D02*
X26580952Y48453277D01*
X26628571Y48215181D02*
X26533333Y48262800D01*
X26533333Y48262800D02*
X26438095Y48358039D01*
X26438095Y48358039D02*
X26390476Y48548515D01*
X26390476Y48548515D02*
X26390476Y48881848D01*
X26390476Y48881848D02*
X26438095Y49072324D01*
X26438095Y49072324D02*
X26533333Y49167562D01*
X26533333Y49167562D02*
X26628571Y49215181D01*
X26628571Y49215181D02*
X26819047Y49215181D01*
X26819047Y49215181D02*
X26914285Y49167562D01*
X26914285Y49167562D02*
X27009523Y49072324D01*
X27009523Y49072324D02*
X27057142Y48881848D01*
X27057142Y48881848D02*
X27057142Y48548515D01*
X27057142Y48548515D02*
X27009523Y48358039D01*
X27009523Y48358039D02*
X26914285Y48262800D01*
X26914285Y48262800D02*
X26819047Y48215181D01*
X26819047Y48215181D02*
X26628571Y48215181D01*
X27533333Y48215181D02*
X27723809Y48215181D01*
X27723809Y48215181D02*
X27819047Y48262800D01*
X27819047Y48262800D02*
X27866666Y48310420D01*
X27866666Y48310420D02*
X27961904Y48453277D01*
X27961904Y48453277D02*
X28009523Y48643753D01*
X28009523Y48643753D02*
X28009523Y49024705D01*
X28009523Y49024705D02*
X27961904Y49119943D01*
X27961904Y49119943D02*
X27914285Y49167562D01*
X27914285Y49167562D02*
X27819047Y49215181D01*
X27819047Y49215181D02*
X27628571Y49215181D01*
X27628571Y49215181D02*
X27533333Y49167562D01*
X27533333Y49167562D02*
X27485714Y49119943D01*
X27485714Y49119943D02*
X27438095Y49024705D01*
X27438095Y49024705D02*
X27438095Y48786610D01*
X27438095Y48786610D02*
X27485714Y48691372D01*
X27485714Y48691372D02*
X27533333Y48643753D01*
X27533333Y48643753D02*
X27628571Y48596134D01*
X27628571Y48596134D02*
X27819047Y48596134D01*
X27819047Y48596134D02*
X27914285Y48643753D01*
X27914285Y48643753D02*
X27961904Y48691372D01*
X27961904Y48691372D02*
X28009523Y48786610D01*
X85233790Y12670953D02*
X85849028Y12670953D01*
X85849028Y12670953D02*
X85921409Y12707143D01*
X85921409Y12707143D02*
X85957600Y12743334D01*
X85957600Y12743334D02*
X85993790Y12815715D01*
X85993790Y12815715D02*
X85993790Y12960477D01*
X85993790Y12960477D02*
X85957600Y13032858D01*
X85957600Y13032858D02*
X85921409Y13069048D01*
X85921409Y13069048D02*
X85849028Y13105239D01*
X85849028Y13105239D02*
X85233790Y13105239D01*
X85233790Y13829048D02*
X85233790Y13467143D01*
X85233790Y13467143D02*
X85595695Y13430952D01*
X85595695Y13430952D02*
X85559504Y13467143D01*
X85559504Y13467143D02*
X85523314Y13539524D01*
X85523314Y13539524D02*
X85523314Y13720476D01*
X85523314Y13720476D02*
X85559504Y13792857D01*
X85559504Y13792857D02*
X85595695Y13829048D01*
X85595695Y13829048D02*
X85668076Y13865238D01*
X85668076Y13865238D02*
X85849028Y13865238D01*
X85849028Y13865238D02*
X85921409Y13829048D01*
X85921409Y13829048D02*
X85957600Y13792857D01*
X85957600Y13792857D02*
X85993790Y13720476D01*
X85993790Y13720476D02*
X85993790Y13539524D01*
X85993790Y13539524D02*
X85957600Y13467143D01*
X85957600Y13467143D02*
X85921409Y13430952D01*
X92266666Y83345181D02*
X92266666Y82630896D01*
X92266666Y82630896D02*
X92219047Y82488039D01*
X92219047Y82488039D02*
X92123809Y82392800D01*
X92123809Y82392800D02*
X91980952Y82345181D01*
X91980952Y82345181D02*
X91885714Y82345181D01*
X92647619Y83345181D02*
X93266666Y83345181D01*
X93266666Y83345181D02*
X92933333Y82964229D01*
X92933333Y82964229D02*
X93076190Y82964229D01*
X93076190Y82964229D02*
X93171428Y82916610D01*
X93171428Y82916610D02*
X93219047Y82868991D01*
X93219047Y82868991D02*
X93266666Y82773753D01*
X93266666Y82773753D02*
X93266666Y82535658D01*
X93266666Y82535658D02*
X93219047Y82440420D01*
X93219047Y82440420D02*
X93171428Y82392800D01*
X93171428Y82392800D02*
X93076190Y82345181D01*
X93076190Y82345181D02*
X92790476Y82345181D01*
X92790476Y82345181D02*
X92695238Y82392800D01*
X92695238Y82392800D02*
X92647619Y82440420D01*
D15*
X18875651Y73209192D02*
X18602318Y73599668D01*
X18407080Y73209192D02*
X18407080Y74029192D01*
X18407080Y74029192D02*
X18719461Y74029192D01*
X18719461Y74029192D02*
X18797556Y73990144D01*
X18797556Y73990144D02*
X18836603Y73951097D01*
X18836603Y73951097D02*
X18875651Y73873001D01*
X18875651Y73873001D02*
X18875651Y73755859D01*
X18875651Y73755859D02*
X18836603Y73677763D01*
X18836603Y73677763D02*
X18797556Y73638716D01*
X18797556Y73638716D02*
X18719461Y73599668D01*
X18719461Y73599668D02*
X18407080Y73599668D01*
X19656603Y73209192D02*
X19188032Y73209192D01*
X19422318Y73209192D02*
X19422318Y74029192D01*
X19422318Y74029192D02*
X19344222Y73912049D01*
X19344222Y73912049D02*
X19266127Y73833954D01*
X19266127Y73833954D02*
X19188032Y73794906D01*
X19929936Y74029192D02*
X20437555Y74029192D01*
X20437555Y74029192D02*
X20164222Y73716811D01*
X20164222Y73716811D02*
X20281365Y73716811D01*
X20281365Y73716811D02*
X20359460Y73677763D01*
X20359460Y73677763D02*
X20398508Y73638716D01*
X20398508Y73638716D02*
X20437555Y73560620D01*
X20437555Y73560620D02*
X20437555Y73365382D01*
X20437555Y73365382D02*
X20398508Y73287287D01*
X20398508Y73287287D02*
X20359460Y73248239D01*
X20359460Y73248239D02*
X20281365Y73209192D01*
X20281365Y73209192D02*
X20047079Y73209192D01*
X20047079Y73209192D02*
X19968984Y73248239D01*
X19968984Y73248239D02*
X19929936Y73287287D01*
D16*
X22546000Y21053232D02*
X22292000Y21053232D01*
X22292000Y20654089D02*
X22292000Y21416089D01*
X22292000Y21416089D02*
X22654857Y21416089D01*
X23344286Y20654089D02*
X22908857Y20654089D01*
X23126572Y20654089D02*
X23126572Y21416089D01*
X23126572Y21416089D02*
X23054000Y21307232D01*
X23054000Y21307232D02*
X22981429Y21234660D01*
X22981429Y21234660D02*
X22908857Y21198374D01*
D10*
X61761905Y4295181D02*
X61761905Y5295181D01*
X61761905Y5295181D02*
X62142857Y5295181D01*
X62142857Y5295181D02*
X62238095Y5247562D01*
X62238095Y5247562D02*
X62285714Y5199943D01*
X62285714Y5199943D02*
X62333333Y5104705D01*
X62333333Y5104705D02*
X62333333Y4961848D01*
X62333333Y4961848D02*
X62285714Y4866610D01*
X62285714Y4866610D02*
X62238095Y4818991D01*
X62238095Y4818991D02*
X62142857Y4771372D01*
X62142857Y4771372D02*
X61761905Y4771372D01*
X62666667Y5295181D02*
X63285714Y5295181D01*
X63285714Y5295181D02*
X62952381Y4914229D01*
X62952381Y4914229D02*
X63095238Y4914229D01*
X63095238Y4914229D02*
X63190476Y4866610D01*
X63190476Y4866610D02*
X63238095Y4818991D01*
X63238095Y4818991D02*
X63285714Y4723753D01*
X63285714Y4723753D02*
X63285714Y4485658D01*
X63285714Y4485658D02*
X63238095Y4390420D01*
X63238095Y4390420D02*
X63190476Y4342800D01*
X63190476Y4342800D02*
X63095238Y4295181D01*
X63095238Y4295181D02*
X62809524Y4295181D01*
X62809524Y4295181D02*
X62714286Y4342800D01*
X62714286Y4342800D02*
X62666667Y4390420D01*
D15*
X19040092Y80763015D02*
X18766759Y81153491D01*
X18571521Y80763015D02*
X18571521Y81583015D01*
X18571521Y81583015D02*
X18883902Y81583015D01*
X18883902Y81583015D02*
X18961997Y81543967D01*
X18961997Y81543967D02*
X19001044Y81504920D01*
X19001044Y81504920D02*
X19040092Y81426824D01*
X19040092Y81426824D02*
X19040092Y81309682D01*
X19040092Y81309682D02*
X19001044Y81231586D01*
X19001044Y81231586D02*
X18961997Y81192539D01*
X18961997Y81192539D02*
X18883902Y81153491D01*
X18883902Y81153491D02*
X18571521Y81153491D01*
X19821044Y80763015D02*
X19352473Y80763015D01*
X19586759Y80763015D02*
X19586759Y81583015D01*
X19586759Y81583015D02*
X19508663Y81465872D01*
X19508663Y81465872D02*
X19430568Y81387777D01*
X19430568Y81387777D02*
X19352473Y81348729D01*
X20601996Y80763015D02*
X20133425Y80763015D01*
X20367711Y80763015D02*
X20367711Y81583015D01*
X20367711Y81583015D02*
X20289615Y81465872D01*
X20289615Y81465872D02*
X20211520Y81387777D01*
X20211520Y81387777D02*
X20133425Y81348729D01*
X17770508Y75894763D02*
X16950508Y75894763D01*
X16950508Y75894763D02*
X16950508Y76090001D01*
X16950508Y76090001D02*
X16989556Y76207144D01*
X16989556Y76207144D02*
X17067651Y76285239D01*
X17067651Y76285239D02*
X17145746Y76324286D01*
X17145746Y76324286D02*
X17301937Y76363334D01*
X17301937Y76363334D02*
X17419080Y76363334D01*
X17419080Y76363334D02*
X17575270Y76324286D01*
X17575270Y76324286D02*
X17653365Y76285239D01*
X17653365Y76285239D02*
X17731461Y76207144D01*
X17731461Y76207144D02*
X17770508Y76090001D01*
X17770508Y76090001D02*
X17770508Y75894763D01*
X16950508Y76636667D02*
X16950508Y77144286D01*
X16950508Y77144286D02*
X17262889Y76870953D01*
X17262889Y76870953D02*
X17262889Y76988096D01*
X17262889Y76988096D02*
X17301937Y77066191D01*
X17301937Y77066191D02*
X17340984Y77105239D01*
X17340984Y77105239D02*
X17419080Y77144286D01*
X17419080Y77144286D02*
X17614318Y77144286D01*
X17614318Y77144286D02*
X17692413Y77105239D01*
X17692413Y77105239D02*
X17731461Y77066191D01*
X17731461Y77066191D02*
X17770508Y76988096D01*
X17770508Y76988096D02*
X17770508Y76753810D01*
X17770508Y76753810D02*
X17731461Y76675715D01*
X17731461Y76675715D02*
X17692413Y76636667D01*
D10*
X4530213Y22168198D02*
X4530213Y21358675D01*
X4530213Y21358675D02*
X4577832Y21263437D01*
X4577832Y21263437D02*
X4625451Y21215817D01*
X4625451Y21215817D02*
X4720689Y21168198D01*
X4720689Y21168198D02*
X4911165Y21168198D01*
X4911165Y21168198D02*
X5006403Y21215817D01*
X5006403Y21215817D02*
X5054022Y21263437D01*
X5054022Y21263437D02*
X5101641Y21358675D01*
X5101641Y21358675D02*
X5101641Y22168198D01*
X6101641Y21168198D02*
X5530213Y21168198D01*
X5815927Y21168198D02*
X5815927Y22168198D01*
X5815927Y22168198D02*
X5720689Y22025341D01*
X5720689Y22025341D02*
X5625451Y21930103D01*
X5625451Y21930103D02*
X5530213Y21882484D01*
X11421439Y12782141D02*
X11421439Y11972618D01*
X11421439Y11972618D02*
X11469058Y11877380D01*
X11469058Y11877380D02*
X11516677Y11829760D01*
X11516677Y11829760D02*
X11611915Y11782141D01*
X11611915Y11782141D02*
X11802391Y11782141D01*
X11802391Y11782141D02*
X11897629Y11829760D01*
X11897629Y11829760D02*
X11945248Y11877380D01*
X11945248Y11877380D02*
X11992867Y11972618D01*
X11992867Y11972618D02*
X11992867Y12782141D01*
X12421439Y12686903D02*
X12469058Y12734522D01*
X12469058Y12734522D02*
X12564296Y12782141D01*
X12564296Y12782141D02*
X12802391Y12782141D01*
X12802391Y12782141D02*
X12897629Y12734522D01*
X12897629Y12734522D02*
X12945248Y12686903D01*
X12945248Y12686903D02*
X12992867Y12591665D01*
X12992867Y12591665D02*
X12992867Y12496427D01*
X12992867Y12496427D02*
X12945248Y12353570D01*
X12945248Y12353570D02*
X12373820Y11782141D01*
X12373820Y11782141D02*
X12992867Y11782141D01*
X10166666Y23745181D02*
X10166666Y23030896D01*
X10166666Y23030896D02*
X10119047Y22888039D01*
X10119047Y22888039D02*
X10023809Y22792800D01*
X10023809Y22792800D02*
X9880952Y22745181D01*
X9880952Y22745181D02*
X9785714Y22745181D01*
X11071428Y23411848D02*
X11071428Y22745181D01*
X10833333Y23792800D02*
X10595238Y23078515D01*
X10595238Y23078515D02*
X11214285Y23078515D01*
X82461905Y25345181D02*
X82461905Y26345181D01*
X82461905Y26345181D02*
X82842857Y26345181D01*
X82842857Y26345181D02*
X82938095Y26297562D01*
X82938095Y26297562D02*
X82985714Y26249943D01*
X82985714Y26249943D02*
X83033333Y26154705D01*
X83033333Y26154705D02*
X83033333Y26011848D01*
X83033333Y26011848D02*
X82985714Y25916610D01*
X82985714Y25916610D02*
X82938095Y25868991D01*
X82938095Y25868991D02*
X82842857Y25821372D01*
X82842857Y25821372D02*
X82461905Y25821372D01*
X83366667Y26345181D02*
X84033333Y26345181D01*
X84033333Y26345181D02*
X83604762Y25345181D01*
X26628571Y34119943D02*
X26533333Y34167562D01*
X26533333Y34167562D02*
X26438095Y34262800D01*
X26438095Y34262800D02*
X26295238Y34405658D01*
X26295238Y34405658D02*
X26200000Y34453277D01*
X26200000Y34453277D02*
X26104762Y34453277D01*
X26152381Y34215181D02*
X26057143Y34262800D01*
X26057143Y34262800D02*
X25961905Y34358039D01*
X25961905Y34358039D02*
X25914286Y34548515D01*
X25914286Y34548515D02*
X25914286Y34881848D01*
X25914286Y34881848D02*
X25961905Y35072324D01*
X25961905Y35072324D02*
X26057143Y35167562D01*
X26057143Y35167562D02*
X26152381Y35215181D01*
X26152381Y35215181D02*
X26342857Y35215181D01*
X26342857Y35215181D02*
X26438095Y35167562D01*
X26438095Y35167562D02*
X26533333Y35072324D01*
X26533333Y35072324D02*
X26580952Y34881848D01*
X26580952Y34881848D02*
X26580952Y34548515D01*
X26580952Y34548515D02*
X26533333Y34358039D01*
X26533333Y34358039D02*
X26438095Y34262800D01*
X26438095Y34262800D02*
X26342857Y34215181D01*
X26342857Y34215181D02*
X26152381Y34215181D01*
X27533333Y34215181D02*
X26961905Y34215181D01*
X27247619Y34215181D02*
X27247619Y35215181D01*
X27247619Y35215181D02*
X27152381Y35072324D01*
X27152381Y35072324D02*
X27057143Y34977086D01*
X27057143Y34977086D02*
X26961905Y34929467D01*
X28485714Y34215181D02*
X27914286Y34215181D01*
X28200000Y34215181D02*
X28200000Y35215181D01*
X28200000Y35215181D02*
X28104762Y35072324D01*
X28104762Y35072324D02*
X28009524Y34977086D01*
X28009524Y34977086D02*
X27914286Y34929467D01*
X49666666Y10260181D02*
X49666666Y9545896D01*
X49666666Y9545896D02*
X49619047Y9403039D01*
X49619047Y9403039D02*
X49523809Y9307800D01*
X49523809Y9307800D02*
X49380952Y9260181D01*
X49380952Y9260181D02*
X49285714Y9260181D01*
X50190476Y9260181D02*
X50380952Y9260181D01*
X50380952Y9260181D02*
X50476190Y9307800D01*
X50476190Y9307800D02*
X50523809Y9355420D01*
X50523809Y9355420D02*
X50619047Y9498277D01*
X50619047Y9498277D02*
X50666666Y9688753D01*
X50666666Y9688753D02*
X50666666Y10069705D01*
X50666666Y10069705D02*
X50619047Y10164943D01*
X50619047Y10164943D02*
X50571428Y10212562D01*
X50571428Y10212562D02*
X50476190Y10260181D01*
X50476190Y10260181D02*
X50285714Y10260181D01*
X50285714Y10260181D02*
X50190476Y10212562D01*
X50190476Y10212562D02*
X50142857Y10164943D01*
X50142857Y10164943D02*
X50095238Y10069705D01*
X50095238Y10069705D02*
X50095238Y9831610D01*
X50095238Y9831610D02*
X50142857Y9736372D01*
X50142857Y9736372D02*
X50190476Y9688753D01*
X50190476Y9688753D02*
X50285714Y9641134D01*
X50285714Y9641134D02*
X50476190Y9641134D01*
X50476190Y9641134D02*
X50571428Y9688753D01*
X50571428Y9688753D02*
X50619047Y9736372D01*
X50619047Y9736372D02*
X50666666Y9831610D01*
D16*
X16946768Y22346001D02*
X16946768Y22092001D01*
X17345911Y22092001D02*
X16583911Y22092001D01*
X16583911Y22092001D02*
X16583911Y22454858D01*
X16656483Y22708858D02*
X16620197Y22745144D01*
X16620197Y22745144D02*
X16583911Y22817715D01*
X16583911Y22817715D02*
X16583911Y22999144D01*
X16583911Y22999144D02*
X16620197Y23071715D01*
X16620197Y23071715D02*
X16656483Y23108001D01*
X16656483Y23108001D02*
X16729054Y23144287D01*
X16729054Y23144287D02*
X16801626Y23144287D01*
X16801626Y23144287D02*
X16910483Y23108001D01*
X16910483Y23108001D02*
X17345911Y22672573D01*
X17345911Y22672573D02*
X17345911Y23144287D01*
D15*
X17770508Y68294763D02*
X16950508Y68294763D01*
X16950508Y68294763D02*
X16950508Y68490001D01*
X16950508Y68490001D02*
X16989556Y68607144D01*
X16989556Y68607144D02*
X17067651Y68685239D01*
X17067651Y68685239D02*
X17145746Y68724286D01*
X17145746Y68724286D02*
X17301937Y68763334D01*
X17301937Y68763334D02*
X17419080Y68763334D01*
X17419080Y68763334D02*
X17575270Y68724286D01*
X17575270Y68724286D02*
X17653365Y68685239D01*
X17653365Y68685239D02*
X17731461Y68607144D01*
X17731461Y68607144D02*
X17770508Y68490001D01*
X17770508Y68490001D02*
X17770508Y68294763D01*
X16950508Y69505239D02*
X16950508Y69114763D01*
X16950508Y69114763D02*
X17340984Y69075715D01*
X17340984Y69075715D02*
X17301937Y69114763D01*
X17301937Y69114763D02*
X17262889Y69192858D01*
X17262889Y69192858D02*
X17262889Y69388096D01*
X17262889Y69388096D02*
X17301937Y69466191D01*
X17301937Y69466191D02*
X17340984Y69505239D01*
X17340984Y69505239D02*
X17419080Y69544286D01*
X17419080Y69544286D02*
X17614318Y69544286D01*
X17614318Y69544286D02*
X17692413Y69505239D01*
X17692413Y69505239D02*
X17731461Y69466191D01*
X17731461Y69466191D02*
X17770508Y69388096D01*
X17770508Y69388096D02*
X17770508Y69192858D01*
X17770508Y69192858D02*
X17731461Y69114763D01*
X17731461Y69114763D02*
X17692413Y69075715D01*
D10*
X83656666Y40445181D02*
X83656666Y39730896D01*
X83656666Y39730896D02*
X83609047Y39588039D01*
X83609047Y39588039D02*
X83513809Y39492800D01*
X83513809Y39492800D02*
X83370952Y39445181D01*
X83370952Y39445181D02*
X83275714Y39445181D01*
X84561428Y40445181D02*
X84370952Y40445181D01*
X84370952Y40445181D02*
X84275714Y40397562D01*
X84275714Y40397562D02*
X84228095Y40349943D01*
X84228095Y40349943D02*
X84132857Y40207086D01*
X84132857Y40207086D02*
X84085238Y40016610D01*
X84085238Y40016610D02*
X84085238Y39635658D01*
X84085238Y39635658D02*
X84132857Y39540420D01*
X84132857Y39540420D02*
X84180476Y39492800D01*
X84180476Y39492800D02*
X84275714Y39445181D01*
X84275714Y39445181D02*
X84466190Y39445181D01*
X84466190Y39445181D02*
X84561428Y39492800D01*
X84561428Y39492800D02*
X84609047Y39540420D01*
X84609047Y39540420D02*
X84656666Y39635658D01*
X84656666Y39635658D02*
X84656666Y39873753D01*
X84656666Y39873753D02*
X84609047Y39968991D01*
X84609047Y39968991D02*
X84561428Y40016610D01*
X84561428Y40016610D02*
X84466190Y40064229D01*
X84466190Y40064229D02*
X84275714Y40064229D01*
X84275714Y40064229D02*
X84180476Y40016610D01*
X84180476Y40016610D02*
X84132857Y39968991D01*
X84132857Y39968991D02*
X84085238Y39873753D01*
X42761905Y8295181D02*
X42761905Y9295181D01*
X42761905Y9295181D02*
X43142857Y9295181D01*
X43142857Y9295181D02*
X43238095Y9247562D01*
X43238095Y9247562D02*
X43285714Y9199943D01*
X43285714Y9199943D02*
X43333333Y9104705D01*
X43333333Y9104705D02*
X43333333Y8961848D01*
X43333333Y8961848D02*
X43285714Y8866610D01*
X43285714Y8866610D02*
X43238095Y8818991D01*
X43238095Y8818991D02*
X43142857Y8771372D01*
X43142857Y8771372D02*
X42761905Y8771372D01*
X44190476Y9295181D02*
X44000000Y9295181D01*
X44000000Y9295181D02*
X43904762Y9247562D01*
X43904762Y9247562D02*
X43857143Y9199943D01*
X43857143Y9199943D02*
X43761905Y9057086D01*
X43761905Y9057086D02*
X43714286Y8866610D01*
X43714286Y8866610D02*
X43714286Y8485658D01*
X43714286Y8485658D02*
X43761905Y8390420D01*
X43761905Y8390420D02*
X43809524Y8342800D01*
X43809524Y8342800D02*
X43904762Y8295181D01*
X43904762Y8295181D02*
X44095238Y8295181D01*
X44095238Y8295181D02*
X44190476Y8342800D01*
X44190476Y8342800D02*
X44238095Y8390420D01*
X44238095Y8390420D02*
X44285714Y8485658D01*
X44285714Y8485658D02*
X44285714Y8723753D01*
X44285714Y8723753D02*
X44238095Y8818991D01*
X44238095Y8818991D02*
X44190476Y8866610D01*
X44190476Y8866610D02*
X44095238Y8914229D01*
X44095238Y8914229D02*
X43904762Y8914229D01*
X43904762Y8914229D02*
X43809524Y8866610D01*
X43809524Y8866610D02*
X43761905Y8818991D01*
X43761905Y8818991D02*
X43714286Y8723753D01*
X37628571Y30649943D02*
X37533333Y30697562D01*
X37533333Y30697562D02*
X37438095Y30792800D01*
X37438095Y30792800D02*
X37295238Y30935658D01*
X37295238Y30935658D02*
X37200000Y30983277D01*
X37200000Y30983277D02*
X37104762Y30983277D01*
X37152381Y30745181D02*
X37057143Y30792800D01*
X37057143Y30792800D02*
X36961905Y30888039D01*
X36961905Y30888039D02*
X36914286Y31078515D01*
X36914286Y31078515D02*
X36914286Y31411848D01*
X36914286Y31411848D02*
X36961905Y31602324D01*
X36961905Y31602324D02*
X37057143Y31697562D01*
X37057143Y31697562D02*
X37152381Y31745181D01*
X37152381Y31745181D02*
X37342857Y31745181D01*
X37342857Y31745181D02*
X37438095Y31697562D01*
X37438095Y31697562D02*
X37533333Y31602324D01*
X37533333Y31602324D02*
X37580952Y31411848D01*
X37580952Y31411848D02*
X37580952Y31078515D01*
X37580952Y31078515D02*
X37533333Y30888039D01*
X37533333Y30888039D02*
X37438095Y30792800D01*
X37438095Y30792800D02*
X37342857Y30745181D01*
X37342857Y30745181D02*
X37152381Y30745181D01*
X38533333Y30745181D02*
X37961905Y30745181D01*
X38247619Y30745181D02*
X38247619Y31745181D01*
X38247619Y31745181D02*
X38152381Y31602324D01*
X38152381Y31602324D02*
X38057143Y31507086D01*
X38057143Y31507086D02*
X37961905Y31459467D01*
X38866667Y31745181D02*
X39533333Y31745181D01*
X39533333Y31745181D02*
X39104762Y30745181D01*
D14*
X64038857Y73834819D02*
X64038857Y72601105D01*
X64038857Y72601105D02*
X64111428Y72455962D01*
X64111428Y72455962D02*
X64184000Y72383390D01*
X64184000Y72383390D02*
X64329142Y72310819D01*
X64329142Y72310819D02*
X64619428Y72310819D01*
X64619428Y72310819D02*
X64764571Y72383390D01*
X64764571Y72383390D02*
X64837142Y72455962D01*
X64837142Y72455962D02*
X64909714Y72601105D01*
X64909714Y72601105D02*
X64909714Y73834819D01*
X65490285Y73834819D02*
X66433713Y73834819D01*
X66433713Y73834819D02*
X65925713Y73254248D01*
X65925713Y73254248D02*
X66143428Y73254248D01*
X66143428Y73254248D02*
X66288571Y73181676D01*
X66288571Y73181676D02*
X66361142Y73109105D01*
X66361142Y73109105D02*
X66433713Y72963962D01*
X66433713Y72963962D02*
X66433713Y72601105D01*
X66433713Y72601105D02*
X66361142Y72455962D01*
X66361142Y72455962D02*
X66288571Y72383390D01*
X66288571Y72383390D02*
X66143428Y72310819D01*
X66143428Y72310819D02*
X65707999Y72310819D01*
X65707999Y72310819D02*
X65562856Y72383390D01*
X65562856Y72383390D02*
X65490285Y72455962D01*
X62502431Y51454000D02*
X60978431Y51454000D01*
X60978431Y51454000D02*
X62067002Y51962000D01*
X62067002Y51962000D02*
X60978431Y52470000D01*
X60978431Y52470000D02*
X62502431Y52470000D01*
X62502431Y53195714D02*
X60978431Y53195714D01*
X60978431Y53195714D02*
X60978431Y53776285D01*
X60978431Y53776285D02*
X61051002Y53921428D01*
X61051002Y53921428D02*
X61123574Y53993999D01*
X61123574Y53993999D02*
X61268717Y54066571D01*
X61268717Y54066571D02*
X61486431Y54066571D01*
X61486431Y54066571D02*
X61631574Y53993999D01*
X61631574Y53993999D02*
X61704145Y53921428D01*
X61704145Y53921428D02*
X61776717Y53776285D01*
X61776717Y53776285D02*
X61776717Y53195714D01*
X60978431Y54574571D02*
X62502431Y55590571D01*
X60978431Y55590571D02*
X62502431Y54574571D01*
X61486431Y56824285D02*
X62502431Y56824285D01*
X60905860Y56461428D02*
X61994431Y56098571D01*
X61994431Y56098571D02*
X61994431Y57042000D01*
X60905860Y58711143D02*
X62865288Y57404857D01*
X62502431Y59219143D02*
X60978431Y59219143D01*
X60978431Y59219143D02*
X62067002Y59727143D01*
X62067002Y59727143D02*
X60978431Y60235143D01*
X60978431Y60235143D02*
X62502431Y60235143D01*
X62502431Y60960857D02*
X60978431Y60960857D01*
X60978431Y60960857D02*
X60978431Y61541428D01*
X60978431Y61541428D02*
X61051002Y61686571D01*
X61051002Y61686571D02*
X61123574Y61759142D01*
X61123574Y61759142D02*
X61268717Y61831714D01*
X61268717Y61831714D02*
X61486431Y61831714D01*
X61486431Y61831714D02*
X61631574Y61759142D01*
X61631574Y61759142D02*
X61704145Y61686571D01*
X61704145Y61686571D02*
X61776717Y61541428D01*
X61776717Y61541428D02*
X61776717Y60960857D01*
X60978431Y62339714D02*
X62502431Y63355714D01*
X60978431Y63355714D02*
X62502431Y62339714D01*
X62502431Y63936286D02*
X60978431Y63936286D01*
X61704145Y63936286D02*
X61704145Y64807143D01*
X62502431Y64807143D02*
X60978431Y64807143D01*
X60978431Y66185999D02*
X60978431Y65895714D01*
X60978431Y65895714D02*
X61051002Y65750571D01*
X61051002Y65750571D02*
X61123574Y65677999D01*
X61123574Y65677999D02*
X61341288Y65532857D01*
X61341288Y65532857D02*
X61631574Y65460285D01*
X61631574Y65460285D02*
X62212145Y65460285D01*
X62212145Y65460285D02*
X62357288Y65532857D01*
X62357288Y65532857D02*
X62429860Y65605428D01*
X62429860Y65605428D02*
X62502431Y65750571D01*
X62502431Y65750571D02*
X62502431Y66040857D01*
X62502431Y66040857D02*
X62429860Y66185999D01*
X62429860Y66185999D02*
X62357288Y66258571D01*
X62357288Y66258571D02*
X62212145Y66331142D01*
X62212145Y66331142D02*
X61849288Y66331142D01*
X61849288Y66331142D02*
X61704145Y66258571D01*
X61704145Y66258571D02*
X61631574Y66185999D01*
X61631574Y66185999D02*
X61559002Y66040857D01*
X61559002Y66040857D02*
X61559002Y65750571D01*
X61559002Y65750571D02*
X61631574Y65605428D01*
X61631574Y65605428D02*
X61704145Y65532857D01*
X61704145Y65532857D02*
X61849288Y65460285D01*
X61486431Y67637428D02*
X62502431Y67637428D01*
X60905860Y67274571D02*
X61994431Y66911714D01*
X61994431Y66911714D02*
X61994431Y67855143D01*
X60978431Y68726000D02*
X60978431Y68871143D01*
X60978431Y68871143D02*
X61051002Y69016286D01*
X61051002Y69016286D02*
X61123574Y69088857D01*
X61123574Y69088857D02*
X61268717Y69161429D01*
X61268717Y69161429D02*
X61559002Y69234000D01*
X61559002Y69234000D02*
X61921860Y69234000D01*
X61921860Y69234000D02*
X62212145Y69161429D01*
X62212145Y69161429D02*
X62357288Y69088857D01*
X62357288Y69088857D02*
X62429860Y69016286D01*
X62429860Y69016286D02*
X62502431Y68871143D01*
X62502431Y68871143D02*
X62502431Y68726000D01*
X62502431Y68726000D02*
X62429860Y68580857D01*
X62429860Y68580857D02*
X62357288Y68508286D01*
X62357288Y68508286D02*
X62212145Y68435715D01*
X62212145Y68435715D02*
X61921860Y68363143D01*
X61921860Y68363143D02*
X61559002Y68363143D01*
X61559002Y68363143D02*
X61268717Y68435715D01*
X61268717Y68435715D02*
X61123574Y68508286D01*
X61123574Y68508286D02*
X61051002Y68580857D01*
X61051002Y68580857D02*
X60978431Y68726000D01*
X60978431Y70177429D02*
X60978431Y70322572D01*
X60978431Y70322572D02*
X61051002Y70467715D01*
X61051002Y70467715D02*
X61123574Y70540286D01*
X61123574Y70540286D02*
X61268717Y70612858D01*
X61268717Y70612858D02*
X61559002Y70685429D01*
X61559002Y70685429D02*
X61921860Y70685429D01*
X61921860Y70685429D02*
X62212145Y70612858D01*
X62212145Y70612858D02*
X62357288Y70540286D01*
X62357288Y70540286D02*
X62429860Y70467715D01*
X62429860Y70467715D02*
X62502431Y70322572D01*
X62502431Y70322572D02*
X62502431Y70177429D01*
X62502431Y70177429D02*
X62429860Y70032286D01*
X62429860Y70032286D02*
X62357288Y69959715D01*
X62357288Y69959715D02*
X62212145Y69887144D01*
X62212145Y69887144D02*
X61921860Y69814572D01*
X61921860Y69814572D02*
X61559002Y69814572D01*
X61559002Y69814572D02*
X61268717Y69887144D01*
X61268717Y69887144D02*
X61123574Y69959715D01*
X61123574Y69959715D02*
X61051002Y70032286D01*
X61051002Y70032286D02*
X60978431Y70177429D01*
X62647574Y70975715D02*
X62647574Y72136858D01*
X62502431Y72499716D02*
X60978431Y72499716D01*
X60978431Y72499716D02*
X62067002Y73007716D01*
X62067002Y73007716D02*
X60978431Y73515716D01*
X60978431Y73515716D02*
X62502431Y73515716D01*
X62067002Y74168858D02*
X62067002Y74894572D01*
X62502431Y74023715D02*
X60978431Y74531715D01*
X60978431Y74531715D02*
X62502431Y75039715D01*
X62502431Y75547716D02*
X60978431Y75547716D01*
X60978431Y75547716D02*
X60978431Y76128287D01*
X60978431Y76128287D02*
X61051002Y76273430D01*
X61051002Y76273430D02*
X61123574Y76346001D01*
X61123574Y76346001D02*
X61268717Y76418573D01*
X61268717Y76418573D02*
X61486431Y76418573D01*
X61486431Y76418573D02*
X61631574Y76346001D01*
X61631574Y76346001D02*
X61704145Y76273430D01*
X61704145Y76273430D02*
X61776717Y76128287D01*
X61776717Y76128287D02*
X61776717Y75547716D01*
D12*
G04 #@! TO.C,C24*
X7949986Y9000000D02*
X7200001Y9000000D01*
D17*
G04 #@! TO.C,Q10*
X25970000Y38050000D02*
X25970000Y38320000D01*
X25970000Y38320000D02*
X28800000Y38320000D01*
X25970000Y44680000D02*
X27070000Y44680000D01*
X25970000Y44950000D02*
X25970000Y44680000D01*
X19550000Y38050000D02*
X25970000Y38050000D01*
X19550000Y44950000D02*
X25970000Y44950000D01*
G04 #@! TO.C,J10*
X57490000Y104735000D02*
X75000000Y104735000D01*
X57490000Y91715000D02*
X57490000Y104735000D01*
X57700000Y91025000D02*
X58300000Y90725000D01*
X57700000Y90425000D02*
X57700000Y91025000D01*
X58300000Y91715000D02*
X57490000Y91715000D01*
X58300000Y90725000D02*
X57700000Y90425000D01*
X60000000Y88615000D02*
X60000000Y87335000D01*
X60600000Y88615000D02*
X60600000Y87335000D01*
X61910000Y91725000D02*
X62890000Y91725000D01*
X64200000Y88615000D02*
X64200000Y87335000D01*
X64800000Y88615000D02*
X64800000Y87335000D01*
X66110000Y91725000D02*
X67090000Y91725000D01*
X68400000Y88615000D02*
X68400000Y87335000D01*
X69000000Y88615000D02*
X69000000Y87335000D01*
X70310000Y91725000D02*
X71290000Y91725000D01*
X72600000Y88615000D02*
X72600000Y87335000D01*
X73200000Y88615000D02*
X73200000Y87335000D01*
X74510000Y91725000D02*
X75490000Y91725000D01*
X76800000Y88615000D02*
X76800000Y87335000D01*
X77400000Y88615000D02*
X77400000Y87335000D01*
X78710000Y91725000D02*
X79690000Y91725000D01*
X81000000Y88615000D02*
X81000000Y87335000D01*
X81600000Y88615000D02*
X81600000Y87335000D01*
X82910000Y91725000D02*
X83890000Y91725000D01*
X85200000Y88615000D02*
X85200000Y87335000D01*
X85800000Y88615000D02*
X85800000Y87335000D01*
X87110000Y91725000D02*
X88090000Y91725000D01*
X89400000Y88615000D02*
X89400000Y87335000D01*
X90000000Y88615000D02*
X90000000Y87335000D01*
X91700000Y91715000D02*
X92510000Y91715000D01*
X92510000Y104735000D02*
X75000000Y104735000D01*
X92510000Y91715000D02*
X92510000Y104735000D01*
G04 #@! TO.C,P8*
X81870000Y20630000D02*
X81870000Y17970000D01*
X82164462Y17970000D02*
X81870000Y17970000D01*
X82175627Y20630000D02*
X81870000Y20630000D01*
X84224373Y17970000D02*
X84530000Y17970000D01*
X84235538Y20630000D02*
X84530000Y20630000D01*
X84530000Y17970000D02*
X84530000Y20630000D01*
D12*
G04 #@! TO.C,M5*
X85425000Y67200000D02*
X99325000Y67200000D01*
X99325000Y67200000D02*
X99325000Y39700000D01*
X99325000Y39700000D02*
X85425000Y39700000D01*
X85425000Y39700000D02*
X85425000Y67200000D01*
D17*
G04 #@! TO.C,J2*
X7790000Y104735000D02*
X29500000Y104735000D01*
X7790000Y91715000D02*
X7790000Y104735000D01*
X8000000Y91025000D02*
X8600000Y90725000D01*
X8000000Y90425000D02*
X8000000Y91025000D01*
X8600000Y91715000D02*
X7790000Y91715000D01*
X8600000Y90725000D02*
X8000000Y90425000D01*
X10300000Y88615000D02*
X10300000Y87335000D01*
X10900000Y88615000D02*
X10900000Y87335000D01*
X12210000Y91725000D02*
X13190000Y91725000D01*
X14500000Y88615000D02*
X14500000Y87335000D01*
X15100000Y88615000D02*
X15100000Y87335000D01*
X16410000Y91725000D02*
X17390000Y91725000D01*
X18700000Y88615000D02*
X18700000Y87335000D01*
X19300000Y88615000D02*
X19300000Y87335000D01*
X20610000Y91725000D02*
X21590000Y91725000D01*
X22900000Y88615000D02*
X22900000Y87335000D01*
X23500000Y88615000D02*
X23500000Y87335000D01*
X24810000Y91725000D02*
X25790000Y91725000D01*
X27100000Y88615000D02*
X27100000Y87335000D01*
X27700000Y88615000D02*
X27700000Y87335000D01*
X29010000Y91725000D02*
X29990000Y91725000D01*
X31300000Y88615000D02*
X31300000Y87335000D01*
X31900000Y88615000D02*
X31900000Y87335000D01*
X33210000Y91725000D02*
X34190000Y91725000D01*
X35500000Y88615000D02*
X35500000Y87335000D01*
X36100000Y88615000D02*
X36100000Y87335000D01*
X37410000Y91725000D02*
X38390000Y91725000D01*
X39700000Y88615000D02*
X39700000Y87335000D01*
X40300000Y88615000D02*
X40300000Y87335000D01*
X41610000Y91725000D02*
X42590000Y91725000D01*
X43900000Y88615000D02*
X43900000Y87335000D01*
X44500000Y88615000D02*
X44500000Y87335000D01*
X45810000Y91725000D02*
X46790000Y91725000D01*
X48100000Y88615000D02*
X48100000Y87335000D01*
X48700000Y88615000D02*
X48700000Y87335000D01*
X50400000Y91715000D02*
X51210000Y91715000D01*
X51210000Y104735000D02*
X29500000Y104735000D01*
X51210000Y91715000D02*
X51210000Y104735000D01*
G04 #@! TO.C,Q7*
X25970000Y59050000D02*
X25970000Y59320000D01*
X25970000Y59320000D02*
X28800000Y59320000D01*
X25970000Y65680000D02*
X27070000Y65680000D01*
X25970000Y65950000D02*
X25970000Y65680000D01*
X19550000Y59050000D02*
X25970000Y59050000D01*
X19550000Y65950000D02*
X25970000Y65950000D01*
G04 #@! TO.C,Q8*
X25970000Y52050000D02*
X25970000Y52320000D01*
X25970000Y52320000D02*
X28800000Y52320000D01*
X25970000Y58680000D02*
X27070000Y58680000D01*
X25970000Y58950000D02*
X25970000Y58680000D01*
X19550000Y52050000D02*
X25970000Y52050000D01*
X19550000Y58950000D02*
X25970000Y58950000D01*
G04 #@! TO.C,P1*
X30670000Y58830000D02*
X30670000Y56170000D01*
X30964462Y56170000D02*
X30670000Y56170000D01*
X30975627Y58830000D02*
X30670000Y58830000D01*
X33024373Y56170000D02*
X33330000Y56170000D01*
X33035538Y58830000D02*
X33330000Y58830000D01*
X33330000Y56170000D02*
X33330000Y58830000D01*
D12*
G04 #@! TO.C,C26*
X23949986Y5500000D02*
X23200001Y5500000D01*
D17*
G04 #@! TO.C,Q2*
X21900000Y80910000D02*
X27910000Y80910000D01*
X24150000Y74090000D02*
X27910000Y74090000D01*
X27910000Y80910000D02*
X27910000Y79650000D01*
X27910000Y74090000D02*
X27910000Y75350000D01*
D18*
G04 #@! TO.C,R1*
X35133553Y80295840D02*
X34733554Y80295851D01*
X35132497Y79550005D02*
X34732497Y79550015D01*
G04 #@! TO.C,G2*
G36*
X66010349Y9381113D02*
G01*
X66014459Y9358282D01*
X66014491Y9354766D01*
X66025084Y9291715D01*
X66054528Y9215182D01*
X66099318Y9130255D01*
X66155949Y9042022D01*
X66220918Y8955570D01*
X66290718Y8875987D01*
X66361846Y8808360D01*
X66421876Y8763342D01*
X66484754Y8710584D01*
X66546728Y8636253D01*
X66602810Y8547551D01*
X66648011Y8451679D01*
X66659493Y8420280D01*
X66677417Y8364046D01*
X66686021Y8322988D01*
X66686357Y8285133D01*
X66679480Y8238511D01*
X66676763Y8224112D01*
X66651669Y8132584D01*
X66614556Y8047632D01*
X66569694Y7978020D01*
X66542590Y7948831D01*
X66508428Y7919964D01*
X66466829Y7887684D01*
X66424758Y7857019D01*
X66389179Y7832994D01*
X66367059Y7820635D01*
X66364002Y7819961D01*
X66347034Y7825448D01*
X66312336Y7838636D01*
X66285964Y7849165D01*
X66215044Y7882246D01*
X66155096Y7921541D01*
X66097477Y7973664D01*
X66040364Y8037132D01*
X65946842Y8152862D01*
X65874820Y8254212D01*
X65822444Y8344096D01*
X65787859Y8425427D01*
X65782522Y8442233D01*
X65770944Y8482522D01*
X65763299Y8516287D01*
X65759423Y8549854D01*
X65759155Y8589547D01*
X65762333Y8641691D01*
X65768794Y8712612D01*
X65774191Y8766935D01*
X65784966Y8859657D01*
X65798729Y8956661D01*
X65813860Y9047567D01*
X65828736Y9121993D01*
X65831592Y9134214D01*
X65848636Y9201630D01*
X65863245Y9247962D01*
X65878966Y9280564D01*
X65899346Y9306792D01*
X65927932Y9334000D01*
X65927948Y9334014D01*
X65970596Y9369818D01*
X65996896Y9385238D01*
X66010349Y9381113D01*
G37*
G36*
X72808609Y2234842D02*
G01*
X73151431Y2234667D01*
X73491164Y2234404D01*
X73826570Y2234054D01*
X74156414Y2233616D01*
X74479458Y2233091D01*
X74794467Y2232478D01*
X75100203Y2231778D01*
X75395431Y2230990D01*
X75678912Y2230114D01*
X75949412Y2229151D01*
X76205693Y2228101D01*
X76446518Y2226962D01*
X76670652Y2225737D01*
X76876857Y2224423D01*
X77063897Y2223022D01*
X77230536Y2221534D01*
X77375536Y2219958D01*
X77497661Y2218294D01*
X77595675Y2216543D01*
X77668341Y2214704D01*
X77714423Y2212778D01*
X77732683Y2210764D01*
X77732695Y2210757D01*
X77778847Y2170342D01*
X77806678Y2111267D01*
X77813575Y2056938D01*
X77807256Y2014424D01*
X77784380Y1976380D01*
X77764170Y1954500D01*
X77714765Y1905095D01*
X66868907Y1905095D01*
X66819502Y1954500D01*
X66785783Y1995002D01*
X66771654Y2033688D01*
X66770097Y2056938D01*
X66781597Y2126165D01*
X66813925Y2181502D01*
X66850977Y2210757D01*
X66869147Y2212772D01*
X66915142Y2214698D01*
X66987726Y2216537D01*
X67085661Y2218289D01*
X67207712Y2219953D01*
X67352642Y2221529D01*
X67519213Y2223018D01*
X67706191Y2224419D01*
X67912337Y2225733D01*
X68136416Y2226959D01*
X68377190Y2228097D01*
X68633424Y2229148D01*
X68903880Y2230111D01*
X69187323Y2230987D01*
X69482515Y2231775D01*
X69788220Y2232476D01*
X70103201Y2233089D01*
X70426222Y2233615D01*
X70756046Y2234053D01*
X71091437Y2234403D01*
X71431158Y2234666D01*
X71773972Y2234841D01*
X72118643Y2234929D01*
X72463934Y2234929D01*
X72808609Y2234842D01*
G37*
G36*
X66196736Y9741181D02*
G01*
X66209663Y9715558D01*
X66229357Y9668579D01*
X66237099Y9649874D01*
X66268761Y9585234D01*
X66309492Y9517148D01*
X66339371Y9474989D01*
X66361174Y9448132D01*
X66382370Y9425664D01*
X66406972Y9405130D01*
X66438995Y9384076D01*
X66482452Y9360046D01*
X66541358Y9330585D01*
X66619725Y9293238D01*
X66691575Y9259563D01*
X66793145Y9211500D01*
X66871802Y9172713D01*
X66931350Y9141042D01*
X66975595Y9114330D01*
X67008341Y9090416D01*
X67033393Y9067144D01*
X67036414Y9063910D01*
X67128755Y8952773D01*
X67202394Y8841568D01*
X67255461Y8733924D01*
X67286088Y8633473D01*
X67293209Y8564939D01*
X67279411Y8402951D01*
X67238382Y8249942D01*
X67170673Y8107613D01*
X67121175Y8033030D01*
X67080555Y7987588D01*
X67022097Y7934273D01*
X66952792Y7878323D01*
X66879631Y7824976D01*
X66809604Y7779470D01*
X66749702Y7747044D01*
X66727332Y7737914D01*
X66662220Y7719011D01*
X66606438Y7709400D01*
X66566985Y7710052D01*
X66556099Y7714163D01*
X66555774Y7727677D01*
X66575048Y7756056D01*
X66614937Y7800585D01*
X66662558Y7848882D01*
X66722026Y7909667D01*
X66765913Y7960733D01*
X66800824Y8011131D01*
X66833365Y8069911D01*
X66852979Y8109786D01*
X66884675Y8178694D01*
X66905114Y8232290D01*
X66917181Y8280651D01*
X66923763Y8333852D01*
X66925822Y8364077D01*
X66925285Y8470560D01*
X66912435Y8572872D01*
X66888787Y8663565D01*
X66855858Y8735195D01*
X66847806Y8747258D01*
X66808095Y8789141D01*
X66753784Y8829636D01*
X66727227Y8845027D01*
X66671599Y8877472D01*
X66604028Y8921943D01*
X66530601Y8973878D01*
X66457408Y9028713D01*
X66390537Y9081887D01*
X66336076Y9128836D01*
X66300113Y9164998D01*
X66299864Y9165295D01*
X66221244Y9279548D01*
X66165795Y9405367D01*
X66135707Y9536927D01*
X66130738Y9615068D01*
X66132980Y9669898D01*
X66141176Y9704598D01*
X66157527Y9727855D01*
X66159889Y9730061D01*
X66175714Y9744418D01*
X66186708Y9749463D01*
X66196736Y9741181D01*
G37*
G36*
X72218470Y5806339D02*
G01*
X72293421Y5778124D01*
X72350013Y5734187D01*
X72384108Y5676859D01*
X72385658Y5672034D01*
X72387853Y5648091D01*
X72388289Y5599973D01*
X72387066Y5532508D01*
X72384285Y5450524D01*
X72380048Y5358848D01*
X72378529Y5330558D01*
X72374485Y5257066D01*
X72371339Y5193283D01*
X72369364Y5135985D01*
X72368833Y5081948D01*
X72370016Y5027946D01*
X72373188Y4970756D01*
X72378621Y4907153D01*
X72386586Y4833913D01*
X72397357Y4747811D01*
X72411206Y4645623D01*
X72428405Y4524124D01*
X72449226Y4380089D01*
X72472126Y4222772D01*
X72487608Y4114630D01*
X72502655Y4006180D01*
X72516394Y3903965D01*
X72527952Y3814532D01*
X72536456Y3744424D01*
X72538999Y3721456D01*
X72548750Y3635795D01*
X72559997Y3551904D01*
X72573702Y3464093D01*
X72590827Y3366670D01*
X72612337Y3253943D01*
X72639193Y3120222D01*
X72647947Y3077538D01*
X72664908Y2991395D01*
X72679462Y2910334D01*
X72690583Y2840656D01*
X72697243Y2788664D01*
X72698701Y2766187D01*
X72687921Y2684197D01*
X72655471Y2621368D01*
X72601187Y2577565D01*
X72524905Y2552649D01*
X72437145Y2546261D01*
X72379168Y2548633D01*
X72325845Y2553582D01*
X72295833Y2558563D01*
X72227244Y2585457D01*
X72173056Y2627460D01*
X72155694Y2650006D01*
X72148267Y2673605D01*
X72138410Y2722746D01*
X72126568Y2794050D01*
X72113186Y2884139D01*
X72098710Y2989635D01*
X72083586Y3107161D01*
X72068259Y3233337D01*
X72053175Y3364787D01*
X72038779Y3498131D01*
X72025517Y3629993D01*
X72023145Y3654780D01*
X72014430Y3736546D01*
X72001972Y3839509D01*
X71986762Y3956192D01*
X71969791Y4079119D01*
X71952051Y4200814D01*
X71942238Y4265078D01*
X71908386Y4486554D01*
X71879961Y4681525D01*
X71856790Y4852003D01*
X71838700Y5000000D01*
X71825518Y5127529D01*
X71817070Y5236601D01*
X71813184Y5329228D01*
X71813687Y5407422D01*
X71818405Y5473196D01*
X71827165Y5528562D01*
X71831824Y5548483D01*
X71868876Y5651773D01*
X71920356Y5729898D01*
X71986452Y5783029D01*
X72067353Y5811335D01*
X72129295Y5816500D01*
X72218470Y5806339D01*
G37*
G36*
X73233065Y5814646D02*
G01*
X73306982Y5797784D01*
X73370856Y5764479D01*
X73418485Y5714946D01*
X73428589Y5697137D01*
X73437617Y5676089D01*
X73443655Y5652906D01*
X73446848Y5622701D01*
X73447346Y5580585D01*
X73445297Y5521670D01*
X73440848Y5441066D01*
X73437825Y5391988D01*
X73432272Y5294211D01*
X73428890Y5206518D01*
X73427986Y5124343D01*
X73429864Y5043119D01*
X73434827Y4958278D01*
X73443180Y4865255D01*
X73455228Y4759482D01*
X73471275Y4636393D01*
X73491625Y4491420D01*
X73503164Y4411674D01*
X73520384Y4291905D01*
X73536972Y4173690D01*
X73552233Y4062201D01*
X73565470Y3962614D01*
X73575988Y3880101D01*
X73583090Y3819838D01*
X73584272Y3808642D01*
X73594413Y3717058D01*
X73606489Y3624998D01*
X73621359Y3527242D01*
X73639885Y3418568D01*
X73662927Y3293756D01*
X73691345Y3147585D01*
X73702157Y3093231D01*
X73719876Y3001789D01*
X73735369Y2916549D01*
X73747729Y2842934D01*
X73756050Y2786367D01*
X73759426Y2752272D01*
X73759456Y2750271D01*
X73745958Y2683956D01*
X73709272Y2623362D01*
X73655109Y2577279D01*
X73642691Y2570581D01*
X73598561Y2557286D01*
X73536659Y2548882D01*
X73467969Y2546044D01*
X73403471Y2549448D01*
X73374388Y2554090D01*
X73316866Y2572345D01*
X73263311Y2599211D01*
X73224105Y2629084D01*
X73215127Y2640061D01*
X73203212Y2669903D01*
X73191120Y2719288D01*
X73181053Y2778794D01*
X73179104Y2794205D01*
X73172921Y2846564D01*
X73164069Y2921046D01*
X73153351Y3010921D01*
X73141568Y3109459D01*
X73129525Y3209929D01*
X73128299Y3220141D01*
X73115991Y3324685D01*
X73103783Y3432023D01*
X73092544Y3534264D01*
X73083139Y3623518D01*
X73076436Y3691894D01*
X73076390Y3692395D01*
X73070053Y3751660D01*
X73059934Y3833941D01*
X73046803Y3933552D01*
X73031430Y4044806D01*
X73014582Y4162015D01*
X72997029Y4279492D01*
X72996815Y4280896D01*
X72963496Y4502094D01*
X72935273Y4696793D01*
X72912092Y4867098D01*
X72893902Y5015113D01*
X72880649Y5142941D01*
X72872282Y5252687D01*
X72868748Y5346454D01*
X72869994Y5426346D01*
X72875969Y5494467D01*
X72886619Y5552921D01*
X72901892Y5603813D01*
X72921735Y5649245D01*
X72946097Y5691322D01*
X72961092Y5713361D01*
X73013121Y5764423D01*
X73079930Y5798181D01*
X73155313Y5814850D01*
X73233065Y5814646D01*
G37*
G36*
X77333614Y4652974D02*
G01*
X77429289Y4614091D01*
X77511733Y4549451D01*
X77580797Y4459189D01*
X77636330Y4343438D01*
X77659025Y4275882D01*
X77673089Y4214554D01*
X77687012Y4127286D01*
X77700477Y4017200D01*
X77713166Y3887418D01*
X77724763Y3741062D01*
X77734949Y3581252D01*
X77740529Y3474431D01*
X77745683Y3367875D01*
X77751078Y3258014D01*
X77756316Y3152847D01*
X77760997Y3060374D01*
X77764724Y2988594D01*
X77764854Y2986148D01*
X77767769Y2914050D01*
X77768704Y2849516D01*
X77767659Y2799811D01*
X77764832Y2772938D01*
X77742410Y2725081D01*
X77703029Y2675368D01*
X77655897Y2634592D01*
X77637275Y2623376D01*
X77559310Y2595132D01*
X77476122Y2585319D01*
X77394254Y2592801D01*
X77320249Y2616439D01*
X77260650Y2655096D01*
X77228677Y2694406D01*
X77223952Y2710084D01*
X77220043Y2740479D01*
X77216895Y2787646D01*
X77214449Y2853638D01*
X77212648Y2940510D01*
X77211436Y3050317D01*
X77210753Y3185113D01*
X77210543Y3343653D01*
X77210428Y3497516D01*
X77210008Y3625412D01*
X77209170Y3730435D01*
X77207803Y3815677D01*
X77205794Y3884234D01*
X77203032Y3939200D01*
X77199405Y3983667D01*
X77194800Y4020730D01*
X77189105Y4053483D01*
X77183964Y4077463D01*
X77158182Y4173698D01*
X77130426Y4243168D01*
X77099364Y4288162D01*
X77063669Y4310970D01*
X77046216Y4314561D01*
X76985132Y4307365D01*
X76916325Y4277511D01*
X76844238Y4228734D01*
X76773312Y4164772D01*
X76707987Y4089361D01*
X76652705Y4006236D01*
X76631519Y3965699D01*
X76593203Y3873209D01*
X76565092Y3776026D01*
X76547014Y3670618D01*
X76538798Y3553455D01*
X76540273Y3421006D01*
X76551268Y3269741D01*
X76571613Y3096129D01*
X76584893Y3002177D01*
X76601450Y2885723D01*
X76612729Y2794217D01*
X76618856Y2724053D01*
X76619959Y2671626D01*
X76616163Y2633328D01*
X76607597Y2605554D01*
X76599364Y2591197D01*
X76550854Y2546325D01*
X76483483Y2519527D01*
X76402023Y2511964D01*
X76318836Y2522970D01*
X76244551Y2550246D01*
X76192271Y2589980D01*
X76174010Y2609812D01*
X76158100Y2631539D01*
X76144027Y2657733D01*
X76131281Y2690969D01*
X76119347Y2733820D01*
X76107715Y2788858D01*
X76095871Y2858659D01*
X76083303Y2945794D01*
X76069500Y3052839D01*
X76053948Y3182365D01*
X76036136Y3336948D01*
X76026319Y3423573D01*
X76005843Y3606027D01*
X75988675Y3761709D01*
X75974623Y3892696D01*
X75963496Y4001067D01*
X75955101Y4088900D01*
X75949246Y4158273D01*
X75945738Y4211263D01*
X75944387Y4249948D01*
X75944999Y4276408D01*
X75946381Y4288161D01*
X75975435Y4380768D01*
X76024196Y4454509D01*
X76089568Y4507226D01*
X76168452Y4536764D01*
X76257751Y4540964D01*
X76299731Y4534188D01*
X76363935Y4512206D01*
X76413104Y4475976D01*
X76450870Y4421168D01*
X76480862Y4343454D01*
X76491302Y4305741D01*
X76507230Y4243401D01*
X76579532Y4328898D01*
X76695462Y4447854D01*
X76820406Y4542141D01*
X76952254Y4610656D01*
X77088892Y4652295D01*
X77224859Y4665964D01*
X77333614Y4652974D01*
G37*
G36*
X70637604Y4733126D02*
G01*
X70823200Y4702774D01*
X70993639Y4647626D01*
X71148924Y4567680D01*
X71261344Y4486611D01*
X71346068Y4404060D01*
X71402409Y4318913D01*
X71431033Y4229388D01*
X71432606Y4133706D01*
X71418958Y4065622D01*
X71404690Y4029236D01*
X71380851Y3993542D01*
X71344673Y3956335D01*
X71293391Y3915410D01*
X71224239Y3868564D01*
X71134451Y3813590D01*
X71021259Y3748285D01*
X71019602Y3747347D01*
X70913275Y3687414D01*
X70829327Y3640070D01*
X70765144Y3603071D01*
X70718109Y3574177D01*
X70685610Y3551145D01*
X70665032Y3531733D01*
X70653759Y3513700D01*
X70649179Y3494804D01*
X70648675Y3472802D01*
X70649633Y3445453D01*
X70649845Y3430288D01*
X70654657Y3340576D01*
X70667981Y3252807D01*
X70688151Y3172391D01*
X70713498Y3104736D01*
X70742355Y3055251D01*
X70773057Y3029347D01*
X70773474Y3029184D01*
X70805470Y3024496D01*
X70844162Y3033915D01*
X70891627Y3058889D01*
X70949945Y3100864D01*
X71021192Y3161286D01*
X71107449Y3241603D01*
X71178689Y3311247D01*
X71268973Y3399847D01*
X71342355Y3469296D01*
X71401702Y3521747D01*
X71449881Y3559352D01*
X71489758Y3584265D01*
X71524199Y3598638D01*
X71556071Y3604624D01*
X71570037Y3605155D01*
X71630913Y3595849D01*
X71684220Y3571177D01*
X71721839Y3535841D01*
X71733808Y3510309D01*
X71733372Y3464973D01*
X71716508Y3411775D01*
X71687808Y3364786D01*
X71638092Y3304021D01*
X71570255Y3232227D01*
X71487189Y3152148D01*
X71391788Y3066531D01*
X71286945Y2978122D01*
X71175554Y2889667D01*
X71129365Y2854552D01*
X71016354Y2770226D01*
X70923406Y2702326D01*
X70847699Y2649366D01*
X70786409Y2609862D01*
X70736715Y2582328D01*
X70695794Y2565278D01*
X70660822Y2557227D01*
X70628978Y2556691D01*
X70597438Y2562182D01*
X70581854Y2566442D01*
X70489191Y2606404D01*
X70409789Y2668521D01*
X70341972Y2754584D01*
X70284068Y2866385D01*
X70270495Y2899723D01*
X70242369Y2985165D01*
X70217595Y3084379D01*
X70198402Y3186202D01*
X70187017Y3279474D01*
X70184857Y3328647D01*
X70184857Y3397020D01*
X70125031Y3395766D01*
X70068209Y3405972D01*
X70029188Y3438867D01*
X70008534Y3493739D01*
X70005348Y3546335D01*
X70011704Y3608644D01*
X70029975Y3651916D01*
X70065834Y3685499D01*
X70103193Y3707589D01*
X70168428Y3742196D01*
X70177453Y3851706D01*
X70188878Y3947846D01*
X70635314Y3947846D01*
X70636030Y3933340D01*
X70640989Y3925534D01*
X70654405Y3925505D01*
X70680497Y3934335D01*
X70723478Y3953100D01*
X70787566Y3982882D01*
X70806052Y3991553D01*
X70872054Y4023294D01*
X70929481Y4052360D01*
X70972604Y4075748D01*
X70995692Y4090458D01*
X70996843Y4091496D01*
X71005859Y4119097D01*
X70996023Y4158775D01*
X70970949Y4204170D01*
X70934249Y4248920D01*
X70889537Y4286666D01*
X70883878Y4290376D01*
X70825677Y4320831D01*
X70780776Y4327574D01*
X70744846Y4309996D01*
X70713558Y4267490D01*
X70712941Y4266365D01*
X70693880Y4220978D01*
X70674080Y4157134D01*
X70656080Y4085252D01*
X70642420Y4015752D01*
X70635638Y3959052D01*
X70635314Y3947846D01*
X70188878Y3947846D01*
X70202135Y4059411D01*
X70239934Y4241607D01*
X70291024Y4398807D01*
X70355580Y4531523D01*
X70433778Y4640267D01*
X70454708Y4662972D01*
X70532150Y4742927D01*
X70637604Y4733126D01*
G37*
G36*
X74604231Y4733154D02*
G01*
X74789833Y4702836D01*
X74960200Y4647785D01*
X75115398Y4567973D01*
X75228277Y4486611D01*
X75313002Y4404060D01*
X75369342Y4318913D01*
X75397966Y4229388D01*
X75399540Y4133706D01*
X75385892Y4065622D01*
X75371312Y4028629D01*
X75346869Y3992351D01*
X75309773Y3954554D01*
X75257235Y3913006D01*
X75186466Y3865475D01*
X75094677Y3809728D01*
X74993883Y3751867D01*
X74886418Y3691424D01*
X74801408Y3643499D01*
X74736246Y3605894D01*
X74688324Y3576412D01*
X74655036Y3552857D01*
X74633774Y3533032D01*
X74621933Y3514740D01*
X74616904Y3495784D01*
X74616081Y3473967D01*
X74616857Y3447092D01*
X74617031Y3434289D01*
X74622241Y3339421D01*
X74636312Y3249509D01*
X74657648Y3168950D01*
X74684654Y3102141D01*
X74715734Y3053476D01*
X74749292Y3027352D01*
X74765927Y3024110D01*
X74805416Y3032701D01*
X74856226Y3058918D01*
X74919812Y3103859D01*
X74997632Y3168621D01*
X75091141Y3254301D01*
X75161687Y3322380D01*
X75248759Y3407280D01*
X75318497Y3473654D01*
X75373991Y3523650D01*
X75418335Y3559412D01*
X75454621Y3583090D01*
X75485940Y3596828D01*
X75515384Y3602774D01*
X75546045Y3603075D01*
X75563956Y3601669D01*
X75616583Y3592819D01*
X75652113Y3575376D01*
X75674535Y3553676D01*
X75698062Y3514022D01*
X75702795Y3469466D01*
X75687699Y3418003D01*
X75651736Y3357627D01*
X75593867Y3286332D01*
X75513057Y3202113D01*
X75472307Y3162673D01*
X75420419Y3115887D01*
X75352116Y3058128D01*
X75271713Y2992697D01*
X75183523Y2922892D01*
X75091859Y2852012D01*
X75001036Y2783357D01*
X74915365Y2720225D01*
X74839161Y2665916D01*
X74776738Y2623729D01*
X74733267Y2597420D01*
X74676666Y2569212D01*
X74634599Y2555313D01*
X74597356Y2554003D01*
X74555227Y2563565D01*
X74550384Y2565049D01*
X74454814Y2609712D01*
X74370657Y2679826D01*
X74298834Y2773744D01*
X74240264Y2889814D01*
X74195869Y3026388D01*
X74166569Y3181816D01*
X74157653Y3268882D01*
X74148001Y3396740D01*
X74090070Y3395626D01*
X74034639Y3406225D01*
X73996377Y3439920D01*
X73975968Y3495871D01*
X73972576Y3539820D01*
X73984048Y3610149D01*
X74019734Y3666873D01*
X74081541Y3712994D01*
X74083145Y3713877D01*
X74111656Y3731229D01*
X74128285Y3749792D01*
X74137332Y3778269D01*
X74143099Y3825359D01*
X74144202Y3837390D01*
X74157238Y3946284D01*
X74602248Y3946284D01*
X74603215Y3932551D01*
X74608911Y3925549D01*
X74623531Y3926407D01*
X74651270Y3936253D01*
X74696322Y3956213D01*
X74762882Y3987417D01*
X74772986Y3992194D01*
X74838540Y4023109D01*
X74895389Y4049763D01*
X74937945Y4069545D01*
X74960617Y4079847D01*
X74961888Y4080385D01*
X74976270Y4092278D01*
X74977248Y4114669D01*
X74964264Y4153355D01*
X74952252Y4180866D01*
X74912324Y4242497D01*
X74858185Y4290163D01*
X74797466Y4318070D01*
X74765349Y4322864D01*
X74731843Y4321568D01*
X74710219Y4310645D01*
X74691362Y4283369D01*
X74678937Y4259099D01*
X74658817Y4208523D01*
X74638447Y4141387D01*
X74620471Y4068467D01*
X74607528Y4000542D01*
X74602263Y3948388D01*
X74602248Y3946284D01*
X74157238Y3946284D01*
X74168138Y4037340D01*
X74201856Y4211523D01*
X74245963Y4361743D01*
X74301066Y4489808D01*
X74367770Y4597524D01*
X74420435Y4660461D01*
X74498471Y4742984D01*
X74604231Y4733154D01*
G37*
G36*
X67116745Y7620897D02*
G01*
X67154431Y7598239D01*
X67155766Y7597109D01*
X67174901Y7577923D01*
X67187195Y7555462D01*
X67194824Y7522287D01*
X67199966Y7470960D01*
X67202123Y7438779D01*
X67204686Y7376745D01*
X67204630Y7321968D01*
X67202032Y7283869D01*
X67200754Y7277037D01*
X67184080Y7248197D01*
X67150815Y7212992D01*
X67122456Y7189730D01*
X67084614Y7159719D01*
X67060639Y7131783D01*
X67044205Y7095815D01*
X67028988Y7041711D01*
X67028439Y7039520D01*
X67015775Y6984377D01*
X67000440Y6910773D01*
X66984498Y6828917D01*
X66971861Y6759625D01*
X66958420Y6679232D01*
X66950549Y6618919D01*
X66947818Y6570331D01*
X66949799Y6525110D01*
X66956064Y6474901D01*
X66956951Y6469008D01*
X66963896Y6407680D01*
X66969447Y6328794D01*
X66972928Y6243846D01*
X66973769Y6184443D01*
X66975074Y6094021D01*
X66978709Y5991702D01*
X66984329Y5881437D01*
X66991584Y5767175D01*
X67000128Y5652867D01*
X67009613Y5542462D01*
X67019690Y5439910D01*
X67030013Y5349162D01*
X67040234Y5274168D01*
X67050005Y5218876D01*
X67058979Y5187238D01*
X67061965Y5182381D01*
X67082617Y5178563D01*
X67127727Y5181398D01*
X67193658Y5190096D01*
X67276773Y5203870D01*
X67373437Y5221931D01*
X67480013Y5243491D01*
X67592866Y5267763D01*
X67708359Y5293957D01*
X67822855Y5321286D01*
X67932720Y5348961D01*
X68034315Y5376195D01*
X68124007Y5402198D01*
X68198157Y5426182D01*
X68215921Y5432532D01*
X68332168Y5475240D01*
X68327481Y5575551D01*
X68323289Y5634587D01*
X68315283Y5711391D01*
X68303195Y5807929D01*
X68286759Y5926165D01*
X68265706Y6068064D01*
X68239770Y6235591D01*
X68224851Y6329806D01*
X68198711Y6502562D01*
X68178234Y6656670D01*
X68163624Y6790076D01*
X68155085Y6900726D01*
X68152822Y6986568D01*
X68155074Y7030719D01*
X68179221Y7126824D01*
X68230549Y7213474D01*
X68308544Y7290018D01*
X68412088Y7355496D01*
X68485554Y7380586D01*
X68572895Y7391167D01*
X68662823Y7387240D01*
X68744047Y7368805D01*
X68775360Y7355463D01*
X68831369Y7323875D01*
X68874256Y7291331D01*
X68906083Y7253269D01*
X68928908Y7205127D01*
X68944792Y7142344D01*
X68955794Y7060357D01*
X68963976Y6954605D01*
X68965163Y6935140D01*
X68973385Y6802815D01*
X68982223Y6673184D01*
X68992141Y6540363D01*
X69003605Y6398469D01*
X69017078Y6241617D01*
X69033026Y6063926D01*
X69039629Y5991908D01*
X69070752Y5654065D01*
X69118717Y5654065D01*
X69170468Y5640519D01*
X69220618Y5603630D01*
X69265250Y5549028D01*
X69300444Y5482340D01*
X69322280Y5409192D01*
X69327534Y5354240D01*
X69321343Y5296297D01*
X69304621Y5227222D01*
X69280143Y5153819D01*
X69250685Y5082888D01*
X69219020Y5021230D01*
X69187926Y4975647D01*
X69164588Y4954920D01*
X69152878Y4939817D01*
X69145169Y4908378D01*
X69141569Y4859452D01*
X69142187Y4791890D01*
X69147131Y4704541D01*
X69156508Y4596255D01*
X69170428Y4465882D01*
X69188999Y4312272D01*
X69212328Y4134274D01*
X69240525Y3930738D01*
X69273697Y3700515D01*
X69298493Y3532555D01*
X69324547Y3355819D01*
X69346073Y3205254D01*
X69363235Y3078354D01*
X69376199Y2972609D01*
X69385130Y2885511D01*
X69390195Y2814553D01*
X69391559Y2757225D01*
X69389388Y2711021D01*
X69383848Y2673431D01*
X69375104Y2641948D01*
X69363321Y2614063D01*
X69359647Y2606837D01*
X69310463Y2543930D01*
X69237508Y2495744D01*
X69142736Y2463479D01*
X69117800Y2458390D01*
X69064627Y2448998D01*
X69028667Y2445104D01*
X68998473Y2447408D01*
X68962594Y2456607D01*
X68918484Y2470561D01*
X68832689Y2505188D01*
X68768723Y2549122D01*
X68719661Y2607445D01*
X68709364Y2624099D01*
X68687883Y2663088D01*
X68671215Y2700740D01*
X68658218Y2742329D01*
X68647747Y2793126D01*
X68638658Y2858403D01*
X68629806Y2943434D01*
X68622580Y3023974D01*
X68607371Y3193882D01*
X68590586Y3370904D01*
X68572715Y3550511D01*
X68554250Y3728175D01*
X68535682Y3899369D01*
X68517500Y4059566D01*
X68500197Y4204237D01*
X68484261Y4328855D01*
X68470589Y4426205D01*
X68463418Y4478133D01*
X68454549Y4548284D01*
X68445305Y4625974D01*
X68439605Y4676520D01*
X68431513Y4747041D01*
X68424771Y4793368D01*
X68417926Y4820230D01*
X68409526Y4832359D01*
X68398120Y4834486D01*
X68391456Y4833407D01*
X68363640Y4827878D01*
X68316069Y4818628D01*
X68257538Y4807362D01*
X68237717Y4803570D01*
X67965416Y4748879D01*
X67671201Y4684748D01*
X67394437Y4620479D01*
X67081534Y4545844D01*
X67086897Y4493290D01*
X67098524Y4391949D01*
X67112790Y4287255D01*
X67128649Y4185432D01*
X67145058Y4092702D01*
X67160972Y4015289D01*
X67175346Y3959417D01*
X67177781Y3951855D01*
X67197429Y3880449D01*
X67202721Y3819501D01*
X67200353Y3786845D01*
X67199456Y3727461D01*
X67207619Y3640685D01*
X67224819Y3526732D01*
X67228848Y3503493D01*
X67248481Y3392304D01*
X67263933Y3306306D01*
X67276110Y3242078D01*
X67285920Y3196198D01*
X67294271Y3165245D01*
X67302070Y3145798D01*
X67310224Y3134434D01*
X67319640Y3127733D01*
X67329764Y3122942D01*
X67368143Y3090796D01*
X67389155Y3041081D01*
X67392715Y2979595D01*
X67378740Y2912133D01*
X67347145Y2844491D01*
X67334106Y2824875D01*
X67271136Y2751792D01*
X67194869Y2686205D01*
X67111835Y2632172D01*
X67028562Y2593748D01*
X66951578Y2574988D01*
X66929937Y2573800D01*
X66853569Y2585627D01*
X66772504Y2618083D01*
X66696578Y2666629D01*
X66661372Y2697741D01*
X66608283Y2762257D01*
X66565278Y2840996D01*
X66531357Y2937130D01*
X66505524Y3053833D01*
X66486780Y3194276D01*
X66479674Y3275469D01*
X66472475Y3367898D01*
X66463573Y3477095D01*
X66453980Y3590896D01*
X66444709Y3697132D01*
X66442527Y3721456D01*
X66433713Y3820853D01*
X66423604Y3937773D01*
X66413176Y4060766D01*
X66403402Y4178384D01*
X66398605Y4237303D01*
X66389969Y4338482D01*
X66382276Y4414079D01*
X66374993Y4467534D01*
X66367588Y4502292D01*
X66359529Y4521792D01*
X66353680Y4527921D01*
X66302687Y4565123D01*
X66264764Y4606020D01*
X66231452Y4660655D01*
X66216491Y4690761D01*
X66191911Y4745928D01*
X66179229Y4788062D01*
X66175897Y4829350D01*
X66178491Y4872612D01*
X66194002Y4948200D01*
X66223773Y5014849D01*
X66263812Y5065583D01*
X66303669Y5091265D01*
X66314776Y5094588D01*
X66323789Y5097280D01*
X66330489Y5102109D01*
X66334654Y5111840D01*
X66336065Y5129240D01*
X66334500Y5157075D01*
X66329739Y5198111D01*
X66321561Y5255114D01*
X66309747Y5330851D01*
X66294074Y5428087D01*
X66274323Y5549589D01*
X66260159Y5636922D01*
X66242363Y5747912D01*
X66226190Y5850747D01*
X66212214Y5941619D01*
X66201009Y6016719D01*
X66193150Y6072238D01*
X66189211Y6104367D01*
X66188861Y6109720D01*
X66183040Y6148056D01*
X66166850Y6207676D01*
X66142203Y6283525D01*
X66111009Y6370546D01*
X66075180Y6463685D01*
X66036627Y6557886D01*
X65997260Y6648093D01*
X65958991Y6729250D01*
X65942156Y6762390D01*
X65901271Y6839731D01*
X65869740Y6896126D01*
X65843876Y6936601D01*
X65819995Y6966184D01*
X65794413Y6989900D01*
X65763444Y7012778D01*
X65753726Y7019432D01*
X65708842Y7051398D01*
X65682589Y7076402D01*
X65668833Y7102691D01*
X65661439Y7138510D01*
X65660580Y7144628D01*
X65655575Y7196695D01*
X65652178Y7261788D01*
X65651218Y7312615D01*
X65655898Y7383219D01*
X65671968Y7430769D01*
X65702475Y7460048D01*
X65750466Y7475840D01*
X65755757Y7476765D01*
X65785966Y7481059D01*
X65840146Y7488023D01*
X65914662Y7497235D01*
X66005881Y7508274D01*
X66110166Y7520719D01*
X66223884Y7534148D01*
X66343399Y7548141D01*
X66465076Y7562274D01*
X66585282Y7576129D01*
X66700380Y7589282D01*
X66806737Y7601312D01*
X66900717Y7611800D01*
X66978686Y7620322D01*
X67037009Y7626457D01*
X67072051Y7629785D01*
X67079969Y7630267D01*
X67116745Y7620897D01*
G37*
G36*
X65938549Y10613076D02*
G01*
X65946342Y10610149D01*
X65974415Y10589470D01*
X65990014Y10549577D01*
X65991655Y10541127D01*
X66000992Y10489423D01*
X66010725Y10459629D01*
X66027401Y10448314D01*
X66057566Y10452049D01*
X66107765Y10467406D01*
X66123044Y10472287D01*
X66309636Y10521676D01*
X66516024Y10558249D01*
X66720765Y10579756D01*
X66754146Y10581100D01*
X66815249Y10582380D01*
X66902735Y10583596D01*
X67015266Y10584750D01*
X67151500Y10585840D01*
X67310101Y10586866D01*
X67489727Y10587830D01*
X67689040Y10588729D01*
X67906700Y10589566D01*
X68141369Y10590339D01*
X68391706Y10591049D01*
X68656374Y10591695D01*
X68934031Y10592278D01*
X69223340Y10592798D01*
X69522960Y10593254D01*
X69831553Y10593647D01*
X70147780Y10593976D01*
X70470300Y10594243D01*
X70797775Y10594445D01*
X71128865Y10594585D01*
X71462232Y10594661D01*
X71796535Y10594673D01*
X72130436Y10594623D01*
X72462596Y10594509D01*
X72791674Y10594331D01*
X73116332Y10594090D01*
X73435231Y10593786D01*
X73747031Y10593418D01*
X74050393Y10592987D01*
X74343977Y10592493D01*
X74626445Y10591935D01*
X74896456Y10591314D01*
X75152673Y10590630D01*
X75393755Y10589882D01*
X75618364Y10589071D01*
X75825159Y10588196D01*
X76012802Y10587258D01*
X76179954Y10586257D01*
X76325274Y10585192D01*
X76447425Y10584064D01*
X76545066Y10582873D01*
X76616858Y10581618D01*
X76661463Y10580300D01*
X76671374Y10579756D01*
X76877691Y10558355D01*
X77069436Y10523919D01*
X77259104Y10473996D01*
X77337834Y10448925D01*
X77592403Y10349229D01*
X77832407Y10225242D01*
X78056532Y10078539D01*
X78263461Y9910697D01*
X78451877Y9723290D01*
X78620465Y9517895D01*
X78767907Y9296088D01*
X78892888Y9059445D01*
X78994091Y8809540D01*
X79070200Y8547950D01*
X79113302Y8323544D01*
X79116170Y8301635D01*
X79118790Y8275377D01*
X79121175Y8243466D01*
X79123334Y8204594D01*
X79125278Y8157458D01*
X79127020Y8100753D01*
X79128569Y8033172D01*
X79129936Y7953411D01*
X79131133Y7860164D01*
X79132170Y7752127D01*
X79133058Y7627994D01*
X79133808Y7486459D01*
X79134432Y7326218D01*
X79134939Y7145965D01*
X79135342Y6944396D01*
X79135650Y6720204D01*
X79135875Y6472085D01*
X79136028Y6198733D01*
X79136120Y5898844D01*
X79136160Y5593725D01*
X79136101Y5218883D01*
X79135873Y4872874D01*
X79135475Y4555471D01*
X79134904Y4266447D01*
X79134161Y4005573D01*
X79133244Y3772622D01*
X79132150Y3567367D01*
X79130880Y3389579D01*
X79129432Y3239031D01*
X79127804Y3115496D01*
X79125995Y3018746D01*
X79124004Y2948553D01*
X79121829Y2904689D01*
X79120755Y2893196D01*
X79072256Y2620354D01*
X78997671Y2358191D01*
X78898315Y2108135D01*
X78775509Y1871610D01*
X78630569Y1650043D01*
X78464815Y1444860D01*
X78279564Y1257487D01*
X78076134Y1089350D01*
X77855845Y941875D01*
X77620013Y816488D01*
X77369957Y714616D01*
X77106995Y637684D01*
X77017735Y618038D01*
X76927997Y602164D01*
X76828333Y588181D01*
X76732838Y577908D01*
X76675411Y573869D01*
X76644762Y573101D01*
X76586538Y572359D01*
X76502059Y571643D01*
X76392647Y570955D01*
X76259622Y570295D01*
X76104305Y569663D01*
X75928017Y569059D01*
X75732077Y568485D01*
X75517808Y567940D01*
X75286530Y567424D01*
X75039563Y566940D01*
X74778228Y566485D01*
X74503846Y566062D01*
X74217738Y565671D01*
X73921224Y565312D01*
X73615625Y564985D01*
X73302262Y564690D01*
X72982455Y564430D01*
X72657525Y564202D01*
X72328794Y564010D01*
X71997581Y563851D01*
X71665207Y563728D01*
X71332994Y563640D01*
X71002261Y563588D01*
X70674330Y563572D01*
X70350520Y563593D01*
X70032154Y563651D01*
X69720552Y563747D01*
X69417034Y563880D01*
X69122921Y564053D01*
X68839534Y564264D01*
X68568193Y564514D01*
X68310220Y564804D01*
X68066934Y565134D01*
X67839658Y565505D01*
X67629710Y565916D01*
X67438413Y566369D01*
X67267087Y566864D01*
X67117052Y567402D01*
X66989630Y567982D01*
X66886140Y568605D01*
X66807904Y569271D01*
X66756243Y569982D01*
X66733770Y570647D01*
X66460499Y601204D01*
X66196340Y658476D01*
X65942729Y741151D01*
X65701103Y847914D01*
X65472898Y977450D01*
X65259552Y1128446D01*
X65062501Y1299588D01*
X64883183Y1489560D01*
X64723033Y1697051D01*
X64583489Y1920744D01*
X64465987Y2159327D01*
X64371964Y2411485D01*
X64302858Y2675903D01*
X64277317Y2817345D01*
X64274267Y2852115D01*
X64271424Y2914110D01*
X64268789Y3001496D01*
X64266361Y3112436D01*
X64264139Y3245095D01*
X64262122Y3397639D01*
X64260311Y3568231D01*
X64258704Y3755036D01*
X64257302Y3956219D01*
X64256103Y4169943D01*
X64255609Y4281261D01*
X64577181Y4281261D01*
X64577305Y4076006D01*
X64577679Y3891646D01*
X64578333Y3726819D01*
X64579298Y3580163D01*
X64580606Y3450319D01*
X64582290Y3335924D01*
X64584379Y3235618D01*
X64586906Y3148039D01*
X64589902Y3071827D01*
X64593399Y3005618D01*
X64597427Y2948054D01*
X64602020Y2897772D01*
X64607207Y2853411D01*
X64613021Y2813611D01*
X64619493Y2777009D01*
X64626655Y2742244D01*
X64634538Y2707956D01*
X64643173Y2672784D01*
X64649033Y2649482D01*
X64725466Y2403831D01*
X64826608Y2171587D01*
X64950819Y1954153D01*
X65096459Y1752933D01*
X65261889Y1569331D01*
X65445466Y1404749D01*
X65645552Y1260593D01*
X65860506Y1138266D01*
X66088688Y1039171D01*
X66328457Y964713D01*
X66578174Y916295D01*
X66688861Y903772D01*
X66716027Y902652D01*
X66770936Y901582D01*
X66852271Y900560D01*
X66958714Y899589D01*
X67088946Y898666D01*
X67241650Y897794D01*
X67415508Y896971D01*
X67609202Y896198D01*
X67821414Y895475D01*
X68050826Y894802D01*
X68296119Y894179D01*
X68555977Y893607D01*
X68829080Y893086D01*
X69114111Y892615D01*
X69409752Y892195D01*
X69714685Y891826D01*
X70027592Y891508D01*
X70347155Y891241D01*
X70672055Y891026D01*
X71000976Y890862D01*
X71332599Y890749D01*
X71665605Y890689D01*
X71998678Y890680D01*
X72330499Y890723D01*
X72659750Y890818D01*
X72985112Y890966D01*
X73305269Y891166D01*
X73618902Y891418D01*
X73924693Y891723D01*
X74221324Y892081D01*
X74507477Y892492D01*
X74781834Y892956D01*
X75043077Y893472D01*
X75289889Y894043D01*
X75520950Y894666D01*
X75734944Y895343D01*
X75930552Y896074D01*
X76106456Y896859D01*
X76261338Y897697D01*
X76393881Y898590D01*
X76502766Y899537D01*
X76586674Y900538D01*
X76644289Y901594D01*
X76674293Y902704D01*
X76675372Y902788D01*
X76935900Y938612D01*
X77186104Y1001338D01*
X77424980Y1090517D01*
X77651520Y1205698D01*
X77864718Y1346432D01*
X78063567Y1512270D01*
X78085079Y1532557D01*
X78266157Y1724546D01*
X78421566Y1930127D01*
X78551171Y2149015D01*
X78654835Y2380923D01*
X78732424Y2625565D01*
X78783801Y2882654D01*
X78802339Y3047023D01*
X78804386Y3087958D01*
X78806224Y3157432D01*
X78807850Y3254920D01*
X78809263Y3379901D01*
X78810460Y3531851D01*
X78811441Y3710247D01*
X78812203Y3914566D01*
X78812744Y4144286D01*
X78813062Y4398883D01*
X78813156Y4677835D01*
X78813023Y4980617D01*
X78812662Y5306709D01*
X78812071Y5655585D01*
X78811949Y5716215D01*
X78811315Y6035574D01*
X78810751Y6327264D01*
X78810214Y6592677D01*
X78809659Y6833204D01*
X78809041Y7050238D01*
X78808317Y7245172D01*
X78807442Y7419397D01*
X78806371Y7574305D01*
X78805061Y7711289D01*
X78803468Y7831741D01*
X78801546Y7937052D01*
X78799252Y8028615D01*
X78796541Y8107823D01*
X78793369Y8176066D01*
X78789692Y8234738D01*
X78785465Y8285231D01*
X78780644Y8328936D01*
X78775185Y8367246D01*
X78769044Y8401553D01*
X78762176Y8433249D01*
X78754537Y8463726D01*
X78746083Y8494376D01*
X78736769Y8526592D01*
X78726551Y8561766D01*
X78720766Y8582040D01*
X78640798Y8813098D01*
X78534410Y9036991D01*
X78404043Y9249954D01*
X78252139Y9448222D01*
X78081140Y9628031D01*
X77989233Y9709845D01*
X77789351Y9860867D01*
X77577138Y9987859D01*
X77350280Y10091909D01*
X77106459Y10174103D01*
X76887402Y10226939D01*
X76874707Y10229288D01*
X76859969Y10231493D01*
X76842256Y10233559D01*
X76820640Y10235493D01*
X76794192Y10237299D01*
X76761981Y10238983D01*
X76723079Y10240551D01*
X76676555Y10242008D01*
X76621481Y10243360D01*
X76556926Y10244612D01*
X76481962Y10245771D01*
X76395659Y10246841D01*
X76297087Y10247828D01*
X76185317Y10248738D01*
X76059420Y10249577D01*
X75918465Y10250349D01*
X75761524Y10251061D01*
X75587668Y10251718D01*
X75395965Y10252325D01*
X75185488Y10252889D01*
X74955306Y10253414D01*
X74704491Y10253907D01*
X74432112Y10254373D01*
X74137240Y10254817D01*
X73818946Y10255245D01*
X73476301Y10255663D01*
X73108373Y10256076D01*
X72714236Y10256490D01*
X72292958Y10256910D01*
X71843610Y10257342D01*
X71812317Y10257372D01*
X71309091Y10257814D01*
X70834494Y10258158D01*
X70388092Y10258404D01*
X69969454Y10258550D01*
X69578146Y10258596D01*
X69213736Y10258540D01*
X68875791Y10258383D01*
X68563877Y10258121D01*
X68277562Y10257756D01*
X68016413Y10257286D01*
X67779998Y10256709D01*
X67567884Y10256025D01*
X67379637Y10255234D01*
X67214824Y10254333D01*
X67073014Y10253323D01*
X66953774Y10252202D01*
X66856669Y10250969D01*
X66781268Y10249623D01*
X66727138Y10248164D01*
X66693846Y10246590D01*
X66689109Y10246213D01*
X66474027Y10217334D01*
X66266002Y10168994D01*
X66156167Y10135312D01*
X66100692Y10116479D01*
X66067289Y10102293D01*
X66050362Y10088505D01*
X66044315Y10070864D01*
X66043552Y10049755D01*
X66040225Y10015540D01*
X66031245Y9961498D01*
X66018110Y9895970D01*
X66007103Y9847119D01*
X65990558Y9783365D01*
X65970904Y9721836D01*
X65945711Y9656503D01*
X65912549Y9581334D01*
X65868986Y9490299D01*
X65838464Y9428790D01*
X65762185Y9272472D01*
X65698441Y9133514D01*
X65647885Y9013510D01*
X65611168Y8914053D01*
X65588941Y8836734D01*
X65583212Y8804898D01*
X65583884Y8719638D01*
X65603410Y8617962D01*
X65639893Y8503801D01*
X65691437Y8381087D01*
X65756146Y8253752D01*
X65832124Y8125726D01*
X65917474Y8000942D01*
X66010301Y7883332D01*
X66048809Y7839497D01*
X66089815Y7792027D01*
X66111555Y7760397D01*
X66116273Y7740904D01*
X66112560Y7734148D01*
X66097282Y7722461D01*
X66078310Y7719206D01*
X66049181Y7725341D01*
X66003433Y7741821D01*
X65969771Y7755266D01*
X65878453Y7802755D01*
X65779955Y7872378D01*
X65678807Y7959671D01*
X65579542Y8060171D01*
X65486689Y8169415D01*
X65404781Y8282937D01*
X65360281Y8355628D01*
X65330853Y8414412D01*
X65299177Y8488607D01*
X65270516Y8565551D01*
X65260825Y8595056D01*
X65240213Y8663716D01*
X65227791Y8716022D01*
X65222164Y8763052D01*
X65221935Y8815889D01*
X65225205Y8877786D01*
X65229153Y8932377D01*
X65234443Y8976141D01*
X65243154Y9015733D01*
X65257360Y9057810D01*
X65279140Y9109027D01*
X65310569Y9176039D01*
X65332411Y9221399D01*
X65375453Y9307713D01*
X65427919Y9408646D01*
X65484323Y9513875D01*
X65539174Y9613076D01*
X65561510Y9652341D01*
X65604730Y9727616D01*
X65643834Y9795937D01*
X65676131Y9852589D01*
X65698932Y9892853D01*
X65708915Y9910819D01*
X65709227Y9922484D01*
X65690000Y9917499D01*
X65654089Y9897742D01*
X65604350Y9865085D01*
X65543637Y9821405D01*
X65474805Y9768577D01*
X65400709Y9708475D01*
X65400225Y9708071D01*
X65222967Y9541986D01*
X65062821Y9354455D01*
X64922095Y9149040D01*
X64803096Y8929306D01*
X64708134Y8698816D01*
X64670882Y8582356D01*
X64660200Y8546027D01*
X64650432Y8513110D01*
X64641538Y8482228D01*
X64633472Y8452006D01*
X64626192Y8421068D01*
X64619654Y8388040D01*
X64613815Y8351544D01*
X64608632Y8310207D01*
X64604062Y8262651D01*
X64600061Y8207502D01*
X64596586Y8143384D01*
X64593593Y8068922D01*
X64591040Y7982739D01*
X64588883Y7883460D01*
X64587078Y7769710D01*
X64585583Y7640112D01*
X64584355Y7493293D01*
X64583349Y7327874D01*
X64582523Y7142483D01*
X64581833Y6935741D01*
X64581236Y6706275D01*
X64580689Y6452708D01*
X64580148Y6173665D01*
X64579571Y5867770D01*
X64579184Y5668596D01*
X64578538Y5338451D01*
X64577983Y5036005D01*
X64577551Y4759900D01*
X64577273Y4508772D01*
X64577181Y4281261D01*
X64255609Y4281261D01*
X64255107Y4394375D01*
X64254313Y4627677D01*
X64253721Y4868016D01*
X64253331Y5113555D01*
X64253141Y5362459D01*
X64253152Y5612893D01*
X64253362Y5863020D01*
X64253772Y6111007D01*
X64254380Y6355016D01*
X64255186Y6593214D01*
X64256190Y6823764D01*
X64257391Y7044831D01*
X64258788Y7254579D01*
X64260381Y7451174D01*
X64262169Y7632779D01*
X64264152Y7797559D01*
X64266329Y7943679D01*
X64268700Y8069304D01*
X64271265Y8172598D01*
X64274021Y8251725D01*
X64276970Y8304850D01*
X64278957Y8324351D01*
X64332936Y8592312D01*
X64413212Y8851016D01*
X64518448Y9098619D01*
X64647305Y9333279D01*
X64798446Y9553152D01*
X64970533Y9756396D01*
X65162229Y9941167D01*
X65372194Y10105623D01*
X65599093Y10247920D01*
X65721580Y10311698D01*
X65790727Y10346190D01*
X65837761Y10374122D01*
X65866895Y10401241D01*
X65882343Y10433295D01*
X65888319Y10476032D01*
X65889037Y10535200D01*
X65888999Y10540078D01*
X65889683Y10589471D01*
X65895458Y10614790D01*
X65910391Y10621002D01*
X65938549Y10613076D01*
G37*
D17*
G04 #@! TO.C,P2*
X33570000Y58830000D02*
X33570000Y56170000D01*
X33864462Y56170000D02*
X33570000Y56170000D01*
X33875627Y58830000D02*
X33570000Y58830000D01*
X35924373Y56170000D02*
X36230000Y56170000D01*
X35935538Y58830000D02*
X36230000Y58830000D01*
X36230000Y56170000D02*
X36230000Y58830000D01*
D12*
G04 #@! TO.C,C13*
X17074986Y14960000D02*
X16325001Y14960000D01*
D17*
G04 #@! TO.C,F4*
X19400000Y19400000D02*
X19400000Y14550000D01*
X17400000Y19400000D02*
X17400000Y14550000D01*
X19400000Y19450000D02*
G75*
G03*
X17400000Y19450000I-1000000J0D01*
G01*
X17400000Y14550000D02*
G75*
G03*
X19400000Y14550000I1000000J0D01*
G01*
D12*
G04 #@! TO.C,C11*
X1949986Y17300000D02*
X1200001Y17300000D01*
D17*
G04 #@! TO.C,J7*
X82800000Y140000D02*
X85210000Y140000D01*
X85210000Y140000D02*
X85210000Y2550000D01*
X79790000Y440000D02*
X84910000Y440000D01*
X84910000Y440000D02*
X84910000Y14560000D01*
X84910000Y14560000D02*
X83910000Y15560000D01*
X79790000Y15560000D02*
X79790000Y440000D01*
X83910000Y15560000D02*
X79790000Y15560000D01*
G04 #@! TO.C,Q16*
X31090000Y33400000D02*
X31090000Y39410000D01*
X37910000Y35650000D02*
X37910000Y39410000D01*
X31090000Y39410000D02*
X32350000Y39410000D01*
X37910000Y39410000D02*
X36650000Y39410000D01*
G04 #@! TO.C,P4*
X61170000Y8830000D02*
X61170000Y6170000D01*
X61464462Y6170000D02*
X61170000Y6170000D01*
X61475627Y8830000D02*
X61170000Y8830000D01*
X63524373Y6170000D02*
X63830000Y6170000D01*
X63535538Y8830000D02*
X63830000Y8830000D01*
X63830000Y6170000D02*
X63830000Y8830000D01*
G04 #@! TO.C,P5*
X42170000Y3230000D02*
X42170000Y570000D01*
X42464462Y570000D02*
X42170000Y570000D01*
X42475627Y3230000D02*
X42170000Y3230000D01*
X44524373Y570000D02*
X44830000Y570000D01*
X44535538Y3230000D02*
X44830000Y3230000D01*
X44830000Y570000D02*
X44830000Y3230000D01*
D12*
G04 #@! TO.C,M3*
X51975000Y77375000D02*
X45575000Y77375000D01*
X42375000Y77375000D02*
X43675000Y77375000D01*
X42375000Y77375000D02*
X42375000Y62375000D01*
X51975000Y62975000D02*
X51975000Y77375000D01*
X42375000Y62375000D02*
X47475000Y62375000D01*
D10*
G04 #@! TO.C,J8*
X56350000Y800000D02*
X56350000Y8600000D01*
X56950000Y800000D02*
X56350000Y800000D01*
X59850000Y800000D02*
X60450000Y800000D01*
X60450000Y800000D02*
X60450000Y8600000D01*
X60750000Y2600000D02*
X60750000Y3600000D01*
X56350000Y8600000D02*
X56950000Y8600000D01*
X60450000Y8600000D02*
X59850000Y8600000D01*
D17*
G04 #@! TO.C,F3*
X21600000Y19400000D02*
X21600000Y14550000D01*
X19600000Y19400000D02*
X19600000Y14550000D01*
X21600000Y19450000D02*
G75*
G03*
X19600000Y19450000I-1000000J0D01*
G01*
X19600000Y14550000D02*
G75*
G03*
X21600000Y14550000I1000000J0D01*
G01*
D12*
G04 #@! TO.C,M2*
X80175002Y82025000D02*
X80175002Y72925000D01*
X77074999Y82025000D02*
X78075001Y82025000D01*
X77074999Y82025000D02*
X77074999Y72925000D01*
G04 #@! TO.C,C25*
X7250014Y5500000D02*
X7999999Y5500000D01*
G04 #@! TO.C,M1*
X24724999Y15324999D02*
X24724999Y18525002D01*
X24724999Y3224999D02*
X24724999Y13625001D01*
X24724999Y1324999D02*
X24724999Y1624999D01*
X24724999Y1324999D02*
X40124999Y1324999D01*
X26224999Y21924997D02*
X41524998Y21924999D01*
X41524996Y15225001D02*
X41524996Y20025001D01*
X41524996Y9024999D02*
X41524996Y11724999D01*
X41524996Y6325001D02*
X41524996Y7425004D01*
X41524996Y2774999D02*
X41525001Y4324999D01*
X41524998Y21625001D02*
X41524998Y21924999D01*
D17*
G04 #@! TO.C,Q12*
X25970000Y24050000D02*
X25970000Y24320000D01*
X25970000Y24320000D02*
X28800000Y24320000D01*
X25970000Y30680000D02*
X27070000Y30680000D01*
X25970000Y30950000D02*
X25970000Y30680000D01*
X19550000Y24050000D02*
X25970000Y24050000D01*
X19550000Y30950000D02*
X25970000Y30950000D01*
D12*
G04 #@! TO.C,M7*
X37572479Y54575001D02*
X37611326Y43400001D01*
X31874998Y54575001D02*
X37572479Y54575001D01*
X31874998Y54575001D02*
X31599994Y54299997D01*
X30725000Y54299997D02*
X31599994Y54299997D01*
X30725000Y54299997D02*
X30724997Y54299995D01*
X30724997Y54299995D02*
X30724997Y43400001D01*
X30724997Y43400001D02*
X37611326Y43400001D01*
D17*
G04 #@! TO.C,Q4*
X21900000Y73410000D02*
X27910000Y73410000D01*
X24150000Y66590000D02*
X27910000Y66590000D01*
X27910000Y73410000D02*
X27910000Y72150000D01*
X27910000Y66590000D02*
X27910000Y67850000D01*
D18*
G04 #@! TO.C,R9*
X16354160Y18161056D02*
X16354149Y17761057D01*
X17099995Y18160000D02*
X17099985Y17760000D01*
D17*
G04 #@! TO.C,J5*
X-4735000Y42390000D02*
X-4735000Y62000000D01*
X8285000Y42390000D02*
X-4735000Y42390000D01*
X8975000Y42600000D02*
X9275000Y43200000D01*
X9575000Y42600000D02*
X8975000Y42600000D01*
X8285000Y43200000D02*
X8285000Y42390000D01*
X9275000Y43200000D02*
X9575000Y42600000D01*
X11385000Y44900000D02*
X12665000Y44900000D01*
X11385000Y45500000D02*
X12665000Y45500000D01*
X8275000Y46810000D02*
X8275000Y47790000D01*
X11385000Y49100000D02*
X12665000Y49100000D01*
X11385000Y49700000D02*
X12665000Y49700000D01*
X8275000Y51010000D02*
X8275000Y51990000D01*
X11385000Y53300000D02*
X12665000Y53300000D01*
X11385000Y53900000D02*
X12665000Y53900000D01*
X8275000Y55210000D02*
X8275000Y56190000D01*
X11385000Y57500000D02*
X12665000Y57500000D01*
X11385000Y58100000D02*
X12665000Y58100000D01*
X8275000Y59410000D02*
X8275000Y60390000D01*
X11385000Y61700000D02*
X12665000Y61700000D01*
X11385000Y62300000D02*
X12665000Y62300000D01*
X8275000Y63610000D02*
X8275000Y64590000D01*
X11385000Y65900000D02*
X12665000Y65900000D01*
X11385000Y66500000D02*
X12665000Y66500000D01*
X8275000Y67810000D02*
X8275000Y68790000D01*
X11385000Y70100000D02*
X12665000Y70100000D01*
X11385000Y70700000D02*
X12665000Y70700000D01*
X8275000Y72010000D02*
X8275000Y72990000D01*
X11385000Y74300000D02*
X12665000Y74300000D01*
X11385000Y74900000D02*
X12665000Y74900000D01*
X8275000Y76210000D02*
X8275000Y77190000D01*
X11385000Y78500000D02*
X12665000Y78500000D01*
X11385000Y79100000D02*
X12665000Y79100000D01*
X8285000Y80800000D02*
X8285000Y81610000D01*
X-4735000Y81610000D02*
X-4735000Y62000000D01*
X8285000Y81610000D02*
X-4735000Y81610000D01*
G04 #@! TO.C,Q9*
X25970000Y45050000D02*
X25970000Y45320000D01*
X25970000Y45320000D02*
X28800000Y45320000D01*
X25970000Y51680000D02*
X27070000Y51680000D01*
X25970000Y51950000D02*
X25970000Y51680000D01*
X19550000Y45050000D02*
X25970000Y45050000D01*
X19550000Y51950000D02*
X25970000Y51950000D01*
D12*
G04 #@! TO.C,U5*
X99000000Y7300000D02*
X86300000Y7300000D01*
X99000000Y13980000D02*
X99000000Y7300000D01*
X99000000Y33620000D02*
X99000000Y34550000D01*
X99000000Y34550000D02*
X86300000Y34550000D01*
D19*
X96419281Y18774468D02*
X96419281Y18774468D01*
X96419281Y18774468D02*
X96414773Y18596175D01*
X96419281Y23465531D02*
X96419281Y18774468D01*
X96419281Y23465531D02*
X96419281Y23465531D01*
X96414773Y18596175D02*
X96401393Y18420221D01*
X96414773Y23643825D02*
X96419281Y23465531D01*
X96401393Y18420221D02*
X96379360Y18246826D01*
X96401393Y23819778D02*
X96414773Y23643825D01*
X96379360Y18246826D02*
X96348890Y18076207D01*
X96379360Y23993173D02*
X96401393Y23819778D01*
X96348890Y18076207D02*
X96310202Y17908581D01*
X96348890Y24163792D02*
X96379360Y23993173D01*
X96310202Y17908581D02*
X96263514Y17744167D01*
X96310202Y24331418D02*
X96348890Y24163792D01*
X96263514Y17744167D02*
X96209043Y17583182D01*
X96263514Y24495832D02*
X96310202Y24331418D01*
X96209043Y17583182D02*
X96147006Y17425844D01*
X96209043Y24656817D02*
X96263514Y24495832D01*
X96147006Y17425844D02*
X96077622Y17272370D01*
X96147006Y24814156D02*
X96209043Y24656817D01*
X96077622Y17272370D02*
X96001108Y17122978D01*
X96077622Y24967629D02*
X96147006Y24814156D01*
X96001108Y17122978D02*
X95917682Y16977886D01*
X96001108Y25117021D02*
X96077622Y24967629D01*
X95917682Y16977886D02*
X95827562Y16837311D01*
X95917682Y25262113D02*
X96001108Y25117021D01*
X95827562Y16837311D02*
X95730964Y16701472D01*
X95827562Y25402688D02*
X95917682Y25262113D01*
X95730964Y16701472D02*
X95628108Y16570586D01*
X95730964Y25538527D02*
X95827562Y25402688D01*
X95628108Y16570586D02*
X95519210Y16444870D01*
X95628108Y25669413D02*
X95730964Y25538527D01*
X95519210Y16444870D02*
X95404488Y16324543D01*
X95519210Y25795129D02*
X95628108Y25669413D01*
X95404488Y16324543D02*
X95284161Y16209821D01*
X95404488Y25915456D02*
X95519210Y25795129D01*
X95284161Y16209821D02*
X95158445Y16100923D01*
X95284161Y26030178D02*
X95404488Y25915456D01*
X95158445Y16100923D02*
X95027559Y15998067D01*
X95158445Y26139076D02*
X95284161Y26030178D01*
X95027559Y15998067D02*
X94891720Y15901469D01*
X95027559Y26241932D02*
X95158445Y26139076D01*
X94891720Y15901469D02*
X94751145Y15811349D01*
X94891720Y26338529D02*
X95027559Y26241932D01*
X94751145Y15811349D02*
X94606053Y15727923D01*
X94751145Y26428650D02*
X94891720Y26338529D01*
X94606053Y15727923D02*
X94456661Y15651409D01*
X94606053Y26512076D02*
X94751145Y26428650D01*
X94550000Y19238812D02*
X90918594Y22894031D01*
X94456661Y15651409D02*
X94303187Y15582025D01*
X94456661Y26588590D02*
X94606053Y26512076D01*
X94303187Y15582025D02*
X94145849Y15519988D01*
X94303187Y26657974D02*
X94456661Y26588590D01*
X94145849Y15519988D02*
X93984864Y15465517D01*
X94145849Y26720011D02*
X94303187Y26657974D01*
X93984864Y15465517D02*
X93820450Y15418829D01*
X93984864Y26774482D02*
X94145849Y26720011D01*
X93820450Y15418829D02*
X93652824Y15380141D01*
X93820450Y26821170D02*
X93984864Y26774482D01*
X93652824Y15380141D02*
X93482205Y15349671D01*
X93652824Y26859858D02*
X93820450Y26821170D01*
X93482205Y15349671D02*
X93308810Y15327638D01*
X93482205Y26890327D02*
X93652824Y26859858D01*
X93308810Y15327638D02*
X93132856Y15314258D01*
X93308810Y26912361D02*
X93482205Y26890327D01*
X93132856Y15314258D02*
X92954563Y15309750D01*
X93132856Y26925741D02*
X93308810Y26912361D01*
X92954563Y15309750D02*
X92954563Y15309750D01*
X92954563Y15309750D02*
X92954563Y15309750D01*
X92954563Y15309750D02*
X92264000Y15309750D01*
X92954563Y26930249D02*
X93132856Y26925741D01*
X92954563Y26930249D02*
X92954563Y26930249D01*
X92668813Y17440969D02*
X92668813Y17440969D01*
X92668813Y17440969D02*
X90918594Y19465031D01*
X92668813Y25013343D02*
X92668813Y17440969D01*
X92668813Y25013343D02*
X92668813Y25013343D01*
X92264000Y15309750D02*
X92264000Y15309750D01*
X92264000Y15309750D02*
X92085706Y15314258D01*
X92264000Y26930249D02*
X92954563Y26930249D01*
X92264000Y26930249D02*
X92264000Y26930249D01*
X92085706Y15314258D02*
X91909753Y15327638D01*
X92085706Y26925741D02*
X92264000Y26930249D01*
X91909753Y15327638D02*
X91736357Y15349671D01*
X91909753Y26912361D02*
X92085706Y26925741D01*
X91736357Y15349671D02*
X91565738Y15380141D01*
X91736357Y26890327D02*
X91909753Y26912361D01*
X91565738Y15380141D02*
X91398113Y15418829D01*
X91565738Y26859858D02*
X91736357Y26890327D01*
X91398113Y15418829D02*
X91233699Y15465517D01*
X91398113Y26821170D02*
X91565738Y26859858D01*
X91233699Y15465517D02*
X91072713Y15519988D01*
X91233699Y26774482D02*
X91398113Y26821170D01*
X91072713Y15519988D02*
X90915375Y15582025D01*
X91072713Y26720011D02*
X91233699Y26774482D01*
X90918594Y19465031D02*
X94550000Y23025000D01*
X90918594Y19465031D02*
X90918594Y19465031D01*
X90918594Y22894031D02*
X92668813Y25013343D01*
X90918594Y22894031D02*
X90918594Y22894031D01*
X90915375Y15582025D02*
X90761901Y15651409D01*
X90915375Y26657974D02*
X91072713Y26720011D01*
X90761901Y15651409D02*
X90612509Y15727923D01*
X90761901Y26588590D02*
X90915375Y26657974D01*
X90612509Y15727923D02*
X90467417Y15811349D01*
X90612509Y26512076D02*
X90761901Y26588590D01*
X90467417Y15811349D02*
X90326843Y15901469D01*
X90467417Y26428650D02*
X90612509Y26512076D01*
X90326843Y15901469D02*
X90191003Y15998067D01*
X90326843Y26338529D02*
X90467417Y26428650D01*
X90191003Y15998067D02*
X90060117Y16100923D01*
X90191003Y26241932D02*
X90326843Y26338529D01*
X90060117Y16100923D02*
X89934401Y16209821D01*
X90060117Y26139076D02*
X90191003Y26241932D01*
X89934401Y16209821D02*
X89814074Y16324543D01*
X89934401Y26030178D02*
X90060117Y26139076D01*
X89814074Y16324543D02*
X89699352Y16444870D01*
X89814074Y25915456D02*
X89934401Y26030178D01*
X89699352Y16444870D02*
X89590454Y16570586D01*
X89699352Y25795129D02*
X89814074Y25915456D01*
X89590454Y16570586D02*
X89487598Y16701472D01*
X89590454Y25669413D02*
X89699352Y25795129D01*
X89487598Y16701472D02*
X89391001Y16837311D01*
X89487598Y25538527D02*
X89590454Y25669413D01*
X89391001Y16837311D02*
X89300880Y16977886D01*
X89391001Y25402688D02*
X89487598Y25538527D01*
X89300880Y16977886D02*
X89217454Y17122978D01*
X89300880Y25262113D02*
X89391001Y25402688D01*
X89217454Y17122978D02*
X89140940Y17272370D01*
X89217454Y25117021D02*
X89300880Y25262113D01*
X89140940Y17272370D02*
X89071556Y17425844D01*
X89140940Y24967629D02*
X89217454Y25117021D01*
X89071556Y17425844D02*
X89009519Y17583182D01*
X89071556Y24814156D02*
X89140940Y24967629D01*
X89009519Y17583182D02*
X88955048Y17744167D01*
X89009519Y24656817D02*
X89071556Y24814156D01*
X88955048Y17744167D02*
X88908360Y17908581D01*
X88955048Y24495832D02*
X89009519Y24656817D01*
X88908360Y17908581D02*
X88869672Y18076207D01*
X88908360Y24331418D02*
X88955048Y24495832D01*
X88869672Y18076207D02*
X88839203Y18246826D01*
X88869672Y24163792D02*
X88908360Y24331418D01*
X88839203Y18246826D02*
X88817169Y18420221D01*
X88839203Y23993173D02*
X88869672Y24163792D01*
X88817169Y18420221D02*
X88803789Y18596175D01*
X88817169Y23819778D02*
X88839203Y23993173D01*
X88803789Y18596175D02*
X88799281Y18774468D01*
X88803789Y23643825D02*
X88817169Y23819778D01*
X88799281Y18774468D02*
X88799281Y18774468D01*
X88799281Y18774468D02*
X88799281Y23465531D01*
X88799281Y23465531D02*
X88803789Y23643825D01*
X88799281Y23465531D02*
X88799281Y23465531D01*
D12*
X86300000Y7300000D02*
X86300000Y13980000D01*
X86300000Y34550000D02*
X86300000Y33620000D01*
X100750000Y14625000D02*
G75*
G03*
X100750000Y14625000I-100000J0D01*
G01*
D17*
G04 #@! TO.C,J3*
X104735000Y82010000D02*
X104735000Y75000000D01*
X91715000Y82010000D02*
X104735000Y82010000D01*
X91025000Y81800000D02*
X90725000Y81200000D01*
X90425000Y81800000D02*
X91025000Y81800000D01*
X91715000Y81200000D02*
X91715000Y82010000D01*
X90725000Y81200000D02*
X90425000Y81800000D01*
X88615000Y79500000D02*
X87335000Y79500000D01*
X88615000Y78900000D02*
X87335000Y78900000D01*
X91725000Y77590000D02*
X91725000Y76610000D01*
X88615000Y75300000D02*
X87335000Y75300000D01*
X88615000Y74700000D02*
X87335000Y74700000D01*
X91725000Y73390000D02*
X91725000Y72410000D01*
X88615000Y71100000D02*
X87335000Y71100000D01*
X88615000Y70500000D02*
X87335000Y70500000D01*
X91715000Y68800000D02*
X91715000Y67990000D01*
X104735000Y67990000D02*
X104735000Y75000000D01*
X91715000Y67990000D02*
X104735000Y67990000D01*
D18*
G04 #@! TO.C,R13*
X19298944Y72129160D02*
X19698943Y72129149D01*
X19300000Y72874995D02*
X19700000Y72874985D01*
D17*
G04 #@! TO.C,F1*
X23800000Y19400000D02*
X23800000Y14550000D01*
X21800000Y19400000D02*
X21800000Y14550000D01*
X23800000Y19450000D02*
G75*
G03*
X21800000Y19450000I-1000000J0D01*
G01*
X21800000Y14550000D02*
G75*
G03*
X23800000Y14550000I1000000J0D01*
G01*
G04 #@! TO.C,G3*
X38484000Y48944000D02*
X45596000Y48944000D01*
X45596000Y48944000D02*
X45596000Y61136000D01*
X45596000Y61136000D02*
X38484000Y61136000D01*
X38484000Y61136000D02*
X38484000Y48944000D01*
G04 #@! TO.C,P3*
X61170000Y3830000D02*
X61170000Y1170000D01*
X61464462Y1170000D02*
X61170000Y1170000D01*
X61475627Y3830000D02*
X61170000Y3830000D01*
X63524373Y1170000D02*
X63830000Y1170000D01*
X63535538Y3830000D02*
X63830000Y3830000D01*
X63830000Y1170000D02*
X63830000Y3830000D01*
D18*
G04 #@! TO.C,R11*
X19298944Y79629160D02*
X19698943Y79629149D01*
X19300000Y80374995D02*
X19700000Y80374985D01*
D17*
G04 #@! TO.C,D3*
X18000000Y74250000D02*
X20000000Y74250000D01*
X18000000Y74250000D02*
X18000000Y78150000D01*
X20000000Y74250000D02*
X20000000Y78150000D01*
D15*
X19000000Y75950000D02*
X19000000Y76150000D01*
X19000000Y76150000D02*
X18650000Y76850000D01*
X19000000Y76150000D02*
X19350000Y76850000D01*
X19350000Y76150000D02*
X18650000Y76150000D01*
X19000000Y76850000D02*
X19000000Y77150000D01*
X19350000Y76850000D02*
X18650000Y76850000D01*
D10*
G04 #@! TO.C,U1*
X3200000Y20850000D02*
X6600000Y20850000D01*
X5100000Y14500000D02*
X5100000Y14150000D01*
X5100000Y14150000D02*
X6650000Y14150000D01*
X12900000Y20850000D02*
X11350000Y20850000D01*
X12900000Y20500000D02*
X12900000Y20850000D01*
X12900000Y14500000D02*
X12900000Y14150000D01*
X12900000Y14150000D02*
X11350000Y14150000D01*
G04 #@! TO.C,U2*
X9825000Y11390000D02*
X13225000Y11390000D01*
X11725000Y5040000D02*
X11725000Y4690000D01*
X11725000Y4690000D02*
X13275000Y4690000D01*
X19525000Y11390000D02*
X17975000Y11390000D01*
X19525000Y11040000D02*
X19525000Y11390000D01*
X19525000Y5040000D02*
X19525000Y4690000D01*
X19525000Y4690000D02*
X17975000Y4690000D01*
D17*
G04 #@! TO.C,J4*
X-4735000Y22990000D02*
X-4735000Y32100000D01*
X8285000Y22990000D02*
X-4735000Y22990000D01*
X8975000Y23200000D02*
X9275000Y23800000D01*
X9575000Y23200000D02*
X8975000Y23200000D01*
X8285000Y23800000D02*
X8285000Y22990000D01*
X9275000Y23800000D02*
X9575000Y23200000D01*
X11385000Y25500000D02*
X12665000Y25500000D01*
X11385000Y26100000D02*
X12665000Y26100000D01*
X8275000Y27410000D02*
X8275000Y28390000D01*
X11385000Y29700000D02*
X12665000Y29700000D01*
X11385000Y30300000D02*
X12665000Y30300000D01*
X8275000Y31610000D02*
X8275000Y32590000D01*
X11385000Y33900000D02*
X12665000Y33900000D01*
X11385000Y34500000D02*
X12665000Y34500000D01*
X8275000Y35810000D02*
X8275000Y36790000D01*
X11385000Y38100000D02*
X12665000Y38100000D01*
X11385000Y38700000D02*
X12665000Y38700000D01*
X8285000Y40400000D02*
X8285000Y41210000D01*
X-4735000Y41210000D02*
X-4735000Y32100000D01*
X8285000Y41210000D02*
X-4735000Y41210000D01*
G04 #@! TO.C,P7*
X81870000Y25330000D02*
X81870000Y22670000D01*
X82164462Y22670000D02*
X81870000Y22670000D01*
X82175627Y25330000D02*
X81870000Y25330000D01*
X84224373Y22670000D02*
X84530000Y22670000D01*
X84235538Y25330000D02*
X84530000Y25330000D01*
X84530000Y22670000D02*
X84530000Y25330000D01*
D12*
G04 #@! TO.C,M6*
X79400010Y12300010D02*
X45600000Y12300010D01*
X79400010Y48100000D02*
X79400010Y12300010D01*
X79400010Y48100000D02*
X45600010Y48100000D01*
X45600000Y48100000D02*
X45600000Y12300010D01*
D17*
G04 #@! TO.C,Q11*
X25970000Y31050000D02*
X25970000Y31320000D01*
X25970000Y31320000D02*
X28800000Y31320000D01*
X25970000Y37680000D02*
X27070000Y37680000D01*
X25970000Y37950000D02*
X25970000Y37680000D01*
X19550000Y31050000D02*
X25970000Y31050000D01*
X19550000Y37950000D02*
X25970000Y37950000D01*
G04 #@! TO.C,J9*
X45420000Y5850000D02*
X45420000Y3930000D01*
X45420000Y215000D02*
X45420000Y1920000D01*
X54580000Y3930000D02*
X54580000Y5850000D01*
X54580000Y1920000D02*
X54580000Y215000D01*
X54580000Y215000D02*
X45420000Y215000D01*
D12*
G04 #@! TO.C,M4*
X40925000Y77375000D02*
X34525000Y77375000D01*
X31325000Y77375000D02*
X32625000Y77375000D01*
X31325000Y77375000D02*
X31325000Y62375000D01*
X40925000Y62975000D02*
X40925000Y77375000D01*
X31325000Y62375000D02*
X36425000Y62375000D01*
G04 #@! TO.C,G1*
D20*
X89378460Y6840100D02*
X89680720Y6824860D01*
X89909320Y6789300D01*
X90117600Y6723260D01*
X90353820Y6616580D01*
X90440180Y6573400D01*
X90976120Y6235580D01*
X91479040Y5788540D01*
X91887980Y5283080D01*
X91956560Y5171320D01*
X92147060Y4853820D01*
X91639060Y4853820D01*
X91326640Y4841120D01*
X91148840Y4795400D01*
X91085340Y4729360D01*
X91100580Y4620140D01*
X91171700Y4602360D01*
X91263140Y4559180D01*
X91265680Y4406780D01*
X91258060Y4368680D01*
X91222500Y4185800D01*
X91169160Y3886080D01*
X91100580Y3517780D01*
X91062480Y3296800D01*
X90983740Y2895480D01*
X90915160Y2633860D01*
X90846580Y2484000D01*
X90770380Y2423040D01*
X90760220Y2420500D01*
X90747520Y2415420D01*
X90615440Y2359540D01*
X90623060Y2301120D01*
X90762760Y2255400D01*
X91019300Y2232540D01*
X91115820Y2230000D01*
X91387600Y2242700D01*
X91570480Y2275720D01*
X91623820Y2313820D01*
X91555240Y2390020D01*
X91496820Y2400180D01*
X91435860Y2405260D01*
X91397760Y2435740D01*
X91387600Y2517020D01*
X91402840Y2677040D01*
X91446020Y2938660D01*
X91522220Y3327280D01*
X91573020Y3581280D01*
X91677160Y4063880D01*
X91773680Y4394080D01*
X91854960Y4564260D01*
X91885440Y4587120D01*
X92032760Y4681100D01*
X92063240Y4716660D01*
X92126740Y4724280D01*
X92200400Y4592200D01*
X92274060Y4350900D01*
X92335020Y4033400D01*
X92352800Y3896240D01*
X92350260Y3200280D01*
X92195320Y2509400D01*
X91895600Y1856620D01*
X91466340Y1280040D01*
X91313940Y1122560D01*
X90800860Y706000D01*
X90275080Y429140D01*
X89688340Y274200D01*
X89127000Y225940D01*
X88532640Y231020D01*
X88072900Y299600D01*
X87943360Y335160D01*
X87265180Y637420D01*
X86678440Y1081920D01*
X86180600Y1668660D01*
X85891040Y2153800D01*
X85812891Y2313820D01*
X86079000Y2313820D01*
X86134880Y2275720D01*
X86350780Y2247780D01*
X86721620Y2232540D01*
X87046740Y2230000D01*
X88067820Y2230000D01*
X88067820Y2313820D01*
X88408180Y2313820D01*
X88484380Y2270640D01*
X88685040Y2240160D01*
X88916180Y2230000D01*
X89185420Y2242700D01*
X89368300Y2275720D01*
X89424180Y2313820D01*
X89353060Y2387480D01*
X89287020Y2400180D01*
X89205740Y2425580D01*
X89180340Y2532260D01*
X89203200Y2758320D01*
X89208280Y2791340D01*
X89254000Y3052960D01*
X89297180Y3251080D01*
X89312420Y3299340D01*
X89408940Y3370460D01*
X89584200Y3411100D01*
X89774700Y3411100D01*
X89906780Y3373000D01*
X89932180Y3329820D01*
X89972820Y3240920D01*
X90066800Y3258700D01*
X90165860Y3362840D01*
X90209040Y3479680D01*
X90229360Y3693040D01*
X90178560Y3754000D01*
X90082040Y3685420D01*
X89932180Y3616840D01*
X89708660Y3586360D01*
X89690880Y3583820D01*
X89401320Y3583820D01*
X89459740Y4025780D01*
X89500380Y4287400D01*
X89541020Y4477900D01*
X89558800Y4533780D01*
X89660400Y4569340D01*
X89878840Y4594740D01*
X90071880Y4599820D01*
X90341120Y4592200D01*
X90473200Y4561720D01*
X90501140Y4500760D01*
X90493520Y4475360D01*
X90503680Y4363600D01*
X90559560Y4345820D01*
X90651000Y4422020D01*
X90709420Y4597280D01*
X90711960Y4599820D01*
X90747520Y4853820D01*
X89789940Y4853820D01*
X89365760Y4851280D01*
X89083820Y4838580D01*
X88918720Y4813180D01*
X88845060Y4772540D01*
X88829820Y4726820D01*
X88898400Y4615060D01*
X88956820Y4599820D01*
X89015240Y4604900D01*
X89053340Y4597280D01*
X89068580Y4554100D01*
X89060960Y4449960D01*
X89025400Y4254380D01*
X88964440Y3947040D01*
X88873000Y3500000D01*
X88791720Y3103760D01*
X88725680Y2771020D01*
X88679960Y2537340D01*
X88662180Y2433200D01*
X88662180Y2430660D01*
X88591060Y2402720D01*
X88535180Y2400180D01*
X88461520Y2372240D01*
X88420880Y2354460D01*
X88408180Y2313820D01*
X88067820Y2313820D01*
X88067820Y2484000D01*
X88029720Y2687200D01*
X87940820Y2738000D01*
X87829060Y2674500D01*
X87813820Y2618620D01*
X87740160Y2550040D01*
X87554740Y2481460D01*
X87321060Y2428120D01*
X87095000Y2400180D01*
X86937520Y2412880D01*
X86909580Y2430660D01*
X86894340Y2532260D01*
X86901960Y2750700D01*
X86922280Y2946280D01*
X86980700Y3416180D01*
X87313440Y3416180D01*
X87521720Y3395860D01*
X87638560Y3342520D01*
X87646180Y3324740D01*
X87679200Y3240920D01*
X87755400Y3276480D01*
X87844300Y3395860D01*
X87907800Y3568580D01*
X87907800Y3571120D01*
X87925580Y3764160D01*
X87869700Y3837820D01*
X87846840Y3837820D01*
X87740160Y3789560D01*
X87730000Y3754000D01*
X87653800Y3700660D01*
X87468380Y3670180D01*
X87404880Y3670180D01*
X87082300Y3670180D01*
X87166120Y4135000D01*
X87249940Y4602360D01*
X87752860Y4599820D01*
X88034800Y4594740D01*
X88179580Y4566800D01*
X88215140Y4508380D01*
X88207520Y4472820D01*
X88217680Y4363600D01*
X88273560Y4345820D01*
X88365000Y4422020D01*
X88423420Y4597280D01*
X88425960Y4599820D01*
X88461520Y4853820D01*
X87503940Y4853820D01*
X87079760Y4851280D01*
X86797820Y4838580D01*
X86632720Y4813180D01*
X86559060Y4772540D01*
X86543820Y4726820D01*
X86612400Y4617600D01*
X86675900Y4599820D01*
X86772420Y4543940D01*
X86767340Y4452500D01*
X86734320Y4312800D01*
X86675900Y4046100D01*
X86604780Y3695580D01*
X86536200Y3352680D01*
X86434600Y2875160D01*
X86343160Y2560200D01*
X86266960Y2412880D01*
X86241560Y2400180D01*
X86101860Y2341760D01*
X86079000Y2313820D01*
X85812891Y2313820D01*
X85784360Y2372240D01*
X85715780Y2570360D01*
X85677680Y2791340D01*
X85659900Y3080900D01*
X85654820Y3489840D01*
X85654820Y3543180D01*
X85659900Y3967360D01*
X85675140Y4272160D01*
X85713240Y4503300D01*
X85779280Y4711580D01*
X85883420Y4942720D01*
X85898660Y4968120D01*
X86231400Y5496440D01*
X86683520Y5994280D01*
X87201680Y6405760D01*
X87524260Y6593720D01*
X87763020Y6702940D01*
X87968760Y6776600D01*
X88194820Y6817240D01*
X88484380Y6837560D01*
X88890780Y6842640D01*
X88959360Y6842640D01*
X89378460Y6840100D01*
G36*
X89378460Y6840100D02*
G01*
X89680720Y6824860D01*
X89909320Y6789300D01*
X90117600Y6723260D01*
X90353820Y6616580D01*
X90440180Y6573400D01*
X90976120Y6235580D01*
X91479040Y5788540D01*
X91887980Y5283080D01*
X91956560Y5171320D01*
X92147060Y4853820D01*
X91639060Y4853820D01*
X91326640Y4841120D01*
X91148840Y4795400D01*
X91085340Y4729360D01*
X91100580Y4620140D01*
X91171700Y4602360D01*
X91263140Y4559180D01*
X91265680Y4406780D01*
X91258060Y4368680D01*
X91222500Y4185800D01*
X91169160Y3886080D01*
X91100580Y3517780D01*
X91062480Y3296800D01*
X90983740Y2895480D01*
X90915160Y2633860D01*
X90846580Y2484000D01*
X90770380Y2423040D01*
X90760220Y2420500D01*
X90747520Y2415420D01*
X90615440Y2359540D01*
X90623060Y2301120D01*
X90762760Y2255400D01*
X91019300Y2232540D01*
X91115820Y2230000D01*
X91387600Y2242700D01*
X91570480Y2275720D01*
X91623820Y2313820D01*
X91555240Y2390020D01*
X91496820Y2400180D01*
X91435860Y2405260D01*
X91397760Y2435740D01*
X91387600Y2517020D01*
X91402840Y2677040D01*
X91446020Y2938660D01*
X91522220Y3327280D01*
X91573020Y3581280D01*
X91677160Y4063880D01*
X91773680Y4394080D01*
X91854960Y4564260D01*
X91885440Y4587120D01*
X92032760Y4681100D01*
X92063240Y4716660D01*
X92126740Y4724280D01*
X92200400Y4592200D01*
X92274060Y4350900D01*
X92335020Y4033400D01*
X92352800Y3896240D01*
X92350260Y3200280D01*
X92195320Y2509400D01*
X91895600Y1856620D01*
X91466340Y1280040D01*
X91313940Y1122560D01*
X90800860Y706000D01*
X90275080Y429140D01*
X89688340Y274200D01*
X89127000Y225940D01*
X88532640Y231020D01*
X88072900Y299600D01*
X87943360Y335160D01*
X87265180Y637420D01*
X86678440Y1081920D01*
X86180600Y1668660D01*
X85891040Y2153800D01*
X85812891Y2313820D01*
X86079000Y2313820D01*
X86134880Y2275720D01*
X86350780Y2247780D01*
X86721620Y2232540D01*
X87046740Y2230000D01*
X88067820Y2230000D01*
X88067820Y2313820D01*
X88408180Y2313820D01*
X88484380Y2270640D01*
X88685040Y2240160D01*
X88916180Y2230000D01*
X89185420Y2242700D01*
X89368300Y2275720D01*
X89424180Y2313820D01*
X89353060Y2387480D01*
X89287020Y2400180D01*
X89205740Y2425580D01*
X89180340Y2532260D01*
X89203200Y2758320D01*
X89208280Y2791340D01*
X89254000Y3052960D01*
X89297180Y3251080D01*
X89312420Y3299340D01*
X89408940Y3370460D01*
X89584200Y3411100D01*
X89774700Y3411100D01*
X89906780Y3373000D01*
X89932180Y3329820D01*
X89972820Y3240920D01*
X90066800Y3258700D01*
X90165860Y3362840D01*
X90209040Y3479680D01*
X90229360Y3693040D01*
X90178560Y3754000D01*
X90082040Y3685420D01*
X89932180Y3616840D01*
X89708660Y3586360D01*
X89690880Y3583820D01*
X89401320Y3583820D01*
X89459740Y4025780D01*
X89500380Y4287400D01*
X89541020Y4477900D01*
X89558800Y4533780D01*
X89660400Y4569340D01*
X89878840Y4594740D01*
X90071880Y4599820D01*
X90341120Y4592200D01*
X90473200Y4561720D01*
X90501140Y4500760D01*
X90493520Y4475360D01*
X90503680Y4363600D01*
X90559560Y4345820D01*
X90651000Y4422020D01*
X90709420Y4597280D01*
X90711960Y4599820D01*
X90747520Y4853820D01*
X89789940Y4853820D01*
X89365760Y4851280D01*
X89083820Y4838580D01*
X88918720Y4813180D01*
X88845060Y4772540D01*
X88829820Y4726820D01*
X88898400Y4615060D01*
X88956820Y4599820D01*
X89015240Y4604900D01*
X89053340Y4597280D01*
X89068580Y4554100D01*
X89060960Y4449960D01*
X89025400Y4254380D01*
X88964440Y3947040D01*
X88873000Y3500000D01*
X88791720Y3103760D01*
X88725680Y2771020D01*
X88679960Y2537340D01*
X88662180Y2433200D01*
X88662180Y2430660D01*
X88591060Y2402720D01*
X88535180Y2400180D01*
X88461520Y2372240D01*
X88420880Y2354460D01*
X88408180Y2313820D01*
X88067820Y2313820D01*
X88067820Y2484000D01*
X88029720Y2687200D01*
X87940820Y2738000D01*
X87829060Y2674500D01*
X87813820Y2618620D01*
X87740160Y2550040D01*
X87554740Y2481460D01*
X87321060Y2428120D01*
X87095000Y2400180D01*
X86937520Y2412880D01*
X86909580Y2430660D01*
X86894340Y2532260D01*
X86901960Y2750700D01*
X86922280Y2946280D01*
X86980700Y3416180D01*
X87313440Y3416180D01*
X87521720Y3395860D01*
X87638560Y3342520D01*
X87646180Y3324740D01*
X87679200Y3240920D01*
X87755400Y3276480D01*
X87844300Y3395860D01*
X87907800Y3568580D01*
X87907800Y3571120D01*
X87925580Y3764160D01*
X87869700Y3837820D01*
X87846840Y3837820D01*
X87740160Y3789560D01*
X87730000Y3754000D01*
X87653800Y3700660D01*
X87468380Y3670180D01*
X87404880Y3670180D01*
X87082300Y3670180D01*
X87166120Y4135000D01*
X87249940Y4602360D01*
X87752860Y4599820D01*
X88034800Y4594740D01*
X88179580Y4566800D01*
X88215140Y4508380D01*
X88207520Y4472820D01*
X88217680Y4363600D01*
X88273560Y4345820D01*
X88365000Y4422020D01*
X88423420Y4597280D01*
X88425960Y4599820D01*
X88461520Y4853820D01*
X87503940Y4853820D01*
X87079760Y4851280D01*
X86797820Y4838580D01*
X86632720Y4813180D01*
X86559060Y4772540D01*
X86543820Y4726820D01*
X86612400Y4617600D01*
X86675900Y4599820D01*
X86772420Y4543940D01*
X86767340Y4452500D01*
X86734320Y4312800D01*
X86675900Y4046100D01*
X86604780Y3695580D01*
X86536200Y3352680D01*
X86434600Y2875160D01*
X86343160Y2560200D01*
X86266960Y2412880D01*
X86241560Y2400180D01*
X86101860Y2341760D01*
X86079000Y2313820D01*
X85812891Y2313820D01*
X85784360Y2372240D01*
X85715780Y2570360D01*
X85677680Y2791340D01*
X85659900Y3080900D01*
X85654820Y3489840D01*
X85654820Y3543180D01*
X85659900Y3967360D01*
X85675140Y4272160D01*
X85713240Y4503300D01*
X85779280Y4711580D01*
X85883420Y4942720D01*
X85898660Y4968120D01*
X86231400Y5496440D01*
X86683520Y5994280D01*
X87201680Y6405760D01*
X87524260Y6593720D01*
X87763020Y6702940D01*
X87968760Y6776600D01*
X88194820Y6817240D01*
X88484380Y6837560D01*
X88890780Y6842640D01*
X88959360Y6842640D01*
X89378460Y6840100D01*
G37*
D17*
G04 #@! TO.C,F2*
X18600000Y23600000D02*
X23450000Y23600000D01*
X18600000Y21600000D02*
X23450000Y21600000D01*
X18550000Y23600000D02*
G75*
G03*
X18550000Y21600000I0J-1000000D01*
G01*
X23450000Y21600000D02*
G75*
G03*
X23450000Y23600000I0J1000000D01*
G01*
G04 #@! TO.C,D5*
X18000000Y66750000D02*
X20000000Y66750000D01*
X18000000Y66750000D02*
X18000000Y70650000D01*
X20000000Y66750000D02*
X20000000Y70650000D01*
D15*
X19000000Y68450000D02*
X19000000Y68650000D01*
X19000000Y68650000D02*
X18650000Y69350000D01*
X19000000Y68650000D02*
X19350000Y69350000D01*
X19350000Y68650000D02*
X18650000Y68650000D01*
X19000000Y69350000D02*
X19000000Y69650000D01*
X19350000Y69350000D02*
X18650000Y69350000D01*
D17*
G04 #@! TO.C,J6*
X99480000Y39230000D02*
X99480000Y37900000D01*
X98150000Y39230000D02*
X99480000Y39230000D01*
X96880000Y39230000D02*
X84120000Y39230000D01*
X96880000Y39230000D02*
X96880000Y36570000D01*
X84120000Y39230000D02*
X84120000Y36570000D01*
X96880000Y36570000D02*
X84120000Y36570000D01*
G04 #@! TO.C,P6*
X42170000Y7830000D02*
X42170000Y5170000D01*
X42464462Y5170000D02*
X42170000Y5170000D01*
X42475627Y7830000D02*
X42170000Y7830000D01*
X44524373Y5170000D02*
X44830000Y5170000D01*
X44535538Y7830000D02*
X44830000Y7830000D01*
X44830000Y5170000D02*
X44830000Y7830000D01*
D18*
G04 #@! TO.C,R14*
X23229160Y8701056D02*
X23229149Y8301057D01*
X23974995Y8700000D02*
X23974985Y8300000D01*
D17*
G04 #@! TO.C,Q17*
X31090000Y24400000D02*
X31090000Y30410000D01*
X37910000Y26650000D02*
X37910000Y30410000D01*
X31090000Y30410000D02*
X32350000Y30410000D01*
X37910000Y30410000D02*
X36650000Y30410000D01*
D21*
G04 #@! TO.C,U3*
X74743250Y76065000D02*
X80458250Y67175000D01*
X64583250Y68445000D02*
X69663250Y76065000D01*
D10*
X71593250Y67926500D02*
X65243250Y67926500D01*
X65243250Y67926500D02*
X65243250Y60306500D01*
X70958250Y65069000D02*
X71593250Y65069000D01*
X71593250Y63164000D02*
X70958250Y63164000D01*
X70958250Y63164000D02*
X70958250Y65069000D01*
D21*
X84268250Y62095000D02*
X84268250Y59555000D01*
X81093250Y62095000D02*
X84268250Y62095000D01*
D10*
X71593250Y60306500D02*
X71593250Y67926500D01*
X65243250Y60306500D02*
X71593250Y60306500D01*
D21*
X84268250Y59555000D02*
X79823250Y59555000D01*
X79823250Y59555000D02*
X74743250Y51935000D01*
X64583250Y59555000D02*
X69663250Y51935000D01*
X74743250Y75430000D02*
G75*
G03*
X74743250Y75430000I-2540000J0D01*
G01*
X81093250Y64000000D02*
G75*
G03*
X81093250Y64000000I-8890000J0D01*
G01*
X74743250Y52570000D02*
G75*
G03*
X74743250Y52570000I-2540000J0D01*
G01*
D12*
G04 #@! TO.C,C12*
X1250014Y13800000D02*
X1999999Y13800000D01*
D17*
G04 #@! TO.C,G4*
X46104000Y48944000D02*
X53216000Y48944000D01*
X53216000Y48944000D02*
X53216000Y61136000D01*
X53216000Y61136000D02*
X46104000Y61136000D01*
X46104000Y61136000D02*
X46104000Y48944000D01*
G04 #@! TD*
M02*
