G04 #@! TF.GenerationSoftware,KiCad,Pcbnew,7.0.9-7.0.9~ubuntu22.04.1*
G04 #@! TF.CreationDate,2023-11-30T19:58:23+00:00*
G04 #@! TF.ProjectId,uaefi,75616566-692e-46b6-9963-61645f706362,rev?*
G04 #@! TF.SameCoordinates,Original*
G04 #@! TF.FileFunction,Soldermask,Bot*
G04 #@! TF.FilePolarity,Negative*
%FSLAX46Y46*%
G04 Gerber Fmt 4.6, Leading zero omitted, Abs format (unit mm)*
G04 Created by KiCad (PCBNEW 7.0.9-7.0.9~ubuntu22.04.1) date 2023-11-30 19:58:23*
%MOMM*%
%LPD*%
G01*
G04 APERTURE LIST*
%ADD10C,0.120000*%
%ADD11C,3.000000*%
%ADD12O,2.700000X3.700000*%
%ADD13C,1.700000*%
%ADD14C,0.800000*%
%ADD15C,6.400000*%
%ADD16C,1.524000*%
%ADD17O,1.850000X1.700000*%
%ADD18C,0.600000*%
%ADD19R,1.100000X1.100000*%
%ADD20C,1.100000*%
%ADD21O,2.400000X1.100000*%
%ADD22C,1.500000*%
%ADD23C,0.599999*%
%ADD24O,3.700000X2.700000*%
%ADD25C,0.650000*%
%ADD26O,1.000000X2.100000*%
%ADD27O,1.000000X1.600000*%
%ADD28R,1.700000X1.700000*%
%ADD29O,1.700000X1.700000*%
%ADD30C,3.302000*%
%ADD31R,2.299995X4.399991*%
%ADD32R,2.299995X3.999992*%
%ADD33R,1.500000X2.000000*%
%ADD34R,3.800000X2.000000*%
%ADD35R,2.000000X1.500000*%
%ADD36R,2.000000X3.800000*%
G04 APERTURE END LIST*
G04 #@! TO.C,U5*
D10*
X99150000Y7425000D02*
X86150000Y7425000D01*
X86150000Y14425000D01*
X99150000Y14425000D01*
X99150000Y7425000D01*
G36*
X99150000Y7425000D02*
G01*
X86150000Y7425000D01*
X86150000Y14425000D01*
X99150000Y14425000D01*
X99150000Y7425000D01*
G37*
G04 #@! TD*
D11*
G04 #@! TO.C,J2*
X8600000Y98025000D03*
X46400000Y98025000D03*
G36*
G01*
X7250000Y89125001D02*
X7250000Y92324999D01*
G75*
G02*
X7500001Y92575000I250001J0D01*
G01*
X9699999Y92575000D01*
G75*
G02*
X9950000Y92324999I0J-250001D01*
G01*
X9950000Y89125001D01*
G75*
G02*
X9699999Y88875000I-250001J0D01*
G01*
X7500001Y88875000D01*
G75*
G02*
X7250000Y89125001I0J250001D01*
G01*
G37*
D12*
X12800000Y90725000D03*
X17000000Y90725000D03*
X21200000Y90725000D03*
X25400000Y90725000D03*
X29600000Y90725000D03*
X33800000Y90725000D03*
X38000000Y90725000D03*
X42200000Y90725000D03*
X46400000Y90725000D03*
X8600000Y85225000D03*
X12800000Y85225000D03*
X17000000Y85225000D03*
X21200000Y85225000D03*
X25400000Y85225000D03*
X29600000Y85225000D03*
X33800000Y85225000D03*
X38000000Y85225000D03*
X42200000Y85225000D03*
X46400000Y85225000D03*
G04 #@! TD*
D13*
G04 #@! TO.C,P1*
X34000000Y57500000D03*
G04 #@! TD*
D11*
G04 #@! TO.C,J1*
X53600000Y98025000D03*
X91400000Y98025000D03*
G36*
G01*
X52250000Y89125001D02*
X52250000Y92324999D01*
G75*
G02*
X52500001Y92575000I250001J0D01*
G01*
X54699999Y92575000D01*
G75*
G02*
X54950000Y92324999I0J-250001D01*
G01*
X54950000Y89125001D01*
G75*
G02*
X54699999Y88875000I-250001J0D01*
G01*
X52500001Y88875000D01*
G75*
G02*
X52250000Y89125001I0J250001D01*
G01*
G37*
D12*
X57800000Y90725000D03*
X62000000Y90725000D03*
X66200000Y90725000D03*
X70400000Y90725000D03*
X74600000Y90725000D03*
X78800000Y90725000D03*
X83000000Y90725000D03*
X87200000Y90725000D03*
X91400000Y90725000D03*
X53600000Y85225000D03*
X57800000Y85225000D03*
X62000000Y85225000D03*
X66200000Y85225000D03*
X70400000Y85225000D03*
X74600000Y85225000D03*
X78800000Y85225000D03*
X83000000Y85225000D03*
X87200000Y85225000D03*
X91400000Y85225000D03*
G04 #@! TD*
D13*
G04 #@! TO.C,P2*
X31000000Y57500000D03*
G04 #@! TD*
D14*
G04 #@! TO.C,H1*
X1100000Y88000000D03*
X1802944Y89697056D03*
X1802944Y86302944D03*
X3500000Y90400000D03*
D15*
X3500000Y88000000D03*
D14*
X3500000Y85600000D03*
X5197056Y89697056D03*
X5197056Y86302944D03*
X5900000Y88000000D03*
G04 #@! TD*
G04 #@! TO.C,H4*
X94100000Y88000000D03*
X94802944Y89697056D03*
X94802944Y86302944D03*
X96500000Y90400000D03*
D15*
X96500000Y88000000D03*
D14*
X96500000Y85600000D03*
X98197056Y89697056D03*
X98197056Y86302944D03*
X98900000Y88000000D03*
G04 #@! TD*
D16*
G04 #@! TO.C,F4*
X19880000Y19450000D03*
X19880000Y14550000D03*
G04 #@! TD*
G04 #@! TO.C,J7*
G36*
G01*
X83675000Y2150000D02*
X82325000Y2150000D01*
G75*
G02*
X82075000Y2400000I0J250000D01*
G01*
X82075000Y3600000D01*
G75*
G02*
X82325000Y3850000I250000J0D01*
G01*
X83675000Y3850000D01*
G75*
G02*
X83925000Y3600000I0J-250000D01*
G01*
X83925000Y2400000D01*
G75*
G02*
X83675000Y2150000I-250000J0D01*
G01*
G37*
D17*
X83000000Y5500000D03*
X83000000Y8000000D03*
X83000000Y10500000D03*
X83000000Y13000000D03*
G04 #@! TD*
D13*
G04 #@! TO.C,P4*
X62500000Y7500000D03*
G04 #@! TD*
G04 #@! TO.C,P5*
X43500000Y31500000D03*
G04 #@! TD*
D14*
G04 #@! TO.C,H2*
X1100000Y3500000D03*
X1802944Y5197056D03*
X1802944Y1802944D03*
X3500000Y5900000D03*
D15*
X3500000Y3500000D03*
D14*
X3500000Y1100000D03*
X5197056Y5197056D03*
X5197056Y1802944D03*
X5900000Y3500000D03*
G04 #@! TD*
D18*
G04 #@! TO.C,M3*
X49175000Y62675000D03*
X47975000Y62675000D03*
X50375000Y62675000D03*
X51575000Y62675000D03*
X45115000Y77100000D03*
X44115000Y77100000D03*
G04 #@! TD*
D19*
G04 #@! TO.C,J8*
X59250000Y3100000D03*
D20*
X57500000Y3900000D03*
X59250000Y4700000D03*
X57500000Y5500000D03*
X59250000Y6300000D03*
D21*
X58375000Y1050000D03*
X58375000Y8350000D03*
G04 #@! TD*
D16*
G04 #@! TO.C,F3*
X22500000Y19450000D03*
X22500000Y14550000D03*
G04 #@! TD*
D18*
G04 #@! TO.C,M2*
X79074999Y73025000D03*
X78124999Y73025000D03*
X77175001Y73025000D03*
X78174999Y81725000D03*
X79074999Y81725000D03*
G04 #@! TD*
D22*
G04 #@! TO.C,M1*
X40874995Y20824999D03*
X40874995Y14425002D03*
X40874995Y12524999D03*
X40874995Y8224999D03*
D18*
X41324994Y5825002D03*
X41324994Y4825001D03*
D22*
X40874995Y1974999D03*
X25374998Y21275001D03*
X25374998Y19425002D03*
X25374998Y14474999D03*
X25374998Y2425001D03*
G04 #@! TD*
D23*
G04 #@! TO.C,M7*
X31999999Y46975001D03*
X32524999Y47850003D03*
X33274997Y46674999D03*
X36824998Y46750002D03*
G04 #@! TD*
D11*
G04 #@! TO.C,J5*
X1975000Y41600000D03*
X1975000Y79400000D03*
G36*
G01*
X10874999Y40250000D02*
X7675001Y40250000D01*
G75*
G02*
X7425000Y40500001I0J250001D01*
G01*
X7425000Y42699999D01*
G75*
G02*
X7675001Y42950000I250001J0D01*
G01*
X10874999Y42950000D01*
G75*
G02*
X11125000Y42699999I0J-250001D01*
G01*
X11125000Y40500001D01*
G75*
G02*
X10874999Y40250000I-250001J0D01*
G01*
G37*
D24*
X9275000Y45800000D03*
X9275000Y50000000D03*
X9275000Y54200000D03*
X9275000Y58400000D03*
X9275000Y62600000D03*
X9275000Y66800000D03*
X9275000Y71000000D03*
X9275000Y75200000D03*
X9275000Y79400000D03*
X14775000Y41600000D03*
X14775000Y45800000D03*
X14775000Y50000000D03*
X14775000Y54200000D03*
X14775000Y58400000D03*
X14775000Y62600000D03*
X14775000Y66800000D03*
X14775000Y71000000D03*
X14775000Y75200000D03*
X14775000Y79400000D03*
G04 #@! TD*
D11*
G04 #@! TO.C,J3*
X98025000Y79200000D03*
X98025000Y70800000D03*
G36*
G01*
X89125001Y80550000D02*
X92324999Y80550000D01*
G75*
G02*
X92575000Y80299999I0J-250001D01*
G01*
X92575000Y78100001D01*
G75*
G02*
X92324999Y77850000I-250001J0D01*
G01*
X89125001Y77850000D01*
G75*
G02*
X88875000Y78100001I0J250001D01*
G01*
X88875000Y80299999D01*
G75*
G02*
X89125001Y80550000I250001J0D01*
G01*
G37*
D24*
X90725000Y75000000D03*
X90725000Y70800000D03*
X85225000Y79200000D03*
X85225000Y75000000D03*
X85225000Y70800000D03*
G04 #@! TD*
D16*
G04 #@! TO.C,F1*
X81500000Y79950000D03*
X81500000Y75050000D03*
G04 #@! TD*
D13*
G04 #@! TO.C,G3*
X39500000Y49960000D03*
X39500000Y52500000D03*
X39500000Y55040000D03*
X39500000Y57580000D03*
X39500000Y60120000D03*
X42040000Y49960000D03*
X42040000Y52500000D03*
X42040000Y55040000D03*
X42040000Y57580000D03*
X42040000Y60120000D03*
X44580000Y49960000D03*
X44580000Y52500000D03*
X44580000Y55040000D03*
X44580000Y57580000D03*
X44580000Y60120000D03*
G04 #@! TD*
G04 #@! TO.C,P3*
X62500000Y2500000D03*
G04 #@! TD*
D11*
G04 #@! TO.C,J4*
X1975000Y25800000D03*
X1975000Y34200000D03*
G36*
G01*
X10874999Y24450000D02*
X7675001Y24450000D01*
G75*
G02*
X7425000Y24700001I0J250001D01*
G01*
X7425000Y26899999D01*
G75*
G02*
X7675001Y27150000I250001J0D01*
G01*
X10874999Y27150000D01*
G75*
G02*
X11125000Y26899999I0J-250001D01*
G01*
X11125000Y24700001D01*
G75*
G02*
X10874999Y24450000I-250001J0D01*
G01*
G37*
D24*
X9275000Y30000000D03*
X9275000Y34200000D03*
X14775000Y25800000D03*
X14775000Y30000000D03*
X14775000Y34200000D03*
G04 #@! TD*
D25*
G04 #@! TO.C,J9*
X47110000Y6605000D03*
X52890000Y6605000D03*
D26*
X45680000Y7105000D03*
D27*
X45680000Y2925000D03*
D26*
X54320000Y7105000D03*
D27*
X54320000Y2925000D03*
G04 #@! TD*
D14*
G04 #@! TO.C,H3*
X94100000Y3500000D03*
X94802944Y5197056D03*
X94802944Y1802944D03*
X96500000Y5900000D03*
D15*
X96500000Y3500000D03*
D14*
X96500000Y1100000D03*
X98197056Y5197056D03*
X98197056Y1802944D03*
X98900000Y3500000D03*
G04 #@! TD*
D18*
G04 #@! TO.C,M4*
X38125000Y62675000D03*
X36925000Y62675000D03*
X39325000Y62675000D03*
X40525000Y62675000D03*
X34065000Y77100000D03*
X33065000Y77100000D03*
G04 #@! TD*
D16*
G04 #@! TO.C,F2*
X18550000Y22778024D03*
X23450000Y22778024D03*
G04 #@! TD*
D28*
G04 #@! TO.C,J6*
X98160000Y37500000D03*
D29*
X95620000Y37500000D03*
X93080000Y37500000D03*
X90540000Y37500000D03*
X88000000Y37500000D03*
X85460000Y37500000D03*
G04 #@! TD*
D13*
G04 #@! TO.C,P6*
X43500000Y4500000D03*
G04 #@! TD*
D30*
G04 #@! TO.C,U3*
X70603250Y74930000D03*
X70603250Y52070000D03*
D16*
X57903250Y69850000D03*
X57903250Y67310000D03*
X57903250Y64770000D03*
X57903250Y62230000D03*
X57903250Y59690000D03*
X57903250Y57150000D03*
G04 #@! TD*
D13*
G04 #@! TO.C,G4*
X47120000Y49960000D03*
X47120000Y52500000D03*
X47120000Y55040000D03*
X47120000Y57580000D03*
X47120000Y60120000D03*
X49660000Y49960000D03*
X49660000Y52500000D03*
X49660000Y55040000D03*
X49660000Y57580000D03*
X49660000Y60120000D03*
X52200000Y49960000D03*
X52200000Y52500000D03*
X52200000Y55040000D03*
X52200000Y57580000D03*
X52200000Y60120000D03*
G04 #@! TD*
G04 #@! TO.C,D8*
G36*
G01*
X56400000Y73237500D02*
X56700000Y73237500D01*
G75*
G02*
X56850000Y73087500I0J-150000D01*
G01*
X56850000Y71912500D01*
G75*
G02*
X56700000Y71762500I-150000J0D01*
G01*
X56400000Y71762500D01*
G75*
G02*
X56250000Y71912500I0J150000D01*
G01*
X56250000Y73087500D01*
G75*
G02*
X56400000Y73237500I150000J0D01*
G01*
G37*
G36*
G01*
X58300000Y73237500D02*
X58600000Y73237500D01*
G75*
G02*
X58750000Y73087500I0J-150000D01*
G01*
X58750000Y71912500D01*
G75*
G02*
X58600000Y71762500I-150000J0D01*
G01*
X58300000Y71762500D01*
G75*
G02*
X58150000Y71912500I0J150000D01*
G01*
X58150000Y73087500D01*
G75*
G02*
X58300000Y73237500I150000J0D01*
G01*
G37*
G36*
G01*
X57350000Y71362500D02*
X57650000Y71362500D01*
G75*
G02*
X57800000Y71212500I0J-150000D01*
G01*
X57800000Y70037500D01*
G75*
G02*
X57650000Y69887500I-150000J0D01*
G01*
X57350000Y69887500D01*
G75*
G02*
X57200000Y70037500I0J150000D01*
G01*
X57200000Y71212500D01*
G75*
G02*
X57350000Y71362500I150000J0D01*
G01*
G37*
G04 #@! TD*
G04 #@! TO.C,C10*
G36*
G01*
X12650000Y13460000D02*
X11600000Y13460000D01*
G75*
G02*
X11500000Y13560000I0J100000D01*
G01*
X11500000Y14360000D01*
G75*
G02*
X11600000Y14460000I100000J0D01*
G01*
X12650000Y14460000D01*
G75*
G02*
X12750000Y14360000I0J-100000D01*
G01*
X12750000Y13560000D01*
G75*
G02*
X12650000Y13460000I-100000J0D01*
G01*
G37*
G36*
G01*
X12650000Y15460000D02*
X11600000Y15460000D01*
G75*
G02*
X11500000Y15560000I0J100000D01*
G01*
X11500000Y16360000D01*
G75*
G02*
X11600000Y16460000I100000J0D01*
G01*
X12650000Y16460000D01*
G75*
G02*
X12750000Y16360000I0J-100000D01*
G01*
X12750000Y15560000D01*
G75*
G02*
X12650000Y15460000I-100000J0D01*
G01*
G37*
G04 #@! TD*
G04 #@! TO.C,D4*
G36*
G01*
X19510000Y75900000D02*
X18490000Y75900000D01*
G75*
G02*
X18400000Y75990000I0J90000D01*
G01*
X18400000Y76710000D01*
G75*
G02*
X18490000Y76800000I90000J0D01*
G01*
X19510000Y76800000D01*
G75*
G02*
X19600000Y76710000I0J-90000D01*
G01*
X19600000Y75990000D01*
G75*
G02*
X19510000Y75900000I-90000J0D01*
G01*
G37*
G36*
G01*
X19510000Y79200000D02*
X18490000Y79200000D01*
G75*
G02*
X18400000Y79290000I0J90000D01*
G01*
X18400000Y80010000D01*
G75*
G02*
X18490000Y80100000I90000J0D01*
G01*
X19510000Y80100000D01*
G75*
G02*
X19600000Y80010000I0J-90000D01*
G01*
X19600000Y79290000D01*
G75*
G02*
X19510000Y79200000I-90000J0D01*
G01*
G37*
G04 #@! TD*
D22*
G04 #@! TO.C,BT1*
X92000000Y21600142D03*
X92000000Y29100000D03*
D31*
X92000000Y17500048D03*
D32*
X92000000Y33500067D03*
G04 #@! TD*
G04 #@! TO.C,R31*
G36*
G01*
X5390000Y36850000D02*
X4610000Y36850000D01*
G75*
G02*
X4540000Y36920000I0J70000D01*
G01*
X4540000Y37480000D01*
G75*
G02*
X4610000Y37550000I70000J0D01*
G01*
X5390000Y37550000D01*
G75*
G02*
X5460000Y37480000I0J-70000D01*
G01*
X5460000Y36920000D01*
G75*
G02*
X5390000Y36850000I-70000J0D01*
G01*
G37*
G36*
G01*
X5390000Y38450000D02*
X4610000Y38450000D01*
G75*
G02*
X4540000Y38520000I0J70000D01*
G01*
X4540000Y39080000D01*
G75*
G02*
X4610000Y39150000I70000J0D01*
G01*
X5390000Y39150000D01*
G75*
G02*
X5460000Y39080000I0J-70000D01*
G01*
X5460000Y38520000D01*
G75*
G02*
X5390000Y38450000I-70000J0D01*
G01*
G37*
G04 #@! TD*
G04 #@! TO.C,C7*
G36*
G01*
X6650000Y13460000D02*
X5600000Y13460000D01*
G75*
G02*
X5500000Y13560000I0J100000D01*
G01*
X5500000Y14360000D01*
G75*
G02*
X5600000Y14460000I100000J0D01*
G01*
X6650000Y14460000D01*
G75*
G02*
X6750000Y14360000I0J-100000D01*
G01*
X6750000Y13560000D01*
G75*
G02*
X6650000Y13460000I-100000J0D01*
G01*
G37*
G36*
G01*
X6650000Y15460000D02*
X5600000Y15460000D01*
G75*
G02*
X5500000Y15560000I0J100000D01*
G01*
X5500000Y16360000D01*
G75*
G02*
X5600000Y16460000I100000J0D01*
G01*
X6650000Y16460000D01*
G75*
G02*
X6750000Y16360000I0J-100000D01*
G01*
X6750000Y15560000D01*
G75*
G02*
X6650000Y15460000I-100000J0D01*
G01*
G37*
G04 #@! TD*
G04 #@! TO.C,C33*
G36*
G01*
X96660000Y35215001D02*
X97340000Y35215001D01*
G75*
G02*
X97425000Y35130001I0J-85000D01*
G01*
X97425000Y34450001D01*
G75*
G02*
X97340000Y34365001I-85000J0D01*
G01*
X96660000Y34365001D01*
G75*
G02*
X96575000Y34450001I0J85000D01*
G01*
X96575000Y35130001D01*
G75*
G02*
X96660000Y35215001I85000J0D01*
G01*
G37*
G36*
G01*
X96660000Y33634999D02*
X97340000Y33634999D01*
G75*
G02*
X97425000Y33549999I0J-85000D01*
G01*
X97425000Y32869999D01*
G75*
G02*
X97340000Y32784999I-85000J0D01*
G01*
X96660000Y32784999D01*
G75*
G02*
X96575000Y32869999I0J85000D01*
G01*
X96575000Y33549999D01*
G75*
G02*
X96660000Y33634999I85000J0D01*
G01*
G37*
G04 #@! TD*
G04 #@! TO.C,C29*
G36*
G01*
X58260000Y74732500D02*
X58260000Y74392500D01*
G75*
G02*
X58120000Y74252500I-140000J0D01*
G01*
X57840000Y74252500D01*
G75*
G02*
X57700000Y74392500I0J140000D01*
G01*
X57700000Y74732500D01*
G75*
G02*
X57840000Y74872500I140000J0D01*
G01*
X58120000Y74872500D01*
G75*
G02*
X58260000Y74732500I0J-140000D01*
G01*
G37*
G36*
G01*
X57300000Y74732500D02*
X57300000Y74392500D01*
G75*
G02*
X57160000Y74252500I-140000J0D01*
G01*
X56880000Y74252500D01*
G75*
G02*
X56740000Y74392500I0J140000D01*
G01*
X56740000Y74732500D01*
G75*
G02*
X56880000Y74872500I140000J0D01*
G01*
X57160000Y74872500D01*
G75*
G02*
X57300000Y74732500I0J-140000D01*
G01*
G37*
G04 #@! TD*
G04 #@! TO.C,R34*
G36*
G01*
X7890000Y36850000D02*
X7110000Y36850000D01*
G75*
G02*
X7040000Y36920000I0J70000D01*
G01*
X7040000Y37480000D01*
G75*
G02*
X7110000Y37550000I70000J0D01*
G01*
X7890000Y37550000D01*
G75*
G02*
X7960000Y37480000I0J-70000D01*
G01*
X7960000Y36920000D01*
G75*
G02*
X7890000Y36850000I-70000J0D01*
G01*
G37*
G36*
G01*
X7890000Y38450000D02*
X7110000Y38450000D01*
G75*
G02*
X7040000Y38520000I0J70000D01*
G01*
X7040000Y39080000D01*
G75*
G02*
X7110000Y39150000I70000J0D01*
G01*
X7890000Y39150000D01*
G75*
G02*
X7960000Y39080000I0J-70000D01*
G01*
X7960000Y38520000D01*
G75*
G02*
X7890000Y38450000I-70000J0D01*
G01*
G37*
G04 #@! TD*
G04 #@! TO.C,R1*
G36*
G01*
X36944997Y79535000D02*
X36944997Y80315000D01*
G75*
G02*
X37014997Y80385000I70000J0D01*
G01*
X37574997Y80385000D01*
G75*
G02*
X37644997Y80315000I0J-70000D01*
G01*
X37644997Y79535000D01*
G75*
G02*
X37574997Y79465000I-70000J0D01*
G01*
X37014997Y79465000D01*
G75*
G02*
X36944997Y79535000I0J70000D01*
G01*
G37*
G36*
G01*
X38544997Y79535000D02*
X38544997Y80315000D01*
G75*
G02*
X38614997Y80385000I70000J0D01*
G01*
X39174997Y80385000D01*
G75*
G02*
X39244997Y80315000I0J-70000D01*
G01*
X39244997Y79535000D01*
G75*
G02*
X39174997Y79465000I-70000J0D01*
G01*
X38614997Y79465000D01*
G75*
G02*
X38544997Y79535000I0J70000D01*
G01*
G37*
G04 #@! TD*
G04 #@! TO.C,C17*
G36*
G01*
X16075000Y11000000D02*
X17125000Y11000000D01*
G75*
G02*
X17225000Y10900000I0J-100000D01*
G01*
X17225000Y10100000D01*
G75*
G02*
X17125000Y10000000I-100000J0D01*
G01*
X16075000Y10000000D01*
G75*
G02*
X15975000Y10100000I0J100000D01*
G01*
X15975000Y10900000D01*
G75*
G02*
X16075000Y11000000I100000J0D01*
G01*
G37*
G36*
G01*
X16075000Y9000000D02*
X17125000Y9000000D01*
G75*
G02*
X17225000Y8900000I0J-100000D01*
G01*
X17225000Y8100000D01*
G75*
G02*
X17125000Y8000000I-100000J0D01*
G01*
X16075000Y8000000D01*
G75*
G02*
X15975000Y8100000I0J100000D01*
G01*
X15975000Y8900000D01*
G75*
G02*
X16075000Y9000000I100000J0D01*
G01*
G37*
G04 #@! TD*
G04 #@! TO.C,R20*
G36*
G01*
X25262500Y63900000D02*
X25262500Y61050000D01*
G75*
G02*
X25012500Y60800000I-250000J0D01*
G01*
X24287500Y60800000D01*
G75*
G02*
X24037500Y61050000I0J250000D01*
G01*
X24037500Y63900000D01*
G75*
G02*
X24287500Y64150000I250000J0D01*
G01*
X25012500Y64150000D01*
G75*
G02*
X25262500Y63900000I0J-250000D01*
G01*
G37*
G36*
G01*
X19337500Y63900000D02*
X19337500Y61050000D01*
G75*
G02*
X19087500Y60800000I-250000J0D01*
G01*
X18362500Y60800000D01*
G75*
G02*
X18112500Y61050000I0J250000D01*
G01*
X18112500Y63900000D01*
G75*
G02*
X18362500Y64150000I250000J0D01*
G01*
X19087500Y64150000D01*
G75*
G02*
X19337500Y63900000I0J-250000D01*
G01*
G37*
G04 #@! TD*
G04 #@! TO.C,C3*
G36*
G01*
X7600000Y20460000D02*
X8650000Y20460000D01*
G75*
G02*
X8750000Y20360000I0J-100000D01*
G01*
X8750000Y19560000D01*
G75*
G02*
X8650000Y19460000I-100000J0D01*
G01*
X7600000Y19460000D01*
G75*
G02*
X7500000Y19560000I0J100000D01*
G01*
X7500000Y20360000D01*
G75*
G02*
X7600000Y20460000I100000J0D01*
G01*
G37*
G36*
G01*
X7600000Y18460000D02*
X8650000Y18460000D01*
G75*
G02*
X8750000Y18360000I0J-100000D01*
G01*
X8750000Y17560000D01*
G75*
G02*
X8650000Y17460000I-100000J0D01*
G01*
X7600000Y17460000D01*
G75*
G02*
X7500000Y17560000I0J100000D01*
G01*
X7500000Y18360000D01*
G75*
G02*
X7600000Y18460000I100000J0D01*
G01*
G37*
G04 #@! TD*
G04 #@! TO.C,C23*
G36*
G01*
X19125000Y4000000D02*
X18075000Y4000000D01*
G75*
G02*
X17975000Y4100000I0J100000D01*
G01*
X17975000Y4900000D01*
G75*
G02*
X18075000Y5000000I100000J0D01*
G01*
X19125000Y5000000D01*
G75*
G02*
X19225000Y4900000I0J-100000D01*
G01*
X19225000Y4100000D01*
G75*
G02*
X19125000Y4000000I-100000J0D01*
G01*
G37*
G36*
G01*
X19125000Y6000000D02*
X18075000Y6000000D01*
G75*
G02*
X17975000Y6100000I0J100000D01*
G01*
X17975000Y6900000D01*
G75*
G02*
X18075000Y7000000I100000J0D01*
G01*
X19125000Y7000000D01*
G75*
G02*
X19225000Y6900000I0J-100000D01*
G01*
X19225000Y6100000D01*
G75*
G02*
X19125000Y6000000I-100000J0D01*
G01*
G37*
G04 #@! TD*
G04 #@! TO.C,C1*
G36*
G01*
X3600000Y20460000D02*
X4650000Y20460000D01*
G75*
G02*
X4750000Y20360000I0J-100000D01*
G01*
X4750000Y19560000D01*
G75*
G02*
X4650000Y19460000I-100000J0D01*
G01*
X3600000Y19460000D01*
G75*
G02*
X3500000Y19560000I0J100000D01*
G01*
X3500000Y20360000D01*
G75*
G02*
X3600000Y20460000I100000J0D01*
G01*
G37*
G36*
G01*
X3600000Y18460000D02*
X4650000Y18460000D01*
G75*
G02*
X4750000Y18360000I0J-100000D01*
G01*
X4750000Y17560000D01*
G75*
G02*
X4650000Y17460000I-100000J0D01*
G01*
X3600000Y17460000D01*
G75*
G02*
X3500000Y17560000I0J100000D01*
G01*
X3500000Y18360000D01*
G75*
G02*
X3600000Y18460000I100000J0D01*
G01*
G37*
G04 #@! TD*
G04 #@! TO.C,R26*
G36*
G01*
X25262500Y42900000D02*
X25262500Y40050000D01*
G75*
G02*
X25012500Y39800000I-250000J0D01*
G01*
X24287500Y39800000D01*
G75*
G02*
X24037500Y40050000I0J250000D01*
G01*
X24037500Y42900000D01*
G75*
G02*
X24287500Y43150000I250000J0D01*
G01*
X25012500Y43150000D01*
G75*
G02*
X25262500Y42900000I0J-250000D01*
G01*
G37*
G36*
G01*
X19337500Y42900000D02*
X19337500Y40050000D01*
G75*
G02*
X19087500Y39800000I-250000J0D01*
G01*
X18362500Y39800000D01*
G75*
G02*
X18112500Y40050000I0J250000D01*
G01*
X18112500Y42900000D01*
G75*
G02*
X18362500Y43150000I250000J0D01*
G01*
X19087500Y43150000D01*
G75*
G02*
X19337500Y42900000I0J-250000D01*
G01*
G37*
G04 #@! TD*
D33*
G04 #@! TO.C,Q18*
X5800000Y44850000D03*
X3500000Y44850000D03*
X1200000Y44850000D03*
D34*
X3500000Y51150000D03*
G04 #@! TD*
G04 #@! TO.C,C14*
G36*
G01*
X10075000Y11000000D02*
X11125000Y11000000D01*
G75*
G02*
X11225000Y10900000I0J-100000D01*
G01*
X11225000Y10100000D01*
G75*
G02*
X11125000Y10000000I-100000J0D01*
G01*
X10075000Y10000000D01*
G75*
G02*
X9975000Y10100000I0J100000D01*
G01*
X9975000Y10900000D01*
G75*
G02*
X10075000Y11000000I100000J0D01*
G01*
G37*
G36*
G01*
X10075000Y9000000D02*
X11125000Y9000000D01*
G75*
G02*
X11225000Y8900000I0J-100000D01*
G01*
X11225000Y8100000D01*
G75*
G02*
X11125000Y8000000I-100000J0D01*
G01*
X10075000Y8000000D01*
G75*
G02*
X9975000Y8100000I0J100000D01*
G01*
X9975000Y8900000D01*
G75*
G02*
X10075000Y9000000I100000J0D01*
G01*
G37*
G04 #@! TD*
D33*
G04 #@! TO.C,Q15*
X5800000Y53850000D03*
X3500000Y53850000D03*
X1200000Y53850000D03*
D34*
X3500000Y60150000D03*
G04 #@! TD*
G04 #@! TO.C,C19*
G36*
G01*
X11125000Y4000000D02*
X10075000Y4000000D01*
G75*
G02*
X9975000Y4100000I0J100000D01*
G01*
X9975000Y4900000D01*
G75*
G02*
X10075000Y5000000I100000J0D01*
G01*
X11125000Y5000000D01*
G75*
G02*
X11225000Y4900000I0J-100000D01*
G01*
X11225000Y4100000D01*
G75*
G02*
X11125000Y4000000I-100000J0D01*
G01*
G37*
G36*
G01*
X11125000Y6000000D02*
X10075000Y6000000D01*
G75*
G02*
X9975000Y6100000I0J100000D01*
G01*
X9975000Y6900000D01*
G75*
G02*
X10075000Y7000000I100000J0D01*
G01*
X11125000Y7000000D01*
G75*
G02*
X11225000Y6900000I0J-100000D01*
G01*
X11225000Y6100000D01*
G75*
G02*
X11125000Y6000000I-100000J0D01*
G01*
G37*
G04 #@! TD*
G04 #@! TO.C,R27*
G36*
G01*
X25262500Y35900000D02*
X25262500Y33050000D01*
G75*
G02*
X25012500Y32800000I-250000J0D01*
G01*
X24287500Y32800000D01*
G75*
G02*
X24037500Y33050000I0J250000D01*
G01*
X24037500Y35900000D01*
G75*
G02*
X24287500Y36150000I250000J0D01*
G01*
X25012500Y36150000D01*
G75*
G02*
X25262500Y35900000I0J-250000D01*
G01*
G37*
G36*
G01*
X19337500Y35900000D02*
X19337500Y33050000D01*
G75*
G02*
X19087500Y32800000I-250000J0D01*
G01*
X18362500Y32800000D01*
G75*
G02*
X18112500Y33050000I0J250000D01*
G01*
X18112500Y35900000D01*
G75*
G02*
X18362500Y36150000I250000J0D01*
G01*
X19087500Y36150000D01*
G75*
G02*
X19337500Y35900000I0J-250000D01*
G01*
G37*
G04 #@! TD*
G04 #@! TO.C,R21*
G36*
G01*
X25262500Y56900000D02*
X25262500Y54050000D01*
G75*
G02*
X25012500Y53800000I-250000J0D01*
G01*
X24287500Y53800000D01*
G75*
G02*
X24037500Y54050000I0J250000D01*
G01*
X24037500Y56900000D01*
G75*
G02*
X24287500Y57150000I250000J0D01*
G01*
X25012500Y57150000D01*
G75*
G02*
X25262500Y56900000I0J-250000D01*
G01*
G37*
G36*
G01*
X19337500Y56900000D02*
X19337500Y54050000D01*
G75*
G02*
X19087500Y53800000I-250000J0D01*
G01*
X18362500Y53800000D01*
G75*
G02*
X18112500Y54050000I0J250000D01*
G01*
X18112500Y56900000D01*
G75*
G02*
X18362500Y57150000I250000J0D01*
G01*
X19087500Y57150000D01*
G75*
G02*
X19337500Y56900000I0J-250000D01*
G01*
G37*
G04 #@! TD*
G04 #@! TO.C,C4*
G36*
G01*
X9600000Y20460000D02*
X10650000Y20460000D01*
G75*
G02*
X10750000Y20360000I0J-100000D01*
G01*
X10750000Y19560000D01*
G75*
G02*
X10650000Y19460000I-100000J0D01*
G01*
X9600000Y19460000D01*
G75*
G02*
X9500000Y19560000I0J100000D01*
G01*
X9500000Y20360000D01*
G75*
G02*
X9600000Y20460000I100000J0D01*
G01*
G37*
G36*
G01*
X9600000Y18460000D02*
X10650000Y18460000D01*
G75*
G02*
X10750000Y18360000I0J-100000D01*
G01*
X10750000Y17560000D01*
G75*
G02*
X10650000Y17460000I-100000J0D01*
G01*
X9600000Y17460000D01*
G75*
G02*
X9500000Y17560000I0J100000D01*
G01*
X9500000Y18360000D01*
G75*
G02*
X9600000Y18460000I100000J0D01*
G01*
G37*
G04 #@! TD*
G04 #@! TO.C,R10*
G36*
G01*
X18350000Y66610000D02*
X18350000Y67390000D01*
G75*
G02*
X18420000Y67460000I70000J0D01*
G01*
X18980000Y67460000D01*
G75*
G02*
X19050000Y67390000I0J-70000D01*
G01*
X19050000Y66610000D01*
G75*
G02*
X18980000Y66540000I-70000J0D01*
G01*
X18420000Y66540000D01*
G75*
G02*
X18350000Y66610000I0J70000D01*
G01*
G37*
G36*
G01*
X19950000Y66610000D02*
X19950000Y67390000D01*
G75*
G02*
X20020000Y67460000I70000J0D01*
G01*
X20580000Y67460000D01*
G75*
G02*
X20650000Y67390000I0J-70000D01*
G01*
X20650000Y66610000D01*
G75*
G02*
X20580000Y66540000I-70000J0D01*
G01*
X20020000Y66540000D01*
G75*
G02*
X19950000Y66610000I0J70000D01*
G01*
G37*
G04 #@! TD*
G04 #@! TO.C,D2*
G36*
G01*
X19510000Y68400000D02*
X18490000Y68400000D01*
G75*
G02*
X18400000Y68490000I0J90000D01*
G01*
X18400000Y69210000D01*
G75*
G02*
X18490000Y69300000I90000J0D01*
G01*
X19510000Y69300000D01*
G75*
G02*
X19600000Y69210000I0J-90000D01*
G01*
X19600000Y68490000D01*
G75*
G02*
X19510000Y68400000I-90000J0D01*
G01*
G37*
G36*
G01*
X19510000Y71700000D02*
X18490000Y71700000D01*
G75*
G02*
X18400000Y71790000I0J90000D01*
G01*
X18400000Y72510000D01*
G75*
G02*
X18490000Y72600000I90000J0D01*
G01*
X19510000Y72600000D01*
G75*
G02*
X19600000Y72510000I0J-90000D01*
G01*
X19600000Y71790000D01*
G75*
G02*
X19510000Y71700000I-90000J0D01*
G01*
G37*
G04 #@! TD*
G04 #@! TO.C,D1*
G36*
G01*
X87140000Y15700000D02*
X86660000Y15700000D01*
G75*
G02*
X86600000Y15760000I0J60000D01*
G01*
X86600000Y16240000D01*
G75*
G02*
X86660000Y16300000I60000J0D01*
G01*
X87140000Y16300000D01*
G75*
G02*
X87200000Y16240000I0J-60000D01*
G01*
X87200000Y15760000D01*
G75*
G02*
X87140000Y15700000I-60000J0D01*
G01*
G37*
G36*
G01*
X89340000Y15700000D02*
X88860000Y15700000D01*
G75*
G02*
X88800000Y15760000I0J60000D01*
G01*
X88800000Y16240000D01*
G75*
G02*
X88860000Y16300000I60000J0D01*
G01*
X89340000Y16300000D01*
G75*
G02*
X89400000Y16240000I0J-60000D01*
G01*
X89400000Y15760000D01*
G75*
G02*
X89340000Y15700000I-60000J0D01*
G01*
G37*
G04 #@! TD*
G04 #@! TO.C,R19*
G36*
G01*
X28375000Y48865000D02*
X28375000Y48085000D01*
G75*
G02*
X28305000Y48015000I-70000J0D01*
G01*
X27745000Y48015000D01*
G75*
G02*
X27675000Y48085000I0J70000D01*
G01*
X27675000Y48865000D01*
G75*
G02*
X27745000Y48935000I70000J0D01*
G01*
X28305000Y48935000D01*
G75*
G02*
X28375000Y48865000I0J-70000D01*
G01*
G37*
G36*
G01*
X26775000Y48865000D02*
X26775000Y48085000D01*
G75*
G02*
X26705000Y48015000I-70000J0D01*
G01*
X26145000Y48015000D01*
G75*
G02*
X26075000Y48085000I0J70000D01*
G01*
X26075000Y48865000D01*
G75*
G02*
X26145000Y48935000I70000J0D01*
G01*
X26705000Y48935000D01*
G75*
G02*
X26775000Y48865000I0J-70000D01*
G01*
G37*
G04 #@! TD*
G04 #@! TO.C,R33*
G36*
G01*
X31610000Y29150000D02*
X32390000Y29150000D01*
G75*
G02*
X32460000Y29080000I0J-70000D01*
G01*
X32460000Y28520000D01*
G75*
G02*
X32390000Y28450000I-70000J0D01*
G01*
X31610000Y28450000D01*
G75*
G02*
X31540000Y28520000I0J70000D01*
G01*
X31540000Y29080000D01*
G75*
G02*
X31610000Y29150000I70000J0D01*
G01*
G37*
G36*
G01*
X31610000Y27550000D02*
X32390000Y27550000D01*
G75*
G02*
X32460000Y27480000I0J-70000D01*
G01*
X32460000Y26920000D01*
G75*
G02*
X32390000Y26850000I-70000J0D01*
G01*
X31610000Y26850000D01*
G75*
G02*
X31540000Y26920000I0J70000D01*
G01*
X31540000Y27480000D01*
G75*
G02*
X31610000Y27550000I70000J0D01*
G01*
G37*
G04 #@! TD*
G04 #@! TO.C,C21*
G36*
G01*
X15125000Y4000000D02*
X14075000Y4000000D01*
G75*
G02*
X13975000Y4100000I0J100000D01*
G01*
X13975000Y4900000D01*
G75*
G02*
X14075000Y5000000I100000J0D01*
G01*
X15125000Y5000000D01*
G75*
G02*
X15225000Y4900000I0J-100000D01*
G01*
X15225000Y4100000D01*
G75*
G02*
X15125000Y4000000I-100000J0D01*
G01*
G37*
G36*
G01*
X15125000Y6000000D02*
X14075000Y6000000D01*
G75*
G02*
X13975000Y6100000I0J100000D01*
G01*
X13975000Y6900000D01*
G75*
G02*
X14075000Y7000000I100000J0D01*
G01*
X15125000Y7000000D01*
G75*
G02*
X15225000Y6900000I0J-100000D01*
G01*
X15225000Y6100000D01*
G75*
G02*
X15125000Y6000000I-100000J0D01*
G01*
G37*
G04 #@! TD*
G04 #@! TO.C,D6*
G36*
G01*
X4900000Y78675000D02*
X5200000Y78675000D01*
G75*
G02*
X5350000Y78525000I0J-150000D01*
G01*
X5350000Y77350000D01*
G75*
G02*
X5200000Y77200000I-150000J0D01*
G01*
X4900000Y77200000D01*
G75*
G02*
X4750000Y77350000I0J150000D01*
G01*
X4750000Y78525000D01*
G75*
G02*
X4900000Y78675000I150000J0D01*
G01*
G37*
G36*
G01*
X5850000Y76800000D02*
X6150000Y76800000D01*
G75*
G02*
X6300000Y76650000I0J-150000D01*
G01*
X6300000Y75475000D01*
G75*
G02*
X6150000Y75325000I-150000J0D01*
G01*
X5850000Y75325000D01*
G75*
G02*
X5700000Y75475000I0J150000D01*
G01*
X5700000Y76650000D01*
G75*
G02*
X5850000Y76800000I150000J0D01*
G01*
G37*
G36*
G01*
X6800000Y78675000D02*
X7100000Y78675000D01*
G75*
G02*
X7250000Y78525000I0J-150000D01*
G01*
X7250000Y77350000D01*
G75*
G02*
X7100000Y77200000I-150000J0D01*
G01*
X6800000Y77200000D01*
G75*
G02*
X6650000Y77350000I0J150000D01*
G01*
X6650000Y78525000D01*
G75*
G02*
X6800000Y78675000I150000J0D01*
G01*
G37*
G04 #@! TD*
G04 #@! TO.C,R23*
G36*
G01*
X28375000Y41865000D02*
X28375000Y41085000D01*
G75*
G02*
X28305000Y41015000I-70000J0D01*
G01*
X27745000Y41015000D01*
G75*
G02*
X27675000Y41085000I0J70000D01*
G01*
X27675000Y41865000D01*
G75*
G02*
X27745000Y41935000I70000J0D01*
G01*
X28305000Y41935000D01*
G75*
G02*
X28375000Y41865000I0J-70000D01*
G01*
G37*
G36*
G01*
X26775000Y41865000D02*
X26775000Y41085000D01*
G75*
G02*
X26705000Y41015000I-70000J0D01*
G01*
X26145000Y41015000D01*
G75*
G02*
X26075000Y41085000I0J70000D01*
G01*
X26075000Y41865000D01*
G75*
G02*
X26145000Y41935000I70000J0D01*
G01*
X26705000Y41935000D01*
G75*
G02*
X26775000Y41865000I0J-70000D01*
G01*
G37*
G04 #@! TD*
G04 #@! TO.C,Q6*
G36*
G01*
X325000Y71400000D02*
X325000Y71700000D01*
G75*
G02*
X475000Y71850000I150000J0D01*
G01*
X1650000Y71850000D01*
G75*
G02*
X1800000Y71700000I0J-150000D01*
G01*
X1800000Y71400000D01*
G75*
G02*
X1650000Y71250000I-150000J0D01*
G01*
X475000Y71250000D01*
G75*
G02*
X325000Y71400000I0J150000D01*
G01*
G37*
G36*
G01*
X2200000Y72350000D02*
X2200000Y72650000D01*
G75*
G02*
X2350000Y72800000I150000J0D01*
G01*
X3525000Y72800000D01*
G75*
G02*
X3675000Y72650000I0J-150000D01*
G01*
X3675000Y72350000D01*
G75*
G02*
X3525000Y72200000I-150000J0D01*
G01*
X2350000Y72200000D01*
G75*
G02*
X2200000Y72350000I0J150000D01*
G01*
G37*
G36*
G01*
X325000Y73300000D02*
X325000Y73600000D01*
G75*
G02*
X475000Y73750000I150000J0D01*
G01*
X1650000Y73750000D01*
G75*
G02*
X1800000Y73600000I0J-150000D01*
G01*
X1800000Y73300000D01*
G75*
G02*
X1650000Y73150000I-150000J0D01*
G01*
X475000Y73150000D01*
G75*
G02*
X325000Y73300000I0J150000D01*
G01*
G37*
G04 #@! TD*
G04 #@! TO.C,R7*
G36*
G01*
X49390000Y3228318D02*
X48610000Y3228318D01*
G75*
G02*
X48540000Y3298318I0J70000D01*
G01*
X48540000Y3858318D01*
G75*
G02*
X48610000Y3928318I70000J0D01*
G01*
X49390000Y3928318D01*
G75*
G02*
X49460000Y3858318I0J-70000D01*
G01*
X49460000Y3298318D01*
G75*
G02*
X49390000Y3228318I-70000J0D01*
G01*
G37*
G36*
G01*
X49390000Y4828318D02*
X48610000Y4828318D01*
G75*
G02*
X48540000Y4898318I0J70000D01*
G01*
X48540000Y5458318D01*
G75*
G02*
X48610000Y5528318I70000J0D01*
G01*
X49390000Y5528318D01*
G75*
G02*
X49460000Y5458318I0J-70000D01*
G01*
X49460000Y4898318D01*
G75*
G02*
X49390000Y4828318I-70000J0D01*
G01*
G37*
G04 #@! TD*
G04 #@! TO.C,R24*
G36*
G01*
X28375000Y34865000D02*
X28375000Y34085000D01*
G75*
G02*
X28305000Y34015000I-70000J0D01*
G01*
X27745000Y34015000D01*
G75*
G02*
X27675000Y34085000I0J70000D01*
G01*
X27675000Y34865000D01*
G75*
G02*
X27745000Y34935000I70000J0D01*
G01*
X28305000Y34935000D01*
G75*
G02*
X28375000Y34865000I0J-70000D01*
G01*
G37*
G36*
G01*
X26775000Y34865000D02*
X26775000Y34085000D01*
G75*
G02*
X26705000Y34015000I-70000J0D01*
G01*
X26145000Y34015000D01*
G75*
G02*
X26075000Y34085000I0J70000D01*
G01*
X26075000Y34865000D01*
G75*
G02*
X26145000Y34935000I70000J0D01*
G01*
X26705000Y34935000D01*
G75*
G02*
X26775000Y34865000I0J-70000D01*
G01*
G37*
G04 #@! TD*
G04 #@! TO.C,R16*
G36*
G01*
X4390000Y80650000D02*
X3610000Y80650000D01*
G75*
G02*
X3540000Y80720000I0J70000D01*
G01*
X3540000Y81280000D01*
G75*
G02*
X3610000Y81350000I70000J0D01*
G01*
X4390000Y81350000D01*
G75*
G02*
X4460000Y81280000I0J-70000D01*
G01*
X4460000Y80720000D01*
G75*
G02*
X4390000Y80650000I-70000J0D01*
G01*
G37*
G36*
G01*
X4390000Y82250000D02*
X3610000Y82250000D01*
G75*
G02*
X3540000Y82320000I0J70000D01*
G01*
X3540000Y82880000D01*
G75*
G02*
X3610000Y82950000I70000J0D01*
G01*
X4390000Y82950000D01*
G75*
G02*
X4460000Y82880000I0J-70000D01*
G01*
X4460000Y82320000D01*
G75*
G02*
X4390000Y82250000I-70000J0D01*
G01*
G37*
G04 #@! TD*
D35*
G04 #@! TO.C,Q1*
X22850000Y67700000D03*
X22850000Y70000000D03*
X22850000Y72300000D03*
D36*
X29150000Y70000000D03*
G04 #@! TD*
G04 #@! TO.C,R30*
G36*
G01*
X36890000Y29850000D02*
X36110000Y29850000D01*
G75*
G02*
X36040000Y29920000I0J70000D01*
G01*
X36040000Y30480000D01*
G75*
G02*
X36110000Y30550000I70000J0D01*
G01*
X36890000Y30550000D01*
G75*
G02*
X36960000Y30480000I0J-70000D01*
G01*
X36960000Y29920000D01*
G75*
G02*
X36890000Y29850000I-70000J0D01*
G01*
G37*
G36*
G01*
X36890000Y31450000D02*
X36110000Y31450000D01*
G75*
G02*
X36040000Y31520000I0J70000D01*
G01*
X36040000Y32080000D01*
G75*
G02*
X36110000Y32150000I70000J0D01*
G01*
X36890000Y32150000D01*
G75*
G02*
X36960000Y32080000I0J-70000D01*
G01*
X36960000Y31520000D01*
G75*
G02*
X36890000Y31450000I-70000J0D01*
G01*
G37*
G04 #@! TD*
G04 #@! TO.C,R22*
G36*
G01*
X25262500Y49900000D02*
X25262500Y47050000D01*
G75*
G02*
X25012500Y46800000I-250000J0D01*
G01*
X24287500Y46800000D01*
G75*
G02*
X24037500Y47050000I0J250000D01*
G01*
X24037500Y49900000D01*
G75*
G02*
X24287500Y50150000I250000J0D01*
G01*
X25012500Y50150000D01*
G75*
G02*
X25262500Y49900000I0J-250000D01*
G01*
G37*
G36*
G01*
X19337500Y49900000D02*
X19337500Y47050000D01*
G75*
G02*
X19087500Y46800000I-250000J0D01*
G01*
X18362500Y46800000D01*
G75*
G02*
X18112500Y47050000I0J250000D01*
G01*
X18112500Y49900000D01*
G75*
G02*
X18362500Y50150000I250000J0D01*
G01*
X19087500Y50150000D01*
G75*
G02*
X19337500Y49900000I0J-250000D01*
G01*
G37*
G04 #@! TD*
G04 #@! TO.C,R25*
G36*
G01*
X28375000Y27865000D02*
X28375000Y27085000D01*
G75*
G02*
X28305000Y27015000I-70000J0D01*
G01*
X27745000Y27015000D01*
G75*
G02*
X27675000Y27085000I0J70000D01*
G01*
X27675000Y27865000D01*
G75*
G02*
X27745000Y27935000I70000J0D01*
G01*
X28305000Y27935000D01*
G75*
G02*
X28375000Y27865000I0J-70000D01*
G01*
G37*
G36*
G01*
X26775000Y27865000D02*
X26775000Y27085000D01*
G75*
G02*
X26705000Y27015000I-70000J0D01*
G01*
X26145000Y27015000D01*
G75*
G02*
X26075000Y27085000I0J70000D01*
G01*
X26075000Y27865000D01*
G75*
G02*
X26145000Y27935000I70000J0D01*
G01*
X26705000Y27935000D01*
G75*
G02*
X26775000Y27865000I0J-70000D01*
G01*
G37*
G04 #@! TD*
G04 #@! TO.C,C16*
G36*
G01*
X14075000Y11000000D02*
X15125000Y11000000D01*
G75*
G02*
X15225000Y10900000I0J-100000D01*
G01*
X15225000Y10100000D01*
G75*
G02*
X15125000Y10000000I-100000J0D01*
G01*
X14075000Y10000000D01*
G75*
G02*
X13975000Y10100000I0J100000D01*
G01*
X13975000Y10900000D01*
G75*
G02*
X14075000Y11000000I100000J0D01*
G01*
G37*
G36*
G01*
X14075000Y9000000D02*
X15125000Y9000000D01*
G75*
G02*
X15225000Y8900000I0J-100000D01*
G01*
X15225000Y8100000D01*
G75*
G02*
X15125000Y8000000I-100000J0D01*
G01*
X14075000Y8000000D01*
G75*
G02*
X13975000Y8100000I0J100000D01*
G01*
X13975000Y8900000D01*
G75*
G02*
X14075000Y9000000I100000J0D01*
G01*
G37*
G04 #@! TD*
G04 #@! TO.C,R17*
G36*
G01*
X28375000Y62865000D02*
X28375000Y62085000D01*
G75*
G02*
X28305000Y62015000I-70000J0D01*
G01*
X27745000Y62015000D01*
G75*
G02*
X27675000Y62085000I0J70000D01*
G01*
X27675000Y62865000D01*
G75*
G02*
X27745000Y62935000I70000J0D01*
G01*
X28305000Y62935000D01*
G75*
G02*
X28375000Y62865000I0J-70000D01*
G01*
G37*
G36*
G01*
X26775000Y62865000D02*
X26775000Y62085000D01*
G75*
G02*
X26705000Y62015000I-70000J0D01*
G01*
X26145000Y62015000D01*
G75*
G02*
X26075000Y62085000I0J70000D01*
G01*
X26075000Y62865000D01*
G75*
G02*
X26145000Y62935000I70000J0D01*
G01*
X26705000Y62935000D01*
G75*
G02*
X26775000Y62865000I0J-70000D01*
G01*
G37*
G04 #@! TD*
G04 #@! TO.C,C22*
G36*
G01*
X17125000Y4000000D02*
X16075000Y4000000D01*
G75*
G02*
X15975000Y4100000I0J100000D01*
G01*
X15975000Y4900000D01*
G75*
G02*
X16075000Y5000000I100000J0D01*
G01*
X17125000Y5000000D01*
G75*
G02*
X17225000Y4900000I0J-100000D01*
G01*
X17225000Y4100000D01*
G75*
G02*
X17125000Y4000000I-100000J0D01*
G01*
G37*
G36*
G01*
X17125000Y6000000D02*
X16075000Y6000000D01*
G75*
G02*
X15975000Y6100000I0J100000D01*
G01*
X15975000Y6900000D01*
G75*
G02*
X16075000Y7000000I100000J0D01*
G01*
X17125000Y7000000D01*
G75*
G02*
X17225000Y6900000I0J-100000D01*
G01*
X17225000Y6100000D01*
G75*
G02*
X17125000Y6000000I-100000J0D01*
G01*
G37*
G04 #@! TD*
G04 #@! TO.C,R8*
G36*
G01*
X51890000Y3228318D02*
X51110000Y3228318D01*
G75*
G02*
X51040000Y3298318I0J70000D01*
G01*
X51040000Y3858318D01*
G75*
G02*
X51110000Y3928318I70000J0D01*
G01*
X51890000Y3928318D01*
G75*
G02*
X51960000Y3858318I0J-70000D01*
G01*
X51960000Y3298318D01*
G75*
G02*
X51890000Y3228318I-70000J0D01*
G01*
G37*
G36*
G01*
X51890000Y4828318D02*
X51110000Y4828318D01*
G75*
G02*
X51040000Y4898318I0J70000D01*
G01*
X51040000Y5458318D01*
G75*
G02*
X51110000Y5528318I70000J0D01*
G01*
X51890000Y5528318D01*
G75*
G02*
X51960000Y5458318I0J-70000D01*
G01*
X51960000Y4898318D01*
G75*
G02*
X51890000Y4828318I-70000J0D01*
G01*
G37*
G04 #@! TD*
G04 #@! TO.C,R3*
G36*
G01*
X16390000Y16850000D02*
X15610000Y16850000D01*
G75*
G02*
X15540000Y16920000I0J70000D01*
G01*
X15540000Y17480000D01*
G75*
G02*
X15610000Y17550000I70000J0D01*
G01*
X16390000Y17550000D01*
G75*
G02*
X16460000Y17480000I0J-70000D01*
G01*
X16460000Y16920000D01*
G75*
G02*
X16390000Y16850000I-70000J0D01*
G01*
G37*
G36*
G01*
X16390000Y18450000D02*
X15610000Y18450000D01*
G75*
G02*
X15540000Y18520000I0J70000D01*
G01*
X15540000Y19080000D01*
G75*
G02*
X15610000Y19150000I70000J0D01*
G01*
X16390000Y19150000D01*
G75*
G02*
X16460000Y19080000I0J-70000D01*
G01*
X16460000Y18520000D01*
G75*
G02*
X16390000Y18450000I-70000J0D01*
G01*
G37*
G04 #@! TD*
G04 #@! TO.C,R15*
G36*
G01*
X6890000Y80650000D02*
X6110000Y80650000D01*
G75*
G02*
X6040000Y80720000I0J70000D01*
G01*
X6040000Y81280000D01*
G75*
G02*
X6110000Y81350000I70000J0D01*
G01*
X6890000Y81350000D01*
G75*
G02*
X6960000Y81280000I0J-70000D01*
G01*
X6960000Y80720000D01*
G75*
G02*
X6890000Y80650000I-70000J0D01*
G01*
G37*
G36*
G01*
X6890000Y82250000D02*
X6110000Y82250000D01*
G75*
G02*
X6040000Y82320000I0J70000D01*
G01*
X6040000Y82880000D01*
G75*
G02*
X6110000Y82950000I70000J0D01*
G01*
X6890000Y82950000D01*
G75*
G02*
X6960000Y82880000I0J-70000D01*
G01*
X6960000Y82320000D01*
G75*
G02*
X6890000Y82250000I-70000J0D01*
G01*
G37*
G04 #@! TD*
D35*
G04 #@! TO.C,Q3*
X22850000Y75200000D03*
X22850000Y77500000D03*
X22850000Y79800000D03*
D36*
X29150000Y77500000D03*
G04 #@! TD*
G04 #@! TO.C,Q5*
G36*
G01*
X325000Y74900000D02*
X325000Y75200000D01*
G75*
G02*
X475000Y75350000I150000J0D01*
G01*
X1650000Y75350000D01*
G75*
G02*
X1800000Y75200000I0J-150000D01*
G01*
X1800000Y74900000D01*
G75*
G02*
X1650000Y74750000I-150000J0D01*
G01*
X475000Y74750000D01*
G75*
G02*
X325000Y74900000I0J150000D01*
G01*
G37*
G36*
G01*
X2200000Y75850000D02*
X2200000Y76150000D01*
G75*
G02*
X2350000Y76300000I150000J0D01*
G01*
X3525000Y76300000D01*
G75*
G02*
X3675000Y76150000I0J-150000D01*
G01*
X3675000Y75850000D01*
G75*
G02*
X3525000Y75700000I-150000J0D01*
G01*
X2350000Y75700000D01*
G75*
G02*
X2200000Y75850000I0J150000D01*
G01*
G37*
G36*
G01*
X325000Y76800000D02*
X325000Y77100000D01*
G75*
G02*
X475000Y77250000I150000J0D01*
G01*
X1650000Y77250000D01*
G75*
G02*
X1800000Y77100000I0J-150000D01*
G01*
X1800000Y76800000D01*
G75*
G02*
X1650000Y76650000I-150000J0D01*
G01*
X475000Y76650000D01*
G75*
G02*
X325000Y76800000I0J150000D01*
G01*
G37*
G04 #@! TD*
G04 #@! TO.C,C5*
G36*
G01*
X11600000Y20460000D02*
X12650000Y20460000D01*
G75*
G02*
X12750000Y20360000I0J-100000D01*
G01*
X12750000Y19560000D01*
G75*
G02*
X12650000Y19460000I-100000J0D01*
G01*
X11600000Y19460000D01*
G75*
G02*
X11500000Y19560000I0J100000D01*
G01*
X11500000Y20360000D01*
G75*
G02*
X11600000Y20460000I100000J0D01*
G01*
G37*
G36*
G01*
X11600000Y18460000D02*
X12650000Y18460000D01*
G75*
G02*
X12750000Y18360000I0J-100000D01*
G01*
X12750000Y17560000D01*
G75*
G02*
X12650000Y17460000I-100000J0D01*
G01*
X11600000Y17460000D01*
G75*
G02*
X11500000Y17560000I0J100000D01*
G01*
X11500000Y18360000D01*
G75*
G02*
X11600000Y18460000I100000J0D01*
G01*
G37*
G04 #@! TD*
G04 #@! TO.C,R32*
G36*
G01*
X32390000Y29850000D02*
X31610000Y29850000D01*
G75*
G02*
X31540000Y29920000I0J70000D01*
G01*
X31540000Y30480000D01*
G75*
G02*
X31610000Y30550000I70000J0D01*
G01*
X32390000Y30550000D01*
G75*
G02*
X32460000Y30480000I0J-70000D01*
G01*
X32460000Y29920000D01*
G75*
G02*
X32390000Y29850000I-70000J0D01*
G01*
G37*
G36*
G01*
X32390000Y31450000D02*
X31610000Y31450000D01*
G75*
G02*
X31540000Y31520000I0J70000D01*
G01*
X31540000Y32080000D01*
G75*
G02*
X31610000Y32150000I70000J0D01*
G01*
X32390000Y32150000D01*
G75*
G02*
X32460000Y32080000I0J-70000D01*
G01*
X32460000Y31520000D01*
G75*
G02*
X32390000Y31450000I-70000J0D01*
G01*
G37*
G04 #@! TD*
G04 #@! TO.C,R29*
G36*
G01*
X2890000Y36850000D02*
X2110000Y36850000D01*
G75*
G02*
X2040000Y36920000I0J70000D01*
G01*
X2040000Y37480000D01*
G75*
G02*
X2110000Y37550000I70000J0D01*
G01*
X2890000Y37550000D01*
G75*
G02*
X2960000Y37480000I0J-70000D01*
G01*
X2960000Y36920000D01*
G75*
G02*
X2890000Y36850000I-70000J0D01*
G01*
G37*
G36*
G01*
X2890000Y38450000D02*
X2110000Y38450000D01*
G75*
G02*
X2040000Y38520000I0J70000D01*
G01*
X2040000Y39080000D01*
G75*
G02*
X2110000Y39150000I70000J0D01*
G01*
X2890000Y39150000D01*
G75*
G02*
X2960000Y39080000I0J-70000D01*
G01*
X2960000Y38520000D01*
G75*
G02*
X2890000Y38450000I-70000J0D01*
G01*
G37*
G04 #@! TD*
G04 #@! TO.C,R18*
G36*
G01*
X28375000Y55865000D02*
X28375000Y55085000D01*
G75*
G02*
X28305000Y55015000I-70000J0D01*
G01*
X27745000Y55015000D01*
G75*
G02*
X27675000Y55085000I0J70000D01*
G01*
X27675000Y55865000D01*
G75*
G02*
X27745000Y55935000I70000J0D01*
G01*
X28305000Y55935000D01*
G75*
G02*
X28375000Y55865000I0J-70000D01*
G01*
G37*
G36*
G01*
X26775000Y55865000D02*
X26775000Y55085000D01*
G75*
G02*
X26705000Y55015000I-70000J0D01*
G01*
X26145000Y55015000D01*
G75*
G02*
X26075000Y55085000I0J70000D01*
G01*
X26075000Y55865000D01*
G75*
G02*
X26145000Y55935000I70000J0D01*
G01*
X26705000Y55935000D01*
G75*
G02*
X26775000Y55865000I0J-70000D01*
G01*
G37*
G04 #@! TD*
G04 #@! TO.C,C15*
G36*
G01*
X12075000Y11000000D02*
X13125000Y11000000D01*
G75*
G02*
X13225000Y10900000I0J-100000D01*
G01*
X13225000Y10100000D01*
G75*
G02*
X13125000Y10000000I-100000J0D01*
G01*
X12075000Y10000000D01*
G75*
G02*
X11975000Y10100000I0J100000D01*
G01*
X11975000Y10900000D01*
G75*
G02*
X12075000Y11000000I100000J0D01*
G01*
G37*
G36*
G01*
X12075000Y9000000D02*
X13125000Y9000000D01*
G75*
G02*
X13225000Y8900000I0J-100000D01*
G01*
X13225000Y8100000D01*
G75*
G02*
X13125000Y8000000I-100000J0D01*
G01*
X12075000Y8000000D01*
G75*
G02*
X11975000Y8100000I0J100000D01*
G01*
X11975000Y8900000D01*
G75*
G02*
X12075000Y9000000I100000J0D01*
G01*
G37*
G04 #@! TD*
G04 #@! TO.C,R28*
G36*
G01*
X25262500Y28900000D02*
X25262500Y26050000D01*
G75*
G02*
X25012500Y25800000I-250000J0D01*
G01*
X24287500Y25800000D01*
G75*
G02*
X24037500Y26050000I0J250000D01*
G01*
X24037500Y28900000D01*
G75*
G02*
X24287500Y29150000I250000J0D01*
G01*
X25012500Y29150000D01*
G75*
G02*
X25262500Y28900000I0J-250000D01*
G01*
G37*
G36*
G01*
X19337500Y28900000D02*
X19337500Y26050000D01*
G75*
G02*
X19087500Y25800000I-250000J0D01*
G01*
X18362500Y25800000D01*
G75*
G02*
X18112500Y26050000I0J250000D01*
G01*
X18112500Y28900000D01*
G75*
G02*
X18362500Y29150000I250000J0D01*
G01*
X19087500Y29150000D01*
G75*
G02*
X19337500Y28900000I0J-250000D01*
G01*
G37*
G04 #@! TD*
G04 #@! TO.C,C8*
G36*
G01*
X8650000Y13460000D02*
X7600000Y13460000D01*
G75*
G02*
X7500000Y13560000I0J100000D01*
G01*
X7500000Y14360000D01*
G75*
G02*
X7600000Y14460000I100000J0D01*
G01*
X8650000Y14460000D01*
G75*
G02*
X8750000Y14360000I0J-100000D01*
G01*
X8750000Y13560000D01*
G75*
G02*
X8650000Y13460000I-100000J0D01*
G01*
G37*
G36*
G01*
X8650000Y15460000D02*
X7600000Y15460000D01*
G75*
G02*
X7500000Y15560000I0J100000D01*
G01*
X7500000Y16360000D01*
G75*
G02*
X7600000Y16460000I100000J0D01*
G01*
X8650000Y16460000D01*
G75*
G02*
X8750000Y16360000I0J-100000D01*
G01*
X8750000Y15560000D01*
G75*
G02*
X8650000Y15460000I-100000J0D01*
G01*
G37*
G04 #@! TD*
D33*
G04 #@! TO.C,Q14*
X36800000Y34350000D03*
X34500000Y34350000D03*
X32200000Y34350000D03*
D34*
X34500000Y40650000D03*
G04 #@! TD*
G04 #@! TO.C,C9*
G36*
G01*
X10650000Y13460000D02*
X9600000Y13460000D01*
G75*
G02*
X9500000Y13560000I0J100000D01*
G01*
X9500000Y14360000D01*
G75*
G02*
X9600000Y14460000I100000J0D01*
G01*
X10650000Y14460000D01*
G75*
G02*
X10750000Y14360000I0J-100000D01*
G01*
X10750000Y13560000D01*
G75*
G02*
X10650000Y13460000I-100000J0D01*
G01*
G37*
G36*
G01*
X10650000Y15460000D02*
X9600000Y15460000D01*
G75*
G02*
X9500000Y15560000I0J100000D01*
G01*
X9500000Y16360000D01*
G75*
G02*
X9600000Y16460000I100000J0D01*
G01*
X10650000Y16460000D01*
G75*
G02*
X10750000Y16360000I0J-100000D01*
G01*
X10750000Y15560000D01*
G75*
G02*
X10650000Y15460000I-100000J0D01*
G01*
G37*
G04 #@! TD*
G04 #@! TO.C,C6*
G36*
G01*
X4650000Y13460000D02*
X3600000Y13460000D01*
G75*
G02*
X3500000Y13560000I0J100000D01*
G01*
X3500000Y14360000D01*
G75*
G02*
X3600000Y14460000I100000J0D01*
G01*
X4650000Y14460000D01*
G75*
G02*
X4750000Y14360000I0J-100000D01*
G01*
X4750000Y13560000D01*
G75*
G02*
X4650000Y13460000I-100000J0D01*
G01*
G37*
G36*
G01*
X4650000Y15460000D02*
X3600000Y15460000D01*
G75*
G02*
X3500000Y15560000I0J100000D01*
G01*
X3500000Y16360000D01*
G75*
G02*
X3600000Y16460000I100000J0D01*
G01*
X4650000Y16460000D01*
G75*
G02*
X4750000Y16360000I0J-100000D01*
G01*
X4750000Y15560000D01*
G75*
G02*
X4650000Y15460000I-100000J0D01*
G01*
G37*
G04 #@! TD*
G04 #@! TO.C,D7*
G36*
G01*
X4325000Y71400000D02*
X4325000Y71700000D01*
G75*
G02*
X4475000Y71850000I150000J0D01*
G01*
X5650000Y71850000D01*
G75*
G02*
X5800000Y71700000I0J-150000D01*
G01*
X5800000Y71400000D01*
G75*
G02*
X5650000Y71250000I-150000J0D01*
G01*
X4475000Y71250000D01*
G75*
G02*
X4325000Y71400000I0J150000D01*
G01*
G37*
G36*
G01*
X6200000Y72350000D02*
X6200000Y72650000D01*
G75*
G02*
X6350000Y72800000I150000J0D01*
G01*
X7525000Y72800000D01*
G75*
G02*
X7675000Y72650000I0J-150000D01*
G01*
X7675000Y72350000D01*
G75*
G02*
X7525000Y72200000I-150000J0D01*
G01*
X6350000Y72200000D01*
G75*
G02*
X6200000Y72350000I0J150000D01*
G01*
G37*
G36*
G01*
X4325000Y73300000D02*
X4325000Y73600000D01*
G75*
G02*
X4475000Y73750000I150000J0D01*
G01*
X5650000Y73750000D01*
G75*
G02*
X5800000Y73600000I0J-150000D01*
G01*
X5800000Y73300000D01*
G75*
G02*
X5650000Y73150000I-150000J0D01*
G01*
X4475000Y73150000D01*
G75*
G02*
X4325000Y73300000I0J150000D01*
G01*
G37*
G04 #@! TD*
G04 #@! TO.C,C2*
G36*
G01*
X5600000Y20460000D02*
X6650000Y20460000D01*
G75*
G02*
X6750000Y20360000I0J-100000D01*
G01*
X6750000Y19560000D01*
G75*
G02*
X6650000Y19460000I-100000J0D01*
G01*
X5600000Y19460000D01*
G75*
G02*
X5500000Y19560000I0J100000D01*
G01*
X5500000Y20360000D01*
G75*
G02*
X5600000Y20460000I100000J0D01*
G01*
G37*
G36*
G01*
X5600000Y18460000D02*
X6650000Y18460000D01*
G75*
G02*
X6750000Y18360000I0J-100000D01*
G01*
X6750000Y17560000D01*
G75*
G02*
X6650000Y17460000I-100000J0D01*
G01*
X5600000Y17460000D01*
G75*
G02*
X5500000Y17560000I0J100000D01*
G01*
X5500000Y18360000D01*
G75*
G02*
X5600000Y18460000I100000J0D01*
G01*
G37*
G04 #@! TD*
G04 #@! TO.C,C18*
G36*
G01*
X18075000Y11000000D02*
X19125000Y11000000D01*
G75*
G02*
X19225000Y10900000I0J-100000D01*
G01*
X19225000Y10100000D01*
G75*
G02*
X19125000Y10000000I-100000J0D01*
G01*
X18075000Y10000000D01*
G75*
G02*
X17975000Y10100000I0J100000D01*
G01*
X17975000Y10900000D01*
G75*
G02*
X18075000Y11000000I100000J0D01*
G01*
G37*
G36*
G01*
X18075000Y9000000D02*
X19125000Y9000000D01*
G75*
G02*
X19225000Y8900000I0J-100000D01*
G01*
X19225000Y8100000D01*
G75*
G02*
X19125000Y8000000I-100000J0D01*
G01*
X18075000Y8000000D01*
G75*
G02*
X17975000Y8100000I0J100000D01*
G01*
X17975000Y8900000D01*
G75*
G02*
X18075000Y9000000I100000J0D01*
G01*
G37*
G04 #@! TD*
G04 #@! TO.C,R12*
G36*
G01*
X17850000Y74110000D02*
X17850000Y74890000D01*
G75*
G02*
X17920000Y74960000I70000J0D01*
G01*
X18480000Y74960000D01*
G75*
G02*
X18550000Y74890000I0J-70000D01*
G01*
X18550000Y74110000D01*
G75*
G02*
X18480000Y74040000I-70000J0D01*
G01*
X17920000Y74040000D01*
G75*
G02*
X17850000Y74110000I0J70000D01*
G01*
G37*
G36*
G01*
X19450000Y74110000D02*
X19450000Y74890000D01*
G75*
G02*
X19520000Y74960000I70000J0D01*
G01*
X20080000Y74960000D01*
G75*
G02*
X20150000Y74890000I0J-70000D01*
G01*
X20150000Y74110000D01*
G75*
G02*
X20080000Y74040000I-70000J0D01*
G01*
X19520000Y74040000D01*
G75*
G02*
X19450000Y74110000I0J70000D01*
G01*
G37*
G04 #@! TD*
G04 #@! TO.C,C20*
G36*
G01*
X13125000Y4000000D02*
X12075000Y4000000D01*
G75*
G02*
X11975000Y4100000I0J100000D01*
G01*
X11975000Y4900000D01*
G75*
G02*
X12075000Y5000000I100000J0D01*
G01*
X13125000Y5000000D01*
G75*
G02*
X13225000Y4900000I0J-100000D01*
G01*
X13225000Y4100000D01*
G75*
G02*
X13125000Y4000000I-100000J0D01*
G01*
G37*
G36*
G01*
X13125000Y6000000D02*
X12075000Y6000000D01*
G75*
G02*
X11975000Y6100000I0J100000D01*
G01*
X11975000Y6900000D01*
G75*
G02*
X12075000Y7000000I100000J0D01*
G01*
X13125000Y7000000D01*
G75*
G02*
X13225000Y6900000I0J-100000D01*
G01*
X13225000Y6100000D01*
G75*
G02*
X13125000Y6000000I-100000J0D01*
G01*
G37*
G04 #@! TD*
G04 #@! TO.C,R2*
G36*
G01*
X16390000Y19850000D02*
X15610000Y19850000D01*
G75*
G02*
X15540000Y19920000I0J70000D01*
G01*
X15540000Y20480000D01*
G75*
G02*
X15610000Y20550000I70000J0D01*
G01*
X16390000Y20550000D01*
G75*
G02*
X16460000Y20480000I0J-70000D01*
G01*
X16460000Y19920000D01*
G75*
G02*
X16390000Y19850000I-70000J0D01*
G01*
G37*
G36*
G01*
X16390000Y21450000D02*
X15610000Y21450000D01*
G75*
G02*
X15540000Y21520000I0J70000D01*
G01*
X15540000Y22080000D01*
G75*
G02*
X15610000Y22150000I70000J0D01*
G01*
X16390000Y22150000D01*
G75*
G02*
X16460000Y22080000I0J-70000D01*
G01*
X16460000Y21520000D01*
G75*
G02*
X16390000Y21450000I-70000J0D01*
G01*
G37*
G04 #@! TD*
D33*
G04 #@! TO.C,Q13*
X5800000Y62850000D03*
X3500000Y62850000D03*
X1200000Y62850000D03*
D34*
X3500000Y69150000D03*
G04 #@! TD*
M02*
