M48
INCH,TZ
T01C0.013750
T02C0.021650
T03C0.026600
T04C0.032500
T05C0.039200
T06C0.059100
T07C0.070900
T08C0.119050
T09C0.126000
%
T01
X12598Y18494
X12805Y18839
X13100Y18376
X14498Y18406
X13018Y30354
X13411Y30354
X14537Y24675
X15010Y24675
X15482Y24675
X15955Y24675
X16270Y2293
X16270Y1900
X17368Y30354
X17762Y30354
X18031Y14606
X18031Y14291
X18031Y13976
X18031Y13661
X18031Y13346
X18031Y13031
X18031Y12717
X18031Y12402
X18031Y12087
X18031Y11772
X18031Y11457
X18031Y11142
X18031Y10827
X18031Y10512
X18031Y9882
X18031Y9331
X18031Y9016
X18031Y8701
X18031Y8386
X18031Y8071
X18031Y7756
X18032Y16299
X18032Y10197
X18189Y4921
X18504Y4921
X18819Y4921
X18888Y24675
X19134Y4921
X19360Y24675
X19449Y4921
X19764Y4921
X19833Y24675
X20079Y4921
X20305Y24675
X20394Y4921
X20630Y18858
X20709Y4921
X21024Y4921
X21102Y18858
X21339Y4921
X21575Y18858
X21654Y4921
X22047Y18858
X22520Y18858
X22598Y4921
X22913Y4921
X22992Y18858
X23228Y4921
X23465Y18858
X23543Y4921
X23858Y4921
X23937Y18858
X24173Y4921
X24409Y18858
X24488Y4921
X24803Y4921
X24882Y18858
X25118Y4921
X25354Y18858
X25827Y18858
X26299Y18858
X26772Y18858
X26811Y4921
X27244Y18858
X27717Y18858
X27874Y4921
X28189Y18858
X28268Y4921
X28661Y18858
X29134Y18858
X29606Y18858
X30079Y18858
X30581Y28789
X30955Y28789
X30974Y32215
X31024Y18858
X31181Y17874
X31181Y17480
X31181Y13268
X31181Y12874
X31181Y12480
X31181Y12087
X31181Y11693
X31181Y11299
X31181Y10906
X31181Y10512
X31181Y9488
X31181Y9173
X31181Y7323
X31181Y6772
X31181Y4921
X31329Y32215
X31329Y28789
X34557Y16161
X34872Y16161
X35187Y16161
X35502Y16161
X35817Y16161
X37608Y25610
X37923Y25610
X38238Y25610
X38553Y25610
X236Y29843
X256Y23819
X264Y3138
X409Y16496
X433Y32126
X512Y27185
X630Y36142
X703Y13204
X941Y26548
X941Y25098
X941Y23051
X961Y21693
X982Y19612
X984Y2953
X988Y7850
X1063Y6693
X1065Y7469
X1102Y5512
X1181Y17087
X1260Y32972
X1614Y20413
X1648Y17106
X1654Y8386
X1756Y17610
X2224Y26555
X2224Y23051
X2244Y25276
X2244Y19626
X2253Y21918
X2254Y18425
X2283Y8307
X2286Y17044
X2313Y6677
X2480Y32835
X2480Y276
X2520Y3858
X2546Y14092
X2622Y30693
X2657Y16169
X2657Y35719
X2677Y31594
X2756Y4961
X2835Y8268
X2913Y472
X2947Y5874
X3177Y16198
X3248Y14311
X3268Y827
X3409Y16584
X3409Y32868
X3504Y3819
X3543Y2992
X3543Y2047
X3583Y8268
X3583Y5866
X3602Y32480
X3772Y5124
X4180Y4600
X4323Y8311
X4331Y5866
X4409Y1299
X4539Y10912
X4606Y30197
X4665Y26890
X4670Y20226
X4705Y21929
X4764Y25236
X4764Y10354
X4843Y4646
X4921Y2953
X5039Y11260
X5079Y8465
X5354Y2165
X5354Y1299
X5373Y37339
X5433Y15866
X5433Y4567
X5453Y8228
X5472Y5394
X5709Y38661
X5709Y9410
X5835Y26937
X5906Y8307
X6142Y4606
X6142Y2165
X6142Y1299
X6161Y6358
X6575Y9606
X6666Y28941
X6847Y17153
X6890Y1299
X6929Y2165
X7008Y31890
X7047Y34685
X7047Y26850
X7047Y5591
X7087Y29764
X7126Y6693
X7244Y8209
X7244Y7776
X7382Y22618
X7440Y19656
X7441Y5591
X7441Y25394
X7480Y4685
X7795Y19055
X7795Y17126
X7795Y16457
X7815Y22185
X7835Y25000
X7839Y10831
X7913Y5591
X7953Y1693
X7992Y8209
X7992Y7776
X8189Y27047
X8268Y30000
X8268Y28976
X8307Y5591
X8333Y29527
X8390Y387
X8484Y31516
X8583Y28307
X8647Y10831
X8701Y13543
X8701Y2598
X8740Y3756
X8740Y2188
X8819Y3031
X8917Y27598
X9016Y32165
X9055Y236
X9213Y14055
X9331Y5098
X9409Y1339
X9449Y591
X9547Y6299
X9665Y30020
X9764Y31378
X9921Y38740
X9941Y28091
X10114Y29565
X10197Y11772
X10217Y19957
X10236Y25531
X10236Y22756
X10236Y17756
X10236Y17205
X10276Y23701
X10295Y20942
X10295Y18185
X10295Y15392
X10295Y12673
X10315Y14488
X10433Y26161
X10709Y17744
X10866Y23228
X10866Y14921
X10906Y20433
X10906Y12165
X10945Y28091
X10945Y11102
X11142Y10748
X11339Y20453
X11415Y19958
X11496Y14449
X11516Y13543
X11535Y22756
X11575Y25531
X11575Y9724
X11599Y11571
X11811Y12362
X11890Y26339
X11929Y29567
X11949Y28071
X11969Y10000
X12126Y12677
X12126Y11358
X12205Y10709
X12224Y24252
X12343Y21772
X12362Y16772
X12382Y16004
X12441Y14291
X12520Y30984
X12913Y21772
X12933Y11713
X13031Y24291
X13189Y34945
X13271Y16751
X13760Y9980
X13790Y10954
X14016Y21772
X14331Y30866
X14414Y14259
X14547Y12598
X14708Y10714
X14882Y31496
X14979Y18882
X15157Y13504
X15204Y9866
X15236Y12717
X15433Y16654
X15512Y30827
X15591Y9528
X15630Y13307
X15945Y21220
X15984Y31929
X16102Y19055
X16280Y34980
X16365Y9035
X16378Y29528
X16378Y27205
X16417Y12402
X16417Y24724
X16417Y15827
X16417Y13976
X16417Y9449
X16533Y17417
X16535Y6811
X16575Y1457
X16589Y2683
X16614Y3780
X16634Y4173
X16811Y30866
X17126Y23150
X17203Y38618
X17224Y3720
X17303Y7598
X17362Y18110
X17461Y5169
X17539Y4296
X17539Y3922
X17638Y15118
X17638Y236
X17677Y17717
X17717Y6181
X17740Y9669
X17972Y3821
X18055Y23169
X18307Y2126
X18622Y30866
X18701Y1339
X18750Y4171
X19016Y20276
X19016Y276
X19252Y2441
X19449Y32126
X20039Y20315
X20039Y35276
X20068Y22207
X20157Y30827
X20157Y4567
X20157Y591
X20431Y2593
X20630Y32126
X20630Y29252
X20709Y1339
X20748Y25512
X20866Y394
X21535Y38661
X21614Y28150
X21637Y26690
X21850Y31575
X21890Y2402
X21929Y4646
X21969Y276
X22061Y27907
X22279Y3465
X22480Y35433
X22992Y32126
X23031Y21378
X23110Y28898
X23661Y3150
X23819Y29248
X23937Y21220
X24213Y31457
X24213Y24606
X24406Y3799
X24567Y28622
X24567Y22992
X24803Y25945
X25039Y4449
X25276Y32087
X25827Y4606
X25964Y34945
X26417Y29803
X26686Y27638
X26693Y25984
X26693Y36654
X26811Y354
X27165Y38740
X27205Y25315
X27323Y4567
X27905Y4221
X27913Y24055
X28425Y22244
X28661Y27520
X28858Y31969
X29449Y25866
X30118Y2402
X30276Y22402
X30354Y4567
X30516Y20079
X30551Y27205
X30551Y19154
X30551Y24055
X30709Y21614
X31024Y394
X31102Y23819
X31299Y25315
X31457Y18425
X31457Y17008
X31496Y13819
X31496Y10000
X31535Y12913
X31535Y8740
X31535Y7795
X31535Y3346
X31575Y7047
X31575Y6339
X31614Y20512
X31758Y30360
X32755Y32467
X32835Y8583
X32897Y34663
X32913Y354
X32972Y27067
X33031Y25866
X33110Y15486
X33155Y17562
X33189Y10748
X33307Y12835
X33346Y32467
X33346Y17008
X33396Y18150
X33425Y38858
X33425Y21654
X33661Y26240
X33819Y32441
X33858Y15807
X33898Y433
X34705Y26240
X35079Y11575
X35433Y8189
X35551Y13228
X36417Y394
X36496Y26142
X36772Y15807
X37047Y13189
X37598Y28248
X37835Y9488
X37992Y35630
X37992Y34646
X37992Y33661
X37992Y28642
X38071Y15354
X38150Y14094
X38248Y6417
X38386Y12638
X38504Y5827
X38661Y29409
X38717Y34137
X38937Y36220
X38976Y13386
X39134Y26772
X39134Y15433
X10788Y665
X10516Y1301
X10730Y1686
X10089Y2115
X10049Y2451
X10246Y3041
X10522Y3297
X10640Y3828
X10246Y4124
X10049Y3632
X10049Y4813
X10049Y6388
X10522Y6368
X11633Y6660
X12680Y6635
X13002Y6347
X14055Y6272
X15167Y6388
X15955Y6388
X15482Y5384
X14837Y5378
X14897Y4132
X15364Y4222
X15532Y3742
X15955Y4025
X15533Y2857
X16229Y2685
X16270Y2293
X16270Y1899
X15588Y1993
X15278Y1504
X15665Y1187
X15268Y757
X14879Y1136
X14804Y1860
X14852Y2293
X13536Y1308
X13536Y679
X12617Y665
X11762Y665
X11985Y1307
X12569Y2332
X12962Y3779
X12215Y3828
X12648Y4338
X13237Y5336
X14183Y7293
X15115Y7360
X15561Y6978
X15955Y7569
X15128Y8356
X13129Y8524
X13087Y8118
X12300Y8108
X12035Y7705
X10598Y7782
X11007Y7147
X10167Y6914
X30434Y32209
X30687Y32057
X30974Y32215
X31329Y32215
X30995Y31213
X30890Y30939
X31103Y30696
X30590Y31246
X31330Y29767
X31329Y28790
X30955Y28790
X30581Y28790
X18514Y30364
X20160Y30337
X19331Y30315
X16807Y29593
X17564Y29584
X18343Y29558
X20172Y29510
X19240Y29508
X18538Y29336
X20144Y29162
X16935Y29075
X18250Y29045
X16801Y28770
X20335Y28714
X18788Y28637
X17542Y28626
X19863Y28472
X18852Y28349
X18829Y28055
X19230Y27813
X18424Y27681
X18750Y27628
X18032Y27618
X16949Y27598
X17321Y27548
X17671Y27508
X18329Y27287
X16801Y26978
X18376Y26909
X18800Y26595
X18514Y26476
X18010Y26378
X19473Y26356
X16961Y26313
X18770Y26290
X20144Y26221
X20085Y25925
X18815Y25742
X20314Y25730
X17441Y25403
X17433Y24927
X17264Y24685
X17677Y24675
X16782Y24659
X17762Y30354
X17368Y30354
X20305Y24675
X19833Y24675
X19361Y24675
X18888Y24675
X14517Y30226
X12549Y30226
X15856Y30187
X14439Y29360
X13376Y29203
X12549Y29085
X15856Y28848
X14950Y28455
X13966Y28415
X13336Y27864
X12549Y27825
X15856Y27431
X15147Y27195
X12549Y27116
X14456Y27030
X12903Y26604
X13769Y26093
X12824Y25856
X15856Y25699
X12549Y25384
X15031Y25066
X14163Y24793
X12824Y24793
X13411Y30354
X13017Y30354
X15954Y24675
X15482Y24675
X15010Y24675
X14537Y24675
X36762Y16181
X33832Y16255
X38868Y16299
X38677Y16532
X37398Y16588
X37087Y16588
X34064Y16742
X35680Y16924
X37585Y17126
X34963Y17126
X38518Y17263
X38789Y17555
X33787Y17632
X37327Y17702
X34387Y17703
X36071Y17820
X34940Y17838
X36741Y18042
X38829Y18100
X38061Y18267
X36083Y18366
X35035Y18376
X36787Y18398
X38868Y18582
X37333Y18700
X33744Y19380
X36256Y19837
X38908Y19906
X35317Y20067
X36817Y20069
X36023Y20069
X35781Y20275
X36122Y20353
X34745Y20660
X36880Y20869
X34795Y20957
X35429Y21061
X38888Y21082
X34789Y21267
X38223Y21285
X36841Y21358
X35810Y21420
X35165Y21571
X38140Y21574
X37407Y21876
X34441Y21893
X34140Y21901
X38898Y22283
X34309Y22480
X33817Y22496
X34608Y22515
X36432Y22956
X35579Y22990
X36945Y23025
X37844Y23025
X38145Y23025
X38447Y23025
X38748Y23025
X37352Y23029
X34557Y23051
X35798Y23425
X34557Y23484
X36919Y23523
X38199Y23622
X38514Y23622
X36033Y23661
X36506Y23661
X34557Y23878
X34833Y23878
X35108Y23878
X36919Y24015
X36270Y24193
X36526Y24783
X38612Y24823
X34557Y24842
X33828Y25065
X35915Y25078
X38199Y25098
X38848Y25315
X36289Y25433
X34557Y16161
X34872Y16161
X35187Y16161
X35502Y16161
X35817Y16161
X37608Y25610
X37923Y25610
X38238Y25610
X38553Y25610
X31023Y18858
X30547Y18827
X30315Y18637
X30079Y18858
X29842Y18657
X29606Y18858
X29370Y18657
X29134Y18858
X28897Y18657
X28661Y18858
X28425Y18657
X28189Y18858
X27953Y18657
X27716Y18858
X27480Y18657
X27244Y18858
X27008Y18657
X26771Y18858
X26535Y18657
X26299Y18858
X26063Y18657
X25827Y18858
X25590Y18657
X25354Y18858
X25118Y18657
X24882Y18858
X24645Y18657
X24409Y18858
X24173Y18657
X23937Y18858
X23701Y18657
X23464Y18858
X23228Y18657
X22992Y18858
X22756Y18657
X22519Y18858
X22283Y18657
X22047Y18858
X21811Y18657
X21575Y18858
X21338Y18657
X21102Y18858
X20866Y18657
X20630Y18858
X20315Y18700
X20322Y18165
X20749Y17971
X21200Y17961
X21642Y17954
X22115Y17956
X22620Y16909
X22930Y16909
X23177Y17382
X23775Y17179
X24071Y17170
X23914Y16899
X23797Y16217
X24052Y15949
X24149Y15408
X23710Y15408
X23250Y15528
X23250Y15196
X23250Y14901
X23256Y14610
X22926Y13926
X22381Y13930
X22519Y13346
X23149Y13425
X23219Y12593
X23234Y12207
X23582Y12401
X23816Y12601
X24073Y12168
X24766Y11867
X25364Y11850
X25711Y12146
X26486Y11971
X26468Y12526
X26478Y13073
X27186Y12946
X27141Y12147
X27167Y11382
X27189Y10572
X26486Y10532
X26486Y10817
X26486Y11102
X26486Y10231
X25698Y9915
X25711Y9630
X25743Y9332
X25693Y8850
X25289Y8799
X24659Y8321
X24282Y8333
X23346Y8189
X23021Y8789
X22813Y8586
X22831Y9113
X22473Y9160
X23024Y9344
X23230Y10487
X23453Y10716
X23499Y11399
X23790Y11410
X23303Y11618
X22634Y11618
X21768Y11807
X21574Y12021
X21370Y12225
X21168Y12427
X21171Y11614
X21618Y11149
X21631Y10448
X21255Y10546
X21378Y10078
X21580Y9541
X21340Y9315
X21146Y8917
X21338Y8661
X21439Y8278
X21479Y7972
X21181Y8070
X20677Y8272
X20621Y8573
X20677Y9135
X20530Y9380
X20787Y9763
X20805Y10254
X19577Y10646
X19267Y10960
X19449Y11181
X19484Y11701
X18031Y11771
X18031Y11456
X18031Y11141
X18031Y10826
X18031Y10511
X18031Y10196
X18031Y9882
X18170Y9604
X18031Y9330
X18031Y9015
X18031Y8700
X18031Y8385
X18031Y8070
X18031Y7756
X18388Y7668
X18171Y7424
X18480Y6722
X18484Y5787
X18857Y5743
X18859Y6028
X19232Y5787
X19134Y4921
X19449Y4921
X19764Y4921
X20079Y4921
X20393Y4921
X20708Y4921
X21023Y4921
X21338Y4921
X21653Y4921
X22244Y5118
X22598Y4921
X22913Y4921
X23228Y4921
X23543Y4921
X23858Y4921
X24173Y4921
X24488Y4921
X24803Y4921
X25118Y4921
X25630Y4960
X25536Y5615
X25934Y5651
X26279Y5606
X26558Y5908
X26500Y5153
X26811Y4921
X27874Y4921
X28268Y4921
X28629Y4945
X28621Y5408
X28851Y5853
X28932Y6726
X29372Y6503
X28186Y6191
X27723Y5872
X27766Y6723
X27323Y6771
X26838Y7199
X26830Y7484
X26762Y7844
X26759Y8140
X27489Y8041
X27480Y8425
X27489Y8750
X27150Y9078
X27489Y9458
X27473Y9810
X27493Y10105
X27176Y9787
X28171Y9359
X28174Y8915
X29350Y9059
X29330Y9580
X29331Y9969
X28506Y10434
X28206Y10395
X28183Y10848
X28183Y11135
X28183Y11422
X28183Y11838
X28183Y12124
X28165Y12548
X28165Y12856
X28165Y13145
X27941Y13885
X27661Y13980
X27349Y14375
X27647Y14695
X27647Y15261
X27654Y15547
X27563Y16208
X27766Y16953
X27598Y17185
X27898Y17220
X28523Y17384
X28819Y17384
X29445Y17179
X29731Y17179
X29567Y16896
X29463Y16220
X29622Y15951
X29802Y15374
X29326Y15374
X28840Y15528
X28840Y15196
X28840Y14901
X28847Y14610
X29610Y14388
X29606Y14011
X30409Y14003
X30382Y14337
X30677Y13905
X31156Y13862
X31181Y13267
X31181Y12874
X31181Y12480
X31181Y12086
X31181Y11693
X31181Y11299
X31181Y10905
X31181Y10511
X31142Y9882
X31181Y9488
X31181Y9173
X31181Y8799
X31053Y8316
X31142Y7952
X31181Y7322
X30897Y7212
X31181Y6771
X31160Y5609
X31181Y4921
X30157Y8189
X30031Y8484
X29162Y7999
X27170Y7707
X26293Y7259
X26161Y6870
X25823Y6941
X25400Y7263
X24960Y7362
X24219Y7284
X23691Y6348
X23551Y6069
X23480Y5762
X23218Y6452
X22387Y6423
X22195Y6098
X21451Y6444
X21525Y7292
X21231Y7292
X20940Y7292
X19754Y7234
X19724Y6771
X19999Y6240
X20025Y5336
X21135Y5209
X18819Y4921
X18504Y4921
X18189Y4921
X19383Y7825
X19539Y8064
X19311Y8356
X19094Y8783
X19535Y8781
X19633Y9465
X19117Y9754
X18841Y9200
X18830Y10409
X18031Y12086
X18031Y12401
X18031Y12716
X18031Y13031
X18031Y13346
X18031Y13661
X18031Y13976
X18031Y14291
X18031Y14606
X18550Y15220
X18110Y15826
X18031Y16299
X18602Y16897
X18602Y17216
X18602Y17534
X18602Y17852
X18602Y18171
X18966Y18497
X18248Y18540
X19844Y17709
X19711Y17130
X20275Y16220
X20508Y15516
X20494Y15196
X20499Y14908
X20500Y14610
X21287Y14388
X21296Y13975
X21806Y14360
X22096Y14576
X22096Y15149
X22059Y15535
X21455Y15401
X20955Y15408
X21295Y15954
X21174Y16620
X21491Y16620
X21837Y16620
X20827Y16631
X22638Y16220
X24854Y15535
X24852Y15136
X24852Y14697
X24770Y14313
X24043Y14335
X24094Y14053
X25236Y13921
X25560Y13913
X25582Y13421
X25992Y13701
X26063Y14530
X26040Y14901
X26053Y15196
X26063Y15696
X26358Y15433
X27027Y15388
X26827Y15930
X26898Y16806
X26667Y17386
X25957Y17179
X25665Y17179
X25807Y16889
X25684Y16220
X25038Y17340
X24710Y17391
X26705Y14382
X26904Y13976
X28517Y13926
X29051Y13307
X29051Y12546
X29051Y11785
X29050Y11023
X25367Y11076
X25571Y10751
X25409Y9863
X26488Y8763
X25689Y6140
X25245Y6236
X25152Y6506
X24949Y6143
X22443Y7485
X22385Y7768
X20812Y13301
X20433Y12952
X19346Y13097
X19395Y13826
X19707Y13794
X20170Y13926
X18635Y13619
X24957Y12564
X30443Y15108
X30405Y15573
X30687Y15895
X31178Y15934
X30580Y16486
X30846Y16798
X31181Y17480
X31181Y17874
X31161Y18459
X30590Y18267
X30393Y17384
X31053Y14576
X12805Y18839
X12598Y18495
X13100Y18376
X14498Y18406
T02
X433Y37992
X433Y1378
X710Y38660
X710Y37324
X710Y2046
X710Y710
X1378Y38937
X1378Y37047
X1378Y2323
X1378Y433
X2046Y38660
X2046Y37324
X2046Y2046
X2046Y710
X2323Y37992
X2323Y1378
X37047Y37992
X37047Y1378
X37324Y38660
X37324Y37324
X37324Y2046
X37324Y710
X37992Y38937
X37992Y37047
X37992Y2323
X37992Y433
X38660Y38660
X38660Y37324
X38660Y2046
X38660Y710
X38937Y37992
X38937Y1378
X17984Y3014G85X17984Y2581
X17984Y1270G85X17984Y1033
X21386Y3014G85X21386Y2581
X21386Y1270G85X21386Y1033
T03
X22638Y2165
X22638Y1535
X23327Y2480
X23327Y1850
X23327Y1220
X22726Y3287G85X23238Y3287
X22726Y413G85X23238Y413
X18547Y2600
X20823Y2600
T04
X23426Y27697
X23426Y26697
X23426Y25697
X23426Y24697
X23426Y23697
X23426Y22697
X32677Y5118
X32677Y4134
X32677Y3150
X32677Y2165
X32677Y1181
X25086Y13563
X23508Y13563
X22086Y13563
T05
X1181Y4528
X2181Y4528
X3181Y4528
X4242Y30689
X4242Y29689
X4242Y27382
X4242Y26382
X4242Y24075
X4242Y23075
X4242Y20768
X4242Y19768
X4242Y14783
X4242Y13783
X4508Y35128
X4508Y34128
X5242Y30689
X5242Y29689
X5242Y27382
X5242Y26382
X5242Y24075
X5242Y23075
X5242Y20768
X5242Y19768
X5242Y14783
X5242Y13783
X5508Y35128
X5508Y34128
X7815Y35128
X7815Y34128
X8815Y35128
X8815Y34128
X9055Y4331
X9990Y8376
X9990Y7648
X9990Y5699
X9990Y955
X11122Y35128
X11122Y34128
X12122Y35128
X12122Y34128
X12598Y22638
X13740Y22638
X14429Y35128
X14429Y34128
X15378Y18110
X15429Y35128
X15429Y34128
X15551Y23669
X15551Y22669
X15551Y21669
X15551Y20669
X15551Y19669
X16093Y8199
X16093Y5679
X16093Y4931
X16093Y3238
X16093Y778
X16378Y18110
X16551Y23669
X16551Y22669
X16551Y21669
X16551Y20669
X16551Y19669
X17551Y23669
X17551Y22669
X17551Y21669
X17551Y20669
X17551Y19669
X18551Y23669
X18551Y22669
X18551Y21669
X18551Y20669
X18551Y19669
X19551Y23669
X19551Y22669
X19551Y21669
X19551Y20669
X19551Y19669
X20551Y23669
X20551Y22669
X20551Y21669
X20551Y20669
X20551Y19669
X24075Y35128
X24075Y34128
X24606Y2953
X24606Y984
X25075Y35128
X25075Y34128
X27382Y35128
X27382Y34128
X28382Y35128
X28382Y34128
X30689Y35128
X30689Y34128
X31689Y35128
X31689Y34128
X32756Y9449
X32756Y7598
X33642Y14921
X33996Y35128
X33996Y34128
X34144Y30846
X34144Y29846
X34642Y14921
X34996Y35128
X34996Y34128
X35144Y30846
X35144Y29846
X35642Y14921
X36642Y14921
X37136Y25453
X37642Y14921
X38642Y14921
X9990Y954
X9990Y5699
X16093Y5679
X16093Y4931
X16093Y3238
X16093Y777
X16093Y8199
X9990Y8376
X9990Y7647
X37136Y25452
X38061Y16441
X37661Y18441
X38461Y18441
X30866Y5236
X21787Y6207
X21787Y5407
X19787Y5807
T06
X36220Y11457
X36220Y8504
T07
X3652Y31024
X3652Y29370
X3652Y27717
X3652Y26063
X3652Y24409
X3652Y22756
X3652Y21102
X3652Y19449
X3652Y17795
X3652Y15118
X3652Y13465
X3652Y11811
X3652Y10157
X4173Y35719
X4173Y33553
X5817Y31024
X5817Y29370
X5817Y27717
X5817Y26063
X5817Y24409
X5817Y22756
X5817Y21102
X5817Y19449
X5817Y17795
X5817Y15118
X5817Y13465
X5817Y11811
X5817Y10157
X5827Y35719
X5827Y33553
X7480Y35719
X7480Y33553
X9134Y35719
X9134Y33553
X10787Y35719
X10787Y33553
X12441Y35719
X12441Y33553
X14094Y35719
X14094Y33553
X15748Y35719
X15748Y33553
X17402Y35719
X17402Y33553
X19055Y35719
X19055Y33553
X23740Y35719
X23740Y33553
X25394Y35719
X25394Y33553
X27047Y35719
X27047Y33553
X28701Y35719
X28701Y33553
X30354Y35719
X30354Y33553
X32008Y35719
X32008Y33553
X33553Y31181
X33553Y29528
X33553Y27874
X33661Y35719
X33661Y33553
X35315Y35719
X35315Y33553
X35719Y31181
X35719Y29528
X35719Y27874
T08
X25244Y22362
X25394Y28268
X28426Y29697
X28426Y20697
X778Y31024
X778Y17795
X778Y15118
X778Y10157
X4173Y38593
X19055Y38593
X23740Y38593
X35315Y38593
X38593Y31181
X38593Y27874
T09
X1378Y37992
X1378Y1378
X37992Y37992
X37992Y1378
M30
