G04 #@! TF.GenerationSoftware,KiCad,Pcbnew,7.0.10-7.0.10~ubuntu22.04.1*
G04 #@! TF.CreationDate,2024-01-12T21:21:05+00:00*
G04 #@! TF.ProjectId,uaefi,75616566-692e-46b6-9963-61645f706362,rev?*
G04 #@! TF.SameCoordinates,Original*
G04 #@! TF.FileFunction,Paste,Bot*
G04 #@! TF.FilePolarity,Positive*
%FSLAX46Y46*%
G04 Gerber Fmt 4.6, Leading zero omitted, Abs format (unit mm)*
G04 Created by KiCad (PCBNEW 7.0.10-7.0.10~ubuntu22.04.1) date 2024-01-12 21:21:05*
%MOMM*%
%LPD*%
G01*
G04 APERTURE LIST*
%ADD10R,2.299995X4.399991*%
%ADD11R,2.299995X3.999992*%
%ADD12R,1.500000X2.000000*%
%ADD13R,3.800000X2.000000*%
%ADD14R,2.000000X1.500000*%
%ADD15R,2.000000X3.800000*%
G04 APERTURE END LIST*
G04 #@! TO.C,D8*
G36*
G01*
X54400000Y81257023D02*
X54700000Y81257023D01*
G75*
G02*
X54850000Y81107023I0J-150000D01*
G01*
X54850000Y79932023D01*
G75*
G02*
X54700000Y79782023I-150000J0D01*
G01*
X54400000Y79782023D01*
G75*
G02*
X54250000Y79932023I0J150000D01*
G01*
X54250000Y81107023D01*
G75*
G02*
X54400000Y81257023I150000J0D01*
G01*
G37*
G36*
G01*
X56300000Y81257023D02*
X56600000Y81257023D01*
G75*
G02*
X56750000Y81107023I0J-150000D01*
G01*
X56750000Y79932023D01*
G75*
G02*
X56600000Y79782023I-150000J0D01*
G01*
X56300000Y79782023D01*
G75*
G02*
X56150000Y79932023I0J150000D01*
G01*
X56150000Y81107023D01*
G75*
G02*
X56300000Y81257023I150000J0D01*
G01*
G37*
G36*
G01*
X55350000Y79382023D02*
X55650000Y79382023D01*
G75*
G02*
X55800000Y79232023I0J-150000D01*
G01*
X55800000Y78057023D01*
G75*
G02*
X55650000Y77907023I-150000J0D01*
G01*
X55350000Y77907023D01*
G75*
G02*
X55200000Y78057023I0J150000D01*
G01*
X55200000Y79232023D01*
G75*
G02*
X55350000Y79382023I150000J0D01*
G01*
G37*
G04 #@! TD*
G04 #@! TO.C,C10*
G36*
G01*
X12650000Y13460000D02*
X11600000Y13460000D01*
G75*
G02*
X11500000Y13560000I0J100000D01*
G01*
X11500000Y14360000D01*
G75*
G02*
X11600000Y14460000I100000J0D01*
G01*
X12650000Y14460000D01*
G75*
G02*
X12750000Y14360000I0J-100000D01*
G01*
X12750000Y13560000D01*
G75*
G02*
X12650000Y13460000I-100000J0D01*
G01*
G37*
G36*
G01*
X12650000Y15460000D02*
X11600000Y15460000D01*
G75*
G02*
X11500000Y15560000I0J100000D01*
G01*
X11500000Y16360000D01*
G75*
G02*
X11600000Y16460000I100000J0D01*
G01*
X12650000Y16460000D01*
G75*
G02*
X12750000Y16360000I0J-100000D01*
G01*
X12750000Y15560000D01*
G75*
G02*
X12650000Y15460000I-100000J0D01*
G01*
G37*
G04 #@! TD*
G04 #@! TO.C,C27*
G36*
G01*
X61460000Y66315001D02*
X62140000Y66315001D01*
G75*
G02*
X62225000Y66230001I0J-85000D01*
G01*
X62225000Y65550001D01*
G75*
G02*
X62140000Y65465001I-85000J0D01*
G01*
X61460000Y65465001D01*
G75*
G02*
X61375000Y65550001I0J85000D01*
G01*
X61375000Y66230001D01*
G75*
G02*
X61460000Y66315001I85000J0D01*
G01*
G37*
G36*
G01*
X61460000Y64734999D02*
X62140000Y64734999D01*
G75*
G02*
X62225000Y64649999I0J-85000D01*
G01*
X62225000Y63969999D01*
G75*
G02*
X62140000Y63884999I-85000J0D01*
G01*
X61460000Y63884999D01*
G75*
G02*
X61375000Y63969999I0J85000D01*
G01*
X61375000Y64649999D01*
G75*
G02*
X61460000Y64734999I85000J0D01*
G01*
G37*
G04 #@! TD*
G04 #@! TO.C,D4*
G36*
G01*
X19510000Y75900000D02*
X18490000Y75900000D01*
G75*
G02*
X18400000Y75990000I0J90000D01*
G01*
X18400000Y76710000D01*
G75*
G02*
X18490000Y76800000I90000J0D01*
G01*
X19510000Y76800000D01*
G75*
G02*
X19600000Y76710000I0J-90000D01*
G01*
X19600000Y75990000D01*
G75*
G02*
X19510000Y75900000I-90000J0D01*
G01*
G37*
G36*
G01*
X19510000Y79200000D02*
X18490000Y79200000D01*
G75*
G02*
X18400000Y79290000I0J90000D01*
G01*
X18400000Y80010000D01*
G75*
G02*
X18490000Y80100000I90000J0D01*
G01*
X19510000Y80100000D01*
G75*
G02*
X19600000Y80010000I0J-90000D01*
G01*
X19600000Y79290000D01*
G75*
G02*
X19510000Y79200000I-90000J0D01*
G01*
G37*
G04 #@! TD*
D10*
G04 #@! TO.C,BT1*
X92000000Y17500048D03*
D11*
X92000000Y33500067D03*
G04 #@! TD*
G04 #@! TO.C,R31*
G36*
G01*
X9350000Y42210000D02*
X9350000Y42990000D01*
G75*
G02*
X9420000Y43060000I70000J0D01*
G01*
X9980000Y43060000D01*
G75*
G02*
X10050000Y42990000I0J-70000D01*
G01*
X10050000Y42210000D01*
G75*
G02*
X9980000Y42140000I-70000J0D01*
G01*
X9420000Y42140000D01*
G75*
G02*
X9350000Y42210000I0J70000D01*
G01*
G37*
G36*
G01*
X10950000Y42210000D02*
X10950000Y42990000D01*
G75*
G02*
X11020000Y43060000I70000J0D01*
G01*
X11580000Y43060000D01*
G75*
G02*
X11650000Y42990000I0J-70000D01*
G01*
X11650000Y42210000D01*
G75*
G02*
X11580000Y42140000I-70000J0D01*
G01*
X11020000Y42140000D01*
G75*
G02*
X10950000Y42210000I0J70000D01*
G01*
G37*
G04 #@! TD*
G04 #@! TO.C,C30*
G36*
G01*
X58405002Y82940000D02*
X58405002Y82260000D01*
G75*
G02*
X58320002Y82175000I-85000J0D01*
G01*
X57640002Y82175000D01*
G75*
G02*
X57555002Y82260000I0J85000D01*
G01*
X57555002Y82940000D01*
G75*
G02*
X57640002Y83025000I85000J0D01*
G01*
X58320002Y83025000D01*
G75*
G02*
X58405002Y82940000I0J-85000D01*
G01*
G37*
G36*
G01*
X56825000Y82940000D02*
X56825000Y82260000D01*
G75*
G02*
X56740000Y82175000I-85000J0D01*
G01*
X56060000Y82175000D01*
G75*
G02*
X55975000Y82260000I0J85000D01*
G01*
X55975000Y82940000D01*
G75*
G02*
X56060000Y83025000I85000J0D01*
G01*
X56740000Y83025000D01*
G75*
G02*
X56825000Y82940000I0J-85000D01*
G01*
G37*
G04 #@! TD*
G04 #@! TO.C,C7*
G36*
G01*
X6650000Y13460000D02*
X5600000Y13460000D01*
G75*
G02*
X5500000Y13560000I0J100000D01*
G01*
X5500000Y14360000D01*
G75*
G02*
X5600000Y14460000I100000J0D01*
G01*
X6650000Y14460000D01*
G75*
G02*
X6750000Y14360000I0J-100000D01*
G01*
X6750000Y13560000D01*
G75*
G02*
X6650000Y13460000I-100000J0D01*
G01*
G37*
G36*
G01*
X6650000Y15460000D02*
X5600000Y15460000D01*
G75*
G02*
X5500000Y15560000I0J100000D01*
G01*
X5500000Y16360000D01*
G75*
G02*
X5600000Y16460000I100000J0D01*
G01*
X6650000Y16460000D01*
G75*
G02*
X6750000Y16360000I0J-100000D01*
G01*
X6750000Y15560000D01*
G75*
G02*
X6650000Y15460000I-100000J0D01*
G01*
G37*
G04 #@! TD*
G04 #@! TO.C,C33*
G36*
G01*
X96660000Y35215001D02*
X97340000Y35215001D01*
G75*
G02*
X97425000Y35130001I0J-85000D01*
G01*
X97425000Y34450001D01*
G75*
G02*
X97340000Y34365001I-85000J0D01*
G01*
X96660000Y34365001D01*
G75*
G02*
X96575000Y34450001I0J85000D01*
G01*
X96575000Y35130001D01*
G75*
G02*
X96660000Y35215001I85000J0D01*
G01*
G37*
G36*
G01*
X96660000Y33634999D02*
X97340000Y33634999D01*
G75*
G02*
X97425000Y33549999I0J-85000D01*
G01*
X97425000Y32869999D01*
G75*
G02*
X97340000Y32784999I-85000J0D01*
G01*
X96660000Y32784999D01*
G75*
G02*
X96575000Y32869999I0J85000D01*
G01*
X96575000Y33549999D01*
G75*
G02*
X96660000Y33634999I85000J0D01*
G01*
G37*
G04 #@! TD*
G04 #@! TO.C,C29*
G36*
G01*
X54284999Y76742023D02*
X54284999Y77422023D01*
G75*
G02*
X54369999Y77507023I85000J0D01*
G01*
X55049999Y77507023D01*
G75*
G02*
X55134999Y77422023I0J-85000D01*
G01*
X55134999Y76742023D01*
G75*
G02*
X55049999Y76657023I-85000J0D01*
G01*
X54369999Y76657023D01*
G75*
G02*
X54284999Y76742023I0J85000D01*
G01*
G37*
G36*
G01*
X55865001Y76742023D02*
X55865001Y77422023D01*
G75*
G02*
X55950001Y77507023I85000J0D01*
G01*
X56630001Y77507023D01*
G75*
G02*
X56715001Y77422023I0J-85000D01*
G01*
X56715001Y76742023D01*
G75*
G02*
X56630001Y76657023I-85000J0D01*
G01*
X55950001Y76657023D01*
G75*
G02*
X55865001Y76742023I0J85000D01*
G01*
G37*
G04 #@! TD*
G04 #@! TO.C,R34*
G36*
G01*
X6290000Y40650000D02*
X5510000Y40650000D01*
G75*
G02*
X5440000Y40720000I0J70000D01*
G01*
X5440000Y41280000D01*
G75*
G02*
X5510000Y41350000I70000J0D01*
G01*
X6290000Y41350000D01*
G75*
G02*
X6360000Y41280000I0J-70000D01*
G01*
X6360000Y40720000D01*
G75*
G02*
X6290000Y40650000I-70000J0D01*
G01*
G37*
G36*
G01*
X6290000Y42250000D02*
X5510000Y42250000D01*
G75*
G02*
X5440000Y42320000I0J70000D01*
G01*
X5440000Y42880000D01*
G75*
G02*
X5510000Y42950000I70000J0D01*
G01*
X6290000Y42950000D01*
G75*
G02*
X6360000Y42880000I0J-70000D01*
G01*
X6360000Y42320000D01*
G75*
G02*
X6290000Y42250000I-70000J0D01*
G01*
G37*
G04 #@! TD*
G04 #@! TO.C,C17*
G36*
G01*
X16075000Y11000000D02*
X17125000Y11000000D01*
G75*
G02*
X17225000Y10900000I0J-100000D01*
G01*
X17225000Y10100000D01*
G75*
G02*
X17125000Y10000000I-100000J0D01*
G01*
X16075000Y10000000D01*
G75*
G02*
X15975000Y10100000I0J100000D01*
G01*
X15975000Y10900000D01*
G75*
G02*
X16075000Y11000000I100000J0D01*
G01*
G37*
G36*
G01*
X16075000Y9000000D02*
X17125000Y9000000D01*
G75*
G02*
X17225000Y8900000I0J-100000D01*
G01*
X17225000Y8100000D01*
G75*
G02*
X17125000Y8000000I-100000J0D01*
G01*
X16075000Y8000000D01*
G75*
G02*
X15975000Y8100000I0J100000D01*
G01*
X15975000Y8900000D01*
G75*
G02*
X16075000Y9000000I100000J0D01*
G01*
G37*
G04 #@! TD*
G04 #@! TO.C,R20*
G36*
G01*
X27475000Y63825000D02*
X27475000Y60975000D01*
G75*
G02*
X27225000Y60725000I-250000J0D01*
G01*
X26500000Y60725000D01*
G75*
G02*
X26250000Y60975000I0J250000D01*
G01*
X26250000Y63825000D01*
G75*
G02*
X26500000Y64075000I250000J0D01*
G01*
X27225000Y64075000D01*
G75*
G02*
X27475000Y63825000I0J-250000D01*
G01*
G37*
G36*
G01*
X21550000Y63825000D02*
X21550000Y60975000D01*
G75*
G02*
X21300000Y60725000I-250000J0D01*
G01*
X20575000Y60725000D01*
G75*
G02*
X20325000Y60975000I0J250000D01*
G01*
X20325000Y63825000D01*
G75*
G02*
X20575000Y64075000I250000J0D01*
G01*
X21300000Y64075000D01*
G75*
G02*
X21550000Y63825000I0J-250000D01*
G01*
G37*
G04 #@! TD*
G04 #@! TO.C,C3*
G36*
G01*
X7600000Y20460000D02*
X8650000Y20460000D01*
G75*
G02*
X8750000Y20360000I0J-100000D01*
G01*
X8750000Y19560000D01*
G75*
G02*
X8650000Y19460000I-100000J0D01*
G01*
X7600000Y19460000D01*
G75*
G02*
X7500000Y19560000I0J100000D01*
G01*
X7500000Y20360000D01*
G75*
G02*
X7600000Y20460000I100000J0D01*
G01*
G37*
G36*
G01*
X7600000Y18460000D02*
X8650000Y18460000D01*
G75*
G02*
X8750000Y18360000I0J-100000D01*
G01*
X8750000Y17560000D01*
G75*
G02*
X8650000Y17460000I-100000J0D01*
G01*
X7600000Y17460000D01*
G75*
G02*
X7500000Y17560000I0J100000D01*
G01*
X7500000Y18360000D01*
G75*
G02*
X7600000Y18460000I100000J0D01*
G01*
G37*
G04 #@! TD*
G04 #@! TO.C,C23*
G36*
G01*
X19125000Y4000000D02*
X18075000Y4000000D01*
G75*
G02*
X17975000Y4100000I0J100000D01*
G01*
X17975000Y4900000D01*
G75*
G02*
X18075000Y5000000I100000J0D01*
G01*
X19125000Y5000000D01*
G75*
G02*
X19225000Y4900000I0J-100000D01*
G01*
X19225000Y4100000D01*
G75*
G02*
X19125000Y4000000I-100000J0D01*
G01*
G37*
G36*
G01*
X19125000Y6000000D02*
X18075000Y6000000D01*
G75*
G02*
X17975000Y6100000I0J100000D01*
G01*
X17975000Y6900000D01*
G75*
G02*
X18075000Y7000000I100000J0D01*
G01*
X19125000Y7000000D01*
G75*
G02*
X19225000Y6900000I0J-100000D01*
G01*
X19225000Y6100000D01*
G75*
G02*
X19125000Y6000000I-100000J0D01*
G01*
G37*
G04 #@! TD*
G04 #@! TO.C,U4*
G36*
G01*
X53445000Y75250000D02*
X53745000Y75250000D01*
G75*
G02*
X53895000Y75100000I0J-150000D01*
G01*
X53895000Y73450000D01*
G75*
G02*
X53745000Y73300000I-150000J0D01*
G01*
X53445000Y73300000D01*
G75*
G02*
X53295000Y73450000I0J150000D01*
G01*
X53295000Y75100000D01*
G75*
G02*
X53445000Y75250000I150000J0D01*
G01*
G37*
G36*
G01*
X54715000Y75250000D02*
X55015000Y75250000D01*
G75*
G02*
X55165000Y75100000I0J-150000D01*
G01*
X55165000Y73450000D01*
G75*
G02*
X55015000Y73300000I-150000J0D01*
G01*
X54715000Y73300000D01*
G75*
G02*
X54565000Y73450000I0J150000D01*
G01*
X54565000Y75100000D01*
G75*
G02*
X54715000Y75250000I150000J0D01*
G01*
G37*
G36*
G01*
X55985000Y75250000D02*
X56285000Y75250000D01*
G75*
G02*
X56435000Y75100000I0J-150000D01*
G01*
X56435000Y73450000D01*
G75*
G02*
X56285000Y73300000I-150000J0D01*
G01*
X55985000Y73300000D01*
G75*
G02*
X55835000Y73450000I0J150000D01*
G01*
X55835000Y75100000D01*
G75*
G02*
X55985000Y75250000I150000J0D01*
G01*
G37*
G36*
G01*
X57255000Y75250000D02*
X57555000Y75250000D01*
G75*
G02*
X57705000Y75100000I0J-150000D01*
G01*
X57705000Y73450000D01*
G75*
G02*
X57555000Y73300000I-150000J0D01*
G01*
X57255000Y73300000D01*
G75*
G02*
X57105000Y73450000I0J150000D01*
G01*
X57105000Y75100000D01*
G75*
G02*
X57255000Y75250000I150000J0D01*
G01*
G37*
G36*
G01*
X57255000Y70300000D02*
X57555000Y70300000D01*
G75*
G02*
X57705000Y70150000I0J-150000D01*
G01*
X57705000Y68500000D01*
G75*
G02*
X57555000Y68350000I-150000J0D01*
G01*
X57255000Y68350000D01*
G75*
G02*
X57105000Y68500000I0J150000D01*
G01*
X57105000Y70150000D01*
G75*
G02*
X57255000Y70300000I150000J0D01*
G01*
G37*
G36*
G01*
X55985000Y70300000D02*
X56285000Y70300000D01*
G75*
G02*
X56435000Y70150000I0J-150000D01*
G01*
X56435000Y68500000D01*
G75*
G02*
X56285000Y68350000I-150000J0D01*
G01*
X55985000Y68350000D01*
G75*
G02*
X55835000Y68500000I0J150000D01*
G01*
X55835000Y70150000D01*
G75*
G02*
X55985000Y70300000I150000J0D01*
G01*
G37*
G36*
G01*
X54715000Y70300000D02*
X55015000Y70300000D01*
G75*
G02*
X55165000Y70150000I0J-150000D01*
G01*
X55165000Y68500000D01*
G75*
G02*
X55015000Y68350000I-150000J0D01*
G01*
X54715000Y68350000D01*
G75*
G02*
X54565000Y68500000I0J150000D01*
G01*
X54565000Y70150000D01*
G75*
G02*
X54715000Y70300000I150000J0D01*
G01*
G37*
G36*
G01*
X53445000Y70300000D02*
X53745000Y70300000D01*
G75*
G02*
X53895000Y70150000I0J-150000D01*
G01*
X53895000Y68500000D01*
G75*
G02*
X53745000Y68350000I-150000J0D01*
G01*
X53445000Y68350000D01*
G75*
G02*
X53295000Y68500000I0J150000D01*
G01*
X53295000Y70150000D01*
G75*
G02*
X53445000Y70300000I150000J0D01*
G01*
G37*
G04 #@! TD*
G04 #@! TO.C,C1*
G36*
G01*
X3600000Y20460000D02*
X4650000Y20460000D01*
G75*
G02*
X4750000Y20360000I0J-100000D01*
G01*
X4750000Y19560000D01*
G75*
G02*
X4650000Y19460000I-100000J0D01*
G01*
X3600000Y19460000D01*
G75*
G02*
X3500000Y19560000I0J100000D01*
G01*
X3500000Y20360000D01*
G75*
G02*
X3600000Y20460000I100000J0D01*
G01*
G37*
G36*
G01*
X3600000Y18460000D02*
X4650000Y18460000D01*
G75*
G02*
X4750000Y18360000I0J-100000D01*
G01*
X4750000Y17560000D01*
G75*
G02*
X4650000Y17460000I-100000J0D01*
G01*
X3600000Y17460000D01*
G75*
G02*
X3500000Y17560000I0J100000D01*
G01*
X3500000Y18360000D01*
G75*
G02*
X3600000Y18460000I100000J0D01*
G01*
G37*
G04 #@! TD*
G04 #@! TO.C,R26*
G36*
G01*
X27475000Y42825000D02*
X27475000Y39975000D01*
G75*
G02*
X27225000Y39725000I-250000J0D01*
G01*
X26500000Y39725000D01*
G75*
G02*
X26250000Y39975000I0J250000D01*
G01*
X26250000Y42825000D01*
G75*
G02*
X26500000Y43075000I250000J0D01*
G01*
X27225000Y43075000D01*
G75*
G02*
X27475000Y42825000I0J-250000D01*
G01*
G37*
G36*
G01*
X21550000Y42825000D02*
X21550000Y39975000D01*
G75*
G02*
X21300000Y39725000I-250000J0D01*
G01*
X20575000Y39725000D01*
G75*
G02*
X20325000Y39975000I0J250000D01*
G01*
X20325000Y42825000D01*
G75*
G02*
X20575000Y43075000I250000J0D01*
G01*
X21300000Y43075000D01*
G75*
G02*
X21550000Y42825000I0J-250000D01*
G01*
G37*
G04 #@! TD*
D12*
G04 #@! TO.C,Q18*
X5800000Y47950000D03*
X3500000Y47950000D03*
X1200000Y47950000D03*
D13*
X3500000Y54250000D03*
G04 #@! TD*
G04 #@! TO.C,C31*
G36*
G01*
X59940000Y72284999D02*
X59260000Y72284999D01*
G75*
G02*
X59175000Y72369999I0J85000D01*
G01*
X59175000Y73049999D01*
G75*
G02*
X59260000Y73134999I85000J0D01*
G01*
X59940000Y73134999D01*
G75*
G02*
X60025000Y73049999I0J-85000D01*
G01*
X60025000Y72369999D01*
G75*
G02*
X59940000Y72284999I-85000J0D01*
G01*
G37*
G36*
G01*
X59940000Y73865001D02*
X59260000Y73865001D01*
G75*
G02*
X59175000Y73950001I0J85000D01*
G01*
X59175000Y74630001D01*
G75*
G02*
X59260000Y74715001I85000J0D01*
G01*
X59940000Y74715001D01*
G75*
G02*
X60025000Y74630001I0J-85000D01*
G01*
X60025000Y73950001D01*
G75*
G02*
X59940000Y73865001I-85000J0D01*
G01*
G37*
G04 #@! TD*
G04 #@! TO.C,C14*
G36*
G01*
X10075000Y11000000D02*
X11125000Y11000000D01*
G75*
G02*
X11225000Y10900000I0J-100000D01*
G01*
X11225000Y10100000D01*
G75*
G02*
X11125000Y10000000I-100000J0D01*
G01*
X10075000Y10000000D01*
G75*
G02*
X9975000Y10100000I0J100000D01*
G01*
X9975000Y10900000D01*
G75*
G02*
X10075000Y11000000I100000J0D01*
G01*
G37*
G36*
G01*
X10075000Y9000000D02*
X11125000Y9000000D01*
G75*
G02*
X11225000Y8900000I0J-100000D01*
G01*
X11225000Y8100000D01*
G75*
G02*
X11125000Y8000000I-100000J0D01*
G01*
X10075000Y8000000D01*
G75*
G02*
X9975000Y8100000I0J100000D01*
G01*
X9975000Y8900000D01*
G75*
G02*
X10075000Y9000000I100000J0D01*
G01*
G37*
G04 #@! TD*
D12*
G04 #@! TO.C,Q15*
X5800000Y56950000D03*
X3500000Y56950000D03*
X1200000Y56950000D03*
D13*
X3500000Y63250000D03*
G04 #@! TD*
G04 #@! TO.C,C19*
G36*
G01*
X11125000Y4000000D02*
X10075000Y4000000D01*
G75*
G02*
X9975000Y4100000I0J100000D01*
G01*
X9975000Y4900000D01*
G75*
G02*
X10075000Y5000000I100000J0D01*
G01*
X11125000Y5000000D01*
G75*
G02*
X11225000Y4900000I0J-100000D01*
G01*
X11225000Y4100000D01*
G75*
G02*
X11125000Y4000000I-100000J0D01*
G01*
G37*
G36*
G01*
X11125000Y6000000D02*
X10075000Y6000000D01*
G75*
G02*
X9975000Y6100000I0J100000D01*
G01*
X9975000Y6900000D01*
G75*
G02*
X10075000Y7000000I100000J0D01*
G01*
X11125000Y7000000D01*
G75*
G02*
X11225000Y6900000I0J-100000D01*
G01*
X11225000Y6100000D01*
G75*
G02*
X11125000Y6000000I-100000J0D01*
G01*
G37*
G04 #@! TD*
G04 #@! TO.C,R27*
G36*
G01*
X27475000Y35825000D02*
X27475000Y32975000D01*
G75*
G02*
X27225000Y32725000I-250000J0D01*
G01*
X26500000Y32725000D01*
G75*
G02*
X26250000Y32975000I0J250000D01*
G01*
X26250000Y35825000D01*
G75*
G02*
X26500000Y36075000I250000J0D01*
G01*
X27225000Y36075000D01*
G75*
G02*
X27475000Y35825000I0J-250000D01*
G01*
G37*
G36*
G01*
X21550000Y35825000D02*
X21550000Y32975000D01*
G75*
G02*
X21300000Y32725000I-250000J0D01*
G01*
X20575000Y32725000D01*
G75*
G02*
X20325000Y32975000I0J250000D01*
G01*
X20325000Y35825000D01*
G75*
G02*
X20575000Y36075000I250000J0D01*
G01*
X21300000Y36075000D01*
G75*
G02*
X21550000Y35825000I0J-250000D01*
G01*
G37*
G04 #@! TD*
G04 #@! TO.C,R21*
G36*
G01*
X27475000Y56825000D02*
X27475000Y53975000D01*
G75*
G02*
X27225000Y53725000I-250000J0D01*
G01*
X26500000Y53725000D01*
G75*
G02*
X26250000Y53975000I0J250000D01*
G01*
X26250000Y56825000D01*
G75*
G02*
X26500000Y57075000I250000J0D01*
G01*
X27225000Y57075000D01*
G75*
G02*
X27475000Y56825000I0J-250000D01*
G01*
G37*
G36*
G01*
X21550000Y56825000D02*
X21550000Y53975000D01*
G75*
G02*
X21300000Y53725000I-250000J0D01*
G01*
X20575000Y53725000D01*
G75*
G02*
X20325000Y53975000I0J250000D01*
G01*
X20325000Y56825000D01*
G75*
G02*
X20575000Y57075000I250000J0D01*
G01*
X21300000Y57075000D01*
G75*
G02*
X21550000Y56825000I0J-250000D01*
G01*
G37*
G04 #@! TD*
G04 #@! TO.C,C4*
G36*
G01*
X9600000Y20460000D02*
X10650000Y20460000D01*
G75*
G02*
X10750000Y20360000I0J-100000D01*
G01*
X10750000Y19560000D01*
G75*
G02*
X10650000Y19460000I-100000J0D01*
G01*
X9600000Y19460000D01*
G75*
G02*
X9500000Y19560000I0J100000D01*
G01*
X9500000Y20360000D01*
G75*
G02*
X9600000Y20460000I100000J0D01*
G01*
G37*
G36*
G01*
X9600000Y18460000D02*
X10650000Y18460000D01*
G75*
G02*
X10750000Y18360000I0J-100000D01*
G01*
X10750000Y17560000D01*
G75*
G02*
X10650000Y17460000I-100000J0D01*
G01*
X9600000Y17460000D01*
G75*
G02*
X9500000Y17560000I0J100000D01*
G01*
X9500000Y18360000D01*
G75*
G02*
X9600000Y18460000I100000J0D01*
G01*
G37*
G04 #@! TD*
G04 #@! TO.C,R10*
G36*
G01*
X18350000Y66610000D02*
X18350000Y67390000D01*
G75*
G02*
X18420000Y67460000I70000J0D01*
G01*
X18980000Y67460000D01*
G75*
G02*
X19050000Y67390000I0J-70000D01*
G01*
X19050000Y66610000D01*
G75*
G02*
X18980000Y66540000I-70000J0D01*
G01*
X18420000Y66540000D01*
G75*
G02*
X18350000Y66610000I0J70000D01*
G01*
G37*
G36*
G01*
X19950000Y66610000D02*
X19950000Y67390000D01*
G75*
G02*
X20020000Y67460000I70000J0D01*
G01*
X20580000Y67460000D01*
G75*
G02*
X20650000Y67390000I0J-70000D01*
G01*
X20650000Y66610000D01*
G75*
G02*
X20580000Y66540000I-70000J0D01*
G01*
X20020000Y66540000D01*
G75*
G02*
X19950000Y66610000I0J70000D01*
G01*
G37*
G04 #@! TD*
G04 #@! TO.C,D2*
G36*
G01*
X19510000Y68400000D02*
X18490000Y68400000D01*
G75*
G02*
X18400000Y68490000I0J90000D01*
G01*
X18400000Y69210000D01*
G75*
G02*
X18490000Y69300000I90000J0D01*
G01*
X19510000Y69300000D01*
G75*
G02*
X19600000Y69210000I0J-90000D01*
G01*
X19600000Y68490000D01*
G75*
G02*
X19510000Y68400000I-90000J0D01*
G01*
G37*
G36*
G01*
X19510000Y71700000D02*
X18490000Y71700000D01*
G75*
G02*
X18400000Y71790000I0J90000D01*
G01*
X18400000Y72510000D01*
G75*
G02*
X18490000Y72600000I90000J0D01*
G01*
X19510000Y72600000D01*
G75*
G02*
X19600000Y72510000I0J-90000D01*
G01*
X19600000Y71790000D01*
G75*
G02*
X19510000Y71700000I-90000J0D01*
G01*
G37*
G04 #@! TD*
G04 #@! TO.C,D1*
G36*
G01*
X87140000Y15700000D02*
X86660000Y15700000D01*
G75*
G02*
X86600000Y15760000I0J60000D01*
G01*
X86600000Y16240000D01*
G75*
G02*
X86660000Y16300000I60000J0D01*
G01*
X87140000Y16300000D01*
G75*
G02*
X87200000Y16240000I0J-60000D01*
G01*
X87200000Y15760000D01*
G75*
G02*
X87140000Y15700000I-60000J0D01*
G01*
G37*
G36*
G01*
X89340000Y15700000D02*
X88860000Y15700000D01*
G75*
G02*
X88800000Y15760000I0J60000D01*
G01*
X88800000Y16240000D01*
G75*
G02*
X88860000Y16300000I60000J0D01*
G01*
X89340000Y16300000D01*
G75*
G02*
X89400000Y16240000I0J-60000D01*
G01*
X89400000Y15760000D01*
G75*
G02*
X89340000Y15700000I-60000J0D01*
G01*
G37*
G04 #@! TD*
G04 #@! TO.C,R19*
G36*
G01*
X28902500Y47250000D02*
X28122500Y47250000D01*
G75*
G02*
X28052500Y47320000I0J70000D01*
G01*
X28052500Y47880000D01*
G75*
G02*
X28122500Y47950000I70000J0D01*
G01*
X28902500Y47950000D01*
G75*
G02*
X28972500Y47880000I0J-70000D01*
G01*
X28972500Y47320000D01*
G75*
G02*
X28902500Y47250000I-70000J0D01*
G01*
G37*
G36*
G01*
X28902500Y48850000D02*
X28122500Y48850000D01*
G75*
G02*
X28052500Y48920000I0J70000D01*
G01*
X28052500Y49480000D01*
G75*
G02*
X28122500Y49550000I70000J0D01*
G01*
X28902500Y49550000D01*
G75*
G02*
X28972500Y49480000I0J-70000D01*
G01*
X28972500Y48920000D01*
G75*
G02*
X28902500Y48850000I-70000J0D01*
G01*
G37*
G04 #@! TD*
G04 #@! TO.C,R33*
G36*
G01*
X31610000Y29150000D02*
X32390000Y29150000D01*
G75*
G02*
X32460000Y29080000I0J-70000D01*
G01*
X32460000Y28520000D01*
G75*
G02*
X32390000Y28450000I-70000J0D01*
G01*
X31610000Y28450000D01*
G75*
G02*
X31540000Y28520000I0J70000D01*
G01*
X31540000Y29080000D01*
G75*
G02*
X31610000Y29150000I70000J0D01*
G01*
G37*
G36*
G01*
X31610000Y27550000D02*
X32390000Y27550000D01*
G75*
G02*
X32460000Y27480000I0J-70000D01*
G01*
X32460000Y26920000D01*
G75*
G02*
X32390000Y26850000I-70000J0D01*
G01*
X31610000Y26850000D01*
G75*
G02*
X31540000Y26920000I0J70000D01*
G01*
X31540000Y27480000D01*
G75*
G02*
X31610000Y27550000I70000J0D01*
G01*
G37*
G04 #@! TD*
G04 #@! TO.C,C21*
G36*
G01*
X15125000Y4000000D02*
X14075000Y4000000D01*
G75*
G02*
X13975000Y4100000I0J100000D01*
G01*
X13975000Y4900000D01*
G75*
G02*
X14075000Y5000000I100000J0D01*
G01*
X15125000Y5000000D01*
G75*
G02*
X15225000Y4900000I0J-100000D01*
G01*
X15225000Y4100000D01*
G75*
G02*
X15125000Y4000000I-100000J0D01*
G01*
G37*
G36*
G01*
X15125000Y6000000D02*
X14075000Y6000000D01*
G75*
G02*
X13975000Y6100000I0J100000D01*
G01*
X13975000Y6900000D01*
G75*
G02*
X14075000Y7000000I100000J0D01*
G01*
X15125000Y7000000D01*
G75*
G02*
X15225000Y6900000I0J-100000D01*
G01*
X15225000Y6100000D01*
G75*
G02*
X15125000Y6000000I-100000J0D01*
G01*
G37*
G04 #@! TD*
G04 #@! TO.C,D6*
G36*
G01*
X4400000Y81175000D02*
X4700000Y81175000D01*
G75*
G02*
X4850000Y81025000I0J-150000D01*
G01*
X4850000Y79850000D01*
G75*
G02*
X4700000Y79700000I-150000J0D01*
G01*
X4400000Y79700000D01*
G75*
G02*
X4250000Y79850000I0J150000D01*
G01*
X4250000Y81025000D01*
G75*
G02*
X4400000Y81175000I150000J0D01*
G01*
G37*
G36*
G01*
X5350000Y79300000D02*
X5650000Y79300000D01*
G75*
G02*
X5800000Y79150000I0J-150000D01*
G01*
X5800000Y77975000D01*
G75*
G02*
X5650000Y77825000I-150000J0D01*
G01*
X5350000Y77825000D01*
G75*
G02*
X5200000Y77975000I0J150000D01*
G01*
X5200000Y79150000D01*
G75*
G02*
X5350000Y79300000I150000J0D01*
G01*
G37*
G36*
G01*
X6300000Y81175000D02*
X6600000Y81175000D01*
G75*
G02*
X6750000Y81025000I0J-150000D01*
G01*
X6750000Y79850000D01*
G75*
G02*
X6600000Y79700000I-150000J0D01*
G01*
X6300000Y79700000D01*
G75*
G02*
X6150000Y79850000I0J150000D01*
G01*
X6150000Y81025000D01*
G75*
G02*
X6300000Y81175000I150000J0D01*
G01*
G37*
G04 #@! TD*
G04 #@! TO.C,R23*
G36*
G01*
X28902500Y40250000D02*
X28122500Y40250000D01*
G75*
G02*
X28052500Y40320000I0J70000D01*
G01*
X28052500Y40880000D01*
G75*
G02*
X28122500Y40950000I70000J0D01*
G01*
X28902500Y40950000D01*
G75*
G02*
X28972500Y40880000I0J-70000D01*
G01*
X28972500Y40320000D01*
G75*
G02*
X28902500Y40250000I-70000J0D01*
G01*
G37*
G36*
G01*
X28902500Y41850000D02*
X28122500Y41850000D01*
G75*
G02*
X28052500Y41920000I0J70000D01*
G01*
X28052500Y42480000D01*
G75*
G02*
X28122500Y42550000I70000J0D01*
G01*
X28902500Y42550000D01*
G75*
G02*
X28972500Y42480000I0J-70000D01*
G01*
X28972500Y41920000D01*
G75*
G02*
X28902500Y41850000I-70000J0D01*
G01*
G37*
G04 #@! TD*
G04 #@! TO.C,Q6*
G36*
G01*
X225000Y74500000D02*
X225000Y74800000D01*
G75*
G02*
X375000Y74950000I150000J0D01*
G01*
X1550000Y74950000D01*
G75*
G02*
X1700000Y74800000I0J-150000D01*
G01*
X1700000Y74500000D01*
G75*
G02*
X1550000Y74350000I-150000J0D01*
G01*
X375000Y74350000D01*
G75*
G02*
X225000Y74500000I0J150000D01*
G01*
G37*
G36*
G01*
X2100000Y75450000D02*
X2100000Y75750000D01*
G75*
G02*
X2250000Y75900000I150000J0D01*
G01*
X3425000Y75900000D01*
G75*
G02*
X3575000Y75750000I0J-150000D01*
G01*
X3575000Y75450000D01*
G75*
G02*
X3425000Y75300000I-150000J0D01*
G01*
X2250000Y75300000D01*
G75*
G02*
X2100000Y75450000I0J150000D01*
G01*
G37*
G36*
G01*
X225000Y76400000D02*
X225000Y76700000D01*
G75*
G02*
X375000Y76850000I150000J0D01*
G01*
X1550000Y76850000D01*
G75*
G02*
X1700000Y76700000I0J-150000D01*
G01*
X1700000Y76400000D01*
G75*
G02*
X1550000Y76250000I-150000J0D01*
G01*
X375000Y76250000D01*
G75*
G02*
X225000Y76400000I0J150000D01*
G01*
G37*
G04 #@! TD*
G04 #@! TO.C,R7*
G36*
G01*
X49390000Y3228318D02*
X48610000Y3228318D01*
G75*
G02*
X48540000Y3298318I0J70000D01*
G01*
X48540000Y3858318D01*
G75*
G02*
X48610000Y3928318I70000J0D01*
G01*
X49390000Y3928318D01*
G75*
G02*
X49460000Y3858318I0J-70000D01*
G01*
X49460000Y3298318D01*
G75*
G02*
X49390000Y3228318I-70000J0D01*
G01*
G37*
G36*
G01*
X49390000Y4828318D02*
X48610000Y4828318D01*
G75*
G02*
X48540000Y4898318I0J70000D01*
G01*
X48540000Y5458318D01*
G75*
G02*
X48610000Y5528318I70000J0D01*
G01*
X49390000Y5528318D01*
G75*
G02*
X49460000Y5458318I0J-70000D01*
G01*
X49460000Y4898318D01*
G75*
G02*
X49390000Y4828318I-70000J0D01*
G01*
G37*
G04 #@! TD*
G04 #@! TO.C,R24*
G36*
G01*
X28902500Y33250000D02*
X28122500Y33250000D01*
G75*
G02*
X28052500Y33320000I0J70000D01*
G01*
X28052500Y33880000D01*
G75*
G02*
X28122500Y33950000I70000J0D01*
G01*
X28902500Y33950000D01*
G75*
G02*
X28972500Y33880000I0J-70000D01*
G01*
X28972500Y33320000D01*
G75*
G02*
X28902500Y33250000I-70000J0D01*
G01*
G37*
G36*
G01*
X28902500Y34850000D02*
X28122500Y34850000D01*
G75*
G02*
X28052500Y34920000I0J70000D01*
G01*
X28052500Y35480000D01*
G75*
G02*
X28122500Y35550000I70000J0D01*
G01*
X28902500Y35550000D01*
G75*
G02*
X28972500Y35480000I0J-70000D01*
G01*
X28972500Y34920000D01*
G75*
G02*
X28902500Y34850000I-70000J0D01*
G01*
G37*
G04 #@! TD*
G04 #@! TO.C,C32*
G36*
G01*
X61740000Y72284999D02*
X61060000Y72284999D01*
G75*
G02*
X60975000Y72369999I0J85000D01*
G01*
X60975000Y73049999D01*
G75*
G02*
X61060000Y73134999I85000J0D01*
G01*
X61740000Y73134999D01*
G75*
G02*
X61825000Y73049999I0J-85000D01*
G01*
X61825000Y72369999D01*
G75*
G02*
X61740000Y72284999I-85000J0D01*
G01*
G37*
G36*
G01*
X61740000Y73865001D02*
X61060000Y73865001D01*
G75*
G02*
X60975000Y73950001I0J85000D01*
G01*
X60975000Y74630001D01*
G75*
G02*
X61060000Y74715001I85000J0D01*
G01*
X61740000Y74715001D01*
G75*
G02*
X61825000Y74630001I0J-85000D01*
G01*
X61825000Y73950001D01*
G75*
G02*
X61740000Y73865001I-85000J0D01*
G01*
G37*
G04 #@! TD*
G04 #@! TO.C,R16*
G36*
G01*
X4590000Y86050000D02*
X3810000Y86050000D01*
G75*
G02*
X3740000Y86120000I0J70000D01*
G01*
X3740000Y86680000D01*
G75*
G02*
X3810000Y86750000I70000J0D01*
G01*
X4590000Y86750000D01*
G75*
G02*
X4660000Y86680000I0J-70000D01*
G01*
X4660000Y86120000D01*
G75*
G02*
X4590000Y86050000I-70000J0D01*
G01*
G37*
G36*
G01*
X4590000Y87650000D02*
X3810000Y87650000D01*
G75*
G02*
X3740000Y87720000I0J70000D01*
G01*
X3740000Y88280000D01*
G75*
G02*
X3810000Y88350000I70000J0D01*
G01*
X4590000Y88350000D01*
G75*
G02*
X4660000Y88280000I0J-70000D01*
G01*
X4660000Y87720000D01*
G75*
G02*
X4590000Y87650000I-70000J0D01*
G01*
G37*
G04 #@! TD*
D14*
G04 #@! TO.C,Q1*
X22850000Y67700000D03*
X22850000Y70000000D03*
X22850000Y72300000D03*
D15*
X29150000Y70000000D03*
G04 #@! TD*
G04 #@! TO.C,R30*
G36*
G01*
X36890000Y29850000D02*
X36110000Y29850000D01*
G75*
G02*
X36040000Y29920000I0J70000D01*
G01*
X36040000Y30480000D01*
G75*
G02*
X36110000Y30550000I70000J0D01*
G01*
X36890000Y30550000D01*
G75*
G02*
X36960000Y30480000I0J-70000D01*
G01*
X36960000Y29920000D01*
G75*
G02*
X36890000Y29850000I-70000J0D01*
G01*
G37*
G36*
G01*
X36890000Y31450000D02*
X36110000Y31450000D01*
G75*
G02*
X36040000Y31520000I0J70000D01*
G01*
X36040000Y32080000D01*
G75*
G02*
X36110000Y32150000I70000J0D01*
G01*
X36890000Y32150000D01*
G75*
G02*
X36960000Y32080000I0J-70000D01*
G01*
X36960000Y31520000D01*
G75*
G02*
X36890000Y31450000I-70000J0D01*
G01*
G37*
G04 #@! TD*
G04 #@! TO.C,R22*
G36*
G01*
X27475000Y49825000D02*
X27475000Y46975000D01*
G75*
G02*
X27225000Y46725000I-250000J0D01*
G01*
X26500000Y46725000D01*
G75*
G02*
X26250000Y46975000I0J250000D01*
G01*
X26250000Y49825000D01*
G75*
G02*
X26500000Y50075000I250000J0D01*
G01*
X27225000Y50075000D01*
G75*
G02*
X27475000Y49825000I0J-250000D01*
G01*
G37*
G36*
G01*
X21550000Y49825000D02*
X21550000Y46975000D01*
G75*
G02*
X21300000Y46725000I-250000J0D01*
G01*
X20575000Y46725000D01*
G75*
G02*
X20325000Y46975000I0J250000D01*
G01*
X20325000Y49825000D01*
G75*
G02*
X20575000Y50075000I250000J0D01*
G01*
X21300000Y50075000D01*
G75*
G02*
X21550000Y49825000I0J-250000D01*
G01*
G37*
G04 #@! TD*
G04 #@! TO.C,R25*
G36*
G01*
X28902500Y26250000D02*
X28122500Y26250000D01*
G75*
G02*
X28052500Y26320000I0J70000D01*
G01*
X28052500Y26880000D01*
G75*
G02*
X28122500Y26950000I70000J0D01*
G01*
X28902500Y26950000D01*
G75*
G02*
X28972500Y26880000I0J-70000D01*
G01*
X28972500Y26320000D01*
G75*
G02*
X28902500Y26250000I-70000J0D01*
G01*
G37*
G36*
G01*
X28902500Y27850000D02*
X28122500Y27850000D01*
G75*
G02*
X28052500Y27920000I0J70000D01*
G01*
X28052500Y28480000D01*
G75*
G02*
X28122500Y28550000I70000J0D01*
G01*
X28902500Y28550000D01*
G75*
G02*
X28972500Y28480000I0J-70000D01*
G01*
X28972500Y27920000D01*
G75*
G02*
X28902500Y27850000I-70000J0D01*
G01*
G37*
G04 #@! TD*
G04 #@! TO.C,L2*
G36*
G01*
X54243750Y86225000D02*
X54756250Y86225000D01*
G75*
G02*
X54975000Y86006250I0J-218750D01*
G01*
X54975000Y85568750D01*
G75*
G02*
X54756250Y85350000I-218750J0D01*
G01*
X54243750Y85350000D01*
G75*
G02*
X54025000Y85568750I0J218750D01*
G01*
X54025000Y86006250D01*
G75*
G02*
X54243750Y86225000I218750J0D01*
G01*
G37*
G36*
G01*
X54243750Y84650000D02*
X54756250Y84650000D01*
G75*
G02*
X54975000Y84431250I0J-218750D01*
G01*
X54975000Y83993750D01*
G75*
G02*
X54756250Y83775000I-218750J0D01*
G01*
X54243750Y83775000D01*
G75*
G02*
X54025000Y83993750I0J218750D01*
G01*
X54025000Y84431250D01*
G75*
G02*
X54243750Y84650000I218750J0D01*
G01*
G37*
G04 #@! TD*
G04 #@! TO.C,C16*
G36*
G01*
X14075000Y11000000D02*
X15125000Y11000000D01*
G75*
G02*
X15225000Y10900000I0J-100000D01*
G01*
X15225000Y10100000D01*
G75*
G02*
X15125000Y10000000I-100000J0D01*
G01*
X14075000Y10000000D01*
G75*
G02*
X13975000Y10100000I0J100000D01*
G01*
X13975000Y10900000D01*
G75*
G02*
X14075000Y11000000I100000J0D01*
G01*
G37*
G36*
G01*
X14075000Y9000000D02*
X15125000Y9000000D01*
G75*
G02*
X15225000Y8900000I0J-100000D01*
G01*
X15225000Y8100000D01*
G75*
G02*
X15125000Y8000000I-100000J0D01*
G01*
X14075000Y8000000D01*
G75*
G02*
X13975000Y8100000I0J100000D01*
G01*
X13975000Y8900000D01*
G75*
G02*
X14075000Y9000000I100000J0D01*
G01*
G37*
G04 #@! TD*
G04 #@! TO.C,R17*
G36*
G01*
X28902500Y61250000D02*
X28122500Y61250000D01*
G75*
G02*
X28052500Y61320000I0J70000D01*
G01*
X28052500Y61880000D01*
G75*
G02*
X28122500Y61950000I70000J0D01*
G01*
X28902500Y61950000D01*
G75*
G02*
X28972500Y61880000I0J-70000D01*
G01*
X28972500Y61320000D01*
G75*
G02*
X28902500Y61250000I-70000J0D01*
G01*
G37*
G36*
G01*
X28902500Y62850000D02*
X28122500Y62850000D01*
G75*
G02*
X28052500Y62920000I0J70000D01*
G01*
X28052500Y63480000D01*
G75*
G02*
X28122500Y63550000I70000J0D01*
G01*
X28902500Y63550000D01*
G75*
G02*
X28972500Y63480000I0J-70000D01*
G01*
X28972500Y62920000D01*
G75*
G02*
X28902500Y62850000I-70000J0D01*
G01*
G37*
G04 #@! TD*
G04 #@! TO.C,C22*
G36*
G01*
X17125000Y4000000D02*
X16075000Y4000000D01*
G75*
G02*
X15975000Y4100000I0J100000D01*
G01*
X15975000Y4900000D01*
G75*
G02*
X16075000Y5000000I100000J0D01*
G01*
X17125000Y5000000D01*
G75*
G02*
X17225000Y4900000I0J-100000D01*
G01*
X17225000Y4100000D01*
G75*
G02*
X17125000Y4000000I-100000J0D01*
G01*
G37*
G36*
G01*
X17125000Y6000000D02*
X16075000Y6000000D01*
G75*
G02*
X15975000Y6100000I0J100000D01*
G01*
X15975000Y6900000D01*
G75*
G02*
X16075000Y7000000I100000J0D01*
G01*
X17125000Y7000000D01*
G75*
G02*
X17225000Y6900000I0J-100000D01*
G01*
X17225000Y6100000D01*
G75*
G02*
X17125000Y6000000I-100000J0D01*
G01*
G37*
G04 #@! TD*
G04 #@! TO.C,R8*
G36*
G01*
X51890000Y3228318D02*
X51110000Y3228318D01*
G75*
G02*
X51040000Y3298318I0J70000D01*
G01*
X51040000Y3858318D01*
G75*
G02*
X51110000Y3928318I70000J0D01*
G01*
X51890000Y3928318D01*
G75*
G02*
X51960000Y3858318I0J-70000D01*
G01*
X51960000Y3298318D01*
G75*
G02*
X51890000Y3228318I-70000J0D01*
G01*
G37*
G36*
G01*
X51890000Y4828318D02*
X51110000Y4828318D01*
G75*
G02*
X51040000Y4898318I0J70000D01*
G01*
X51040000Y5458318D01*
G75*
G02*
X51110000Y5528318I70000J0D01*
G01*
X51890000Y5528318D01*
G75*
G02*
X51960000Y5458318I0J-70000D01*
G01*
X51960000Y4898318D01*
G75*
G02*
X51890000Y4828318I-70000J0D01*
G01*
G37*
G04 #@! TD*
G04 #@! TO.C,R3*
G36*
G01*
X16390000Y16850000D02*
X15610000Y16850000D01*
G75*
G02*
X15540000Y16920000I0J70000D01*
G01*
X15540000Y17480000D01*
G75*
G02*
X15610000Y17550000I70000J0D01*
G01*
X16390000Y17550000D01*
G75*
G02*
X16460000Y17480000I0J-70000D01*
G01*
X16460000Y16920000D01*
G75*
G02*
X16390000Y16850000I-70000J0D01*
G01*
G37*
G36*
G01*
X16390000Y18450000D02*
X15610000Y18450000D01*
G75*
G02*
X15540000Y18520000I0J70000D01*
G01*
X15540000Y19080000D01*
G75*
G02*
X15610000Y19150000I70000J0D01*
G01*
X16390000Y19150000D01*
G75*
G02*
X16460000Y19080000I0J-70000D01*
G01*
X16460000Y18520000D01*
G75*
G02*
X16390000Y18450000I-70000J0D01*
G01*
G37*
G04 #@! TD*
G04 #@! TO.C,R15*
G36*
G01*
X7090000Y86050000D02*
X6310000Y86050000D01*
G75*
G02*
X6240000Y86120000I0J70000D01*
G01*
X6240000Y86680000D01*
G75*
G02*
X6310000Y86750000I70000J0D01*
G01*
X7090000Y86750000D01*
G75*
G02*
X7160000Y86680000I0J-70000D01*
G01*
X7160000Y86120000D01*
G75*
G02*
X7090000Y86050000I-70000J0D01*
G01*
G37*
G36*
G01*
X7090000Y87650000D02*
X6310000Y87650000D01*
G75*
G02*
X6240000Y87720000I0J70000D01*
G01*
X6240000Y88280000D01*
G75*
G02*
X6310000Y88350000I70000J0D01*
G01*
X7090000Y88350000D01*
G75*
G02*
X7160000Y88280000I0J-70000D01*
G01*
X7160000Y87720000D01*
G75*
G02*
X7090000Y87650000I-70000J0D01*
G01*
G37*
G04 #@! TD*
D14*
G04 #@! TO.C,Q3*
X22850000Y75200000D03*
X22850000Y77500000D03*
X22850000Y79800000D03*
D15*
X29150000Y77500000D03*
G04 #@! TD*
G04 #@! TO.C,Q5*
G36*
G01*
X4400000Y85275000D02*
X4700000Y85275000D01*
G75*
G02*
X4850000Y85125000I0J-150000D01*
G01*
X4850000Y83950000D01*
G75*
G02*
X4700000Y83800000I-150000J0D01*
G01*
X4400000Y83800000D01*
G75*
G02*
X4250000Y83950000I0J150000D01*
G01*
X4250000Y85125000D01*
G75*
G02*
X4400000Y85275000I150000J0D01*
G01*
G37*
G36*
G01*
X5350000Y83400000D02*
X5650000Y83400000D01*
G75*
G02*
X5800000Y83250000I0J-150000D01*
G01*
X5800000Y82075000D01*
G75*
G02*
X5650000Y81925000I-150000J0D01*
G01*
X5350000Y81925000D01*
G75*
G02*
X5200000Y82075000I0J150000D01*
G01*
X5200000Y83250000D01*
G75*
G02*
X5350000Y83400000I150000J0D01*
G01*
G37*
G36*
G01*
X6300000Y85275000D02*
X6600000Y85275000D01*
G75*
G02*
X6750000Y85125000I0J-150000D01*
G01*
X6750000Y83950000D01*
G75*
G02*
X6600000Y83800000I-150000J0D01*
G01*
X6300000Y83800000D01*
G75*
G02*
X6150000Y83950000I0J150000D01*
G01*
X6150000Y85125000D01*
G75*
G02*
X6300000Y85275000I150000J0D01*
G01*
G37*
G04 #@! TD*
G04 #@! TO.C,C5*
G36*
G01*
X11600000Y20460000D02*
X12650000Y20460000D01*
G75*
G02*
X12750000Y20360000I0J-100000D01*
G01*
X12750000Y19560000D01*
G75*
G02*
X12650000Y19460000I-100000J0D01*
G01*
X11600000Y19460000D01*
G75*
G02*
X11500000Y19560000I0J100000D01*
G01*
X11500000Y20360000D01*
G75*
G02*
X11600000Y20460000I100000J0D01*
G01*
G37*
G36*
G01*
X11600000Y18460000D02*
X12650000Y18460000D01*
G75*
G02*
X12750000Y18360000I0J-100000D01*
G01*
X12750000Y17560000D01*
G75*
G02*
X12650000Y17460000I-100000J0D01*
G01*
X11600000Y17460000D01*
G75*
G02*
X11500000Y17560000I0J100000D01*
G01*
X11500000Y18360000D01*
G75*
G02*
X11600000Y18460000I100000J0D01*
G01*
G37*
G04 #@! TD*
G04 #@! TO.C,R32*
G36*
G01*
X32390000Y29850000D02*
X31610000Y29850000D01*
G75*
G02*
X31540000Y29920000I0J70000D01*
G01*
X31540000Y30480000D01*
G75*
G02*
X31610000Y30550000I70000J0D01*
G01*
X32390000Y30550000D01*
G75*
G02*
X32460000Y30480000I0J-70000D01*
G01*
X32460000Y29920000D01*
G75*
G02*
X32390000Y29850000I-70000J0D01*
G01*
G37*
G36*
G01*
X32390000Y31450000D02*
X31610000Y31450000D01*
G75*
G02*
X31540000Y31520000I0J70000D01*
G01*
X31540000Y32080000D01*
G75*
G02*
X31610000Y32150000I70000J0D01*
G01*
X32390000Y32150000D01*
G75*
G02*
X32460000Y32080000I0J-70000D01*
G01*
X32460000Y31520000D01*
G75*
G02*
X32390000Y31450000I-70000J0D01*
G01*
G37*
G04 #@! TD*
G04 #@! TO.C,C28*
G36*
G01*
X52584999Y82260000D02*
X52584999Y82940000D01*
G75*
G02*
X52669999Y83025000I85000J0D01*
G01*
X53349999Y83025000D01*
G75*
G02*
X53434999Y82940000I0J-85000D01*
G01*
X53434999Y82260000D01*
G75*
G02*
X53349999Y82175000I-85000J0D01*
G01*
X52669999Y82175000D01*
G75*
G02*
X52584999Y82260000I0J85000D01*
G01*
G37*
G36*
G01*
X54165001Y82260000D02*
X54165001Y82940000D01*
G75*
G02*
X54250001Y83025000I85000J0D01*
G01*
X54930001Y83025000D01*
G75*
G02*
X55015001Y82940000I0J-85000D01*
G01*
X55015001Y82260000D01*
G75*
G02*
X54930001Y82175000I-85000J0D01*
G01*
X54250001Y82175000D01*
G75*
G02*
X54165001Y82260000I0J85000D01*
G01*
G37*
G04 #@! TD*
G04 #@! TO.C,R29*
G36*
G01*
X9350000Y40610000D02*
X9350000Y41390000D01*
G75*
G02*
X9420000Y41460000I70000J0D01*
G01*
X9980000Y41460000D01*
G75*
G02*
X10050000Y41390000I0J-70000D01*
G01*
X10050000Y40610000D01*
G75*
G02*
X9980000Y40540000I-70000J0D01*
G01*
X9420000Y40540000D01*
G75*
G02*
X9350000Y40610000I0J70000D01*
G01*
G37*
G36*
G01*
X10950000Y40610000D02*
X10950000Y41390000D01*
G75*
G02*
X11020000Y41460000I70000J0D01*
G01*
X11580000Y41460000D01*
G75*
G02*
X11650000Y41390000I0J-70000D01*
G01*
X11650000Y40610000D01*
G75*
G02*
X11580000Y40540000I-70000J0D01*
G01*
X11020000Y40540000D01*
G75*
G02*
X10950000Y40610000I0J70000D01*
G01*
G37*
G04 #@! TD*
G04 #@! TO.C,R18*
G36*
G01*
X28902500Y54250000D02*
X28122500Y54250000D01*
G75*
G02*
X28052500Y54320000I0J70000D01*
G01*
X28052500Y54880000D01*
G75*
G02*
X28122500Y54950000I70000J0D01*
G01*
X28902500Y54950000D01*
G75*
G02*
X28972500Y54880000I0J-70000D01*
G01*
X28972500Y54320000D01*
G75*
G02*
X28902500Y54250000I-70000J0D01*
G01*
G37*
G36*
G01*
X28902500Y55850000D02*
X28122500Y55850000D01*
G75*
G02*
X28052500Y55920000I0J70000D01*
G01*
X28052500Y56480000D01*
G75*
G02*
X28122500Y56550000I70000J0D01*
G01*
X28902500Y56550000D01*
G75*
G02*
X28972500Y56480000I0J-70000D01*
G01*
X28972500Y55920000D01*
G75*
G02*
X28902500Y55850000I-70000J0D01*
G01*
G37*
G04 #@! TD*
G04 #@! TO.C,L1*
G36*
G01*
X56243750Y86225000D02*
X56756250Y86225000D01*
G75*
G02*
X56975000Y86006250I0J-218750D01*
G01*
X56975000Y85568750D01*
G75*
G02*
X56756250Y85350000I-218750J0D01*
G01*
X56243750Y85350000D01*
G75*
G02*
X56025000Y85568750I0J218750D01*
G01*
X56025000Y86006250D01*
G75*
G02*
X56243750Y86225000I218750J0D01*
G01*
G37*
G36*
G01*
X56243750Y84650000D02*
X56756250Y84650000D01*
G75*
G02*
X56975000Y84431250I0J-218750D01*
G01*
X56975000Y83993750D01*
G75*
G02*
X56756250Y83775000I-218750J0D01*
G01*
X56243750Y83775000D01*
G75*
G02*
X56025000Y83993750I0J218750D01*
G01*
X56025000Y84431250D01*
G75*
G02*
X56243750Y84650000I218750J0D01*
G01*
G37*
G04 #@! TD*
G04 #@! TO.C,C15*
G36*
G01*
X12075000Y11000000D02*
X13125000Y11000000D01*
G75*
G02*
X13225000Y10900000I0J-100000D01*
G01*
X13225000Y10100000D01*
G75*
G02*
X13125000Y10000000I-100000J0D01*
G01*
X12075000Y10000000D01*
G75*
G02*
X11975000Y10100000I0J100000D01*
G01*
X11975000Y10900000D01*
G75*
G02*
X12075000Y11000000I100000J0D01*
G01*
G37*
G36*
G01*
X12075000Y9000000D02*
X13125000Y9000000D01*
G75*
G02*
X13225000Y8900000I0J-100000D01*
G01*
X13225000Y8100000D01*
G75*
G02*
X13125000Y8000000I-100000J0D01*
G01*
X12075000Y8000000D01*
G75*
G02*
X11975000Y8100000I0J100000D01*
G01*
X11975000Y8900000D01*
G75*
G02*
X12075000Y9000000I100000J0D01*
G01*
G37*
G04 #@! TD*
G04 #@! TO.C,R28*
G36*
G01*
X27475000Y28825000D02*
X27475000Y25975000D01*
G75*
G02*
X27225000Y25725000I-250000J0D01*
G01*
X26500000Y25725000D01*
G75*
G02*
X26250000Y25975000I0J250000D01*
G01*
X26250000Y28825000D01*
G75*
G02*
X26500000Y29075000I250000J0D01*
G01*
X27225000Y29075000D01*
G75*
G02*
X27475000Y28825000I0J-250000D01*
G01*
G37*
G36*
G01*
X21550000Y28825000D02*
X21550000Y25975000D01*
G75*
G02*
X21300000Y25725000I-250000J0D01*
G01*
X20575000Y25725000D01*
G75*
G02*
X20325000Y25975000I0J250000D01*
G01*
X20325000Y28825000D01*
G75*
G02*
X20575000Y29075000I250000J0D01*
G01*
X21300000Y29075000D01*
G75*
G02*
X21550000Y28825000I0J-250000D01*
G01*
G37*
G04 #@! TD*
G04 #@! TO.C,C8*
G36*
G01*
X8650000Y13460000D02*
X7600000Y13460000D01*
G75*
G02*
X7500000Y13560000I0J100000D01*
G01*
X7500000Y14360000D01*
G75*
G02*
X7600000Y14460000I100000J0D01*
G01*
X8650000Y14460000D01*
G75*
G02*
X8750000Y14360000I0J-100000D01*
G01*
X8750000Y13560000D01*
G75*
G02*
X8650000Y13460000I-100000J0D01*
G01*
G37*
G36*
G01*
X8650000Y15460000D02*
X7600000Y15460000D01*
G75*
G02*
X7500000Y15560000I0J100000D01*
G01*
X7500000Y16360000D01*
G75*
G02*
X7600000Y16460000I100000J0D01*
G01*
X8650000Y16460000D01*
G75*
G02*
X8750000Y16360000I0J-100000D01*
G01*
X8750000Y15560000D01*
G75*
G02*
X8650000Y15460000I-100000J0D01*
G01*
G37*
G04 #@! TD*
D12*
G04 #@! TO.C,Q14*
X36800000Y34350000D03*
X34500000Y34350000D03*
X32200000Y34350000D03*
D13*
X34500000Y40650000D03*
G04 #@! TD*
G04 #@! TO.C,C9*
G36*
G01*
X10650000Y13460000D02*
X9600000Y13460000D01*
G75*
G02*
X9500000Y13560000I0J100000D01*
G01*
X9500000Y14360000D01*
G75*
G02*
X9600000Y14460000I100000J0D01*
G01*
X10650000Y14460000D01*
G75*
G02*
X10750000Y14360000I0J-100000D01*
G01*
X10750000Y13560000D01*
G75*
G02*
X10650000Y13460000I-100000J0D01*
G01*
G37*
G36*
G01*
X10650000Y15460000D02*
X9600000Y15460000D01*
G75*
G02*
X9500000Y15560000I0J100000D01*
G01*
X9500000Y16360000D01*
G75*
G02*
X9600000Y16460000I100000J0D01*
G01*
X10650000Y16460000D01*
G75*
G02*
X10750000Y16360000I0J-100000D01*
G01*
X10750000Y15560000D01*
G75*
G02*
X10650000Y15460000I-100000J0D01*
G01*
G37*
G04 #@! TD*
G04 #@! TO.C,C6*
G36*
G01*
X4650000Y13460000D02*
X3600000Y13460000D01*
G75*
G02*
X3500000Y13560000I0J100000D01*
G01*
X3500000Y14360000D01*
G75*
G02*
X3600000Y14460000I100000J0D01*
G01*
X4650000Y14460000D01*
G75*
G02*
X4750000Y14360000I0J-100000D01*
G01*
X4750000Y13560000D01*
G75*
G02*
X4650000Y13460000I-100000J0D01*
G01*
G37*
G36*
G01*
X4650000Y15460000D02*
X3600000Y15460000D01*
G75*
G02*
X3500000Y15560000I0J100000D01*
G01*
X3500000Y16360000D01*
G75*
G02*
X3600000Y16460000I100000J0D01*
G01*
X4650000Y16460000D01*
G75*
G02*
X4750000Y16360000I0J-100000D01*
G01*
X4750000Y15560000D01*
G75*
G02*
X4650000Y15460000I-100000J0D01*
G01*
G37*
G04 #@! TD*
G04 #@! TO.C,D7*
G36*
G01*
X4125000Y74500000D02*
X4125000Y74800000D01*
G75*
G02*
X4275000Y74950000I150000J0D01*
G01*
X5450000Y74950000D01*
G75*
G02*
X5600000Y74800000I0J-150000D01*
G01*
X5600000Y74500000D01*
G75*
G02*
X5450000Y74350000I-150000J0D01*
G01*
X4275000Y74350000D01*
G75*
G02*
X4125000Y74500000I0J150000D01*
G01*
G37*
G36*
G01*
X6000000Y75450000D02*
X6000000Y75750000D01*
G75*
G02*
X6150000Y75900000I150000J0D01*
G01*
X7325000Y75900000D01*
G75*
G02*
X7475000Y75750000I0J-150000D01*
G01*
X7475000Y75450000D01*
G75*
G02*
X7325000Y75300000I-150000J0D01*
G01*
X6150000Y75300000D01*
G75*
G02*
X6000000Y75450000I0J150000D01*
G01*
G37*
G36*
G01*
X4125000Y76400000D02*
X4125000Y76700000D01*
G75*
G02*
X4275000Y76850000I150000J0D01*
G01*
X5450000Y76850000D01*
G75*
G02*
X5600000Y76700000I0J-150000D01*
G01*
X5600000Y76400000D01*
G75*
G02*
X5450000Y76250000I-150000J0D01*
G01*
X4275000Y76250000D01*
G75*
G02*
X4125000Y76400000I0J150000D01*
G01*
G37*
G04 #@! TD*
G04 #@! TO.C,C2*
G36*
G01*
X5600000Y20460000D02*
X6650000Y20460000D01*
G75*
G02*
X6750000Y20360000I0J-100000D01*
G01*
X6750000Y19560000D01*
G75*
G02*
X6650000Y19460000I-100000J0D01*
G01*
X5600000Y19460000D01*
G75*
G02*
X5500000Y19560000I0J100000D01*
G01*
X5500000Y20360000D01*
G75*
G02*
X5600000Y20460000I100000J0D01*
G01*
G37*
G36*
G01*
X5600000Y18460000D02*
X6650000Y18460000D01*
G75*
G02*
X6750000Y18360000I0J-100000D01*
G01*
X6750000Y17560000D01*
G75*
G02*
X6650000Y17460000I-100000J0D01*
G01*
X5600000Y17460000D01*
G75*
G02*
X5500000Y17560000I0J100000D01*
G01*
X5500000Y18360000D01*
G75*
G02*
X5600000Y18460000I100000J0D01*
G01*
G37*
G04 #@! TD*
G04 #@! TO.C,C18*
G36*
G01*
X18075000Y11000000D02*
X19125000Y11000000D01*
G75*
G02*
X19225000Y10900000I0J-100000D01*
G01*
X19225000Y10100000D01*
G75*
G02*
X19125000Y10000000I-100000J0D01*
G01*
X18075000Y10000000D01*
G75*
G02*
X17975000Y10100000I0J100000D01*
G01*
X17975000Y10900000D01*
G75*
G02*
X18075000Y11000000I100000J0D01*
G01*
G37*
G36*
G01*
X18075000Y9000000D02*
X19125000Y9000000D01*
G75*
G02*
X19225000Y8900000I0J-100000D01*
G01*
X19225000Y8100000D01*
G75*
G02*
X19125000Y8000000I-100000J0D01*
G01*
X18075000Y8000000D01*
G75*
G02*
X17975000Y8100000I0J100000D01*
G01*
X17975000Y8900000D01*
G75*
G02*
X18075000Y9000000I100000J0D01*
G01*
G37*
G04 #@! TD*
G04 #@! TO.C,R12*
G36*
G01*
X17850000Y74110000D02*
X17850000Y74890000D01*
G75*
G02*
X17920000Y74960000I70000J0D01*
G01*
X18480000Y74960000D01*
G75*
G02*
X18550000Y74890000I0J-70000D01*
G01*
X18550000Y74110000D01*
G75*
G02*
X18480000Y74040000I-70000J0D01*
G01*
X17920000Y74040000D01*
G75*
G02*
X17850000Y74110000I0J70000D01*
G01*
G37*
G36*
G01*
X19450000Y74110000D02*
X19450000Y74890000D01*
G75*
G02*
X19520000Y74960000I70000J0D01*
G01*
X20080000Y74960000D01*
G75*
G02*
X20150000Y74890000I0J-70000D01*
G01*
X20150000Y74110000D01*
G75*
G02*
X20080000Y74040000I-70000J0D01*
G01*
X19520000Y74040000D01*
G75*
G02*
X19450000Y74110000I0J70000D01*
G01*
G37*
G04 #@! TD*
G04 #@! TO.C,C20*
G36*
G01*
X13125000Y4000000D02*
X12075000Y4000000D01*
G75*
G02*
X11975000Y4100000I0J100000D01*
G01*
X11975000Y4900000D01*
G75*
G02*
X12075000Y5000000I100000J0D01*
G01*
X13125000Y5000000D01*
G75*
G02*
X13225000Y4900000I0J-100000D01*
G01*
X13225000Y4100000D01*
G75*
G02*
X13125000Y4000000I-100000J0D01*
G01*
G37*
G36*
G01*
X13125000Y6000000D02*
X12075000Y6000000D01*
G75*
G02*
X11975000Y6100000I0J100000D01*
G01*
X11975000Y6900000D01*
G75*
G02*
X12075000Y7000000I100000J0D01*
G01*
X13125000Y7000000D01*
G75*
G02*
X13225000Y6900000I0J-100000D01*
G01*
X13225000Y6100000D01*
G75*
G02*
X13125000Y6000000I-100000J0D01*
G01*
G37*
G04 #@! TD*
G04 #@! TO.C,R5*
G36*
G01*
X56510000Y62950000D02*
X57290000Y62950000D01*
G75*
G02*
X57360000Y62880000I0J-70000D01*
G01*
X57360000Y62320000D01*
G75*
G02*
X57290000Y62250000I-70000J0D01*
G01*
X56510000Y62250000D01*
G75*
G02*
X56440000Y62320000I0J70000D01*
G01*
X56440000Y62880000D01*
G75*
G02*
X56510000Y62950000I70000J0D01*
G01*
G37*
G36*
G01*
X56510000Y61350000D02*
X57290000Y61350000D01*
G75*
G02*
X57360000Y61280000I0J-70000D01*
G01*
X57360000Y60720000D01*
G75*
G02*
X57290000Y60650000I-70000J0D01*
G01*
X56510000Y60650000D01*
G75*
G02*
X56440000Y60720000I0J70000D01*
G01*
X56440000Y61280000D01*
G75*
G02*
X56510000Y61350000I70000J0D01*
G01*
G37*
G04 #@! TD*
G04 #@! TO.C,R6*
G36*
G01*
X77210000Y71950000D02*
X77990000Y71950000D01*
G75*
G02*
X78060000Y71880000I0J-70000D01*
G01*
X78060000Y71320000D01*
G75*
G02*
X77990000Y71250000I-70000J0D01*
G01*
X77210000Y71250000D01*
G75*
G02*
X77140000Y71320000I0J70000D01*
G01*
X77140000Y71880000D01*
G75*
G02*
X77210000Y71950000I70000J0D01*
G01*
G37*
G36*
G01*
X77210000Y70350000D02*
X77990000Y70350000D01*
G75*
G02*
X78060000Y70280000I0J-70000D01*
G01*
X78060000Y69720000D01*
G75*
G02*
X77990000Y69650000I-70000J0D01*
G01*
X77210000Y69650000D01*
G75*
G02*
X77140000Y69720000I0J70000D01*
G01*
X77140000Y70280000D01*
G75*
G02*
X77210000Y70350000I70000J0D01*
G01*
G37*
G04 #@! TD*
G04 #@! TO.C,R2*
G36*
G01*
X16390000Y19850000D02*
X15610000Y19850000D01*
G75*
G02*
X15540000Y19920000I0J70000D01*
G01*
X15540000Y20480000D01*
G75*
G02*
X15610000Y20550000I70000J0D01*
G01*
X16390000Y20550000D01*
G75*
G02*
X16460000Y20480000I0J-70000D01*
G01*
X16460000Y19920000D01*
G75*
G02*
X16390000Y19850000I-70000J0D01*
G01*
G37*
G36*
G01*
X16390000Y21450000D02*
X15610000Y21450000D01*
G75*
G02*
X15540000Y21520000I0J70000D01*
G01*
X15540000Y22080000D01*
G75*
G02*
X15610000Y22150000I70000J0D01*
G01*
X16390000Y22150000D01*
G75*
G02*
X16460000Y22080000I0J-70000D01*
G01*
X16460000Y21520000D01*
G75*
G02*
X16390000Y21450000I-70000J0D01*
G01*
G37*
G04 #@! TD*
D12*
G04 #@! TO.C,Q13*
X5800000Y65950000D03*
X3500000Y65950000D03*
X1200000Y65950000D03*
D13*
X3500000Y72250000D03*
G04 #@! TD*
M02*
